<svg xmlns="http://www.w3.org/2000/svg" viewBox="0 0 68.61 76.56"><defs><style>.cls-1{fill:#556e7b;}.cls-2{fill:#566a70;}.cls-3{fill:#8fc328;}.cls-4{fill:#3093fa;}.cls-5{fill:#376a02;}.cls-6{fill:#fdc300;}.cls-7{fill:#91a4af;}</style></defs><title>Asset 11</title><g id="Layer_2" data-name="Layer 2"><g id="Layer_1-2" data-name="Layer 1"><rect class="cls-1" x="51.51" y="4.52" width="2.63" height="9.27" transform="translate(31.15 58.18) rotate(-75.98)"/><path class="cls-2" d="M40,68.41c1.33.26,2.81,0,3.89,1.12-.21,1.94-.69,3.63-3.24,3.18C38.66,71.55,39.65,69.93,40,68.41Z"/><path class="cls-3" d="M60.74,29.1c-2.5,8.1-5.09,16.17-7.46,24.3a41.66,41.66,0,0,1-9.49,16.88c-1.45.18-2.93.43-3.89-1.12A43.86,43.86,0,0,1,41.48,49.3c2.71-8,5.1-16.16,7.63-24.26A25.52,25.52,0,0,1,60.74,29.1Z"/><path class="cls-3" d="M61.54,27C58.91,35.51,56.18,44,53.68,52.63a43.92,43.92,0,0,1-10,17.83c-1.53.18-3.09.45-4.1-1.18a46.41,46.41,0,0,1,1.67-21c2.85-8.48,5.37-17.07,8-25.62A26.67,26.67,0,0,1,61.54,27Z"/><path class="cls-4" d="M18,63.8c-2.24,1.29-4.12,2.51-6.12,3.49C6.2,70,1.37,68.06.45,61.91A36.06,36.06,0,0,1,7.59,33.76c2.71-3.51,6.63-5.7,11.25-3.95s6,6.17,6.91,10.59c.31,1.45-.11,2.74-1.61,3.14-1.8.49-2.16-1.1-2.52-2.3-1-3.26-1.34-7.57-5.58-7.65-4.66-.09-6.9,4-8.48,7.82a40.58,40.58,0,0,0-3.37,17.7c.28,5.06,2.62,6.27,7.12,3.79,1.86-1,3.62-2.21,5.5-3.2,1.63-.86,3.53-1.45,5.11-.28s.83,3,.43,4.57c-.27,1.11-.51,2.22-.93,4.1C27.76,64.88,31.87,69.7,36.7,72c1.35.63,3.24,2.13,2,3.86-1.43,2-2.7-.61-4.07-.85-4-.68-7.06-4.75-11.87-2.45-2.45,1.17-4.39-.68-4.73-3.43A45.56,45.56,0,0,1,18,63.8Z"/><path class="cls-5" d="M57.93.63h3.95a4.6,4.6,0,0,1,4.6,4.6V23.58a0,0,0,0,1,0,0H53.42a0,0,0,0,1,0,0V5.14A4.51,4.51,0,0,1,57.93.63Z" transform="translate(7.22 -18.87) rotate(19.02)"/><rect class="cls-6" x="48.96" y="22.83" width="13.05" height="4.42" transform="translate(11.19 -16.71) rotate(19.02)"/><rect class="cls-7" x="43.13" y="-0.08" width="3.79" height="25.4" transform="translate(6.57 -13.98) rotate(19.02)"/></g></g></svg>