<svg id="Layer_1" data-name="Layer 1" xmlns="http://www.w3.org/2000/svg" viewBox="0 0 305.8 379.38"><defs><style>.cls-1,.cls-4{fill:#cec8af;}.cls-2{fill:#dbd7c3;}.cls-3{fill:#ece9da;}.cls-4{font-size:30.68px;font-family:Montserrat-Bold, Montserrat;font-weight:700;letter-spacing:0.7em;}</style></defs><title>Untitled-7</title><path class="cls-1" d="M131.47,192.63" transform="translate(-88.63 -111.4)"/><path class="cls-1" d="M340.93,353.66" transform="translate(-88.63 -111.4)"/><path class="cls-2" d="M349.54,95.39" transform="translate(-88.63 -111.4)"/><path class="cls-3" d="M347.1,111.4H96.43a7.8,7.8,0,0,0-7.8,7.8V483a7.8,7.8,0,0,0,7.8,7.8h290.2a7.8,7.8,0,0,0,7.8-7.8V161.72Z" transform="translate(-88.63 -111.4)"/><path class="cls-1" d="M347.1,111.4l-2.35,44.54c.07,5.1,4,9.19,8.71,9.12l41-3.34Z" transform="translate(-88.63 -111.4)"/><rect class="cls-1" x="26.42" y="58.53" width="41.82" height="13.81"/><rect class="cls-1" x="76.43" y="58.53" width="41.82" height="13.81"/><rect class="cls-1" x="127.11" y="58.53" width="41.82" height="13.81"/><rect class="cls-1" x="26.42" y="82.86" width="41.82" height="13.81"/><rect class="cls-1" x="76.43" y="82.86" width="41.82" height="13.81"/><rect class="cls-1" x="127.11" y="82.86" width="41.82" height="13.81"/><rect class="cls-1" x="26.42" y="107.19" width="41.82" height="13.81"/><rect class="cls-1" x="76.43" y="107.19" width="41.82" height="13.81"/><rect class="cls-1" x="127.11" y="107.19" width="41.82" height="13.81"/><rect class="cls-1" x="26.42" y="131.52" width="41.82" height="13.81"/><rect class="cls-1" x="76.43" y="131.52" width="41.82" height="13.81"/><rect class="cls-1" x="127.11" y="131.52" width="41.82" height="13.81"/><rect class="cls-1" x="26.42" y="155.84" width="41.82" height="13.81"/><rect class="cls-1" x="76.43" y="155.84" width="41.82" height="13.81"/><rect class="cls-1" x="127.11" y="155.84" width="41.82" height="13.81"/><rect class="cls-1" x="26.42" y="180.17" width="41.82" height="13.81"/><rect class="cls-1" x="76.43" y="180.17" width="41.82" height="13.81"/><rect class="cls-1" x="127.11" y="180.17" width="41.82" height="13.81"/><rect class="cls-1" x="26.42" y="204.5" width="41.82" height="13.81"/><rect class="cls-1" x="76.43" y="204.5" width="41.82" height="13.81"/><rect class="cls-1" x="127.11" y="204.5" width="41.82" height="13.81"/><rect class="cls-1" x="26.42" y="228.82" width="41.82" height="13.81"/><rect class="cls-1" x="76.43" y="228.82" width="41.82" height="13.81"/><rect class="cls-1" x="127.11" y="228.82" width="41.82" height="13.81"/><rect class="cls-1" x="26.42" y="253.15" width="41.82" height="13.81"/><rect class="cls-1" x="76.43" y="253.15" width="41.82" height="13.81"/><rect class="cls-1" x="127.11" y="253.15" width="41.82" height="13.81"/><rect class="cls-1" x="26.42" y="277.48" width="41.82" height="13.81"/><rect class="cls-1" x="76.43" y="277.48" width="41.82" height="13.81"/><rect class="cls-1" x="127.11" y="277.48" width="41.82" height="13.81"/><rect class="cls-1" x="26.42" y="301.81" width="41.82" height="13.81"/><rect class="cls-1" x="76.43" y="301.81" width="41.82" height="13.81"/><rect class="cls-1" x="127.11" y="301.81" width="41.82" height="13.81"/><rect class="cls-1" x="177.8" y="82.86" width="41.82" height="13.81"/><rect class="cls-1" x="177.8" y="107.19" width="41.82" height="13.81"/><rect class="cls-1" x="177.8" y="131.52" width="41.82" height="13.81"/><rect class="cls-1" x="177.8" y="155.84" width="41.82" height="13.81"/><rect class="cls-1" x="177.8" y="180.17" width="41.82" height="13.81"/><rect class="cls-1" x="177.8" y="204.5" width="41.82" height="13.81"/><rect class="cls-1" x="177.8" y="228.82" width="41.82" height="13.81"/><rect class="cls-1" x="177.8" y="253.15" width="41.82" height="13.81"/><rect class="cls-1" x="177.8" y="277.48" width="41.82" height="13.81"/><rect class="cls-1" x="177.8" y="301.81" width="41.82" height="13.81"/><rect class="cls-1" x="228.48" y="82.86" width="41.82" height="13.81"/><rect class="cls-1" x="228.48" y="107.19" width="41.82" height="13.81"/><rect class="cls-1" x="228.48" y="131.52" width="41.82" height="13.81"/><rect class="cls-1" x="228.48" y="155.84" width="41.82" height="13.81"/><rect class="cls-1" x="228.48" y="180.17" width="41.82" height="13.81"/><rect class="cls-1" x="228.48" y="204.5" width="41.82" height="13.81"/><rect class="cls-1" x="228.48" y="228.82" width="41.82" height="13.81"/><rect class="cls-1" x="228.48" y="253.15" width="41.82" height="13.81"/><rect class="cls-1" x="228.48" y="277.48" width="41.82" height="13.81"/><rect class="cls-1" x="228.48" y="301.81" width="41.82" height="13.81"/><rect class="cls-1" x="26.42" y="326.13" width="41.82" height="13.81"/><rect class="cls-1" x="76.43" y="326.13" width="41.82" height="13.81"/><rect class="cls-1" x="127.11" y="326.13" width="41.82" height="13.81"/><rect class="cls-1" x="177.8" y="326.13" width="41.82" height="13.81"/><rect class="cls-1" x="228.48" y="326.13" width="41.82" height="13.81"/><text class="cls-4" transform="translate(26.42 45.34)">GRID</text></svg>