<svg xmlns="http://www.w3.org/2000/svg" viewBox="0 0 118.73 126.21"><defs><style>.cls-1{fill:#f8f5f8;}.cls-2{fill:#ebbd6b;}.cls-3{fill:#e6ebf5;}.cls-4{fill:#d7e1f0;}.cls-5{fill:#e9b04d;}.cls-6{fill:#e6a52e;}.cls-7{fill:#e6a42e;}</style></defs><g id="Layer_2" data-name="Layer 2"><g id="Layer_1-2" data-name="Layer 1"><path class="cls-1" d="M27.77,118.13q0-3.78,0-7.56c-.59-.57-.43-1.27-.43-1.93,0-7.6-.08-15.19-.05-22.79,0-6.2,0-12.41,0-18.61,0-10.19,0-20.39,0-30.58,0-5.48.07-11,0-16.44-.05-2.77,2-4.75,5.12-5,.76-.06,1.52,0,2.28,0H79.79c1.85,0,3.7.09,5.54.06a2.34,2.34,0,0,1,1.25.3c.88.71.71,1.67.71,2.57,0,7,0,14-.05,21.06a3.9,3.9,0,0,0,.27,2c.62,1.66,2.09,2.05,3.85,2.05,5.31,0,10.62,0,15.93,0a3.54,3.54,0,0,1,2.47.48,3.2,3.2,0,0,1,.36,2q0,33.54,0,67.07a6.33,6.33,0,0,1-.59,3,5.17,5.17,0,0,1-4.52,2.88c-.65,0-1.3,0-2,0H30.75C29.74,118.59,28.66,118.78,27.77,118.13Z"/><path class="cls-2" d="M85.47,15.6l-9.77,0H33.51c-4,0-5.8,1.7-5.78,5.23,0,10,0,20,0,30l0,59.71h-.16l-.16,0a1.93,1.93,0,0,1-.49-1.62c0-1.25,0-2.5,0-3.74,0-2.16-.05-2.2-2.42-2.2-4.93,0-9.86,0-14.79,0-2.28,0-4.56,0-6.83,0-1.81,0-1.92.15-2,1.72,0,.84.24,1.75-.53,2.47-.6-1-.27-2.07-.27-3.11Q.09,55,.14,5.82A10.51,10.51,0,0,1,.27,4C.73,1.45,2.54.06,5.4.06c5.48,0,11,0,16.46,0,.43,0,.86,0,1.3,0,3,0,6,.05,8.94.05H79.94c.65,0,1.31,0,2,0a2.55,2.55,0,0,1,.49,2.05c0,3.58,0,7.17,0,10.75,0,1.73,0,1.73,2,2.07C84.81,15,85.37,15,85.47,15.6Z"/><path class="cls-3" d="M27.77,118.13H104c3.64,0,5.61-1.73,5.61-5q0-34.75,0-69.51a1.64,1.64,0,0,1,1.17-.42q3.22-.1,6.46,0a1.82,1.82,0,0,1,1.17.42,6.63,6.63,0,0,1,.34,2.26q0,37.44,0,74.86c0,3.59-2,5.44-6,5.44H33.35c-3.83,0-5.58-1.54-5.58-4.91Z"/><path class="cls-4" d="M100.11,25.79A93.86,93.86,0,0,0,108,32.65l3,2.92a3.62,3.62,0,0,1-2.48.45H90c-2.3,0-2.33.08-2.4,2.11,0,1.08.34,2.22-.51,3.2-.55-.47-.31-1.09-.31-1.64,0-7.39,0-14.78,0-22.18a2.48,2.48,0,0,0-.33-1.81c.72-.63,1.45-.19,2.06.08a5.12,5.12,0,0,1,2.75,2.1C94.05,20.66,97.07,23.23,100.11,25.79Z"/><path class="cls-4" d="M87.1,41.34a33.5,33.5,0,0,0,0-4c-.19-1.55.52-1.81,2.1-1.8,7.24.07,14.49,0,21.73,0a47.88,47.88,0,0,1,6.56,6,3.06,3.06,0,0,1,.93,2.11H90.81C88.61,43.64,87.78,43.11,87.1,41.34Z"/><path class="cls-5" d="M.36,107.19c0-1.15.06-2.31,0-3.46,0-.83.21-1.21,1.26-1.21q12.3,0,24.6,0c1,0,1.22.32,1.21,1.11,0,2.31,0,4.62,0,6.93-7.62,0-15.24.07-22.86,0A4.46,4.46,0,0,1,.36,107.19Z"/><path class="cls-5" d="M91.26,17.89c-1.52-.87-2.76-2.22-4.81-2.18l-1-.11c-.35-.32-.8-.24-1.23-.24-2.56,0-2.35.33-2.35-2.21q0-6.52,0-13.06c1.13,0,2.28,0,3.41-.06,3.91-.32,6,2.13,6,5.32C91.21,9.53,91.26,13.71,91.26,17.89Z"/><path class="cls-6" d="M19.45,86.66c-2.12,0-4.24,0-6.35,0-1.82,0-2.89-.78-2.94-2.06-.07-1.54.88-2.49,2.8-2.51,4.45-.06,8.92-.17,13.36,0,2.29.11.75,2,1.07,3,.2.64.4,1.61-1.1,1.57C24,86.61,21.73,86.66,19.45,86.66Z"/><path class="cls-6" d="M19.49,62.12c-2.17,0-4.34,0-6.51,0-1.61,0-2.69-.75-2.82-1.87-.17-1.45.51-2.26,2.3-2.57a13,13,0,0,1,2.26-.14c3.8,0,7.6,0,11.4,0,1,0,1.31.23,1.34,1.13.11,3.48.14,3.48-3.73,3.48Z"/><path class="cls-7" d="M19.36,74.26c-2.23,0-4.46,0-6.68,0-1.76,0-2.54-.72-2.53-2.18a2.24,2.24,0,0,1,2.47-2.14c4.5,0,9,0,13.51,0,1,0,1.31.26,1.33,1.15.08,3.21.12,3.21-3.54,3.21Z"/><path class="cls-7" d="M19.45,25.19c-2.27,0-4.55,0-6.83,0-1.62,0-2.37-.64-2.46-1.94a2.19,2.19,0,0,1,2.23-2.36c4.71-.07,9.43,0,14.15,0,.11,0,.26,0,.32,0,1.19,1,.34,2.32.56,3.47.14.75-.46.84-1.13.84C24,25.18,21.73,25.19,19.45,25.19Z"/><path class="cls-7" d="M19.55,37.58c-2.11,0-4.23,0-6.34,0s-3.08-.8-3.06-2.24.83-2.09,2.95-2.1c4.23,0,8.46,0,12.69,0,1.22,0,1.71.23,1.68,1.43-.06,2.93,0,2.93-3.36,2.93Z"/><path class="cls-7" d="M19.33,49.72c-2.22,0-4.45,0-6.67,0-1.7,0-2.46-.67-2.5-2a2.21,2.21,0,0,1,2.35-2.26c4.66-.06,9.33,0,14,0,.46,0,.9.07.91.59,0,1.06.05,2.11,0,3.17,0,.72-.74.57-1.25.58Z"/><rect class="cls-4" x="19.25" y="73.21" width="59.44" height="5.52" rx="2.76" transform="translate(124.94 27) rotate(90)"/><rect class="cls-4" x="32.34" y="73.21" width="59.44" height="5.52" rx="2.76" transform="translate(138.03 13.91) rotate(90)"/><rect class="cls-4" x="45.42" y="73.21" width="59.44" height="5.52" rx="2.76" transform="translate(151.12 0.83) rotate(90)"/><rect class="cls-4" x="59.95" y="73.21" width="59.44" height="5.52" rx="2.76" transform="translate(165.65 -13.7) rotate(90)"/><rect class="cls-4" x="35.13" y="55.29" width="67.13" height="4.89" rx="2.44" transform="translate(137.39 115.47) rotate(-180)"/><rect class="cls-4" x="35.13" y="67.25" width="67.13" height="4.89" rx="2.44" transform="translate(137.39 139.39) rotate(-180)"/><rect class="cls-4" x="35.13" y="80.12" width="67.13" height="4.89" rx="2.44" transform="translate(137.39 165.13) rotate(-180)"/><rect class="cls-4" x="35.13" y="92.99" width="67.13" height="4.89" rx="2.44" transform="translate(137.39 190.87) rotate(-180)"/></g></g></svg>