<svg xmlns="http://www.w3.org/2000/svg" width="480.027" height="511.81" viewBox="0 0 480.027 511.81">
  <g id="Group_6484" data-name="Group 6484" transform="translate(-1092.9 -1300.34)">
    <path id="Path_2117" data-name="Path 2117" d="M1571.89,1719.27c-.72,3.46-2.98,4.93-6.38,4.91-1.33-.01-2.66,0-3.99,0q-107.3,0-214.59.01c-1.99,0-3.98.09-5.97.14q-.015,28.365-.01,56.72c1.03.96,2.07,1.91,3.1,2.87,6.94,7.68,6.94,15.8,0,23.47-1.61,2.73-4.85,3-7.11,4.76.91-3.35,5.03-3.1,6.5-5.82.02-.02.03-.04.05-.06.09-.11.18-.21.26-.32,5.37-6.59,5.36-13.97-.02-20.52-.08-.11-.18-.22-.27-.33-.14-.16-.28-.33-.43-.49a12.9,12.9,0,0,1-2.94-3.93,3.239,3.239,0,0,1-.19-.52c-.05-.15-.09-.31-.13-.47-.87-17.34-.34-34.68-.29-52.03a5.891,5.891,0,0,1,.78-3.06,1.916,1.916,0,0,1,.16-.27,4.324,4.324,0,0,1,.27-.37c2.85-1.95,6.11-1.36,9.22-1.37q104.61-.045,209.23-.05c3.89,0,8.15.86,10.92-3.17,2.27-6.4,1.97-12.87.99-19.32-.05-.34-.11-.68-.16-1.02-.12-.69-.24-1.39-.36-2.08-.55-3.08-3.99-3.64-5.9-5.65.01,0,.01,0,0-.01a2.862,2.862,0,0,1-.23-.26,4.026,4.026,0,0,1-.41-.58c-.93-2.41-.75-4.93-.75-7.41q-.015-132.855,0-265.69a29.734,29.734,0,0,1,.39-6.46,4.522,4.522,0,0,1,.73-1.7c.05-.08.11-.15.16-.22a7.009,7.009,0,0,1,2.58-1.94,7.166,7.166,0,0,0,3.86-4.82c1.05-5.94.59-11.93.35-17.87-.01-.3-.04-.59-.07-.87a1.844,1.844,0,0,0-.05-.25c-.64-3.95-3.82-6.13-8.85-6.3-8.3-.28-16.6,0-24.9-.11-8.13-.12-16.27.44-24.38-.34-1.01-.4-2.01-.81-3.02-1.21-.8-.32-1.61-.65-2.41-.97-31.34-12.59-62.6-25.42-93.9-38.14-20.17-8.19-40.36-16.34-60.5-24.64-1.82-.75-3.82-.72-5.65-1.38a.739.739,0,0,1-.14-.04c-.14-.09-.27-.18-.4-.27-1.55-1.11-2.54-2.78-3.9-4.09a9.736,9.736,0,0,0-.76-.66c-.02-.01-.03-.03-.05-.04-1.33-2.09-4.92-1.6-5.39-4.69,1.79,1.68,4.72,1.57,6.1,3.88a10.185,10.185,0,0,1,4,4.92c3.6-.16,6.78,1.22,10.03,2.54q75.585,30.825,151.21,61.58c1.36.56,2.64,1.32,3.95,1.99q24.69.165,49.38.31c8.9.04,11.28,2.26,11.08,11.2-.12,5.59.98,11.24-.74,16.76-.35,4.41-4.15,4.52-7.1,5.7l.03,281.79c6.01,1.36,7.97,3.45,7.8,9.53C1572.51,1706.78,1573.73,1713.1,1571.89,1719.27Z" fill="#fefefe"/>
    <path id="Path_2118" data-name="Path 2118" d="M1327.95,1812.15c-2.37-1.95-5.41-2.89-7.52-5.28-7.24-8.18-5.45-18.81,4.48-26q.015-28.26.02-56.52c-1.99-.06-3.99-.16-5.98-.16q-108.1-.015-216.19-.01c-7.96,0-9.74-1.72-9.72-9.49.01-5.48.1-10.97.15-16.46.01-4.53,2.76-6.46,6.8-7.18q.03-136.44.06-272.88c0-3,.03-6,.05-9-5.38-1.17-7.57-4.39-7.15-9.97s.2-11.22.26-16.84c.37-5.79,4.39-6.78,9.05-6.79,14.4-.03,28.81,0,43.21-.02,2.48-.01,4.96-.17,7.44-.25,19.03-7.86,38.02-15.79,57.08-23.57q50.31-20.535,100.66-40.95a15.957,15.957,0,0,1,7.24-1.52c2.08-4.4,6.24-6.47,10.06-8.92-2.4,4.34-7.18,6.16-10.29,9.75-.06.02-.13.04-.19.06-.19.05-.37.1-.56.16-11.43,3.31-22.23,8.34-33.21,12.81q-40.44,16.44-80.87,32.87c-15.04,6.1-29.98,12.43-45.14,18.27h-.01c-.91.35-1.82.7-2.73,1.04-1.01.39-2.01.77-3.02,1.15-14.59.8-29.19.16-43.78.37a60.725,60.725,0,0,0-6.47.21c-3.41.4-5.99,1.87-6.9,5.44-.02.18-.03.35-.04.53-.05.4-.08.8-.1,1.2-.4,5.51-.04,11.05-.08,16.57a6.1,6.1,0,0,0,3.2,5.74,7.008,7.008,0,0,1,3.08,2.66,4.51,4.51,0,0,1,.3.78c.01.04.02.07.03.11.68,2.58.48,5.22.48,7.84q.03,131.925,0,263.85a32.551,32.551,0,0,1-.46,7.95,3.01,3.01,0,0,1-.3.76,2.7,2.7,0,0,1-.35.59,7.475,7.475,0,0,1-2.19,1.82,7.314,7.314,0,0,0-3.85,5.8,5.84,5.84,0,0,0-.04.73c0,.11.01.21.01.32.34,5.16-.02,10.33.26,15.48.29,5.43,1.89,6.96,7.38,7.3,2.16.14,4.33.07,6.49.07q103.605,0,207.22.03c3.11,0,6.36-.57,9.25,1.25a4.509,4.509,0,0,1,.39.5,1.4,1.4,0,0,1,.16.26,6.536,6.536,0,0,1,.82,3.42c.02,17.13.51,34.26-.24,51.37a3.79,3.79,0,0,1-.12.51,4.712,4.712,0,0,1-.18.53h-.01c-.64,1.51-2.01,2.48-3.16,3.64-8.02,8.07-6.89,18.57,2.62,24.91C1326.51,1809.76,1328.25,1810.14,1327.95,1812.15Z" fill="#fefefe"/>
    <path id="Path_2119" data-name="Path 2119" d="M1343.75,1805.95q.135.72.3,1.44c-1.61,2.73-4.85,3-7.11,4.76h-8.99c-2.37-1.95-5.41-2.89-7.52-5.28-7.24-8.18-5.45-18.81,4.48-26a12.938,12.938,0,0,1,1.17-.96,11.334,11.334,0,0,1,13.82.25c.36.28.71.57,1.05.89,1.03.96,2.07,1.91,3.1,2.87-.11.5-.22,1-.32,1.51A53.266,53.266,0,0,0,1343.75,1805.95Z" fill="#313f4c"/>
    <path id="Path_2120" data-name="Path 2120" d="M1343.54,1328.93c-.17.18-.34.35-.51.53-8.52,6.82-17.77,5-25.2-4.93-.32.13-.65.26-.97.4-.02-.04-.04-.07-.06-.11-2.13-4.99-3.75-9.94.11-14.51a13.4,13.4,0,0,1,.98-1.05c2.08-4.4,6.24-6.47,10.06-8.92h8.99c1.79,1.68,4.72,1.57,6.1,3.88a2.826,2.826,0,0,1,.1,1.51,8.431,8.431,0,0,1-1.23,2.61c-3.35,5.81-3.45,11.52.32,17.2A6.517,6.517,0,0,1,1343.54,1328.93Z" fill="#117ac8"/>
    <path id="Path_2121" data-name="Path 2121" d="M1564.88,1691.01a3.345,3.345,0,0,1-.25.28c.01.01.01.01,0,.01-1.28,1.36-3.04,1.36-4.75,1.47-1.83.12-3.66.06-5.49.06q-206.64.015-413.28-.02c-3.44-.01-7.03.69-10.25-1.31-.12-.15-.23-.31-.34-.47a6.24,6.24,0,0,1-.32-.56c-.96-1.91-.8-4.06-.8-6.14q-.045-133.98,0-267.96c0-2.22-.19-4.5.89-6.54a5.637,5.637,0,0,1,.37-.62c.02-.02.03-.05.05-.07,2.99-2.11,6.42-1.45,9.7-1.45q131.94-.06,263.88-.03,75.7,0,151.43.03c2.97,0,6.12-.66,8.8,1.28.11.08.22.16.33.25Z" fill="#e3e9f7"/>
    <path id="Path_2122" data-name="Path 2122" d="M1571.95,1403.52c-.35,4.41-4.15,4.52-7.1,5.7l-.49-.03c-1.66-.1-3.31-.25-4.97-.25q-211.47-.03-422.93,0c-1.82,0-3.64.17-5.46.27-.23.2-.46.42-.71.62a1.983,1.983,0,0,1-.94.44,122.639,122.639,0,0,1-27.62-.01,1.305,1.305,0,0,1-.56-.2,5.281,5.281,0,0,1-1.07-.89c-5.38-1.17-7.57-4.39-7.15-9.97s.2-11.22.26-16.84c.51.24,1.02.45,1.53.64,5.82,2.2,11.97,1.68,18.05,1.68q222.54.015,445.07,0c3.82,0,7.67.31,11.36-1.13a3.682,3.682,0,0,1,1.97-.33.83.83,0,0,1,.21.06,1.208,1.208,0,0,1,.55.4,2.953,2.953,0,0,1,.4,1.92C1572.1,1391.57,1572.81,1397.56,1571.95,1403.52Z" fill="#313f4c"/>
    <path id="Path_2123" data-name="Path 2123" d="M1571.89,1719.27c-.72,3.46-2.98,4.93-6.38,4.91-1.33-.01-2.66,0-3.99,0q-107.3,0-214.59.01c-1.99,0-3.98.09-5.97.14-.23.1-.47.19-.7.27a20.573,20.573,0,0,1-14.64.01c-.23-.08-.46-.17-.69-.26-1.99-.06-3.99-.16-5.98-.16q-108.1-.015-216.19-.01c-7.96,0-9.74-1.72-9.72-9.49.01-5.48.1-10.97.15-16.46.43.15.87.3,1.31.44,10.23,3.21,20.81,1.84,31.25,1.84q215.49.135,431,.05c4.15,0,8.32.27,12.35-1.18a4.762,4.762,0,0,1,1.79-.35,1.358,1.358,0,0,1,.99.43h.01v.01a2.633,2.633,0,0,1,.45,1.9C1572.08,1707.33,1572.87,1713.32,1571.89,1719.27Z" fill="#313f4c"/>
    <path id="Path_2124" data-name="Path 2124" d="M1571.89,1699.46h-.01a9.017,9.017,0,0,1-.83.59c-4.21,2.74-8.55,2.13-12.81,2.13q-226.875.015-453.77.08c-3.84.01-7.18-.58-10.01-2.86a12.569,12.569,0,0,1-1.27-1.17c.01-4.53,2.76-6.46,6.8-7.18a4.973,4.973,0,0,1,.9-.59,7.967,7.967,0,0,1,3.74-.82q10.89-.15,21.77,0a7.949,7.949,0,0,1,3.8.83,4.624,4.624,0,0,1,.85.56c1.5.05,2.99.16,4.48.16H1560.4c1.34,0,2.67-.1,4-.16.16-.01.32-.01.48-.02,6.01,1.36,7.97,3.45,7.8,9.53-.17,6.24,1.05,12.56-.79,18.73Z" fill="#3e4b5a"/>
    <path id="Path_2125" data-name="Path 2125" d="M1571.95,1382.59c-.18.25-.36.47-.55.69l-.16.19c-2.73,3.08-5.48,2.86-8.22,2.86q-230.175-.03-460.33.02c-3.07,0-5.93-.15-8.05-2.15a7.428,7.428,0,0,1-1.43-1.84c.37-5.79,4.39-6.78,9.05-6.79,14.4-.03,28.81,0,43.21-.02,2.48-.01,4.96-.17,7.44-.25a37.953,37.953,0,0,1,4.77-1.04h.01c7.92-1.24,15.96-.29,23.93-.53,4.15-.12,8.3-.18,12.46.05,1.08.08,2.16.12,3.23.12-1.15.48-2.3.95-3.45,1.43,1.82.08,3.65.22,5.48.22q133.275.015,266.54,0c1.83,0,3.66-.13,5.48-.2-.84-.48-1.63-1.04-2.49-1.47.64-.01,1.27-.04,1.9-.09,12.29.12,24.6-.78,36.86.5a2.273,2.273,0,0,1,.26.02,16.994,16.994,0,0,1,4.34.94q24.69.165,49.38.31c8.9.04,11.28,2.26,11.08,11.2-.12,5.59.98,11.24-.74,16.76Z" fill="#3e4b5a"/>
    <path id="Path_2126" data-name="Path 2126" d="M1512.23,1375.25c-.73,0-1.46,0-2.19.01q-19.335.03-38.68.09c-.84-.48-1.63-1.04-2.49-1.47-.17-.08-.34-.16-.51-.23-20.02-8.16-40.07-16.23-60.07-24.42q-30.21-12.375-60.35-24.9c-.17.18-.34.35-.5.53a3.575,3.575,0,0,1-.33-.68c.63-4.79-.06-9.58-.07-14.36v-.68c3.6-.16,6.78,1.22,10.03,2.54q75.585,30.825,151.21,61.58C1509.64,1373.82,1510.92,1374.58,1512.23,1375.25Z" fill="#549ffe"/>
    <path id="Path_2127" data-name="Path 2127" d="M1340.96,1724.33q-.015,28.365-.01,56.72c-.29-.13-.57-.26-.86-.37a18.116,18.116,0,0,0-14.19-.24h-.01c-.33.14-.65.28-.98.43q.015-28.26.02-56.52h.53q7.47-.015,14.96-.02Z" fill="#e3e9f7"/>
    <path id="Path_2128" data-name="Path 2128" d="M1347.94,1324.33c-.17.18-.34.35-.5.53-1.31,1.36-2.61,2.71-3.9,4.07-.17.18-.34.35-.51.53-6.13-8.13-6.74-16.27-.65-24.39.21-.29.43-.57.66-.85a10.185,10.185,0,0,1,4,4.92c.2.33.37.66.54.99C1349.82,1314.74,1348.91,1319.54,1347.94,1324.33Z" fill="#338dee"/>
    <path id="Path_2129" data-name="Path 2129" d="M1344.05,1807.39c-.2-.37-.39-.75-.56-1.12a23.184,23.184,0,0,1-.03-21.17c.18-.39.38-.79.59-1.18C1350.99,1791.6,1350.99,1799.72,1344.05,1807.39Z" fill="#3f4c5b"/>
    <path id="Path_2130" data-name="Path 2130" d="M1131.05,1691.03h-.53q-14.985.015-29.98.02h-.55q.03-136.44.06-272.88c0-3,.03-6,.05-9h.74q14.91.015,29.82.04h.34Q1131.03,1550.12,1131.05,1691.03Z" fill="#c6d1e4"/>
    <path id="Path_2131" data-name="Path 2131" d="M1317.83,1324.53c-.32.13-.65.26-.97.4q-33.675,13.68-67.34,27.4-26.145,10.71-52.21,21.57c-1.15.48-2.3.95-3.45,1.43l-38.91-.03h-2.04c19.03-7.86,38.02-15.79,57.08-23.57q50.31-20.535,100.66-40.95a15.957,15.957,0,0,1,7.24-1.52c-.15.3-.29.6-.42.89C1315.36,1314.94,1315.69,1319.73,1317.83,1324.53Z" fill="#549ffe"/>
    <path id="Path_2132" data-name="Path 2132" d="M1301.147,1596.191c-12.6,13.6-28.52,21.035-46.337,24.925-1.915.418-3.878.613-5.819.912-13.187-3.814-25.726-9-36.459-17.8-19.872-16.288-31.361-37.067-33.894-62.808-2.755-27.993,6.442-51.78,25.205-72.067,8.213-8.88,18.415-15.291,29.542-20.1,2-.867,4.195-1.654,5.571,1.126a234.019,234.019,0,0,1,.062,35.69c-2.145,3.729-6.156,2.734-9.363,3.421-14.69,3.15-25.329,11.447-31.7,24.9-12.34,26.062,4.417,57.913,32.815,62.21,12.083,1.828,23.512-.486,33.547-8,1.849-1.385,3.547-3.043,5.858-3.711,1.707-.091,2.7,1.12,3.744,2.151q12.537,12.435,24.972,24.973C1300.026,1593.161,1301.459,1594.227,1301.147,1596.191Z" fill="#549ffe"/>
    <path id="Path_2133" data-name="Path 2133" d="M1237.9,1449.237c-9.357,2.457-17.38,7.584-24.711,13.524-17.517,14.191-28.6,32.367-32.446,54.8-3.7,21.619-.067,41.954,11.016,60.744,13.044,22.114,32.25,36.153,57.377,41.95,2.275.525-.2,1.16-.14,1.771-34.762,3.189-62.94-8.82-83.8-36.923-28.51-38.406-19.848-95.254,18.645-123.7,16.1-11.9,33.976-18.595,54.246-18a4.785,4.785,0,0,1,.783,4.579A2.558,2.558,0,0,1,1237.9,1449.237Z" fill="#338cee"/>
    <path id="Path_2134" data-name="Path 2134" d="M1237.9,1449.237l.4-.991c3.914-3.476,8.869-3.244,13.6-3.82,38.5,4.615,73.341,41.1,75.145,78.7,1.328,10.439,1.257,10.6-8.847,10.516-10.946-.094-21.9.414-32.829-.292-3.627-1.6-3.106-5.173-3.713-8.129-3.729-18.156-14.531-29.78-32.192-35.147-3.746-1.139-8-.363-11.349-3Z" fill="#fdc957"/>
    <path id="Path_2135" data-name="Path 2135" d="M1301.147,1596.191l-30.369-30.791c-.551-1.88.574-3.255,1.605-4.49a42.759,42.759,0,0,0,9.713-23.108c.224-1.945.165-4.541,3.1-5.041,12.582.017,25.155-.019,37.728.035,1.606.006,3.313-.517,4.821.527C1327.27,1557.829,1319,1579.037,1301.147,1596.191Z" fill="#fe6b6b"/>
    <path id="Path_2136" data-name="Path 2136" d="M1449.6,1480.264q-28.7,0-57.407-.013c-6.525-.012-9.878-2.411-10.3-6.934-.417-4.507,1.336-7.4,5.822-8.406a20.425,20.425,0,0,1,4.4-.591q57.156-.048,114.314-.005a20.166,20.166,0,0,1,4.42.5c4.336.987,7.275,3.34,6.972,8.21-.239,3.844-4.141,7.116-8.823,7.2-8.484.145-16.972.044-25.458.045Z" fill="#c6d1e4"/>
    <path id="Path_2137" data-name="Path 2137" d="M1449.619,1545.255q28.479,0,56.958,0c7.256,0,11.42,2.865,11.277,7.705-.143,4.865-4.6,8.243-11.162,8.248q-56.709.042-113.417,0c-3.322,0-6.8-.146-9.315-2.6a7.611,7.611,0,0,1-1.538-8.827c1.475-3.213,4.532-4.566,8.24-4.553C1410.314,1545.291,1429.967,1545.255,1449.619,1545.255Z" fill="#c6d1e4"/>
    <path id="Path_2138" data-name="Path 2138" d="M1449.438,1520.266c-19.806,0-39.613.029-59.419-.018-5.959-.015-9.027-3.6-8.04-9.261.834-4.779,4.2-5.776,8.476-5.766q39.2.092,78.392.031,19.723,0,39.446.008c6.033.012,9.716,3.027,9.561,7.716-.15,4.528-3.666,7.275-9.5,7.281Q1478.9,1520.293,1449.438,1520.266Z" fill="#c6d1e4"/>
    <path id="Path_2139" data-name="Path 2139" d="M1449.923,1641.229q-29.463,0-58.928-.005c-6.756-.005-9.193-2.094-9.083-7.681.094-4.773,3.26-7.322,9.176-7.323q58.679-.01,117.356-.037c4.027-.005,7.226,1.052,8.87,5.006,1.433,3.445-.079,6.063-2.4,8.516-1.748,1.845-3.932,1.515-6.062,1.516Q1479.387,1641.241,1449.923,1641.229Z" fill="#c6d1e4"/>
    <path id="Path_2140" data-name="Path 2140" d="M1449.792,1586.214q29.7,0,59.4.007c5.146.005,8.646,3.059,8.67,7.456s-3.455,7.525-8.741,7.53q-59.148.054-118.3,0c-5.748-.005-8.981-2.92-8.911-7.717.078-5.317,2.45-7.269,8.982-7.274Q1420.342,1586.2,1449.792,1586.214Z" fill="#c6d1e4"/>
    <path id="Path_2141" data-name="Path 2141" d="M1197.954,1645.085c1.494,0,3-.123,4.48.023,4.329.428,7.305,3.574,7.185,7.458a7.9,7.9,0,0,1-7.264,7.553,61.545,61.545,0,0,1-7.966.058c-4.718-.214-8.271-3.623-8.205-7.7.069-4.263,3.353-7.23,8.283-7.448,1.16-.051,2.325-.007,3.487-.007Z" fill="#54a0fe"/>
    <path id="Path_2142" data-name="Path 2142" d="M1278.181,1660.115c-8.1.1-11.728-2.591-11.293-8.283.367-4.817,3.327-6.819,10.171-6.879,8.938-.079,12.4,1.738,12.878,6.766a7.584,7.584,0,0,1-6.786,8.359A35.96,35.96,0,0,1,1278.181,1660.115Z" fill="#fe6b6b"/>
    <path id="Path_2143" data-name="Path 2143" d="M1238.069,1645.067c1.492,0,2.993-.1,4.475.019a7.513,7.513,0,0,1,.249,15.01,53.989,53.989,0,0,1-7.955.087c-4.809-.221-8.3-3.459-8.328-7.542-.033-4.559,3.177-7.425,8.573-7.633.994-.038,1.991-.005,2.986-.005Z" fill="#fdc957"/>
    <path id="Path_2144" data-name="Path 2144" d="M1327.747,1533.323l-43.687-.039a.7.7,0,0,1-.224-.7c.071-.236.144-.354.217-.354,12.233.009,24.474-.232,36.7.149,5.01.156,7.119-1.175,6.2-6.281a14.155,14.155,0,0,1,.088-2.966C1328.587,1526.435,1327.829,1529.9,1327.747,1533.323Z" fill="#f7c67c"/>
    <path id="Path_2145" data-name="Path 2145" d="M1251.9,1444.426l-13.6,3.821-.219-4.849C1242.729,1443.154,1247.37,1443.018,1251.9,1444.426Z" fill="#e39f26"/>
    <path id="Path_2146" data-name="Path 2146" d="M1284.053,1532.226q0,.53.007,1.058c-.661,12.263-5.3,22.881-13.282,32.116-10.955,9.363-23.3,14.089-38.021,12.891-19.158-1.559-37.839-20.31-39.9-39.369-2.974-27.463,16.92-50.923,45.258-51.846C1262.4,1488.037,1281.985,1504.493,1284.053,1532.226Z" fill="#e3e9f7"/>
  </g>
</svg>
