<svg xmlns="http://www.w3.org/2000/svg" width="74" height="74" viewBox="0 0 74 74">
    <g transform="translate(-212 -316)">
        <circle cx="37" cy="37" r="37" transform="translate(212 316)" fill="#f15642"/>
        <path d="M865.119,3452l-17.5-20.68,34.292-27.227,18.611,20.334s-3.828,13.006-12.679,19.9S865.119,3452,865.119,3452Z"
              transform="translate(-616 -3062)" fill="#a91300" opacity="0.21"/>
        <path d="M1.7,0,25.761-.017c4.92,8.655,3.226,2.483,8.317,8.325l.159,28.933a3.387,3.387,0,0,1-3.213,3.51H4c-.941,0-4.034-.665-4-3.51V1.81A1.76,1.76,0,0,1,1.7,0Z"
              transform="translate(232 332)" fill="#fff"/>
        <path d="M0,0H28.967a0,0,0,0,1,0,0V21a3,3,0,0,1-3,3H3a3,3,0,0,1-3-3V0A0,0,0,0,1,0,0Z"
              transform="translate(234.556 346)" fill="#e24834"/>
        <text transform="translate(244.556 342)" fill="#f15642" stroke="#f15642" stroke-width="0.5" font-size="8"
              font-family="Helvetica">
            <tspan x="-8" y="0">PDF</tspan>
        </text>
        <g transform="translate(249.483 349)" fill="#f2897b" stroke="#f2897b" stroke-width="1">
            <rect width="12.335" height="6" stroke="none"/>
            <rect x="0.5" y="0.5" width="11.335" height="5" fill="none"/>
        </g>
        <line x2="11.116" transform="translate(236.686 350.5)" fill="none" stroke="#f2897b" stroke-width="1"/>
        <line x2="11.116" transform="translate(236.686 354.5)" fill="none" stroke="#f2897b" stroke-width="1"/>
        <line x2="25.133" transform="translate(236.686 359)" fill="none" stroke="#f2897b" stroke-width="1"/>
        <line x2="25.133" transform="translate(236.686 363)" fill="none" stroke="#f2897b" stroke-width="1"/>
        <line x2="25.133" transform="translate(236.686 367)" fill="none" stroke="#f2897b" stroke-width="1"/>
        <path d="M-2.614-.131l8.106,9c-2.428.351-6.918-.137-7.925-1.447S-2.614-.131-2.614-.131Z"
              transform="translate(260.549 332)" fill="#fff" stroke="#f15642" stroke-width="1.5"/>
    </g>
</svg>