<svg xmlns="http://www.w3.org/2000/svg" viewBox="0 0 182.67 182.3"><defs><style>.cls-1{fill:#e5e8ec;}.cls-2{fill:#fbd670;}.cls-3{fill:#959ea9;}.cls-4{fill:#efcfb3;}.cls-5{fill:#fe816e;}.cls-6{fill:#b3dc7e;}.cls-7{fill:#fee9a6;}.cls-8{fill:#69d5f3;}.cls-9{fill:#a9b1bc;}</style></defs><g id="Layer_2" data-name="Layer 2"><g id="Layer_1-2" data-name="Layer 1"><path d="M165,47.79a13,13,0,0,1,12.88,2.42,13.2,13.2,0,0,1,.8,19.68c-4.8,4.9-9.69,9.73-14.59,14.54a1.58,1.58,0,0,0-.33,2.28,87.35,87.35,0,0,1,10.17,38.83c.17,5,1.46,9.91,2.28,14.85,1.26,7.6,2.5,15.2,3.87,22.78.34,1.88-.76,1.48-1.72,1.48q-55.78,0-111.55,0c-1.55,0-2,.27-2,1.94.09,9.56-6.14,15.73-15.7,15.74-11.29,0-22.58,0-33.87,0C6.39,182.26,0,175.9,0,167.09Q0,120.25,0,73.4A32.15,32.15,0,0,1,28.15,41.54c1.16-.16,1.36-.59,1.34-1.63-.18-9.48,0-8.81,6.4-15.17C43.05,17.6,50.23,10.48,57.35,3.29A10.48,10.48,0,0,1,65.21,0q45,.06,90,0C161.44,0,165,3.6,165,9.86V47.79Z"/><path class="cls-1" d="M111,5.9h44c3.15,0,4.08.9,4.08,4q0,20.22,0,40.42a3.05,3.05,0,0,1-1,2.39q-8.51,8.4-16.92,16.88a3,3,0,0,1-2.39,1c-3.81-.06-7.61,0-11.42,0a17.46,17.46,0,0,0-13.1,5.2,2.83,2.83,0,0,1-2.33.69c-13.13,0-26.26,0-39.39,0-1.53,0-1.9.34-1.89,1.88q.07,36.36,0,72.74c0,1.51.33,1.89,1.87,1.89,20.37-.06,40.75,0,61.12-.08,1.51,0,1.94.32,1.9,1.87-.12,4.05,0,4.05-4.1,4.05q-32.4,0-64.8,0c-1.52,0-1.89-.35-1.89-1.88q.09-41.42,0-82.84c0-16.2-10.68-29.18-26.56-32.37-2.9-.58-2.9-.58-2.9-3.53s0-2.89,2.83-2.89c5.77,0,11.53,0,17.3,0,5.6,0,9.31-3.74,9.33-9.35,0-6.06.06-12.12,0-18.18,0-1.5.31-1.91,1.87-1.91C81.44,5.93,96.23,5.9,111,5.9Z"/><path class="cls-2" d="M32.45,47.06A26.46,26.46,0,1,1,5.91,73.39,26.54,26.54,0,0,1,32.45,47.06Z"/><path class="cls-3" d="M58.93,92.08v74.37c0,6.48-3.51,10-10,10H15.58c-6,0-9.67-3.62-9.67-9.57q0-36.47,0-72.94V92.22a49.77,49.77,0,0,0,5.62,6c.52.45.26,1.17.26,1.76,0,5.63,0,11.27,0,16.9,0,4.26,2.33,6.58,6.62,6.58q14,0,28,0c4.28,0,6.63-2.32,6.64-6.56,0-5.7,0-11.39,0-17.09a2.68,2.68,0,0,1,1.07-2.34A31.57,31.57,0,0,0,58.93,92.08Z"/><path class="cls-4" d="M126.69,102.68c0-4.35,0-8.69,0-13,0-1.52.53-1.55,1.71-1.17a5.9,5.9,0,0,1,4.21,5.81c0,6.24.05,12.49,0,18.73,0,1.37.31,1.84,1.7,1.69s3,.38,3.93-.26.25-2.39.27-3.65a2.14,2.14,0,0,1,.81-1.55c6.16-6.14,12.34-12.27,18.45-18.46,1-1,1.25-.58,1.73.36A79.62,79.62,0,0,1,167.86,123c.06,1-.34,1.36-1.24,1.6q-13.2,3.55-26.38,7.18a2,2,0,0,1-2-.44c-2-1.68-4.15-3.25-6.17-4.95A14.43,14.43,0,0,1,126.7,115C126.66,110.88,126.69,106.78,126.69,102.68Z"/><path class="cls-5" d="M138.47,101.76c0-2.65,0-4.78,0-6.9a11.63,11.63,0,0,0-3.61-9.08c-.68-.65-.62-1,0-1.56,9.81-9.76,19.57-19.58,29.43-29.29a7.42,7.42,0,0,1,10.25,10.73c-8.45,8.52-17,17-25.46,25.46C145.65,94.53,142.24,98,138.47,101.76Z"/><path class="cls-6" d="M157.17,158.77c-4.78,0-9.56,0-14.34,0-1.1,0-1.46-.24-1.44-1.41q.09-9.34,0-18.71a1.29,1.29,0,0,1,1.13-1.5q12.4-3.33,24.78-6.73c.87-.24,1.24-.25,1.41.84q2.1,12.93,4.35,25.83c.26,1.49-.22,1.7-1.55,1.68C166.73,158.72,162,158.77,157.17,158.77Z"/><path class="cls-7" d="M110,82.34a25.18,25.18,0,0,0-.57,11.76h-1.67c-9.82,0-19.64,0-29.46,0-1.35,0-1.77-.28-1.71-1.68.12-3,.07-6,0-9,0-.89.25-1.13,1.13-1.13C88.39,82.35,99.07,82.34,110,82.34Z"/><path class="cls-8" d="M17.69,102.34c9.81,4.64,19.5,4.69,29.46,0v6.14c0,2.57,0,5.13,0,7.7,0,1-.11,1.49-1.35,1.49-8.94-.06-17.88,0-26.83,0-.65,0-1.33.19-1.32-.92C17.72,112,17.69,107.3,17.69,102.34Z"/><path class="cls-7" d="M110.84,100c-4,4-7.73,7.63-11.4,11.29a1.89,1.89,0,0,1-1.51.47c-6.68,0-13.36,0-20,0-1,0-1.33-.31-1.31-1.33q.11-4.59,0-9.17c0-1.06.31-1.31,1.33-1.31C88.7,100,99.48,100,110.84,100Z"/><path class="cls-5" d="M120.79,109c.16,2.69-.31,5.94.32,9.15a1.45,1.45,0,0,1-.59,1.42c-2.57,2.54-5.14,5.07-7.64,7.67-.77.8-1.2.64-1.89-.07-2.87-2.92-5.76-5.83-8.7-8.67-.8-.77-.65-1.19.06-1.88,5.39-5.33,10.74-10.7,16.12-16.05a3.3,3.3,0,0,1,.83-.71c.94-.47,1.57-.53,1.52.9C120.73,103.36,120.79,105.92,120.79,109Z"/><path class="cls-7" d="M106.06,137.87c0,2.87,0,5.54,0,8.21,0,1.31-.86.92-1.49.92-6.81,0-13.61,0-20.42,0-2.14,0-4.29,0-6.44,0-.86,0-1.16-.21-1.14-1.11,0-3.18,0-6.37,0-9.55,0-.86.21-1.15,1.12-1.14,3.31.05,6.62.06,9.93,0,.84,0,1.12.34,1.43,1,2.05,4.35,6,5.89,10.53,4.15C101.7,139.6,103.79,138.76,106.06,137.87Z"/><path class="cls-7" d="M123.74,136.23c0,3.11,0,6.23,0,9.34,0,1-.11,1.52-1.35,1.47-3-.1-6.12-.07-9.17,0-1.07,0-1.33-.32-1.31-1.33.07-3,0-6,0-9,0-.46-.23-1,.29-1.35,4.06-2.31,6.61-6.26,10.06-9.23.34-.3.57-1,1.12-.76s.28.86.29,1.31C123.75,129.88,123.74,133.05,123.74,136.23Z"/><path class="cls-6" d="M58.93,11c0,4.85,0,10.09,0,15.34,0,2-1.19,3.11-3.27,3.12-5.2,0-10.41,0-15.23,0Z"/><path class="cls-7" d="M94.05,117.61c-1.53,3.82-3,7.42-4.41,11-.26.67-.67.73-1.26.73-3.55,0-7.1,0-10.66,0-.87,0-1.15-.23-1.13-1.12,0-3.18,0-6.36,0-9.54,0-.67,0-1.14.93-1.13C83,117.63,88.39,117.61,94.05,117.61Z"/><path class="cls-4" d="M134,76.86c-1,1-2.08,1.91-3.05,2.92-1.43,1.49-2.74,2.76-5.19,2.72-2.73,0-4.84,2.65-5,5.45-.06,1.16.07,2.33-.06,3.48a2.93,2.93,0,0,1-5.76.39c-1.66-6.3,2.49-13.44,8.7-15,3.36-.83,6.79-.2,10.18-.44Z"/><path class="cls-9" d="M96.37,135.23a2,2,0,0,1-2-2.63c1.11-3,2.36-5.89,3.51-8.84.35-.89.7-.59,1.15-.13l6.88,6.86c.36.36.8.73,0,1.06q-4.59,1.83-9.19,3.63A1.11,1.11,0,0,1,96.37,135.23Z"/><path class="cls-7" d="M129.93,132.23a2.77,2.77,0,0,0,.47.34c6.52,2.79,5.09,8.54,5.12,13.74,0,.43-.11.72-.6.7h-.37c-4.92.39-4.92.39-4.92-4.47,0-2.94,0-5.87,0-8.81C129.65,133.24,129.35,132.65,129.93,132.23Z"/><path d="M112,11.78c13.19,0,26.38,0,39.58,0,1.35,0,1.73.29,1.71,1.68-.1,4.84-.08,9.68,0,14.51,0,1.2-.3,1.51-1.51,1.51q-39.75-.06-79.52,0c-1.18,0-1.53-.28-1.52-1.49.08-4.84.09-9.68,0-14.51,0-1.38.32-1.71,1.7-1.7C85.57,11.81,98.76,11.78,112,11.78Z"/><path d="M111.87,41.18c-13.13,0-26.26,0-39.39,0-1.41,0-1.84-.3-1.8-1.77.1-4.14,0-4.14,4.18-4.14q38.19,0,76.39,0c1.58,0,2.05.32,2,2-.14,4,0,4-4,4Z"/><path d="M112,52.94c-13.19,0-26.38,0-39.57,0-1.36,0-1.74-.29-1.71-1.68.08-4.23,0-4.23,4.28-4.23q38.19,0,76.38,0c1.52,0,1.95.33,1.9,1.88-.12,4,0,4-4.1,4Z"/><path d="M94.2,64.7c-7.3,0-14.6,0-21.9,0-1.26,0-1.64-.26-1.62-1.58.06-4.33,0-4.33,4.36-4.33,13.68,0,27.36,0,41,0,1.39,0,1.84.29,1.81,1.76-.11,4.15,0,4.15-4.18,4.15Z"/><path d="M29.47,90.52c.41-1.66-.2-2.87-2.21-3.93-3-1.61-4.51-6.21-3.69-9.54.11-.46.31-.6.72-.59s1,0,1.47,0c1.16,0,2.58-.34,3.41.19s.21,2,.3,3.11a2.53,2.53,0,0,0,2.39,2.56c1.54.18,2.9-.19,3.38-1.82.44-1.46-.34-2.46-1.63-3.11-1.7-.84-3.4-1.67-5.09-2.53a8.19,8.19,0,0,1-4.91-7.77,8,8,0,0,1,4.85-7.4c.82-.4,1.12-.83,1-1.65a3.49,3.49,0,0,1,0-.56c0-4.86,0-4.84,4.86-4.56.77,0,1.15.21,1,1,0,.36,0,.74,0,1.1-.21,2.42,0,4.27,2.64,5.76,3.36,1.92,3.46,5.64,3.26,9.17,0,.49-.3.6-.72.6s-1,0-1.47,0c-1.16,0-2.57.34-3.4-.2s-.21-2-.3-3.11A2.51,2.51,0,0,0,33,64.72c-1.54-.19-2.9.18-3.39,1.82-.43,1.45.35,2.45,1.64,3.1,1.75.87,3.51,1.73,5.24,2.63a8.06,8.06,0,0,1,4.75,7.67,7.92,7.92,0,0,1-4.84,7.41c-.82.39-1.12.82-1,1.65a6.91,6.91,0,0,1,0,.91c0,4.2,0,4.14-4.11,4.22-1.4,0-2-.29-1.79-1.77A13.44,13.44,0,0,0,29.47,90.52Z"/><path d="M53,150c0,4.71,0,9.43,0,14.14,0,3.91-2.41,6.33-6.3,6.34q-14.35,0-28.71,0a5.85,5.85,0,0,1-6.21-6.24q0-14.33,0-28.66a5.86,5.86,0,0,1,6.2-6.24q14.44,0,28.9,0A5.83,5.83,0,0,1,53,135.53C53.06,140.36,53,145.2,53,150Z"/><path class="cls-5" d="M112,23.54c-11.22,0-22.44,0-33.66,0-1.34,0-1.76-.27-1.73-1.68.08-4.23,0-4.23,4.3-4.23q32.28,0,64.56,0c1.5,0,2,.31,1.92,1.87-.12,4,0,4-4.12,4Z"/><path class="cls-5" d="M47.15,156c0,2.44-.07,4.89,0,7.32,0,1.17-.34,1.4-1.44,1.41-4.48,0-4.48.06-4.48-4.39,0-4,0-7.94,0-11.9,0-1.17.34-1.4,1.44-1.41,4.48,0,4.48-.06,4.48,4.39Z"/><path class="cls-5" d="M20.77,135.25c2.81,0,2.81,0,2.81,2.89s0,3-3.08,3c-2.81,0-2.81,0-2.81-2.89S17.69,135.25,20.77,135.25Z"/><path class="cls-5" d="M35.36,138.23c0,2.9,0,2.9-3.71,2.9-2.18,0-2.18,0-2.18-3.7,0-2.18,0-2.18,3.9-2.18C35.36,135.25,35.36,135.25,35.36,138.23Z"/><path class="cls-5" d="M44.21,135.25c2.94,0,2.94,0,2.94,2.95s0,2.93-2.95,2.93-2.94,0-2.94-2.94S41.26,135.25,44.21,135.25Z"/><path class="cls-5" d="M23.58,150.1c0,2.79,0,2.79-2.91,2.79s-3,0-3-2.9,0-3,2.91-3S23.58,147,23.58,150.1Z"/><path class="cls-5" d="M32.51,147c2.85,0,2.85,0,2.85,2.85,0,3,0,3-3,3-2.86,0-2.86,0-2.86-2.84C29.47,147,29.47,147,32.51,147Z"/><path class="cls-5" d="M20.72,158.77c2.86,0,2.86,0,2.86,2.85,0,3,0,3-3,3-2.86,0-2.86,0-2.86-2.85C17.69,158.77,17.69,158.77,20.72,158.77Z"/><path class="cls-5" d="M32.33,164.65c-2.86,0-2.86,0-2.86-2.85,0-3,0-3,3-3,2.85,0,2.85,0,2.85,2.85C35.36,164.65,35.36,164.65,32.33,164.65Z"/></g></g></svg>