<svg
				xmlns="http://www.w3.org/2000/svg"
				width="46.083"
				height="34.562"
				viewBox="0 0 46.083 34.562"
			>
				<path
					id="Icon_awesome-plane-departure"
					data-name="Icon awesome-plane-departure"
					d="M44.93,32.2H1.152A1.152,1.152,0,0,0,0,33.355v2.3a1.152,1.152,0,0,0,1.152,1.152H44.93a1.152,1.152,0,0,0,1.152-1.152v-2.3A1.152,1.152,0,0,0,44.93,32.2ZM5.8,24.518a2.375,2.375,0,0,0,1.752.771l9.4-.013a4.725,4.725,0,0,0,2.134-.513l20.95-10.631a12.24,12.24,0,0,0,4.826-4.2c1.318-2.051,1.462-3.535.941-4.583s-1.781-1.82-4.194-1.976a12.1,12.1,0,0,0-6.212,1.4L28.3,8.377,12.555,2.468a1.282,1.282,0,0,0-1.3-.08l-4.734,2.4a1.316,1.316,0,0,0-.372,2.054L17.4,13.909,9.969,17.68,4.76,15.054a1.282,1.282,0,0,0-1.157,0L.714,16.522a1.316,1.316,0,0,0-.4,2.022Z"
					transform="translate(0 -2.249)"
					fill="#757d86"
				/>
			</svg>