<svg
				xmlns="http://www.w3.org/2000/svg"
				width="33.606"
				height="46.368"
				viewBox="0 0 33.606 46.368"
				
			>
				<path
					id="Icon_map-train-station"
					data-name="Icon map-train-station"
					d="M31.713,36.323l-.109-.209.055-.078.055-.078a12.919,12.919,0,0,0,2.767-1.552,4.576,4.576,0,0,0,1.665-2.717l.208-.956V6.047A3.783,3.783,0,0,0,35.825,4.2,7.07,7.07,0,0,0,34.5,2.485,7.583,7.583,0,0,0,32.74,1.217a4.127,4.127,0,0,0-1.876-.5H13.2a4.192,4.192,0,0,0-1.823.471A7.557,7.557,0,0,0,9.58,2.407,6.714,6.714,0,0,0,8.236,4.064a3.688,3.688,0,0,0-.529,1.828V30.946a3.233,3.233,0,0,0,.316,1.318,6.487,6.487,0,0,0,.791,1.287,8.155,8.155,0,0,0,1.032,1.112,7.005,7.005,0,0,0,1.081.816c.17.072.483.182.926.322s.636.243.6.31L5.226,47.088H9.444l5.278-7.65H29.285l5.273,7.65h4.273ZM17.835,2.828a.842.842,0,0,1,.264-.556.721.721,0,0,1,.527-.285H25.38a1.1,1.1,0,0,1,.424.206c.208.141.313.281.313.422V5.2a.6.6,0,0,1-.262.474.8.8,0,0,1-.474.219h-6.8l-.215-.167a1.926,1.926,0,0,1-.341-.291.528.528,0,0,1-.185-.388V2.828Zm-6.807,7.228a2.435,2.435,0,0,1,.239-1.031,4.052,4.052,0,0,1,.606-.924,3.049,3.049,0,0,1,.869-.681,2.186,2.186,0,0,1,1.033-.265H30.184a2.434,2.434,0,0,1,.945.207A3.246,3.246,0,0,1,32,7.944a3.311,3.311,0,0,1,.634.8,1.782,1.782,0,0,1,.234.893v5.594a1.784,1.784,0,0,1-.261.919,2.849,2.849,0,0,1-.686.8,3.946,3.946,0,0,1-.9.546,2.176,2.176,0,0,1-.947.213h-16.2l-.267-.047a1.6,1.6,0,0,1-.318-.109,2.676,2.676,0,0,1-1.58-.95,2.593,2.593,0,0,1-.688-1.738v-4.8Zm4.884,21.789a2.721,2.721,0,0,1-2.031.843,2.561,2.561,0,0,1-1.983-.843,2.963,2.963,0,0,1-.763-2.061,2.663,2.663,0,0,1,.794-1.921,2.605,2.605,0,0,1,1.952-.823,2.9,2.9,0,0,1,2.031.763,2.658,2.658,0,0,1,.817,2.036A2.78,2.78,0,0,1,15.912,31.844Zm12.08,0a2.86,2.86,0,0,1-.82-2.061,2.52,2.52,0,0,1,.871-1.981,3.022,3.022,0,0,1,2.035-.763,2.586,2.586,0,0,1,1.976.823,2.727,2.727,0,0,1,.767,1.921,2.906,2.906,0,0,1-.793,2.061,2.638,2.638,0,0,1-2.008.843,2.708,2.708,0,0,1-2.027-.843Z"
					transform="translate(-5.226 -0.72)"
					fill="#757d86"
				
				/>
			</svg>