<svg xmlns="http://www.w3.org/2000/svg" viewBox="0 0 383.06 343.23"><defs><style>.cls-1{fill:#d94a54;}.cls-2{fill:#f5e166;}.cls-3{fill:#544f57;}</style></defs><g id="Layer_2" data-name="Layer 2"><g id="Layer_1-2" data-name="Layer 1"><path class="cls-1" d="M383.06,308.76c-1.38,1.45-1.2,3.43-1.74,5.16-5.5,17.81-21,29.29-39.86,29.29q-149.8,0-299.6,0c-32.58,0-52.25-33.44-36.11-61.81,22.58-39.67,45.52-79.14,68.3-118.7Q114.49,92.52,154.9,22.3c8-14,19.77-22.07,36-22.29,16-.23,28.29,7,36.36,20.91q26,44.83,51.78,89.79,48.28,83.81,96.62,167.59A84.05,84.05,0,0,1,383.06,296Z"/><path class="cls-2" d="M191.32,312.43q-74.06,0-148.11,0c-2.92,0-5.74-.25-8.18-2-4.39-3.22-5.41-8.59-2.36-14,6.94-12.26,14-24.45,21.06-36.67L119.85,145q31.1-54,62.21-108c4.9-8.47,14-8.48,18.89,0q31.34,54.29,62.56,108.64,31.38,54.47,62.8,108.93c7.84,13.61,15.44,27.39,23.62,40.8,5.92,9.71-1.47,17.27-10.12,17.21C290.32,312.26,240.82,312.43,191.32,312.43Z"/><path class="cls-3" d="M172,160.45q0-21.73,0-43.48c0-11.66,8.31-20.38,19.32-20.42,11.27,0,19.58,8.61,19.6,20.52q0,43.67,0,87.33c0,11.67-8.31,20.39-19.32,20.43-11.22,0-19.56-8.65-19.59-20.53Q172,182.39,172,160.45Z"/><path class="cls-3" d="M191.36,284.83A19.5,19.5,0,1,1,211,265.52,19.4,19.4,0,0,1,191.36,284.83Z"/></g></g></svg>