<svg id="Component_19_1" data-name="Component 19 – 1" xmlns="http://www.w3.org/2000/svg" width="28" height="28" viewBox="0 0 28 28">
  <circle id="Ellipse_2" data-name="Ellipse 2" cx="14" cy="14" r="14" fill="#fecd2f"/>
  <path id="Subtraction_1" data-name="Subtraction 1" d="M8.2,16.137A8.184,8.184,0,0,1,6.259,0,6.294,6.294,0,1,0,16.365,7.211c.022.247.033.5.033.742a8.189,8.189,0,0,1-8.2,8.184Z" transform="translate(5.812 6.052)" fill="var(--primary_theme_color_green)" opacity="0"/>
  <path id="Icon_metro-sun4" data-name="Icon metro-sun4" d="M13.079,8.335a4.1,4.1,0,1,0,4.1,4.1A4.106,4.106,0,0,0,13.079,8.335Zm0-1.172a.586.586,0,0,0,.586-.586V5.406a.586.586,0,1,0-1.172,0V6.578A.585.585,0,0,0,13.079,7.164Zm0,10.546a.586.586,0,0,0-.586.586v1.172a.586.586,0,1,0,1.172,0V18.3A.586.586,0,0,0,13.079,17.709Zm4.556-9,.828-.828a.586.586,0,0,0-.828-.828l-.828.828a.586.586,0,0,0,.828.828ZM8.522,16.166l-.828.828a.586.586,0,0,0,.828.828l.828-.828a.586.586,0,0,0-.828-.828Zm-.716-3.73a.586.586,0,0,0-.586-.586H6.049a.586.586,0,1,0,0,1.172H7.22A.586.586,0,0,0,7.806,12.437Zm12.3-.586H18.938a.586.586,0,1,0,0,1.172H20.11a.586.586,0,0,0,0-1.172ZM8.521,8.708a.586.586,0,1,0,.828-.828l-.828-.828a.586.586,0,0,0-.828.828Zm9.115,7.457a.586.586,0,1,0-.828.828l.828.828a.586.586,0,0,0,.828-.828Z" transform="translate(1.312 1.955)" fill="#ffee34"/>
</svg>
