<svg xmlns="http://www.w3.org/2000/svg" width="100%" height="100%" viewBox="0 0 24.309 24.18">
  <g id="Group_494" data-name="Group 494" transform="translate(56.474 24.366)">
    <path id="Path_870" data-name="Path 870" d="M-40.589-15.682a.161.161,0,0,0-.118-.05.151.151,0,0,0-.118.05l-5.12,5.158-1.863-1.863a.162.162,0,0,0-.229-.006l-.006.006-.747.747a.166.166,0,0,0,0,.236l0,0,2.35,2.35a.741.741,0,0,0,.491.239.786.786,0,0,0,.487-.231l5.611-5.64a.18.18,0,0,0,0-.239Z" fill="#fff" stroke="#fff" stroke-width="1"/>
    <path id="Path_871" data-name="Path 871" d="M-32.8-12.54a1.967,1.967,0,0,1-.314-2.445,2.023,2.023,0,0,0,.227-1.737,2.185,2.185,0,0,0-1.433-1.249,1.824,1.824,0,0,1-1.264-1.922,2.171,2.171,0,0,0-.681-1.7A1.965,1.965,0,0,0-37.9-22a2.112,2.112,0,0,1-2.317-1.266,1.749,1.749,0,0,0-.375-.579,1.71,1.71,0,0,0-2.388-.071,2.114,2.114,0,0,1-2.594.075,1.827,1.827,0,0,0-.71-.428,1.794,1.794,0,0,0-1.375.115,1.732,1.732,0,0,0-.864.981,1.993,1.993,0,0,1-2.109,1.183,1.974,1.974,0,0,0-.761-.049,1.946,1.946,0,0,0-1.676,2.143,1.905,1.905,0,0,1-1.341,1.98,1.9,1.9,0,0,0-.772.356,1.848,1.848,0,0,0-.7,1.235,1.782,1.782,0,0,0,.334,1.305,1.98,1.98,0,0,1-.332,2.468,1.983,1.983,0,0,0-.592,1.477,2.311,2.311,0,0,0,.951,1.545l.116.1c.9.748,1.054,1,.87,1.432l-.062.309c-.116,2.217.064,2.731,2.242,3.137.791.149.989.6,1.328,1.521l.069.187a2.134,2.134,0,0,0,1.071,1.31,1.951,1.951,0,0,0,1.561-.056,2.015,2.015,0,0,1,2.443.543,1.881,1.881,0,0,0,.621.6,1.874,1.874,0,0,0,.955.26,1.782,1.782,0,0,0,1.543-.846A1.894,1.894,0,0,1-40.445-1.6a2.08,2.08,0,0,0,1.777.023,2.173,2.173,0,0,0,1.045-1.553,1.781,1.781,0,0,1,1.6-1.5,2.005,2.005,0,0,0,.87-.15,1.941,1.941,0,0,0,1.078-2.485,2.02,2.02,0,0,1,.869-2.277,1.813,1.813,0,0,0,.638-.5A1.793,1.793,0,0,0-32.8-12.54Zm-.938,1.556a.449.449,0,0,1-.167.117,3.544,3.544,0,0,0-1.586,4.1.464.464,0,0,1-.248.607.627.627,0,0,1-.28.035,3.281,3.281,0,0,0-3.077,2.7c-.078.321-.186.477-.262.516a.713.713,0,0,1-.5-.067,3.405,3.405,0,0,0-4.156,1.12.359.359,0,0,1-.487.126.5.5,0,0,1-.157-.171,3.556,3.556,0,0,0-2.814-1.387,3.335,3.335,0,0,0-1.454.328.589.589,0,0,1-.352.063c-.013-.006-.13-.069-.279-.466l-.066-.18a3.164,3.164,0,0,0-2.459-2.478A5.027,5.027,0,0,1-53.09-6.28,4.987,4.987,0,0,1-53.1-7.541c.544-1.474-.587-2.415-1.342-3.043l-.116-.1c-.383-.319-.413-.475-.415-.5a.583.583,0,0,1,.176-.328,3.483,3.483,0,0,0,.479-4.365.357.357,0,0,1,.061-.5.482.482,0,0,1,.2-.082,3.426,3.426,0,0,0,2.48-3.591.449.449,0,0,1,.382-.5.613.613,0,0,1,.241.026,3.508,3.508,0,0,0,3.833-2.118.3.3,0,0,1,.378-.2.484.484,0,0,1,.183.127,3.635,3.635,0,0,0,4.577-.084.218.218,0,0,1,.158-.065.226.226,0,0,1,.162.068l.536-.525-.481.614a3.6,3.6,0,0,0,3.94,2.187.592.592,0,0,1,.424.06.745.745,0,0,1,.165.5,3.294,3.294,0,0,0,2.284,3.4.849.849,0,0,1,.5.346.65.65,0,0,1-.115.462,3.482,3.482,0,0,0,.624,4.33A.3.3,0,0,1-33.734-10.984Z" fill="#fff"/>
  </g>
</svg>
