<svg id="Component_16_1" data-name="Component 16 – 1" xmlns="http://www.w3.org/2000/svg" width="24" height="24" viewBox="0 0 24 24">
  <circle id="Ellipse_52" data-name="Ellipse 52" cx="12" cy="12" r="12" fill="#f4f4f4" opacity="0"/>
  <path id="Union_1" data-name="Union 1" d="M-546.828-2994.1l-6.391-6.392-6.392,6.392a1.108,1.108,0,0,1-1.524-.206,1.107,1.107,0,0,1-.2-1.523l6.391-6.392-6.391-6.392a1.107,1.107,0,0,1,.2-1.524,1.109,1.109,0,0,1,1.524-.205l6.392,6.392,6.391-6.392a1.109,1.109,0,0,1,1.524.205,1.108,1.108,0,0,1,.205,1.524l-6.392,6.392,6.392,6.392a1.107,1.107,0,0,1-.205,1.523,1.375,1.375,0,0,1-.947.428A.8.8,0,0,1-546.828-2994.1Z" transform="translate(565.563 3014.563)" fill="var(--primary_theme_color_green)" stroke="rgba(0,0,0,0)" stroke-miterlimit="10" stroke-width="1"/>
</svg>
