<svg id="Component_43_4" data-name="Component 43 – 4" xmlns="http://www.w3.org/2000/svg" width="20" height="20" viewBox="0 0 20 20">
  <circle id="Ellipse_2" data-name="Ellipse 2" cx="10" cy="10" r="10" fill="#f4f4f4"/>
  <path id="Subtraction_1" data-name="Subtraction 1" d="M5.2,10.137A5.212,5.212,0,0,1,1.523,8.631,5.121,5.121,0,0,1,.409,7,5.093,5.093,0,0,1,1.13,1.8,5.208,5.208,0,0,1,3.969,0a3.935,3.935,0,0,0-.863,1.259,3.922,3.922,0,0,0,0,3.081A3.934,3.934,0,0,0,3.96,5.595,4.013,4.013,0,0,0,10.377,4.53c.014.155.021.312.021.466a5.06,5.06,0,0,1-.409,2A5.121,5.121,0,0,1,8.875,8.631,5.212,5.212,0,0,1,5.2,10.137Z" transform="translate(4.812 5.052)" fill="var(--currentThemeColor)"/>
  <path id="Icon_metro-sun4" data-name="Icon metro-sun4" d="M9.079,6.489a1.947,1.947,0,1,0,1.947,1.947A1.95,1.95,0,0,0,9.079,6.489Zm0-.556a.278.278,0,0,0,.278-.278V5.1a.278.278,0,1,0-.556,0v.556A.278.278,0,0,0,9.079,5.933Zm0,5.007a.278.278,0,0,0-.278.278v.556a.278.278,0,1,0,.556,0v-.556A.278.278,0,0,0,9.079,10.94Zm2.163-4.274.393-.393a.278.278,0,1,0-.393-.393l-.393.393a.278.278,0,1,0,.393.393ZM6.915,10.207l-.393.393a.278.278,0,1,0,.393.393l.393-.393a.278.278,0,1,0-.393-.393Zm-.34-1.771A.278.278,0,0,0,6.3,8.158H5.741a.278.278,0,1,0,0,.556H6.3A.278.278,0,0,0,6.576,8.437Zm5.842-.278h-.556a.278.278,0,1,0,0,.556h.556a.278.278,0,0,0,0-.556Zm-5.5-1.492a.278.278,0,0,0,.393-.393l-.393-.393a.278.278,0,1,0-.393.393Zm4.328,3.541a.278.278,0,0,0-.393.393l.393.393a.278.278,0,0,0,.393-.393Z" transform="translate(1.313 1.955)" fill="#ffee34" opacity="0"/>
</svg>
