<svg xmlns="http://www.w3.org/2000/svg" width="100%" height="100%" viewBox="0 0 32.015 23.122">
  <g id="Group_3414" data-name="Group 3414" transform="translate(0)">
    <path id="Path_822" data-name="Path 822" d="M1.334,178.336H30.681a1.334,1.334,0,0,0,0-2.668H1.334a1.334,1.334,0,0,0,0,2.668Z" transform="translate(0 -165.441)" fill="#fff"/>
    <path id="Path_823" data-name="Path 823" d="M1.018,55.668h22.4a1.383,1.383,0,0,0,0-2.668H1.018a1.383,1.383,0,0,0,0,2.668Z" transform="translate(0 -53)" fill="#fff"/>
    <path id="Path_824" data-name="Path 824" d="M1.018,301h22.4a1.383,1.383,0,0,0,0-2.668H1.018a1.383,1.383,0,0,0,0,2.668Z" transform="translate(0 -277.878)" fill="#fff"/>
  </g>
</svg>
