<svg xmlns="http://www.w3.org/2000/svg" style="width: 100%; height: 100%;" viewBox="0 0 25.452 25.453">
    <defs>
        <style>
            .cls-1{fill:#000}
        </style>
    </defs>
    <g id="airplane-shape" transform="rotate(-45 15.36 6.365)">
        <path id="Path_899"
              d="M16.815 3.635A5.208 5.208 0 0 0 18 .886a1.017 1.017 0 0 0-.139-.561.449.449 0 0 0-.082-.1.472.472 0 0 0-.1-.075 1 1 0 0 0-.567-.15 5.194 5.194 0 0 0-2.748 1.183 23.683 23.683 0 0 0-2.706 2.608q-.282.3-.594.624L8.92 3.774l.006-.006a.481.481 0 0 0 0-.677L8.538 2.7a.482.482 0 0 0-.338-.138.474.474 0 0 0-.34.141l-.579.58-.307-.092a.48.48 0 0 0-.038-.634l-.389-.389a.481.481 0 0 0-.341-.14.47.47 0 0 0-.338.141l-.534.531-2.18-.653c-.054-.015-2.079-.563-2.134-.563A3.438 3.438 0 0 0 .183 2.6a9.239 9.239 0 0 0 1.744 1.065l4.585 2.561a.8.8 0 0 1 .111.085L7.93 7.617c-1.222 1.288-2.312 2.535-3.16 3.62-.079.1-.154.2-.228.3l-3.547-.325a.48.48 0 0 0-.061 0 .654.654 0 0 0-.439.182l-.357.357a.444.444 0 0 0-.138.312.436.436 0 0 0 .258.4l2.495 1.185a.583.583 0 0 1 .1.069l.207.206a1.514 1.514 0 0 0-.1.48.63.63 0 0 0 .174.46l.009.008a.632.632 0 0 0 .459.172 1.527 1.527 0 0 0 .476-.1l.21.21a.569.569 0 0 1 .065.094l1.182 2.489a.441.441 0 0 0 .4.262.443.443 0 0 0 .315-.133l.366-.367a.652.652 0 0 0 .175-.438v-.045l-.323-3.559c.1-.073.2-.148.3-.227 1.087-.85 2.334-1.94 3.62-3.161l1.308 1.309a.7.7 0 0 1 .085.112l2.556 4.576a11.573 11.573 0 0 0 1.137 1.817l1.135-.817A19.585 19.585 0 0 0 15.974 15a.552.552 0 0 0-.021-.151l-.653-2.182.531-.532a.481.481 0 0 0 0-.678l-.39-.389a.481.481 0 0 0-.634-.04l-.091-.305.58-.58a.484.484 0 0 0 .14-.34.474.474 0 0 0-.14-.338l-.388-.388a.48.48 0 0 0-.681 0l-.642-2.144c.222-.211.432-.413.634-.6a23.594 23.594 0 0 0 2.596-2.698z"
              class="cls-1" data-name="Path 899"/>
    </g>
</svg>
