<svg xmlns="http://www.w3.org/2000/svg" viewBox="0 0 338 338"><defs><style>.cls-1{fill:#666;}</style></defs><g id="Layer_2" data-name="Layer 2"><g id="Layer_1-2" data-name="Layer 1"><path class="cls-1" d="M267.49,20.62h29.66a20.25,20.25,0,0,1,20.23,20.23V70.51H338V40.85A40.89,40.89,0,0,0,297.15,0H267.49Z"/><path class="cls-1" d="M20.62,70.51V40.85A20.25,20.25,0,0,1,40.85,20.62H70.51V0H40.85A40.89,40.89,0,0,0,0,40.85V70.51Z"/><path class="cls-1" d="M317.38,267.49v29.66a20.25,20.25,0,0,1-20.23,20.23H267.49V338h29.66A40.9,40.9,0,0,0,338,297.15V267.49Z"/><path class="cls-1" d="M70.51,317.38H40.85a20.25,20.25,0,0,1-20.23-20.23V267.49H0v29.66A40.9,40.9,0,0,0,40.85,338H70.51Z"/><g id="_4" data-name="4"><path class="cls-1" d="M290.36,139.46,165.08,263.34l-.3-.31-.91.7a67.78,67.78,0,0,1-88.67-5.47,65.88,65.88,0,0,1-5.52-87.64l.7-.91-.31-.31L184.15,56.58a50.55,50.55,0,0,1,70.82,0,49.07,49.07,0,0,1,0,70L146,234.32a33.27,33.27,0,0,1-46.62,0,32.32,32.32,0,0,1,0-46l95.92-94.89,10.28,10.18L109.7,198.4a18.12,18.12,0,0,0,0,25.77,18.61,18.61,0,0,0,26,0l109-107.72a34.91,34.91,0,0,0,0-49.74,35.87,35.87,0,0,0-50.25,0L85.5,174.46a51.66,51.66,0,0,0,0,73.65,53.11,53.11,0,0,0,74.46,0L280.1,129.3Z"/></g></g></g></svg>