<svg id="Capa_1" data-name="Capa 1" xmlns="http://www.w3.org/2000/svg" viewBox="0 0 272.34 274.53"><defs><style>.cls-1,.cls-2,.cls-3{fill:none;stroke:#000;stroke-miterlimit:10;}.cls-1{stroke-width:2px;}.cls-2{stroke-linecap:round;stroke-width:3px;}</style></defs><title>attachment</title><path d="M313.59,216.78a31.3,31.3,0,0,0-22.3-9.25h-.09A31.58,31.58,0,0,0,269,216.74h0l-74.07,74.07h0a22.47,22.47,0,0,0,16.25,37.89h.14a22,22,0,0,0,15.34-6.17l0,0,74.07-74.07a13.32,13.32,0,1,0-18.83-18.83l2.28,2.28-2.28-2.28L230,281.6l4.56,4.56,51.92-51.93h0a6.87,6.87,0,1,1,9.71,9.7l-73.75,73.74h0a15.6,15.6,0,0,1-11.12,4.59h-.1a16.09,16.09,0,0,1-11.33-4.76,15.91,15.91,0,0,1-.09-22.47h0l73.63-73.62h0A25.16,25.16,0,0,1,291.22,214h.07A24.89,24.89,0,0,1,309,221.34,25.23,25.23,0,0,1,309,257L257.17,308.8l4.56,4.56,51.8-51.81h0l0,0,.09-.09h0A31.69,31.69,0,0,0,313.59,216.78Z" transform="translate(-119.83 -135.65)"/><path d="M335.86,338.57" transform="translate(-119.83 -135.65)"/><path class="cls-1" d="M352.73,260.69" transform="translate(-119.83 -135.65)"/><path d="M351.12,292.76v63.51a12.88,12.88,0,0,1-12.87,12.87H170.47a12.89,12.89,0,0,1-12.87-12.87V188.5a12.89,12.89,0,0,1,12.87-12.87h136.1V172.4H170.47a16.11,16.11,0,0,0-16.09,16.1V356.27a16.11,16.11,0,0,0,16.09,16.1H338.25a16.12,16.12,0,0,0,16.1-16.1V292.76Z" transform="translate(-119.83 -135.65)"/><path d="M338.25,374H170.47a17.72,17.72,0,0,1-17.7-17.71V188.5a17.72,17.72,0,0,1,17.7-17.71H308.18v6.45H170.47a11.27,11.27,0,0,0-11.25,11.26V356.27a11.27,11.27,0,0,0,11.25,11.26H338.25a11.27,11.27,0,0,0,11.26-11.26V291.15H356v65.12A17.73,17.73,0,0,1,338.25,374ZM156,356.27a14.5,14.5,0,0,0,14.48,14.49h0A14.5,14.5,0,0,1,156,356.27Z" transform="translate(-119.83 -135.65)"/><rect x="229.68" y="124.44" width="6.45" height="17.42"/><rect x="229.68" y="102.43" width="6.45" height="10.77"/><path d="M387.33,190.44a4.83,4.83,0,0,1-4.83-4.84V146.77a1.37,1.37,0,0,0-.43-1,1.61,1.61,0,0,0-1-.43H343.3a4.84,4.84,0,1,1,0-9.67h37.75a11.22,11.22,0,0,1,7.86,3.26,11,11,0,0,1,3.26,7.86V185.6A4.84,4.84,0,0,1,387.33,190.44Z" transform="translate(-119.83 -135.65)"/><path class="cls-2" d="M352.73,140.48" transform="translate(-119.83 -135.65)"/><path class="cls-3" d="M390.56,172.4" transform="translate(-119.83 -135.65)"/><path d="M124.67,190.44a4.84,4.84,0,0,1-4.84-4.84V146.77a11,11,0,0,1,3.26-7.86,11.22,11.22,0,0,1,7.86-3.26H168.7a4.84,4.84,0,1,1,0,9.67H131a1.59,1.59,0,0,0-1,.43,1.37,1.37,0,0,0-.43,1V185.6A4.83,4.83,0,0,1,124.67,190.44Z" transform="translate(-119.83 -135.65)"/><path class="cls-3" d="M127.89,172.4" transform="translate(-119.83 -135.65)"/><path d="M381.05,410.17H343.3a4.84,4.84,0,1,1,0-9.67h37.75a1.6,1.6,0,0,0,1-.42,1.46,1.46,0,0,0,.43-1V360.22a4.84,4.84,0,1,1,9.67,0v38.83a11.07,11.07,0,0,1-3.26,7.87A11.2,11.2,0,0,1,381.05,410.17Z" transform="translate(-119.83 -135.65)"/><path d="M168.7,410.17H131a11.2,11.2,0,0,1-7.86-3.25,11.07,11.07,0,0,1-3.26-7.87V360.22a4.84,4.84,0,1,1,9.67,0v38.83a1.46,1.46,0,0,0,.43,1,1.61,1.61,0,0,0,1,.42H168.7a4.84,4.84,0,1,1,0,9.67Z" transform="translate(-119.83 -135.65)"/><path class="cls-3" d="M124.67,373.42" transform="translate(-119.83 -135.65)"/></svg>