<svg xmlns="http://www.w3.org/2000/svg" viewBox="0 0 512.52 510.38"><defs><style>.cls-1{fill:none;stroke-width:40px;}.cls-1,.cls-2{stroke:#727780;stroke-miterlimit:10;}.cls-2,.cls-3{fill:#727780;}.cls-2{stroke-linecap:round;stroke-width:14px;}</style></defs><title>attachment,svg</title><g id="Layer_2" data-name="Layer 2"><rect class="cls-1" x="101.78" y="125.8" width="310.92" height="261.55" rx="37.9"/><path class="cls-2" d="M370.79,175.55a56.37,56.37,0,0,0-38.09-21l-.16,0A56.89,56.89,0,0,0,291,166.64h0L143.71,284.57h0a40.47,40.47,0,0,0,21.59,71.05l.25,0a39.68,39.68,0,0,0,28.68-8h0L341.49,229.71a24,24,0,1,0-28.93-38.27c-.36.27-.7.54-1,.83l3.63,4.54-3.63-4.54L208.31,275l7.26,9.06L318.8,201.41h0A12.38,12.38,0,1,1,335.17,220c-.29.25-.59.49-.91.72L187.64,338.1h0a28.09,28.09,0,0,1-20.82,6l-.18,0a29,29,0,0,1-19.34-10.77,28.66,28.66,0,0,1,4.29-40.24h0L298,175.88h0a45.33,45.33,0,0,1,33.32-9.74h.12a44.84,44.84,0,0,1,30.25,16.65,45.45,45.45,0,0,1-7.06,63.84l-103,82.46,7.26,9.07,103-82.49h0l.18-.14h0A57.08,57.08,0,0,0,370.79,175.55Z" transform="translate(0.05 -0.41)"/><path class="cls-3" d="M40.48,55.66v63.93c-.16,1.47-1.27,10.49-9.1,15.85A20.18,20.18,0,0,1,20,139a20.68,20.68,0,0,1-13.64-5.38A20.93,20.93,0,0,1,0,122.09V51.33A68.31,68.31,0,0,1,5.21,35.55,65.33,65.33,0,0,1,17.37,17.82a59.92,59.92,0,0,1,33-17L125.06.41a20.5,20.5,0,0,1,9.44,4.84,19.87,19.87,0,0,1,6.44,13.33,20.14,20.14,0,0,1-1.63,9.47,19.9,19.9,0,0,1-3.87,5.78,20.6,20.6,0,0,1-5.33,4A22.06,22.06,0,0,1,117.69,40l-59.5.09A20,20,0,0,0,40.48,55.66Z" transform="translate(0.05 -0.41)"/><path class="cls-3" d="M472,55.66v63.93c.16,1.47,1.27,10.49,9.11,15.85A20.12,20.12,0,0,0,492.48,139a20.62,20.62,0,0,0,13.63-5.38,21,21,0,0,0,6.37-11.53V51.33a68.41,68.41,0,0,0-5.22-15.78A65.09,65.09,0,0,0,495.1,17.82a59.93,59.93,0,0,0-33-17L387.41.41A20.54,20.54,0,0,0,378,5.25a20,20,0,0,0-4.81,22.8A20.32,20.32,0,0,0,377,33.83a20.91,20.91,0,0,0,5.34,4A22,22,0,0,0,394.78,40l59.51.09a20,20,0,0,1,15.82,10.49A19.76,19.76,0,0,1,472,55.66Z" transform="translate(0.05 -0.41)"/><path class="cls-3" d="M40.43,455.55V391.61c-.15-1.46-1.26-10.48-9.1-15.85A20.16,20.16,0,0,0,20,372.21a20.69,20.69,0,0,0-13.64,5.37A21,21,0,0,0,0,389.11v70.77a68.57,68.57,0,0,0,5.22,15.78,65.27,65.27,0,0,0,12.16,17.73,59.93,59.93,0,0,0,33,17l74.72.36a20.1,20.1,0,0,0,14-10.94,20,20,0,0,0-3.6-22.47,20.91,20.91,0,0,0-5.34-4,22,22,0,0,0-12.41-2.19l-59.51-.09a20.21,20.21,0,0,1-10-3.8,20,20,0,0,1-7.7-11.77Z" transform="translate(0.05 -0.41)"/><path class="cls-3" d="M472,455.55V391.61c.15-1.46,1.26-10.48,9.1-15.85a20.19,20.19,0,0,1,11.38-3.55,20.69,20.69,0,0,1,13.64,5.37,21,21,0,0,1,6.36,11.53v70.77a68.46,68.46,0,0,1-5.21,15.78,65.75,65.75,0,0,1-12.16,17.73,60,60,0,0,1-33,17l-74.71.36a20.31,20.31,0,0,1-9.44-4.83,20,20,0,0,1-.94-28.58,20.6,20.6,0,0,1,5.33-4,22.06,22.06,0,0,1,12.42-2.19l59.5-.09a20.18,20.18,0,0,0,10-3.8,20,20,0,0,0,7.7-11.77Z" transform="translate(0.05 -0.41)"/></g></svg>