<?xml version="1.0" encoding="utf-8"?>
<!-- Generator: Adobe Illustrator 24.2.3, SVG Export Plug-In . SVG Version: 6.00 Build 0)  -->
<svg version="1.1" id="Layer_1" xmlns="http://www.w3.org/2000/svg" xmlns:xlink="http://www.w3.org/1999/xlink" x="0px" y="0px"
	 viewBox="0 0 200 223" style="enable-background:new 0 0 200 223;" xml:space="preserve">
<style type="text/css">
	.st0{fill:#666666;}
	.st1{fill:#FFFFFF;}
	.st2{fill:none;stroke:#666666;stroke-width:8;stroke-linecap:round;stroke-linejoin:round;stroke-miterlimit:10;}
	.st3{fill:#666666;stroke:#FFFFFF;stroke-miterlimit:10;}
</style>
<g>
	<path class="st0" d="M43.69,159.95v-11.51h-8v11.51c0,8.74,7.11,15.85,15.85,15.85h11.51v-8H51.54
		C47.21,167.8,43.69,164.28,43.69,159.95z M51.54,44.64c-8.74,0-15.85,7.11-15.85,15.85v11.52h8V60.49c0-4.32,3.52-7.85,7.85-7.85
		h11.51v-8H51.54z M158.84,159.95c0,4.33-3.52,7.85-7.85,7.85h-11.51v8h11.51c8.74,0,15.85-7.11,15.85-15.85v-11.51h-8V159.95z
		 M150.99,44.64h-11.51v8h11.51c4.33,0,7.85,3.53,7.85,7.85v11.52h8V60.49C166.84,51.75,159.73,44.64,150.99,44.64z"/>
</g>
<g>
	<g>
		<g id="_x34__1_">
			<g>
				<g>
					<path class="st0" d="M144.37,94.11L97.4,140.56c-7.78,7.7-20.4,7.7-28.18,0c-7.78-7.7-7.78-20.17,0-27.87l42.28-41.8
						c5.19-5.13,13.6-5.13,18.79,0c5.19,5.13,5.19,13.45,0,18.58L88,131.27c-2.59,2.57-6.8,2.57-9.4,0c-2.59-2.56-2.59-6.72,0-9.29
						l37.58-37.16l-4.7-4.65l-37.57,37.16c-5.19,5.13-5.19,13.45,0,18.58c5.19,5.13,13.6,5.13,18.79,0l42.28-41.8
						c7.78-7.7,7.78-20.17,0-27.87c-7.78-7.7-20.4-7.7-28.18,0l-44.62,44.13l0.16,0.16c-8.11,10.31-7.39,25.21,2.19,34.68
						c9.58,9.47,24.64,10.18,35.07,2.16l0.16,0.16l49.32-48.77L144.37,94.11z"/>
					<path class="st1" d="M83.31,153.39c-6.97,0-13.9-2.64-19.14-7.82c-9.52-9.42-10.57-24.38-2.5-34.99l-0.21-0.21l44.98-44.48
						c7.97-7.88,20.92-7.88,28.89,0c3.86,3.82,5.99,8.89,5.99,14.29s-2.13,10.47-5.99,14.29l-42.28,41.8
						c-5.37,5.31-14.12,5.31-19.49,0c-2.61-2.58-4.04-6-4.04-9.64c0-3.65,1.43-7.07,4.04-9.65l37.93-37.51l5.41,5.35l-37.94,37.51
						c-1.16,1.15-1.8,2.67-1.8,4.29s0.64,3.14,1.8,4.29c2.4,2.37,6.3,2.37,8.69,0l42.28-41.8c2.42-2.39,3.74-5.56,3.74-8.94
						c0-3.38-1.33-6.55-3.74-8.93c-4.99-4.93-13.1-4.93-18.08,0l-42.28,41.8c-3.67,3.63-5.69,8.45-5.69,13.58
						c0,5.13,2.02,9.95,5.69,13.58c7.58,7.49,19.9,7.49,27.48,0l47.32-46.8l5.41,5.35l-50.03,49.48l-0.21-0.21
						C94.72,151.62,89,153.39,83.31,153.39z M62.88,110.38L63,110.5l-0.27,0.35c-8.04,10.23-7.12,24.85,2.15,34.01
						c9.27,9.17,24.07,10.08,34.41,2.12l0.35-0.27l0.12,0.12l48.61-48.07l-3.98-3.94l-46.62,46.1c-7.96,7.88-20.92,7.88-28.89,0
						c-3.86-3.82-5.99-8.89-5.99-14.29c0-5.4,2.13-10.47,5.99-14.29l42.28-41.8c5.37-5.31,14.12-5.31,19.49,0
						c2.61,2.58,4.04,6,4.04,9.65c0,3.65-1.43,7.07-4.04,9.65l-42.28,41.8c-2.78,2.76-7.31,2.76-10.1,0c-1.35-1.33-2.09-3.11-2.09-5
						c0-1.89,0.74-3.67,2.09-5l37.22-36.8l-3.99-3.94L74.26,117.7c-2.41,2.39-3.74,5.56-3.74,8.94s1.33,6.55,3.74,8.93
						c4.99,4.93,13.1,4.93,18.09,0l42.28-41.8c3.67-3.63,5.69-8.45,5.69-13.58s-2.02-9.95-5.69-13.58c-7.58-7.49-19.9-7.49-27.48,0
						L62.88,110.38z"/>
				</g>
			</g>
		</g>
	</g>
</g>
</svg>
