<?xml version="1.0"?>
<svg xmlns="http://www.w3.org/2000/svg" height="512px" viewBox="-40 0 512 512" width="512px" class=""><g><path d="m401.105469 512h-370.773438c-16.75 0-30.332031-13.578125-30.332031-30.332031v-451.335938c0-16.753906 13.582031-30.332031 30.332031-30.332031h370.773438c16.75 0 30.332031 13.578125 30.332031 30.332031v451.335938c0 16.753906-13.582031 30.332031-30.332031 30.332031zm0 0" fill="#eff2fa" data-original="#EFF2FA" class="" style="fill:#CAE8F9" data-old_color="#EFF2FA"/><path d="m157.023438 104.988281c0 29.292969-23.75 53.039063-53.042969 53.039063s-53.039063-23.746094-53.039063-53.039063 23.746094-53.042969 53.039063-53.042969 53.042969 23.75 53.042969 53.042969zm0 0" fill="#c7cfe2" data-original="#C7CFE2" class="active-path" style="fill:#87DBFF" data-old_color="#C7CFE2"/><g fill="#d7deed"><path d="m378.058594 75.007812h-175.457032c-4.445312 0-8.050781-3.601562-8.050781-8.046874 0-4.445313 3.605469-8.050782 8.050781-8.050782h175.457032c4.445312 0 8.046875 3.605469 8.046875 8.050782 0 4.445312-3.601563 8.046874-8.046875 8.046874zm0 0" data-original="#000000" class="" style="fill:#87DBFF" data-old_color="#000000"/><path d="m329.605469 113.035156h-127.003907c-4.445312 0-8.050781-3.601562-8.050781-8.046875 0-4.445312 3.605469-8.050781 8.050781-8.050781h127.003907c4.445312 0 8.046875 3.605469 8.046875 8.050781 0 4.445313-3.601563 8.046875-8.046875 8.046875zm0 0" data-original="#000000" class="" style="fill:#87DBFF" data-old_color="#000000"/><path d="m355.753906 151.066406h-153.152344c-4.445312 0-8.050781-3.605468-8.050781-8.050781s3.605469-8.046875 8.050781-8.046875h153.152344c4.445313 0 8.050782 3.601562 8.050782 8.046875s-3.605469 8.050781-8.050782 8.050781zm0 0" data-original="#000000" class="" style="fill:#87DBFF" data-old_color="#000000"/></g><path d="m157.023438 256.121094c0 29.292968-23.75 53.042968-53.042969 53.042968s-53.039063-23.75-53.039063-53.042968c0-29.292969 23.746094-53.039063 53.039063-53.039063s53.042969 23.746094 53.042969 53.039063zm0 0" fill="#87dbff" data-original="#87DBFF" class="" style="fill:#87DBFF"/><path d="m378.058594 226.144531h-175.457032c-4.445312 0-8.050781-3.605469-8.050781-8.050781s3.605469-8.046875 8.050781-8.046875h175.457032c4.445312 0 8.046875 3.601563 8.046875 8.046875s-3.601563 8.050781-8.046875 8.050781zm0 0" fill="#d7deed" data-original="#D7DEED" class="" style="fill:#1689FC" data-old_color="#D7DEED"/><path d="m329.605469 264.171875h-127.003907c-4.445312 0-8.050781-3.605469-8.050781-8.050781 0-4.445313 3.605469-8.046875 8.050781-8.046875h127.003907c4.445312 0 8.046875 3.601562 8.046875 8.046875 0 4.445312-3.601563 8.050781-8.046875 8.050781zm0 0" fill="#d7deed" data-original="#D7DEED" class="" style="fill:#1689FC" data-old_color="#D7DEED"/><path d="m355.753906 302.199219h-153.152344c-4.445312 0-8.050781-3.601563-8.050781-8.046875 0-4.445313 3.605469-8.050782 8.050781-8.050782h153.152344c4.445313 0 8.050782 3.605469 8.050782 8.050782 0 4.445312-3.605469 8.046875-8.050782 8.046875zm0 0" fill="#d7deed" data-original="#D7DEED" class="" style="fill:#1689FC" data-old_color="#D7DEED"/><path d="m157.023438 407.257812c0 29.292969-23.75 53.039063-53.042969 53.039063s-53.039063-23.746094-53.039063-53.039063c0-29.292968 23.746094-53.042968 53.039063-53.042968s53.042969 23.75 53.042969 53.042968zm0 0" fill="#c7cfe2" data-original="#C7CFE2" class="active-path" style="fill:#87DBFF" data-old_color="#C7CFE2"/><path d="m378.058594 377.277344h-175.457032c-4.445312 0-8.050781-3.601563-8.050781-8.046875 0-4.445313 3.605469-8.050781 8.050781-8.050781h175.457032c4.445312 0 8.046875 3.605468 8.046875 8.050781 0 4.445312-3.601563 8.046875-8.046875 8.046875zm0 0" fill="#d7deed" data-original="#D7DEED" class="" style="fill:#1689FC" data-old_color="#D7DEED"/><path d="m329.605469 415.304688h-127.003907c-4.445312 0-8.050781-3.601563-8.050781-8.046876 0-4.445312 3.605469-8.050781 8.050781-8.050781h127.003907c4.445312 0 8.046875 3.605469 8.046875 8.050781 0 4.445313-3.601563 8.046876-8.046875 8.046876zm0 0" fill="#d7deed" data-original="#D7DEED" class="" style="fill:#1689FC" data-old_color="#D7DEED"/><path d="m355.753906 453.335938h-153.152344c-4.445312 0-8.050781-3.605469-8.050781-8.050782 0-4.445312 3.605469-8.046875 8.050781-8.046875h153.152344c4.445313 0 8.050782 3.601563 8.050782 8.046875 0 4.445313-3.605469 8.050782-8.050782 8.050782zm0 0" fill="#d7deed" data-original="#D7DEED" class="" style="fill:#1689FC" data-old_color="#D7DEED"/><path d="m107.054688 277.300781c-2.0625 0-4.121094-.785156-5.691407-2.355469l-19.855469-19.855468c-3.144531-3.144532-3.144531-8.242188 0-11.382813 3.140626-3.144531 8.238282-3.144531 11.382813 0l14.164063 14.160157 63.53125-63.53125c3.140624-3.140626 8.238281-3.140626 11.382812 0 3.144531 3.144531 3.144531 8.242187 0 11.382812l-69.222656 69.222656c-1.570313 1.574219-3.632813 2.359375-5.691406 2.359375zm0 0" fill="#57afff" data-original="#57AFFF" class="" style="fill:#1689FC" data-old_color="#57AFFF"/></g> </svg>
