<svg id="Layer_1" data-name="Layer 1" xmlns="http://www.w3.org/2000/svg" viewBox="0 0 563.68 321.46"><defs><style>.cls-1{fill:#13211b;}.cls-2{fill:#fff;}.cls-3{fill:#efb38e;}.cls-4{fill:#4257a7;}.cls-5{fill:#f2c8b2;}</style></defs><title>Untitled-19</title><path class="cls-1" d="M44.07,265.2,20.68,478H92.52S147.78,309.46,145,287.36Z" transform="translate(-15.8 -259.88)"/><path class="cls-2" d="M95.69,482.38H15.8l24.46-222.5L149,283.75l.38,3.07c2.81,22.42-47,175.21-52.68,192.55Zm-70.12-8.75H89.35c20.93-64,50.1-160.08,51.37-182.74L47.89,270.51Z" transform="translate(-15.8 -259.88)"/><path class="cls-3" d="M157.53,293.93s64.46-2.7,77.89,0,70.25-29.82,161.15,21.61c43,24.31,56.39-27,138.32,0L563.1,480.32s-118.18-13.51-120.87,0,11.85,34.28-29.1,47.56c0,0-21.12,45.16-52.82,23.91,0,0-15.85,34-48.87,5.68,0,0-2.64,39.48-46.22,16.9S112,448.18,112,448.18,135.68,305.71,157.53,293.93Z" transform="translate(-15.8 -259.88)"/><rect class="cls-2" x="372.8" y="425.65" width="2.19" height="119.15" transform="translate(-250.58 156.43) rotate(-45.92)"/><rect class="cls-2" x="333.07" y="471.33" width="2.19" height="93.67" transform="translate(-284.98 131.27) rotate(-45.29)"/><polygon class="cls-2" points="300.62 297.84 248.99 248.55 250.5 246.97 302.13 296.26 300.62 297.84"/><path class="cls-4" d="M421.79,315.75s58.59,119.38,58.55,156.17c0,0,71.17,17.48,94.67,0,0,0-7.16-171-54.61-169S413,313.34,413,313.34" transform="translate(-15.8 -259.88)"/><path class="cls-2" d="M539.68,484c-27.94,0-58.44-7.38-60.39-7.86l-3.33-.81v-3.44c0-35.35-57.51-153-58.1-154.23l1.68-.83c-3.72.5-5.86.81-6,.82L412.33,309c.6-.09,60.77-8.61,107.9-10.51l1,0c49.5,0,57.44,155.42,58.19,173.25l.1,2.31-1.86,1.39C568.93,481.89,554.68,484,539.68,484Zm-55.11-15.6c20.69,4.69,67.45,12.1,85.94,1.23-.51-9.66-2.78-46.28-9.33-82.27-9.52-52.35-23.92-80.65-40.6-80.14-33.43,1.35-73.53,6.07-93.84,8.67C434.57,332,481.65,430.37,484.57,468.42Z" transform="translate(-15.8 -259.88)"/><path class="cls-5" d="M449.88,476.07s-135-136.77-154.65-126.28-45.9,56.81-87.87,32.34,28.06-88.2,28.06-88.2,91-28.93,170.43,25.86c0,0,7,2.73,13,2.47s3,0,3,0S478.92,425.5,481,474.38C481,474.38,454,480.16,449.88,476.07Z" transform="translate(-15.8 -259.88)"/></svg>