<svg id="Leaves" xmlns="http://www.w3.org/2000/svg" width="32.6" height="36.246" viewBox="0 0 32.6 36.246">
  <path id="Path_730" data-name="Path 730" d="M58.354,53.695V59.31h-32.6V53.695a2.189,2.189,0,0,1,2.189-2.189H56.166a2.189,2.189,0,0,1,2.189,2.189Z" transform="translate(-25.754 -47.86)" fill="#1a5669"/>
  <path id="Path_731" data-name="Path 731" d="M86.193,51.509v4.085a.73.73,0,0,1-.73.73H82.108a.73.73,0,0,1-.73-.73V51.509Z" transform="translate(-77.441 -47.863)" fill="#1a5669"/>
  <path id="Path_732" data-name="Path 732" d="M350.95,51.509v4.085a.729.729,0,0,1-.729.73h-3.356a.73.73,0,0,1-.73-.73V51.509Z" transform="translate(-323.456 -47.863)" fill="#1a5669"/>
  <path id="Path_733" data-name="Path 733" d="M26.92,55.084v7.55H25.753V57.019A2.185,2.185,0,0,1,26.92,55.084Z" transform="translate(-25.753 -51.185)" fill="#1a5669"/>
  <g id="Group_429" data-name="Group 429" transform="translate(5.616 15.812)">
    <path id="Path_734" data-name="Path 734" d="M105.443,223.364h3.752a.365.365,0,0,1,.365.365v3.752a.365.365,0,0,1-.365.365h-3.752a.365.365,0,0,1-.365-.365v-3.752A.365.365,0,0,1,105.443,223.364Z" transform="translate(-105.078 -223.364)" fill="#e6e6e6"/>
    <path id="Path_735" data-name="Path 735" d="M105.443,302.121h3.752a.365.365,0,0,1,.365.364v3.753a.365.365,0,0,1-.365.365h-3.752a.365.365,0,0,1-.365-.365v-3.753A.365.365,0,0,1,105.443,302.121Z" transform="translate(-105.078 -296.546)" fill="#e6e6e6"/>
    <path id="Path_736" data-name="Path 736" d="M105.443,380.889h3.752a.365.365,0,0,1,.365.365v3.753a.365.365,0,0,1-.365.365h-3.752a.365.365,0,0,1-.365-.365v-3.753A.365.365,0,0,1,105.443,380.889Z" transform="translate(-105.078 -369.737)" fill="#e6e6e6"/>
    <path id="Path_737" data-name="Path 737" d="M184.2,223.364h3.832a.365.365,0,0,1,.365.365v3.752a.365.365,0,0,1-.365.365H184.2a.365.365,0,0,1-.365-.365v-3.752A.365.365,0,0,1,184.2,223.364Z" transform="translate(-178.261 -223.364)" fill="#e6e6e6"/>
    <path id="Path_738" data-name="Path 738" d="M184.2,302.121h3.832a.365.365,0,0,1,.365.364v3.753a.365.365,0,0,1-.365.365H184.2a.365.365,0,0,1-.365-.365v-3.753A.365.365,0,0,1,184.2,302.121Z" transform="translate(-178.261 -296.546)" fill="#e6e6e6"/>
    <path id="Path_739" data-name="Path 739" d="M184.2,380.889h3.832a.365.365,0,0,1,.365.365v3.753a.365.365,0,0,1-.365.365H184.2a.365.365,0,0,1-.365-.365v-3.753A.365.365,0,0,1,184.2,380.889Z" transform="translate(-178.261 -369.737)" fill="#e6e6e6"/>
    <path id="Path_740" data-name="Path 740" d="M264.091,223.364h3.832a.365.365,0,0,1,.364.365v3.752a.365.365,0,0,1-.364.365h-3.832a.365.365,0,0,1-.365-.365v-3.752A.365.365,0,0,1,264.091,223.364Z" transform="translate(-252.495 -223.364)" fill="#e6e6e6"/>
    <path id="Path_741" data-name="Path 741" d="M264.091,302.121h3.832a.365.365,0,0,1,.364.364v3.753a.365.365,0,0,1-.364.365h-3.832a.365.365,0,0,1-.365-.365v-3.753A.365.365,0,0,1,264.091,302.121Z" transform="translate(-252.495 -296.546)" fill="#e6e6e6"/>
    <path id="Path_742" data-name="Path 742" d="M264.091,380.889h3.832a.365.365,0,0,1,.364.365v3.753a.365.365,0,0,1-.364.365h-3.832a.365.365,0,0,1-.365-.365v-3.753A.365.365,0,0,1,264.091,380.889Z" transform="translate(-252.495 -369.737)" fill="#e6e6e6"/>
    <path id="Path_743" data-name="Path 743" d="M348.1,223.729v3.752a.365.365,0,0,1-.365.365h-3.752a.365.365,0,0,1-.365-.365v-3.752a.365.365,0,0,1,.365-.365h3.752A.365.365,0,0,1,348.1,223.729Z" transform="translate(-326.731 -223.364)" fill="#e6e6e6"/>
    <path id="Path_744" data-name="Path 744" d="M343.982,302.121h3.752a.365.365,0,0,1,.365.364v3.753a.365.365,0,0,1-.365.365h-3.752a.365.365,0,0,1-.365-.365v-3.753A.365.365,0,0,1,343.982,302.121Z" transform="translate(-326.731 -296.546)" fill="#e6e6e6"/>
    <path id="Path_745" data-name="Path 745" d="M343.982,380.889h3.752a.365.365,0,0,1,.365.365v3.753a.365.365,0,0,1-.365.365h-3.752a.365.365,0,0,1-.365-.365v-3.753A.365.365,0,0,1,343.982,380.889Z" transform="translate(-326.731 -369.737)" fill="#e6e6e6"/>
  </g>
  <path id="Path_746" data-name="Path 746" d="M25.755,154.527v23.118a2.189,2.189,0,0,0,2.189,2.189H56.166a2.189,2.189,0,0,0,2.189-2.189V154.527Z" transform="translate(-25.754 -143.588)" fill="#fff"/>
  <path id="Path_747" data-name="Path 747" d="M101.511.73V6.563a.73.73,0,0,1-.73.73H98.592a.73.73,0,0,1-.73-.73V.73a.73.73,0,0,1,.73-.73h2.189A.73.73,0,0,1,101.511.73Z" transform="translate(-92.759)" fill="#50758d"/>
  <path id="Path_748" data-name="Path 748" d="M105.078,223.364h4.481v4.481h-4.481Z" transform="translate(-99.462 -207.552)" fill="#1a5669"/>
  <path id="Path_749" data-name="Path 749" d="M343.617,223.364H348.1v4.481h-4.481Z" transform="translate(-321.115 -207.552)" fill="#1a5669"/>
  <path id="Path_750" data-name="Path 750" d="M183.836,223.364H188.4v4.481h-4.562Z" transform="translate(-172.645 -207.552)" fill="#1a5669"/>
  <path id="Path_751" data-name="Path 751" d="M105.078,302.121h4.481V306.6h-4.481Z" transform="translate(-99.462 -280.734)" fill="#1a5669"/>
  <path id="Path_752" data-name="Path 752" d="M343.617,302.121H348.1V306.6h-4.481Z" transform="translate(-321.115 -280.734)" fill="#e6e6e6"/>
  <path id="Path_753" data-name="Path 753" d="M183.836,302.121H188.4V306.6h-4.562Z" transform="translate(-172.645 -280.734)" fill="#1a5669"/>
  <path id="Path_754" data-name="Path 754" d="M105.078,380.889h4.481v4.481h-4.481Z" transform="translate(-99.462 -353.926)" fill="#e6e6e6"/>
  <path id="Path_756" data-name="Path 756" d="M183.836,380.889H188.4v4.481h-4.562Z" transform="translate(-172.645 -353.926)" fill="#e6e6e6"/>
  <path id="Path_757" data-name="Path 757" d="M263.726,223.364h4.561v4.481h-4.561Z" transform="translate(-246.879 -207.552)" fill="#1a5669"/>
  <path id="Path_758" data-name="Path 758" d="M263.726,302.121h4.561V306.6h-4.561Z" transform="translate(-246.879 -280.734)" fill="#1a5669"/>
  <path id="Path_759" data-name="Path 759" d="M263.726,380.889h4.561v4.481h-4.561Z" transform="translate(-246.879 -353.926)" fill="#e6e6e6"/>
  <path id="Path_760" data-name="Path 760" d="M366.268.73V6.563a.73.73,0,0,1-.73.73h-2.189a.73.73,0,0,1-.73-.73V.73a.73.73,0,0,1,.73-.73h2.189A.73.73,0,0,1,366.268.73Z" transform="translate(-338.773)" fill="#50758d"/>
  <path id="Path_761" data-name="Path 761" d="M25.755,154.527v23.118a2.189,2.189,0,0,0,2.189,2.189h.808a2.186,2.186,0,0,1-1.793-2.151V156.074a.584.584,0,0,1,.547-.379H58.354v-1.167Z" transform="translate(-25.754 -143.588)" fill="#e6e6e6"/>
  <path id="Path_762" data-name="Path 762" d="M99.762,7.293H98.595a.73.73,0,0,1-.73-.73V.73a.73.73,0,0,1,.73-.73h.438V6.563A.73.73,0,0,0,99.762,7.293Z" transform="translate(-92.76)" fill="#2b597f"/>
  <path id="Path_763" data-name="Path 763" d="M364.519,7.293h-1.167a.73.73,0,0,1-.73-.73V.73a.73.73,0,0,1,.73-.73h.438V6.563A.73.73,0,0,0,364.519,7.293Z" transform="translate(-338.775)" fill="#2b597f"/>
</svg>
