<svg xmlns="http://www.w3.org/2000/svg" id="chat-comment-oval-speech-bubble-with-text-lines"
     viewBox="0 0 22 22">
    <defs>
        <style>
            .cls-1{fill:#666}
        </style>
    </defs>
    <g id="_x32__26_">
        <g id="Group_1" data-name="Group 1">
            <path id="Path_36"
                  d="M14.438 11.688H7.563a.688.688 0 1 0 0 1.375h6.875a.688.688 0 1 0 0-1.375zm1.375-4.125H6.188a.687.687 0 1 0 0 1.375h9.625a.687.687 0 0 0 0-1.375zM11 0C4.925 0 0 4.309 0 9.625a9.213 9.213 0 0 0 4.125 7.507V22l4.819-2.924A12.614 12.614 0 0 0 11 19.25c6.075 0 11-4.309 11-9.625S17.075 0 11 0zm0 17.875a11.126 11.126 0 0 1-2.324-.252l-3.237 1.945.043-3.189a7.971 7.971 0 0 1-4.107-6.754c0-4.556 4.309-8.25 9.625-8.25s9.625 3.694 9.625 8.25-4.309 8.25-9.625 8.25z"
                  class="cls-1" data-name="Path 36"/>
        </g>
    </g>
</svg>
