<svg xmlns="http://www.w3.org/2000/svg" style="width: 100%; height: 100%;" viewBox="0 0 20.688 20.687">
    <defs>
        <style>
            .cls-1{fill:#a5a5a5}
        </style>
    </defs>
    <path id="checked" d="M10.344 0a10.344 10.344 0 1 0 10.343 10.344A10.314 10.314 0 0 0 10.344 0zm5.971 7.1l-7.523 7.8a.427.427 0 0 1-.329.141.366.366 0 0 1-.329-.141l-3.667-3.945-.094-.094a.454.454 0 0 1 0-.658l.658-.658a.454.454 0 0 1 .658 0l.047.047 2.586 2.774a.227.227 0 0 0 .329 0l6.3-6.535H15a.454.454 0 0 1 .658 0l.658.658a.4.4 0 0 1 0 .611z" class="cls-1"/>
</svg>
