<svg xmlns="http://www.w3.org/2000/svg" viewBox="0 0 395.15 429.37"><defs><style>.cls-1{fill:#ff5757;}</style></defs><title>support</title><g id="Layer_2" data-name="Layer 2"><circle class="cls-1" cx="224.71" cy="30.69" r="25.82"/><circle class="cls-1" cx="276.36" cy="206.28" r="25.82"/><circle class="cls-1" cx="178.23" cy="242.44" r="20.66"/><ellipse class="cls-1" cx="80.25" cy="220.61" rx="22.65" ry="25.82"/><path class="cls-1" d="M553.48,1088.46a66.8,66.8,0,0,1-55.5,9.23,1.23,1.23,0,0,0-1-.69l-3.41-.76L493,1096v.11l-40.92-9.1-41.95-60.91a10.33,10.33,0,0,0-14.37-2.65h0c-4.69,3.24-7,12.85-3.76,17.55l42.47,58-10.25,58.37a56.56,56.56,0,0,0-5,3.45s-51.65,0-51.65,20.66v62s10.33,10.33,20.66,0,10.33-51.64,10.33-51.64h62s10.33,31,0,41.31,31,31,20.66-41.31a103,103,0,0,0-3.72-16.82l.54.06-.55-.1c-.08-.23-.15-.48-.23-.71,4-14.68,10.9-29.51,14.78-44.19l.06-.23C595.74,1109.1,584.46,1067.81,553.48,1088.46Z" transform="translate(-251.3 -1021.63)"/><path class="cls-1" d="M574.14,1264.06s10.33,113.62,72.31,154.94c0,0,0,41.32-31,10.33s-41.32-72.3-62-51.65,0,20.66,0,51.65-20.66,20.66-41.32-20.66,41.32-41.31,20.66-103.29c0,0-51.64,10.33-62,0s-10.33-62-10.33-82.63,20.66-10.33,20.66,20.65,20.66,51.65,31,31S563.81,1253.73,574.14,1264.06Z" transform="translate(-251.3 -1021.63)"/><path class="cls-1" d="M493.55,1419c-61.35,20.66-35.06-93-35.06-93,35.06-82.64,0-134.28,0-93s0,62-35.06,62-35.06-82.63-43.82-82.63-8.77,20.65-8.77,62S405.9,1326,405.9,1326s6.44,26.57,5.66,42.9c-8.3.66-17.18,2.07-21.18,5.07-21-6-27.5,46.88-19.54,65.65,8.77,20.66,26.3,0,26.3,0v-41.32c0-4.41,1.61-7.4,4.13-9.39a21.76,21.76,0,0,0,11.89-3.49c9.24-.33,19,2.55,19,2.55s-8.77,72.31,43.82,62S493.55,1419,493.55,1419Z" transform="translate(-251.3 -1021.63)"/><path class="cls-1" d="M317,1274.39s-54.35,154.94-63.41,154.94,9.06,31,45.29-41.32,18.12,51.65,27.18,51.65,18.11-10.33,18.11-82.63,18.12-72.31,27.18-72.31,27.17-41.32,27.17-62-45.29,41.31-45.29,41.31S326.08,1284.72,317,1274.39Z" transform="translate(-251.3 -1021.63)"/><path class="cls-1" d="M543.15,1233.07" transform="translate(-251.3 -1021.63)"/><path d="M562,1504" transform="translate(-251.3 -1021.63)"/><path class="cls-1" d="M481,1061" transform="translate(-251.3 -1021.63)"/></g></svg>