<svg id="Layer_1" data-name="Layer 1" xmlns="http://www.w3.org/2000/svg" viewBox="0 0 1013.43 832.77"><defs><style>.cls-1{fill:#345e95;}.cls-2{fill:#fd7822;}.cls-3{fill:#16a34f;}</style></defs><title>Untitled-4</title><path class="cls-1" d="M653.89,283.06c12.66,32.55-8.36,44.3-8.36,44.3L659.77,588.2l-28.48,28.48L602.81,588.2l14.24-260.84s-21-11.75-8.37-44.3c0,0-98.55,9.94-143.75,68.71l72.33,435.79H725.32l72.33-435.79C752.44,293,653.89,283.06,653.89,283.06Z" transform="translate(-124.57 -65.4)"/><circle class="cls-1" cx="506.71" cy="87.61" r="87.61"/><path class="cls-2" d="M797.65,787.56h78.47L1053,264s-121.33,20.65-185.87,98.1Z" transform="translate(-124.57 -65.4)"/><path class="cls-2" d="M914.36,787.56l37.47-3.38,145.79-260.83s-60.36-1.7-100.25,32.85Z" transform="translate(-124.57 -65.4)"/><circle class="cls-2" cx="893.92" cy="99.57" r="67.3"/><circle class="cls-2" cx="969.01" cy="375.49" r="44.42"/><path class="cls-2" d="M464.93,787.56H386.45L209.61,264S331,284.63,395.49,362.08Z" transform="translate(-124.57 -65.4)"/><path class="cls-2" d="M348.22,787.56l-37.48-3.38L165,523.35s60.36-1.7,100.26,32.85Z" transform="translate(-124.57 -65.4)"/><circle class="cls-2" cx="119.51" cy="99.57" r="67.3"/><circle class="cls-2" cx="44.42" cy="375.49" r="44.42"/><polygon class="cls-3" points="788.5 832.77 229.56 832.77 204.98 783.3 807.36 783.3 788.5 832.77"/></svg>