<svg id="Layer_1" data-name="Layer 1" xmlns="http://www.w3.org/2000/svg" viewBox="0 0 344.24 343.94"><defs><style>.cls-1{fill:none;stroke:#fff;stroke-miterlimit:10;}.cls-2{fill:#f4ee6c;}.cls-3{fill:#f06623;}</style></defs><title>note</title><path class="cls-1" d="M283.38,406.76" transform="translate(-125.02 -249.35)"/><path d="M316.61,328.23H184.15a5,5,0,1,1,0-10.07H316.61a5,5,0,0,1,0,10.07Z" transform="translate(-125.02 -249.35)"/><path d="M315.38,374.84H182.92a5,5,0,0,1,0-10.07H315.38a5,5,0,1,1,0,10.07Z" transform="translate(-125.02 -249.35)"/><path d="M293.26,416.91H182.92a5,5,0,0,1,0-10.08H293.26a5,5,0,0,1,0,10.08Z" transform="translate(-125.02 -249.35)"/><path d="M174.71,486.49a5,5,0,0,1-4.29-7.66c6.5-10.6,22.79-35.45,33.67-37.24a8.3,8.3,0,0,1,6.78,1.76c4.27,3.56,7.31,10.53,10.54,17.91,2.21,5.06,6.32,14.48,8.72,15.17,2.11-.28,9.27-5.7,14.49-9.67,13.83-10.48,29.48-22.38,39.88-14.3,13.64,10.61,13.8,28.25,13.8,29a5,5,0,0,1-10.07,0c0-.11-.22-13.51-9.91-21-4.29-3.3-19.45,8.2-27.62,14.38-9.86,7.48-15.68,11.7-20.66,11.7-8.6,0-13.09-10.29-17.86-21.2-2.27-5.2-4.82-11-7.1-13.57-4.57,2-16.35,16.51-26.07,32.37A5,5,0,0,1,174.71,486.49Z" transform="translate(-125.02 -249.35)"/><path class="cls-2" d="M382.58,507.77v33.35a32.06,32.06,0,0,1-32,32H177.19a32.07,32.07,0,0,1-32-32V301.52a32.07,32.07,0,0,1,32-32H350.56a32.06,32.06,0,0,1,32,32V439.35l20.14-6.22V301.52a52.22,52.22,0,0,0-52.16-52.17H177.19A52.22,52.22,0,0,0,125,301.52v239.6a52.23,52.23,0,0,0,52.17,52.17H350.56a52.23,52.23,0,0,0,52.16-52.17V501.55Z" transform="translate(-125.02 -249.35)"/><polygon class="cls-3" points="344.24 195.1 235.95 259.28 191.59 260.87 211.66 227.13 323.83 160.66 344.24 195.1"/></svg>