<?xml version="1.0" encoding="iso-8859-1"?>
<!-- Generator: Adobe Illustrator 19.0.0, SVG Export Plug-In . SVG Version: 6.00 Build 0)  -->
<svg version="1.1" id="Layer_1" xmlns="http://www.w3.org/2000/svg" xmlns:xlink="http://www.w3.org/1999/xlink" x="0px" y="0px"
	 viewBox="0 0 370.909 370.909" style="enable-background:new 0 0 370.909 370.909;" xml:space="preserve">
<g>
	<g>
		<path d="M336.291,81.599h-84.265l-55.445-65.527c-2.473-3.709-6.182-4.945-9.891-4.945c-3.709,0-7.418,1.237-9.891,3.709
			l-57.519,66.762H35.855C16.072,81.599,0,97.672,0,116.218v207.71c0,19.782,16.073,35.855,35.855,35.855h300.436
			c18.546,0,34.618-16.072,34.618-35.855v-207.71C370.909,96.434,356.073,81.599,336.291,81.599z M186.691,43.272l40.8,48.219
			h-7.418c-3.709,0-6.182,1.237-8.655,3.709c-2.473,2.472-3.709,4.944-3.709,8.654v34.619h-44.509v-9.885c0-0.001,0-0.003,0-0.005
			c0-0.002,0-0.003,0-0.005l-0.001-23.487c0-3.708-1.236-6.182-3.709-8.654c-2.473-2.473-4.945-3.709-8.655-3.709h-6.182
			L186.691,43.272z M150.836,163.2h69.236c7.419,0,12.364-4.944,12.362-11.128v-11.126h79.129v93.963l-35.855-35.854
			c-4.945-4.945-12.364-4.945-17.309,0c-1.194,1.194-2.093,2.534-2.71,3.946l-34.38,34.38l-61.818-61.818
			c-4.945-4.945-12.364-4.945-17.309,0c-1.194,1.193-2.092,2.533-2.709,3.945l-21.4,21.399l-14.218-14.218
			c-4.945-4.946-12.364-4.946-17.309,0L59.345,213.89v-72.944h79.127v9.89C138.473,158.254,143.418,163.2,150.836,163.2z
			 M138.473,221.309l-3.091-3.091l16.072-16.072l72.328,72.328c2.473,2.473,4.945,3.709,8.655,3.709s6.182-1.236,8.655-3.709
			c4.945-4.945,4.945-12.364,0-17.309l-2.472-2.473l29.053-29.053l36.473,36.472c2.187,2.188,4.377,3.403,7.419,3.656v34.672H59.345
			v-58.165c0.398,0.033,0.807,0.054,1.237,0.054c2.472,0,6.182-1.236,8.655-3.709L95.2,212.654l25.963,25.964
			c2.473,2.473,4.945,3.709,8.655,3.709c2.473,0,6.182-1.236,8.655-3.709C143.419,233.673,143.419,226.255,138.473,221.309z
			 M346.182,323.927c0,6.182-4.945,11.128-9.891,11.128H35.855c-6.182,0-11.128-4.945-11.128-11.128V116.218
			c0-4.945,4.945-9.892,11.128-9.892h69.54c0.217,0.821,0.518,1.647,0.932,2.473c2.473,4.945,6.182,7.418,11.128,7.418h21.018v0.001
			H46.982c-7.418,0-12.364,4.945-12.364,12.364v184.219c0,7.418,4.945,12.364,12.364,12.364h276.945
			c7.418,0,12.364-6.182,12.364-12.364V128.582c0-7.418-4.945-12.364-12.364-12.364h-63.82c2.337-1.193,4.243-3.249,5.71-6.183
			c0.621-1.244,1.086-2.487,1.376-3.709h69.099c6.182,0,9.891,3.709,9.891,9.892V323.927z"/>
	</g>
</g>
<g>
	<g>
		<path d="M217.601,176.801c-4.946-4.945-12.364-4.945-17.31,0c-2.473,2.472-3.709,4.945-3.709,8.654
			c0,3.709,1.236,6.182,3.709,8.654c2.473,2.473,4.945,3.709,8.655,3.709s6.182-2.472,8.655-3.709
			c2.473-2.472,3.709-4.945,3.709-8.654C221.309,181.746,220.073,179.273,217.601,176.801z"/>
	</g>
</g>
<g>
</g>
<g>
</g>
<g>
</g>
<g>
</g>
<g>
</g>
<g>
</g>
<g>
</g>
<g>
</g>
<g>
</g>
<g>
</g>
<g>
</g>
<g>
</g>
<g>
</g>
<g>
</g>
<g>
</g>
</svg>
