<svg xmlns="http://www.w3.org/2000/svg" id="surface1" style="width: 100%; height: 100%" viewBox="0 0 13.792 20.623">
    <defs>
        <style>
            .cls-1{fill:#c2c2c2}
        </style>
    </defs>
    <path id="Path_986"
          d="M3.618 20.622C1.325 13.068 6.169 10.31 6.169 10.31a11.681 11.681 0 0 0 1.952 7.171 12.331 12.331 0 0 0 2.45-1.442 26.171 26.171 0 0 1-.848 4.581 12.118 12.118 0 0 0 3.905-6.111c.934-3.815-1.779-7.644-1.779-7.644a10.229 10.229 0 0 1-2.539 7.384 1.464 1.464 0 0 0 .222-.343c.321-.643.838-2.314.535-6.184C9.643 2.291 4.721 0 4.721 0c.424 3.31-.848 4.072-3.828 10.355s2.725 10.267 2.725 10.267zm0 0"
          class="cls-1" data-name="Path 986" transform="translate(-.031)"/>
</svg>
