<svg height="512pt" viewBox="0 -16 512.0664 512" width="512pt" xmlns="http://www.w3.org/2000/svg"><path d="m71.992188 432.183594v16h-32.082032v-144h32.082032zm0 0" fill="#e6e9ed"/><path d="m415.992188 200.105469c0 8.800781-7.128907 16-16 16v-.082031c-8.878907.082031-15.921876 7.121093-15.921876 16v-47.917969h16c8.882813.078125 15.921876 7.199219 15.921876 16zm0 0" fill="#da4453"/><path d="m504.070312 104.105469-32 72 32 72h-104v-.082031c-8.878906 0-16-7.199219-16-16 0-8.878907 7.042969-15.917969 15.921876-16v.082031c8.871093 0 16-7.199219 16-16v-96zm0 0" fill="#d3374e"/><path d="m415.992188 104.105469v96c0-8.800781-7.039063-15.921875-15.921876-16h-135.917968v-144h135.917968c8.882813.078125 15.921876 7.121093 15.921876 16zm0 0" fill="#ed5565"/><path d="m264.152344 40.105469v239.917969h-24.160156v-259.917969c0-6.640625 5.441406-12.082031 12.078124-12.082031 6.640626 0 12.082032 5.441406 12.082032 12.082031zm0 0" fill="#ffd2a6"/><g fill="#eac6bb"><path d="m256.152344 424.023438 32 .082031v-.082031c13.199218 0 24 10.800781 24 24 0 13.28125-10.800782 24-24 24v.160156h-32.160156v-.160156c-13.28125 0-24-10.71875-24-24 0-12.957032 10.398437-23.679688 23.359374-23.917969.242188-.082031.402344-.082031.640626-.082031zm0 0"/><path d="m288.152344 376.023438c13.199218 0 24 10.722656 24 24 0 13.195312-10.800782 24-24 24v.082031l-32-.082031h-.160156c-.238282 0-.398438 0-.640626.082031-12.960937-.320313-23.359374-11.039063-23.359374-24.082031 0-12.957032 10.398437-23.679688 23.359374-23.917969h.640626c.398437 0 .800781 0 1.191406-.082031l30.960937.082031v-.082031zm0 0"/><path d="m312.152344 352.023438c0 13.195312-10.800782 24-24 24v.082031l-30.960938-.082031c12.640625-.558594 22.808594-11.125 22.808594-23.917969v-24h8.160156v-.082031c13.191406 0 23.992188 10.722656 23.992188 24zm0 0"/><path d="m288.152344 328.023438v.082031h-8.160156v-48h8.160156v-.082031c13.199218 0 24 10.722656 24 24 0 13.28125-10.800782 24-24 24zm0 0"/></g><path d="m264.152344 280.023438 15.839844.082031v72c0 12.800781-10.167969 23.359375-22.808594 23.917969-.390625.082031-.792969.082031-1.191406.082031-.238282 0-.398438 0-.640626 0-12.960937.238281-23.359374 10.960937-23.359374 23.917969 0 13.042968 10.398437 23.761718 23.359374 24.082031-12.960937.238281-23.359374 10.960937-23.359374 23.917969 0 13.28125 10.71875 24 24 24v.160156h-64c-32.082032 0-60.558594-15.757813-77.921876-40h-42.078124v-112h41.917968c17.441406-24.320313 45.914063-40.160156 78.082032-40.160156zm0 0" fill="#d3b1a9"/><path d="m7.992188 280.183594h31.917968v184h-31.917968zm0 0" fill="#656d78"/><path d="m288.128906 288.082031-32.015625-.015625c-4.425781 0-8-3.585937-8-8 0-4.425781 3.582031-8 8-8l32.015625.015625c4.421875 0 8 3.582031 8 8 0 4.421875-3.59375 8-8 8zm0 0"/><path d="m288.128906 336.03125c-4.425781 0-8-3.574219-8-8 0-4.421875 3.574219-8 8-8 8.824219 0 16-7.183594 16-16.015625 0-8.824219-7.175781-16-16-16-4.425781 0-8-3.574219-8-8 0-4.421875 3.574219-8 8-8 17.648438 0 32 14.355469 32 32 0 17.65625-14.351562 32.015625-32 32.015625zm0 0"/><path d="m288.128906 384.015625c-4.425781 0-8-3.574219-8-8 0-4.421875 3.574219-8 8-8 8.824219 0 16-7.175781 16-16 0-8.832031-7.175781-16.015625-16-16.015625-4.425781 0-8-3.574219-8-8 0-4.421875 3.574219-8 8-8 17.648438 0 32 14.359375 32 32.015625 0 17.648437-14.351562 32-32 32zm0 0"/><path d="m288.128906 432.015625c-4.425781 0-8-3.574219-8-8 0-4.421875 3.574219-8 8-8 8.824219 0 16-7.183594 16-16.015625 0-8.824219-7.175781-16-16-16-4.425781 0-8-3.574219-8-8 0-4.421875 3.574219-8 8-8 17.648438 0 32 14.351562 32 32 0 17.65625-14.351562 32.015625-32 32.015625zm0 0"/><path d="m288.128906 480.066406c-4.425781 0-8-3.578125-8-8 0-4.425781 3.574219-8 8-8 8.824219 0 16-7.175781 16-16 0-8.832031-7.175781-16.015625-16-16.015625-4.425781 0-8-3.578125-8-8 0-4.425781 3.574219-8 8-8 17.648438 0 32 14.359375 32 32.015625 0 17.648438-14.351562 32-32 32zm0 0"/><path d="m255.96875 480.066406c-17.648438 0-32-14.351562-32-32 0-17.65625 14.351562-32.015625 32-32.015625 4.421875 0 8 3.574219 8 8 0 4.421875-3.578125 8-8 8-8.824219 0-16 7.183594-16 16.015625 0 8.824219 7.175781 16 16 16 4.421875 0 8 3.574219 8 8 0 4.421875-3.578125 8-8 8zm0 0"/><path d="m255.96875 432.082031c-17.648438 0-32-14.359375-32-32.015625 0-17.648437 14.351562-32 32-32 4.421875 0 8 3.574219 8 8 0 4.421875-3.578125 8-8 8-8.824219 0-16 7.175782-16 16 0 8.832032 7.175781 16.015625 16 16.015625 4.421875 0 8 3.574219 8 8 0 4.421875-3.578125 8-8 8zm0 0"/><path d="m255.96875 384.097656c-17.65625 0-32.015625-14.351562-32.015625-32 0-4.425781 3.574219-8 8-8 4.421875 0 8 3.574219 8 8 0 8.824219 7.183594 16 16.015625 16 8.824219 0 16-7.175781 16-16 0-4.425781 3.574219-8 8-8 4.421875 0 8 3.574219 8 8 0 17.648438-14.351562 32-32 32zm0 0"/><path d="m288.113281 384.097656-32.007812-.03125c-4.425781-.007812-8-3.585937-7.992188-8.007812.007813-4.417969 3.582031-7.992188 8-7.992188h.007813l32 .03125c4.421875.007813 8 3.582032 7.992187 8.007813-.007812 4.414062-3.585937 7.992187-8 7.992187zm0 0"/><path d="m288.113281 432.082031-32.007812-.015625c-4.417969 0-7.992188-3.585937-7.992188-8 0-4.425781 3.582031-8 8-8h.007813l32 .015625c4.414062 0 7.992187 3.582031 7.992187 8 0 4.421875-3.585937 8-8 8zm0 0"/><path d="m256.113281 288.066406h-64.097656c-4.421875 0-8-3.578125-8-8 0-4.425781 3.578125-8 8-8h64.097656c4.421875 0 8 3.574219 8 8 0 4.421875-3.578125 8-8 8zm0 0"/><path d="m288.128906 480.175781h-96.113281c-4.421875 0-8-3.574219-8-8 0-4.421875 3.578125-8 8-8h96.113281c4.421875 0 8 3.578125 8 8 0 4.425781-3.585937 8-8 8zm0 0"/><path d="m192.015625 480.175781c-44.199219 0-83.703125-28.015625-98.289063-69.71875-1.453124-4.167969.746094-8.734375 4.914063-10.191406 4.175781-1.449219 8.734375.742187 10.191406 4.910156 12.335938 35.289063 45.769531 59 83.175781 59 4.425782 0 8 3.578125 8 8 0 4.425781-3.566406 8-7.992187 8zm0 0"/><path d="m101.359375 352.175781c-.878906 0-1.785156-.152343-2.65625-.453125-4.167969-1.472656-6.359375-6.042968-4.886719-10.203125 14.632813-41.566406 54.105469-69.503906 98.199219-69.503906 4.425781 0 8 3.578125 8 8 0 4.425781-3.574219 8-8 8-37.328125 0-70.726563 23.632813-83.113281 58.816406-1.148438 3.289063-4.246094 5.34375-7.542969 5.34375zm0 0"/><path d="m279.984375 360.097656c-4.425781 0-8-3.578125-8-8v-72.082031c0-4.421875 3.574219-8 8-8 4.421875 0 8 3.578125 8 8v72.082031c0 4.421875-3.578125 8-8 8zm0 0"/><path d="m231.953125 336.082031h-39.9375c-4.421875 0-8-3.578125-8-8 0-4.425781 3.578125-8 8-8h39.9375c4.421875 0 8 3.574219 8 8 0 4.421875-3.578125 8-8 8zm0 0"/><path d="m288.128906 336.082031h-8.03125c-4.425781 0-8-3.578125-8-8 0-4.425781 3.574219-8 8-8h8.03125c4.421875 0 8 3.574219 8 8 0 4.421875-3.585937 8-8 8zm0 0"/><path d="m231.953125 360.097656c-4.425781 0-8-3.578125-8-8v-24.015625c0-4.425781 3.574219-8 8-8 4.421875 0 8 3.574219 8 8v24.015625c0 4.421875-3.578125 8-8 8zm0 0"/><path d="m113.871094 328.175781h-41.792969c-4.421875 0-8-3.574219-8-8 0-4.421875 3.578125-8 8-8h41.800781c4.425782 0 8 3.578125 8 8 0 4.425781-3.582031 8-8.007812 8zm0 0"/><path d="m72.078125 440.191406c-4.414063 0-8-3.574218-8-8 0-4.414062 3.578125-8 8-8l41.921875-.015625c4.414062 0 8 3.578125 8 8 0 4.417969-3.574219 8-8 8zm0 0"/><path d="m71.953125 456.191406c-4.425781 0-8-3.574218-8-8v-144.015625c0-4.421875 3.574219-8 8-8 4.421875 0 8 3.578125 8 8v144.015625c0 4.417969-3.578125 8-8 8zm0 0"/><path d="m71.953125 456.191406h-32.015625c-4.425781 0-8-3.574218-8-8 0-4.421875 3.574219-8 8-8h32.015625c4.421875 0 8 3.578125 8 8 0 4.425782-3.578125 8-8 8zm0 0"/><path d="m71.953125 312.175781h-32.015625c-4.425781 0-8-3.574219-8-8 0-4.421875 3.574219-8 8-8h32.015625c4.421875 0 8 3.578125 8 8 0 4.425781-3.578125 8-8 8zm0 0"/><path d="m39.9375 472.191406c-4.425781 0-8-3.574218-8-8v-184.015625c0-4.421875 3.574219-8 8-8 4.421875 0 8 3.578125 8 8v184.015625c0 4.417969-3.578125 8-8 8zm0 0"/><path d="m39.9375 288.175781h-31.9375c-4.425781 0-8-3.574219-8-8 0-4.421875 3.574219-8 8-8h31.9375c4.421875 0 8 3.578125 8 8 0 4.425781-3.578125 8-8 8zm0 0"/><path d="m39.9375 472.191406h-31.9375c-4.425781 0-8-3.574218-8-8 0-4.421875 3.574219-8 8-8h31.9375c4.421875 0 8 3.578125 8 8 0 4.425782-3.578125 8-8 8zm0 0"/><path d="m264.113281 288.066406c-4.425781 0-8-3.578125-8-8v-259.976562c0-4.425782 3.574219-8 8-8 4.421875 0 8 3.574218 8 8v259.976562c0 4.421875-3.578125 8-8 8zm0 0"/><path d="m240 288.015625c-4.425781 0-8-3.574219-8-8v-259.925781c0-4.425782 3.574219-8 8-8s8 3.574218 8 8v259.925781c0 4.425781-3.574219 8-8 8zm0 0"/><path d="m264.113281 28.089844c-4.425781 0-8-3.578125-8-8 0-2.234375-1.816406-4.058594-4.050781-4.058594-2.238281 0-4.0625 1.824219-4.0625 4.058594 0 4.421875-3.574219 8-8 8s-8-3.578125-8-8c0-11.058594 9-20.058594 20.0625-20.058594 11.058594 0 20.050781 9 20.050781 20.058594 0 4.421875-3.578125 8-8 8zm0 0"/><path d="m400.03125 192.113281h-135.902344c-4.425781 0-8-3.574219-8-8s3.574219-8 8-8h135.902344c4.425781 0 8 3.574219 8 8s-3.574219 8-8 8zm0 0"/><path d="m400.03125 48.082031h-135.902344c-4.425781 0-8-3.578125-8-8 0-4.425781 3.574219-8 8-8h135.902344c4.425781 0 8 3.574219 8 8 0 4.421875-3.574219 8-8 8zm0 0"/><path d="m504.0625 256.121094h-104.015625c-4.421875 0-8-3.574219-8-8 0-4.425782 3.578125-8 8-8h104.015625c4.425781 0 8 3.574218 8 8 0 4.425781-3.574219 8-8 8zm0 0"/><path d="m504.0625 112.089844h-88c-4.421875 0-8-3.578125-8-8 0-4.425782 3.578125-8 8-8h88c4.425781 0 8 3.574218 8 8 0 4.421875-3.574219 8-8 8zm0 0"/><path d="m400.015625 224.113281c-4.421875 0-8-3.574219-8-8s3.578125-8 8-8c4.417969 0 8-3.585937 8-8 0-4.417969-3.582031-8-8-8-4.421875 0-8-3.574219-8-8s3.578125-8 8-8c13.230469 0 24 10.769531 24 24s-10.769531 24-24 24zm0 0"/><path d="m400.03125 256.015625c-13.230469 0-24-10.765625-24-24 0-13.230469 10.769531-24 24-24 4.425781 0 8 3.578125 8 8 0 4.425781-3.574219 8-8 8-4.414062 0-8 3.585937-8 8 0 4.417969 3.585938 8 8 8 4.425781 0 8 3.578125 8 8 0 4.425781-3.574219 8-8 8zm0 0"/><path d="m416.015625 64.082031c-4.421875 0-8-3.578125-8-8 0-4.417969-3.582031-8-8-8-4.421875 0-8-3.578125-8-8 0-4.425781 3.578125-8 8-8 13.230469 0 24 10.765625 24 24 0 4.421875-3.574219 8-8 8zm0 0"/><path d="m416.015625 208.113281c-4.421875 0-8-3.574219-8-8v-144.03125c0-4.425781 3.578125-8 8-8 4.425781 0 8 3.574219 8 8v144.03125c0 4.425781-3.574219 8-8 8zm0 0"/><path d="m384.03125 240.015625c-4.421875 0-8-3.574219-8-8v-47.902344c0-4.425781 3.578125-8 8-8 4.425781 0 8 3.574219 8 8v47.902344c0 4.425781-3.574219 8-8 8zm0 0"/><path d="m504.070312 256.121094c-3.070312 0-5.992187-1.777344-7.316406-4.75l-32-72.019532c-1.792968-4.039062.023438-8.765624 4.0625-10.558593 4.046875-1.816407 8.769532.039062 10.558594 4.0625l32 72.019531c1.792969 4.039062-.023438 8.765625-4.0625 10.558594-1.054688.472656-2.160156.6875-3.242188.6875zm0 0"/><path d="m472.054688 184.105469c-1.085938 0-2.183594-.214844-3.238282-.6875-4.039062-1.800781-5.847656-6.519531-4.0625-10.5625l32-72.015625c1.804688-4.03125 6.527344-5.847656 10.558594-4.0625 4.039062 1.800781 5.847656 6.519531 4.0625 10.558594l-32 72.015624c-1.328125 2.976563-4.246094 4.753907-7.320312 4.753907zm0 0"/></svg>