<svg id="Layer_1" data-name="Layer 1" xmlns="http://www.w3.org/2000/svg" viewBox="0 0 384.86 396.46"><defs><style>.cls-1{fill:#231f20;}.cls-2{fill:#ef5756;}.cls-3{fill:#f2c8b2;}</style></defs><title>men board</title><path class="cls-1" d="M81.22,282.82" transform="translate(-122.23 -211.45)"/><path class="cls-1" d="M126.85,353.69" transform="translate(-122.23 -211.45)"/><path class="cls-2" d="M375.49,366.32a18.63,18.63,0,0,0-26.32,1.4l-22.9,25.47L301,368a18.57,18.57,0,0,0-13.2-5.45v-.35H182.07v.19L127,423.58a18.64,18.64,0,0,0,27.72,24.92l27.35-30.42V607.91h37.27V491.07h31.22V607.91h37.27V407.46l23.84,23.84a22.93,22.93,0,0,0,30.24.24l35-38.91A18.63,18.63,0,0,0,375.49,366.32Z" transform="translate(-122.23 -211.45)"/><circle class="cls-3" cx="113.36" cy="89.7" r="39.38"/><polygon class="cls-1" points="30.71 129.08 4.62 159.75 4.62 0 384.86 0 384.86 257.91 253.98 257.91 280.92 230.97 354.06 230.97 354.06 26.95 30.71 26.95 30.71 129.08"/><rect class="cls-1" x="213.56" y="67.37" width="96.24" height="22.34"/><rect class="cls-1" x="401.24" y="516.03" width="115.67" height="22.34" transform="translate(864.04 -143.32) rotate(90)"/><rect class="cls-1" x="213.56" y="111.67" width="63.88" height="22.34"/></svg>