<svg id="Capa_1" enable-background="new 0 0 512 512" height="100%" viewBox="0 0 512 512" width="100%" xmlns="http://www.w3.org/2000/svg"><g><path d="m437.02 74.981c-48.353-48.352-112.64-74.981-181.02-74.981s-132.667 26.629-181.02 74.981c-48.351 48.352-74.98 112.639-74.98 181.019s26.629 132.668 74.98 181.02c48.353 48.351 112.64 74.98 181.02 74.98s132.667-26.629 181.02-74.98c48.351-48.352 74.98-112.64 74.98-181.02s-26.629-132.667-74.98-181.019zm-181.02 407.019c-124.617 0-226-101.383-226-226s101.383-226 226-226 226 101.383 226 226-101.383 226-226 226z"/><path d="m256 150.5c21.56 0 39.1-17.54 39.1-39.101 0-21.56-17.54-39.1-39.1-39.1s-39.1 17.54-39.1 39.1c0 21.561 17.54 39.101 39.1 39.101zm0-48.2c5.018 0 9.1 4.082 9.1 9.1s-4.082 9.101-9.1 9.101-9.1-4.082-9.1-9.101c0-5.018 4.082-9.1 9.1-9.1z"/><path d="m295.1 364.491v-156.691c0-21.56-17.54-39.1-39.1-39.1h-24.1c-21.561 0-39.101 17.54-39.101 39.1 0 16.249 9.963 30.214 24.101 36.108v156.692c0 21.56 17.54 39.101 39.1 39.101h24.1c21.561 0 39.101-17.54 39.101-39.101-.001-16.249-9.964-30.214-24.101-36.109zm-15 45.209h-24.1c-5.018 0-9.1-4.082-9.1-9.101v-168.7c0-8.284-6.716-15-15-15-5.018 0-9.101-4.082-9.101-9.1s4.083-9.1 9.101-9.1h24.1c5.018 0 9.1 4.082 9.1 9.1v168.7c0 8.284 6.716 15 15 15 5.018 0 9.101 4.082 9.101 9.1-.001 5.019-4.084 9.101-9.101 9.101z"/></g></svg>