<svg xmlns="http://www.w3.org/2000/svg" viewBox="0 0 86.53 86.53"><defs><style>.cls-1{fill:#fdb727;}.cls-2{fill:#fff;}</style></defs><title>Asset 12</title><g id="Layer_2" data-name="Layer 2"><g id="Layer_3" data-name="Layer 3"><rect class="cls-1" width="86.53" height="86.53" rx="14.1"/><path class="cls-2" d="M40.79,32.79v2.34H23.67V32.79a5.62,5.62,0,0,1,5-5.59,5.7,5.7,0,1,1,7.12,0,5.62,5.62,0,0,1,5,5.59Z"/><path class="cls-2" d="M64.11,32.79v2.34H47V32.79a5.62,5.62,0,0,1,5-5.59,5.7,5.7,0,1,1,7.12,0,5.62,5.62,0,0,1,5,5.59Z"/><path class="cls-2" d="M18.58,38.09V63.65H33.41V60.29A7.36,7.36,0,0,1,35.63,55a9,9,0,1,1,17.31-3.64A9.22,9.22,0,0,1,52.19,55a7.4,7.4,0,0,1,2.22,5.27v3.36H69.24V38.09Z"/><path class="cls-2" d="M47.92,56a6.07,6.07,0,1,0-8,0,4.4,4.4,0,0,0-3.52,4.32v7.33H51.44V60.29A4.4,4.4,0,0,0,47.92,56Z"/></g></g></svg>