<svg id="Layer_1" enable-background="new 0 0 512 512" height="100%" viewBox="0 0 512 512" width="100%" xmlns="http://www.w3.org/2000/svg"><g><g><path d="m181.847 249.352c3.99-1.114 6.321-5.251 5.207-9.241-1.114-3.989-5.25-6.322-9.241-5.207-7.065 1.973-16.56 1.973-23.625 0-3.991-1.116-8.126 1.217-9.241 5.207s1.217 8.126 5.207 9.241c4.887 1.365 10.367 2.047 15.847 2.047s10.958-.683 15.846-2.047z"/><path d="m124 176.5c-4.142 0-7.5 3.358-7.5 7.5v6c0 4.142 3.358 7.5 7.5 7.5s7.5-3.358 7.5-7.5v-6c0-4.142-3.358-7.5-7.5-7.5z"/><path d="m208 197.5c4.142 0 7.5-3.358 7.5-7.5v-6c0-4.142-3.358-7.5-7.5-7.5s-7.5 3.358-7.5 7.5v6c0 4.142 3.358 7.5 7.5 7.5z"/><path d="m496 348.16c4.142 0 7.5-3.358 7.5-7.5v-53.023c0-29.852-24.359-54.137-54.3-54.137h-166.4c-6.481 0-12.699 1.142-18.467 3.228 1.748-4.035 3.254-8.197 4.501-12.469 3.184 1.173 6.512 1.781 9.907 1.781 18.107 0 31.25-19.283 31.25-45.85 0-21.549-9.152-36.504-23.872-40.187 1.507-4.871 2.861-10.584 3.921-17.306 3.839-24.38-2.72-51.849-17.545-73.479-2.342-3.417-7.009-4.288-10.426-1.947-3.417 2.342-4.289 7.01-1.947 10.426 12.713 18.55 18.358 41.977 15.101 62.665-1.469 9.315-3.507 16.146-5.549 21.098-2.797-10.644-7.651-23.245-15.747-29.647-4.467-3.532-9.663-5.054-15.025-4.408-28.215 3.41-52.061 5.148-72.9 5.315-20.839-.167-44.685-1.906-72.899-5.315-5.365-.646-10.559.876-15.025 4.408-8.096 6.402-12.95 19.004-15.747 29.647-2.042-4.952-4.081-11.781-5.549-21.096-2.943-18.691 1.002-46.957 20.9-70.232 19.644-22.984 50.185-35.132 88.318-35.132 29.822 0 54.614 7.218 73.689 21.454 3.32 2.478 8.019 1.794 10.497-1.525 2.478-3.32 1.794-8.019-1.525-10.497-21.723-16.212-49.535-24.432-82.661-24.432-53.888 0-83.974 21.961-99.723 40.384-23.208 27.148-27.778 60.32-24.315 82.314 1.06 6.722 2.413 12.434 3.92 17.304-14.72 3.683-23.872 18.638-23.872 40.187 0 26.567 13.143 45.85 31.25 45.85 3.395 0 6.723-.609 9.907-1.781 9.469 32.453 33.922 58.576 65.333 70.341v17.756l-27.762 18.826c-.652.442-1.257.933-1.818 1.464-23.979 1.784-46.259 12.216-63.052 29.642-17.648 18.314-27.368 42.412-27.368 67.853v74.36c0 4.142 3.358 7.5 7.5 7.5h47.87c4.142 0 7.5-3.358 7.5-7.5s-3.358-7.5-7.5-7.5h-40.37v-66.86c0-21.54 8.229-41.94 23.169-57.445 13.069-13.561 30.057-22.132 48.479-24.602 9.381 36.034 23.27 45.855 30.772 48.486 3.458 1.212 6.87 1.731 10.182 1.73 2.129 0 4.213-.224 6.241-.607-3.274 25.52-8.09 79.182-9.858 99.298h-35.406c-4.142 0-7.5 3.358-7.5 7.5s3.358 7.5 7.5 7.5h218.921c4.142 0 7.5-3.358 7.5-7.5v-30.962c2.478-.697 4.985-1.539 7.487-2.57 14.786-6.088 25.498-17.15 31.064-32.046h87.149c29.941 0 54.3-24.286 54.3-54.137v-11.753c0-4.142-3.358-7.5-7.5-7.5s-7.5 3.358-7.5 7.5v11.753c0 21.58-17.63 39.137-39.3 39.137h-88.77c-5.412 0-10.244 3.464-12.024 8.622-3.143 9.111-11.359 23.143-32.529 27.572-.869.014-1.7.179-2.474.465-2.374.394-4.899.671-7.586.814 3.208-8.387 4.002-17.716 4.028-24.73.012-3.398-1.303-6.597-3.704-9.006s-5.596-3.736-8.997-3.736h-14.344c-21.67 0-39.3-17.557-39.3-39.137v-97.148c0-21.581 17.63-39.137 39.3-39.137h166.4c21.67 0 39.3 17.557 39.3 39.137v53.023c0 4.141 3.358 7.499 7.5 7.499zm-267.5-60.523v41.671l-25-16.953v-17.755c9.133-3.421 17.677-8.056 25.437-13.708-.278 2.212-.437 4.46-.437 6.745zm-50.38 88.363c17.183-13.881 22.855-33.051 24.655-46.013l19.801 13.427c-5.355 21.015-13.764 36.311-21.46 39.009-8.201 2.876-17.127-2.012-22.996-6.423zm116.87-195.81c0 15.165-6.078 30.85-16.25 30.85-2.587 0-4.837-.765-6.69-1.763.687-4.89 1.05-9.882 1.05-14.958v-30.665c2.042-1.932 4.562-4.924 7.104-9.464 7.4.816 14.786 7.962 14.786 26zm-241.73 30.85c-10.172 0-16.25-15.686-16.25-30.85 0-18.038 7.386-25.183 14.786-26 2.542 4.541 5.062 7.533 7.104 9.464v30.665c0 5.076.363 10.068 1.05 14.958-1.854.998-4.103 1.763-6.69 1.763zm20.64-16.72v-33.851c1.353-11.37 6.138-31.092 13.484-36.894 1.696-1.339 2.935-1.397 3.916-1.278 28.805 3.481 53.22 5.255 74.641 5.424h.118c21.42-.168 45.835-1.943 74.641-5.424.984-.117 2.221-.061 3.916 1.278 7.347 5.803 12.133 25.529 13.484 36.894v33.851c0 50.751-41.285 92.04-92.03 92.04h-.14c-50.745 0-92.03-41.289-92.03-92.04zm92.03 107.04h.14c7.692 0 15.194-.823 22.43-2.372v22.557c-.448 9.532-3.638 31.426-22.503 44.783-18.849-13.311-22.066-34.867-22.509-44.544.002-.079.012-.155.012-.234v-22.562c7.236 1.549 14.738 2.372 22.43 2.372zm-35.046 81.063c-7.694-2.698-16.104-17.995-21.459-39.009l19.801-13.427c1.799 12.962 7.471 32.132 24.654 46.013-5.872 4.413-14.798 9.299-22.996 6.423zm16.658 114.577c3.425-38.945 8.522-92.299 10.881-105.894 2.951-1.85 5.516-3.807 7.576-5.544 2.062 1.738 4.629 3.696 7.583 5.548 2.344 13.457 7.437 66.782 10.876 105.889h-36.916zm135.258-58.078h12.003c-.293 8.816-2.081 16.477-4.996 21.262-1.982 3.254-2.085 7.353-.268 10.697 1.813 3.337 5.299 5.477 9.099 5.584.802.022 1.643.035 2.52.035 2.235 0 4.709-.088 7.342-.305v20.805h-108.986c-1.767-20.116-6.58-73.729-9.862-99.298 2.029.383 4.114.607 6.245.607 3.311 0 6.726-.519 10.182-1.73 5.481-1.922 14.371-7.675 22.421-24.679v12.885c0 29.852 24.359 54.137 54.3 54.137z"/><path d="m436.739 292.711h-144c-4.142 0-7.5 3.358-7.5 7.5s3.358 7.5 7.5 7.5h144c4.142 0 7.5-3.358 7.5-7.5s-3.358-7.5-7.5-7.5z"/><path d="m292.739 343.711h57.821c4.142 0 7.5-3.358 7.5-7.5s-3.358-7.5-7.5-7.5h-57.821c-4.142 0-7.5 3.358-7.5 7.5s3.358 7.5 7.5 7.5z"/><path d="m436.739 328.711h-50.087c-4.142 0-7.5 3.358-7.5 7.5s3.358 7.5 7.5 7.5h50.087c4.142 0 7.5-3.358 7.5-7.5s-3.358-7.5-7.5-7.5z"/><path d="m292.739 379.711h144c4.142 0 7.5-3.358 7.5-7.5s-3.358-7.5-7.5-7.5h-144c-4.142 0-7.5 3.358-7.5 7.5s3.358 7.5 7.5 7.5z"/></g></g></svg>