<svg id="Layer_1" data-name="Layer 1" xmlns="http://www.w3.org/2000/svg" viewBox="0 0 292.17 390.88"><defs><style>.cls-1{fill:#55b46b;}.cls-2{fill:#f2c8b2;}</style></defs><title>men </title><path class="cls-1" d="M264.15,614.64c-.14-1.34-3.2-33.14,12.46-50.49,5.57-6.18,12.8-9.6,21.38-10.56-1.59-22.32,5-105.74,11.29-177.33-24.11-12.51-39.45-3.36-43.71-.15L234.66,547.39a5.19,5.19,0,0,1-10.22-1.85L256,370.77l1.2-1.16A37.46,37.46,0,0,1,268,363H233.61a45,45,0,0,0-45,45V574.27a45,45,0,0,0,45,45h35.7A5.19,5.19,0,0,1,264.15,614.64Z" transform="translate(-188.58 -228.42)"/><path class="cls-1" d="M435.73,363h-131a79.14,79.14,0,0,1,12.61,5.88l2.88,1.65-.29,3.31c-5.55,62.53-13.43,163.5-11.95,179.26,13.46,3.91,91.41,1.29,106.39-1,.94-6.55,1.35-28.47-.88-91-.16-4.62-.27-7.64-.27-8.32a5.19,5.19,0,0,1,10.38,0c0,.65.11,3.54.27,7.95,3.42,96,.9,97.69-2.57,100-4.29,2.85-41.1,4.68-72.5,4.68-18.91,0-35.85-.66-42.57-2.17-.4-.09-.81-.21-1.21-.32a5.13,5.13,0,0,1-2.36.63c-7.75,0-13.74,2.47-18.32,7.53-12.57,13.91-9.88,42.22-9.85,42.51a5.19,5.19,0,0,1-4.64,5.68l-.53,0H435.73a45,45,0,0,0,45-45V408A45,45,0,0,0,435.73,363Z" transform="translate(-188.58 -228.42)"/><circle class="cls-2" cx="143.78" cy="63.34" r="63.34"/></svg>