<svg xmlns="http://www.w3.org/2000/svg" xmlns:xlink="http://www.w3.org/1999/xlink" viewBox="0 0 361.01 121.05"><defs><style>.cls-1{fill:url(#linear-gradient);}.cls-2,.cls-3{fill:#fff;}.cls-3{font-size:47px;font-family:Helvetica;}</style><linearGradient id="linear-gradient" y1="60.53" x2="361.01" y2="60.53" gradientUnits="userSpaceOnUse"><stop offset="0" stop-color="#8ea7af"/><stop offset="0.52" stop-color="#2c5668"/></linearGradient></defs><title>join call</title><g id="Layer_2" data-name="Layer 2"><g id="Layer_3" data-name="Layer 3"><rect class="cls-1" width="361.01" height="121.05" rx="12.82"/><path class="cls-2" d="M37.91,9.44s-4.4,26.1,4.47,43.84l-11.58,12S17.59,39.64,23.2,9.44Z"/><path class="cls-2" d="M72.25,45.32S27.6,53.73,16.92,99.83c0,0,17-34.45,55.33-38.34Z"/><path class="cls-2" d="M53.74,72.57s9,12.79,24.6,18.88v16.43s-21.19-4.5-37-25.69Z"/><path class="cls-2" d="M143.63,88.55h-63a6.89,6.89,0,0,1-6.88-6.89V57.74a6.89,6.89,0,0,1,6.88-6.88h63a6.89,6.89,0,0,1,6.89,6.88V81.66A6.9,6.9,0,0,1,143.63,88.55ZM80.67,54a3.79,3.79,0,0,0-3.79,3.79V81.66a3.79,3.79,0,0,0,3.79,3.79h63a3.8,3.8,0,0,0,3.8-3.79V57.74a3.8,3.8,0,0,0-3.8-3.79Z"/><path class="cls-2" d="M92,70.36a5.46,5.46,0,1,1-10.92,0,5.46,5.46,0,1,1,10.92,0Zm-10.1,0a4.65,4.65,0,1,0,9.29,0,4.5,4.5,0,0,0-4.65-4.81A4.45,4.45,0,0,0,81.92,70.34Z"/><path class="cls-2" d="M94.36,64.93l7.28,8.95V64.93h.82V75.75h-.32l-7.3-8.93v8.93H94V64.93Z"/><path class="cls-2" d="M105.24,64.93l7.29,8.95V64.93h.82V75.75H113l-7.3-8.93v8.93h-.83V64.93Z"/><path class="cls-2" d="M116.57,69.92h6.34v.76h-6.34V75h6.84v.8h-7.65V64.93h7.46v.79h-6.65Z"/><path class="cls-2" d="M134.18,74.25a5.54,5.54,0,0,1-3.94,1.63,5.54,5.54,0,1,1,0-11.07,5.57,5.57,0,0,1,3.94,1.62l-.57.49a4.77,4.77,0,0,0-3.37-1.37,4.78,4.78,0,0,0,0,9.55,4.86,4.86,0,0,0,3.39-1.37Z"/><path class="cls-2" d="M139.05,65.69h-3.91V65h8.66v.74h-3.91V75.75h-.84Z"/><polygon class="cls-2" points="150.52 64.81 150.52 75.23 163.46 82.7 163.46 57.34 150.52 64.81"/><text class="cls-3" transform="translate(170.26 84.71)">Join Main</text></g></g></svg>