<svg xmlns="http://www.w3.org/2000/svg" xmlns:xlink="http://www.w3.org/1999/xlink" viewBox="0 0 330.42 98.44"><defs><style>.cls-1{fill:url(#linear-gradient);}</style><linearGradient id="linear-gradient" y1="49.22" x2="330.42" y2="49.22" gradientUnits="userSpaceOnUse"><stop offset="0" stop-color="#8ea7af"/><stop offset="0.52" stop-color="#2c5668"/></linearGradient></defs><title>konnce call</title><g id="Layer_2" data-name="Layer 2"><g id="Layer_3" data-name="Layer 3"><path class="cls-1" d="M21,0S16.6,26.1,25.46,43.84L13.88,55.79S.67,30.19,6.28,0Z"/><path class="cls-1" d="M55.33,35.88S10.68,44.29,0,90.39c0,0,17-34.46,55.33-38.34Z"/><path class="cls-1" d="M36.82,63.13s9,12.78,24.61,18.87V98.44s-21.2-4.5-37-25.69Z"/><path class="cls-1" d="M21,0S16.6,26.1,25.46,43.84L13.88,55.79S.67,30.19,6.28,0Z"/><path class="cls-1" d="M55.33,35.88S10.68,44.29,0,90.39c0,0,17-34.46,55.33-38.34Z"/><path class="cls-1" d="M36.82,63.13s9,12.78,24.61,18.87V98.44s-21.2-4.5-37-25.69Z"/><path class="cls-1" d="M21,0S16.6,26.1,25.46,43.84L13.88,55.79S.67,30.19,6.28,0Z"/><path class="cls-1" d="M55.33,35.88S10.68,44.29,0,90.39c0,0,17-34.46,55.33-38.34Z"/><path class="cls-1" d="M36.82,63.13s9,12.78,24.61,18.87V98.44s-21.2-4.5-37-25.69Z"/><path class="cls-1" d="M75.1,60.92a5.46,5.46,0,1,1-10.92,0,5.46,5.46,0,1,1,10.92,0ZM65,60.9a4.65,4.65,0,1,0,9.29,0,4.65,4.65,0,1,0-9.29,0Z"/><path class="cls-1" d="M77.44,55.49l7.28,8.95V55.49h.82V66.31h-.32l-7.3-8.94v8.94h-.83V55.49Z"/><path class="cls-1" d="M88.32,55.49l7.29,8.95V55.49h.82V66.31H96.1l-7.3-8.94v8.94H88V55.49Z"/><path class="cls-1" d="M99.65,60.48H106v.76H99.65v4.27h6.84v.8H98.84V55.49h7.46v.79H99.65Z"/><path class="cls-1" d="M117.26,64.81a5.58,5.58,0,0,1-3.94,1.63,5.54,5.54,0,1,1,0-11.08A5.58,5.58,0,0,1,117.26,57l-.57.49a4.77,4.77,0,0,0-3.37-1.37,4.78,4.78,0,0,0,0,9.55,4.86,4.86,0,0,0,3.39-1.37Z"/><path class="cls-1" d="M122.13,56.25h-3.91V55.5h8.66v.75H123V66.31h-.84Z"/><path class="cls-1" d="M75.1,60.92a5.46,5.46,0,1,1-10.92,0,5.46,5.46,0,1,1,10.92,0ZM65,60.9a4.65,4.65,0,1,0,9.29,0,4.65,4.65,0,1,0-9.29,0Z"/><path class="cls-1" d="M77.44,55.49l7.28,8.95V55.49h.82V66.31h-.32l-7.3-8.94v8.94h-.83V55.49Z"/><path class="cls-1" d="M88.32,55.49l7.29,8.95V55.49h.82V66.31H96.1l-7.3-8.94v8.94H88V55.49Z"/><path class="cls-1" d="M99.65,60.48H106v.76H99.65v4.27h6.84v.8H98.84V55.49h7.46v.79H99.65Z"/><path class="cls-1" d="M117.26,64.81a5.58,5.58,0,0,1-3.94,1.63,5.54,5.54,0,1,1,0-11.08A5.58,5.58,0,0,1,117.26,57l-.57.49a4.77,4.77,0,0,0-3.37-1.37,4.78,4.78,0,0,0,0,9.55,4.86,4.86,0,0,0,3.39-1.37Z"/><path class="cls-1" d="M122.13,56.25h-3.91V55.5h8.66v.75H123V66.31h-.84Z"/><path class="cls-1" d="M75.1,60.92a5.46,5.46,0,1,1-10.92,0,5.46,5.46,0,1,1,10.92,0ZM65,60.9a4.65,4.65,0,1,0,9.29,0,4.65,4.65,0,1,0-9.29,0Z"/><path class="cls-1" d="M77.44,55.49l7.28,8.95V55.49h.82V66.31h-.32l-7.3-8.94v8.94h-.83V55.49Z"/><path class="cls-1" d="M88.32,55.49l7.29,8.95V55.49h.82V66.31H96.1l-7.3-8.94v8.94H88V55.49Z"/><path class="cls-1" d="M99.65,60.48H106v.76H99.65v4.27h6.84v.8H98.84V55.49h7.46v.79H99.65Z"/><path class="cls-1" d="M117.26,64.81a5.58,5.58,0,0,1-3.94,1.63,5.54,5.54,0,1,1,0-11.08A5.58,5.58,0,0,1,117.26,57l-.57.49a4.77,4.77,0,0,0-3.37-1.37,4.78,4.78,0,0,0,0,9.55,4.86,4.86,0,0,0,3.39-1.37Z"/><path class="cls-1" d="M122.13,56.25h-3.91V55.5h8.66v.75H123V66.31h-.84Z"/><path class="cls-1" d="M133.6,55.37V48.3a6.89,6.89,0,0,0-6.89-6.88h-63a6.89,6.89,0,0,0-6.89,6.88V72.22a6.9,6.9,0,0,0,6.89,6.89h63a6.9,6.9,0,0,0,6.89-6.89V65.8l12.93,7.47V47.9Zm-3.09,16.85a3.81,3.81,0,0,1-3.8,3.8h-63a3.82,3.82,0,0,1-3.8-3.8V48.3a3.81,3.81,0,0,1,3.8-3.79h63a3.8,3.8,0,0,1,3.8,3.79Z"/><path class="cls-1" d="M133.6,55.37V48.3a6.89,6.89,0,0,0-6.89-6.88h-63a6.89,6.89,0,0,0-6.89,6.88V72.22a6.9,6.9,0,0,0,6.89,6.89h63a6.9,6.9,0,0,0,6.89-6.89V65.8l12.93,7.47V47.9Zm-3.09,16.85a3.81,3.81,0,0,1-3.8,3.8h-63a3.82,3.82,0,0,1-3.8-3.8V48.3a3.81,3.81,0,0,1,3.8-3.79h63a3.8,3.8,0,0,1,3.8,3.79Z"/><path class="cls-1" d="M133.6,55.37V48.3a6.89,6.89,0,0,0-6.89-6.88h-63a6.89,6.89,0,0,0-6.89,6.88V72.22a6.9,6.9,0,0,0,6.89,6.89h63a6.9,6.9,0,0,0,6.89-6.89V65.8l12.93,7.47V47.9Zm-3.09,16.85a3.81,3.81,0,0,1-3.8,3.8h-63a3.82,3.82,0,0,1-3.8-3.8V48.3a3.81,3.81,0,0,1,3.8-3.79h63a3.8,3.8,0,0,1,3.8,3.79Z"/><path class="cls-1" d="M173.49,65.22a14.29,14.29,0,0,1-1.26,6.63q-2.35,4.32-8.92,4.32a10.35,10.35,0,0,1-6.48-2.06c-1.79-1.37-2.69-3.8-2.69-7.31V64.39h4.3V66.8a6.06,6.06,0,0,0,1.23,4.14,4.84,4.84,0,0,0,3.83,1.39c2.43,0,4-.83,4.78-2.5A16.21,16.21,0,0,0,169,64V41.56h4.52Z"/><path class="cls-1" d="M197.68,53.15q3.25,3.16,3.26,9.3a16.08,16.08,0,0,1-2.87,9.82q-2.88,3.87-8.91,3.87a10,10,0,0,1-8-3.42q-3-3.43-3-9.21,0-6.19,3.13-9.86A10.42,10.42,0,0,1,189.7,50,11,11,0,0,1,197.68,53.15Zm-2.57,16.33a15.53,15.53,0,0,0,1.51-6.91A12.33,12.33,0,0,0,195.53,57a6.12,6.12,0,0,0-5.94-3.4,5.87,5.87,0,0,0-5.45,2.89,13.56,13.56,0,0,0-1.7,7,11.76,11.76,0,0,0,1.7,6.53,6,6,0,0,0,5.4,2.62Q193.61,72.59,195.11,69.48Z"/><path class="cls-1" d="M206,41.56h4.2v4.68H206Zm0,9.25h4.2V75.27H206Z"/><path class="cls-1" d="M216.45,50.69h3.92v3.49a11.11,11.11,0,0,1,3.7-3.1,10,10,0,0,1,4.34-.94c3.49,0,5.84,1.22,7.07,3.65a13,13,0,0,1,1,5.72V75.27h-4.2V59.78a8.46,8.46,0,0,0-.67-3.63,4,4,0,0,0-4-2.29,8.05,8.05,0,0,0-2.41.3,6.16,6.16,0,0,0-3,2,6.23,6.23,0,0,0-1.34,2.51,17.38,17.38,0,0,0-.31,3.71V75.27h-4.13Z"/><path class="cls-1" d="M280,44a11.94,11.94,0,0,1,3.88,7.67h-4.45a8.48,8.48,0,0,0-9.2-7.07,9.93,9.93,0,0,0-7.9,3.5q-3,3.51-3,10.74a15.79,15.79,0,0,0,2.71,9.61c1.81,2.46,4.52,3.69,8.11,3.69a8.51,8.51,0,0,0,7.55-3.88,14.81,14.81,0,0,0,2.05-5.37h4.45a15.26,15.26,0,0,1-3.9,8.93q-4,4.33-10.71,4.34a14,14,0,0,1-9.75-3.56q-5.19-4.71-5.2-14.54,0-7.45,3.91-12.24,4.21-5.19,11.63-5.19Q276.55,40.64,280,44Z"/><path class="cls-1" d="M302.76,60.4a2.27,2.27,0,0,0,1.91-1.19,3.73,3.73,0,0,0,.27-1.59,3.38,3.38,0,0,0-1.5-3.08,8,8,0,0,0-4.29-1q-3.22,0-4.58,1.76a5.76,5.76,0,0,0-1,2.88h-3.85c.07-3,1.06-5.15,2.94-6.34a12.07,12.07,0,0,1,6.57-1.78,13.39,13.39,0,0,1,7,1.65A5.59,5.59,0,0,1,309,56.89V71.05a1.85,1.85,0,0,0,.26,1,1.29,1.29,0,0,0,1.12.39l.62,0c.23,0,.47-.06.73-.11v3.06a12.53,12.53,0,0,1-1.47.34,9.9,9.9,0,0,1-1.38.07,3.39,3.39,0,0,1-3.09-1.52A5.62,5.62,0,0,1,305,72a10.58,10.58,0,0,1-3.63,2.87,11.24,11.24,0,0,1-5.21,1.22A7.74,7.74,0,0,1,290.61,74a6.9,6.9,0,0,1-2.17-5.19,6.68,6.68,0,0,1,2.14-5.29,10.11,10.11,0,0,1,5.6-2.32Zm-8.69,11.16a4.88,4.88,0,0,0,3.09,1,9.5,9.5,0,0,0,4.23-1,5.68,5.68,0,0,0,3.44-5.48V62.78a7.15,7.15,0,0,1-1.95.81,16.76,16.76,0,0,1-2.33.45l-2.5.33a9.45,9.45,0,0,0-3.38.94,3.65,3.65,0,0,0-1.91,3.43A3.38,3.38,0,0,0,294.07,71.56Z"/><path class="cls-1" d="M315.84,41.56H320V75.27h-4.14Z"/><path class="cls-1" d="M326.29,41.56h4.13V75.27h-4.13Z"/><path class="cls-1" d="M173.49,65.22a14.29,14.29,0,0,1-1.26,6.63q-2.35,4.32-8.92,4.32a10.35,10.35,0,0,1-6.48-2.06c-1.79-1.37-2.69-3.8-2.69-7.31V64.39h4.3V66.8a6.06,6.06,0,0,0,1.23,4.14,4.84,4.84,0,0,0,3.83,1.39c2.43,0,4-.83,4.78-2.5A16.21,16.21,0,0,0,169,64V41.56h4.52Z"/><path class="cls-1" d="M197.68,53.15q3.25,3.16,3.26,9.3a16.08,16.08,0,0,1-2.87,9.82q-2.88,3.87-8.91,3.87a10,10,0,0,1-8-3.42q-3-3.43-3-9.21,0-6.19,3.13-9.86A10.42,10.42,0,0,1,189.7,50,11,11,0,0,1,197.68,53.15Zm-2.57,16.33a15.53,15.53,0,0,0,1.51-6.91A12.33,12.33,0,0,0,195.53,57a6.12,6.12,0,0,0-5.94-3.4,5.87,5.87,0,0,0-5.45,2.89,13.56,13.56,0,0,0-1.7,7,11.76,11.76,0,0,0,1.7,6.53,6,6,0,0,0,5.4,2.62Q193.61,72.59,195.11,69.48Z"/><path class="cls-1" d="M206,41.56h4.2v4.68H206Zm0,9.25h4.2V75.27H206Z"/><path class="cls-1" d="M216.45,50.69h3.92v3.49a11.11,11.11,0,0,1,3.7-3.1,10,10,0,0,1,4.34-.94c3.49,0,5.84,1.22,7.07,3.65a13,13,0,0,1,1,5.72V75.27h-4.2V59.78a8.46,8.46,0,0,0-.67-3.63,4,4,0,0,0-4-2.29,8.05,8.05,0,0,0-2.41.3,6.16,6.16,0,0,0-3,2,6.23,6.23,0,0,0-1.34,2.51,17.38,17.38,0,0,0-.31,3.71V75.27h-4.13Z"/><path class="cls-1" d="M280,44a11.94,11.94,0,0,1,3.88,7.67h-4.45a8.48,8.48,0,0,0-9.2-7.07,9.93,9.93,0,0,0-7.9,3.5q-3,3.51-3,10.74a15.79,15.79,0,0,0,2.71,9.61c1.81,2.46,4.52,3.69,8.11,3.69a8.51,8.51,0,0,0,7.55-3.88,14.81,14.81,0,0,0,2.05-5.37h4.45a15.26,15.26,0,0,1-3.9,8.93q-4,4.33-10.71,4.34a14,14,0,0,1-9.75-3.56q-5.19-4.71-5.2-14.54,0-7.45,3.91-12.24,4.21-5.19,11.63-5.19Q276.55,40.64,280,44Z"/><path class="cls-1" d="M302.76,60.4a2.27,2.27,0,0,0,1.91-1.19,3.73,3.73,0,0,0,.27-1.59,3.38,3.38,0,0,0-1.5-3.08,8,8,0,0,0-4.29-1q-3.22,0-4.58,1.76a5.76,5.76,0,0,0-1,2.88h-3.85c.07-3,1.06-5.15,2.94-6.34a12.07,12.07,0,0,1,6.57-1.78,13.39,13.39,0,0,1,7,1.65A5.59,5.59,0,0,1,309,56.89V71.05a1.85,1.85,0,0,0,.26,1,1.29,1.29,0,0,0,1.12.39l.62,0c.23,0,.47-.06.73-.11v3.06a12.53,12.53,0,0,1-1.47.34,9.9,9.9,0,0,1-1.38.07,3.39,3.39,0,0,1-3.09-1.52A5.62,5.62,0,0,1,305,72a10.58,10.58,0,0,1-3.63,2.87,11.24,11.24,0,0,1-5.21,1.22A7.74,7.74,0,0,1,290.61,74a6.9,6.9,0,0,1-2.17-5.19,6.68,6.68,0,0,1,2.14-5.29,10.11,10.11,0,0,1,5.6-2.32Zm-8.69,11.16a4.88,4.88,0,0,0,3.09,1,9.5,9.5,0,0,0,4.23-1,5.68,5.68,0,0,0,3.44-5.48V62.78a7.15,7.15,0,0,1-1.95.81,16.76,16.76,0,0,1-2.33.45l-2.5.33a9.45,9.45,0,0,0-3.38.94,3.65,3.65,0,0,0-1.91,3.43A3.38,3.38,0,0,0,294.07,71.56Z"/><path class="cls-1" d="M315.84,41.56H320V75.27h-4.14Z"/><path class="cls-1" d="M326.29,41.56h4.13V75.27h-4.13Z"/><path class="cls-1" d="M173.49,65.22a14.29,14.29,0,0,1-1.26,6.63q-2.35,4.32-8.92,4.32a10.35,10.35,0,0,1-6.48-2.06c-1.79-1.37-2.69-3.8-2.69-7.31V64.39h4.3V66.8a6.06,6.06,0,0,0,1.23,4.14,4.84,4.84,0,0,0,3.83,1.39c2.43,0,4-.83,4.78-2.5A16.21,16.21,0,0,0,169,64V41.56h4.52Z"/><path class="cls-1" d="M197.68,53.15q3.25,3.16,3.26,9.3a16.08,16.08,0,0,1-2.87,9.82q-2.88,3.87-8.91,3.87a10,10,0,0,1-8-3.42q-3-3.43-3-9.21,0-6.19,3.13-9.86A10.42,10.42,0,0,1,189.7,50,11,11,0,0,1,197.68,53.15Zm-2.57,16.33a15.53,15.53,0,0,0,1.51-6.91A12.33,12.33,0,0,0,195.53,57a6.12,6.12,0,0,0-5.94-3.4,5.87,5.87,0,0,0-5.45,2.89,13.56,13.56,0,0,0-1.7,7,11.76,11.76,0,0,0,1.7,6.53,6,6,0,0,0,5.4,2.62Q193.61,72.59,195.11,69.48Z"/><path class="cls-1" d="M206,41.56h4.2v4.68H206Zm0,9.25h4.2V75.27H206Z"/><path class="cls-1" d="M216.45,50.69h3.92v3.49a11.11,11.11,0,0,1,3.7-3.1,10,10,0,0,1,4.34-.94c3.49,0,5.84,1.22,7.07,3.65a13,13,0,0,1,1,5.72V75.27h-4.2V59.78a8.46,8.46,0,0,0-.67-3.63,4,4,0,0,0-4-2.29,8.05,8.05,0,0,0-2.41.3,6.16,6.16,0,0,0-3,2,6.23,6.23,0,0,0-1.34,2.51,17.38,17.38,0,0,0-.31,3.71V75.27h-4.13Z"/><path class="cls-1" d="M280,44a11.94,11.94,0,0,1,3.88,7.67h-4.45a8.48,8.48,0,0,0-9.2-7.07,9.93,9.93,0,0,0-7.9,3.5q-3,3.51-3,10.74a15.79,15.79,0,0,0,2.71,9.61c1.81,2.46,4.52,3.69,8.11,3.69a8.51,8.51,0,0,0,7.55-3.88,14.81,14.81,0,0,0,2.05-5.37h4.45a15.26,15.26,0,0,1-3.9,8.93q-4,4.33-10.71,4.34a14,14,0,0,1-9.75-3.56q-5.19-4.71-5.2-14.54,0-7.45,3.91-12.24,4.21-5.19,11.63-5.19Q276.55,40.64,280,44Z"/><path class="cls-1" d="M302.76,60.4a2.27,2.27,0,0,0,1.91-1.19,3.73,3.73,0,0,0,.27-1.59,3.38,3.38,0,0,0-1.5-3.08,8,8,0,0,0-4.29-1q-3.22,0-4.58,1.76a5.76,5.76,0,0,0-1,2.88h-3.85c.07-3,1.06-5.15,2.94-6.34a12.07,12.07,0,0,1,6.57-1.78,13.39,13.39,0,0,1,7,1.65A5.59,5.59,0,0,1,309,56.89V71.05a1.85,1.85,0,0,0,.26,1,1.29,1.29,0,0,0,1.12.39l.62,0c.23,0,.47-.06.73-.11v3.06a12.53,12.53,0,0,1-1.47.34,9.9,9.9,0,0,1-1.38.07,3.39,3.39,0,0,1-3.09-1.52A5.62,5.62,0,0,1,305,72a10.58,10.58,0,0,1-3.63,2.87,11.24,11.24,0,0,1-5.21,1.22A7.74,7.74,0,0,1,290.61,74a6.9,6.9,0,0,1-2.17-5.19,6.68,6.68,0,0,1,2.14-5.29,10.11,10.11,0,0,1,5.6-2.32Zm-8.69,11.16a4.88,4.88,0,0,0,3.09,1,9.5,9.5,0,0,0,4.23-1,5.68,5.68,0,0,0,3.44-5.48V62.78a7.15,7.15,0,0,1-1.95.81,16.76,16.76,0,0,1-2.33.45l-2.5.33a9.45,9.45,0,0,0-3.38.94,3.65,3.65,0,0,0-1.91,3.43A3.38,3.38,0,0,0,294.07,71.56Z"/><path class="cls-1" d="M315.84,41.56H320V75.27h-4.14Z"/><path class="cls-1" d="M326.29,41.56h4.13V75.27h-4.13Z"/><path class="cls-1" d="M77.34,53.67V52.6a.81.81,0,0,1,.81-.81H95a.81.81,0,0,1,.81.81v1.07h.5V52.6A1.31,1.31,0,0,0,95,51.29H78.15a1.31,1.31,0,0,0-1.31,1.31v1.07Z"/><path class="cls-1" d="M95.85,67.86v1.07a.81.81,0,0,1-.81.81H78.14a.8.8,0,0,1-.8-.81V67.86h-.5v1.07a1.31,1.31,0,0,0,1.3,1.31H95a1.31,1.31,0,0,0,1.31-1.31V67.86Z"/></g></g></svg>