<svg xmlns="http://www.w3.org/2000/svg" viewBox="0 0 205.74 140">
    <defs>
        <style>
            .cls-1{fill:#fff;}.cls-2,.cls-3,.cls-4{fill:none;}.cls-3,.cls-4{stroke:#fff;}.cls-3{stroke-width:3px;}.cls-4{stroke-linecap:round;stroke-linejoin:round;stroke-width:2px;}
        </style>
    </defs>
    <title>k_logo</title>
    <g id="Layer_2" data-name="Layer 2">
        <g id="Layer_1-2" data-name="Layer 1">
            <path class="cls-1"
                  d="M183.67,93.9l3.32.83a11.16,11.16,0,0,1-3.75,6.23,10.38,10.38,0,0,1-6.63,2.15,11.91,11.91,0,0,1-6.59-1.65,10.29,10.29,0,0,1-3.86-4.78A17.14,17.14,0,0,1,164.89,90a15,15,0,0,1,1.49-6.83,10.29,10.29,0,0,1,4.26-4.43,12.48,12.48,0,0,1,6.07-1.51,10.26,10.26,0,0,1,6.28,2,9.91,9.91,0,0,1,3.57,5.38l-3.26.77a7.81,7.81,0,0,0-2.53-4,6.69,6.69,0,0,0-4.17-1.25,8.11,8.11,0,0,0-4.83,1.38A7.27,7.27,0,0,0,169,85.17a15.1,15.1,0,0,0-.78,4.81,15.4,15.4,0,0,0,.93,5.58,6.9,6.9,0,0,0,2.89,3.56,8.1,8.1,0,0,0,4.26,1.18,7.17,7.17,0,0,0,4.72-1.6A8.26,8.26,0,0,0,183.67,93.9Z"/>
            <path class="cls-1" d="M194.17,102.68V80.58h-8.28v-3h19.85v3h-8.29v22.1Z"/>
            <path class="cls-1" d="M100.76,102.68v-25h3.4l13.16,19.67V77.63h3.18v25h-3.4L103.94,82.94v19.69Z"/>
            <path class="cls-1" d="M122.76,102.68v-25h3.4l13.16,19.67V77.63h3.18v25h-3.4L125.94,82.94v19.69Z"/>
            <path class="cls-1" d="M144.89,102.68v-25H163v2.95h-14.8v7.68h13.86v2.86H148.18v8.52h15.38v3Z"/>
            <circle class="cls-2" cx="83.6" cy="90.18" r="14.5"/>
            <circle class="cls-3" cx="83.6" cy="90.18" r="13"/>
            <path class="cls-4" d="M102.15,106v5h37.9v-5"/>
            <path class="cls-4" d="M102.15,75V70h37.9v5"/>
            <path class="cls-1" d="M20.2,79s11.35-13.11,16-16.21c0,0-11.78-26.92-6-62.83H8.71S2.59,46.08,20.2,79Z"/>
            <path class="cls-1" d="M78.26,50.78V73C21.05,82.18,0,129.66,0,129.66S12.08,67.3,78.26,50.78Z"/>
            <path class="cls-1"
                  d="M34.3,103.62,52.63,90.56C69.82,109.18,87,116.86,87,116.86V140S59.55,133.76,34.3,103.62Z"/>
        </g>
    </g>
</svg>