<svg xmlns="http://www.w3.org/2000/svg" viewBox="0 0 135.36 88.07"><defs><style>.cls-1,.cls-2{fill:#231f20;}.cls-2{font-size:13.55px;font-family:NexaLight, Nexa Light;}</style></defs><title>konn</title><g id="Layer_2" data-name="Layer 2"><g id="Layer_3" data-name="Layer 3"><path class="cls-1" d="M18.39,0s-3.85,22.87,3.92,38.42L12.16,48.89S.58,26.46,5.5,0Z"/><path class="cls-1" d="M48.49,31.44S9.36,38.81,0,79.21c0,0,14.91-30.19,48.49-33.6Z"/><path class="cls-1" d="M32.26,55.32A52.25,52.25,0,0,0,53.83,71.86v14.4S35.25,82.32,21.37,63.75Z"/><path class="cls-1" d="M118,88.07H62.82a6,6,0,0,1-6-6v-21a6,6,0,0,1,6-6H118a6,6,0,0,1,6,6V82A6,6,0,0,1,118,88.07ZM62.82,57.75a3.33,3.33,0,0,0-3.33,3.32V82a3.33,3.33,0,0,0,3.33,3.33H118A3.34,3.34,0,0,0,121.32,82v-21A3.33,3.33,0,0,0,118,57.75Z"/><text class="cls-2" transform="translate(62.73 76.86)">ONNECT</text><polygon class="cls-1" points="124.03 67.27 124.03 76.4 135.36 82.95 135.36 60.72 124.03 67.27"/></g></g></svg>