<?xml version="1.0" encoding="utf-8"?>
<!-- Generator: Adobe Illustrator 24.2.3, SVG Export Plug-In . SVG Version: 6.00 Build 0)  -->
<svg version="1.1" id="Capa_1" xmlns="http://www.w3.org/2000/svg" xmlns:xlink="http://www.w3.org/1999/xlink" x="0px" y="0px"
	 viewBox="0 0 870.85 870.85" style="enable-background:new 0 0 870.85 870.85;" xml:space="preserve">
<style type="text/css">
	.st0{fill:#ECEFF1;}
	.st1{fill:#01579B;}
	.st2{fill:#2C5668;}
</style>
<g>
	<path class="st2" d="M435.43,93.05c46.23,0,91.06,9.05,133.26,26.9c40.77,17.24,77.38,41.93,108.83,73.38s56.14,68.07,73.38,108.83
		c17.85,42.2,26.9,87.03,26.9,133.26s-9.05,91.06-26.9,133.26c-17.24,40.77-41.93,77.38-73.38,108.83s-68.07,56.14-108.83,73.38
		c-42.2,17.85-87.03,26.9-133.26,26.9s-91.06-9.05-133.26-26.9c-40.77-17.24-77.38-41.93-108.83-73.38s-56.14-68.07-73.38-108.83
		c-17.85-42.2-26.9-87.03-26.9-133.26s9.05-91.06,26.9-133.26c17.24-40.77,41.93-77.38,73.38-108.83s68.07-56.14,108.83-73.38
		C344.36,102.1,389.2,93.05,435.43,93.05 M435.43,73.05c-200.13,0-362.37,162.24-362.37,362.37S235.29,797.8,435.43,797.8
		S797.8,635.56,797.8,435.43S635.56,73.05,435.43,73.05L435.43,73.05z"/>
</g>
<rect x="190.09" y="388.05" class="st0" width="149.33" height="256"/>
<path class="st1" d="M339.43,654.72H190.09c-5.89,0-10.67-4.78-10.67-10.67v-256c0-5.89,4.78-10.67,10.67-10.67h149.33
	c5.89,0,10.67,4.78,10.67,10.67v256C350.09,649.94,345.32,654.72,339.43,654.72z M200.76,633.38h128V398.72h-128
	C200.76,398.72,200.76,633.38,200.76,633.38z"/>
<path class="st0" d="M339.43,601.38c18.59,13.61,40.96,21.06,64,21.33h197.33c20.57,0.07,37.31-16.55,37.38-37.12
	c0.04-10.34-4.23-20.24-11.78-27.31c20.37-2.2,35.1-20.5,32.9-40.87c-0.96-8.85-5.06-17.06-11.57-23.13
	c20.37-2.18,35.12-20.46,32.95-40.83c-1.34-12.51-8.92-23.49-20.15-29.16c20.02-12.43,26.17-38.74,13.73-58.76
	c-7.76-12.5-21.42-20.12-36.14-20.16H488.76c11.72-30.8,18.9-63.14,21.33-96c0-40-34.67-74.67-53.33-74.67
	c-11.51,0.17-22.69,3.89-32,10.67v74.67l-64,138.67l-21.33,10.67L339.43,601.38L339.43,601.38z"/>
<path class="st1" d="M600.76,633.38H403.43c-25.86-0.21-50.97-8.78-71.55-24.45c-2-2-3.12-4.72-3.11-7.55v-192
	c0-4.04,2.28-7.73,5.89-9.54l17.98-9l61.46-133.12v-72.34c-0.01-3.24,1.46-6.31,3.99-8.34c11.23-8.25,24.75-12.79,38.68-12.99
	c24.68,0,64,39.06,64,85.33c-1.61,29.11-7.36,57.84-17.07,85.33h134.4c29.45,0,53.33,23.88,53.33,53.33
	c0.03,13.24-4.92,26-13.87,35.76c18.57,18.69,18.46,48.89-0.23,67.46c-3.59,3.57-7.73,6.54-12.25,8.81
	c3.32,6.62,5.04,13.93,5.01,21.33c-0.02,18.06-10.21,34.56-26.35,42.67c3.32,6.62,5.04,13.93,5.01,21.33
	C648.71,611.89,627.25,633.35,600.76,633.38z M350.09,596.5c16.15,9.67,34.52,15.02,53.33,15.55h197.33
	c14.72-0.01,26.65-11.94,26.67-26.67c0-7.33-3.05-14.32-8.43-19.31c-4.29-4.04-4.5-10.79-0.46-15.08c1.73-1.84,4.05-3.01,6.56-3.29
	c14.52-1.53,25.04-14.55,23.51-29.06c-0.67-6.34-3.61-12.22-8.28-16.57c-4.29-4.04-4.5-10.79-0.46-15.08
	c1.73-1.84,4.05-3.01,6.56-3.29c14.52-1.53,25.05-14.54,23.52-29.06c-0.95-8.98-6.41-16.86-14.49-20.89
	c-5.23-2.7-7.29-9.14-4.59-14.37c0.89-1.72,2.23-3.17,3.88-4.19c15-9.35,19.58-29.08,10.23-44.08c-5.79-9.3-15.94-14.98-26.9-15.07
	H488.76c-5.89,0-10.66-4.78-10.66-10.67c0-1.3,0.24-2.58,0.7-3.79c11.24-29.59,18.19-60.64,20.63-92.2c0-34.94-30.98-64-42.67-64
	c-7.48,0.12-14.82,2.11-21.33,5.78v68.89c0,1.55-0.34,3.07-0.98,4.48l-64,138.67c-1.02,2.19-2.75,3.98-4.91,5.06l-15.45,7.72V596.5
	L350.09,596.5z"/>
<g>
	<path class="st2" d="M339.43,377.38H190.09c-5.89,0-10.67,4.78-10.67,10.67v256c0,5.89,4.78,10.67,10.67,10.67h149.33
		c5.89,0,10.67-4.77,10.67-10.67v-256C350.09,382.16,345.32,377.38,339.43,377.38L339.43,377.38z M200.76,633.38V398.72h128v234.67
		h-128V633.38z"/>
</g>
<g>
	<path class="st2" d="M456.76,164.05c-13.92,0.21-27.44,4.75-38.66,12.99c-2.54,2.02-4.01,5.1-4.01,8.34v72.34l-61.44,133.1
		l-17.98,9c-5.27,2.63-7.41,9.04-4.78,14.31c1.87,3.74,5.64,5.91,9.56,5.91c1.6,0,3.23-0.36,4.76-1.13l21.33-10.67
		c2.16-1.08,3.89-2.86,4.91-5.06l64-138.67c0.64-1.41,0.98-2.93,0.98-4.48v-68.89c6.52-3.67,13.85-5.66,21.33-5.78
		c11.69,0,42.67,29.06,42.67,64c-2.45,31.56-9.4,62.61-20.63,92.2c-0.46,1.21-0.7,2.5-0.7,3.79c0,5.89,4.77,10.67,10.66,10.67
		h149.33c10.96,0.08,21.12,5.77,26.92,15.07c9.35,15,4.77,34.74-10.23,44.08c-1.65,1.02-2.99,2.46-3.88,4.19
		c-2.7,5.24-0.65,11.67,4.59,14.37c8.08,4.03,13.55,11.92,14.49,20.9c1.52,14.52-9.02,27.52-23.54,29.04
		c-2.51,0.29-4.83,1.45-6.56,3.29c-4.04,4.29-3.83,11.04,0.46,15.08c4.67,4.34,7.6,10.23,8.27,16.57
		c1.53,14.52-8.99,27.53-23.51,29.06c-2.51,0.28-4.83,1.45-6.56,3.29c-4.04,4.29-3.83,11.04,0.46,15.08
		c5.37,4.99,8.42,11.98,8.43,19.31c-0.01,14.72-11.94,26.65-26.67,26.67H403.43c-20.22-0.29-39.89-6.63-56.47-18.2
		c-2.07-2-4.74-2.99-7.41-2.99s-5.34,1-7.41,2.99c-4.24,4.09-4.35,10.85-0.26,15.08c20.58,15.66,45.69,24.24,71.55,24.45h197.33
		c26.49-0.04,47.95-21.49,48-47.98c0.03-7.4-1.68-14.71-4.99-21.33c23.52-11.82,33.05-40.43,21.33-64
		c4.52-2.27,8.66-5.24,12.25-8.81c18.69-18.57,18.78-48.77,0.21-67.46c8.95-9.75,13.9-22.52,13.87-35.75
		c0-29.45-23.88-53.33-53.33-53.33H503.7c9.71-27.49,15.46-56.22,17.07-85.33C520.76,203.11,481.44,164.05,456.76,164.05
		L456.76,164.05z"/>
</g>
</svg>
