<svg xmlns="http://www.w3.org/2000/svg" style="width: 100%; height: 100%;" viewBox="0 0 21.386 22">
    <defs>
        <style>
            .cls-1{fill:#666}
        </style>
    </defs>
    <g id="like" transform="translate(-6.675)">
        <path id="Path_50" d="M27.419 14.957a2.733 2.733 0 0 0 .639-1.826 2.806 2.806 0 0 0-.6-1.583 2.459 2.459 0 0 0-.584-2.829 5.08 5.08 0 0 0-3.694-.883 14.438 14.438 0 0 0-2.263.29c-.23.041-.474.092-.722.147a8.026 8.026 0 0 1 .572-2.673c.644-1.96.607-3.46-.12-4.463A2.925 2.925 0 0 0 18.305 0a1.155 1.155 0 0 0-.888.4 3.1 3.1 0 0 0-.386 2.2c-.607 1.629-2.309 5.622-3.749 6.731a.492.492 0 0 0-.074.064 4.942 4.942 0 0 0-.9 1.353 1.9 1.9 0 0 0-.911-.23H8.589a1.915 1.915 0 0 0-1.914 1.914v7.476a1.915 1.915 0 0 0 1.914 1.914H11.4a1.91 1.91 0 0 0 1.1-.35l1.081.129a46.32 46.32 0 0 0 6.133.336c.547.041 1.063.064 1.541.064a10.323 10.323 0 0 0 2.139-.193 4 4 0 0 0 2.857-1.776 2.816 2.816 0 0 0 .313-1.762 2.935 2.935 0 0 0 1.044-2.388 3.108 3.108 0 0 0-.189-.925zm-18.83 5.621a.672.672 0 0 1-.672-.672v-7.48a.672.672 0 0 1 .672-.672H11.4a.672.672 0 0 1 .672.672V19.9a.672.672 0 0 1-.672.672H8.589zm17.652-6.16a.618.618 0 0 0-.083.75 1.914 1.914 0 0 1 .212.768 1.841 1.841 0 0 1-.865 1.592.627.627 0 0 0-.212.708 1.625 1.625 0 0 1-.124 1.187 2.878 2.878 0 0 1-2.033 1.169 12.12 12.12 0 0 1-3.354.1h-.064a45.41 45.41 0 0 1-5.981-.327l-.465-.055a1.949 1.949 0 0 0 .041-.4v-7.484a1.946 1.946 0 0 0-.087-.57 3.845 3.845 0 0 1 .856-1.578c2.066-1.638 4.085-7.163 4.173-7.4a.582.582 0 0 0 .028-.308 2.875 2.875 0 0 1 .06-1.334 1.651 1.651 0 0 1 1.3.621c.469.649.451 1.808-.055 3.345-.773 2.342-.837 3.575-.225 4.118a1 1 0 0 0 1 .179c.281-.064.547-.12.8-.161l.06-.014c1.412-.308 3.943-.5 4.821.3A1.324 1.324 0 0 1 26.2 11.3a.615.615 0 0 0 .11.8 1.743 1.743 0 0 1 .511 1.072 1.708 1.708 0 0 1-.58 1.246z" class="cls-1" data-name="Path 50"/>
    </g>
</svg>
