<?xml version="1.0" encoding="utf-8"?>
<!-- Generator: Adobe Illustrator 24.0.1, SVG Export Plug-In . SVG Version: 6.00 Build 0)  -->
<svg version="1.1" id="Layer_1" xmlns="http://www.w3.org/2000/svg" xmlns:xlink="http://www.w3.org/1999/xlink" x="0px" y="0px"
	 viewBox="0 0 217.5 157.5" style="enable-background:new 0 0 217.5 157.5;" xml:space="preserve">
<style type="text/css">
	.st0{fill:#2F566A;}
	.st1{fill:#462B28;}
	.st2{fill:#472C29;}
	.st3{fill:#6DB986;}
	.st4{fill:#8FE4F9;}
	.st5{fill:#E9AD64;}
	.st6{fill:#F9D9B6;}
	.st7{fill:#F7D7B4;}
	.st8{fill:#C5CFD4;}
	.st9{fill:#462C28;}
	.st10{fill:#47302B;}
</style>
<rect x="0.4" y="0.2" class="st0" width="217" height="157"/>
<path class="st1" d="M63.8,140.2c-2.1,5.3-4.4,9.1-9.6,7.9c-5.6-1.3-5.9-6-5.7-10.7c0.4-9,0.7-18,0.9-27c0.1-2,0.9-4.4-2.1-5.2
	c-5.5-1.5-6.3-5.7-6.1-10.6c0.2-4.7,0-9.5,0-14.2c0-16.7,2.7-20.9,18.5-27.5c-5.4-3.4-9.3-7.7-8.4-14.4c0.4-3.1,1.8-6,4.4-7.8
	c2.8-1.9,4.2-3.8,4.1-7.4c-0.2-4.9,2.9-7.2,7.7-7.2c31.7,0,63.4,0,95.1,0c6.2,0,8,3.6,8,9.2c-0.1,18.9,0,37.9,0,56.8
	c0,2.8-0.2,5.3,2.7,7.4c3.1,2.3,3.9,5.8,2.1,9.6c-1.7,3.6-4.7,5.1-8.6,5.1c-11.6,0-23.2,0-34.8,0c-15.8,0-31.7,0.2-47.5-0.1
	c-4.4-0.1-5.7,1.2-5.5,5.6c0.5,9,0.3,18,0.5,27c0.1,4.6,0.4,9.5-5.1,11.2C68.8,149.7,66.5,145.4,63.8,140.2z"/>
<path class="st2" d="M145.1,142.8c1.2-1.9,1.8-3.6,3-4.6c3.4-2.7,4-4.9,1.2-8.9c-3.4-4.9-1.7-10.1,2.8-13.9
	c4.3-3.6,9.3-3.6,13.7-0.2c4.6,3.6,6.6,8.8,3.2,13.7c-2.9,4.3-2.4,6.6,1.3,9.6c1.2,0.9,1.7,2.8,2.3,4.3c1.7,4.8,1,7.1-5.1,7.1
	c-24.4-0.3-48.7-0.1-73.1-0.1c-6.9,0-7.9-1.4-5.3-7.7c0.8-1.9,1.9-4,3.5-5.2c2.5-2.1,2.7-3.3,0.7-6.1c-3.9-5.4-2.9-11.5,1.8-15.2
	c4.7-3.7,9.6-3.7,14.3,0c4.8,3.7,5.8,9.8,1.9,15.2c-2,2.8-2.1,4,0.6,6.1c1.8,1.4,2.9,3.6,4.3,5.6c2.1-0.2,1.7-2.5,3-3.5
	c3.5-2.9,5-5.5,1.5-10.1c-3.2-4.2-1.4-9.2,2.4-12.8c4.1-3.8,9-4.3,13.7-1.2c4.4,2.9,7.4,8.2,4.6,12.1
	C136.2,134.1,141.2,137.7,145.1,142.8z"/>
<path class="st3" d="M68.6,52c5.5-2.2,8.2-6.3,8-12.1c-0.2-5.8-3.5-9.7-8.9-11.6c-2.4-0.9-4.3-1.5-3.9-4.7c0.4-3.5,2.9-3.2,5.2-3.2
	c30.8,0,61.5,0,92.3-0.1c4.2,0,5.1,1.9,5.1,5.6c-0.1,18.7-0.1,37.4,0,56.1c0,3.9-1.1,5.4-5.2,5.3c-25.8-0.2-51.6-0.2-77.4,0
	c-4.4,0-6-1.3-5.6-5.7c0.3-2.5,0-5.1,0-9.6c7.7,7.2,15.5,10.3,24.7,9.2c5.4-0.7,9.9-2,9.7-8.7c-0.1-4.9,6.5-4.7,6.7-9.3
	c4.4-4.9,9.9-8.5,14.1-12.4c-4.7,2.6-7.9,8.7-14.3,10.5c-8.2,7-21.3,7.4-30.4,0.8c-5.3-3.9-10.6-7.8-17.7-7.8
	C70.5,53.3,67.6,54.8,68.6,52z"/>
<path class="st4" d="M51.1,70.8c0,8.7,0.1,17.4-0.1,26c0,1.6,1.2,4.2-2,4.3c-2.6,0.1-3.8-1.6-3.7-4.2c0-8.5-0.3-17.1,0.2-25.6
	c0.4-6.5,6.3-12.3,13.7-13.4c8.6-1.3,17.1-0.7,24.2,5.2c5.8,4.8,11.9,8.5,19.9,7.1c2.5-0.4,5.3,0.4,5.3,3.3c0,2.9-2.8,3.2-5.3,3.4
	c-7.3,0.5-14.1-0.1-19.7-5.7c-1.7-1.8-4.1-3.7-6.9-2c-2.5,1.4-2,4.1-2,6.4c0.2,19.6,0.4,39.3,0.6,58.9c0,1.7,0,3.3,0,5
	c0,1.9-0.1,4.1-2.6,4.3c-3,0.3-3.4-2-3.5-4.2c-0.4-8.5-0.7-17-1-25.5c-0.1-2.4-0.1-4.7-0.1-7.1c0-2.8-0.6-5.5-4-5.5
	c-3.5,0-4.1,2.8-4.2,5.5c-0.3,8-0.4,16.1-0.6,24.1c0,2.1,0,4.3-0.2,6.4c-0.3,2.7,0.3,6.5-3.9,6.2c-3.7-0.2-2.8-3.8-2.7-6.2
	c0.4-19.9,0.9-39.7,1.3-59.6c0-2.4,0.6-5-0.7-7.2C52.5,70.8,51.8,70.8,51.1,70.8z"/>
<path class="st5" d="M124.3,100.2c-13.5,0-26.9,0-40.4,0c-3.1,0-5.5-0.1-5.5-4.3c-0.1-4.1,1.8-4.6,5.2-4.6c27.2,0.1,54.3,0,81.5,0
	c3.1,0,6.7-0.1,6.8,4.2c0.1,4.9-3.8,4.6-7.1,4.6C151.2,100.2,137.8,100.2,124.3,100.2z"/>
<path class="st6" d="M65.2,49c-6,0.2-10-3.6-9.8-8.6c0.2-5.3,3-8.2,8.3-8.6c5-0.3,9.1,3.6,8.9,8.6C72.4,45.7,69.3,48.4,65.2,49z"/>
<path class="st1" d="M111.1,67.7c6.3-5,12.6-10.1,19-15.1c1-0.8,2-2.1,3.5-0.6c1,1,0.4,1.9-0.5,2.6c-7.2,5.1-13.5,11.4-21.7,15.3
	C111.2,69.2,111.1,68.5,111.1,67.7z"/>
<path class="st7" d="M109.6,123.4c-0.3,5-2.4,7.8-6.9,8c-4.8,0.2-7.6-2.5-7.5-7.3c0-4.5,2.7-7,7.1-7
	C106.8,117,108.9,119.8,109.6,123.4z"/>
<path class="st7" d="M130.6,131.5c-4.4-0.5-7-2.7-7-7.2c0-4.5,2.5-7.1,6.9-7.2c4.8-0.1,7.5,2.6,7.4,7.5
	C137.8,129,135,131.2,130.6,131.5z"/>
<path class="st7" d="M159.4,131.5c-4.7-0.5-7.4-2.8-7.4-7.3c0-4.5,2.5-7.1,6.9-7.2c4.8-0.1,7.5,2.6,7.4,7.5
	C166.2,129,163.3,131.1,159.4,131.5z"/>
<path class="st8" d="M102,145.6c-0.7,0-1.5,0.2-2.1,0c-2.3-0.9-6.5,2.2-6.8-2.1c-0.2-3.5,3.2-5.6,6.7-6.3c1.8-0.4,3.8-0.3,5.6,0.1
	c3.4,0.9,6.7,3.3,6.2,6.7c-0.5,3.1-4.4,1-6.7,1.5C103.9,145.8,102.9,145.6,102,145.6z"/>
<path class="st8" d="M130.7,145.6c-0.9,0-1.9,0.2-2.8,0c-2.2-0.6-6,1.8-6.4-1.8c-0.4-3.2,2.7-5.4,5.8-6.3c1.7-0.5,3.8-0.7,5.6-0.3
	c3.8,0.6,7.4,2.9,7.1,6.7c-0.4,3.7-4.6,1.1-7.1,1.8C132.2,145.8,131.4,145.6,130.7,145.6z"/>
<path class="st8" d="M159,145.6c-0.9,0-1.9,0.1-2.8,0c-2.2-0.4-5.6,1.4-6.2-1.3c-0.7-3.3,2.3-5.4,5.2-6.7c2.5-1.1,5.1-1,7.6-0.1
	c3.1,1.1,6.1,3.4,5.6,6.5c-0.5,3.3-4.3,1.1-6.6,1.7C160.9,145.8,159.9,145.6,159,145.6z"/>
<path class="st1" d="M139.9,30c-19.4,0-38.8,0-58.1,0c0-0.5,0-0.9,0-1.4c19.4,0,38.8,0,58.1,0C139.9,29,139.9,29.5,139.9,30z"/>
<path class="st9" d="M159.7,58.1c-1.3-6.4-0.7-12.9-0.5-19.4c0.2-5.8-0.6-9.7-7.8-8.4c-1.1,0.2-2.4,0.2-3.5-1.4
	c4.1-2.5,8.7-2,12.4-0.7c3.3,1.2,1.4,5.5,1.5,8.3c0.2,7.2,0.1,14.4,0.1,21.6C161.2,58.1,160.5,58.1,159.7,58.1z"/>
<path class="st10" d="M160.5,78c-2-4.7-1.2-9.4-0.2-14.2C162.5,68.4,162.4,73.2,160.5,78z"/>
</svg>
