<svg xmlns="http://www.w3.org/2000/svg" width="286.747" height="278.348" viewBox="0 0 286.747 278.348">
  <g id="Group_7764" data-name="Group 7764" transform="translate(-729 -464.458)">
    <path id="Icon_awesome-plane-departure" data-name="Icon awesome-plane-departure" d="M279.579,24.463H7.169A7.167,7.167,0,0,0,0,31.632V45.969a7.167,7.167,0,0,0,7.169,7.169h272.41a7.167,7.167,0,0,0,7.169-7.169V31.632A7.167,7.167,0,0,0,279.579,24.463Z" transform="translate(729 689.668)" fill="#1a5669"/>
    <path id="Icon_metro-location" data-name="Icon metro-location" d="M81.2,1.928A72.847,72.847,0,0,0,8.355,74.775c0,72.847,72.847,160.264,72.847,160.264s72.847-87.417,72.847-160.264A72.847,72.847,0,0,0,81.2,1.928Zm0,117.466a44.619,44.619,0,0,1,0-89.238c24.642,0,43.885,19.977,43.885,44.619S105.844,119.394,81.2,119.394ZM52.974,74.775c0-15.59,12.638-27.526,28.228-27.526S109.43,59.185,109.43,74.775a28.228,28.228,0,0,1-56.457,0Z" transform="translate(787.771 462.53)" fill="#1a5669"/>
  </g>
</svg>
