<?xml version="1.0"?>
<svg xmlns="http://www.w3.org/2000/svg" id="Layer_1" data-name="Layer 1" viewBox="0 0 512 512" width="512" height="512"><title>Email Package Bill</title><g id="_Group_2" data-name=" Group 2"><path d="M380.41,267.77,446,227.4V412.86a26.4,26.4,0,0,1-7.77,18.74l-.18-.18L291.35,323.07l-.21-.35Z" style="fill:#e48e66"/><polygon points="446 227.4 380.41 267.77 380.41 180.24 446 227.4" style="fill:#af593c"/><path d="M438.05,431.42l.18.18a26.42,26.42,0,0,1-18.75,7.77H92.52a26.388,26.388,0,0,1-18.94-7.97L220.65,322.62l.04-.07,21.4,13.21a26.535,26.535,0,0,0,27.83.02l21.22-13.06.21.35Z" style="fill:#c16752"/><path d="M131.59,172.17V85.1a21.23,21.23,0,0,1,21.23-21.23H359.18A21.23,21.23,0,0,1,380.41,85.1V267.77l-89.27,54.95-21.22,13.06a26.535,26.535,0,0,1-27.83-.02l-21.4-13.21-89.1-54.98ZM323.64,137V102.15H188.36V137h11.01v64.69H312.79V137Z" style="fill:#f8ec7d"/><polygon points="323.64 102.15 323.64 137 312.79 137 271.12 137 241.04 137 199.37 137 188.36 137 188.36 102.15 323.64 102.15" style="fill:#6fe3ff"/><polygon points="312.79 137 312.79 201.69 199.37 201.69 199.37 137 241.04 137 241.04 137.21 241.04 175.4 255.89 166.4 271.12 175.4 271.12 137.21 271.12 137 312.79 137" style="fill:#97f2fc"/><polygon points="271.12 137.21 271.12 175.4 255.89 166.4 241.04 175.4 241.04 137.21 241.04 137 271.12 137 271.12 137.21" style="fill:#c16752"/><path d="M131.59,267.57l89.1,54.98-.04.07L73.58,431.4A26.363,26.363,0,0,1,66,412.86V227.4h.49Z" style="fill:#e48e66"/><polygon points="131.59 172.17 131.59 267.57 66.49 227.4 66 227.4 131.59 172.17" style="fill:#af593c"/><path d="M281.5,243.92h-91a7,7,0,0,1,0-14h91a7,7,0,0,1,0,14Z" style="fill:#e48e66"/><path d="M321.5,243.92h-21a7,7,0,0,1,0-14h21a7,7,0,0,1,0,14Z" style="fill:#e48e66"/><path d="M221.5,273.92h-31a7,7,0,0,1,0-14h31a7,7,0,0,1,0,14Z" style="fill:#e48e66"/><path d="M321.5,273.92h-81a7,7,0,0,1,0-14h81a7,7,0,0,1,0,14Z" style="fill:#e48e66"/></g></svg>
