<svg xmlns="http://www.w3.org/2000/svg" viewBox="0 0 86.53 86.53"><defs><style>.cls-1{fill:#53b95d;}.cls-2{fill:#fff;}</style></defs><title>Asset 11</title><g id="Layer_2" data-name="Layer 2"><g id="Layer_3" data-name="Layer 3"><rect class="cls-1" width="86.53" height="86.53" rx="14.1"/><path class="cls-2" d="M44.68,27.39a6.47,6.47,0,1,0-6.47-6.47A6.48,6.48,0,0,0,44.68,27.39Z"/><path class="cls-2" d="M46,29.48a.81.81,0,0,0-.57-.23H43.88a.77.77,0,0,0-.56.23.73.73,0,0,0-.1.87l.85,1.28L43.67,35l.78,2.08a.24.24,0,0,0,.45,0L45.68,35l-.39-3.35.84-1.28a.74.74,0,0,0-.09-.87Z"/><path class="cls-2" d="M34.71,44.43H54.64a.92.92,0,0,0,.92-.92v-8.3a5.66,5.66,0,0,0-3.9-5.35l-1.82-.56a.67.67,0,0,0-.81.4l-4.35,12-4.36-12a.67.67,0,0,0-.61-.43.69.69,0,0,0-.2,0l-1.8.56a5.66,5.66,0,0,0-3.92,5.35v8.3a.92.92,0,0,0,.92.92Z"/><path class="cls-2" d="M24,30.7a6.47,6.47,0,1,0-6.47-6.47A6.47,6.47,0,0,0,24,30.7Z"/><path class="cls-2" d="M35,48.49H29.82V38.31a5.86,5.86,0,0,0-11.72,0V52.14a5.63,5.63,0,0,0,5.63,5.62h6.68V67A1.59,1.59,0,0,0,32,68.57h6.18A1.59,1.59,0,0,0,39.77,67V53.28A4.79,4.79,0,0,0,35,48.49Z"/><path class="cls-2" d="M65.39,30.7a6.47,6.47,0,1,0-6.47-6.47A6.47,6.47,0,0,0,65.39,30.7Z"/><path class="cls-2" d="M65.39,32.45a5.86,5.86,0,0,0-5.86,5.86V48.49H54.38a4.79,4.79,0,0,0-4.8,4.79V67a1.59,1.59,0,0,0,1.59,1.59h6.18A1.59,1.59,0,0,0,58.94,67V57.76h6.69a5.62,5.62,0,0,0,5.62-5.62V38.31a5.86,5.86,0,0,0-5.86-5.86Z"/></g></g></svg>