<?xml version="1.0" encoding="iso-8859-1"?>
<!-- Generator: Adobe Illustrator 19.0.0, SVG Export Plug-In . SVG Version: 6.00 Build 0)  -->
<svg version="1.1" id="Capa_1" xmlns="http://www.w3.org/2000/svg" xmlns:xlink="http://www.w3.org/1999/xlink" x="0px" y="0px"
	 viewBox="0 0 512 512" style="enable-background:new 0 0 512 512;" xml:space="preserve">
<g>
	<g>
		<path d="M337.678,248.9h-4.594v-78.684c0-1.272-0.162-2.539-0.481-3.77c-1.767-6.804-6.938-14.104-32.598-21.375
			c-3.362-0.953-6.776-1.809-10.193-2.573c6.024-6.807,9.691-15.745,9.691-25.527V97.405c0-21.268-17.303-38.57-38.57-38.57h-9.865
			c-21.268,0-38.57,17.303-38.57,38.57v19.566c0,9.783,3.668,18.721,9.691,25.527c-3.417,0.764-6.831,1.62-10.193,2.573
			c-25.659,7.271-30.831,14.57-32.598,21.375c-0.319,1.231-0.481,2.498-0.481,3.77V248.9h-4.594c-8.284,0-15,6.716-15,15
			s6.715,15,14.999,15h19.594h124.168h19.594c8.284,0,15-6.716,15-15S345.962,248.9,337.678,248.9z M242.497,97.405
			c0-4.726,3.845-8.57,8.57-8.57h9.865c4.726,0,8.57,3.845,8.57,8.57v19.566c0,4.726-3.845,8.57-8.57,8.57h-9.865
			c-4.726,0-8.57-3.845-8.57-8.57V97.405z M303.084,248.9h-94.168v-71.162c9.109-3.804,29.988-9.366,47.084-9.366
			s37.975,5.562,47.084,9.366V248.9z"/>
	</g>
</g>
<g>
	<g>
		<path d="M229.503,334.078c-0.002-21.137-17.2-38.331-38.341-38.331h-41.985v-51.121c0-14.496-6.212-27.565-16.109-36.701
			c5.433-6.648,8.699-15.132,8.699-24.367v-17.293c0-21.268-17.303-38.571-38.57-38.571h-8c-21.268,0-38.57,17.303-38.57,38.571
			v17.292c0,9.235,3.266,17.72,8.699,24.368c-9.896,9.136-16.109,22.204-16.109,36.701v77.814c0,27.552,22.421,49.967,49.98,49.967
			c0.144,0,0.285-0.002,0.434-0.005c0.145,0.003,0.289,0.005,0.436,0.005h52.758v42.429c0,21.135,17.199,38.329,38.339,38.329
			c21.141,0,38.339-17.194,38.339-38.329v-79.023c0-0.285-0.005-0.568-0.014-0.865C229.497,334.659,229.503,334.369,229.503,334.078
			z M86.626,166.265c0-4.726,3.845-8.571,8.57-8.571h8c4.726,0,8.57,3.845,8.57,8.571v17.293c0,4.726-3.845,8.57-8.57,8.57h-8
			c-4.726,0-8.57-3.845-8.57-8.571V166.265z M191.162,423.165c-4.598,0-8.339-3.736-8.339-8.329v-57.429c0-8.284-6.716-15-15-15
			h-67.587c-0.135-0.004-0.269-0.008-0.402-0.01c-0.135-0.002-0.27-0.002-0.404,0c-0.125,0.002-0.249,0.005-0.385,0.009
			c-10.948-0.081-19.829-9.007-19.829-19.966v-77.814c0-11.01,8.963-19.967,19.98-19.967s19.98,8.957,19.98,19.967v66.121
			c0,8.284,6.716,15,15,15h56.985c4.587,0,8.32,3.718,8.339,8.295l-0.012,0.347c-0.013,0.373-0.01,0.812,0.003,1.185l0.01,79.262
			C199.501,419.429,195.76,423.165,191.162,423.165z"/>
	</g>
</g>
<g>
	<g>
		<path d="M115.881,391.222H94.575C58.969,391.222,30,362.253,30,326.646v-87.567c0-8.284-6.716-15-15-15s-15,6.716-15,15v87.567
			c0,52.149,42.426,94.576,94.575,94.576h21.306c8.284,0,15-6.716,15-15S124.165,391.222,115.881,391.222z"/>
	</g>
</g>
<g>
	<g>
		<path d="M446.675,207.925c5.433-6.648,8.699-15.132,8.699-24.367v-17.293c0-21.268-17.303-38.571-38.57-38.571h-8
			c-21.268,0-38.57,17.303-38.57,38.571v17.293c0,9.235,3.266,17.72,8.699,24.367c-9.896,9.136-16.109,22.204-16.109,36.701v51.121
			h-41.985c-21.141,0-38.339,17.194-38.339,38.33c0,0.284,0.005,0.567,0.014,0.865c-0.008,0.289-0.014,0.579-0.014,0.87v79.023
			c0,21.135,17.198,38.329,38.339,38.329c21.14,0,38.339-17.194,38.339-38.329v-42.429h52.758c0.142,0.001,0.285-0.001,0.432-0.004
			c0.145,0.003,0.29,0.005,0.436,0.005c27.56,0,49.98-22.415,49.98-49.967v-77.814C462.784,230.13,456.572,217.061,446.675,207.925z
			 M400.233,166.265c0-4.726,3.845-8.571,8.57-8.571h8c4.726,0,8.57,3.845,8.57,8.571v17.293c0,4.726-3.845,8.57-8.57,8.57h-8
			c-4.726,0-8.57-3.845-8.57-8.57V166.265z M432.783,322.44c0,10.959-8.881,19.884-19.828,19.966
			c-0.128-0.004-0.257-0.007-0.386-0.009c-0.135-0.002-0.27-0.002-0.404,0c-0.129,0.002-0.259,0.005-0.401,0.01h-67.588
			c-8.283,0-14.999,6.716-14.999,15v57.429c0,4.593-3.741,8.329-8.339,8.329c-4.598,0-8.339-3.736-8.339-8.329v-78.979l0.012-0.354
			c0.015-0.373,0.012-0.814-0.002-1.188l-0.01-0.272c0.019-4.578,3.752-8.296,8.339-8.296h56.985c8.284,0,15-6.716,15-15v-66.121
			c0-11.01,8.963-19.967,19.98-19.967c11.017,0,19.98,8.957,19.98,19.967V322.44z"/>
	</g>
</g>
<g>
	<g>
		<path d="M497,224.079c-8.284,0-15,6.716-15,15v87.567c0,35.607-28.969,64.576-64.575,64.576h-21.306c-8.284,0-15,6.716-15,15
			s6.716,15,15,15h21.306c52.149,0,94.575-42.427,94.575-94.576v-87.567C512,230.794,505.284,224.079,497,224.079z"/>
	</g>
</g>
<g>
</g>
<g>
</g>
<g>
</g>
<g>
</g>
<g>
</g>
<g>
</g>
<g>
</g>
<g>
</g>
<g>
</g>
<g>
</g>
<g>
</g>
<g>
</g>
<g>
</g>
<g>
</g>
<g>
</g>
</svg>
