<?xml version="1.0" encoding="utf-8"?>
<!-- Generator: Adobe Illustrator 24.2.1, SVG Export Plug-In . SVG Version: 6.00 Build 0)  -->
<svg version="1.1" id="Layer_1" xmlns="http://www.w3.org/2000/svg" xmlns:xlink="http://www.w3.org/1999/xlink" x="0px" y="0px"
	 viewBox="0 0 196.1 186.4" style="enable-background:new 0 0 196.1 186.4;" xml:space="preserve">
<style type="text/css">
	.st0{fill:#DFE3EA;}
	.st1{opacity:0.32;}
	.st2{fill:#AEB7CE;}
	.st3{fill:#FFFFFF;}
	.st4{fill:#F9F9F9;}
	.st5{fill:#E5E5E5;}
</style>
<g>
	<path class="st0" d="M185.9,101.3c-17.9,26.1-52.1,37.5-82.9,25.5c-35.9-14-53.7-54.5-39.7-90.4C69.6,20.1,81.4,7.6,95.6,0
		C59.4,0.1,25.3,22,11.3,57.8c-18.2,46.7,4.9,99.2,51.6,117.4s99.2-4.9,117.4-51.6C183.2,116.2,185,108.7,185.9,101.3z"/>
	<path class="st0" d="M49.2,22.2c-11.6,29.9-1.3,63,23.3,81.3c-13.9-18.7-18.2-43.9-9.2-67.2C69.6,20.1,81.4,7.6,95.6,0
		C81.7,0,68.1,3.3,55.9,9.3C53.3,13.3,51,17.6,49.2,22.2z"/>
	<path class="st0" d="M158.7,124.5c-22.6,36.4-68.5,52.6-109.9,36.5c-8.8-3.4-16.7-8.1-23.8-13.7c9.6,12,22.4,21.8,37.8,27.8
		c46.7,18.2,99.2-4.9,117.4-51.6c2.9-7.4,4.7-14.9,5.6-22.3C178.9,111.4,169.4,119.4,158.7,124.5z"/>
	<g class="st1">
		<circle class="st2" cx="43.2" cy="74.7" r="10.4"/>
		<circle class="st2" cx="116.4" cy="146.8" r="7.3"/>
		<circle class="st2" cx="112" cy="165.7" r="5.2"/>
		<circle class="st2" cx="85.1" cy="157.5" r="15.5"/>
		<circle class="st2" cx="40.1" cy="121.1" r="7.2"/>
		<circle class="st2" cx="21" cy="71.5" r="4.3"/>
	</g>
</g>
<path class="st3" d="M185.9,101.3c-17.9,26.1-52.1,37.5-82.9,25.5c-35.9-14-53.7-54.5-39.7-90.4C69.6,20.1,81.4,7.6,95.6,0
	C59.4,0.1,25.3,22,11.3,57.8c-18.2,46.7,4.9,99.2,51.6,117.4s99.2-4.9,117.4-51.6C183.2,116.2,185,108.7,185.9,101.3z"/>
<path class="st4" d="M49.2,22.2c-11.6,29.9-1.3,63,23.3,81.3c-13.9-18.7-18.2-43.9-9.2-67.2C69.6,20.1,81.4,7.6,95.6,0
	C81.7,0,68.1,3.3,55.9,9.3C53.3,13.3,51,17.6,49.2,22.2z"/>
<path class="st4" d="M158.7,124.5c-22.6,36.4-68.5,52.6-109.9,36.5c-8.8-3.4-16.7-8.1-23.8-13.7c9.6,12,22.4,21.8,37.8,27.8
	c46.7,18.2,99.2-4.9,117.4-51.6c2.9-7.4,4.7-14.9,5.6-22.3C178.9,111.4,169.4,119.4,158.7,124.5z"/>
<g>
	<circle class="st5" cx="43.2" cy="74.7" r="10.4"/>
	<circle class="st5" cx="116.4" cy="146.8" r="7.3"/>
	<circle class="st5" cx="112" cy="165.7" r="5.2"/>
	<circle class="st5" cx="85.1" cy="157.5" r="15.5"/>
	<circle class="st5" cx="40.1" cy="121.1" r="7.2"/>
	<circle class="st5" cx="21" cy="71.5" r="4.3"/>
</g>
</svg>
