<?xml version="1.0" encoding="iso-8859-1"?>
<!-- Generator: Adobe Illustrator 19.0.0, SVG Export Plug-In . SVG Version: 6.00 Build 0)  -->
<svg version="1.1" id="Capa_1" xmlns="http://www.w3.org/2000/svg" xmlns:xlink="http://www.w3.org/1999/xlink" x="0px" y="0px"
	 viewBox="0 0 512 512" style="enable-background:new 0 0 512 512;" xml:space="preserve">
<g>
	<g>
		<path d="M256,16c-33.091,0-60,26.909-60,60s26.909,60,60,60s60-26.909,60-60S289.091,16,256,16z"/>
	</g>
</g>
<g>
	<g>
		<path d="M421,286c-33.091,0-60,26.909-60,60s26.909,60,60,60s60-26.909,60-60S454.091,286,421,286z"/>
	</g>
</g>
<g>
	<g>
		<path d="M489.714,403.429C473.192,423.164,448.693,436,421,436s-52.192-12.836-68.714-32.571
			C339.199,417.975,331,437.011,331,458.075V481c0,8.291,6.709,15,15,15h151c8.291,0,15-6.709,15-15v-22.925
			C512,437.011,502.801,417.975,489.714,403.429z"/>
	</g>
</g>
<g>
	<g>
		<path d="M91,286c-33.091,0-60,26.909-60,60s26.909,60,60,60s60-26.909,60-60S124.091,286,91,286z"/>
	</g>
</g>
<g>
	<g>
		<path d="M159.714,403.429C143.192,423.164,118.693,436,91,436s-52.192-12.836-68.714-32.571C9.199,417.975,0,437.011,0,458.075
			V481c0,8.291,6.709,15,15,15h151c8.291,0,15-6.709,15-15v-22.925C181,437.011,172.801,417.975,159.714,403.429z"/>
	</g>
</g>
<g>
	<g>
		<path d="M331,226c8.291,0,15-6.709,15-15v-22.925c0-21.064-8.199-40.1-21.286-54.646C308.192,153.164,283.693,166,256,166
			s-52.192-12.836-68.714-32.571C174.199,147.975,166,167.011,166,188.075V211c0,8.291,6.709,15,15,15h60v95.636l-60.529,29.601
			c-0.833,14.191-4.938,27.398-11.618,39.082l87.074-42.583l87.991,44c-7.026-11.794-11.329-25.247-12.308-39.699L271,321.728V226
			H331z"/>
	</g>
</g>
<g>
</g>
<g>
</g>
<g>
</g>
<g>
</g>
<g>
</g>
<g>
</g>
<g>
</g>
<g>
</g>
<g>
</g>
<g>
</g>
<g>
</g>
<g>
</g>
<g>
</g>
<g>
</g>
<g>
</g>
</svg>
