<svg id="Layer_1" data-name="Layer 1" xmlns="http://www.w3.org/2000/svg" viewBox="0 0 453.29 479.15"><defs><style>.cls-1{fill:#eff5f6;}.cls-2{fill:#acc6cc;}.cls-3{fill:#fff;}.cls-4{fill:#d1e2e8;}.cls-5{fill:#101616;}.cls-6{fill:#293233;}.cls-7{fill:#323738;}.cls-8{isolation:isolate;}.cls-9{fill:#252d2d;}.cls-10{fill:#f21c00;}</style></defs><title>No data Found 1 </title><path class="cls-1" d="M100.92,251s-84.6-80.9,11.25-116.26S233.79,61.3,303.43,64s54.12,78.75,66.44,93.22S431.48,205.42,410,313.64s-148.94,33.22-169.3,53-97,45-122.15-29.47S116.46,269.17,100.92,251Z" transform="translate(0 0.05)"/><path class="cls-2" d="M162.2,131.75A13.14,13.14,0,0,1,156.64,121v-1.69a2.3,2.3,0,0,0-2.3-2.3H121.15a9,9,0,0,0-9,9v46.74h.27v14.73H360.47v-50.2a5.54,5.54,0,0,0-5.53-5.54Z" transform="translate(0 0.05)"/><rect class="cls-3" x="126.63" y="148.15" width="220.2" height="64.83" rx="11.63"/><path class="cls-4" d="M340.49,360.52h-205c-12.09,0-22.1-8.9-22.89-20.35L84.32,210.67c-.87-12.56,9.63-23.2,22.89-23.2H363.52c13.55,0,24.16,11.1,22.83,23.9l-23,129.51C362.17,352,352.32,360.52,340.49,360.52Z" transform="translate(0 0.05)"/><path class="cls-2" d="M287.09,126.13h26.79a6.16,6.16,0,0,1,6.16,6.16h0a6.16,6.16,0,0,1-6.16,6.16H287.09a6.16,6.16,0,0,1-6.16-6.16h0a6.16,6.16,0,0,1,6.16-6.16Z" transform="translate(0 0.05)"/><rect class="cls-4" x="126.63" y="163.15" width="220.2" height="1.07"/><rect class="cls-4" x="126.63" y="177.35" width="220.2" height="1.07"/><path d="M241,339.09a73.4,73.4,0,1,1,73.4-73.4h0A73.49,73.49,0,0,1,241,339.09ZM241,203a62.68,62.68,0,1,0,62.68,62.68h0A62.75,62.75,0,0,0,241,203Z" transform="translate(0 0.05)"/><path class="cls-5" d="M119.14,347.66a6.69,6.69,0,0,1-3.62-12.33l61.08-39.12A6.7,6.7,0,0,1,185,306.66a6.3,6.3,0,0,1-.8.55,2.92,2.92,0,0,1-.37.24l-61.07,39.11A6.63,6.63,0,0,1,119.14,347.66Z" transform="translate(0 0.05)"/><rect class="cls-6" x="74.03" y="335.66" width="85.92" height="13.39" transform="translate(-166.13 117.17) rotate(-32.63)"/><path class="cls-7" d="M58.07,391.33a11.25,11.25,0,0,1-6-20.73l61.08-39.11a11.27,11.27,0,1,1,12.13,19L64.13,389.6A11.29,11.29,0,0,1,58.07,391.33Z" transform="translate(0 0.05)"/><path class="cls-1" d="M240.22,49.51H184.5s-8.85-21,8-17.68c1.34.27,12.66-17.59,24.92-6.69,4.9,4.28,4.9,6.46,4.9,6.46a16.92,16.92,0,0,1,5.89,3.75c2.68,2.67,6.43-1.61,10.18,4.28s2.68,9.65,2.68,9.65" transform="translate(0 0.05)"/><path class="cls-1" d="M439.52,89.7H383.8S375,68.64,391.8,72c1.34.26,12.66-17.6,24.92-6.7,4.82,4.28,4.82,6.43,4.82,6.43a16.92,16.92,0,0,1,5.89,3.75c2.68,2.68,6.43-1.61,10.18,4.28s2.68,9.65,2.68,9.65" transform="translate(0 0.05)"/><path class="cls-1" d="M452.37,401.51H396.66s-8.85-21.06,8-17.68c1.34.26,12.66-17.6,24.92-6.7,4.82,4.28,4.82,6.43,4.82,6.43a16.92,16.92,0,0,1,5.89,3.75c2.68,2.68,6.43-1.61,10.18,4.28s2.68,9.65,2.68,9.65" transform="translate(0 0.05)"/><path class="cls-1" d="M58,221.49H2.32s-8.85-21.06,8-17.68c1.34.27,12.65-17.59,24.91-6.7C40,201.4,40,203.54,40,203.54a16.92,16.92,0,0,1,5.89,3.75c2.68,2.68,6.43-1.6,10.18,4.29s2.68,9.64,2.68,9.64" transform="translate(0 0.05)"/><path class="cls-1" d="M309.32,18.17a1.61,1.61,0,0,1-1.61-1.61v-15a1.61,1.61,0,0,1,3.22,0v15a1.61,1.61,0,0,1-1.61,1.61Z" transform="translate(0 0.05)"/><path class="cls-1" d="M316.83,10.67h-15a1.61,1.61,0,0,1-.25-3.21h15.25a1.61,1.61,0,0,1,.29,3.21h-.29Z" transform="translate(0 0.05)"/><path class="cls-1" d="M400.41,142.47a1.61,1.61,0,0,1-1.61-1.61V123.72a1.61,1.61,0,0,1,3.21-.29v0a1,1,0,0,1,0,.25v17.14A1.61,1.61,0,0,1,400.41,142.47Z" transform="translate(0 0.05)"/><path class="cls-1" d="M409,133.89H391.83a1.61,1.61,0,0,1,0-3.21H409a1.61,1.61,0,0,1,.25,3.21Z" transform="translate(0 0.05)"/><path class="cls-1" d="M98.78,70.68a1.61,1.61,0,0,1-1.61-1.61h0V46.6a1.61,1.61,0,0,1,3.21-.25,1,1,0,0,1,0,.25V69.1A1.62,1.62,0,0,1,98.78,70.68Z" transform="translate(0 0.05)"/><path class="cls-1" d="M110,59.42H87.52a1.61,1.61,0,0,1,0-3.21H110a1.61,1.61,0,0,1,0,3.21Z" transform="translate(0 0.05)"/><path class="cls-3" d="M201.5,248.89a38.84,38.84,0,0,1,6.05-7.18,56.62,56.62,0,0,1,7.37-5.91,61.21,61.21,0,0,1,17.16-8,62.73,62.73,0,0,1,9.29-2c.78-.13,1.57-.21,2.36-.28s1.57-.16,2.36-.21c1.57-.06,3.15-.19,4.73-.14a69.3,69.3,0,0,1,18.56,2.59,135.68,135.68,0,0,0-18.48-.06l-1.14.07-1.14.12-2.27.24c-.75.09-1.51.22-2.26.32s-1.5.21-2.25.36l-2.24.4-2.22.5c-.74.15-1.47.35-2.21.54s-1.47.37-2.19.6a78.1,78.1,0,0,0-24.42,12A61.5,61.5,0,0,0,201.5,248.89Z" transform="translate(0 0.05)"/><g class="cls-8"><path class="cls-9" d="M58.56,441h6.9l17.05,27.5h.1V441h6.22v37.33h-6.9l-17-27.45h-.16v27.45H58.56Z" transform="translate(0 0.05)"/><path class="cls-9" d="M108.13,479.1a14.64,14.64,0,0,1-5.78-1.08,12.22,12.22,0,0,1-4.29-2.95,12.5,12.5,0,0,1-2.66-4.5,18.27,18.27,0,0,1,0-11.45,12.54,12.54,0,0,1,2.66-4.49,12.24,12.24,0,0,1,4.29-3,16.15,16.15,0,0,1,11.56,0,12.11,12.11,0,0,1,4.28,3,12.56,12.56,0,0,1,2.67,4.49,18.27,18.27,0,0,1,0,11.45,12.52,12.52,0,0,1-2.67,4.5,12.09,12.09,0,0,1-4.28,2.95A14.64,14.64,0,0,1,108.13,479.1Zm0-4.71a6.84,6.84,0,0,0,3.45-.84,7.24,7.24,0,0,0,2.41-2.19,9.9,9.9,0,0,0,1.38-3.06,13.57,13.57,0,0,0,0-6.93,9.49,9.49,0,0,0-1.38-3.06,7.4,7.4,0,0,0-2.41-2.17,7.5,7.5,0,0,0-6.9,0,7.4,7.4,0,0,0-2.41,2.17,9.28,9.28,0,0,0-1.38,3.06,13.57,13.57,0,0,0,0,6.93,9.67,9.67,0,0,0,1.38,3.06,7.24,7.24,0,0,0,2.41,2.19A6.78,6.78,0,0,0,108.13,474.39Z" transform="translate(0 0.05)"/><path class="cls-9" d="M142.12,441h15.47a17.52,17.52,0,0,1,7.43,1.46,13.8,13.8,0,0,1,5.12,4,17.08,17.08,0,0,1,3,5.94,27.69,27.69,0,0,1,0,14.53,17.08,17.08,0,0,1-3,5.94,13.8,13.8,0,0,1-5.12,4,17.37,17.37,0,0,1-7.43,1.46H142.12Zm6.53,32h6.43a16.29,16.29,0,0,0,6.25-1,9.15,9.15,0,0,0,3.82-2.82A10.29,10.29,0,0,0,167,465a27.87,27.87,0,0,0,0-10.51,10.19,10.19,0,0,0-1.88-4.23,9.09,9.09,0,0,0-3.82-2.83,16.29,16.29,0,0,0-6.25-1h-6.43Z" transform="translate(0 0.05)"/><path class="cls-9" d="M201.67,472.35a3.18,3.18,0,0,0,.29,1.57,1.23,1.23,0,0,0,1.13.47h.62a3.82,3.82,0,0,0,.84-.1v4.13c-.21.07-.48.14-.81.23s-.67.17-1,.24a9.48,9.48,0,0,1-1.05.15,7.78,7.78,0,0,1-.88.06,5.73,5.73,0,0,1-3-.74,3.65,3.65,0,0,1-1.57-2.56,10.49,10.49,0,0,1-4.36,2.51,17,17,0,0,1-5,.79,12.29,12.29,0,0,1-3.5-.5,9.15,9.15,0,0,1-2.95-1.46,7,7,0,0,1-2-2.46,7.53,7.53,0,0,1-.76-3.48,8.06,8.06,0,0,1,.91-4.08,6.93,6.93,0,0,1,2.41-2.46,10.85,10.85,0,0,1,3.35-1.28c1.23-.26,2.48-.46,3.73-.6a28.33,28.33,0,0,1,3.09-.44,14.6,14.6,0,0,0,2.59-.45,4,4,0,0,0,1.78-1,2.7,2.7,0,0,0,.65-2,3,3,0,0,0-.55-1.88,3.68,3.68,0,0,0-1.36-1.12,5.71,5.71,0,0,0-1.8-.52,14.16,14.16,0,0,0-1.89-.14,7.47,7.47,0,0,0-4.13,1.05,4.09,4.09,0,0,0-1.83,3.24h-6a9,9,0,0,1,1.26-4.34,8.68,8.68,0,0,1,2.79-2.77,11.49,11.49,0,0,1,3.85-1.46,22.77,22.77,0,0,1,4.39-.42,18.45,18.45,0,0,1,3.92.42,11.14,11.14,0,0,1,3.48,1.36,7.3,7.3,0,0,1,2.48,2.43,6.62,6.62,0,0,1,.94,3.63Zm-6-7.53a7.21,7.21,0,0,1-3.34,1.07c-1.33.13-2.65.31-4,.55a14,14,0,0,0-1.83.45,5.62,5.62,0,0,0-1.57.78,3.46,3.46,0,0,0-1.07,1.31,4.48,4.48,0,0,0-.39,2,2.51,2.51,0,0,0,.57,1.67,4.15,4.15,0,0,0,1.39,1.07,6,6,0,0,0,1.78.55,10.42,10.42,0,0,0,1.75.16,9.9,9.9,0,0,0,2.14-.26,7,7,0,0,0,2.17-.89,5.65,5.65,0,0,0,1.7-1.6,4,4,0,0,0,.68-2.37Z" transform="translate(0 0.05)"/><path class="cls-9" d="M205.39,451.33h4.49v-8.1h6v8.1h5.39v4.45h-5.39v14.43a14.82,14.82,0,0,0,.08,1.62,2.94,2.94,0,0,0,.37,1.15,1.72,1.72,0,0,0,.86.7,4.21,4.21,0,0,0,1.57.24q.63,0,1.26,0a5.47,5.47,0,0,0,1.25-.18v4.6l-1.93.21a17.59,17.59,0,0,1-1.94.11,13,13,0,0,1-3.79-.45,5,5,0,0,1-2.25-1.31,4.44,4.44,0,0,1-1.1-2.17,16.88,16.88,0,0,1-.34-3V455.78h-4.49Z" transform="translate(0 0.05)"/><path class="cls-9" d="M248.16,472.35a3.07,3.07,0,0,0,.29,1.57,1.21,1.21,0,0,0,1.12.47h.63a4,4,0,0,0,.84-.1v4.13c-.21.07-.48.14-.82.23s-.67.17-1,.24a9.48,9.48,0,0,1-1.05.15,8.09,8.09,0,0,1-.89.06,5.71,5.71,0,0,1-3-.74,3.62,3.62,0,0,1-1.57-2.56,10.53,10.53,0,0,1-4.37,2.51,16.94,16.94,0,0,1-5,.79,12.24,12.24,0,0,1-3.5-.5,9.31,9.31,0,0,1-3-1.46,7.2,7.2,0,0,1-2-2.46,7.66,7.66,0,0,1-.76-3.48,8.05,8.05,0,0,1,.92-4.08,6.9,6.9,0,0,1,2.4-2.46,11,11,0,0,1,3.35-1.28c1.24-.26,2.49-.46,3.74-.6a28.51,28.51,0,0,1,3.08-.44,14.6,14.6,0,0,0,2.59-.45,4,4,0,0,0,1.78-1,2.66,2.66,0,0,0,.65-2,3.1,3.1,0,0,0-.54-1.88,3.68,3.68,0,0,0-1.36-1.12,5.77,5.77,0,0,0-1.81-.52,14,14,0,0,0-1.88-.14,7.47,7.47,0,0,0-4.13,1.05,4.09,4.09,0,0,0-1.83,3.24h-6a9,9,0,0,1,1.25-4.34,8.71,8.71,0,0,1,2.8-2.77,11.36,11.36,0,0,1,3.84-1.46,22.87,22.87,0,0,1,4.4-.42,18.45,18.45,0,0,1,3.92.42,11,11,0,0,1,3.47,1.36,7.42,7.42,0,0,1,2.49,2.43,6.62,6.62,0,0,1,.94,3.63Zm-6-7.53a7.25,7.25,0,0,1-3.35,1.07c-1.32.13-2.65.31-4,.55a13.59,13.59,0,0,0-1.83.45,5.49,5.49,0,0,0-1.57.78,3.46,3.46,0,0,0-1.07,1.31,4.47,4.47,0,0,0-.4,2,2.51,2.51,0,0,0,.58,1.67,4,4,0,0,0,1.39,1.07,6,6,0,0,0,1.77.55,10.54,10.54,0,0,0,1.76.16,10,10,0,0,0,2.14-.26,7,7,0,0,0,2.17-.89,5.65,5.65,0,0,0,1.7-1.6,4,4,0,0,0,.68-2.37Z" transform="translate(0 0.05)"/><path class="cls-9" d="M270,441h25.78v5.65H276.5v9.78h16.89v5.33H276.5v16.57H270Z" transform="translate(0 0.05)"/><path class="cls-9" d="M312.53,479.1a14.64,14.64,0,0,1-5.78-1.08,12.22,12.22,0,0,1-4.29-2.95,12.52,12.52,0,0,1-2.67-4.5,18.46,18.46,0,0,1,0-11.45,12.56,12.56,0,0,1,2.67-4.49,12.24,12.24,0,0,1,4.29-3,16.15,16.15,0,0,1,11.56,0,12.2,12.2,0,0,1,4.28,3,12.56,12.56,0,0,1,2.67,4.49,18.46,18.46,0,0,1,0,11.45,12.52,12.52,0,0,1-2.67,4.5,12.18,12.18,0,0,1-4.28,2.95A14.67,14.67,0,0,1,312.53,479.1Zm0-4.71a6.84,6.84,0,0,0,3.45-.84,7.21,7.21,0,0,0,2.4-2.19,9.69,9.69,0,0,0,1.39-3.06,13.86,13.86,0,0,0,0-6.93,9.3,9.3,0,0,0-1.39-3.06,7.37,7.37,0,0,0-2.4-2.17,7.5,7.5,0,0,0-6.9,0,7.4,7.4,0,0,0-2.41,2.17,9.08,9.08,0,0,0-1.38,3.06,13.57,13.57,0,0,0,0,6.93,9.45,9.45,0,0,0,1.38,3.06,7.24,7.24,0,0,0,2.41,2.19A6.78,6.78,0,0,0,312.53,474.39Z" transform="translate(0 0.05)"/><path class="cls-9" d="M354.88,478.36H349V474.6h-.11a8.16,8.16,0,0,1-3.27,3.27,8.85,8.85,0,0,1-4.42,1.23q-5.33,0-7.71-2.64t-2.38-8V451.33h6v16.58c0,2.37.46,4,1.36,5a5,5,0,0,0,3.82,1.46,7.6,7.6,0,0,0,3.14-.57,5.7,5.7,0,0,0,2-1.55,6,6,0,0,0,1.12-2.32,12,12,0,0,0,.34-2.93V451.33h6Z" transform="translate(0 0.05)"/><path class="cls-9" d="M361.16,451.33h5.64v4l.11.11a9.92,9.92,0,0,1,3.55-3.53,9.55,9.55,0,0,1,4.87-1.28,10.11,10.11,0,0,1,7,2.3q2.57,2.3,2.57,6.9v18.56h-6v-17a7.39,7.39,0,0,0-1.35-4.63,5,5,0,0,0-3.93-1.44,6.61,6.61,0,0,0-2.72.55,6.06,6.06,0,0,0-2,1.52,7.24,7.24,0,0,0-1.3,2.27,8,8,0,0,0-.47,2.78v15.94h-6Z" transform="translate(0 0.05)"/><path class="cls-9" d="M416.63,478.36H411V474.7h-.11a7.09,7.09,0,0,1-3.5,3.38,11.9,11.9,0,0,1-4.86,1A12.88,12.88,0,0,1,397,478a11.12,11.12,0,0,1-3.95-3.06,13,13,0,0,1-2.35-4.57,19.59,19.59,0,0,1-.79-5.68,17.91,17.91,0,0,1,1-6.32A12.48,12.48,0,0,1,393.5,454a10.15,10.15,0,0,1,3.76-2.54,12,12,0,0,1,4.32-.81,15.13,15.13,0,0,1,2.56.23,11.54,11.54,0,0,1,2.51.76,10,10,0,0,1,2.22,1.33,7.53,7.53,0,0,1,1.7,1.91h.1V441h6Zm-20.81-13.23a13,13,0,0,0,.45,3.4,9.13,9.13,0,0,0,1.36,3,6.55,6.55,0,0,0,5.67,2.88,6.71,6.71,0,0,0,3.43-.84,7.14,7.14,0,0,0,2.35-2.19,10.1,10.1,0,0,0,1.36-3.06,14,14,0,0,0,.44-3.48,11,11,0,0,0-2-7,7.33,7.33,0,0,0-9-1.64,7.15,7.15,0,0,0-2.36,2.25,9.29,9.29,0,0,0-1.3,3.13A15.91,15.91,0,0,0,395.82,465.13Z" transform="translate(0 0.05)"/></g><path class="cls-10" d="M240.82,328.6a62.5,62.5,0,1,1,62.5-62.5h0A62.5,62.5,0,0,1,240.82,328.6Zm0-124a61.5,61.5,0,1,0,61.5,61.5h0a61.49,61.49,0,0,0-61.48-61.5Z" transform="translate(0 0.05)"/></svg>