<svg xmlns="http://www.w3.org/2000/svg" viewBox="0 0 312.2 491.09"><defs><style>.cls-1{font-size:37.04px;font-family:Raleway-Bold, Raleway;font-weight:700;}.cls-1,.cls-16{fill:#231f20;}.cls-2{fill:#9b9e9f;}.cls-3{font-size:43.3px;}.cls-3,.cls-5{fill:#ddd;font-family:MyriadPro-Regular, Myriad Pro;}.cls-4{fill:#7d7f7f;}.cls-5{font-size:36.87px;}.cls-6{fill:none;stroke:#9b9e9f;stroke-linecap:round;stroke-miterlimit:10;stroke-width:3px;}.cls-7{fill:#f3b41b;}.cls-8{fill:#ffc907;}.cls-9{fill:#1e2d37;}.cls-10{fill:#d4d8d5;}.cls-11{fill:#814c24;}.cls-12{fill:#1f3039;}.cls-13{fill:#3e5662;}.cls-14{fill:#2b424c;}.cls-15{fill:#f9bf79;}.cls-16{opacity:0.69;}.cls-17{fill:#c2c1c0;}.cls-18{fill:#8c4e21;}.cls-19{fill:#eebc83;}</style></defs><title>Asset 6</title><g id="Layer_2" data-name="Layer 2"><g id="Layer_3" data-name="Layer 3"><text class="cls-1" transform="translate(49.27 482.6)">No Data Found</text><polygon class="cls-2" points="188.8 44.55 194.73 0 234.63 5.73 246.93 20.3 240.68 67.51 187.68 56.27 188.8 44.55"/><text class="cls-3" transform="translate(206.8 48.06) rotate(11.97)">?</text><polygon class="cls-4" points="234.63 5.73 233.99 17.3 246.93 20.3 234.63 5.73"/><polygon class="cls-2" points="74.77 232.09 38.88 245.37 27.3 213.06 33.37 198.01 71.39 183.9 84.04 228.26 74.77 232.09"/><text class="cls-5" transform="translate(70.24 217.14) rotate(-105.92)">?</text><polygon class="cls-4" points="27.3 213.68 36.27 209.56 33.37 198.62 27.3 213.68"/><polygon class="cls-2" points="134.53 59.81 136.58 57.55 138.7 59.21 140.42 58.47 141.8 59.01 143.01 58.48 144.75 56.51 145.53 58.32 148.85 56.88 151.15 58.24 154.64 56.74 155.81 59.45 160.46 57.44 157.44 35.3 126.67 39.5 129.12 57.43 134.53 59.81"/><polygon class="cls-2" points="156.26 61.27 155.09 58.55 151.74 60 149.44 58.64 145.97 60.13 145.27 58.49 143.78 60.16 142.41 60.75 141.03 60.22 139.26 60.98 137.22 59.38 135.21 61.59 135.11 61.55 129.78 59.2 132.58 79.7 163.34 75.5 161.11 59.17 156.26 61.27"/><line class="cls-6" x1="268.17" y1="184.6" x2="288.19" y2="204.62"/><line class="cls-6" x1="288.19" y1="184.6" x2="268.17" y2="204.62"/><line class="cls-6" x1="116.97" y1="113.3" x2="129.42" y2="125.76"/><line class="cls-6" x1="129.42" y1="113.3" x2="116.97" y2="125.76"/><polygon class="cls-7" points="91.35 135.28 79.02 81.09 39.13 97.8 35.81 92.97 16.19 101.18 17.67 108.77 43.73 122.44 91.35 135.28"/><polygon class="cls-8" points="91.35 135.28 29.13 161.34 0 116.17 62.53 89.99 91.35 135.28"/><circle class="cls-9" cx="52.83" cy="125.71" r="2.84"/><circle class="cls-9" cx="32.55" cy="134.2" r="2.84"/><path class="cls-9" d="M40.79,135A3.92,3.92,0,0,1,48,132l.48-.2a4.44,4.44,0,0,0-8.17,3.42Z"/><polygon class="cls-7" points="292.81 124.29 304.11 103.31 286.51 97.46 286.8 94.96 278.15 92.08 276.49 94.95 281.05 106.71 292.81 124.29"/><polygon class="cls-8" points="292.81 124.29 265.37 115.16 268.69 92.36 296.27 101.53 292.81 124.29"/><circle class="cls-9" cx="283.07" cy="110.33" r="1.22"/><circle class="cls-9" cx="274.12" cy="107.36" r="1.22"/><path class="cls-9" d="M276.56,109.94a1.68,1.68,0,0,1,3.18,1.06l.21.07a1.9,1.9,0,0,0-3.6-1.2Z"/><path class="cls-10" d="M180.57,173.42c.34,0,.69,0,1.05,0A73.63,73.63,0,0,1,193.06,175c19.85,4,19.2,6.13,19.2,6.13l-8.79,24.23L193.38,233,188,244.23l-16-13.68V176a2,2,0,0,1,.86-1Z"/><path class="cls-11" d="M166.47,418.28S145.27,426,145,430.43s11.12,6.46,13.19,6.21,20.94-8,21.2-11.12-.52-11.64-6.72-11.64S166.47,418.28,166.47,418.28Z"/><path class="cls-11" d="M213.69,417s21.2,7.76,21.46,12.16S224,435.6,222,435.34s-20.94-8-21.2-11.12.52-11.63,6.73-11.63S213.69,417,213.69,417Z"/><path class="cls-12" d="M163.49,281.19l.84,138.19s9.89,4.57,15,1.52l7.86-126.78s2.54-2.28,4.31.25,8.12,126,8.12,126,11.92,3,17-.76l-2.15-134.37-29.61-25.64Z"/><polygon class="cls-13" points="216.58 178.58 206.29 175.99 190.14 237.99 195.81 239.05 210.33 210.5 220.71 190.41 216.58 178.58"/><polygon class="cls-13" points="163 177.56 173.29 174.96 189.44 236.96 183.76 238.02 169.25 209.47 158.87 189.38 163 177.56"/><path class="cls-14" d="M187.83,236.3l-22.22-35.65,4.82-7.75-7.92-1.2,1.55-15-19.81-23.42s-2.76-1.72,2.07-6.55S162.68,130,162.68,130a19.25,19.25,0,0,0-12.23-10.51l-25.66,26.35s-5.51,6.37,4,19,29.11,42.71,29.11,42.71l3.44,73.37,24.8,3.1,2.76-22.56"/><path class="cls-15" d="M155.05,116.84s11.69-9.23,15-9.33,16.11-1.08,20.53,2.36-9.14,1.08-9.14,1.08,7.11,4.71,7.39,5.11.08,3.24-10.24-1.57c-5-2.56,4,5.1,4,5.89s-.49,3.24-8.94-2.85c-1.77-1.08-6.19,2.71-7.76,4S159.76,122.15,155.05,116.84Z"/><path class="cls-14" d="M192.16,238l22.26-36.25-2.82-7.5,6.48-2.25-1.41-14.09L231,186.1a15.34,15.34,0,0,1,3.38,7.89c.57,4.79,11.27,86.49,11.27,86.49H234.14s-9-55.5-9.86-72.12l-6.48,76.91L195,284l-7.61-26.07L183.15,234Z"/><path class="cls-15" d="M235.31,284s2.3,5.61,0,8.68-2.68,8.81,3.45,3.07,0,8.43,0,8.43,3.51,5.89,6.93-10.09c0,0,1.89,7.79-1.94,14.3s9.58,3.07,8.05-10S245.69,284,245.69,284Z"/><polygon class="cls-16" points="181.41 174.28 189.44 181.8 180.75 188.83 172.91 174.96 181.41 174.28"/><polygon class="cls-16" points="202.11 174.28 191.13 181.8 201.17 189.28 206.29 175.99 202.11 174.28"/><polygon class="cls-17" points="181.41 173.25 189.44 180.77 180.75 187.8 172.91 174.96 181.41 173.25"/><polygon class="cls-17" points="202.11 173.25 191.13 180.77 201.17 188.25 206.29 175.99 202.11 173.25"/><path class="cls-18" d="M165.65,149s-4.15-19.4,0-24.87,11-13.86,11.65-15.32.66-6.15-.91-6.28c0,0,2.72-.65,5,2.62,0,0,2.18,1.44,2.18-.13s-2.18-2.54-2.18-2.54,3.77-.27,5.19,2.93c0,0,2.33,1.83,4.89-5.89,0,0,4.53,10,11.86,10.86s16.84,12.42,14.28,31.16l-5.77,10.26-4.68-10.26Z"/><path class="cls-19" d="M190.54,181.09s9.46-6.4,11.57-7.84,9.15-16.31,9.78-17.12,1.26,3.33,6-3.78.45-11.72-.63-8.92a11.51,11.51,0,0,1-5.77,6.75c4.27-23.72-5.4-25.13-8.2-25s-10.09,6.3-17,2.88-8.11-2.7-15.41,2.52-2.88,20.18-2.88,20.18-2.07-7.83-3.69-5.06c-2.08,10.64,4.39,9.71,6.24,11.8s10.93,15.79,10.93,15.79S186,179.37,190.54,181.09Z"/></g></g></svg>