 <svg xmlns="http://www.w3.org/2000/svg" viewBox="0 0 383.16 319.27"><g id="Layer_2" data-name="Layer 2"><g id="Character"><path d="M380.13,159c-20.3-44.69-40.34-89.52-60.57-134.23C312.14,8.35,299.29,0,281.24,0Q191.45,0,101.66,0c-17.88,0-30.61,8.36-38,24.54-7.38,16-14.5,32.17-21.75,48.27Q20.94,119.2,0,165.56v116a.88.88,0,0,1,.12.17c.68,1.15-.13,2.56.51,3.71.14,1,.2,2,.43,2.94,4,17.2,19.82,30.95,41,30.91,99.64-.27,199.28-.12,298.92-.15a51,51,0,0,0,8.57-.48c19.85-3.47,33.47-19.58,33.52-39.85.1-35.17,0-70.33.09-105.5A33,33,0,0,0,380.13,159ZM35.06,126.9q21.4-47.58,42.77-95.19C82.63,21,90.72,15.86,102.49,15.88q89,.12,178,0c11.93,0,20,5.2,24.87,16.08Q333.18,94,361.21,156c.45,1,.83,2,1.25,3.09-1.11.85-2.24.45-3.28.45-14.59,0-29.18,0-43.76,0-11.45,0-19.71,5.69-23.79,16.4-5.17,13.58-10.24,27.2-15.38,40.79-2,5.23-3.91,6.58-9.49,6.59q-75.16,0-150.34,0c-5.73,0-7.64-1.34-9.7-6.84q-7.43-19.7-14.78-39.44c-4.5-12-12.43-17.5-25.3-17.5H20.31C25.37,148.36,30.23,137.64,35.06,126.9ZM367.17,278.18c0,14.93-10.32,25.05-25.25,25.05q-75.37.06-150.75,0H42.28c-16.43,0-26.37-9.85-26.38-26.21,0-32.54.06-65.08-.1-97.62,0-3.52,1.07-4,4.2-4,15.46.14,30.92.06,46.39.06,6.36,0,8.41,1.42,10.62,7.29q7.47,19.88,14.93,39.77c4.2,11.15,12.4,16.9,24.24,16.9q75.38.06,150.75,0c11.84,0,20-5.75,24.24-16.9q7.5-19.87,14.93-39.79c2.15-5.73,4.25-7.25,10.25-7.27,15.84,0,31.67.06,47.51,0,2.51,0,3.41.51,3.4,3.25C367.17,211.85,367.26,245,367.17,278.18Z"/></g></g></svg>