<svg id="Layer_1" data-name="Layer 1" xmlns="http://www.w3.org/2000/svg" viewBox="0 0 328.13 328.13"><defs><style>.cls-1{fill:#f15959;}</style></defs><title>error</title><path class="cls-1" d="M270.65,239.24c-90.47,0-164.07,73.6-164.07,164.07s73.6,164.06,164.07,164.06S434.7,493.77,434.7,403.31,361.1,239.24,270.65,239.24ZM409.5,403.31a138,138,0,0,1-28.86,84.42L178.32,299.87a138.13,138.13,0,0,1,92.33-35.43C347.22,264.44,409.5,326.74,409.5,403.31Zm-277.72,0a138,138,0,0,1,29.33-85l202.42,188a138.1,138.1,0,0,1-92.88,35.94C194.08,542.17,131.78,479.88,131.78,403.31Z" transform="translate(-106.58 -239.24)"/></svg>