<?xml version="1.0" encoding="utf-8"?>
<!-- Generator: Adobe Illustrator 24.0.1, SVG Export Plug-In . SVG Version: 6.00 Build 0)  -->
<svg version="1.1" id="Layer_1" xmlns="http://www.w3.org/2000/svg" xmlns:xlink="http://www.w3.org/1999/xlink" x="0px" y="0px"
	 viewBox="0 0 16 16" style="enable-background:new 0 0 16 16;" xml:space="preserve">
<style type="text/css">
	.st0{fill:#FFFFFF;}
</style>
<g>
	<path class="st0" d="M15,3h-1v9c0,1.1-0.9,2-2,2H3v1c0,0.6,0.4,1,1,1h11c0.6,0,1-0.4,1-1V4C16,3.4,15.6,3,15,3z"/>
	<path class="st0" d="M13,12V1c0-0.6-0.4-1-1-1H4C3.7,0,3.5,0.1,3.3,0.3l-3,3C0.1,3.5,0,3.7,0,4v8c0,0.6,0.4,1,1,1h11
		C12.6,13,13,12.6,13,12z M4,3c0,0.6-0.4,1-1,1H1l3-3V3z"/>
</g>
</svg>
