<?xml version="1.0" encoding="utf-8"?>
<!-- Generator: Adobe Illustrator 24.0.1, SVG Export Plug-In . SVG Version: 6.00 Build 0)  -->
<svg version="1.1" id="Layer_1" xmlns="http://www.w3.org/2000/svg" xmlns:xlink="http://www.w3.org/1999/xlink" x="0px" y="0px"
	 viewBox="0 0 180.3 177.2" style="enable-background:new 0 0 180.3 177.2;" xml:space="preserve">
<style type="text/css">
	.st0{fill:#2D556B;}
	.st1{fill:#FFFFFF;}
	.st2{fill:#3A3A3A;}
	.st3{fill:url(#SVGID_1_);}
	.st4{fill:#BCC4C4;}
	.st5{fill:url(#SVGID_2_);}
</style>
<circle class="st0" cx="90.2" cy="88.6" r="71.6"/>
<title>Asset 11</title>
<g>
	
		<rect x="107.4" y="54.8" transform="matrix(0.2423 -0.9702 0.9702 0.2423 24.721 150.4937)" class="st1" width="2.6" height="9.3"/>
	<path class="st2" d="M95.9,118.7c1.3,0.3,2.8,0,3.9,1.1c-0.2,1.9-0.7,3.6-3.2,3.2C94.5,121.8,95.5,120.2,95.9,118.7z"/>
	<path class="st1" d="M116.6,79.4c-2.5,8.1-5.1,16.2-7.5,24.3c-1.8,6.3-5,12.1-9.5,16.9c-1.4,0.2-2.9,0.4-3.9-1.1
		c-1-6.7-0.5-13.4,1.6-19.9c2.7-8,5.1-16.2,7.6-24.3C109.1,75.7,113.1,77.1,116.6,79.4z"/>
	<linearGradient id="SVGID_1_" gradientUnits="userSpaceOnUse" x1="97.3283" y1="100.3559" x2="130.4096" y2="77.1177">
		<stop  offset="1.362339e-02" style="stop-color:#FFFFFF"/>
		<stop  offset="0.5719" style="stop-color:#BEC6C6"/>
	</linearGradient>
	<path class="st3" d="M117.4,77.3c-2.6,8.5-5.4,17-7.9,25.6c-1.9,6.6-5.3,12.8-10,17.8c-1.5,0.2-3.1,0.4-4.1-1.2
		c-1.1-7-0.5-14.2,1.7-21c2.8-8.5,5.4-17.1,8-25.6C109.5,73.3,113.7,74.8,117.4,77.3z"/>
	<path class="st4" d="M73.9,114.1c-2.2,1.3-4.1,2.5-6.1,3.5c-5.7,2.7-10.5,0.8-11.4-5.4c-1.7-10,0.9-20.2,7.1-28.2
		c2.7-3.5,6.6-5.7,11.3-3.9c4.6,1.8,6,6.2,6.9,10.6c0.3,1.5-0.1,2.7-1.6,3.1c-1.8,0.5-2.2-1.1-2.5-2.3c-1-3.3-1.3-7.6-5.6-7.7
		c-4.7-0.1-6.9,4-8.5,7.8c-2.4,5.6-3.6,11.6-3.4,17.7c0.3,5.1,2.6,6.3,7.1,3.8c1.9-1,3.6-2.2,5.5-3.2c1.6-0.9,3.5-1.5,5.1-0.3
		c1.6,1.2,0.8,3,0.4,4.6c-0.3,1.1-0.5,2.2-0.9,4.1c6.3-3.2,10.5,1.6,15.3,3.9c1.3,0.6,3.2,2.1,2,3.9c-1.4,2-2.7-0.6-4.1-0.8
		c-4-0.7-7.1-4.8-11.9-2.4c-2.4,1.2-4.4-0.7-4.7-3.4C73.8,117.6,73.8,115.8,73.9,114.1z"/>
	<linearGradient id="SVGID_2_" gradientUnits="userSpaceOnUse" x1="105.6033" y1="70.661" x2="132.2767" y2="51.9241">
		<stop  offset="1.362339e-02" style="stop-color:#FFFFFF"/>
		<stop  offset="0.8212" style="stop-color:#606060"/>
	</linearGradient>
	<path class="st5" d="M117.7,50.9l3.7,1.3c2.4,0.8,3.7,3.4,2.8,5.8c0,0,0,0,0,0l-6,17.3l0,0l-12.3-4.3l0,0l6-17.4
		C112.7,51.3,115.3,50.1,117.7,50.9C117.7,50.9,117.7,50.9,117.7,50.9z"/>
	<rect x="109.2" y="68.8" transform="matrix(0.3259 -0.9454 0.9454 0.3259 3.8623 156.0554)" class="st1" width="4.4" height="13"/>
	<rect x="88.2" y="61" transform="matrix(0.3259 -0.9454 0.9454 0.3259 8.553 137.7924)" class="st1" width="25.4" height="3.8"/>
</g>
</svg>
