<?xml version="1.0" encoding="utf-8"?>
<!-- Generator: Adobe Illustrator 24.0.1, SVG Export Plug-In . SVG Version: 6.00 Build 0)  -->
<svg version="1.1" id="Layer_1" xmlns="http://www.w3.org/2000/svg" xmlns:xlink="http://www.w3.org/1999/xlink" x="0px" y="0px"
	 viewBox="0 0 180.3 177.2" style="enable-background:new 0 0 180.3 177.2;" xml:space="preserve">
<style type="text/css">
	.st0{fill:none;stroke:#2D556B;stroke-width:6;stroke-miterlimit:10;}
	.st1{fill:none;stroke:#FFFFFF;stroke-width:2;stroke-miterlimit:10;}
	.st2{fill:none;stroke:#3A3A3A;stroke-width:2;stroke-miterlimit:10;}
	.st3{fill:none;stroke:url(#SVGID_1_);stroke-width:2;stroke-miterlimit:10;}
	.st4{fill:none;stroke:#BCC4C4;stroke-width:2;stroke-miterlimit:10;}
	.st5{fill:none;stroke:url(#SVGID_2_);stroke-width:2;stroke-miterlimit:10;}
</style>
<title>Asset 11</title>
<g>
	<circle class="st0" cx="90.2" cy="80.2" r="71.6"/>
	<g>
		
			<rect x="107.4" y="46.4" transform="matrix(0.2423 -0.9702 0.9702 0.2423 32.8911 144.1129)" class="st1" width="2.6" height="9.3"/>
		<path class="st2" d="M95.9,111.2c1.3,0.3,2.8,0,3.9,1.1c-0.2,1.9-0.7,3.6-3.2,3.2C94.5,114.3,95.5,112.7,95.9,111.2z"/>
		<linearGradient id="SVGID_1_" gradientUnits="userSpaceOnUse" x1="85.9406" y1="99.2803" x2="123.2795" y2="73.0513">
			<stop  offset="1.362339e-02" style="stop-color:#FFFFFF"/>
			<stop  offset="0.5719" style="stop-color:#BEC6C6"/>
		</linearGradient>
		<path class="st3" d="M118,67.7c-2.7,8.7-5.5,17.5-8.1,26.3c-1.9,6.8-5.5,13.1-10.3,18.3c-1.6,0.2-3.2,0.5-4.2-1.2
			c-1.1-7.2-0.5-14.6,1.7-21.6c2.9-8.7,5.5-17.5,8.2-26.3C109.9,63.6,114.3,65.2,118,67.7z"/>
		<path class="st4" d="M73.9,105.7c-2.2,1.3-4.1,2.5-6.1,3.5c-5.7,2.7-10.5,0.8-11.4-5.4c-1.7-10,0.9-20.2,7.1-28.2
			c2.7-3.5,6.6-5.7,11.3-4c4.6,1.8,6,6.2,6.9,10.6c0.3,1.4-0.1,2.7-1.6,3.1c-1.8,0.5-2.2-1.1-2.5-2.3c-1-3.3-1.3-7.6-5.6-7.7
			c-4.7-0.1-6.9,4-8.5,7.8c-2.4,5.6-3.6,11.6-3.4,17.7c0.3,5.1,2.6,6.3,7.1,3.8c1.9-1,3.6-2.2,5.5-3.2c1.6-0.9,3.5-1.4,5.1-0.3
			c1.6,1.2,0.8,3,0.4,4.6c-0.3,1.1-0.5,2.2-0.9,4.1c6.3-3.2,10.5,1.6,15.3,3.9c1.3,0.6,3.2,2.1,2,3.9c-1.4,2-2.7-0.6-4.1-0.8
			c-4-0.7-7.1-4.8-11.9-2.4c-2.4,1.2-4.4-0.7-4.7-3.4C73.8,109.2,73.8,107.4,73.9,105.7z"/>
		<linearGradient id="SVGID_2_" gradientUnits="userSpaceOnUse" x1="104.5746" y1="63.205" x2="126.5227" y2="47.7873">
			<stop  offset="9.197256e-03" style="stop-color:#666666"/>
			<stop  offset="0.4611" style="stop-color:#FFFFFF"/>
		</linearGradient>
		<path class="st5" d="M117.7,42.5l3.7,1.3c2.4,0.8,3.7,3.4,2.8,5.8c0,0,0,0,0,0l-6,17.3l0,0l-12.3-4.3l0,0l6-17.4
			C112.7,42.9,115.3,41.6,117.7,42.5C117.7,42.5,117.7,42.5,117.7,42.5z"/>
		
			<rect x="109.2" y="60.4" transform="matrix(0.3259 -0.9454 0.9454 0.3259 11.8234 150.3789)" class="st1" width="4.4" height="13"/>
		
			<rect x="88.2" y="52.6" transform="matrix(0.3259 -0.9454 0.9454 0.3259 16.5142 132.1158)" class="st1" width="25.4" height="3.8"/>
	</g>
</g>
</svg>
