<?xml version="1.0"?>
<svg xmlns="http://www.w3.org/2000/svg" viewBox="0 0 512 512">
    <g>
        <path d="m0 119v-59c0-33.085938 26.914062-60 60-60h61c11.046875 0 20 8.953125 20 20s-8.953125 20-20 20h-61c-11.027344 0-20 8.972656-20 20v59c0 11.046875-8.953125 20-20 20s-20-8.953125-20-20zm452-119h-61c-11.046875 0-20 8.953125-20 20s8.953125 20 20 20h61c11.027344 0 20 8.972656 20 20v59c0 11.046875 8.953125 20 20 20s20-8.953125 20-20v-59c0-33.085938-26.914062-60-60-60zm-331 472h-61c-11.027344 0-20-8.972656-20-20v-59c0-11.046875-8.953125-20-20-20s-20 8.953125-20 20v59c0 33.085938 26.914062 60 60 60h61c11.046875 0 20-8.953125 20-20s-8.953125-20-20-20zm371-99c-11.046875 0-20 8.953125-20 20v59c0 11.027344-8.972656 20-20 20h-61c-11.046875 0-20 8.953125-20 20s8.953125 20 20 20h61c33.085938 0 60-26.914062 60-60v-59c0-11.046875-8.953125-20-20-20zm-351.339844-268.015625h232.679688c32.894531 0 59.660156 26.761719 59.660156 59.660156v184.695313c0 32.894531-26.765625 59.660156-59.660156 59.660156h-232.679688c-32.894531 0-59.660156-26.765625-59.660156-59.660156v-184.695313c0-32.898437 26.765625-59.660156 59.660156-59.660156zm252.339844 244.355469v-58.421875l-55.476562-65.984375-92.316407 108.058594c-3.660156 4.28125-8.957031 6.824218-14.585937 7-5.640625.179687-11.074219-2.035157-14.992188-6.082032l-24.964844-25.796875-55.480468 60.09375c1.742187.507813 3.578125.792969 5.480468.792969h232.675782c10.839844 0 19.660156-8.820312 19.660156-19.660156zm-272-184.695313v159.957031l54.628906-59.167968c3.726563-4.039063 8.957032-6.367188 14.457032-6.433594 5.523437-.039062 10.785156 2.140625 14.609374 6.09375l24.382813 25.195312 93.359375-109.28125c3.800781-4.445312 9.359375-7.007812 15.207031-7.007812h.078125c5.878906.023438 11.449219 2.632812 15.230469 7.128906l40.046875 47.632813v-64.117188c0-10.839843-8.820312-19.660156-19.660156-19.660156h-232.679688c-10.839844 0-19.660156 8.820313-19.660156 19.660156zm79 55.355469c11.046875 0 20-8.953125 20-20s-8.953125-20-20-20-20 8.953125-20 20 8.953125 20 20 20zm0 0"
              data-original="#000000" class="active-path" data-old_color="#000000" fill="#727780"/>
    </g>
</svg>
