<svg id="Layer_1" data-name="Layer 1" xmlns="http://www.w3.org/2000/svg" viewBox="0 0 311.26 577.84"><defs><style>.cls-1{fill:#4b75ba;}.cls-2{fill:none;}.cls-3{fill:#fff;}.cls-4{fill:#231f20;}</style></defs><title>men</title><path class="cls-1" d="M119.9,434a8.75,8.75,0,0,0,.62-2c2.55-14.2,34.71-178.1,157.47-165.82,127.75,12.77,153.74,120,108.73,235a9,9,0,0,0-.61,3.09l-2.34,192s3,11.06-16.09,13.08-143.85,0-143.85,0-16.09-2-16.09-12.07V627.94a9.16,9.16,0,0,0-9.17-9.17h-54.2s-18.11-1-18.11-18.11V508.24a9.16,9.16,0,0,0-9.16-9.17H105.16a9.18,9.18,0,0,1-8.39-12.89Z" transform="translate(-95.98 -132.35)"/><path class="cls-2" d="M200.61,420.78" transform="translate(-95.98 -132.35)"/><path class="cls-3" d="M373.14,368.63c0-19.76-31.53-41.29-64.7-41.29-1.23,0-2.34.23-3.54.29a35.59,35.59,0,0,0-64.4-.19.19.19,0,0,1-.08,0c-2.77-.8-14.14,5.43-21.65,5.43-27.84,0-50.41,16-50.41,35.79,0,14.15,11.66,26.27,28.44,32.08a12.58,12.58,0,0,0,12.55,12.35H340a12.61,12.61,0,0,0,12.6-12.61v-5.07C365.11,388.82,373.14,379.33,373.14,368.63Z" transform="translate(-95.98 -132.35)"/><circle class="cls-1" cx="118.99" cy="238.86" r="8.4"/><circle class="cls-1" cx="170.69" cy="238.86" r="8.4"/><circle class="cls-1" cx="222.38" cy="238.86" r="8.4"/><path class="cls-4" d="M280,200.6a5.57,5.57,0,0,0-7.79,0V137.91a5.56,5.56,0,0,0-11.12,0V201.2a5.55,5.55,0,0,0-7.79,7.91l13,13L280,208.47A5.57,5.57,0,0,0,280,200.6Z" transform="translate(-95.98 -132.35)"/><path class="cls-4" d="M240.88,150.26H236.3v-4.58a2.78,2.78,0,0,0-5.56,0v4.58h-4.59a2.78,2.78,0,0,0,0,5.56h4.59v4.59a2.78,2.78,0,0,0,5.56,0v-4.59h4.58a2.78,2.78,0,0,0,0-5.56Z" transform="translate(-95.98 -132.35)"/><path class="cls-4" d="M314.46,199.48h-4.59V194.9a2.78,2.78,0,0,0-5.56,0v4.58h-4.59a2.78,2.78,0,0,0,0,5.56h4.59v4.59a2.78,2.78,0,0,0,5.56,0V205h4.59a2.78,2.78,0,1,0,0-5.56Z" transform="translate(-95.98 -132.35)"/></svg>