<svg xmlns="http://www.w3.org/2000/svg" viewBox="0 0 86.53 86.53"><defs><style>.cls-1{fill:#26abe2;}.cls-2{fill:#fff;}</style></defs><title>Asset 13</title><g id="Layer_2" data-name="Layer 2"><g id="Layer_3" data-name="Layer 3"><rect class="cls-1" width="86.53" height="86.53" rx="14.1"/><path class="cls-2" d="M64.44,20.49H21.77a7.12,7.12,0,0,0-7.11,7.11V63.16a7.12,7.12,0,0,0,7.11,7.11H64.44a7.12,7.12,0,0,0,7.11-7.11V27.6A7.12,7.12,0,0,0,64.44,20.49Zm2.37,42.67a2.38,2.38,0,0,1-2.37,2.37H21.77a2.38,2.38,0,0,1-2.37-2.37v-26H66.81v26Z"/><path class="cls-2" d="M28.89,13.38H26.51a2.38,2.38,0,0,0-2.37,2.37v9.49a2.38,2.38,0,0,0,2.37,2.37h2.38a2.38,2.38,0,0,0,2.37-2.37V15.75A2.38,2.38,0,0,0,28.89,13.38Z"/><path class="cls-2" d="M59.7,13.38H57.33A2.37,2.37,0,0,0,55,15.75v9.49a2.37,2.37,0,0,0,2.37,2.36H59.7a2.37,2.37,0,0,0,2.37-2.37V15.75A2.37,2.37,0,0,0,59.7,13.38Z"/><rect class="cls-2" x="24.95" y="39.81" width="5.5" height="1.63" rx="0.66"/><rect class="cls-2" x="39.2" y="39.81" width="5.5" height="1.63" rx="0.66"/><rect class="cls-2" x="53.46" y="39.81" width="5.5" height="1.63" rx="0.66"/><rect class="cls-2" x="24.95" y="48.86" width="5.5" height="1.63" rx="0.66"/><rect class="cls-2" x="39.2" y="48.86" width="5.5" height="1.63" rx="0.66"/><rect class="cls-2" x="53.46" y="48.86" width="5.5" height="1.63" rx="0.66"/><rect class="cls-2" x="24.95" y="57.91" width="5.5" height="1.63" rx="0.66"/><rect class="cls-2" x="39.2" y="57.91" width="5.5" height="1.63" rx="0.66"/><rect class="cls-2" x="53.46" y="57.91" width="5.5" height="1.63" rx="0.66"/></g></g></svg>