<svg xmlns="http://www.w3.org/2000/svg" xmlns:xlink="http://www.w3.org/1999/xlink" viewBox="0 0 45.66 53.07"><defs><style>.cls-1{fill:url(#linear-gradient);}.cls-2{fill:url(#linear-gradient-2);}</style><linearGradient id="linear-gradient" x1="14.43" y1="-43" x2="30.36" y2="-43" gradientTransform="matrix(0.98, 0.18, 0.18, -0.98, 4.55, -36.11)" gradientUnits="userSpaceOnUse"><stop offset="0" stop-color="#325665"/><stop offset="1" stop-color="#76a4b4"/></linearGradient><linearGradient id="linear-gradient-2" x1="3.64" y1="2.39" x2="55.87" y2="2.39" gradientTransform="translate(-6.04 22.62) rotate(10.22)" xlink:href="#linear-gradient"/></defs><title>Asset 2</title><g id="Layer_2" data-name="Layer 2"><g id="Layer_1-2" data-name="Layer 1"><g id="Layer_1-2-2" data-name="Layer 1-2"><path class="cls-1" d="M27.28,2.44,13.85,0a1.14,1.14,0,0,0-1.32.92h0L9.7,16.62a1.16,1.16,0,0,0,1,1.3,1.19,1.19,0,0,0,.46,0l4.09-1.2,1.37,2a1.13,1.13,0,0,0,1.57.3h0l2-1.36,3.38,2.57a1.15,1.15,0,0,0,1.6-.26,1.12,1.12,0,0,0,.2-.46L28.16,3.76A1.14,1.14,0,0,0,27.28,2.44Z"/><path class="cls-2" d="M45.66,50.69l-.11-41a2.26,2.26,0,0,0-2.27-2.27h0l-13.38,0L27.66,19.85a3.41,3.41,0,0,1-4,2.75A3.25,3.25,0,0,1,22.2,22l-2.1-1.52-.62.43a3.41,3.41,0,0,1-4.74-.83l0,0-.42-.61-2.52.73a3.43,3.43,0,0,1-4.25-2.32,3.3,3.3,0,0,1-.08-1.56L9,7.54l-6.71,0A2.26,2.26,0,0,0,0,9.77v.06l.1,41a2.28,2.28,0,0,0,2.27,2.28h0l41-.12a2.26,2.26,0,0,0,2.26-2.27h0ZM22.87,41.5a2.29,2.29,0,0,1-3.22.37L14.09,37.4,17,33.85l3.76,3L27.57,28l3.56,2.78Z"/></g></g></g></svg>