<svg xmlns="http://www.w3.org/2000/svg" width="300.123" height="38.479" viewBox="0 0 300.123 38.479">
  <g id="Group_5265" data-name="Group 5265" transform="translate(-1424.856 -174.5)">
    <g id="Group_5260" data-name="Group 5260" transform="translate(-13240.164 -228)">
      <g id="Group_5258" data-name="Group 5258" transform="translate(14665.521 403)">
        <g id="Group_5203" data-name="Group 5203" transform="translate(0 0)">
          <path id="Path_1782" data-name="Path 1782" d="M330.751,250.053a8.131,8.131,0,1,0-14.979,4.37h-.009l.068.1c.041.062.086.125.13.187l5.95,8.6a.863.863,0,0,0,1.423.006l5.932-8.585h0A8.1,8.1,0,0,0,330.751,250.053Zm-8.132,3.385a3.295,3.295,0,1,1,3.3-3.3A3.3,3.3,0,0,1,322.619,253.439Z" transform="translate(-304.032 -233.232)" fill="#fff"/>
          <circle id="Ellipse_229" data-name="Ellipse 229" cx="18.74" cy="18.74" r="18.74" fill="none" stroke="#fff" stroke-miterlimit="10" stroke-width="1"/>
        </g>
      </g>
    </g>
    <g id="Group_5263" data-name="Group 5263" transform="translate(-12978.521 -228)">
      <g id="Group_5258-2" data-name="Group 5258" transform="translate(14665.521 403)">
        <g id="Group_5203-2" data-name="Group 5203" transform="translate(0 0)">
          <path id="Path_1782-2" data-name="Path 1782" d="M330.751,250.053a8.131,8.131,0,1,0-14.979,4.37h-.009l.068.1c.041.062.086.125.13.187l5.95,8.6a.863.863,0,0,0,1.423.006l5.932-8.585h0A8.1,8.1,0,0,0,330.751,250.053Zm-8.132,3.385a3.295,3.295,0,1,1,3.3-3.3A3.3,3.3,0,0,1,322.619,253.439Z" transform="translate(-304.032 -233.232)" fill="#fff"/>
          <circle id="Ellipse_229-2" data-name="Ellipse 229" cx="18.74" cy="18.74" r="18.74" fill="none" stroke="#fff" stroke-miterlimit="10" stroke-width="1"/>
        </g>
      </g>
    </g>
    <g id="Group_5264" data-name="Group 5264" transform="translate(7)">
      <circle id="Ellipse_266" data-name="Ellipse 266" cx="1.124" cy="1.124" r="1.124" transform="translate(1463 193)" fill="#fff" stroke="rgba(0,0,0,0)" stroke-miterlimit="10" stroke-width="1"/>
      <circle id="Ellipse_266-2" data-name="Ellipse 266" cx="1.124" cy="1.124" r="1.124" transform="translate(1476 193)" fill="#fff" stroke="rgba(0,0,0,0)" stroke-miterlimit="10" stroke-width="1"/>
      <circle id="Ellipse_266-3" data-name="Ellipse 266" cx="1.124" cy="1.124" r="1.124" transform="translate(1489 193)" fill="#fff" stroke="rgba(0,0,0,0)" stroke-miterlimit="10" stroke-width="1"/>
      <circle id="Ellipse_266-4" data-name="Ellipse 266" cx="1.124" cy="1.124" r="1.124" transform="translate(1502 193)" fill="#fff" stroke="rgba(0,0,0,0)" stroke-miterlimit="10" stroke-width="1"/>
      <circle id="Ellipse_266-5" data-name="Ellipse 266" cx="1.124" cy="1.124" r="1.124" transform="translate(1515 193)" fill="#fff" stroke="rgba(0,0,0,0)" stroke-miterlimit="10" stroke-width="1"/>
      <circle id="Ellipse_266-6" data-name="Ellipse 266" cx="1.124" cy="1.124" r="1.124" transform="translate(1528 193)" fill="#fff" stroke="rgba(0,0,0,0)" stroke-miterlimit="10" stroke-width="1"/>
      <circle id="Ellipse_266-7" data-name="Ellipse 266" cx="1.124" cy="1.124" r="1.124" transform="translate(1541 193)" fill="#fff" stroke="rgba(0,0,0,0)" stroke-miterlimit="10" stroke-width="1"/>
      <circle id="Ellipse_266-8" data-name="Ellipse 266" cx="1.124" cy="1.124" r="1.124" transform="translate(1554 193)" fill="#fff" stroke="rgba(0,0,0,0)" stroke-miterlimit="10" stroke-width="1"/>
      <circle id="Ellipse_266-9" data-name="Ellipse 266" cx="1.124" cy="1.124" r="1.124" transform="translate(1567 193)" fill="#fff" stroke="rgba(0,0,0,0)" stroke-miterlimit="10" stroke-width="1"/>
      <circle id="Ellipse_266-10" data-name="Ellipse 266" cx="1.124" cy="1.124" r="1.124" transform="translate(1580 193)" fill="#fff" stroke="rgba(0,0,0,0)" stroke-miterlimit="10" stroke-width="1"/>
      <circle id="Ellipse_266-11" data-name="Ellipse 266" cx="1.124" cy="1.124" r="1.124" transform="translate(1593 193)" fill="#fff" stroke="rgba(0,0,0,0)" stroke-miterlimit="10" stroke-width="1"/>
      <circle id="Ellipse_266-12" data-name="Ellipse 266" cx="1.124" cy="1.124" r="1.124" transform="translate(1606 193)" fill="#fff" stroke="rgba(0,0,0,0)" stroke-miterlimit="10" stroke-width="1"/>
      <circle id="Ellipse_266-13" data-name="Ellipse 266" cx="1.124" cy="1.124" r="1.124" transform="translate(1619 193)" fill="#fff" stroke="rgba(0,0,0,0)" stroke-miterlimit="10" stroke-width="1"/>
      <circle id="Ellipse_266-14" data-name="Ellipse 266" cx="1.124" cy="1.124" r="1.124" transform="translate(1632 193)" fill="#fff" stroke="rgba(0,0,0,0)" stroke-miterlimit="10" stroke-width="1"/>
      <circle id="Ellipse_266-15" data-name="Ellipse 266" cx="1.124" cy="1.124" r="1.124" transform="translate(1645 193)" fill="#fff" stroke="rgba(0,0,0,0)" stroke-miterlimit="10" stroke-width="1"/>
      <circle id="Ellipse_266-16" data-name="Ellipse 266" cx="1.124" cy="1.124" r="1.124" transform="translate(1658 193)" fill="#fff" stroke="rgba(0,0,0,0)" stroke-miterlimit="10" stroke-width="1"/>
      <circle id="Ellipse_266-17" data-name="Ellipse 266" cx="1.124" cy="1.124" r="1.124" transform="translate(1671 193)" fill="#fff" stroke="rgba(0,0,0,0)" stroke-miterlimit="10" stroke-width="1"/>
    </g>
    <path id="Path_1787" data-name="Path 1787" d="M380.027,256.819l-2.489,13.148a2.379,2.379,0,0,0,2.173-1.37l5.424-11.6c2.935.063,5.374.058,6.425.1,3.226.123,4.049-2.09,4.049-2.09s-.79-2.225-4.019-2.145c-1.034.025-3.4-.01-6.262.008L379.9,240.924a2.379,2.379,0,0,0-2.155-1.4l2.353,13.447a70.614,70.614,0,0,0-7.388.595l-3.051-4.119-.755-.005,1.37,4.6a7.593,7.593,0,0,0-2,.775,7.5,7.5,0,0,0,1.982.8l-1.425,4.551.758.005,3.083-4.049A70.384,70.384,0,0,0,380.027,256.819Z" transform="translate(1192.727 -60.524)" fill="#fff"/>
  </g>
</svg>
