<svg xmlns="http://www.w3.org/2000/svg" width="300.123" height="38.863" viewBox="0 0 300.123 38.863">
  <g id="Group_8031" data-name="Group 8031" transform="translate(-2139.412 -4604.833)">
    <g id="Group_8028" data-name="Group 8028" transform="translate(2183.91 4623.333)">
      <circle id="Ellipse_266" data-name="Ellipse 266" cx="1.124" cy="1.124" r="1.124" fill="#1a5669" stroke="rgba(0,0,0,0)" stroke-miterlimit="10" stroke-width="1"/>
      <circle id="Ellipse_266-2" data-name="Ellipse 266" cx="1.124" cy="1.124" r="1.124" transform="translate(13)" fill="#1a5669" stroke="rgba(0,0,0,0)" stroke-miterlimit="10" stroke-width="1"/>
      <circle id="Ellipse_266-3" data-name="Ellipse 266" cx="1.124" cy="1.124" r="1.124" transform="translate(26)" fill="#1a5669" stroke="rgba(0,0,0,0)" stroke-miterlimit="10" stroke-width="1"/>
      <circle id="Ellipse_266-4" data-name="Ellipse 266" cx="1.124" cy="1.124" r="1.124" transform="translate(39)" fill="#1a5669" stroke="rgba(0,0,0,0)" stroke-miterlimit="10" stroke-width="1"/>
      <circle id="Ellipse_266-5" data-name="Ellipse 266" cx="1.124" cy="1.124" r="1.124" transform="translate(52)" fill="#1a5669" stroke="rgba(0,0,0,0)" stroke-miterlimit="10" stroke-width="1"/>
      <circle id="Ellipse_266-6" data-name="Ellipse 266" cx="1.124" cy="1.124" r="1.124" transform="translate(65)" fill="#1a5669" stroke="rgba(0,0,0,0)" stroke-miterlimit="10" stroke-width="1"/>
      <circle id="Ellipse_266-7" data-name="Ellipse 266" cx="1.124" cy="1.124" r="1.124" transform="translate(78)" fill="#1a5669" stroke="rgba(0,0,0,0)" stroke-miterlimit="10" stroke-width="1"/>
      <circle id="Ellipse_266-8" data-name="Ellipse 266" cx="1.124" cy="1.124" r="1.124" transform="translate(91)" fill="#1a5669" stroke="rgba(0,0,0,0)" stroke-miterlimit="10" stroke-width="1"/>
      <circle id="Ellipse_266-9" data-name="Ellipse 266" cx="1.124" cy="1.124" r="1.124" transform="translate(104)" fill="#1a5669" stroke="rgba(0,0,0,0)" stroke-miterlimit="10" stroke-width="1"/>
      <circle id="Ellipse_266-10" data-name="Ellipse 266" cx="1.124" cy="1.124" r="1.124" transform="translate(117)" fill="#1a5669" stroke="rgba(0,0,0,0)" stroke-miterlimit="10" stroke-width="1"/>
      <circle id="Ellipse_266-11" data-name="Ellipse 266" cx="1.124" cy="1.124" r="1.124" transform="translate(130)" fill="#1a5669" stroke="rgba(0,0,0,0)" stroke-miterlimit="10" stroke-width="1"/>
      <circle id="Ellipse_266-12" data-name="Ellipse 266" cx="1.124" cy="1.124" r="1.124" transform="translate(143)" fill="#1a5669" stroke="rgba(0,0,0,0)" stroke-miterlimit="10" stroke-width="1"/>
      <circle id="Ellipse_266-13" data-name="Ellipse 266" cx="1.124" cy="1.124" r="1.124" transform="translate(156)" fill="#1a5669" stroke="rgba(0,0,0,0)" stroke-miterlimit="10" stroke-width="1"/>
      <circle id="Ellipse_266-14" data-name="Ellipse 266" cx="1.124" cy="1.124" r="1.124" transform="translate(169)" fill="#1a5669" stroke="rgba(0,0,0,0)" stroke-miterlimit="10" stroke-width="1"/>
      <circle id="Ellipse_266-15" data-name="Ellipse 266" cx="1.124" cy="1.124" r="1.124" transform="translate(182)" fill="#1a5669" stroke="rgba(0,0,0,0)" stroke-miterlimit="10" stroke-width="1"/>
      <circle id="Ellipse_266-16" data-name="Ellipse 266" cx="1.124" cy="1.124" r="1.124" transform="translate(195)" fill="#1a5669" stroke="rgba(0,0,0,0)" stroke-miterlimit="10" stroke-width="1"/>
      <circle id="Ellipse_266-17" data-name="Ellipse 266" cx="1.124" cy="1.124" r="1.124" transform="translate(208)" fill="#1a5669" stroke="rgba(0,0,0,0)" stroke-miterlimit="10" stroke-width="1"/>
    </g>
    <g id="Group_8029" data-name="Group 8029" transform="translate(2401.556 4605.717)">
      <g id="Group_5258" data-name="Group 5258" transform="translate(0 0)">
        <g id="Group_5203" data-name="Group 5203">
          <path id="Path_1782" data-name="Path 1782" d="M330.751,250.053a8.131,8.131,0,1,0-14.979,4.37h-.009l.068.1c.041.062.086.125.13.187l5.95,8.6a.863.863,0,0,0,1.423.006l5.932-8.585h0A8.1,8.1,0,0,0,330.751,250.053Zm-8.132,3.385a3.295,3.295,0,1,1,3.3-3.3A3.3,3.3,0,0,1,322.619,253.439Z" transform="translate(-304.032 -233.232)" fill="#1a5669" stroke="#1a5669" stroke-width="1"/>
          <circle id="Ellipse_229" data-name="Ellipse 229" cx="18.74" cy="18.74" r="18.74" fill="none" stroke="#1a5669" stroke-miterlimit="10" stroke-width="1"/>
        </g>
      </g>
    </g>
    <g id="Group_8030" data-name="Group 8030" transform="translate(2139.912 4605.333)">
      <g id="Group_5258-2" data-name="Group 5258" transform="translate(0 0)">
        <g id="Group_5203-2" data-name="Group 5203">
          <path id="Path_1782-2" data-name="Path 1782" d="M330.751,250.053a8.131,8.131,0,1,0-14.979,4.37h-.009l.068.1c.041.062.086.125.13.187l5.95,8.6a.863.863,0,0,0,1.423.006l5.932-8.585h0A8.1,8.1,0,0,0,330.751,250.053Zm-8.132,3.385a3.295,3.295,0,1,1,3.3-3.3A3.3,3.3,0,0,1,322.619,253.439Z" transform="translate(-304.032 -233.232)" fill="#1a5669" stroke="#1a5669" stroke-width="1"/>
          <circle id="Ellipse_229-2" data-name="Ellipse 229" cx="18.74" cy="18.74" r="18.74" fill="none" stroke="#1a5669" stroke-miterlimit="10" stroke-width="1"/>
        </g>
      </g>
    </g>
  </g>
</svg>
