<svg viewBox="0 0 512 512" xmlns="http://www.w3.org/2000/svg">
    <path d="m391.625 294.78125c-16.34375-10.246094-33.730469-18.5625-51.875-24.828125 38.777344-26.710937 64.25-71.410156 64.25-121.953125 0-81.605469-66.394531-148-148-148s-148 66.394531-148 148c0 50.546875 25.480469 95.25 64.261719 121.964844-36.210938 12.492187-69.398438 33.132812-97.28125 61.015625-48.351563 48.351562-74.980469 112.640625-74.980469 181.019531h40c0-119.101562 96.898438-216 216-216 36.621094 0 71.140625 9.175781 101.390625 25.324219 12.5625-11.335938 23.628906-19.835938 34.234375-26.542969zm-243.625-146.78125c0-59.550781 48.449219-108 108-108s108 48.449219 108 108-48.449219 108-108 108-108-48.449219-108-108zm364 193.085938-57.234375 56.90625-29.464844-29.226563c-8.59375 6.527344-18.222656 15.171875-29.558593 26.511719-11.210938 11.210937-19.035157 20.25-24.875 28.230468l29.4375 30.109376-58.46875 58.382812-22.816407-22.726562c-6.527343-6.527344-10.019531-14.234376-10.019531-22.984376 0-4.925781 1.105469-10.179687 3.398438-15.742187 9.960937-24.167969 16.246093-44.734375 55.054687-83.550781 38.8125-38.816406 58.332031-47.292969 83.191406-55.351563 14.363281-4.65625 28.523438-3.578125 38.722657 6.621094zm0 0"/>
</svg>