<?xml version="1.0" encoding="iso-8859-1"?>
<!-- Generator: Adobe Illustrator 18.1.1, SVG Export Plug-In . SVG Version: 6.00 Build 0)  -->
<svg version="1.1" id="Capa_1" xmlns="http://www.w3.org/2000/svg" xmlns:xlink="http://www.w3.org/1999/xlink" x="0px" y="0px"
	 viewBox="0 0 174.239 174.239" style="enable-background:new 0 0 174.239 174.239;" xml:space="preserve">
<g>
	<path d="M87.12,150.456l6.155-8.943c4.55-6.621,44.498-65.427,44.498-90.861C137.773,22.723,115.049,0,87.12,0
		S36.467,22.723,36.467,50.653c0,25.436,39.948,84.239,44.503,90.861L87.12,150.456z M87.12,14.935
		c19.694,0,35.718,16.024,35.718,35.718c0,13.8-19.908,48.927-35.718,73.194C71.31,99.585,51.402,64.462,51.402,50.653
		C51.402,30.959,67.425,14.935,87.12,14.935z"/>
	<path d="M130.062,113.679l-7.156-2.132l-4.259,14.315l7.156,2.129c14.906,4.439,20.331,10.204,20.336,12.997
		c0.015,6.162-20.783,18.209-58.966,18.316c-16.719,0.097-32.616-2.399-44.352-6.882c-10.102-3.86-14.716-8.464-14.721-11.106
		c-0.01-2.757,5.28-8.491,19.889-12.997l7.137-2.2l-4.405-14.271l-7.137,2.202c-19.651,6.062-30.453,15.761-30.419,27.308
		c0.015,5.878,3.199,16.943,24.323,25.015c13.287,5.078,30.745,7.866,49.214,7.866c0.17,0,0.34,0,0.51,0
		c36.749-0.102,73.92-11.571,73.862-33.287C161.045,129.309,150.033,119.622,130.062,113.679z"/>
	<path d="M101.996,49.097c0-8.204-6.675-14.879-14.876-14.879s-14.876,6.675-14.876,14.879s6.675,14.879,14.876,14.879
		S101.996,57.301,101.996,49.097z M87.12,56.508L87.12,56.508L87.12,56.508L87.12,56.508L87.12,56.508z"/>
</g>
<g>
</g>
<g>
</g>
<g>
</g>
<g>
</g>
<g>
</g>
<g>
</g>
<g>
</g>
<g>
</g>
<g>
</g>
<g>
</g>
<g>
</g>
<g>
</g>
<g>
</g>
<g>
</g>
<g>
</g>
</svg>
