<svg xmlns="http://www.w3.org/2000/svg" viewBox="0 0 66.398 63.561"><defs><style>.a{fill:#405e6b;}</style></defs><g transform="translate(-734.602 -2056.96)"><path class="a" d="M163.124,29.94l26.47-7.205-1.4-2.826a3.735,3.735,0,0,0-5-1.68L159.5,29.94Z" transform="translate(586.995 2039.12)"/><path class="a" d="M348.194,86.46a3.74,3.74,0,0,0-.984.134l-6.218,1.7L322,93.457h30.951L351.788,89.2A3.72,3.72,0,0,0,348.194,86.46Z" transform="translate(436.611 1975.602)"/><path class="a" d="M58.845,215.56H3.736a3.729,3.729,0,0,0-3.6,2.744,3.838,3.838,0,0,0-.134.974V260.7a3.724,3.724,0,0,0,3.728,3.718H58.838a3.724,3.724,0,0,0,3.728-3.718V250.329H40.443a6.333,6.333,0,0,1-6.338-6.32V235.74a6.328,6.328,0,0,1,6.33-6.313h22.13v-10.15A3.713,3.713,0,0,0,58.845,215.56Z" transform="translate(734.602 1856.102)"/></g><path class="a" d="M520.868,437.735a3.732,3.732,0,0,0-1.3-.773,3.812,3.812,0,0,0-1.208-.2H496.128a3.724,3.724,0,0,0-3.728,3.718v8.276a3.724,3.724,0,0,0,3.728,3.718h22.227a3.806,3.806,0,0,0,1.208-.2,3.618,3.618,0,0,0,1.3-.773,3.7,3.7,0,0,0,1.215-2.744v-8.276A3.7,3.7,0,0,0,520.868,437.735Zm-16.956,7.622a1.862,1.862,0,0,1-1.864,1.859h-1.238a1.862,1.862,0,0,1-1.864-1.859v-1.235a1.82,1.82,0,0,1,.715-1.457,1.891,1.891,0,0,1,1.149-.4h1.238a1.862,1.862,0,0,1,1.864,1.859v1.235Z" transform="translate(-455.685 -405.612)"/></svg>