<svg xmlns="http://www.w3.org/2000/svg" viewBox="0 0 63.203 57.031"><defs><style>.a{fill:#405e6b;}</style></defs><path class="a" d="M63.2,42.776V35.493a5.561,5.561,0,0,0-5.555-5.555h-.741v6.789a1.852,1.852,0,1,1-3.7,0V26.852a1.852,1.852,0,1,0-3.7,0v3.086H37.157v6.789a1.852,1.852,0,1,1-3.7,0V26.852a1.852,1.852,0,0,0-3.7,0v3.086H17.406v6.789a1.852,1.852,0,1,1-3.7,0V26.852a1.852,1.852,0,1,0-3.7,0v3.086H5.555A5.561,5.561,0,0,0,0,35.493v7.283Z" transform="translate(0 -25)"/><path class="a" d="M0,199v30a5.561,5.561,0,0,0,5.555,5.555H57.648A5.561,5.561,0,0,0,63.2,229V199Zm17.776,25.676h-3.95a1.852,1.852,0,1,1,0-3.7h3.95a1.852,1.852,0,1,1,0,3.7Zm0-7.9h-3.95a1.852,1.852,0,1,1,0-3.7h3.95a1.852,1.852,0,1,1,0,3.7Zm0-7.9h-3.95a1.852,1.852,0,1,1,0-3.7h3.95a1.852,1.852,0,1,1,0,3.7Zm15.8,15.8h-3.95a1.852,1.852,0,1,1,0-3.7h3.95a1.852,1.852,0,1,1,0,3.7Zm0-7.9h-3.95a1.852,1.852,0,1,1,0-3.7h3.95a1.852,1.852,0,1,1,0,3.7Zm0-7.9h-3.95a1.852,1.852,0,1,1,0-3.7h3.95a1.852,1.852,0,1,1,0,3.7Zm15.8,15.8h-3.95a1.852,1.852,0,1,1,0-3.7h3.95a1.852,1.852,0,1,1,0,3.7Zm0-7.9h-3.95a1.852,1.852,0,1,1,0-3.7h3.95a1.852,1.852,0,1,1,0,3.7Zm0-7.9h-3.95a1.852,1.852,0,1,1,0-3.7h3.95a1.852,1.852,0,1,1,0,3.7Z" transform="translate(0 -177.521)"/></svg>