<svg xmlns="http://www.w3.org/2000/svg" viewBox="0 0 63.203 66.224">
    <defs>
        <style>.a{fill:#405e6b;}</style>
    </defs>
    <path class="a"
          d="M62.231,39.812l-.017-.017-3.88-3.565a27.616,27.616,0,0,0,0-6.236l3.9-3.582a4.82,4.82,0,0,0,.889-5.891l-4.575-7.914a4.789,4.789,0,0,0-5.585-2.174L47.932,12.02A25.415,25.415,0,0,0,42.54,8.891L41.376,3.722A4.731,4.731,0,0,0,36.737,0H27.56a4.731,4.731,0,0,0-4.638,3.722L21.757,8.891a25.484,25.484,0,0,0-5.392,3.129L11.329,10.43a4.771,4.771,0,0,0-5.566,2.155l-4.6,7.963a4.817,4.817,0,0,0,.919,5.88l3.88,3.565a27.4,27.4,0,0,0,0,6.236l-3.9,3.582A4.82,4.82,0,0,0,1.175,45.7L5.75,53.617a4.792,4.792,0,0,0,5.585,2.174L16.362,54.2a25.416,25.416,0,0,0,5.392,3.129L22.919,62.5a4.736,4.736,0,0,0,4.641,3.722h9.178A4.731,4.731,0,0,0,41.376,62.5l1.164-5.171A25.348,25.348,0,0,0,47.932,54.2l5.036,1.589a4.784,4.784,0,0,0,5.566-2.155l4.6-7.961a4.813,4.813,0,0,0-.905-5.864Zm-24.453,6.8a3.08,3.08,0,0,1-3.09,3.063H29.61c-1.49,0-3.09-1.1-3.09-3.56v-1.49H37.778Zm2.235-8.168a5.921,5.921,0,0,0-2.152,3.422h-11.4a5.189,5.189,0,0,0-2.014-3.284,12.2,12.2,0,0,1-4.718-9.934A12.48,12.48,0,0,1,31.956,16.559,12.321,12.321,0,0,1,40.013,38.44Z"
          transform="translate(-0.548)"/>
</svg>