<svg xmlns="http://www.w3.org/2000/svg" viewBox="0 0 49.664 66.705"><defs><style>.a{fill:#405e6b;}</style></defs><g transform="translate(0 0)"><rect class="a" width="7.706" height="6.85" transform="translate(7.707 23.892)"/><path class="a" d="M157.847,5.056h-4.881a1.37,1.37,0,0,1-1.284-1.027A4.966,4.966,0,0,0,146.631,0a5.052,5.052,0,0,0-5.052,4.11,1.284,1.284,0,0,1-1.284.942h-4.709v8.562h22.262Z" transform="translate(-121.884 -0.001)"/><path class="a" d="M101.651,114.715V65.653a3.511,3.511,0,0,0-3.5-3.52q-.133,0-.266.009H90.52v4.367c0,.685-.428,1.627-1.113,1.627H64.147c-.685,0-1.027-.942-1.027-1.627V62.142H55.756A3.51,3.51,0,0,0,52,65.387q-.01.133-.009.266v49.063a3.853,3.853,0,0,0,3.766,3.939H97.884a3.853,3.853,0,0,0,3.768-3.937A.008.008,0,0,1,101.651,114.715ZM57.126,83.976V74.558a1.284,1.284,0,0,1,1.284-1.284H68.686a1.284,1.284,0,0,1,1.284,1.284v9.419a1.284,1.284,0,0,1-1.284,1.284H58.411A1.284,1.284,0,0,1,57.126,83.976Zm12.758,19.437-6.679,6.251a1.2,1.2,0,0,1-.856.428,1.37,1.37,0,0,1-.942-.428l-3.511-3.6a1.3,1.3,0,0,1,1.884-1.8l2.569,2.74,5.823-5.48a1.284,1.284,0,0,1,1.712,1.884Zm0-13.7h0l-6.679,6.251a1.2,1.2,0,0,1-.856.428,1.37,1.37,0,0,1-.942-.428l-3.511-3.6a1.3,1.3,0,0,1,1.884-1.8l2.569,2.74,5.823-5.48a1.284,1.284,0,0,1,1.712,1.884ZM94.8,108.379H75.107a1.284,1.284,0,1,1,0-2.569H94.8a1.284,1.284,0,0,1,0,2.569Zm0-13.7H75.107a1.284,1.284,0,1,1,0-2.569H94.8a1.284,1.284,0,0,1,0,2.569Zm0-13.7H75.107a1.284,1.284,0,1,1,0-2.569H94.8a1.284,1.284,0,0,1,0,2.569Z" transform="translate(-51.988 -51.95)"/></g></svg>