<svg xmlns="http://www.w3.org/2000/svg" width="97" height="120.791" viewBox="0 0 97 120.791">
  <g id="Group_5888" data-name="Group 5888" transform="translate(-313.561 -845.466)">
    <path id="Path_2031" data-name="Path 2031" d="M430.078,873.645c-.231-2.252-.609-4.412-.642-6.578a19.186,19.186,0,0,1,3.683-12.282A29.576,29.576,0,0,1,437,851.2a10.124,10.124,0,0,1-4.309-3.378c2.016,0,4.012.021,6.008,0a46.966,46.966,0,0,0,12.51-1.764c3.661-1.056,7.36-.528,10.994.357a20.82,20.82,0,0,1,7.38,3.194c1.733,1.25,3.163,2.716,3.3,5.037a1,1,0,0,0,.477.653c3.922,2.264,5.237,5.9,5.191,10.143-.029,2.719-.359,5.434-.56,8.229,1.635.343,2.174,1.678,2.189,3.232a26.078,26.078,0,0,1-3.079,12.65,2.8,2.8,0,0,1-.608.877,6.066,6.066,0,0,0-1.737,3.468,36.213,36.213,0,0,1-7.065,14.2c-3.734,4.4-8.414,6.936-14.294,6.741-5.327-.176-9.579-2.638-12.983-6.624-3.866-4.527-6.056-9.879-7.523-15.578a5.6,5.6,0,0,0-.846-1.564c-.355-.542-.856-1-1.154-1.565a25.63,25.63,0,0,1-3.045-12.846A2.836,2.836,0,0,1,430.078,873.645Zm5.383,3.085a22.108,22.108,0,0,0-2.6-1.091c-1.746-.494-2.917.276-3.082,2.08a15.775,15.775,0,0,0,2.383,10.054,3.785,3.785,0,0,0,2.275,1.728,1.14,1.14,0,0,1,.64.756c.363,1.782.6,3.589.988,5.366,1.083,4.989,3.206,9.429,7.243,12.716,5.161,4.2,10.95,5.178,17.089,2.613,5.6-2.342,9.013-6.816,10.741-12.533.8-2.633,1.213-5.38,1.839-8.068.075-.323.331-.793.586-.855a4.144,4.144,0,0,0,2.642-2.3,16.288,16.288,0,0,0,2.04-9.29c-.184-2.241-1.812-3.078-3.8-2.025-.492.26-.948.588-1.525.951,0-.482.02-.808,0-1.13a17.231,17.231,0,0,0-3-9.239,5.725,5.725,0,0,0-3.993-2.551c-1.674-.2-3.359-.333-5.043-.392a2.931,2.931,0,0,1-1.86-.587,13.6,13.6,0,0,0-6.677-2.755c-3.93-.516-7.356.874-10.636,2.788a11.213,11.213,0,0,0-5.667,8.333C435.769,873.083,435.653,874.9,435.461,876.73Z" transform="translate(-91.956 0)" fill="#757d86"/>
    <path id="Path_2033" data-name="Path 2033" d="M410.3,1217.013c-.491-3.981-2.3-7.07-5.959-8.917a23.876,23.876,0,0,0-3.1-1.425c-3.14-1.052-6.316-1.995-9.465-3.019-4.627-1.505-9.243-3.044-13.908-4.583-2.686,10.607-5.887,21.226-9.622,31.94h-.381l-.009-.038c-.731-3-1.476-6-2.184-9-.246-1.044-.925-2.148.222-3.107.041-.034.04-.121.056-.184.744-3.03,1.505-6.055,2.223-9.091a3.121,3.121,0,0,0-2.82-3.548q-3.221-.005-6.443,0a3.08,3.08,0,0,0-2.937,3.844c.353,1.452.62,2.934,1.092,4.347.608,1.821.448,3.89,1.762,5.492.113.137,0,.493-.061.736q-.832,3.509-1.683,7.015c-.285,1.179-.579,2.355-.87,3.533h-.2a328.509,328.509,0,0,1-9.87-32.188c-6.628,2.954-13.6,4.6-20.385,6.828a45.64,45.64,0,0,0-6.445,2.725,9.514,9.514,0,0,0-5.294,7.513,44.263,44.263,0,0,0-.453,6.99c.063,2.712.229,5.422.384,8.132h0l.4,13.217a6.58,6.58,0,0,0,6.577,6.384h82.009a6.58,6.58,0,0,0,6.572-6.253l.665-13.348h-.052q.047-.812.1-1.623A68.077,68.077,0,0,0,410.3,1217.013Z" transform="translate(0 -284.353)" fill="#757d86"/>
  </g>
</svg>
