<svg xmlns="http://www.w3.org/2000/svg" width="20.532" height="19.066" viewBox="0 0 20.532 19.066">
  <path id="Icon_ionic-ios-star-outline" data-name="Icon ionic-ios-star-outline" d="M22,9.975H15.261L13.213,3.861a.742.742,0,0,0-1.393,0L9.771,9.975H2.983a.735.735,0,0,0-.733.733.539.539,0,0,0,.014.124.7.7,0,0,0,.307.518l5.541,3.9L5.985,21.437a.735.735,0,0,0,.252.825.709.709,0,0,0,.412.179.9.9,0,0,0,.458-.165l5.408-3.854,5.408,3.854a.859.859,0,0,0,.458.165.658.658,0,0,0,.408-.179.726.726,0,0,0,.252-.825l-2.127-6.183,5.5-3.941.133-.115a.769.769,0,0,0,.238-.49A.776.776,0,0,0,22,9.975Zm-5.83,4.239a1.287,1.287,0,0,0-.467,1.457l1.38,4.019a.184.184,0,0,1-.28.211l-3.547-2.53a1.281,1.281,0,0,0-.747-.238,1.257,1.257,0,0,0-.742.238L8.222,19.9a.183.183,0,0,1-.28-.211l1.38-4.019A1.291,1.291,0,0,0,8.85,14.2L5.137,11.583a.184.184,0,0,1,.105-.335H9.766a1.282,1.282,0,0,0,1.215-.875l1.357-4.042a.184.184,0,0,1,.348,0l1.357,4.042a1.282,1.282,0,0,0,1.215.875h4.459a.181.181,0,0,1,.105.33Z" transform="translate(-2.25 -3.375)" fill="#757d86"/>
</svg>
