<svg id="Group_5455" data-name="Group 5455" xmlns="http://www.w3.org/2000/svg" width="45" height="45" viewBox="0 0 45 45">
  <path id="Path_1848" data-name="Path 1848" d="M0,0H45V45H0Z" fill="none"/>
  <path id="Path_1849" data-name="Path 1849" d="M23.125,6.694H35.358a1.852,1.852,0,0,1,1.857,1.847v1.847H3.783V4.847A1.852,1.852,0,0,1,5.64,3h13.77ZM3.945,14.082H37.053a1.862,1.862,0,0,1,1.367.6,1.841,1.841,0,0,1,.484,1.4l-1.549,18.47a1.853,1.853,0,0,1-1.85,1.694H5.492a1.853,1.853,0,0,1-1.85-1.694L2.093,16.082a1.841,1.841,0,0,1,.484-1.4,1.862,1.862,0,0,1,1.367-.6Z" transform="translate(2.001 2.877)" fill="#a14eb9"/>
</svg>
