<svg xmlns="http://www.w3.org/2000/svg" width="12.425" height="13.405" viewBox="0 0 12.425 13.405">
  <g id="Group_7983" data-name="Group 7983" transform="translate(-682.636)">
    <path id="Path_3380" data-name="Path 3380" d="M260.7,6.719q0,2.551,0,5.1a1.553,1.553,0,0,1-.813,1.523.856.856,0,0,1-.28.053c-.3.007-.6.006-.9,0-.622-.008-1.1-.683-1.1-1.566q0-5.134,0-10.269c0-.881.48-1.554,1.1-1.561q.443-.005.886,0c.622.008,1.1.681,1.1,1.566q0,2.575,0,5.151" transform="translate(434.362 0.001)" fill="#df0000"/>
    <path id="Path_3381" data-name="Path 3381" d="M128.815,71.954q0-1.819,0-3.639c0-.968.465-1.626,1.148-1.628.277,0,.553,0,.83,0,.641.007,1.113.672,1.114,1.579q0,3.687,0,7.374c0,.9-.476,1.576-1.113,1.581q-.432,0-.864,0c-.637-.005-1.112-.678-1.114-1.581q0-1.844,0-3.687" transform="translate(558.487 -63.823)" fill="#df0000"/>
    <path id="Path_3382" data-name="Path 3382" d="M0,137.089q0-1.111,0-2.222c0-.952.461-1.611,1.13-1.618.31,0,.621-.01.931.007.56.031,1.021.686,1.025,1.482q.013,2.342,0,4.685c0,.811-.481,1.484-1.053,1.5A6,6,0,0,1,.9,140.886c-.514-.087-.893-.742-.9-1.479-.006-.773,0-1.546,0-2.318Z" transform="translate(682.635 -127.525)" fill="#df0000"/>
  </g>
</svg>
