<svg xmlns="http://www.w3.org/2000/svg" width="480" height="322.634" viewBox="0 0 480 322.634">
  <g id="Group_6234" data-name="Group 6234" transform="translate(-1371.195 -411.268)">
    <rect id="Rectangle_2105" data-name="Rectangle 2105" width="1.971" height="36.431" transform="matrix(0.997, -0.072, 0.072, 0.997, 1371.195, 511.784)" fill="#1a5669"/>
    <rect id="Rectangle_2106" data-name="Rectangle 2106" width="1.971" height="13.705" transform="translate(1375.167 566.884) rotate(-4.121)" fill="#1a5669"/>
    <path id="Path_2094" data-name="Path 2094" d="M831.53,113.886H409.56a19.009,19.009,0,0,1-18.6-17.353L370.223-191.395a15.976,15.976,0,0,1,16.1-17.353H808.3a19.009,19.009,0,0,1,18.6,17.353L847.631,96.533A15.973,15.973,0,0,1,831.53,113.886Z" transform="translate(1001.899 620.016)" fill="#1a5669"/>
    <path id="Path_2095" data-name="Path 2095" d="M832.35,113.886H410.38a19.009,19.009,0,0,1-18.6-17.353L371.044-191.395a15.976,15.976,0,0,1,16.1-17.353h421.97a19.009,19.009,0,0,1,18.6,17.353L848.454,96.533A15.976,15.976,0,0,1,832.35,113.886Z" transform="translate(1002.696 620.016)" fill="#1a5669" opacity="0.276"/>
    <path id="Path_2097" data-name="Path 2097" d="M805.656-204.345H383.686q-.715,0-1.413.059c-10.788.887-8.583,17.294,2.3,17.294H807.266c10.886,0,10.727-16.407-.187-17.294Q806.373-204.345,805.656-204.345Z" transform="translate(1006.782 624.289)" fill="#123b49"/>
    <path id="Path_2098" data-name="Path 2098" d="M389.014-197.982A3.653,3.653,0,0,1,385.321-194a4.344,4.344,0,0,1-4.264-3.978,3.651,3.651,0,0,1,3.69-3.978A4.347,4.347,0,0,1,389.014-197.982Z" transform="translate(1012.446 626.603)" fill="#fafafa"/>
    <path id="Path_2099" data-name="Path 2099" d="M395.882-197.982A3.653,3.653,0,0,1,392.189-194a4.344,4.344,0,0,1-4.264-3.978,3.651,3.651,0,0,1,3.691-3.978A4.347,4.347,0,0,1,395.882-197.982Z" transform="translate(1019.11 626.603)" fill="#fafafa"/>
    <path id="Path_2100" data-name="Path 2100" d="M402.75-197.982A3.653,3.653,0,0,1,399.058-194a4.347,4.347,0,0,1-4.266-3.978,3.653,3.653,0,0,1,3.693-3.978A4.347,4.347,0,0,1,402.75-197.982Z" transform="translate(1025.774 626.603)" fill="#fafafa"/>
    <path id="Path_2101" data-name="Path 2101" d="M810.024,63.22H406.289a6.871,6.871,0,0,1-6.743-6.291L382.5-179.857a5.777,5.777,0,0,1,5.838-6.291H792.068a6.871,6.871,0,0,1,6.743,6.291L815.862,56.928A5.776,5.776,0,0,1,810.024,63.22Z" transform="translate(1013.835 641.947)" fill="#fff"/>
    <path id="Path_2102" data-name="Path 2102" d="M553.166-54.518l-6.572-91.266L526.68-157.77H471.9L479.33-54.518Z" transform="translate(1100.602 669.484)" fill="#fff"/>
    <path id="Path_2103" data-name="Path 2103" d="M553.637-53.093H479.8a.954.954,0,0,1-.952-.887L471.413-157.23a.953.953,0,0,1,.252-.719.956.956,0,0,1,.7-.305h54.784a.944.944,0,0,1,.493.138l19.914,11.986a.958.958,0,0,1,.461.749l6.571,91.265a.947.947,0,0,1-.254.719A.948.948,0,0,1,553.637-53.093ZM480.688-55H552.61l-6.463-89.748-19.262-11.6H473.392Z" transform="translate(1100.132 669.013)" fill="#1a5669"/>
    <path id="Path_2104" data-name="Path 2104" d="M519.614-145.784,499.7-157.77l7.311,15.88Z" transform="translate(1127.583 669.484)" fill="#ebebeb"/>
    <path id="Path_2105" data-name="Path 2105" d="M507.481-140.465a.957.957,0,0,1-.867-.556L499.3-156.9a.954.954,0,0,1,.231-1.109.956.956,0,0,1,1.129-.108l19.914,11.988a.955.955,0,0,1,.455.934.953.953,0,0,1-.666.8l-12.6,3.893A.934.934,0,0,1,507.481-140.465Zm-5.149-14.419L508-142.579l9.763-3.017Z" transform="translate(1127.112 669.013)" fill="#1a5669"/>
    <g id="Group_6231" data-name="Group 6231" transform="translate(1590.211 554.063)">
      <path id="Path_2106" data-name="Path 2106" d="M491.695-132.106a3.83,3.83,0,0,1-3.872,4.171,4.555,4.555,0,0,1-4.471-4.171,3.828,3.828,0,0,1,3.87-4.171A4.554,4.554,0,0,1,491.695-132.106Z" transform="translate(-478.502 136.277)" fill="#1a5669"/>
      <path id="Path_2107" data-name="Path 2107" d="M505.431-132.106a3.831,3.831,0,0,1-3.872,4.171,4.555,4.555,0,0,1-4.471-4.171,3.827,3.827,0,0,1,3.87-4.171A4.555,4.555,0,0,1,505.431-132.106Z" transform="translate(-465.173 136.277)" fill="#1a5669"/>
      <path id="Path_2108" data-name="Path 2108" d="M528.777-113.064a.954.954,0,0,1-.95-.885c-.485-6.707-11-12.163-23.447-12.163-8.246,0-15.651,2.451-19.323,6.4a7.368,7.368,0,0,0-2.244,5.627.955.955,0,0,1-.885,1.021.956.956,0,0,1-1.021-.883,9.321,9.321,0,0,1,2.753-7.066c4.022-4.323,11.962-7.009,20.72-7.009,13.653,0,24.789,6.122,25.351,13.936a.954.954,0,0,1-.883,1.021Z" transform="translate(-480.885 144.286)" fill="#1a5669"/>
    </g>
    <path id="Path_2109" data-name="Path 2109" d="M480.249-135.288a.953.953,0,0,1-.65-.256.956.956,0,0,1-.049-1.35l4.183-4.508a.956.956,0,0,1,1.35-.049.954.954,0,0,1,.051,1.35l-4.185,4.508A.949.949,0,0,1,480.249-135.288Z" transform="translate(1107.782 685.071)" fill="#1a5669"/>
    <path id="Path_2110" data-name="Path 2110" d="M507.047-135.288a.952.952,0,0,1-.65-.258l-4.835-4.508a.955.955,0,0,1-.045-1.35.955.955,0,0,1,1.35-.045l4.833,4.508a.955.955,0,0,1,.045,1.35A.95.95,0,0,1,507.047-135.288Z" transform="translate(1129.095 685.071)" fill="#1a5669"/>
    <g id="Group_6233" data-name="Group 6233" transform="translate(1566.535 635.104)">
      <path id="Path_2111" data-name="Path 2111" d="M468.869-95.013h4.453l6.425,8.538-.615-8.538h4.5l1.111,15.434h-4.5l-6.39-8.475.611,8.475H469.98Z" transform="translate(-468.869 95.277)" fill="#1a5669"/>
      <path id="Path_2112" data-name="Path 2112" d="M477.962-87.155a7.485,7.485,0,0,1,1.681-5.885,7.41,7.41,0,0,1,5.712-2.106,8.6,8.6,0,0,1,6.086,2.069,8.378,8.378,0,0,1,2.5,5.795,9.153,9.153,0,0,1-.591,4.437,5.848,5.848,0,0,1-2.437,2.7,8.291,8.291,0,0,1-4.221.964,10.288,10.288,0,0,1-4.382-.832,7.226,7.226,0,0,1-2.963-2.632A9.216,9.216,0,0,1,477.962-87.155Zm4.77.02a5.505,5.505,0,0,0,1.109,3.359,3.168,3.168,0,0,0,2.437,1.021,2.727,2.727,0,0,0,2.307-1q.771-1,.583-3.59a5.069,5.069,0,0,0-1.107-3.184,3.233,3.233,0,0,0-2.457-1,2.689,2.689,0,0,0-2.242,1.021A4.943,4.943,0,0,0,482.733-87.135Z" transform="translate(-460.077 95.147)" fill="#1a5669"/>
      <path id="Path_2113" data-name="Path 2113" d="M490.764-95.013h7.085a8.819,8.819,0,0,1,3.426.567,6.106,6.106,0,0,1,2.248,1.633,7.339,7.339,0,0,1,1.4,2.473,11.876,11.876,0,0,1,.6,2.989,10.105,10.105,0,0,1-.288,3.838,5.747,5.747,0,0,1-1.4,2.284A4.642,4.642,0,0,1,501.773-80a10.762,10.762,0,0,1-2.812.422h-7.086Zm5.021,3.5.607,8.431h1.17a4.757,4.757,0,0,0,2.1-.331,2.034,2.034,0,0,0,.906-1.159,7.111,7.111,0,0,0,.164-2.678,5.513,5.513,0,0,0-1.04-3.359,3.615,3.615,0,0,0-2.719-.9Z" transform="translate(-447.623 95.277)" fill="#1a5669"/>
      <path id="Path_2114" data-name="Path 2114" d="M509.4-82.127H503.99l-.569,2.548h-4.869l4.69-15.434h5.2l6.91,15.434H510.36Zm-1.229-3.338-2.1-5.549-1.285,5.549Z" transform="translate(-440.066 95.277)" fill="#1a5669"/>
      <path id="Path_2115" data-name="Path 2115" d="M505.981-95.013h14.5l.274,3.811h-4.863l.837,11.623h-4.77L511.12-91.2h-4.865Z" transform="translate(-432.857 95.277)" fill="#1a5669"/>
      <path id="Path_2116" data-name="Path 2116" d="M524.322-82.127h-5.415l-.567,2.548h-4.871l4.69-15.434h5.2l6.912,15.434h-4.995Zm-1.229-3.338-2.1-5.549L519.7-85.465Z" transform="translate(-425.591 95.277)" fill="#1a5669"/>
    </g>
  </g>
</svg>
