<svg xmlns="http://www.w3.org/2000/svg" width="486.597" height="413.627" viewBox="0 0 486.597 413.627">
  <g id="Group_7820" data-name="Group 7820" transform="translate(-724.066 -510)">
    <rect id="Rectangle_2601" data-name="Rectangle 2601" width="40.55" height="0.306" transform="translate(1170.113 888.036)" fill="#ebebeb"/>
    <rect id="Rectangle_2602" data-name="Rectangle 2602" width="10.639" height="0.306" transform="translate(1054.721 891.366)" fill="#ebebeb"/>
    <rect id="Rectangle_2603" data-name="Rectangle 2603" width="23.495" height="0.306" transform="translate(1145.393 876.673)" fill="#ebebeb"/>
    <rect id="Rectangle_2604" data-name="Rectangle 2604" width="52.879" height="0.306" transform="translate(724.066 878.731)" fill="#ebebeb"/>
    <rect id="Rectangle_2605" data-name="Rectangle 2605" width="7.75" height="0.306" transform="translate(787.854 878.731)" fill="#ebebeb"/>
    <rect id="Rectangle_2606" data-name="Rectangle 2606" width="114.695" height="0.306" transform="translate(820.801 883.897)" fill="#ebebeb"/>
    <path id="Path_2987" data-name="Path 2987" d="M400.108,185.769,380.054,89.72H348.76l20.055,96.048Z" transform="translate(738.074 420.28)" fill="#fff"/>
    <path id="Path_2989" data-name="Path 2989" d="M365.561,185.769,345.507,89.72H333.3l20.067,96.048Z" transform="translate(734.606 420.28)" fill="#fff"/>
    <path id="Path_2996" data-name="Path 2996" d="M83.221,385.68H65.37v-17.9h36.558Z" transform="translate(674.503 482.657)" fill="#fafafa"/>
    <path id="Path_2997" data-name="Path 2997" d="M215.758,385.68H233.6v-17.9H197.05Z" transform="translate(704.041 482.657)" fill="#fafafa"/>
    <path id="Path_2998" data-name="Path 2998" d="M5.6,0H111.022a5.607,5.607,0,0,1,5.607,5.607v.38H0v-.38A5.607,5.607,0,0,1,5.6,0Z" transform="translate(897.076 788.008) rotate(180)" fill="#fafafa"/>
    <path id="Path_2999" data-name="Path 2999" d="M5.6,0H111.022a5.607,5.607,0,0,1,5.607,5.607v.38H0v-.38A5.607,5.607,0,0,1,5.6,0Z" transform="translate(897.076 750.495) rotate(180)" fill="#fafafa"/>
    <path id="Path_3000" data-name="Path 3000" d="M5.6,0H111.022a5.607,5.607,0,0,1,5.607,5.607v.38H0v-.38A5.607,5.607,0,0,1,5.6,0Z" transform="translate(897.076 825.521) rotate(180)" fill="#fafafa"/>
    <path id="Path_3001" data-name="Path 3001" d="M184.488,185.769,164.434,89.72H133.14l20.055,96.048Z" transform="translate(689.705 420.28)" fill="#fff"/>
    <path id="Path_3003" data-name="Path 3003" d="M149.941,185.769,129.887,89.72H117.68l20.054,96.048Z" transform="translate(686.236 420.28)" fill="#fff"/>
    <g id="freepik--Shadow--inject-19" transform="translate(728.535 895.908)">
      <ellipse id="freepik--path--inject-19" cx="237.385" cy="13.859" rx="237.385" ry="13.859" transform="translate(0 0)" fill="rgba(26,86,105,0.19)"/>
    </g>
    <g id="freepik--window-no-data--inject-19" transform="translate(786.094 585.54)">
      <rect id="Rectangle_2640" data-name="Rectangle 2640" width="1.224" height="22.638" transform="translate(0 62.455) rotate(-4.12)" fill="#1a5669"/>
      <rect id="Rectangle_2641" data-name="Rectangle 2641" width="1.224" height="8.521" transform="translate(2.456 96.691) rotate(-4.12)" fill="#1a5669"/>
      <path id="Path_3013" data-name="Path 3013" d="M390.236,351.892h-262.2a11.815,11.815,0,0,1-11.558-10.786L103.6,162.194a9.917,9.917,0,0,1,10-10.774H375.8a11.815,11.815,0,0,1,11.558,10.774l12.88,178.911a9.929,9.929,0,0,1-10,10.786Z" transform="translate(-103.024 -151.419)" fill="#1a5669"/>
      <path id="Path_3014" data-name="Path 3014" d="M391.056,351.892h-262.2A11.815,11.815,0,0,1,117.3,341.105l-12.88-178.911a9.917,9.917,0,0,1,10-10.774h262.2a11.815,11.815,0,0,1,11.558,10.774l12.88,178.911a9.917,9.917,0,0,1-10,10.786Z" transform="translate(-102.841 -151.419)" fill="#1a5669"/>
      <path id="Path_3015" data-name="Path 3015" d="M391.056,351.892h-262.2A11.815,11.815,0,0,1,117.3,341.105l-12.88-178.911a9.917,9.917,0,0,1,10-10.774h262.2a11.815,11.815,0,0,1,11.558,10.774l12.88,178.911a9.917,9.917,0,0,1-10,10.786Z" transform="translate(-102.841 -151.419)" fill="#fff" opacity="0.5"/>
      <path id="Path_3016" data-name="Path 3016" d="M376.067,155.82H112.983c-6.7.551-5.326,10.75,1.432,10.75H377.058c6.771,0,6.673-10.2-.11-10.75Z" transform="translate(-101.894 -150.432)" fill="#1a5669"/>
      <path id="Path_3017" data-name="Path 3017" d="M119.388,160.669a2.265,2.265,0,0,1-2.3,2.449,2.694,2.694,0,0,1-2.645-2.449,2.265,2.265,0,0,1,2.289-2.449,2.694,2.694,0,0,1,2.657,2.449Z" transform="translate(-100.585 -149.894)" fill="#fafafa"/>
      <path id="Path_3018" data-name="Path 3018" d="M126.258,160.669a2.265,2.265,0,0,1-2.3,2.449,2.694,2.694,0,0,1-2.645-2.449,2.265,2.265,0,0,1,2.289-2.449A2.694,2.694,0,0,1,126.258,160.669Z" transform="translate(-99.044 -149.894)" fill="#fafafa"/>
      <path id="Path_3019" data-name="Path 3019" d="M133.116,160.669a2.265,2.265,0,0,1-2.289,2.449,2.681,2.681,0,0,1-2.645-2.449,2.253,2.253,0,0,1,2.289-2.449,2.694,2.694,0,0,1,2.645,2.449Z" transform="translate(-97.503 -149.894)" fill="#fafafa"/>
      <path id="Path_3020" data-name="Path 3020" d="M381.514,328.971H130.71a4.273,4.273,0,0,1-4.187-3.918l-10.59-147.127a3.575,3.575,0,0,1,3.673-3.906H370.47a4.261,4.261,0,0,1,4.187,3.906l10.6,147.127a3.6,3.6,0,0,1-3.746,3.918Z" transform="translate(-100.252 -146.35)" fill="#fff"/>
      <path id="Path_3021" data-name="Path 3021" d="M255.784,266.555l-4.089-56.711L239.329,202.4H205.28l4.628,64.155Z" transform="translate(-80.206 -139.983)" fill="#fff"/>
      <path id="Path_3022" data-name="Path 3022" d="M255.891,267.252H210.016a.588.588,0,0,1-.6-.551L204.8,202.547a.575.575,0,0,1,.159-.441.588.588,0,0,1,.428-.2h34.049a.674.674,0,0,1,.306.086l12.366,7.444a.588.588,0,0,1,.294.465l4.065,56.711a.563.563,0,0,1-.159.453.576.576,0,0,1-.416.184Zm-45.3-1.224h44.651l-4.016-55.768-11.9-7.162h-33.3Z" transform="translate(-80.314 -140.093)" fill="#1a5669"/>
      <path id="Path_3023" data-name="Path 3023" d="M245.456,209.844,233.09,202.4l4.542,9.868Z" transform="translate(-73.967 -139.983)" fill="#ebebeb"/>
      <path id="Path_3024" data-name="Path 3024" d="M237.741,212.966a.6.6,0,0,1-.539-.343l-4.542-9.868A.59.59,0,0,1,233.5,202l12.366,7.444a.612.612,0,0,1,.294.588.6.6,0,0,1-.416.49l-7.836,2.449Zm-3.2-8.962,3.514,7.652,6.122-1.873Z" transform="translate(-74.076 -140.093)" fill="#1a5669"/>
      <path id="Path_3025" data-name="Path 3025" d="M221.958,226.476a2.449,2.449,0,0,1-2.449,2.583,2.828,2.828,0,0,1-2.767-2.583,2.375,2.375,0,0,1,2.449-2.6,2.841,2.841,0,0,1,2.767,2.6Z" transform="translate(-77.637 -135.165)" fill="#1a5669"/>
      <path id="Path_3026" data-name="Path 3026" d="M235.659,226.476a2.375,2.375,0,0,1-2.449,2.583,2.84,2.84,0,0,1-2.779-2.583,2.449,2.449,0,0,1,2.449-2.6A2.828,2.828,0,0,1,235.659,226.476Z" transform="translate(-74.565 -135.164)" fill="#1a5669"/>
      <path id="Path_3027" data-name="Path 3027" d="M244.039,241.445a.6.6,0,0,1-.588-.551c-.306-4.175-6.844-7.566-14.569-7.566-5.13,0-9.733,1.53-12.011,3.979a4.579,4.579,0,0,0-1.4,3.5.614.614,0,0,1-1.224.086,5.828,5.828,0,0,1,1.714-4.4c2.449-2.681,7.432-4.359,12.88-4.359,8.485,0,15.4,3.808,15.745,8.668a.588.588,0,0,1-.551.624Z" transform="translate(-78.195 -133.312)" fill="#1a5669"/>
      <path id="Path_3028" data-name="Path 3028" d="M213.276,222.448a.624.624,0,0,1-.4-.159.6.6,0,0,1,0-.845l2.608-2.8a.6.6,0,0,1,.833,0,.588.588,0,0,1,0,.833l-2.608,2.8a.587.587,0,0,1-.428.171Z" transform="translate(-78.542 -136.377)" fill="#1a5669"/>
      <path id="Path_3029" data-name="Path 3029" d="M238.236,222.448a.673.673,0,0,1-.4-.159l-3-2.8a.588.588,0,0,1,0-.845.6.6,0,0,1,.833,0l3,2.8a.588.588,0,0,1,0,.833.637.637,0,0,1-.428.171Z" transform="translate(-73.616 -136.377)" fill="#1a5669"/>
      <path id="Path_3030" data-name="Path 3030" d="M202.26,265.15h2.767l3.991,5.314-.38-5.314h2.791l.686,9.6h-2.828l-3.967-5.277.38,5.277h-2.791Z" transform="translate(-80.883 -125.907)" fill="#1a5669"/>
      <path id="Path_3031" data-name="Path 3031" d="M211.339,269.985a4.653,4.653,0,0,1,1.053-3.673,4.6,4.6,0,0,1,3.551-1.31,5.363,5.363,0,0,1,3.783,1.285,5.29,5.29,0,0,1,1.555,3.6,5.841,5.841,0,0,1-.367,2.755,3.673,3.673,0,0,1-1.518,1.677,5.093,5.093,0,0,1-2.62.6,6.427,6.427,0,0,1-2.73-.514,4.432,4.432,0,0,1-1.836-1.641,5.7,5.7,0,0,1-.869-2.779Zm2.975,0a3.343,3.343,0,0,0,.686,2.081,1.947,1.947,0,0,0,1.518.637,1.689,1.689,0,0,0,1.432-.624,3.366,3.366,0,0,0,.331-2.179,3.147,3.147,0,0,0-.686-1.983,2.008,2.008,0,0,0-1.53-.624,1.69,1.69,0,0,0-1.4.637,3.1,3.1,0,0,0-.355,2.081Z" transform="translate(-78.857 -125.942)" fill="#1a5669"/>
      <path id="Path_3032" data-name="Path 3032" d="M224.15,265.151h4.408a5.521,5.521,0,0,1,2.13.355,3.745,3.745,0,0,1,1.4,1.016,4.6,4.6,0,0,1,.869,1.53,7.713,7.713,0,0,1,.367,1.861,6.219,6.219,0,0,1-.184,2.387,3.429,3.429,0,0,1-.869,1.42,2.816,2.816,0,0,1-1.224.759,6.861,6.861,0,0,1-1.751.269h-4.4Zm3.122,2.179.38,5.24h.722a3,3,0,0,0,1.31-.208,1.224,1.224,0,0,0,.563-.722,4.335,4.335,0,0,0,.1-1.665,3.33,3.33,0,0,0-.649-2.081,2.216,2.216,0,0,0-1.69-.563Z" transform="translate(-75.973 -125.907)" fill="#1a5669"/>
      <path id="Path_3033" data-name="Path 3033" d="M238.686,273.157h-3.367l-.355,1.592H231.94l2.914-9.6h3.281l4.3,9.6h-3.11Zm-.771-2.069-1.3-3.453-.808,3.453Z" transform="translate(-74.225 -125.907)" fill="#1a5669"/>
      <path id="Path_3034" data-name="Path 3034" d="M239.37,265.15h9.011l.171,2.375h-3.024l.514,7.224H243.08l-.514-7.224h-3.024Z" transform="translate(-72.558 -125.907)" fill="#1a5669"/>
      <path id="Path_3035" data-name="Path 3035" d="M253.606,273.157h-3.367l-.355,1.592H246.86l2.914-9.6h3.232l4.285,9.6h-3.1Zm-.771-2.069-1.31-3.453-.82,3.453Z" transform="translate(-70.878 -125.907)" fill="#1a5669"/>
    </g>
    <g id="freepik--Character--inject-19" transform="translate(1011.731 538.494)">
      <path id="Path_3036" data-name="Path 3036" d="M353.69,182.221c1.09-.551,2.449-1.224,3.6-1.922s2.449-1.371,3.673-2.106c2.387-1.481,4.812-2.938,7.1-4.555a94.2,94.2,0,0,0,12.88-10.6c.5-.465.943-.979,1.42-1.481l.7-.747.343-.367.171-.2h0c-.171.331,0,.233,0-.086a6.464,6.464,0,0,0,.184-1.335,37.476,37.476,0,0,0-.894-7.738c-1.09-5.485-2.742-11.141-4.371-16.675l4.75-2.081a99.551,99.551,0,0,1,7.481,16.651,38.771,38.771,0,0,1,2.106,9.66,14.691,14.691,0,0,1-.1,3.073,9.44,9.44,0,0,1-1.494,4.028l-.208.282-.159.2-.184.233-.38.465-.759.918c-.5.6-.992,1.224-1.53,1.8a87.969,87.969,0,0,1-13.933,12.488,92.4,92.4,0,0,1-7.7,5.13c-1.31.8-2.645,1.555-4,2.3s-2.681,1.432-4.248,2.167Z" transform="translate(-272.55 -108.655)" fill="#ffb573"/>
      <path id="Path_3037" data-name="Path 3037" d="M345.226,408.657a12.575,12.575,0,0,0,2.718-.367.269.269,0,0,0,.184-.2.257.257,0,0,0-.11-.245c-.355-.233-3.465-2.241-4.665-1.7a.833.833,0,0,0-.478.686,1.384,1.384,0,0,0,.4,1.286A2.878,2.878,0,0,0,345.226,408.657Zm2.02-.71c-1.775.355-3.122.294-3.673-.184a.943.943,0,0,1-.245-.869.367.367,0,0,1,.208-.306C344.185,406.306,345.985,407.212,347.246,407.947Z" transform="translate(-274.983 -47.251)" fill="#1a5669"/>
      <path id="Path_3038" data-name="Path 3038" d="M347.5,408.726h.122a.257.257,0,0,0,.122-.208c0-.135,0-3.085-1.126-4.065a1.224,1.224,0,0,0-1.028-.331.845.845,0,0,0-.82.673c-.233,1.224,1.628,3.367,2.608,3.93a.22.22,0,0,0,.122,0Zm-1.751-4.15a.808.808,0,0,1,.539.208,5.546,5.546,0,0,1,.955,3.232c-.979-.784-2.143-2.449-2-3.147,0-.11.086-.257.392-.294Z" transform="translate(-274.555 -47.688)" fill="#1a5669"/>
      <path id="Path_3039" data-name="Path 3039" d="M349.894,148.07c-1.224,6.122-3.673,18.365.551,22.466,0,0-1.665,6.122-12.966,6.122-12.439,0-5.938-6.122-5.938-6.122,6.783-1.616,6.6-6.648,5.424-11.386Z" transform="translate(-277.9 -105.124)" fill="#ffb573"/>
      <path id="Path_3040" data-name="Path 3040" d="M329.447,169.69c-1.947.269-.282-4.787.5-5.314,1.836-1.224,25.539-2.926,25.38,0-.1,1.224-.686,3.673-1.714,4.481S346.489,167.143,329.447,169.69Z" transform="translate(-278.193 -101.829)" fill="#263238"/>
      <path id="Path_3041" data-name="Path 3041" d="M332.668,168.755c-1.555.526-1.408-4.567-.882-5.179,1.224-1.42,20.41-6.342,20.973-3.563.22,1.224.331,3.673-.331,4.542S346.136,163.992,332.668,168.755Z" transform="translate(-277.546 -102.632)" fill="#263238"/>
      <path id="Path_3042" data-name="Path 3042" d="M327.364,139.6a.49.49,0,0,1-.4-.184,3.894,3.894,0,0,0-3.171-1.506.478.478,0,0,1-.539-.429.49.49,0,0,1,.429-.526,4.787,4.787,0,0,1,4.028,1.849.49.49,0,0,1-.061.686.612.612,0,0,1-.282.11Z" transform="translate(-279.379 -107.62)" fill="#263238"/>
      <path id="Path_3043" data-name="Path 3043" d="M325.119,144a21.925,21.925,0,0,1-2.449,5.546,3.55,3.55,0,0,0,2.987.257Z" transform="translate(-279.509 -106.037)" fill="#ff5652"/>
      <path id="Path_3044" data-name="Path 3044" d="M325.518,143.046c.086.82-.294,1.53-.833,1.579s-1.041-.563-1.114-1.4.294-1.53.82-1.579S325.433,142.214,325.518,143.046Z" transform="translate(-279.309 -106.565)" fill="#263238"/>
      <path id="Path_3045" data-name="Path 3045" d="M324.812,141.74l-2.032-.38S323.943,142.8,324.812,141.74Z" transform="translate(-279.484 -106.629)" fill="#263238"/>
      <path id="Path_3046" data-name="Path 3046" d="M358.58,412.042H348.32l.808-23.752h10.26Z" transform="translate(-273.755 -51.236)" fill="#ffb573"/>
      <path id="Path_3047" data-name="Path 3047" d="M350.368,406.72h11.521a.808.808,0,0,1,.82.7l1.31,9.109a1.641,1.641,0,0,1-1.641,1.824c-4.016-.061-5.95-.306-11.019-.306-3.122,0-7.677.331-11.974.331s-4.542-4.261-2.742-4.64c8.031-1.739,9.3-4.114,12.011-6.391a2.706,2.706,0,0,1,1.714-.624Z" transform="translate(-276.611 -47.102)" fill="#263238"/>
      <g id="Group_7819" data-name="Group 7819" transform="translate(74.957 337.054)" opacity="0.2">
        <path id="Path_3048" data-name="Path 3048" d="M359.316,388.29h-10.26l-.416,12.243H358.9Z" transform="translate(-348.64 -388.29)"/>
      </g>
      <path id="Path_3049" data-name="Path 3049" d="M331.435,187.424a198.926,198.926,0,0,1-18.426-8.264,111.7,111.7,0,0,1-17.63-10.737,42,42,0,0,1-4.187-3.759c-.343-.367-.686-.71-1.016-1.139a13.853,13.853,0,0,1-1.077-1.384,9.671,9.671,0,0,1-1.641-4.42,10.064,10.064,0,0,1,.6-4.432,13.029,13.029,0,0,1,1.726-3.183,22.2,22.2,0,0,1,4.15-4.31,51.423,51.423,0,0,1,8.938-5.718c1.518-.808,3.061-1.53,4.628-2.2s3.11-1.31,4.787-1.885l2.167,4.714c-5.338,3.367-10.872,7.077-14.937,11.215a16.97,16.97,0,0,0-2.387,3.049c-.588.967-.575,1.69-.478,1.628s0,0,.171.122l.49.526c.184.22.441.441.673.673a31.36,31.36,0,0,0,3.293,2.645,77.028,77.028,0,0,0,7.885,4.9c2.755,1.543,5.6,3,8.485,4.4,5.779,2.767,11.754,5.424,17.618,7.848Z" transform="translate(-287.417 -107.834)" fill="#ffb573"/>
      <path id="Path_3050" data-name="Path 3050" d="M313.285,138.305l1.69-3.673L307.237,132s-2.449,7.236.453,10.566h0A7.407,7.407,0,0,0,313.285,138.305Z" transform="translate(-283.188 -108.729)" fill="#ffb573"/>
      <path id="Path_3051" data-name="Path 3051" d="M314.761,127.988,308.6,126.2l-1.543,7.052,7.7,2.681Z" transform="translate(-283.011 -110.03)" fill="#ffb573"/>
      <path id="Path_3052" data-name="Path 3052" d="M379.64,136.01l.894-8.57-7.934,1.91s-.122,8.056,4.077,9.329Z" transform="translate(-268.308 -109.752)" fill="#ffb573"/>
      <path id="Path_3053" data-name="Path 3053" d="M376.909,122.51l-5.179,2.412,1.065,5.473,7.934-1.873Z" transform="translate(-268.503 -110.858)" fill="#ffb573"/>
      <path id="Path_3054" data-name="Path 3054" d="M352.777,140.728c.38,10.174.747,14.472-3.844,20.165-6.917,8.57-19.491,6.8-22.895-3.061-3.061-8.864-3.159-24.009,6.342-29a13.884,13.884,0,0,1,20.4,11.9Z" transform="translate(-279.167 -109.805)" fill="#ffb573"/>
      <path id="Path_3055" data-name="Path 3055" d="M348.521,162.22c9.991-4.322,16.553-13.468,13.786-27.645-2.657-13.6-11.839-14.949-15.635-12.133s-13.259-1.383-18.94,3.391c-9.795,8.289-.539,17.141,4.31,22.491C334.931,154.274,338.726,166.444,348.521,162.22Z" transform="translate(-279.342 -111.145)" fill="#263238"/>
      <path id="Path_3056" data-name="Path 3056" d="M340.9,133.143a10.15,10.15,0,1,0,2.24-14.594A10.444,10.444,0,0,0,340.9,133.143Z" transform="translate(-275.873 -112.149)" fill="#1a5669"/>
      <path id="Path_3057" data-name="Path 3057" d="M342.681,125.245c-1.432-8.2,6.318-14.521,16.7-11.472s4.9,12.243,2.755,19.589,3.465,14.349,5.791,8.754-1.592-7.346-1.592-7.346,11.019,2.853.784,15.28-19.5-1.3-16.994-9.391C352.158,134.158,344.04,132.995,342.681,125.245Z" transform="translate(-275.058 -112.993)" fill="#263238"/>
      <path id="Path_3058" data-name="Path 3058" d="M337.625,125.934c-4.738-2.449-12.758-4.469-17.324,3.22-2.155,3.673-1.322,8.57-1.322,8.57l13.945.918Z" transform="translate(-280.372 -110.584)" fill="#263238"/>
      <path id="Path_3059" data-name="Path 3059" d="M317.664,135.4h0a.318.318,0,0,1-.294-.331c0-.208.355-5.13,3.33-8.215,7.187-7.468,15.61-1.224,18.01.8a.306.306,0,0,1-.392.465c-2.314-1.983-10.37-7.921-17.141-.845-2.816,2.926-3.159,7.787-3.159,7.836a.306.306,0,0,1-.355.294Z" transform="translate(-280.698 -110.685)" fill="#263238"/>
      <path id="Path_3060" data-name="Path 3060" d="M332.993,143.545a8.435,8.435,0,0,1-2.02,5.24c-1.69,1.983-3.673,1-4.077-1.224-.4-1.971,0-5.387,2.13-6.575S333.017,141.317,332.993,143.545Z" transform="translate(-278.592 -106.806)" fill="#ffb573"/>
      <path id="Path_3061" data-name="Path 3061" d="M330.05,219.12s.661,71.195,6.832,110.863c5,32.041,14.214,106.137,14.214,106.137H365.09s1.359-71.537-1.224-103.223c-6.4-80.193,10.137-95.191-3.208-113.777Z" transform="translate(-277.853 -89.186)" fill="#263238"/>
      <path id="Path_3062" data-name="Path 3062" d="M330.05,219.12s.661,71.195,6.832,110.863c5,32.041,14.214,106.137,14.214,106.137H365.09s1.359-71.537-1.224-103.223c-6.4-80.193,10.137-95.191-3.208-113.777Z" transform="translate(-277.853 -89.186)" fill="#fff" opacity="0.1"/>
      <path id="Path_3063" data-name="Path 3063" d="M337.283,246.612c4.9,21.487.992,55.327-1.69,70.227-2.84-22.626-4.273-51.948-4.983-73.46C333.144,239.29,335.544,239.021,337.283,246.612Z" transform="translate(-277.728 -84.38)" opacity="0.3"/>
      <path id="Path_3064" data-name="Path 3064" d="M345.7,397.841h17.814l.93-6.244L345.6,390.96Z" transform="translate(-274.365 -50.637)" fill="#1a5669"/>
      <path id="Path_3065" data-name="Path 3065" d="M350.077,170.992c1.677-3.33,10.688-5.424,15.61-5.412l3.673,16.357s-9.795,14.557-13.884,13.015C350.665,193.176,346.49,178.178,350.077,170.992Z" transform="translate(-273.663 -101.196)" fill="#1a5669"/>
      <path id="Path_3066" data-name="Path 3066" d="M350.077,170.992c1.677-3.33,10.688-5.424,15.61-5.412l3.673,16.357s-9.795,14.557-13.884,13.015C350.665,193.176,346.49,178.178,350.077,170.992Z" transform="translate(-273.663 -101.196)" opacity="0.4"/>
      <path id="Path_3067" data-name="Path 3067" d="M342.452,393.378a.233.233,0,0,0,0-.233.245.245,0,0,0-.257-.135c-.514.086-5.044.8-5.656,2.094a.8.8,0,0,0,0,.771,1.347,1.347,0,0,0,1.053.7c1.481.147,3.673-1.91,4.775-3.159Zm-5.436,1.885c.416-.686,2.767-1.322,4.554-1.653-1.616,1.641-3.036,2.559-3.869,2.449a.869.869,0,0,1-.686-.465.306.306,0,0,1,0-.306A.017.017,0,0,1,337.016,395.263Z" transform="translate(-276.42 -50.178)" fill="#1a5669"/>
      <path id="Path_3068" data-name="Path 3068" d="M342.323,393.773a.233.233,0,0,0,0-.233c-.073-.086-1.886-2.179-3.563-2.289a1.763,1.763,0,0,0-1.335.453c-.5.453-.453.845-.331,1.09.526,1.053,3.783,1.42,5.093,1.139a.22.22,0,0,0,.135-.159Zm-4.787-1.543a.967.967,0,0,1,.2-.22,1.224,1.224,0,0,1,.967-.331,5.632,5.632,0,0,1,2.926,1.8c-1.457.122-3.808-.318-4.126-.955a.294.294,0,0,1,.037-.294Z" transform="translate(-276.291 -50.573)" fill="#1a5669"/>
      <path id="Path_3069" data-name="Path 3069" d="M353.683,393.684l-9.378,4.175-4.175-8.705-5.461-11.386-.649-1.322,9.378-4.175.722,1.494,5.289,11.031Z" transform="translate(-276.963 -54.83)" fill="#ffb573"/>
      <path id="Path_3070" data-name="Path 3070" d="M349.291,384.521l-9.28,4.359-5.461-11.386,9.452-4Z" transform="translate(-276.844 -54.556)" opacity="0.2"/>
      <path id="Path_3071" data-name="Path 3071" d="M325.328,219.12s-29.959,74.537-21.842,109.553c7.346,31.7,39.791,91.727,39.791,91.727l12.574-6.293s-20.067-72.468-22.234-88.213C329.38,295.285,356.6,252.03,356.6,219.12Z" transform="translate(-284.125 -89.186)" fill="#263238"/>
      <path id="Path_3072" data-name="Path 3072" d="M325.328,219.12s-29.959,74.537-21.842,109.553c7.346,31.7,39.791,91.727,39.791,91.727l12.574-6.293s-20.067-72.468-22.234-88.213C329.38,295.285,356.6,252.03,356.6,219.12Z" transform="translate(-284.125 -89.186)" fill="#fff" opacity="0.1"/>
      <path id="Path_3073" data-name="Path 3073" d="M342.664,393.372l9.3-6.771a.808.808,0,0,1,1.077.074l6.428,6.6a1.653,1.653,0,0,1-.257,2.449c-3.293,2.3-5,3.257-9.085,6.232-2.522,1.837-7.542,5.889-11.019,8.423s-6.122-.771-4.9-2.13c5.485-6.122,6.636-9.917,7.493-13.357A2.657,2.657,0,0,1,342.664,393.372Z" transform="translate(-276.987 -51.654)" fill="#263238"/>
      <path id="Path_3074" data-name="Path 3074" d="M335.66,388.256l16.2-7.407-2.069-6.6-17.349,7.909Z" transform="translate(-277.317 -54.386)" fill="#1a5669"/>
      <path id="Path_3075" data-name="Path 3075" d="M331.5,170.93c-1.335-3.477-13.039-7.346-18.916-8.57L310,181.606s9.6,13.786,13.8,12.647C328.769,192.907,334.389,178.386,331.5,170.93Z" transform="translate(-282.351 -101.918)" fill="#1a5669"/>
      <path id="Path_3076" data-name="Path 3076" d="M331.5,170.93c-1.335-3.477-13.039-7.346-18.916-8.57L310,181.606s9.6,13.786,13.8,12.647C328.769,192.907,334.389,178.386,331.5,170.93Z" transform="translate(-282.351 -101.918)" opacity="0.4"/>
      <path id="Path_3077" data-name="Path 3077" d="M317.294,169.115s-4.9,1.714,4.9,61.89h41.627c-.7-16.945-.722-27.4,7.346-62.2a122.78,122.78,0,0,0-17.691-2.326,131.489,131.489,0,0,0-18.9,0A174.538,174.538,0,0,0,317.294,169.115Z" transform="translate(-280.99 -101.07)" fill="#1a5669"/>
      <path id="Path_3078" data-name="Path 3078" d="M317.294,169.115s-4.9,1.714,4.9,61.89h41.627c-.7-16.945-.722-27.4,7.346-62.2a122.78,122.78,0,0,0-17.691-2.326,131.489,131.489,0,0,0-18.9,0A174.538,174.538,0,0,0,317.294,169.115Z" transform="translate(-280.99 -101.07)" opacity="0.4"/>
      <path id="Path_3079" data-name="Path 3079" d="M363.584,217.19l1.873,3.673c.147.294-.2.588-.673.588H321.1c-.38,0-.686-.184-.71-.429l-.38-3.673c0-.257.306-.477.71-.477h42.129A.747.747,0,0,1,363.584,217.19Z" transform="translate(-280.106 -89.692)" fill="#1a5669"/>
      <path id="Path_3080" data-name="Path 3080" d="M363.584,217.19l1.873,3.673c.147.294-.2.588-.673.588H321.1c-.38,0-.686-.184-.71-.429l-.38-3.673c0-.257.306-.477.71-.477h42.129A.747.747,0,0,1,363.584,217.19Z" transform="translate(-280.106 -89.692)" fill="#fff" opacity="0.3"/>
      <path id="Path_3081" data-name="Path 3081" d="M351.177,221.992H352.3c.233,0,.4-.122.38-.257l-.526-4.9c0-.147-.208-.257-.429-.257H350.59c-.22,0-.392.11-.38.257l.526,4.9C350.724,221.845,350.92,221.992,351.177,221.992Z" transform="translate(-273.331 -89.755)" fill="#263238"/>
      <path id="Path_3082" data-name="Path 3082" d="M328.787,221.992h1.126c.22,0,.392-.122.38-.257l-.526-4.9c0-.147-.208-.257-.441-.257H328.2c-.233,0-.392.11-.38.257l.526,4.9C328.359,221.845,328.555,221.992,328.787,221.992Z" transform="translate(-278.354 -89.755)" fill="#263238"/>
    </g>
  </g>
</svg>
