<svg xmlns="http://www.w3.org/2000/svg" viewBox="0 0 359.17 347.29"><defs><style>.cls-1{fill:#31c191;}.cls-2{fill:#576cd2;}.cls-3{fill:#6e6e6e;}.cls-4{fill:#575757;}.cls-5{fill:#3f589d;}.cls-6{fill:#fbdbc7;}.cls-7{fill:#f2c88f;}.cls-8{fill:#dedede;}.cls-9{fill:#d6a15b;}.cls-10{fill:#eeb365;}.cls-11{fill:#f3ce9b;}.cls-12{fill:#f8dab6;}</style></defs><g id="Layer_2" data-name="Layer 2"><g id="Layer_1-2" data-name="Layer 1"><path class="cls-1" d="M290.24,245.38c19.69,0,39.39.12,59.07,0,3.05,0,3.95.65,3.94,3.84q-.19,47.1,0,94.21c0,3.15-.83,3.86-3.91,3.86q-74-.15-148.06,0c-3.2,0-3.83-.91-3.82-3.94q.18-47.1,0-94.22c0-2.82.56-3.8,3.62-3.76,11.71.17,23.42,0,35.14,0,1.44-1.32,3.25-1.1,5-1.1q22-.06,44.07,0C287,244.26,288.8,244.09,290.24,245.38Z"/><path class="cls-1" d="M161.65,293.44c0,16.7-.09,33.41,0,50.11,0,2.85-.61,3.75-3.64,3.74q-74.23-.15-148.47,0c-3,0-3.68-.87-3.65-3.73q.21-23.19,0-46.38c0-3.07.69-3.92,3.85-3.91,35.16.12,70.31.08,105.47.06,1.59,0,3.25.36,4.77-.49a7,7,0,0,1,4-.68c10.93,0,21.86,0,32.79,0C158.48,292.18,160.3,292,161.65,293.44Z"/><path class="cls-2" d="M137.86,167.66c-3.24-8.91-3.65-18.14-2.8-27.45.55-5.91,1.4-11.79,2.11-17.68l-1-.53q-7.5,11.2-15,22.43c-1.22.47-2.18-.15-3.12-.77-5.4-3.54-10.76-7.16-16.13-10.76-.93-.62-1.89-1.27-1.86-2.6,9.07-14.13,18.08-28.3,27.22-42.4a53.55,53.55,0,0,1,28.33-22,1.06,1.06,0,0,1,1-.1c6.07,3.77,12.31,7.29,17.63,12.15,12.2,5.2,19.9,14.15,22.47,27.27.42,2.18,1.52,2.69,3.6,2.66,7-.1,13.94,0,20.92,0,1.13.88.66,2,.42,3.06-1.4,5.89-2.91,11.76-4.38,17.63a5.26,5.26,0,0,1-1.89,3.09c-8.7,0-17.39.18-26.09,0-3.09-.07-4.08.58-3.6,3.88,1,6.63,1.47,13.32,2.16,20-.79,1.52-2.34,1.74-3.76,2.09-13.84,3.46-27.75,6.62-41.6,10C141,168,139.42,168.62,137.86,167.66Z"/><path class="cls-2" d="M102.63,228.33C94.12,236.89,85.7,245.55,77.06,254c-4.93,4.82-11.86,4.71-16.76-.15Q34.85,228.57,9.58,203.11c-4.88-4.91-5-11.83-.15-16.75,8.44-8.63,17.09-17.06,25.66-25.57,1.59.33,2.46,1.64,3.5,2.68Q69.3,194.13,100,224.82C101,225.86,102.29,226.74,102.63,228.33Z"/><path class="cls-3" d="M137.86,167.66l46.84-11.23c1.08-.26,2.14-.59,3.21-.89l-.06.11c2.75,3.67,1.84,8.1,2.35,12.17.82,6.6,1.5,13.24,2,19.89.1,1.36.35,2.71-.64,3.88q-17.45,34.89-34.89,69.78c-.44.88-.72,1.83-1.07,2.75a3,3,0,0,1-2.43.71c-9.59-.5-19.19-.08-28.78-.25-1.59,0-3.28.15-4.56-1.17Q134,229.3,148.19,195.2c1.05-2.49,1.18-4.31-.56-6.72A61.67,61.67,0,0,1,137.86,167.66Z"/><path class="cls-4" d="M191.55,191.59q-1.85-18-3.7-35.94,24.26,0,48.5,0c13.62,0,22.87,7.62,25.13,21.1,2.15,12.85,3.9,25.78,5.82,38.67-1.11,1.28-2.65,1.26-4.12,1.27q-11.34.1-22.68,0c-1.48,0-3,0-4.15-1.2-2.55-6.87-5.22-13.7-7.58-20.63-.86-2.51-2-3.42-4.74-3.37C213.21,191.69,202.38,191.59,191.55,191.59Z"/><path class="cls-5" d="M102.63,228.33c-.76-.63-1.58-1.21-2.28-1.91Q68.66,194.76,37,163.06c-.7-.69-1.28-1.51-1.91-2.27,2.92-3,5.72-6.14,8.8-9,4.61-4.24,11.33-4.15,16.16.2,2.83,2.56,5.39,5.43,8.07,8.16,4.09,2.25,6.48,6.43,10.26,9A191.76,191.76,0,0,1,94.19,185c2.6,3.8,6.81,6.17,9,10.27,2.73,2.69,5.61,5.24,8.16,8.07a11.87,11.87,0,0,1-.29,16.72C108.39,222.93,105.46,225.59,102.63,228.33Z"/><path class="cls-6" d="M174.3,77.92c-6.63-3.4-12.48-8-18.68-12Q159,48,162.32,30.07c1.09-1.4,2.67-1.7,4.3-1.89,13.17-1.58,26.33-3.3,39.51-4.9,1.46-.17,3-.54,4.17.79a241.73,241.73,0,0,1-5.7,28.76c-1.22,4.69-4.39,8.5-8.61,11.39C188.92,69.06,181.08,72.65,174.3,77.92Z"/><path class="cls-7" d="M246.17,48.67c-1.37-1.44.32-2,.92-2.58,8.77-8.85,17.62-17.63,26.39-26.48A5.48,5.48,0,0,1,277.81,18q21.49.06,43,0a5.52,5.52,0,0,1,4.34,1.65c8.76,8.85,17.61,17.63,26.38,26.48.61.62,2.28,1.15.91,2.58-6.39.85-12.81.27-19.22.36-4.81.07-9.62.22-14.42-.13a5.16,5.16,0,0,1-1.17-.3c-1.58-.7-2.35-2.15-3.19-3.53C310,37.72,305.6,30.31,301.15,23c-1.81-3-2-3-3.82,0-4.26,7-8.45,14.11-12.71,21.15-1,1.59-1.75,3.33-3.42,4.39a4.68,4.68,0,0,1-1.2.39C268.72,49.09,257.44,49.47,246.17,48.67Z"/><path class="cls-8" d="M56.36,77.85q19.45,0,38.9,0c2.59,0,4.62.86,5.84,3.24a5.82,5.82,0,0,1-.5,6.36c-1.54,2.18-3.85,2.41-6.33,2.4q-37.39,0-74.81,0c-1.89,0-3.76,0-5.3,1.31a5.75,5.75,0,0,0-1.95,6.39,5.64,5.64,0,0,0,5.87,4.28c7.48,0,15,0,22.44,0,4.81,0,7.36,2.1,7.36,6s-2.56,6-7.36,6q-11,0-22.07,0A18.19,18.19,0,0,1,0,95.74c0-9.93,8.26-17.88,18.59-17.89Z"/><path class="cls-5" d="M236.35,215.51l31-.07c14.82,2.07,22.87,11.29,22.91,26.22,0,1.24,0,2.48,0,3.72l-54,0c-9.55-5.22-11.14-11.22-5.48-20.65Q233.54,220.09,236.35,215.51Z"/><path class="cls-5" d="M119.82,263.41h25.77c3.35,0,6.71-.13,10,.71,12.66,4.33,18.75,13.5,18,26.93-.1,1.75-.53,2.38-2.33,2.33-3.21-.1-6.44,0-9.66.06l-36.89-.1c-1.61,0-3.24.17-4.77-.51-8.2-2.53-11.42-10.22-7.27-17.66C115,271.18,117.45,267.32,119.82,263.41Z"/><path class="cls-9" d="M210.3,24.07c-9.11,1.06-18.23,2.06-27.34,3.19-6.89.86-13.76,1.87-20.64,2.81a60.44,60.44,0,0,1,2.67-14,23.63,23.63,0,0,1,22.09-16c8.57-.08,17.15,0,25.73-.06,2.13,0,2.8.38,2.21,2.73C213.26,9.8,212.65,17.13,210.3,24.07Z"/><path class="cls-10" d="M246.17,48.67c1-1.16,2.3-.73,3.49-.73q15.82,0,31.65,0c1.56.49,1.84,1.93,2.26,3.19Q291.15,73.55,298.5,96c.45,1.37,1.85,3.23-.7,4.25Z"/><path class="cls-10" d="M317.29,48q15.82,0,31.66,0c1.19,0,2.52-.43,3.48.74L300.8,100.31c-2.59-1-.94-2.73-.56-3.94C302.51,89.12,305,82,307.4,74.74q3.75-11.35,7.55-22.68C315.46,50.56,315.71,48.86,317.29,48Z"/><path class="cls-7" d="M317.29,48q-8.09,24.31-16.1,48.65c-.37,1.13-1.71,2.34-.39,3.71-1,1.83-2,1.84-3,0,.94-.64.64-1.44.35-2.31q-8.44-25-16.84-50l.1-.09a8.69,8.69,0,0,1,5-1.14h25.74a9.14,9.14,0,0,1,5,1.15Z"/><path class="cls-8" d="M98.6,41.93H67.22c-4.8,0-7.34-2.1-7.35-6s2.54-6,7.32-6h63.12c4.8,0,7.34,2.09,7.36,6s-2.55,6-7.33,6Z"/><path class="cls-6" d="M100.07,130.3a224.33,224.33,0,0,0,21.11,14.13c-3.68,5.1-6.11,11.25-12.12,14.38-2.14,3.12-5.47,3.53-8.82,3.82a22.21,22.21,0,0,1-4.82-.11,23.8,23.8,0,0,1-7-2.37,18,18,0,0,1-2.75-1.83c-2-1.63-2.57-3.37-1-5.7,1.17-1.67,2.58-3.29,2.9-5.45a6,6,0,0,0,3.56-2.89C94.06,139.57,97.09,135,100.07,130.3Z"/><path class="cls-6" d="M215.44,131.67l5.85-23.78c9.09,0,18.18,0,27.27-.15,2.21,0,2.59.5,2.2,2.76-2.27,13.32-13.06,21.8-25.61,21.24C221.92,131.6,218.68,131.68,215.44,131.67Z"/><path class="cls-11" d="M329.24,155.69c-.21,3.07-1.74,5.09-4.57,5.78s-5.46-.17-6.61-2.92q-6.45-15.48-12.51-31.12a5.94,5.94,0,0,1,11.07-4.25c4.22,10.22,8.27,20.51,12.36,30.78A7.26,7.26,0,0,1,329.24,155.69Z"/><path class="cls-2" d="M95.08,161.7c4.89.19,9.69-.11,14-2.89,9.77,9.61,9.78,19.51.26,29.28-2.18,2.23-5.3,3.76-6.08,7.21a73.25,73.25,0,0,1-9.68-9.69c2.29-2.81,5.1-5.11,7.55-7.76,2.74-2.94,2.74-5.51,0-8.49-1.45-1.54-3-3-4.46-4.52C95.81,164,94.6,163.22,95.08,161.7Z"/><path class="cls-11" d="M287.33,119.91a7.18,7.18,0,0,1-1.12,3.53c-3.66,7.33-7.3,14.68-11,22-2,3.93-5.15,5.24-8.46,3.63s-4.27-5-2.34-8.89q5.7-11.52,11.51-23a5.66,5.66,0,0,1,7.16-3.14C285.92,114.85,287.24,117,287.33,119.91Z"/><path class="cls-11" d="M334,95.87A7,7,0,0,1,340,98c5.63,5.64,11.31,11.24,16.89,16.92,2.85,2.9,3,6.47.65,9s-6.21,2.47-9.24-.51c-5.68-5.59-11.28-11.26-16.91-16.9-2-2-2.79-4.37-1.61-7.13A5.58,5.58,0,0,1,334,95.87Z"/><path class="cls-2" d="M87.61,147.17c.46.26,1.36.24.85,1.16s-1,1.68-1.55,2.52c-3.08,4.91-3.09,4.91,1.27,8.47a133.81,133.81,0,0,1-10.37,10.53,72.65,72.65,0,0,1-9.69-9.68c3.41-.78,4.92-3.89,7.15-6C78.81,150.68,82.6,147.92,87.61,147.17Z"/><path class="cls-8" d="M38.73,41.92c-1.12,0-2.24.09-3.35,0A5.77,5.77,0,0,1,29.94,36,5.72,5.72,0,0,1,35.37,30a55.5,55.5,0,0,1,6.32,0c3.81.13,6.18,2.45,6.19,6s-2.37,5.82-6.18,6c-1,0-2,0-3,0Z"/><path class="cls-12" d="M317.18,47.86H281.41c5.46-9.18,10.87-18.4,16.4-27.54,2-3.36,2.86.13,3.42,1,4.84,7.82,9.49,15.75,14.2,23.64C316,46,316.59,46.91,317.18,47.86Z"/></g></g></svg>