<svg xmlns="http://www.w3.org/2000/svg" width="27.289" height="30.341" viewBox="0 0 27.289 30.341">
  <g id="Leaves" transform="translate(-25.755)">
    <path id="Path_730" data-name="Path 730" d="M53.044,53.34v4.7H25.755v-4.7a1.832,1.832,0,0,1,1.831-1.831H51.213a1.832,1.832,0,0,1,1.831,1.831Z" transform="translate(0 -48.457)" fill="#fd646f"/>
    <path id="Path_731" data-name="Path 731" d="M85.413,51.509v3.419a.611.611,0,0,1-.611.611H81.994a.611.611,0,0,1-.61-.611V51.509Z" transform="translate(-52.332 -48.457)" fill="#fc4755"/>
    <path id="Path_732" data-name="Path 732" d="M350.17,51.509v3.419a.611.611,0,0,1-.611.611h-2.808a.611.611,0,0,1-.61-.611V51.509Z" transform="translate(-301.4 -48.457)" fill="#fc4755"/>
    <path id="Path_733" data-name="Path 733" d="M26.732,55.084V61.4h-.977V56.7A1.829,1.829,0,0,1,26.732,55.084Z" transform="translate(0 -51.82)" fill="#fc4755"/>
    <g id="Group_429" data-name="Group 429" transform="translate(30.456 13.237)">
      <path id="Path_734" data-name="Path 734" d="M105.383,223.364h3.141a.305.305,0,0,1,.305.305v3.141a.305.305,0,0,1-.305.305h-3.141a.305.305,0,0,1-.305-.305v-3.141a.305.305,0,0,1,.305-.305Z" transform="translate(-105.078 -223.364)" fill="#e6e6e6"/>
      <path id="Path_735" data-name="Path 735" d="M105.383,302.121h3.141a.305.305,0,0,1,.305.305v3.142a.305.305,0,0,1-.305.305h-3.141a.305.305,0,0,1-.305-.305v-3.142A.305.305,0,0,1,105.383,302.121Z" transform="translate(-105.078 -297.454)" fill="#e6e6e6"/>
      <path id="Path_736" data-name="Path 736" d="M105.383,380.889h3.141a.305.305,0,0,1,.305.305v3.141a.305.305,0,0,1-.305.305h-3.141a.305.305,0,0,1-.305-.305v-3.141A.305.305,0,0,1,105.383,380.889Z" transform="translate(-105.078 -371.554)" fill="#e6e6e6"/>
      <path id="Path_737" data-name="Path 737" d="M184.141,223.364h3.208a.305.305,0,0,1,.305.305v3.141a.305.305,0,0,1-.305.305h-3.208a.305.305,0,0,1-.305-.305v-3.141a.305.305,0,0,1,.305-.305Z" transform="translate(-179.169 -223.364)" fill="#e6e6e6"/>
      <path id="Path_738" data-name="Path 738" d="M184.141,302.121h3.208a.305.305,0,0,1,.305.305v3.142a.305.305,0,0,1-.305.305h-3.208a.305.305,0,0,1-.305-.305v-3.142A.305.305,0,0,1,184.141,302.121Z" transform="translate(-179.169 -297.454)" fill="#e6e6e6"/>
      <path id="Path_739" data-name="Path 739" d="M184.141,380.889h3.208a.305.305,0,0,1,.305.305v3.141a.305.305,0,0,1-.305.305h-3.208a.305.305,0,0,1-.305-.305v-3.141A.305.305,0,0,1,184.141,380.889Z" transform="translate(-179.169 -371.554)" fill="#e6e6e6"/>
      <path id="Path_740" data-name="Path 740" d="M264.031,223.364h3.208a.305.305,0,0,1,.305.305v3.141a.305.305,0,0,1-.305.305h-3.208a.305.305,0,0,1-.305-.305v-3.141a.305.305,0,0,1,.305-.305Z" transform="translate(-254.324 -223.364)" fill="#e6e6e6"/>
      <path id="Path_741" data-name="Path 741" d="M264.031,302.121h3.208a.305.305,0,0,1,.305.305v3.142a.305.305,0,0,1-.305.305h-3.208a.305.305,0,0,1-.305-.305v-3.142A.305.305,0,0,1,264.031,302.121Z" transform="translate(-254.324 -297.454)" fill="#e6e6e6"/>
      <path id="Path_742" data-name="Path 742" d="M264.031,380.889h3.208a.305.305,0,0,1,.305.305v3.141a.305.305,0,0,1-.305.305h-3.208a.305.305,0,0,1-.305-.305v-3.141A.305.305,0,0,1,264.031,380.889Z" transform="translate(-254.324 -371.554)" fill="#e6e6e6"/>
      <path id="Path_743" data-name="Path 743" d="M347.368,223.669v3.141a.305.305,0,0,1-.305.305h-3.141a.305.305,0,0,1-.305-.305v-3.141a.305.305,0,0,1,.305-.305h3.141a.305.305,0,0,1,.305.305Z" transform="translate(-329.481 -223.364)" fill="#e6e6e6"/>
      <path id="Path_744" data-name="Path 744" d="M343.922,302.121h3.141a.305.305,0,0,1,.305.305v3.142a.305.305,0,0,1-.305.305h-3.141a.305.305,0,0,1-.305-.305v-3.142A.305.305,0,0,1,343.922,302.121Z" transform="translate(-329.481 -297.454)" fill="#e6e6e6"/>
      <path id="Path_745" data-name="Path 745" d="M343.922,380.889h3.141a.305.305,0,0,1,.305.305v3.141a.305.305,0,0,1-.305.305h-3.141a.305.305,0,0,1-.305-.305v-3.141A.305.305,0,0,1,343.922,380.889Z" transform="translate(-329.481 -371.554)" fill="#e6e6e6"/>
    </g>
    <path id="Path_746" data-name="Path 746" d="M25.755,154.527V173.88a1.831,1.831,0,0,0,1.831,1.831H51.213a1.831,1.831,0,0,0,1.831-1.831V154.527Z" transform="translate(0 -145.37)" fill="#f5f5f5"/>
    <path id="Path_747" data-name="Path 747" d="M100.919.611V5.494a.611.611,0,0,1-.611.611H98.478a.611.611,0,0,1-.611-.611V.611A.611.611,0,0,1,98.478,0h1.831A.611.611,0,0,1,100.919.611Z" transform="translate(-67.839)" fill="#50758d"/>
    <path id="Path_748" data-name="Path 748" d="M105.078,223.364h3.752v3.752h-3.752Z" transform="translate(-74.622 -210.127)" fill="#ffac5c"/>
    <path id="Path_749" data-name="Path 749" d="M343.617,223.364h3.752v3.752h-3.752Z" transform="translate(-299.025 -210.127)" fill="#ffac5c"/>
    <path id="Path_750" data-name="Path 750" d="M183.836,223.364h3.819v3.752h-3.819Z" transform="translate(-148.713 -210.127)" fill="#ffac5c"/>
    <path id="Path_751" data-name="Path 751" d="M105.078,302.121h3.752v3.752h-3.752Z" transform="translate(-74.622 -284.217)" fill="#ffac5c"/>
    <path id="Path_752" data-name="Path 752" d="M343.617,302.121h3.752v3.752h-3.752Z" transform="translate(-299.025 -284.217)" fill="#e6e6e6"/>
    <path id="Path_753" data-name="Path 753" d="M183.836,302.121h3.819v3.752h-3.819Z" transform="translate(-148.713 -284.217)" fill="#ffac5c"/>
    <path id="Path_754" data-name="Path 754" d="M105.078,380.889h3.752v3.752h-3.752Z" transform="translate(-74.622 -358.317)" fill="#e6e6e6"/>
    <path id="Path_755" data-name="Path 755" d="M343.617,380.889h3.752v3.752h-3.752Z" transform="translate(-299.025 -358.317)" fill="#e6e6e6"/>
    <path id="Path_756" data-name="Path 756" d="M183.836,380.889h3.819v3.752h-3.819Z" transform="translate(-148.713 -358.317)" fill="#e6e6e6"/>
    <path id="Path_757" data-name="Path 757" d="M263.726,223.364h3.819v3.752h-3.819Z" transform="translate(-223.869 -210.127)" fill="#ffac5c"/>
    <path id="Path_758" data-name="Path 758" d="M263.726,302.121h3.819v3.752h-3.819Z" transform="translate(-223.869 -284.217)" fill="#ffac5c"/>
    <path id="Path_759" data-name="Path 759" d="M263.726,380.889h3.819v3.752h-3.819Z" transform="translate(-223.869 -358.317)" fill="#e6e6e6"/>
    <path id="Path_760" data-name="Path 760" d="M365.676.611V5.494a.611.611,0,0,1-.611.611h-1.831a.611.611,0,0,1-.611-.611V.611A.611.611,0,0,1,363.234,0h1.831A.611.611,0,0,1,365.676.611Z" transform="translate(-316.906)" fill="#50758d"/>
    <path id="Path_761" data-name="Path 761" d="M25.755,154.527V173.88a1.831,1.831,0,0,0,1.831,1.831h.676a1.83,1.83,0,0,1-1.5-1.8V155.822a.488.488,0,0,1,.458-.319H53.044v-.977Z" transform="translate(0 -145.37)" fill="#e6e6e6"/>
    <path id="Path_762" data-name="Path 762" d="M99.454,6.1h-.977a.611.611,0,0,1-.611-.611V.611A.611.611,0,0,1,98.478,0h.366V5.494A.611.611,0,0,0,99.454,6.1Z" transform="translate(-67.839)" fill="#2b597f"/>
    <path id="Path_763" data-name="Path 763" d="M364.211,6.1h-.977a.611.611,0,0,1-.611-.611V.611A.611.611,0,0,1,363.234,0h.366V5.494A.611.611,0,0,0,364.211,6.1Z" transform="translate(-316.906)" fill="#2b597f"/>
  </g>
</svg>
