<svg id="Capa_1" data-name="Capa 1" xmlns="http://www.w3.org/2000/svg" viewBox="0 0 310.04 291.21"><defs><style>.cls-1,.cls-2{fill:#03dbff;}.cls-1{stroke:#000;stroke-miterlimit:10;stroke-width:6px;}</style></defs><title>clock svg</title><path class="cls-1" d="M205.83,298.37" transform="translate(-87.42 -131.79)"/><path class="cls-2" d="M237.76,372.6v22.46A115.86,115.86,0,0,1,125.89,285h24.39a5.58,5.58,0,0,0,0-11.15H125.89A115.86,115.86,0,0,1,237.76,163.79v21.47a5.57,5.57,0,0,0,4.64,5.48V152.58l-.93,0a126.41,126.41,0,0,0-88.6,36.19l-9.09-9.09,30.68-28.33-3.78-4.1a48,48,0,0,0-70.53,65.12l3.78,4.1,31.65-29.23,9.67,9.67a126.61,126.61,0,0,0,23.53,186.44l-31.91,30a5.57,5.57,0,0,0,7.64,8.12l34-32a126,126,0,0,0,63,16.81l.93,0V367.12A5.56,5.56,0,0,0,237.76,372.6ZM104.87,200.4a36.86,36.86,0,0,1,30.51-57.47l1.51,0a36.59,36.59,0,0,1,21.52,8Z" transform="translate(-87.42 -131.79)"/><path class="cls-2" d="M397.42,177.87a48,48,0,0,0-83.23-30.65l-3.78,4.1,30.69,28.33L332,188.74a126.43,126.43,0,0,0-88.61-36.19l-.93,0v38.16a5.57,5.57,0,0,0,4.65-5.48V163.79A115.86,115.86,0,0,1,359,273.85H334.6a5.58,5.58,0,0,0,0,11.15H359A115.86,115.86,0,0,1,247.12,395.06V372.6a5.56,5.56,0,0,0-4.65-5.48v39.16l.93,0a126.08,126.08,0,0,0,63-16.81l34,32a5.57,5.57,0,0,0,3.82,1.51,5.52,5.52,0,0,0,4.06-1.75,5.58,5.58,0,0,0-.23-7.88l-31.92-30a126.62,126.62,0,0,0,23.54-186.44l9.66-9.67,31.65,29.23,3.78-4.1A47.67,47.67,0,0,0,397.42,177.87ZM380,200.4,326.47,151A36.59,36.59,0,0,1,348,143q.75,0,1.5,0A36.86,36.86,0,0,1,380,200.4Z" transform="translate(-87.42 -131.79)"/><path class="cls-2" d="M292.73,248.22a3.51,3.51,0,0,0-4.81-1.17l-32.27,19.66a16.94,16.94,0,0,0-27.82,2.17l-23.72-8.73a3.5,3.5,0,0,0-2.42,6.57l23.94,8.81a16.3,16.3,0,0,0-.11,1.86A17,17,0,1,0,258.83,273L291.56,253A3.51,3.51,0,0,0,292.73,248.22Zm-50.25,40.12a11,11,0,1,1,9.82-15.8,10.8,10.8,0,0,1,1.13,4.85A11,11,0,0,1,242.48,288.34Z" transform="translate(-87.42 -131.79)"/></svg>