<svg xmlns="http://www.w3.org/2000/svg" width="32.883" height="32.883" viewBox="0 0 32.883 32.883">
  <path id="Path_990" data-name="Path 990" d="M18.442,34.883A16.442,16.442,0,1,1,34.883,18.442,16.441,16.441,0,0,1,18.442,34.883Zm0-3.288A13.153,13.153,0,1,0,5.288,18.442,13.153,13.153,0,0,0,18.442,31.595ZM11.865,20.086H25.018a6.577,6.577,0,0,1-13.153,0Zm0-3.288a2.466,2.466,0,1,1,2.466-2.466A2.466,2.466,0,0,1,11.865,16.8Zm13.153,0a2.466,2.466,0,1,1,2.466-2.466A2.466,2.466,0,0,1,25.018,16.8Z" transform="translate(-2 -2)" fill="#757d86"/>
</svg>
