<svg xmlns="http://www.w3.org/2000/svg" viewBox="0 0 188.18 188.17"><defs><style>.cls-1{fill:#f19400;}.cls-2{fill:#453d83;}.cls-3{fill:#f3a62a;}.cls-4{fill:#f29e16;}.cls-5{fill:#f6ba5a;}.cls-6{fill:#f8c97f;}.cls-7{fill:#f8cd89;}.cls-8{fill:#f9d190;}.cls-9{fill:#f7c371;}.cls-10{fill:#f8ca80;}.cls-11{fill:#c7e1fc;}.cls-12{fill:#e8f2fd;}.cls-13{fill:#6dc44a;}.cls-14{fill:#514899;}.cls-15{fill:#5db23a;}.cls-16{fill:#76b5f9;}.cls-17{fill:#958fc9;}.cls-18{fill:#55a3f8;}.cls-19{fill:#5f55ae;}.cls-20{fill:#fef4f4;}.cls-21{fill:#a6cffb;}.cls-22{fill:#fefefe;}.cls-23{fill:#76b6f9;}.cls-24{fill:#8078be;}.cls-25{fill:#6a61b3;}.cls-26{fill:#1380e1;}</style></defs><g id="Layer_2" data-name="Layer 2"><g id="Layer_1-2" data-name="Layer 1"><path class="cls-1" d="M36.53,19.78a89.62,89.62,0,0,1,27.77-15A94.29,94.29,0,0,1,85.43.38c.34,0,.76.1.93-.38h1.47a.47.47,0,0,0,.73,0H90.4A3.78,3.78,0,0,0,93,0h6.25c.2.23.47.18.73.19s.53,0,.74-.19h1.1a99.57,99.57,0,0,1,12.85,1.7,105,105,0,0,1,21.44,7.55,3.59,3.59,0,0,1,1.5,1,34.66,34.66,0,0,1-2.3,9.25,1.26,1.26,0,0,1-.81.7,7.51,7.51,0,0,1-2.36.22q-46.32,0-92.64,0C38.46,20.43,37.36,20.66,36.53,19.78Z"/><path class="cls-1" d="M0,86c.89-2,.74-4.13,1.06-6.2A93.33,93.33,0,0,1,16.37,41.08a4.78,4.78,0,0,1,.47-.54c1.15,1.61.45,3.45.61,5.18a11.37,11.37,0,0,1,.05,1.65q0,48.39,0,96.77c0,1.19.33,2.48-.64,3.5A89.52,89.52,0,0,1,3,117.53,99.32,99.32,0,0,1,.4,103.1c0-.45.19-1-.4-1.3v-1.47a.47.47,0,0,0,0-.73V98.49a4.76,4.76,0,0,0,0-2.94V89.67c.3-.3.15-.68.19-1s.06-.59-.19-.81Z"/><path class="cls-2" d="M134.8,19.86c.84-3.14,1.69-6.28,2.53-9.42-.58-4.74,2.41-9.39,6.72-10.44h3.31c2,.94,4.2,1.1,6.23,1.89-.05.81-.76.89-1.3,1.07a7.52,7.52,0,0,0-5,5.65c-1.48,5.73-3.06,11.44-4.59,17.17-.79,2.95-1.55,5.9-2.38,8.84-.2.7-.31,1.46-1,1.88a2.9,2.9,0,0,1-1.6.06,7.42,7.42,0,0,0-6.39,1.86c-.48.47-1.17,1.16-1.6-.13a5.44,5.44,0,0,1,.26-2c.55-2.44,1.34-4.83,1.89-7.28s1.33-4.91,2-7.36A3.47,3.47,0,0,1,134.8,19.86Z"/><path class="cls-3" d="M0,95.55a2.74,2.74,0,0,1,0,2.94Z"/><path class="cls-4" d="M93,0A2.12,2.12,0,0,1,90.4,0Z"/><path class="cls-5" d="M.32,88.55c0,.42.13.85-.32,1.12v-1.1C.1,88.41.21,88.41.32,88.55Z"/><path class="cls-6" d="M.32,88.55l-.32,0v-.73C.37,88,.35,88.25.32,88.55Z"/><path class="cls-7" d="M0,99.6c.41.24.47.49,0,.73Z"/><path class="cls-8" d="M100.69,0c-.12.38-.42.35-.72.31-.13-.06-.18-.13-.14-.2S99.91,0,100,0Z"/><path class="cls-9" d="M100,0c0,.1,0,.21,0,.31-.32.06-.6,0-.75-.31Z"/><path class="cls-10" d="M88.56,0c-.24.41-.49.46-.73,0Z"/><path class="cls-11" d="M123.88,183.69c-3.41.39-6.59,1.71-9.94,2.36a109.09,109.09,0,0,1-13,1.81c-2.38.17-4.75.31-7.13.31a94.48,94.48,0,0,1-57.13-19.49,2.42,2.42,0,0,1-1.06-2.16c0-9.06,0-18.12,0-27.17A9.12,9.12,0,0,1,45,130.47h67.93l2.38,0c.59,1.11-.13,2.1-.3,3.14s-.44,2.45,1.08,2.84,2-.72,2.45-1.88c.29-.86.45-1.76.69-2.64s.45-1.53,1.34-1.82a10.4,10.4,0,0,1,2.55-.18c6.42,0,12.84,0,19.26,0,6.71,0,10.67,4,10.69,10.77q0,5.59,0,11.19a3.75,3.75,0,0,1-.54,2.63,4,4,0,0,1-2.31.44c-5.06,0-10.13,0-15.19,0-3.9,0-7.83-.47-11.7.31a13.89,13.89,0,0,0-11.39,13.49,14.08,14.08,0,0,0,10.33,14C122.85,182.94,123.66,182.82,123.88,183.69Z"/><path class="cls-12" d="M116.16,126.8H44.57A12.93,12.93,0,0,0,32,139.47c0,8.26,0,16.52,0,25.18l-4.41-4a12.64,12.64,0,0,1-.24-2.74q0-54.28,0-108.58c0-1.26-.27-2.58.52-3.75A3.74,3.74,0,0,1,30.48,45h94.87a6.12,6.12,0,0,1,2.17.24,1.2,1.2,0,0,1,.61,1.55c-.61,2.36-1.11,4.75-1.9,7.06-.18.51-.35,1.09-1.09,1a14.3,14.3,0,0,0-2.92-.27H45.43c-6,0-10.72,3.39-12.35,8.84A12.33,12.33,0,0,0,44.13,79.15c.86,0,1.72,0,2.57,0h68.53a8.16,8.16,0,0,1,3.26.29c.77.55.55,1.31.38,2-.77,3.16-1.68,6.27-2.54,9.4a1.76,1.76,0,0,1-1.1,1.38,11.53,11.53,0,0,1-3.1.18H45.63c-5.13,0-9.17,2-11.63,6.62A12.26,12.26,0,0,0,44.1,117c.85,0,1.71,0,2.57,0q33.24,0,66.49,0c.64.13.65.62.6,1.12a13.62,13.62,0,0,1-.38,1.77c-.83,3.43-.55,4,2.6,5.7a1.23,1.23,0,0,1,.63.62C116.64,126.56,116.55,126.8,116.16,126.8Z"/><path class="cls-12" d="M171.29,147.63a39.13,39.13,0,0,1-4.85,6.52c-1.25,1.53-2.35,3.25-4.14,4.29A1.55,1.55,0,0,1,161,158a14.29,14.29,0,0,0-4.26-2.38c-.59-.2-1.13-.5-1.1-1.26q.1-7.16,0-14.3c-.07-7.54-5.35-12.74-12.89-12.76-4.65,0-9.29,0-13.93,0a6.21,6.21,0,0,1-2.53-.27c-.47-.27-.41-.71-.27-1.1.73-2.15,1.13-4.41,2-6.51a21.25,21.25,0,0,1,4.71-2.25c3.48-.22,7,0,10.44-.1a12.36,12.36,0,0,0,.5-24.72c-1,0-2.09.22-3-.42a1.82,1.82,0,0,1-.14-1.59c.85-3.24,1.65-6.49,2.61-9.7a2,2,0,0,1,.63-1.08,6.13,6.13,0,0,1,2.09-.65,11.66,11.66,0,0,0,9.29-8.62c1.42-5,0-9.27-3.73-12.81-.49-.45-1.12-.77-1.38-1.44-.09-2.37,1-4.48,1.49-6.71.23-.94.51-1.87.78-2.8a1.78,1.78,0,0,1,1.26-1.42C159,44.81,164.4,45,169.81,45a2.29,2.29,0,0,1,1.54.49,4.32,4.32,0,0,1,.49,2.66q0,48.21,0,96.41A8.33,8.33,0,0,1,171.29,147.63Z"/><path class="cls-1" d="M171.29,147.63c0-1.53,0-3.06,0-4.59V47.77c0-.73,0-1.47-.06-2.2a5.23,5.23,0,0,1,.12-5,82.31,82.31,0,0,1,12.56,25.54q12.66,42.94-11.78,80.56C171.85,147,171.55,147.3,171.29,147.63Z"/><path class="cls-11" d="M27.92,45.65q0,56.54,0,113.06c0,.65.24,1.37-.36,1.9-3.88-4.07-7.74-8.16-10.71-13,0-.8,0-1.59,0-2.39q0-48.73,0-97.48c0-.73,0-1.47.05-2.2a1.57,1.57,0,0,1,1.15-.49,64,64,0,0,1,9.29.14A1,1,0,0,1,27.92,45.65Z"/><path class="cls-13" d="M155.75,154.77a20.45,20.45,0,0,1,6.55,3.67,16.64,16.64,0,0,1,4.31,9.11c1,8.08-5.44,15.89-13.62,16.15-5.92.2-11.85,0-17.78,0-6.33-.51-10-4.32-12.15-9.9-.38-1-.92-2-.17-3.12a5.07,5.07,0,0,1,2.34-.3c7.4,0,14.8,0,22.2,0,.95,0,2.26-.36,2.72.57s-.77,1.61-1.34,2.34c-.23.29-.5.54-.7.85-.38.6-.61,1.25-.06,1.85a1.24,1.24,0,0,0,1.82,0,37.68,37.68,0,0,0,5.84-5.8,1.57,1.57,0,0,0-.16-2.3c-1.83-1.89-3.68-3.76-5.59-5.58-.5-.48-1.11-.85-1.78-.25s-.45,1.32,0,2,1.2,1.23,1.7,1.93c.75,1,.56,1.46-.73,1.69a7.79,7.79,0,0,1-1.28.06q-11.46,0-22.93,0a4.65,4.65,0,0,1-2-.25c-.88-1.27-.17-2.48.29-3.61,2.07-5.11,5.65-8.48,11.23-9.45l18-.1A2.86,2.86,0,0,1,155.75,154.77Z"/><path class="cls-14" d="M139.27,36.37l5.88-21.66c.56-2.06,1.09-4.12,1.63-6.18a8,8,0,0,1,5.83-6.2,7.16,7.16,0,0,0,1-.44c.71.14,1.43.27,2.14.42,5.4,1.09,7.77,6,6.09,10.46a68.73,68.73,0,0,0-1.88,7c.45.71.12,1.41-.07,2.11-.62,2.35-1.21,4.72-1.86,7.06-.78,2.51-1.34,5.07-2.06,7.59-.89,2.85-1.29,5.84-2.55,8.58-1,.35-1.17-.43-1.34-1-.95-3.24-3.22-4.84-6.38-5.59a24.16,24.16,0,0,1-6.26-1.93Z"/><path class="cls-15" d="M122.73,170.94a17.81,17.81,0,0,0,3.76,7.94,16.16,16.16,0,0,0,8.72,4.82H123.88C117.93,182.34,113.74,179,112,173a14.63,14.63,0,0,1,13.46-18.59c3-.12,6,0,9,0-1.89,1.18-4.15,1.54-5.95,3a14.48,14.48,0,0,0-5.45,8.92,4.62,4.62,0,0,1-.34.84C121.87,168.45,121.56,169.69,122.73,170.94Z"/><path class="cls-16" d="M157.6,29l2.34-9.18,3.65,0c4.58,0,7.61,3.1,7.65,7.72,0,4.33,0,8.65.06,13l-.12,5-18,0a.26.26,0,0,1-.11-.25c0-.09,0-.13.07-.13.78-2.94,1.57-5.87,2.35-8.81a4.16,4.16,0,0,1,2.47-.48,30.93,30.93,0,0,0,3.85-.08,3.09,3.09,0,0,0,0-6.17,23.67,23.67,0,0,0-2.38-.09C158.8,29.5,158.1,29.6,157.6,29Z"/><path class="cls-17" d="M116.16,126.8l.33-.38c1.74-.75,3.16,0,4.51,1a3,3,0,0,1-.8,3.06c-.4,1.45-.79,2.91-1.2,4.35-.51,1.78-1.76,2.65-3.17,2.24s-1.78-1.58-1.32-3.44c.27-1,.53-2.11.79-3.16A20.71,20.71,0,0,0,116.16,126.8Z"/><path class="cls-16" d="M127.86,45.59H29c-.37,0-.73,0-1.1.07l0-.15A1.92,1.92,0,0,1,27.4,44a75.72,75.72,0,0,1,.09-7.83,1.28,1.28,0,0,1,.17-.51,4.5,4.5,0,0,0,0-6,9.12,9.12,0,0,1,.95-6.55,6,6,0,0,1,5.18-3.22l2.76-.13c.8,0,1.59.06,2.39.06l95.88,0-2.52,9.19c-1,.81-2.23.56-3.36.56q-30.12,0-60.23,0a13.69,13.69,0,0,0-2.93.15,3,3,0,0,0-2.57,2.92,3,3,0,0,0,2.53,3,13.65,13.65,0,0,0,2.93.15q29.28,0,58.57,0c1.07,0,2.22-.25,3.16.57l-.35,1.8c0,2.2-.84,4.22-1.31,6.33A1.32,1.32,0,0,1,127.86,45.59Z"/><path class="cls-18" d="M33.77,19.91c-4.41,1.44-6.25,4.12-5.83,9.84-.56.32-1.06-.05-1.59-.13a3,3,0,0,0-3.2,1.29,3,3,0,0,0,0,3.6,3,3,0,0,0,3.2,1.29c.53-.09,1-.45,1.59-.13V45.5l-11,.07-.12-5,.06-13.21a7.2,7.2,0,0,1,7.52-7.48C27.53,19.85,30.65,19.89,33.77,19.91Z"/><path class="cls-19" d="M127.86,45.59c.72-2.47,1.45-4.94,2.17-7.41.1.34.19.82.64.29,2.36-2.83,5.39-2.83,8.6-2.1v0c.6.76.23,1.54,0,2.28C132.93,62.12,126.76,85.6,120.4,109a7.67,7.67,0,0,0,1.63,7.68c.38.43,1.45,1,.11,1.61a18.78,18.78,0,0,1-8.27-2.55,21.42,21.42,0,0,1-1.84-1.85,7.61,7.61,0,0,1-1.08-6.8c1.14-3.87,2.07-7.8,3.15-11.69.36-1.21.47-2.52,1.33-3.54q1.92-6,3.26-12.14c-.34-1.39.54-2.58.65-3.9q2.41-9,4.85-18.09c.43-.95.29-2.13,1.18-2.89A93.37,93.37,0,0,0,127.86,45.59Z"/><path class="cls-20" d="M130.38,36.38H66.88c-1.63,0-3-.36-3.9-1.88a3.45,3.45,0,0,1,.13-3.81A3.77,3.77,0,0,1,66.57,29H79.78l52.5,0Z"/><path class="cls-21" d="M68,138.55H88.22c2.3,0,3.61,1,3.64,2.71s-1.31,2.79-3.56,2.8H47.74c-2.3,0-3.61-1-3.64-2.72s1.34-2.79,3.74-2.79Z"/><path class="cls-22" d="M120.2,130.45l.72-2.91c1.67-.43,3.46-.07,5.09-.76h17.06a12.87,12.87,0,0,1,13.1,13.08q0,6.51,0,13c0,.64.23,1.37-.42,1.88l-3.24-.45q0-7,0-13.94c0-6.13-3.79-9.91-9.93-9.91Z"/><path class="cls-21" d="M55.14,148.84h7.7c1.94,0,3.21,1,3.3,2.62s-1.31,2.85-3.34,2.88c-3.79,0-7.58,0-11.37,0-1.34,0-2.68,0-4,0-1.93-.07-3.29-1.24-3.3-2.74,0-1.67,1.31-2.76,3.35-2.76Z"/><path class="cls-23" d="M57,167.58a3,3,0,0,1-3-2.89,2.91,2.91,0,0,1,5.81-.09A3,3,0,0,1,57,167.58Z"/><path class="cls-23" d="M69.81,164.75A2.86,2.86,0,0,1,67,167.58a3.17,3.17,0,0,1-3-3A2.9,2.9,0,0,1,67,161.91,3,3,0,0,1,69.81,164.75Z"/><path class="cls-23" d="M46.85,167.58a2.86,2.86,0,0,1-2.74-2.86A3,3,0,0,1,47,161.91a2.77,2.77,0,0,1,2.83,2.93A3.06,3.06,0,0,1,46.85,167.58Z"/><path class="cls-22" d="M119.72,76.1a16,16,0,0,1-1,3.65H45.05A12.86,12.86,0,1,1,45,54q39.12,0,78.23,0c.76,0,1.81-.47,2.11.83a7.81,7.81,0,0,1-.78,2.84c-1,.8-2.22.56-3.36.56H47c-.92,0-1.84,0-2.75,0a8.57,8.57,0,0,0-.07,17.11c.91.09,1.83.06,2.75.06q34.71,0,69.42,0C117.51,75.51,118.73,75.22,119.72,76.1Z"/><path class="cls-22" d="M112.46,113.92l1.51,1.47a1.27,1.27,0,0,1-.46,1.84,3.71,3.71,0,0,1-2.31.37q-33.23,0-66.45,0a12.84,12.84,0,0,1-3-25.32,11,11,0,0,1,2.7-.42q35.52,0,71,0c-.29,1.21-.59,2.42-.88,3.64-1,.82-2.22.59-3.36.59H46.39a12.86,12.86,0,0,0-4,.42,8.56,8.56,0,0,0,1.88,16.76c.79.07,1.59,0,2.39,0h62.41A5.69,5.69,0,0,1,112.46,113.92Z"/><path class="cls-24" d="M113.51,117.23c.15-.61.31-1.22.46-1.84a26.68,26.68,0,0,0,8,2.59,19.92,19.92,0,0,1,6.3,1.49c-.67,2.46-1,5-2.29,7.31-1.52,1.44-3.29,1.16-5.09.76a12.8,12.8,0,0,0-4.43-1.12c-.31-.46-.86-.41-1.3-.57-2.23-.83-3.16-2.42-2.65-4.72C112.83,119.82,113.18,118.53,113.51,117.23Z"/><path class="cls-25" d="M128.3,119.47A16.3,16.3,0,0,1,122,118c.16-.08.67-.06.34-.34-3-2.55-3.31-5.57-2.29-9.24,3-10.85,5.82-21.76,8.74-32.64q5.15-19.23,10.36-38.44a5.53,5.53,0,0,0,.12-.91c2.53.65,5.06,1.26,7.57,2a7.33,7.33,0,0,1,5.65,5.79,1.28,1.28,0,0,0,.67,1c0,.12,0,.25,0,.38a89.75,89.75,0,0,0-2.9,10.69c.29,1.38-.49,2.59-.64,3.9-1.39,5.18-2.84,10.34-4.15,15.54C145,77,145,78.55,144,79.73a119.58,119.58,0,0,0-3.25,12.15c.33,1.39-.54,2.58-.65,3.89-1.65,6-3.2,12-4.85,18-.62,1.46-1,3.1-2.69,3.8A13.36,13.36,0,0,1,128.3,119.47Z"/><path class="cls-22" d="M132.56,117.58a14.79,14.79,0,0,0,2.27-3.67,3,3,0,0,1,2.09-.48c2,0,3.91,0,5.86,0,5.35,0,9.18-3.66,9.21-8.64s-3.81-8.63-9.13-8.73c-1.07,0-2.22.3-3.17-.51a15.05,15.05,0,0,1,1.06-3.66c4.58-.32,8.8.57,12,4.13a12.28,12.28,0,0,1,2.75,12.72,11.89,11.89,0,0,1-9.6,8.51C141.47,118.06,137,117.45,132.56,117.58Z"/><path class="cls-22" d="M149.24,59.9a15.13,15.13,0,0,1,1.06-3.67C156.11,59.38,157.94,68,154,74c-2.36,3.63-5.84,5.34-10,5.77a13.69,13.69,0,0,1,1.1-4,4.9,4.9,0,0,1,1.45-.76,8.61,8.61,0,0,0,4-12.83A12.54,12.54,0,0,1,149.24,59.9Z"/><path class="cls-22" d="M122.73,170.94c-2-1.36-2-2.32,0-3.74h27.76l-2.72-2.76c-.88-.91-1.19-1.9-.18-2.88s1.89-.59,2.73.25c1.91,1.9,3.8,3.82,5.72,5.7a2,2,0,0,1,0,3.17c-1.86,1.86-3.72,3.73-5.58,5.58-.88.87-1.87,1.33-2.88.33s-.59-2.12.35-3c.79-.75,1.62-1.46,2.43-2.19l-.22-.44Z"/><path class="cls-20" d="M157.6,29c1.28,0,2.56,0,3.84.05,2.37.07,3.94,1.57,3.91,3.71s-1.6,3.59-4,3.63c-2,0-3.9,0-5.85,0A73.27,73.27,0,0,1,157.6,29Z"/><path class="cls-26" d="M55.11,32.85a3.67,3.67,0,1,1-3.43-3.8A3.74,3.74,0,0,1,55.11,32.85Z"/><path class="cls-26" d="M38.57,36.38a3.67,3.67,0,1,1,3.68-3.57A3.74,3.74,0,0,1,38.57,36.38Z"/><path class="cls-26" d="M27.94,35.67c-2.17,1-3.86.84-5-.52a3.69,3.69,0,0,1-.19-4.58c1-1.61,2.87-1.9,5.18-.82C29.93,31.92,29.93,33.49,27.94,35.67Z"/><path class="cls-11" d="M119.72,76.1,45,76.07a9.19,9.19,0,1,1-.09-18.37q29.84,0,59.67,0h20C123.18,63.9,121.43,70,119.72,76.1Z"/><path class="cls-11" d="M112.46,113.92q-33.87,0-67.73,0a9.18,9.18,0,0,1,.07-18.36H112l2.57,0c-1,3.69-1.83,7.42-3,11.07A8.49,8.49,0,0,0,112.46,113.92Z"/><path class="cls-11" d="M139.69,95.54c3.1,0,6.22-.26,9,1.74a9.2,9.2,0,0,1,3.58,9.49c-1.27,4.34-4.43,7.06-8.43,7.14-3,.07-6,0-9,0C136.24,107.73,138,101.64,139.69,95.54Z"/><path class="cls-11" d="M149.24,59.9c2.79,2.55,3.95,5.64,2.89,9.34s-3.17,6-7,6.44C146.22,70.35,147.8,65.15,149.24,59.9Z"/><path class="cls-21" d="M60.81,69.83H47.6c-2.15,0-3.44-1-3.5-2.67s1.3-2.83,3.51-2.83H73.67c2.14,0,3.43,1,3.49,2.67s-1.29,2.83-3.51,2.84Z"/><path class="cls-21" d="M68,102.16H88.53c2.14,0,3.18.74,3.33,2.32s-.83,2.65-2.77,3.07a8.49,8.49,0,0,1-1.82.12H48.7a8.48,8.48,0,0,1-2.7-.38,2.42,2.42,0,0,1-1.86-3,2.48,2.48,0,0,1,2.7-2.2C53.88,102.18,60.92,102.16,68,102.16Z"/></g></g></svg>