<svg xmlns="http://www.w3.org/2000/svg" width="24.5" height="24.5" viewBox="0 0 24.5 24.5">
  <defs>
    <style>
      .cls-1 {
        fill: none;
        stroke: #000;
        fill-rule: evenodd;
      }
    </style>
  </defs>
  <g id="Group_8099" data-name="Group 8099" transform="translate(-147.94 -95)">
    <path id="Path_3403" data-name="Path 3403" d="M14.5,4A10.5,10.5,0,1,1,4,14.5,10.5,10.5,0,0,1,14.5,4m0-1.75A12.25,12.25,0,1,0,26.75,14.5,12.25,12.25,0,0,0,14.5,2.25Z" transform="translate(145.69 92.75)"/>
    <g id="book" transform="translate(153.367 102)">
      <path id="Path_3405" data-name="Path 3405" class="cls-1" d="M2.561,2.146A4.439,4.439,0,0,1,6.657,3a.4.4,0,0,1,.117.282V12.05a.4.4,0,0,1-.68.282A3.32,3.32,0,0,0,3.328,11.6a8.555,8.555,0,0,0-2.751.807A.4.4,0,0,1,0,12.05V3.284a.4.4,0,0,1,.22-.356L.4,3.284.22,2.928h0l0,0,.01,0q.087-.043.175-.082a10.326,10.326,0,0,1,2.152-.692ZM.8,3.539v7.9a9.225,9.225,0,0,1,2.449-.628,4.625,4.625,0,0,1,2.73.446v-7.8a3.781,3.781,0,0,0-3.259-.529A9.529,9.529,0,0,0,.8,3.539Z" transform="translate(0 -2)"/>
      <path id="Path_3406" data-name="Path 3406" class="cls-1" d="M21.087,2.146a4.439,4.439,0,0,0-4.1.856.4.4,0,0,0-.116.282V12.05a.4.4,0,0,0,.68.282,3.32,3.32,0,0,1,2.765-.733,8.555,8.555,0,0,1,2.751.807.4.4,0,0,0,.577-.356V3.284a.4.4,0,0,0-.22-.356l-.178.356.178-.356h0l0,0-.01,0L23.376,2.9q-.314-.146-.637-.271A10.327,10.327,0,0,0,21.087,2.146Zm1.764,1.393v7.9a9.225,9.225,0,0,0-2.449-.628,4.625,4.625,0,0,0-2.73.446v-7.8a3.781,3.781,0,0,1,3.259-.529A9.527,9.527,0,0,1,22.852,3.539Z" transform="translate(-10.898 -2)"/>
    </g>
  </g>
</svg>
