<svg xmlns="http://www.w3.org/2000/svg" width="24.5" height="24.5" viewBox="0 0 24.5 24.5">
  <g id="Group_8099" data-name="Group 8099" transform="translate(-147.94 -95)">
    <path id="Path_3403" data-name="Path 3403" d="M14.5,4A10.5,10.5,0,1,1,4,14.5,10.5,10.5,0,0,1,14.5,4m0-1.75A12.25,12.25,0,1,0,26.75,14.5,12.25,12.25,0,0,0,14.5,2.25Z" transform="translate(145.69 92.75)"/>
    <path id="Path_3404" data-name="Path 3404" d="M13.245,22.3a.871.871,0,0,1-.87-.87V11a.861.861,0,0,1,1.3-.748l9.565,5.217a.87.87,0,0,1,0,1.53L13.67,22.213a.87.87,0,0,1-.426.087Zm.87-9.844V19.97l6.879-3.757Z" transform="translate(143.156 91.034)"/>
  </g>
</svg>
