<svg xmlns="http://www.w3.org/2000/svg" width="22.221" height="25.395" viewBox="0 0 22.221 25.395">
  <path id="Icon_metro-attachment" data-name="Icon metro-attachment" d="M19.254,10.039l-1.611-1.61L9.588,16.482a3.417,3.417,0,1,0,4.833,4.832l9.666-9.665A5.695,5.695,0,0,0,16.032,3.6L5.883,13.744l-.022.021A7.943,7.943,0,1,0,17.1,25l.02-.022h0l6.927-6.926-1.612-1.61-6.927,6.926-.021.021a5.665,5.665,0,0,1-8.012-8.01l.022-.021h0L17.643,5.207a3.417,3.417,0,0,1,4.833,4.832L12.81,19.7a1.139,1.139,0,0,1-1.611-1.61l8.055-8.055Z" transform="translate(-3.535 -1.928)" fill="#757d86"/>
</svg>
