<svg id="Layer_1" data-name="Layer 1" xmlns="http://www.w3.org/2000/svg" viewBox="0 0 533.96 498.53"><defs><style>.cls-1{fill:#297182;opacity:0.74;isolation:isolate;}.cls-2{fill:#f5f5f5;}.cls-3{fill:#e7e7e7;}.cls-4{fill:#375a64;}.cls-5{fill:#00dfbf;}.cls-12,.cls-15,.cls-32,.cls-6{opacity:0.5;}.cls-7,.cls-8{opacity:0.3;}.cls-9{fill:#ffaaa8;}.cls-10{fill:#1a2e35;}.cls-11,.cls-32{fill:#2b454e;}.cls-13{fill:#ff9090;}.cls-14{fill:#b0494c;}.cls-15,.cls-21,.cls-25{fill:#fff;}.cls-16{fill:#c76668;}.cls-17,.cls-31{opacity:0.2;}.cls-18{fill:#e1e1e1;}.cls-19{fill:#ececec;}.cls-20{opacity:0.7;}.cls-22,.cls-25{opacity:0.6;}.cls-23{opacity:0.8;}.cls-24,.cls-30{opacity:0.1;}.cls-26{fill:#f0f0f0;}.cls-27{fill:#fafafa;}.cls-28{opacity:0.25;}.cls-29{opacity:0.05;}.cls-33{opacity:0.15;}</style></defs><rect class="cls-1" x="0.39" y="-17.32" width="533.18" height="533.18"/><ellipse id="Floor" class="cls-2" cx="266.98" cy="337.43" rx="236.13" ry="130.32"/><ellipse id="Shadow" class="cls-3" cx="378.08" cy="382.5" rx="72.37" ry="41.78"/><ellipse id="Shadow-2" data-name="Shadow" class="cls-3" cx="147.99" cy="382.5" rx="72.37" ry="41.78"/><path id="Shadow-3" data-name="Shadow" class="cls-3" d="M106.91,322.15,257.34,409a4.6,4.6,0,0,0,4.18,0L429.9,311.82a1.28,1.28,0,0,0,0-2.42L279.47,222.53a4.6,4.6,0,0,0-4.18,0L106.91,319.74A1.27,1.27,0,0,0,106.91,322.15Z"/><g id="Character_4" data-name="Character 4"><g id="Boy"><path class="cls-4" d="M360.51,260.14a1.21,1.21,0,0,0,1.21-1.21v-77.4a1.21,1.21,0,0,0-2.41,0v77.4A1.21,1.21,0,0,0,360.51,260.14Z"/><path class="cls-4" d="M312.62,232a1.2,1.2,0,0,0,1.12-.76l23.74-60.07a1.22,1.22,0,0,0-.68-1.57,1.2,1.2,0,0,0-1.56.68L311.5,230.32a1.2,1.2,0,0,0,.68,1.56A1.17,1.17,0,0,0,312.62,232Z"/><path class="cls-4" d="M315.47,224.75a1.22,1.22,0,0,0,.88-.38l44.16-46.74,44.09,46.54a1.2,1.2,0,0,0,1.75-1.65l-45-47.46a1.23,1.23,0,0,0-.88-.38h0a1.2,1.2,0,0,0-.87.38l-45,47.66a1.21,1.21,0,0,0,.87,2Z"/><path class="cls-4" d="M408.4,232a1.19,1.19,0,0,0,1.12-1.64l-23.73-60.08a1.21,1.21,0,1,0-2.24.89l23.73,60.07A1.2,1.2,0,0,0,408.4,232Z"/><path class="cls-5" d="M314.26,222.89l-3.14,8.28a.83.83,0,0,0,0,.22v.15a1,1,0,0,0,.48.52,2.14,2.14,0,0,0,1.91,0,.85.85,0,0,0,.37-.39v0l0-.11,2.9-7.76Z"/><path class="cls-5" d="M406.77,222.89l3.14,8.28a1.64,1.64,0,0,1,0,.22.38.38,0,0,1,0,.15c0,.17-.24.38-.47.52a2.14,2.14,0,0,1-1.91,0,.85.85,0,0,1-.37-.39v0l0-.11-2.91-7.76Z"/><path class="cls-5" d="M359.13,252.94v6.85a.69.69,0,0,0,.4.57,2.18,2.18,0,0,0,2,0,.68.68,0,0,0,.41-.57v-6.85A3,3,0,0,0,359.13,252.94Z"/><path class="cls-5" d="M306.68,162.45c0-2.15,1.9-4.45,5.89-7,7.38-4.79,28.86-16.78,39.18-22.5,0-.08.09-.08.09-.08,8-4.83,10.36-25.41,15.86-42.86,1.88-5.94,4.17-9.31,6.89-10.89.65-.38,3-1.69,3.56-2,5.4-3.23,12.48.65,21.3,5.48,8.13,4.45,14.48,10.14,15.75,25.25.78,9.2,0,26.78-1.83,40.1h0c-2.71,22.25-6,22.29-10.85,26-8.29,6.41-27,15.42-34.85,18.51-14.29,5.62-26-3-34.66-7.34a202.64,202.64,0,0,1-23-13.65c-2.18-1.59-3.3-3.18-3.28-4.87C306.7,165.89,306.68,163.15,306.68,162.45Z"/><path class="cls-6" d="M306.68,162.45c0-2.15,1.9-4.45,5.89-7,7.38-4.79,28.86-16.78,39.18-22.5,0-.08.09-.08.09-.08,8-4.83,10.36-25.41,15.86-42.86,1.88-5.94,4.17-9.31,6.89-10.89.65-.38,3-1.69,3.56-2,5.4-3.23,12.48.65,21.3,5.48,8.13,4.45,14.48,10.14,15.75,25.25.78,9.2,0,26.78-1.83,40.1h0c-2.71,22.25-6,22.29-10.85,26-8.29,6.41-27,15.42-34.85,18.51-14.29,5.62-26-3-34.66-7.34a202.64,202.64,0,0,1-23-13.65c-2.18-1.59-3.3-3.18-3.28-4.87C306.7,165.89,306.68,163.15,306.68,162.45Z"/><path class="cls-5" d="M333,180.94a201,201,0,0,1-23-13.66c-5-3.59-4.49-7.27,2.6-11.87,9.85-6.39,44.86-25.63,44.86-25.63s50.78,30,48.6,35.51-28.45,19.1-38.35,23C353.39,193.9,341.72,185.24,333,180.94Z"/><g class="cls-7"><path d="M333,180.94a201,201,0,0,1-23-13.66c-5-3.59-4.49-7.27,2.6-11.87,9.85-6.39,44.86-25.63,44.86-25.63s50.78,30,48.6,35.51-28.45,19.1-38.35,23C353.39,193.9,341.72,185.24,333,180.94Z"/></g><path class="cls-5" d="M374.91,78.9c5.35-2.81,12.29,1,20.89,5.71,5.5,3,10.19,6.6,13,13.29l3.63-2.1c-2.85-6.66-7.53-10.24-13-13.25-8.82-4.83-15.9-8.71-21.3-5.48C377.68,77.35,375.8,78.39,374.91,78.9Z"/><path class="cls-8" d="M374.91,78.9c5.35-2.81,12.29,1,20.89,5.71,5.5,3,10.19,6.6,13,13.29l3.63-2.1c-2.85-6.66-7.53-10.24-13-13.25-8.82-4.83-15.9-8.71-21.3-5.48C377.68,77.35,375.8,78.39,374.91,78.9Z"/><path class="cls-5" d="M395.8,84.62c-13.2-7.23-22.51-12.36-28.1,5.35-5.5,17.45-7.91,38-15.86,42.86,0,0-2.42.2,17.34,15.13,6.29,4.75,13.92,8.65,18.93,11.63,9.82,5.86,15.78,8.2,16.72,7.42,5.19-4.3,8-42,6.72-57.14S403.93,89.06,395.8,84.62Z"/><rect class="cls-9" x="329.19" y="240.22" width="9.45" height="16.17"/><polygon class="cls-9" points="312.61 244.77 303.17 245.1 302.69 227.98 312.13 227.66 312.61 244.77"/><path class="cls-10" d="M303.07,242.18c-.5,0-.89.71-2,1.88-1.3,1.42-4.23,2.9-6.34,4-3.54,1.77-12.8,4.14-15.91,5.55-1.95.87-1.46,3.89,1.3,5.59,2.06,1.27,8.6,2.49,14.43,1.19,3.17-.71,8-2.92,10.37-3.29,2.59-.41,7.35-.9,9.28-2.23s1.16-4.18.61-6.62c-.59-2.67-1.45-6.74-2.33-6.56l0,.84c-1.14,1.72-6.92,2.42-9.41,1.15Z"/><path class="cls-10" d="M329.19,251.82c-.49,0-.89.7-2,1.88-1.3,1.41-4.23,2.89-6.34,3.95-3.54,1.77-12.8,4.15-15.91,5.55-1.94.87-1.46,3.89,1.3,5.59,2.06,1.27,8.6,2.49,14.43,1.19,3.17-.71,8-2.91,10.37-3.29,2.59-.41,7.35-.9,9.28-2.23s1.16-4.18.61-6.62c-.59-2.66-1.45-6.74-2.33-6.56l0,.84c-1.14,1.72-6.92,2.42-9.41,1.15Z"/><path class="cls-4" d="M391.07,158.41c.54,11.38-.78,14.87-19.7,24.6-9.42,4.85-25.86,13.43-25.86,13.43s.73,3.65.83,14.11c.09,9.21-7.19,37.76-7.19,37.76s-7.69,4-10.78,0c0,0-.11-21.05,0-32.71.16-18.57-.81-23.6,0-27,.57-2.4,19.14-18.69,19.14-18.69l5-3.15-30.93,19.66s-.63,9-1.51,14.64C318,214.25,312.61,236,312.61,236s-6.88,3.08-10.28.43c0,0-.71-53.33-.71-57.81,0-6.81,10.93-14.48,35.94-29.26,5.33-3.15,12.45-6.63,12.45-6.63Z"/><path class="cls-11" d="M352.47,166.77S348,164.53,343.93,156a21.6,21.6,0,0,0,2.77,8.75c1.8,2.82-25.16,21.69-25.16,21.69Z"/></g><path class="cls-9" d="M343.8,94C341.25,99.35,332.3,122,332.3,122l7.28,12.33c2.71-2.26,10.22-20.76,11.14-22.19,2.46-3.85,6.85-28.52,6.85-28.52C348.33,84,346.38,88.53,343.8,94Z"/><path class="cls-5" d="M366.16,84.87a14.6,14.6,0,0,0-5.44-1.5c-8-1-12.73,1.52-15.56,6.07-3.77,6.07-11.3,26.42-11.3,26.42s4.57,7,13.21,8l13.38-23.08Z"/><g class="cls-12"><path d="M366.16,84.87a14.6,14.6,0,0,0-5.44-1.5c-8-1-12.73,1.52-15.56,6.07-3.77,6.07-11.3,26.42-11.3,26.42s4.57,7,13.21,8l13.38-23.08Z"/></g><path class="cls-2" d="M375.47,83.8c1.11.27,10.33,2.43,14.38,3.81v31.1l1.22,39.7c-6.7,7.29-42,2.69-46.13-12.8,0,0,.22-37.76.22-45.2s4.14-16.38,15.56-17Z"/><path class="cls-5" d="M382.9,47.2a5,5,0,0,0-2.64-1.42l3.43-1.84a2.77,2.77,0,0,0-3.8-1.26,3,3,0,0,0-1.28,3.79l-1.2,13.33-1.12-.11-.48,7.75-.13,6.45c3.11-.07,5.43-3.13,7.21-13.55C384.33,52.47,384.7,49.05,382.9,47.2Z"/><path class="cls-6" d="M382.9,47.2a5,5,0,0,0-2.64-1.42l3.43-1.84a2.77,2.77,0,0,0-3.8-1.26,3,3,0,0,0-1.28,3.79l-1.2,13.33-1.12-.11-.48,7.75-.13,6.45c3.11-.07,5.43-3.13,7.21-13.55C384.33,52.47,384.7,49.05,382.9,47.2Z"/><path class="cls-5" d="M342.58,42.73c-1.71-1-2.16,1-1.22,2.66a8,8,0,0,0,6.49,4.32c0-.25,1.6-4.37,1.6-4.37l-3.37-1.9A8.79,8.79,0,0,1,342.58,42.73Z"/><path class="cls-6" d="M342.58,42.73c-1.71-1-2.16,1-1.22,2.66a8,8,0,0,0,6.49,4.32c0-.25,1.6-4.37,1.6-4.37l-3.37-1.9A8.79,8.79,0,0,1,342.58,42.73Z"/><path class="cls-9" d="M376.06,61c.83.49,2-1.1,3-2.17s4.36-2.54,6,1-1.47,8.31-4.1,9.14c-4.54,1.42-5.22-1.49-5.22-1.49l-.34,16.36s-3,7.26-11,8.35-6.38-5.54-3.74-8.78v-5a28.65,28.65,0,0,1-6.11.31c-3.34-.51-5.44-3.14-6.45-6.75-1.62-5.8-2.24-10.48-.86-21.88,1.51-12.5,16-12.63,23.89-7.69S376.06,61,376.06,61Z"/><path class="cls-5" d="M376.06,62.38c.42,0,2-2.62,3-3.56,1.43-1.31-.42-13.11-.42-13.11s1.45-4.47-1.38-7.44S369,35.81,365,35.66a36,36,0,0,1-14.34-2.88c-5.69-2.47-6.12-2.76-6.82-.26s-1,8.23,2.42,12.07l2.83,1s1.53,1.36,6.84,2,13.58-.13,14.71-.28c1.54-.21,1.87,1.28,2.7,5.36C374.05,56.29,374.66,62.35,376.06,62.38Z"/><path class="cls-6" d="M376.06,62.38c.42,0,2-2.62,3-3.56,1.43-1.31-.42-13.11-.42-13.11s1.45-4.47-1.38-7.44S369,35.81,365,35.66a36,36,0,0,1-14.34-2.88c-5.69-2.47-6.12-2.76-6.82-.26s-1,8.23,2.42,12.07l2.83,1s1.53,1.36,6.84,2,13.58-.13,14.71-.28c1.54-.21,1.87,1.28,2.7,5.36C374.05,56.29,374.66,62.35,376.06,62.38Z"/><path class="cls-13" d="M360.73,78.39s7.44-1.5,10-2.88a8.54,8.54,0,0,0,3.6-3.56,11.81,11.81,0,0,1-2,4.2c-1.91,2.43-11.6,4.22-11.6,4.22Z"/><path class="cls-10" d="M359.6,59.05a1.5,1.5,0,1,0,1.49-1.55A1.52,1.52,0,0,0,359.6,59.05Z"/><path class="cls-4" d="M361.18,53.42l3.2,1.76a1.92,1.92,0,0,0-.75-2.54A1.79,1.79,0,0,0,361.18,53.42Z"/><path class="cls-13" d="M359.4,69.36,356,70.64a1.79,1.79,0,0,0,2.32,1.12A1.9,1.9,0,0,0,359.4,69.36Z"/><path class="cls-4" d="M347.62,54.66l2.91-2.24A1.77,1.77,0,0,0,348,52,1.94,1.94,0,0,0,347.62,54.66Z"/><path class="cls-10" d="M348,58.14a1.49,1.49,0,1,0,1.49-1.55A1.52,1.52,0,0,0,348,58.14Z"/><polygon class="cls-13" points="355.3 57.22 354.81 66.19 350.12 64.59 355.3 57.22"/><path class="cls-9" d="M386.48,86.94s5.95,1,8.67,6.41c1.64,3.23,7,11.65,10.34,17.33l3.1,5.3s20.33-10.78,21.47-12.19,1.08-4.27,1.25-5.81c.28-2.57-.66-4.78-.8-5.71-.28-2,2.56-1.52,3.46-.73a8.45,8.45,0,0,1,1.46,2.11c.44.74,1.27,3.13,2.11,3.29.67.11,2-.83,2.52-1.23,2.23-1.69,3.61-4,5.32-6.17a3.11,3.11,0,0,1,1.24-1.07,3,3,0,0,1,2.49.66,6,6,0,0,1,1.83,1.63,5.19,5.19,0,0,1,.62,1.63c.89,3.89-1.08,7.18-3.44,10.12a35.42,35.42,0,0,1-8.32,7.36c-1.85,1.21-4.3,2.29-6.39,3.43S407.16,135,404,132.87c-1.3-.89-5.3-5.88-9.16-10.58a70.35,70.35,0,0,1-6.95-10C379.07,104.49,386.48,86.94,386.48,86.94Z"/><path class="cls-5" d="M385.07,109.93c-4.75-9.35-2.48-20.32.89-23.49,8.57,1.47,9.63,5.87,14,13.54,6.32,11.14,8.78,14.52,8.78,14.52-2.14,2.85-8.32,10.15-12.51,10.39Z"/><g class="cls-12"><path d="M385.07,109.93c-4.75-9.35-2.48-20.32.89-23.49,8.57,1.47,9.63,5.87,14,13.54,6.32,11.14,8.78,14.52,8.78,14.52-2.14,2.85-8.32,10.15-12.51,10.39Z"/></g></g><g id="Character_3" data-name="Character 3"><g id="Girl"><path class="cls-4" d="M195.31,260.6a1.21,1.21,0,0,1-1.21-1.2V182a1.21,1.21,0,0,1,2.41,0V259.4A1.2,1.2,0,0,1,195.31,260.6Z"/><path class="cls-4" d="M243.2,232.43a1.19,1.19,0,0,1-1.12-.77l-23.74-60.07a1.21,1.21,0,0,1,2.24-.89l23.74,60.08a1.22,1.22,0,0,1-1.12,1.65Z"/><path class="cls-4" d="M240.35,225.21a1.22,1.22,0,0,1-.88-.38L195.3,178.1l-44.08,46.54a1.21,1.21,0,0,1-1.75-1.66l45-47.46a1.21,1.21,0,0,1,.88-.38h0a1.2,1.2,0,0,1,.87.38l45,47.66a1.21,1.21,0,0,1-.87,2Z"/><path class="cls-4" d="M147.42,232.43a1.2,1.2,0,0,1-.45-.09,1.19,1.19,0,0,1-.67-1.56L170,170.7a1.21,1.21,0,0,1,2.24.89l-23.74,60.07A1.18,1.18,0,0,1,147.42,232.43Z"/><path class="cls-5" d="M241.56,223.36l3.14,8.28a.76.76,0,0,1,0,.21V232a1,1,0,0,1-.48.52,2.08,2.08,0,0,1-1.91,0,.85.85,0,0,1-.37-.39h0l0-.12L239,224.24Z"/><path class="cls-5" d="M149.05,223.36l-3.14,8.28a.75.75,0,0,0,0,.21.38.38,0,0,0,0,.15c0,.17.24.38.47.52a2.08,2.08,0,0,0,1.91,0,.85.85,0,0,0,.37-.39h0l0-.12,2.91-7.76Z"/><path class="cls-5" d="M196.69,253.4v6.85a.69.69,0,0,1-.4.57,2.2,2.2,0,0,1-2,0,.69.69,0,0,1-.4-.57V253.4A3,3,0,0,1,196.69,253.4Z"/><path class="cls-10" d="M249.14,170.77c0-2.15-1.9-4.45-5.89-7-7.38-4.79-28.86-16.78-39.19-22.5,0-.08-.08-.08-.08-.08-7.95-4.83-10.36-25.41-15.86-42.86-1.88-6-4.17-9.31-6.89-10.89-.65-.38-3-1.69-3.56-2-5.4-3.23-12.48.65-21.3,5.48-8.13,4.45-14.48,10.14-15.75,25.25-.78,9.2,0,26.78,1.83,40.1h0c2.71,22.25,6,22.29,10.85,26,8.29,6.41,27,15.42,34.85,18.51,14.29,5.62,26-3,34.66-7.34a201,201,0,0,0,23-13.66c2.18-1.58,3.3-3.17,3.28-4.86C249.12,174.21,249.14,171.47,249.14,170.77Z"/><path class="cls-11" d="M222.8,189.26a202.43,202.43,0,0,0,23-13.66c5-3.59,4.49-7.27-2.6-11.87-9.85-6.39-44.86-25.63-44.86-25.63s-50.79,30-48.6,35.5,28.45,19.11,38.35,23C202.43,202.22,214.1,193.56,222.8,189.26Z"/><path class="cls-4" d="M180.91,87.22c-5.35-2.81-12.29,1-20.89,5.71-5.5,3-10.19,6.6-13,13.29l-3.63-2.1c2.85-6.66,7.53-10.24,13-13.25,8.82-4.83,15.9-8.71,21.3-5.48C178.14,85.67,180,86.71,180.91,87.22Z"/><path class="cls-11" d="M160,92.94c13.2-7.23,22.51-12.37,28.1,5.35,5.5,17.45,7.91,38,15.86,42.86,0,0,2.42.2-17.34,15.13-6.29,4.75-13.92,8.65-18.93,11.63-9.82,5.86-15.78,8.2-16.72,7.42-5.19-4.3-8-42-6.72-57.15S151.89,97.38,160,92.94Z"/><path class="cls-10" d="M210.57,217.15c-.79.67-1.69,1.45-1.69,2.39a9.46,9.46,0,0,0,2,5.55c1.74,2.32,2.6,6.49,2.69,9.26s-.39,9.79,2.8,12.89,11.47,5.35,12,.26-7.52-25.72-7.52-25.72Z"/><path class="cls-14" d="M214.9,220.91a76.43,76.43,0,0,1,2.27,11.29c.44,4.18,1.35,7.18,3.33,8.49s5.1,1.44,4.22-1.46-3.89-17.45-3.89-17.45Z"/><path class="cls-5" d="M199.06,143.65s18.75,7.09,26.36,12.24,11.57,8.72,12.81,12.37c1.32,3.86.56,9.11-4.07,22.79-1,3-6.85,21.89-6.85,21.89l-13.63-32-22.8-17.09Z"/><path class="cls-15" d="M199.06,143.65s18.75,7.09,26.36,12.24,11.57,8.72,12.81,12.37c1.32,3.86.56,9.11-4.07,22.79-1,3-6.85,21.89-6.85,21.89l-13.63-32-22.8-17.09Z"/><path class="cls-10" d="M227,247.74c-.73.38-.81,2.08-.87,3.32s-1.12,2.77.48,4.86,4.61,2.57,6.79,5.43,3.57,6.91,10.27,7.95,11.62-1.43,12.75-3.47-.09-3.85-4.45-6c-4.64-2.32-6-3-6-3Z"/><path class="cls-16" d="M233.32,233.73s3.7,8.67,5.87,12.63,3.58,6.5,7.18,9.9c.79.74,2.54,2.08,3.18,2.68a1.27,1.27,0,0,1,.07,2c-1.29,1.52-7.34,2.47-11,.26s-5.64-5.6-7.88-7.45c-1.13-.92-2.18-1.81-3-2.46a2.79,2.79,0,0,1-1-2.56c0-.27.09-.59.14-1,.27-2-3.15-9.81-3.15-9.81Z"/><path class="cls-5" d="M153.29,147.23c-2.63,7.68-3.07,17.54,4,24,4.67,4.3,15,11.08,23.11,14.81s20.4,9.9,22.8,10.68,2.78,2.15,2.9,6.56,2.36,11.41,8.13,19.87c6.1,8.94,9.63,14.8,9.63,14.8a10.2,10.2,0,0,0,10-3.54s-11.22-46.54-13.75-52-25.15-21.21-25.15-21.21a176.9,176.9,0,0,0,4.15-17.48Z"/><path class="cls-15" d="M153.29,147.23c-2.63,7.68-3.07,17.54,4,24,4.67,4.3,15,11.08,23.11,14.81s20.4,9.9,22.8,10.68,2.78,2.15,2.9,6.56,2.36,11.41,8.13,19.87c6.1,8.94,9.63,14.8,9.63,14.8a10.2,10.2,0,0,0,10-3.54s-11.22-46.54-13.75-52-25.15-21.21-25.15-21.21a176.9,176.9,0,0,0,4.15-17.48Z"/><path class="cls-17" d="M224,185.08c-1.78-5.65-6.49-9.77-10.94-13.2-3.65-2.81-12.95-9.57-16.19-11.92a36.33,36.33,0,0,0,1.49-6.48s-2.18,5.21-3.43,7.65h0s22.71,15.87,25.15,21.21c1.41,3.06,5.05,19.72,8.8,32C228.47,212.46,225.66,190.47,224,185.08Z"/></g><path class="cls-16" d="M136.33,130.21S113.21,126,111.66,125s-2.37-3.83-3-5.27c-1.08-2.42-.85-4.86-1-5.8-.34-2-3-.69-3.6.36a8.81,8.81,0,0,0-.76,2.51c-.2.85-.26,3.44-1,3.85-.6.32-2.17-.19-2.82-.42-2.7-.94-4.77-2.8-7.1-4.34a3.22,3.22,0,0,0-1.53-.66,3,3,0,0,0-2.22,1.41,5.79,5.79,0,0,0-1.27,2.16,5.05,5.05,0,0,0-.1,1.78c.34,4.06,3.28,6.65,6.49,8.78A36.32,36.32,0,0,0,104.07,134c2.18.6,4.89.89,7.28,1.35s31,12,34,9.49c1.86-1.57,3.73-7.94,5.72-13.83a167.45,167.45,0,0,0,4.84-18.58,30.26,30.26,0,0,0-5-18.18s-5.47,1.11-7.6,9.22c-.93,3.58-4.16,14.12-5.63,20.67-.81,3.56-1.38,6.12-1.38,6.12"/><path class="cls-18" d="M158.05,109.79c3-7,1.11-18.59-2.26-21.76-8.58,1.47-10.74,5.52-13.1,13.49-3.62,12.28-5.46,20.25-5.46,20.25,2.14,2.86,11.88,6.42,15.89,5.2Z"/><path class="cls-18" d="M182.07,86.39a13.47,13.47,0,0,1,7.39-2.16c3.85.25,8.26,1.61,11.09,6.16,3.77,6.07,12.56,19.4,12.56,19.4a17.36,17.36,0,0,1-11.83,11.83l-13.51-19.34Z"/><path class="cls-2" d="M196.47,117.2c.63,5.87,2.59,26.45,2.59,26.45-3.91,10-14.49,10.59-23.05,10.69-10.26.12-19.92-2.59-22.72-7.06a101.77,101.77,0,0,0,5.58-17.69l-3.76-16.44s9-8.19,0-24.94L167,84.65l14.18-1.16,8.27.74c4.65,3.41,7.74,10.35,9.24,14.18S203.24,109.23,196.47,117.2Z"/><path class="cls-19" d="M157.13,136.42c.13-.44.26-.88.37-1.29.92-3.32,1.37-5.54,1.37-5.54l-3.76-16.44h0l0,0,0,0c.07-.07.2-.2.38-.4v0c1.19-1.37,4.27-5.72,3.39-13.13h0s2.6,9.45-.76,14.37l3.17,14.25,4.59,6.68-5.57-2.18s-2,7.85-2.19,10.44c-.13,2,4.6,8.64,14.72,11.18-9.05-.4-17.09-3-19.61-7h0A97.08,97.08,0,0,0,157.13,136.42Z"/><path class="cls-10" d="M175.07,32.19h0a23.58,23.58,0,0,1,23.58,23.58V81.13a0,0,0,0,1,0,0H169.77a18.27,18.27,0,0,1-18.27-18.27v-7.1A23.58,23.58,0,0,1,175.07,32.19Z"/><path class="cls-5" d="M166.71,61.82c20.75.23,22.58-19.46,22.58-19.46A76.81,76.81,0,0,1,166.71,61.82Z"/><path class="cls-11" d="M157.4,39.46a3,3,0,0,0-3.9-2l1.37,4.5a3.09,3.09,0,0,0-1.48-1.1,3,3,0,0,0-3.88,2L155.37,45a3.35,3.35,0,0,0,.08-1.57A3.24,3.24,0,0,0,157.4,39.46Z"/><path class="cls-16" d="M189.29,42.36c2.53,1.41,5.77,7.59,5.83,20.73,0,11.13-3.49,14-5.28,14.82s-5.29.46-8.71,0l.06,5.6s6.13,5.72,5.91,8.79-7.83,4.66-12.3,1.79-8.35-8.53-8.35-8.53l-.33-15.44s-1.94,2-5.41-.87c-2.87-2.37-3.92-6.47-1.8-8.74a4.88,4.88,0,0,1,7.8,1.33s5.42,0,12.52-4.11A20.3,20.3,0,0,0,189.29,42.36Z"/><path class="cls-10" d="M184,60a1.4,1.4,0,1,1-1.51-1.35A1.43,1.43,0,0,1,184,60Z"/><path class="cls-14" d="M183.25,70.05l3.28,1a1.69,1.69,0,0,1-2.09,1.23A1.79,1.79,0,0,1,183.25,70.05Z"/><path class="cls-10" d="M194,55.35l-2.88-1.88a1.65,1.65,0,0,1,2.34-.55A1.81,1.81,0,0,1,194,55.35Z"/><path class="cls-10" d="M194.06,58.57a1.4,1.4,0,1,1-1.51-1.34A1.44,1.44,0,0,1,194.06,58.57Z"/><polygon class="cls-14" points="187.62 58.41 187.79 67.54 192.18 66.04 187.62 58.41"/><path class="cls-14" d="M181.13,77.89c-3.59-.37-11-2.28-12.24-5.16a7.57,7.57,0,0,0,2.69,3.64c2.25,1.83,9.58,3.76,9.58,3.76Z"/></g><g id="Table"><path class="cls-4" d="M271.39,392.42a1.13,1.13,0,0,0,.68,1,3.75,3.75,0,0,0,3.39,0,1.23,1.23,0,0,0,.71-1h0l.07-97.52-4.79.06Z"/><path class="cls-11" d="M274,393.81a3.38,3.38,0,0,0,1.44-.39,1.23,1.23,0,0,0,.71-1h0l.07-97.52-2.15,0Z"/><path class="cls-10" d="M272.14,295.92a3.73,3.73,0,0,0,3.38,0c.94-.55,1-1.42,0-2a3.75,3.75,0,0,0-3.39,0C271.22,294.52,271.21,295.39,272.14,295.92Z"/><path class="cls-4" d="M409.31,312.43a1.12,1.12,0,0,0,.68,1,3.73,3.73,0,0,0,3.38,0,1.22,1.22,0,0,0,.72-1h0l.06-97.52-4.78.06Z"/><path class="cls-11" d="M411.94,313.81a3.3,3.3,0,0,0,1.43-.39,1.22,1.22,0,0,0,.72-1h0l.06-97.52-2.15,0Z"/><path class="cls-10" d="M410.06,215.93a3.76,3.76,0,0,0,3.38,0c.94-.54.95-1.42,0-1.95a3.73,3.73,0,0,0-3.38,0C409.14,214.52,409.13,215.39,410.06,215.93Z"/><path class="cls-4" d="M129.81,310.25a1.15,1.15,0,0,0,.68,1,3.78,3.78,0,0,0,3.39,0,1.21,1.21,0,0,0,.71-1h0l.07-97.53-4.79.07Z"/><path class="cls-11" d="M132.44,311.64a3.5,3.5,0,0,0,1.44-.4,1.21,1.21,0,0,0,.71-1h0l.07-97.53-2.15,0Z"/><path class="cls-10" d="M130.56,213.75a3.73,3.73,0,0,0,3.38,0c.94-.54,1-1.41,0-1.95a3.73,3.73,0,0,0-3.38,0C129.64,212.34,129.63,213.21,130.56,213.75Z"/><g id="Desk"><path class="cls-5" d="M104.82,227.83V227a4.6,4.6,0,0,1,2.09-3.62l168.38-97.21a4.6,4.6,0,0,1,4.18,0L429.9,213a4.62,4.62,0,0,1,2.09,3.63v.83a4.63,4.63,0,0,1-2.09,3.63l-168.38,97.2a4.6,4.6,0,0,1-4.18,0L106.91,231.45A4.61,4.61,0,0,1,104.82,227.83Z"/><g class="cls-20"><path class="cls-21" d="M104.82,227.83V227a4.6,4.6,0,0,1,2.09-3.62l168.38-97.21a4.6,4.6,0,0,1,4.18,0L429.9,213a4.62,4.62,0,0,1,2.09,3.63v.83a4.63,4.63,0,0,1-2.09,3.63l-168.38,97.2a4.6,4.6,0,0,1-4.18,0L106.91,231.45A4.61,4.61,0,0,1,104.82,227.83Z"/></g><path class="cls-5" d="M259.43,313.16v5.67a4.46,4.46,0,0,1-2.1-.5L106.91,231.46a4.63,4.63,0,0,1-2.09-3.63V227a4.64,4.64,0,0,1,1.7-3.35c-.75.65-.62,1.55.39,2.15l150.42,86.87A4.24,4.24,0,0,0,259.43,313.16Z"/><g class="cls-22"><path class="cls-21" d="M259.43,313.16v5.67a4.46,4.46,0,0,1-2.1-.5L106.91,231.46a4.63,4.63,0,0,1-2.09-3.63V227a4.64,4.64,0,0,1,1.7-3.35c-.75.65-.62,1.55.39,2.15l150.42,86.87A4.24,4.24,0,0,0,259.43,313.16Z"/></g><path class="cls-5" d="M106.91,225.78l150.43,86.88a4.66,4.66,0,0,0,4.18,0L429.9,215.45a1.28,1.28,0,0,0,0-2.42L279.47,126.16a4.6,4.6,0,0,0-4.18,0L106.91,223.37A1.27,1.27,0,0,0,106.91,225.78Z"/><g class="cls-23"><path class="cls-21" d="M106.91,225.78l150.43,86.88a4.66,4.66,0,0,0,4.18,0L429.9,215.45a1.28,1.28,0,0,0,0-2.42L279.47,126.16a4.6,4.6,0,0,0-4.18,0L106.91,223.37A1.27,1.27,0,0,0,106.91,225.78Z"/></g></g></g><path class="cls-24" d="M224.3,259.22a4.21,4.21,0,0,1-2.08-.52l-45.64-26.36a2.48,2.48,0,0,1,0-4.44l25.92-15a4.4,4.4,0,0,1,4.15,0l45.65,26.35a2.48,2.48,0,0,1,0,4.45l-25.93,15A4.17,4.17,0,0,1,224.3,259.22Z"/><g id="Black_Laptop" data-name="Black Laptop"><g id="Laptop"><path class="cls-11" d="M252.6,240.3a2.54,2.54,0,0,1-1.19,2l-25.92,15a2.63,2.63,0,0,1-2.38,0L177.46,230.9a2.24,2.24,0,0,1,0-4l25.92-15a2.63,2.63,0,0,1,2.38,0l45.65,26.36A2.54,2.54,0,0,1,252.6,240.3Z"/><path class="cls-10" d="M224.3,255v2.58a2.44,2.44,0,0,0,1.19-.29l25.92-15a2.54,2.54,0,0,0,1.19-2,2.59,2.59,0,0,0-1.07-1.9c.54.39.5.95-.12,1.3l-25.92,15A2.44,2.44,0,0,1,224.3,255Z"/><path class="cls-4" d="M253.72,238.37c.62-.36.58-1,.58-1.72v-35.8a2.64,2.64,0,0,0-1.19-2.07l-45.64-26.35a2.55,2.55,0,0,0-2.31,0c-.62.35-.59,1-.59,1.71v35.81a2.65,2.65,0,0,0,1.19,2.06l45.65,26.36A2.54,2.54,0,0,0,253.72,238.37Z"/><path class="cls-10" d="M251.55,238.4a2.57,2.57,0,0,0,2.17,0c.62-.36.58-1,.58-1.72v-35.8a2.43,2.43,0,0,0-.35-1.18l-1.7,1h0a2.36,2.36,0,0,1,.35,1.17v35.81C252.6,238.34,252.14,238.66,251.55,238.4Z"/><path class="cls-11" d="M252.6,201.83v35.81c0,.76-.53,1.07-1.19.69L205.76,212a2.65,2.65,0,0,1-1.19-2.06V174.1c0-.76.54-1.06,1.19-.68l45.65,26.35A2.62,2.62,0,0,1,252.6,201.83Z"/><path class="cls-4" d="M251.41,239.7l-25.92,15a2.63,2.63,0,0,1-2.38,0l-45.65-26.35a.73.73,0,0,1,0-1.38l25.92-15a2.63,2.63,0,0,1,2.38,0l45.65,26.36A.72.72,0,0,1,251.41,239.7Z"/><path class="cls-5" d="M250.77,201.14l-44-25.4c-.39-.23-.71,0-.71.41v33a1.59,1.59,0,0,0,.71,1.24l44,25.4c.4.23.72,0,.72-.41v-33A1.59,1.59,0,0,0,250.77,201.14Z"/><path class="cls-25" d="M250.77,201.14l-44-25.4c-.39-.23-.71,0-.71.41v33a1.59,1.59,0,0,0,.71,1.24l44,25.4c.4.23.72,0,.72-.41v-33A1.59,1.59,0,0,0,250.77,201.14Z"/><path class="cls-10" d="M248.12,238.4l-42.37-24.47a1.31,1.31,0,0,0-1.19,0l-.71.39a.36.36,0,0,0,0,.69l42.38,24.46a1.31,1.31,0,0,0,1.19,0l.7-.38A.36.36,0,0,0,248.12,238.4Z"/><path class="cls-10" d="M244.79,240.37l-42.37-24.46a1.19,1.19,0,0,0-1.08-.06l-11,6.37c-.27.16-.23.44.1.63l42.32,24.43a1.24,1.24,0,0,0,1.09.06L244.9,241C245.17,240.84,245.12,240.56,244.79,240.37Z"/><path class="cls-5" d="M208.27,226.19l1.27-.73c.05,0,.05-.08,0-.11l-1.33-.77a.21.21,0,0,0-.19,0l-1.27.73c-.05,0,0,.08,0,.11l1.33.77A.21.21,0,0,0,208.27,226.19Zm1.55-2.66-1.27.73c-.05,0,0,.08,0,.11l1.32.77a.28.28,0,0,0,.2,0l1.26-.74c.05,0,.05-.08,0-.11l-1.32-.76A.21.21,0,0,0,209.82,223.53Zm4.29,2.47-1.27.74c-.05,0,0,.07,0,.11l2.25,1.29a.19.19,0,0,0,.19,0l1.27-.73c.05,0,0-.08,0-.11L214.3,226A.21.21,0,0,0,214.11,226Zm-2.35-1.35-1.27.73c-.05,0,0,.08,0,.11l1.32.77a.21.21,0,0,0,.19,0l1.27-.73c.05,0,.05-.08,0-.11l-1.32-.77A.23.23,0,0,0,211.76,224.65Zm5.21,3-1.27.74s0,.07,0,.11l1.33.76a.19.19,0,0,0,.19,0l1.27-.73c.05,0,0-.08,0-.11l-1.33-.77A.21.21,0,0,0,217,227.65Zm1.94,1.12-1.27.74s0,.07,0,.11l1.33.76a.19.19,0,0,0,.19,0l1.27-.73c.05,0,0-.08,0-.11l-1.33-.77A.21.21,0,0,0,218.91,228.77Zm-4.59,3,1.27-.74s0-.08,0-.11l-1.32-.76a.19.19,0,0,0-.19,0l-1.27.73s0,.08,0,.11l1.32.77A.28.28,0,0,0,214.32,231.78Zm1.94,1.12,1.27-.74c.05,0,0-.08,0-.11l-1.32-.76a.21.21,0,0,0-.2,0l-1.26.73s0,.08,0,.11l1.32.77A.28.28,0,0,0,216.26,232.9Zm1.93,1.11,1.27-.73s0-.08,0-.11l-1.32-.77a.23.23,0,0,0-.2,0l-1.27.73s0,.08,0,.11L218,234A.21.21,0,0,0,218.19,234Zm1.94,1.12,1.27-.73s0-.08,0-.11l-1.33-.77a.21.21,0,0,0-.19,0l-1.27.73s0,.08,0,.11l1.33.77A.21.21,0,0,0,220.13,235.13Zm-9.92-7.82,1.27-.73c.05,0,.05-.08,0-.11l-1.33-.77a.21.21,0,0,0-.19,0l-1.27.73c-.05,0,0,.08,0,.11l1.33.77A.21.21,0,0,0,210.21,227.31Zm2.17,3.35,1.27-.74s0-.08,0-.11l-1.23-.7c-.06,0-.06-.09,0-.12l1.63-.94c.05,0,.05-.08,0-.11l-1.53-.88a.19.19,0,0,0-.19,0l-3.09,1.78c-.05,0,0,.08,0,.11l3,1.71A.21.21,0,0,0,212.38,230.66Zm8.47-.77-1.27.73c-.05,0-.05.08,0,.12l1.32.76a.24.24,0,0,0,.2,0l1.27-.73c.05,0,0-.08,0-.12L221,229.9A.21.21,0,0,0,220.85,229.89Zm1.93,1.12-1.27.73s0,.08,0,.12l1.32.76a.24.24,0,0,0,.2,0l1.26-.73c.06,0,.05-.08,0-.12L223,231A.24.24,0,0,0,222.78,231ZM235,242.24c.05,0,0-.08,0-.11l-1.32-.77a.24.24,0,0,0-.2,0l-1.26.74c-.05,0-.05.08,0,.11l1.32.76a.21.21,0,0,0,.2,0ZM238.3,240l-1.27.73c-.05,0-.05.08,0,.11l1.32.77a.23.23,0,0,0,.2,0l1.27-.73s0-.08,0-.11l-1.33-.77A.21.21,0,0,0,238.3,240Zm-1,1.52s0-.08,0-.12l-1.33-.76a.21.21,0,0,0-.19,0l-1.27.73c-.05,0-.05.08,0,.12l1.33.76a.21.21,0,0,0,.19,0Zm-6.43,1.94,1.27-.73c.05,0,.05-.08,0-.12l-1.33-.76a.21.21,0,0,0-.19,0l-1.27.73c-.05,0,0,.08,0,.12l1.33.76A.21.21,0,0,0,230.87,243.43Zm3.21.38s0-.07,0-.11l-1.33-.76a.19.19,0,0,0-.19,0l-1.27.73c-.05,0,0,.08,0,.11l1.33.77a.21.21,0,0,0,.19,0Zm2.28-5-1.27.73c-.05,0-.05.08,0,.11l1.33.77a.21.21,0,0,0,.19,0l1.27-.73c.05,0,0-.08,0-.11l-1.33-.77A.21.21,0,0,0,236.36,238.85Zm-9.7-5.6-1.27.73s0,.08,0,.11l1.33.77a.21.21,0,0,0,.19,0l1.27-.74c.05,0,.05-.07,0-.11l-1.33-.76A.19.19,0,0,0,226.66,233.25Zm7.76,4.48-1.27.73c-.05,0-.05.08,0,.11l1.33.77a.21.21,0,0,0,.19,0l1.27-.73c.05,0,0-.08,0-.11l-1.33-.77A.21.21,0,0,0,234.42,237.73Zm-9.7-5.6-1.27.73s0,.08,0,.11l1.32.77a.21.21,0,0,0,.19,0l1.27-.74c.05,0,.05-.07,0-.11l-1.32-.76A.21.21,0,0,0,224.72,232.13Zm3.88,2.24-1.27.73c-.05,0,0,.08,0,.11l1.33.77a.21.21,0,0,0,.19,0l1.27-.74c.05,0,.05-.08,0-.11l-1.33-.76A.19.19,0,0,0,228.6,234.37Zm1.94,1.12-1.27.73c-.05,0,0,.08,0,.11l1.33.77a.25.25,0,0,0,.19,0l1.27-.74c.05,0,.05-.08,0-.11l-1.33-.76A.19.19,0,0,0,230.54,235.49Zm1.94,1.12-1.27.73c-.05,0-.05.08,0,.11l1.33.77a.25.25,0,0,0,.19,0l1.27-.74c.05,0,0-.08,0-.11l-1.33-.76A.19.19,0,0,0,232.48,236.61Zm-8.47.76,1.27-.73c.05,0,.05-.08,0-.11l-1.33-.77a.21.21,0,0,0-.19,0l-1.27.73s0,.08,0,.11l1.33.77A.21.21,0,0,0,224,237.37Zm-18.47-16.32-1.27.74c-.05,0-.05.08,0,.11l1.33.76a.19.19,0,0,0,.19,0l1.27-.73c.05,0,0-.08,0-.11l-1.33-.77A.25.25,0,0,0,205.54,221.05Zm2.34,1.36-1.26.73c-.05,0-.05.08,0,.11L208,224a.28.28,0,0,0,.2,0l1.27-.74c.05,0,0-.08,0-.11l-1.32-.76A.2.2,0,0,0,207.88,222.41Zm-4.28-2.48-1.27.74c-.05,0-.05.08,0,.11l1.33.76a.19.19,0,0,0,.19,0l1.27-.73c.05,0,0-.08,0-.11l-1.33-.77A.25.25,0,0,0,203.6,219.93Zm11.1,10,1.27-.73c.05,0,.05-.08,0-.11l-1.33-.77a.21.21,0,0,0-.19,0l-1.27.73s0,.08,0,.11l1.33.77A.21.21,0,0,0,214.7,229.9Zm-14.31-10.35s0,.08,0,.11l1.33.77a.21.21,0,0,0,.19,0l1.27-.73c.05,0,.05-.08,0-.11l-1.33-.77a.21.21,0,0,0-.19,0Zm21.68,16.7,1.27-.73s0-.08,0-.11l-1.33-.77a.21.21,0,0,0-.19,0l-1.27.73s0,.08,0,.11l1.33.77A.21.21,0,0,0,222.07,236.25ZM198.3,222.53l1.26-.74c.05,0,.05-.08,0-.11l-1.32-.76a.21.21,0,0,0-.2,0l-1.27.73s0,.08,0,.11l1.32.77A.28.28,0,0,0,198.3,222.53Zm3.75.07,1.27-.73c.05,0,0-.08,0-.12L202,221a.21.21,0,0,0-.19,0l-1.27.73c-.05,0-.05.08,0,.12l1.32.76A.24.24,0,0,0,202.05,222.6Zm-3.47-2c-.05,0-.05.08,0,.12l1.33.76a.21.21,0,0,0,.19,0l1.27-.73c.05,0,0-.08,0-.12l-1.33-.76a.21.21,0,0,0-.19,0Zm.85-1.07-1.33-.77a.21.21,0,0,0-.19,0l-3.08,1.78c-.05,0-.05.08,0,.11l1.32.77a.24.24,0,0,0,.2,0l3.08-1.78C199.49,219.6,199.48,219.55,199.43,219.52Zm4.29,2.58-1.26.73c-.05,0-.05.08,0,.12l1.32.76a.24.24,0,0,0,.2,0l1.27-.74c.05,0,0-.07,0-.11l-1.32-.76A.24.24,0,0,0,203.72,222.1Zm14.6,8.43-1.27.73c-.05,0-.05.08,0,.11l1.33.77a.21.21,0,0,0,.19,0l1.27-.73c.05,0,0-.08,0-.11l-1.33-.77A.21.21,0,0,0,218.32,230.53Zm-16.82-7.62c.05,0,.05-.08,0-.11l-1.32-.77a.23.23,0,0,0-.2,0l-1.27.73s0,.08,0,.11l1.33.77a.21.21,0,0,0,.19,0Zm14.88,6.5-1.27.73c-.05,0-.05.08,0,.11l1.33.77a.21.21,0,0,0,.19,0l1.27-.73c.05,0,0-.08,0-.11l-1.33-.77A.21.21,0,0,0,216.38,229.41ZM233,241.12c.05,0,0-.08,0-.11l-1.33-.77a.25.25,0,0,0-.19,0l-1.27.74c-.05,0-.05.08,0,.11l1.32.76a.21.21,0,0,0,.2,0Zm.79-1.64-1.27.73c-.05,0,0,.08,0,.12l1.33.76a.21.21,0,0,0,.19,0l1.27-.73s0-.08,0-.12l-1.33-.76A.21.21,0,0,0,233.83,239.48Zm-4,1.25,1.27-.73c.05,0,0-.08,0-.11l-1.33-.77a.25.25,0,0,0-.19,0l-1.27.74c-.05,0-.05.08,0,.11l1.33.76A.19.19,0,0,0,229.83,240.73Zm-1.94-1.12,1.27-.73c.05,0,0-.08,0-.11l-1.33-.77a.21.21,0,0,0-.19,0l-1.27.73c-.05,0-.05.08,0,.11l1.33.77A.21.21,0,0,0,227.89,239.61ZM226,238.49l1.27-.73c.05,0,0-.08,0-.11l-1.33-.77a.21.21,0,0,0-.19,0l-1.27.73s0,.08,0,.11l1.33.77A.21.21,0,0,0,226,238.49Zm5.94-.13-1.27.74c-.05,0,0,.07,0,.11L232,240a.19.19,0,0,0,.19,0l1.27-.73c.05,0,.05-.08,0-.11l-1.33-.77A.21.21,0,0,0,231.89,238.36ZM230,237.24l-1.27.74c-.05,0,0,.07,0,.11l1.33.76a.19.19,0,0,0,.19,0l1.27-.73c.05,0,.05-.08,0-.11l-1.33-.77A.21.21,0,0,0,230,237.24Zm-7.75-4.47-1.27.73c-.05,0-.05.08,0,.11l1.32.77a.23.23,0,0,0,.2,0l1.27-.73c.05,0,0-.08,0-.11l-1.33-.77A.21.21,0,0,0,222.2,232.77Zm1.93,1.11-1.26.74c-.05,0-.05.08,0,.11l1.32.76a.21.21,0,0,0,.2,0l1.27-.73c.05,0,0-.08,0-.11l-1.32-.77A.28.28,0,0,0,224.13,233.88Zm-3.87-2.23-1.27.73c-.05,0-.05.08,0,.11l1.33.77a.21.21,0,0,0,.19,0l1.27-.73c.05,0,0-.08,0-.11l-1.33-.77A.21.21,0,0,0,220.26,231.65Zm7.75,4.47-1.27.74c-.05,0,0,.08,0,.11l1.33.76a.19.19,0,0,0,.19,0l1.27-.73c.05,0,.05-.08,0-.11l-1.32-.77A.24.24,0,0,0,228,236.12ZM226.07,235l-1.27.74c-.05,0,0,.08,0,.11l1.32.76a.21.21,0,0,0,.2,0l1.26-.73c.05,0,.05-.08,0-.11l-1.32-.77A.28.28,0,0,0,226.07,235Zm2.86,7.31,1.27-.73c.05,0,.05-.08,0-.12l-1.32-.76a.24.24,0,0,0-.2,0l-1.27.73c-.05,0,0,.08,0,.12l1.33.76A.21.21,0,0,0,228.93,242.31Zm10-.38,1.32.77a.23.23,0,0,0,.2,0l1.27-.73s0-.08,0-.11l-1.32-.77a.23.23,0,0,0-.2,0l-1.26.73C238.92,241.85,238.92,241.9,239,241.93Zm-2.53.63,2,1.18a.19.19,0,0,0,.19,0L240,243c.05,0,.05-.08,0-.11l-2-1.18a.19.19,0,0,0-.19,0l-1.27.73C236.39,242.48,236.39,242.53,236.45,242.56Zm4.42-2.08,1.63,1a.23.23,0,0,0,.2,0l1.27-.73c.05,0,0-.08,0-.11l-1.63-.94a.19.19,0,0,0-.19,0l-1.27.73C240.81,240.4,240.81,240.45,240.87,240.48Zm0-1.56c.05,0,0-.08,0-.11l-1.33-.77a.21.21,0,0,0-.19,0l-1.27.74c-.05,0-.05.07,0,.11l1.33.76a.19.19,0,0,0,.19,0Zm-6.75,4.4,2.55,1.47a.21.21,0,0,0,.19,0l1.27-.74c.05,0,0-.07,0-.11l-2.55-1.47a.24.24,0,0,0-.2,0l-1.27.74C234.06,243.23,234.07,243.28,234.13,243.32Zm-.9,1.57,1.63,1a.23.23,0,0,0,.2,0l1.27-.73s0-.08,0-.11l-1.63-.94a.19.19,0,0,0-.19,0l-1.27.73C233.17,244.81,233.17,244.86,233.23,244.89Zm-6.77-14.3s0-.08,0-.11l-1.33-.76a.19.19,0,0,0-.19,0l-1.27.73s0,.08,0,.11l1.33.77a.21.21,0,0,0,.19,0Zm3.88,2.24s0-.08,0-.11L229,232a.19.19,0,0,0-.19,0l-1.27.73s0,.08,0,.11l1.33.77a.25.25,0,0,0,.19,0Zm8.6,5c.05,0,0-.08,0-.11l-1.33-.77a.21.21,0,0,0-.19,0l-1.27.74s0,.07,0,.11l1.33.76a.19.19,0,0,0,.19,0Zm-10.54-6.09s0-.08,0-.11l-1.33-.76a.19.19,0,0,0-.19,0l-1.27.73s0,.08,0,.11l1.33.77a.25.25,0,0,0,.19,0Zm3.88,2.24c.05,0,0-.08,0-.11l-1.33-.77a.21.21,0,0,0-.19,0l-1.27.73s0,.08,0,.11l1.33.77a.21.21,0,0,0,.19,0ZM231,245.59c-.05,0-.05.08,0,.12l2,1.17a.19.19,0,0,0,.19,0l1.27-.73c.05,0,.05-.08,0-.11l-2-1.18a.21.21,0,0,0-.19,0Zm4.06-10c.05,0,.05-.08,0-.11l-1.33-.77a.25.25,0,0,0-.19,0l-1.27.74s0,.08,0,.11l1.33.76a.19.19,0,0,0,.19,0Zm1.94,1.12c.05,0,0-.08,0-.11l-1.33-.77a.21.21,0,0,0-.19,0l-1.27.74s0,.08,0,.11l1.33.76a.19.19,0,0,0,.19,0Zm-41.92-11.83c-.05,0-.05.08,0,.12l3.26,1.88a.24.24,0,0,0,.2,0l1.27-.73c.05,0,0-.08,0-.12l-3.26-1.88a.21.21,0,0,0-.19,0Zm4.28,2.48c-.05,0,0,.08,0,.11l1.33.77a.21.21,0,0,0,.19,0l1.27-.73c.05,0,.05-.08,0-.11l-1.32-.77a.23.23,0,0,0-.2,0ZM227,241.19l1.27-.73c.05,0,.05-.08,0-.12l-1.32-.76a.24.24,0,0,0-.2,0l-1.27.74c-.05,0,0,.07,0,.11l1.32.76A.21.21,0,0,0,227,241.19Zm-23.75-11.62c-.05,0,0,.08,0,.11l1.33.77a.21.21,0,0,0,.19,0l1.27-.73c.05,0,.05-.08,0-.11l-1.33-.77a.21.21,0,0,0-.19,0Zm-10.1-5.83s0,.07,0,.11l1.33.76a.19.19,0,0,0,.19,0l1.27-.73c.05,0,0-.08,0-.11L194.6,223a.21.21,0,0,0-.19,0Zm-1.93-1,1.33.76a.19.19,0,0,0,.19,0l3.08-1.78c.05,0,.05-.08,0-.11l-1.33-.77a.21.21,0,0,0-.19,0l-3.08,1.78S191.15,222.69,191.21,222.73Zm19.28,11c-.05,0-.05.08,0,.11l1.63.95a.21.21,0,0,0,.19,0l1.27-.73s0-.08,0-.11L212,233a.19.19,0,0,0-.19,0Zm-4.9-2.83c-.05,0-.05.08,0,.11l2,1.18a.19.19,0,0,0,.19,0l1.27-.73c.05,0,.05-.08,0-.11l-2-1.18a.19.19,0,0,0-.19,0Zm9.39,5.42s0,.08,0,.12l10.92,6.3a.25.25,0,0,0,.19,0l1.27-.74s0-.08,0-.11l-10.92-6.3a.21.21,0,0,0-.19,0ZM226.51,243s0,.08,0,.11l1.63.95a.23.23,0,0,0,.2,0l1.26-.73s0-.08,0-.11l-1.63-.94a.19.19,0,0,0-.19,0Zm-13.78-7.95s0,.08,0,.11l1.64.94a.21.21,0,0,0,.19,0l1.27-.73s0-.08,0-.12l-1.64-.94a.25.25,0,0,0-.19,0Zm16,9.25c-.05,0,0,.08,0,.11l1.64.94a.21.21,0,0,0,.19,0l1.27-.73s0-.08,0-.12l-1.63-.94a.23.23,0,0,0-.2,0Zm-20.51-11.84c-.05,0,0,.07,0,.11l1.64.94a.25.25,0,0,0,.19,0l1.27-.74c.05,0,0-.08,0-.11l-1.64-.94a.21.21,0,0,0-.19,0Zm-6.94-4c-.05,0,0,.08,0,.11l1.33.77a.21.21,0,0,0,.19,0l1.27-.73c.05,0,.05-.08,0-.11l-1.33-.77a.21.21,0,0,0-.19,0Zm-2.88-3.76,1.27-.73c.05,0,.05-.08,0-.11l-1.33-.77a.21.21,0,0,0-.19,0l-1.27.73s0,.08,0,.11l1.33.77A.21.21,0,0,0,198.42,224.69Zm7.91.38,1.27-.73c.05,0,.05-.08,0-.11l-1.33-.77a.21.21,0,0,0-.19,0l-1.27.73c-.05,0,0,.08,0,.11l1.33.77A.21.21,0,0,0,206.33,225.07Zm5.15,7.16,1.27-.73c.05,0,.05-.08,0-.11l-3.88-2.24a.21.21,0,0,0-.19,0l-1.27.74c-.05,0,0,.08,0,.11l3.88,2.24A.21.21,0,0,0,211.48,232.23Zm-9.85-7.15c.05,0,0-.08,0-.11l-1.33-.77a.25.25,0,0,0-.19,0l-1.27.74c-.05,0-.05.08,0,.11l1.33.76a.19.19,0,0,0,.19,0Zm.54-.32,1.27-.73c.05,0,.05-.08,0-.11l-1.33-.77a.21.21,0,0,0-.19,0l-1.27.73s0,.08,0,.11l1.33.77A.21.21,0,0,0,202.17,224.76Zm11.25,8.59,1.27-.73c.05,0,.05-.08,0-.11l-1.33-.77a.21.21,0,0,0-.19,0l-1.27.73s0,.08,0,.11l1.33.77A.21.21,0,0,0,213.42,233.35Zm-7.5-5.8c.05,0,0-.08,0-.11l-1.32-.76a.21.21,0,0,0-.2,0l-1.26.73c-.05,0-.05.08,0,.11l1.32.77a.28.28,0,0,0,.2,0Zm17.2,11.4,1.27-.73c.05,0,0-.08,0-.11l-1.32-.77a.21.21,0,0,0-.19,0l-1.27.74c-.05,0-.05.07,0,.11l1.32.76A.21.21,0,0,0,223.12,239Zm-1.94-1.12,1.27-.73c.05,0,0-.08,0-.11l-1.33-.77a.25.25,0,0,0-.19,0l-1.27.74c-.05,0-.05.08,0,.11l1.33.76A.19.19,0,0,0,221.18,237.83Zm3.88,2.24,1.27-.73s0-.08,0-.11l-1.32-.77a.24.24,0,0,0-.2,0l-1.26.74c-.05,0-.05.07,0,.11l1.32.76A.21.21,0,0,0,225.06,240.07Zm-7.76-4.48,1.27-.73c.05,0,0-.08,0-.11l-1.33-.77a.21.21,0,0,0-.19,0l-1.27.73c-.05,0-.05.08,0,.11l1.33.77A.21.21,0,0,0,217.3,235.59Zm1.94,1.12,1.27-.73c.05,0,0-.08,0-.11l-1.33-.77a.25.25,0,0,0-.19,0l-1.27.74c-.05,0-.05.08,0,.11l1.33.76A.19.19,0,0,0,219.24,236.71Zm-3.88-2.24,1.27-.73c.05,0,.05-.08,0-.11l-1.33-.77a.21.21,0,0,0-.19,0l-1.27.73c-.05,0,0,.08,0,.11l1.33.77A.21.21,0,0,0,215.36,234.47ZM204.93,218.7s0-.08,0-.11l-1.32-.77a.24.24,0,0,0-.2,0l-.33.2c-.05,0-.05.08,0,.11l1.32.77a.23.23,0,0,0,.2,0Zm10.56,5.56s0-.08,0-.11l-1.32-.77a.23.23,0,0,0-.2,0l-1.27.73c-.05,0,0,.08,0,.11L214,225a.21.21,0,0,0,.19,0ZM211.62,222s0-.08,0-.11l-1.32-.76a.19.19,0,0,0-.19,0l-1.27.73s0,.08,0,.11l1.32.77a.28.28,0,0,0,.2,0Zm6.24,3.61s0-.08,0-.11l-1.33-.77a.25.25,0,0,0-.19,0l-1.27.74c-.05,0,0,.08,0,.11l1.33.76a.19.19,0,0,0,.19,0Zm-4.3-2.49c.05,0,0-.08,0-.11l-1.32-.77a.23.23,0,0,0-.2,0l-1.26.73s0,.08,0,.11l1.32.77a.23.23,0,0,0,.2,0Zm8.18,4.73s0-.08,0-.11L220.4,227a.21.21,0,0,0-.19,0l-1.27.74c-.05,0-.05.08,0,.11l1.33.76a.19.19,0,0,0,.19,0Zm-1.94-1.12s0-.08,0-.11l-1.33-.77a.25.25,0,0,0-.19,0l-1.27.74c-.05,0,0,.08,0,.11l1.33.76a.19.19,0,0,0,.19,0Zm-11-5.81s0-.08,0-.11l-1.32-.77a.24.24,0,0,0-.2,0l-.34.2c-.05,0,0,.08,0,.11l1.32.76a.21.21,0,0,0,.2,0ZM203,217.58s0-.08,0-.11l-1.33-.77a.25.25,0,0,0-.19,0l-.34.2c-.05,0-.05.08,0,.11l1.33.77a.21.21,0,0,0,.19,0Zm-1.74,1c.05,0,.05-.08,0-.11l-1.33-.77a.21.21,0,0,0-.19,0l-1.27.73s0,.08,0,.11l1.33.77a.21.21,0,0,0,.19,0Zm-4.77,5,1.27-.73c.05,0,.05-.08,0-.11l-1.33-.77a.21.21,0,0,0-.19,0l-1.27.73s0,.08,0,.11l1.33.77A.21.21,0,0,0,196.48,223.57Zm10.38-3.75s0-.08,0-.11l-1.32-.77a.24.24,0,0,0-.2,0l-.33.2c-.05,0-.05.08,0,.11l1.32.77a.23.23,0,0,0,.2,0ZM223.68,229s0-.08,0-.11l-1.33-.77a.21.21,0,0,0-.19,0l-1.27.74s0,.07,0,.11l1.33.76a.19.19,0,0,0,.19,0Z"/><path class="cls-4" d="M208.27,226.19l1.27-.73c.05,0,.05-.08,0-.11l-1.33-.77a.21.21,0,0,0-.19,0l-1.27.73c-.05,0,0,.08,0,.11l1.33.77A.21.21,0,0,0,208.27,226.19Zm1.55-2.66-1.27.73c-.05,0,0,.08,0,.11l1.32.77a.28.28,0,0,0,.2,0l1.26-.74c.05,0,.05-.08,0-.11l-1.32-.76A.21.21,0,0,0,209.82,223.53Zm4.29,2.47-1.27.74c-.05,0,0,.07,0,.11l2.25,1.29a.19.19,0,0,0,.19,0l1.27-.73c.05,0,0-.08,0-.11L214.3,226A.21.21,0,0,0,214.11,226Zm-2.35-1.35-1.27.73c-.05,0,0,.08,0,.11l1.32.77a.21.21,0,0,0,.19,0l1.27-.73c.05,0,.05-.08,0-.11l-1.32-.77A.23.23,0,0,0,211.76,224.65Zm5.21,3-1.27.74s0,.07,0,.11l1.33.76a.19.19,0,0,0,.19,0l1.27-.73c.05,0,0-.08,0-.11l-1.33-.77A.21.21,0,0,0,217,227.65Zm1.94,1.12-1.27.74s0,.07,0,.11l1.33.76a.19.19,0,0,0,.19,0l1.27-.73c.05,0,0-.08,0-.11l-1.33-.77A.21.21,0,0,0,218.91,228.77Zm-4.59,3,1.27-.74s0-.08,0-.11l-1.32-.76a.19.19,0,0,0-.19,0l-1.27.73s0,.08,0,.11l1.32.77A.28.28,0,0,0,214.32,231.78Zm1.94,1.12,1.27-.74c.05,0,0-.08,0-.11l-1.32-.76a.21.21,0,0,0-.2,0l-1.26.73s0,.08,0,.11l1.32.77A.28.28,0,0,0,216.26,232.9Zm1.93,1.11,1.27-.73s0-.08,0-.11l-1.32-.77a.23.23,0,0,0-.2,0l-1.27.73s0,.08,0,.11L218,234A.21.21,0,0,0,218.19,234Zm1.94,1.12,1.27-.73s0-.08,0-.11l-1.33-.77a.21.21,0,0,0-.19,0l-1.27.73s0,.08,0,.11l1.33.77A.21.21,0,0,0,220.13,235.13Zm-9.92-7.82,1.27-.73c.05,0,.05-.08,0-.11l-1.33-.77a.21.21,0,0,0-.19,0l-1.27.73c-.05,0,0,.08,0,.11l1.33.77A.21.21,0,0,0,210.21,227.31Zm2.17,3.35,1.27-.74s0-.08,0-.11l-1.23-.7c-.06,0-.06-.09,0-.12l1.63-.94c.05,0,.05-.08,0-.11l-1.53-.88a.19.19,0,0,0-.19,0l-3.09,1.78c-.05,0,0,.08,0,.11l3,1.71A.21.21,0,0,0,212.38,230.66Zm8.47-.77-1.27.73c-.05,0-.05.08,0,.12l1.32.76a.24.24,0,0,0,.2,0l1.27-.73c.05,0,0-.08,0-.12L221,229.9A.21.21,0,0,0,220.85,229.89Zm1.93,1.12-1.27.73s0,.08,0,.12l1.32.76a.24.24,0,0,0,.2,0l1.26-.73c.06,0,.05-.08,0-.12L223,231A.24.24,0,0,0,222.78,231ZM235,242.24c.05,0,0-.08,0-.11l-1.32-.77a.24.24,0,0,0-.2,0l-1.26.74c-.05,0-.05.08,0,.11l1.32.76a.21.21,0,0,0,.2,0ZM238.3,240l-1.27.73c-.05,0-.05.08,0,.11l1.32.77a.23.23,0,0,0,.2,0l1.27-.73s0-.08,0-.11l-1.33-.77A.21.21,0,0,0,238.3,240Zm-1,1.52s0-.08,0-.12l-1.33-.76a.21.21,0,0,0-.19,0l-1.27.73c-.05,0-.05.08,0,.12l1.33.76a.21.21,0,0,0,.19,0Zm-6.43,1.94,1.27-.73c.05,0,.05-.08,0-.12l-1.33-.76a.21.21,0,0,0-.19,0l-1.27.73c-.05,0,0,.08,0,.12l1.33.76A.21.21,0,0,0,230.87,243.43Zm3.21.38s0-.07,0-.11l-1.33-.76a.19.19,0,0,0-.19,0l-1.27.73c-.05,0,0,.08,0,.11l1.33.77a.21.21,0,0,0,.19,0Zm2.28-5-1.27.73c-.05,0-.05.08,0,.11l1.33.77a.21.21,0,0,0,.19,0l1.27-.73c.05,0,0-.08,0-.11l-1.33-.77A.21.21,0,0,0,236.36,238.85Zm-9.7-5.6-1.27.73s0,.08,0,.11l1.33.77a.21.21,0,0,0,.19,0l1.27-.74c.05,0,.05-.07,0-.11l-1.33-.76A.19.19,0,0,0,226.66,233.25Zm7.76,4.48-1.27.73c-.05,0-.05.08,0,.11l1.33.77a.21.21,0,0,0,.19,0l1.27-.73c.05,0,0-.08,0-.11l-1.33-.77A.21.21,0,0,0,234.42,237.73Zm-9.7-5.6-1.27.73s0,.08,0,.11l1.32.77a.21.21,0,0,0,.19,0l1.27-.74c.05,0,.05-.07,0-.11l-1.32-.76A.21.21,0,0,0,224.72,232.13Zm3.88,2.24-1.27.73c-.05,0,0,.08,0,.11l1.33.77a.21.21,0,0,0,.19,0l1.27-.74c.05,0,.05-.08,0-.11l-1.33-.76A.19.19,0,0,0,228.6,234.37Zm1.94,1.12-1.27.73c-.05,0,0,.08,0,.11l1.33.77a.25.25,0,0,0,.19,0l1.27-.74c.05,0,.05-.08,0-.11l-1.33-.76A.19.19,0,0,0,230.54,235.49Zm1.94,1.12-1.27.73c-.05,0-.05.08,0,.11l1.33.77a.25.25,0,0,0,.19,0l1.27-.74c.05,0,0-.08,0-.11l-1.33-.76A.19.19,0,0,0,232.48,236.61Zm-8.47.76,1.27-.73c.05,0,.05-.08,0-.11l-1.33-.77a.21.21,0,0,0-.19,0l-1.27.73s0,.08,0,.11l1.33.77A.21.21,0,0,0,224,237.37Zm-18.47-16.32-1.27.74c-.05,0-.05.08,0,.11l1.33.76a.19.19,0,0,0,.19,0l1.27-.73c.05,0,0-.08,0-.11l-1.33-.77A.25.25,0,0,0,205.54,221.05Zm2.34,1.36-1.26.73c-.05,0-.05.08,0,.11L208,224a.28.28,0,0,0,.2,0l1.27-.74c.05,0,0-.08,0-.11l-1.32-.76A.2.2,0,0,0,207.88,222.41Zm-4.28-2.48-1.27.74c-.05,0-.05.08,0,.11l1.33.76a.19.19,0,0,0,.19,0l1.27-.73c.05,0,0-.08,0-.11l-1.33-.77A.25.25,0,0,0,203.6,219.93Zm11.1,10,1.27-.73c.05,0,.05-.08,0-.11l-1.33-.77a.21.21,0,0,0-.19,0l-1.27.73s0,.08,0,.11l1.33.77A.21.21,0,0,0,214.7,229.9Zm-14.31-10.35s0,.08,0,.11l1.33.77a.21.21,0,0,0,.19,0l1.27-.73c.05,0,.05-.08,0-.11l-1.33-.77a.21.21,0,0,0-.19,0Zm21.68,16.7,1.27-.73s0-.08,0-.11l-1.33-.77a.21.21,0,0,0-.19,0l-1.27.73s0,.08,0,.11l1.33.77A.21.21,0,0,0,222.07,236.25ZM198.3,222.53l1.26-.74c.05,0,.05-.08,0-.11l-1.32-.76a.21.21,0,0,0-.2,0l-1.27.73s0,.08,0,.11l1.32.77A.28.28,0,0,0,198.3,222.53Zm3.75.07,1.27-.73c.05,0,0-.08,0-.12L202,221a.21.21,0,0,0-.19,0l-1.27.73c-.05,0-.05.08,0,.12l1.32.76A.24.24,0,0,0,202.05,222.6Zm-3.47-2c-.05,0-.05.08,0,.12l1.33.76a.21.21,0,0,0,.19,0l1.27-.73c.05,0,0-.08,0-.12l-1.33-.76a.21.21,0,0,0-.19,0Zm.85-1.07-1.33-.77a.21.21,0,0,0-.19,0l-3.08,1.78c-.05,0-.05.08,0,.11l1.32.77a.24.24,0,0,0,.2,0l3.08-1.78C199.49,219.6,199.48,219.55,199.43,219.52Zm4.29,2.58-1.26.73c-.05,0-.05.08,0,.12l1.32.76a.24.24,0,0,0,.2,0l1.27-.74c.05,0,0-.07,0-.11l-1.32-.76A.24.24,0,0,0,203.72,222.1Zm14.6,8.43-1.27.73c-.05,0-.05.08,0,.11l1.33.77a.21.21,0,0,0,.19,0l1.27-.73c.05,0,0-.08,0-.11l-1.33-.77A.21.21,0,0,0,218.32,230.53Zm-16.82-7.62c.05,0,.05-.08,0-.11l-1.32-.77a.23.23,0,0,0-.2,0l-1.27.73s0,.08,0,.11l1.33.77a.21.21,0,0,0,.19,0Zm14.88,6.5-1.27.73c-.05,0-.05.08,0,.11l1.33.77a.21.21,0,0,0,.19,0l1.27-.73c.05,0,0-.08,0-.11l-1.33-.77A.21.21,0,0,0,216.38,229.41ZM233,241.12c.05,0,0-.08,0-.11l-1.33-.77a.25.25,0,0,0-.19,0l-1.27.74c-.05,0-.05.08,0,.11l1.32.76a.21.21,0,0,0,.2,0Zm.79-1.64-1.27.73c-.05,0,0,.08,0,.12l1.33.76a.21.21,0,0,0,.19,0l1.27-.73s0-.08,0-.12l-1.33-.76A.21.21,0,0,0,233.83,239.48Zm-4,1.25,1.27-.73c.05,0,0-.08,0-.11l-1.33-.77a.25.25,0,0,0-.19,0l-1.27.74c-.05,0-.05.08,0,.11l1.33.76A.19.19,0,0,0,229.83,240.73Zm-1.94-1.12,1.27-.73c.05,0,0-.08,0-.11l-1.33-.77a.21.21,0,0,0-.19,0l-1.27.73c-.05,0-.05.08,0,.11l1.33.77A.21.21,0,0,0,227.89,239.61ZM226,238.49l1.27-.73c.05,0,0-.08,0-.11l-1.33-.77a.21.21,0,0,0-.19,0l-1.27.73s0,.08,0,.11l1.33.77A.21.21,0,0,0,226,238.49Zm5.94-.13-1.27.74c-.05,0,0,.07,0,.11L232,240a.19.19,0,0,0,.19,0l1.27-.73c.05,0,.05-.08,0-.11l-1.33-.77A.21.21,0,0,0,231.89,238.36ZM230,237.24l-1.27.74c-.05,0,0,.07,0,.11l1.33.76a.19.19,0,0,0,.19,0l1.27-.73c.05,0,.05-.08,0-.11l-1.33-.77A.21.21,0,0,0,230,237.24Zm-7.75-4.47-1.27.73c-.05,0-.05.08,0,.11l1.32.77a.23.23,0,0,0,.2,0l1.27-.73c.05,0,0-.08,0-.11l-1.33-.77A.21.21,0,0,0,222.2,232.77Zm1.93,1.11-1.26.74c-.05,0-.05.08,0,.11l1.32.76a.21.21,0,0,0,.2,0l1.27-.73c.05,0,0-.08,0-.11l-1.32-.77A.28.28,0,0,0,224.13,233.88Zm-3.87-2.23-1.27.73c-.05,0-.05.08,0,.11l1.33.77a.21.21,0,0,0,.19,0l1.27-.73c.05,0,0-.08,0-.11l-1.33-.77A.21.21,0,0,0,220.26,231.65Zm7.75,4.47-1.27.74c-.05,0,0,.08,0,.11l1.33.76a.19.19,0,0,0,.19,0l1.27-.73c.05,0,.05-.08,0-.11l-1.32-.77A.24.24,0,0,0,228,236.12ZM226.07,235l-1.27.74c-.05,0,0,.08,0,.11l1.32.76a.21.21,0,0,0,.2,0l1.26-.73c.05,0,.05-.08,0-.11l-1.32-.77A.28.28,0,0,0,226.07,235Zm2.86,7.31,1.27-.73c.05,0,.05-.08,0-.12l-1.32-.76a.24.24,0,0,0-.2,0l-1.27.73c-.05,0,0,.08,0,.12l1.33.76A.21.21,0,0,0,228.93,242.31Zm10-.38,1.32.77a.23.23,0,0,0,.2,0l1.27-.73s0-.08,0-.11l-1.32-.77a.23.23,0,0,0-.2,0l-1.26.73C238.92,241.85,238.92,241.9,239,241.93Zm-2.53.63,2,1.18a.19.19,0,0,0,.19,0L240,243c.05,0,.05-.08,0-.11l-2-1.18a.19.19,0,0,0-.19,0l-1.27.73C236.39,242.48,236.39,242.53,236.45,242.56Zm4.42-2.08,1.63,1a.23.23,0,0,0,.2,0l1.27-.73c.05,0,0-.08,0-.11l-1.63-.94a.19.19,0,0,0-.19,0l-1.27.73C240.81,240.4,240.81,240.45,240.87,240.48Zm0-1.56c.05,0,0-.08,0-.11l-1.33-.77a.21.21,0,0,0-.19,0l-1.27.74c-.05,0-.05.07,0,.11l1.33.76a.19.19,0,0,0,.19,0Zm-6.75,4.4,2.55,1.47a.21.21,0,0,0,.19,0l1.27-.74c.05,0,0-.07,0-.11l-2.55-1.47a.24.24,0,0,0-.2,0l-1.27.74C234.06,243.23,234.07,243.28,234.13,243.32Zm-.9,1.57,1.63,1a.23.23,0,0,0,.2,0l1.27-.73s0-.08,0-.11l-1.63-.94a.19.19,0,0,0-.19,0l-1.27.73C233.17,244.81,233.17,244.86,233.23,244.89Zm-6.77-14.3s0-.08,0-.11l-1.33-.76a.19.19,0,0,0-.19,0l-1.27.73s0,.08,0,.11l1.33.77a.21.21,0,0,0,.19,0Zm3.88,2.24s0-.08,0-.11L229,232a.19.19,0,0,0-.19,0l-1.27.73s0,.08,0,.11l1.33.77a.25.25,0,0,0,.19,0Zm8.6,5c.05,0,0-.08,0-.11l-1.33-.77a.21.21,0,0,0-.19,0l-1.27.74s0,.07,0,.11l1.33.76a.19.19,0,0,0,.19,0Zm-10.54-6.09s0-.08,0-.11l-1.33-.76a.19.19,0,0,0-.19,0l-1.27.73s0,.08,0,.11l1.33.77a.25.25,0,0,0,.19,0Zm3.88,2.24c.05,0,0-.08,0-.11l-1.33-.77a.21.21,0,0,0-.19,0l-1.27.73s0,.08,0,.11l1.33.77a.21.21,0,0,0,.19,0ZM231,245.59c-.05,0-.05.08,0,.12l2,1.17a.19.19,0,0,0,.19,0l1.27-.73c.05,0,.05-.08,0-.11l-2-1.18a.21.21,0,0,0-.19,0Zm4.06-10c.05,0,.05-.08,0-.11l-1.33-.77a.25.25,0,0,0-.19,0l-1.27.74s0,.08,0,.11l1.33.76a.19.19,0,0,0,.19,0Zm1.94,1.12c.05,0,0-.08,0-.11l-1.33-.77a.21.21,0,0,0-.19,0l-1.27.74s0,.08,0,.11l1.33.76a.19.19,0,0,0,.19,0Zm-41.92-11.83c-.05,0-.05.08,0,.12l3.26,1.88a.24.24,0,0,0,.2,0l1.27-.73c.05,0,0-.08,0-.12l-3.26-1.88a.21.21,0,0,0-.19,0Zm4.28,2.48c-.05,0,0,.08,0,.11l1.33.77a.21.21,0,0,0,.19,0l1.27-.73c.05,0,.05-.08,0-.11l-1.32-.77a.23.23,0,0,0-.2,0ZM227,241.19l1.27-.73c.05,0,.05-.08,0-.12l-1.32-.76a.24.24,0,0,0-.2,0l-1.27.74c-.05,0,0,.07,0,.11l1.32.76A.21.21,0,0,0,227,241.19Zm-23.75-11.62c-.05,0,0,.08,0,.11l1.33.77a.21.21,0,0,0,.19,0l1.27-.73c.05,0,.05-.08,0-.11l-1.33-.77a.21.21,0,0,0-.19,0Zm-10.1-5.83s0,.07,0,.11l1.33.76a.19.19,0,0,0,.19,0l1.27-.73c.05,0,0-.08,0-.11L194.6,223a.21.21,0,0,0-.19,0Zm-1.93-1,1.33.76a.19.19,0,0,0,.19,0l3.08-1.78c.05,0,.05-.08,0-.11l-1.33-.77a.21.21,0,0,0-.19,0l-3.08,1.78S191.15,222.69,191.21,222.73Zm19.28,11c-.05,0-.05.08,0,.11l1.63.95a.21.21,0,0,0,.19,0l1.27-.73s0-.08,0-.11L212,233a.19.19,0,0,0-.19,0Zm-4.9-2.83c-.05,0-.05.08,0,.11l2,1.18a.19.19,0,0,0,.19,0l1.27-.73c.05,0,.05-.08,0-.11l-2-1.18a.19.19,0,0,0-.19,0Zm9.39,5.42s0,.08,0,.12l10.92,6.3a.25.25,0,0,0,.19,0l1.27-.74s0-.08,0-.11l-10.92-6.3a.21.21,0,0,0-.19,0ZM226.51,243s0,.08,0,.11l1.63.95a.23.23,0,0,0,.2,0l1.26-.73s0-.08,0-.11l-1.63-.94a.19.19,0,0,0-.19,0Zm-13.78-7.95s0,.08,0,.11l1.64.94a.21.21,0,0,0,.19,0l1.27-.73s0-.08,0-.12l-1.64-.94a.25.25,0,0,0-.19,0Zm16,9.25c-.05,0,0,.08,0,.11l1.64.94a.21.21,0,0,0,.19,0l1.27-.73s0-.08,0-.12l-1.63-.94a.23.23,0,0,0-.2,0Zm-20.51-11.84c-.05,0,0,.07,0,.11l1.64.94a.25.25,0,0,0,.19,0l1.27-.74c.05,0,0-.08,0-.11l-1.64-.94a.21.21,0,0,0-.19,0Zm-6.94-4c-.05,0,0,.08,0,.11l1.33.77a.21.21,0,0,0,.19,0l1.27-.73c.05,0,.05-.08,0-.11l-1.33-.77a.21.21,0,0,0-.19,0Zm-2.88-3.76,1.27-.73c.05,0,.05-.08,0-.11l-1.33-.77a.21.21,0,0,0-.19,0l-1.27.73s0,.08,0,.11l1.33.77A.21.21,0,0,0,198.42,224.69Zm7.91.38,1.27-.73c.05,0,.05-.08,0-.11l-1.33-.77a.21.21,0,0,0-.19,0l-1.27.73c-.05,0,0,.08,0,.11l1.33.77A.21.21,0,0,0,206.33,225.07Zm5.15,7.16,1.27-.73c.05,0,.05-.08,0-.11l-3.88-2.24a.21.21,0,0,0-.19,0l-1.27.74c-.05,0,0,.08,0,.11l3.88,2.24A.21.21,0,0,0,211.48,232.23Zm-9.85-7.15c.05,0,0-.08,0-.11l-1.33-.77a.25.25,0,0,0-.19,0l-1.27.74c-.05,0-.05.08,0,.11l1.33.76a.19.19,0,0,0,.19,0Zm.54-.32,1.27-.73c.05,0,.05-.08,0-.11l-1.33-.77a.21.21,0,0,0-.19,0l-1.27.73s0,.08,0,.11l1.33.77A.21.21,0,0,0,202.17,224.76Zm11.25,8.59,1.27-.73c.05,0,.05-.08,0-.11l-1.33-.77a.21.21,0,0,0-.19,0l-1.27.73s0,.08,0,.11l1.33.77A.21.21,0,0,0,213.42,233.35Zm-7.5-5.8c.05,0,0-.08,0-.11l-1.32-.76a.21.21,0,0,0-.2,0l-1.26.73c-.05,0-.05.08,0,.11l1.32.77a.28.28,0,0,0,.2,0Zm17.2,11.4,1.27-.73c.05,0,0-.08,0-.11l-1.32-.77a.21.21,0,0,0-.19,0l-1.27.74c-.05,0-.05.07,0,.11l1.32.76A.21.21,0,0,0,223.12,239Zm-1.94-1.12,1.27-.73c.05,0,0-.08,0-.11l-1.33-.77a.25.25,0,0,0-.19,0l-1.27.74c-.05,0-.05.08,0,.11l1.33.76A.19.19,0,0,0,221.18,237.83Zm3.88,2.24,1.27-.73s0-.08,0-.11l-1.32-.77a.24.24,0,0,0-.2,0l-1.26.74c-.05,0-.05.07,0,.11l1.32.76A.21.21,0,0,0,225.06,240.07Zm-7.76-4.48,1.27-.73c.05,0,0-.08,0-.11l-1.33-.77a.21.21,0,0,0-.19,0l-1.27.73c-.05,0-.05.08,0,.11l1.33.77A.21.21,0,0,0,217.3,235.59Zm1.94,1.12,1.27-.73c.05,0,0-.08,0-.11l-1.33-.77a.25.25,0,0,0-.19,0l-1.27.74c-.05,0-.05.08,0,.11l1.33.76A.19.19,0,0,0,219.24,236.71Zm-3.88-2.24,1.27-.73c.05,0,.05-.08,0-.11l-1.33-.77a.21.21,0,0,0-.19,0l-1.27.73c-.05,0,0,.08,0,.11l1.33.77A.21.21,0,0,0,215.36,234.47ZM204.93,218.7s0-.08,0-.11l-1.32-.77a.24.24,0,0,0-.2,0l-.33.2c-.05,0-.05.08,0,.11l1.32.77a.23.23,0,0,0,.2,0Zm10.56,5.56s0-.08,0-.11l-1.32-.77a.23.23,0,0,0-.2,0l-1.27.73c-.05,0,0,.08,0,.11L214,225a.21.21,0,0,0,.19,0ZM211.62,222s0-.08,0-.11l-1.32-.76a.19.19,0,0,0-.19,0l-1.27.73s0,.08,0,.11l1.32.77a.28.28,0,0,0,.2,0Zm6.24,3.61s0-.08,0-.11l-1.33-.77a.25.25,0,0,0-.19,0l-1.27.74c-.05,0,0,.08,0,.11l1.33.76a.19.19,0,0,0,.19,0Zm-4.3-2.49c.05,0,0-.08,0-.11l-1.32-.77a.23.23,0,0,0-.2,0l-1.26.73s0,.08,0,.11l1.32.77a.23.23,0,0,0,.2,0Zm8.18,4.73s0-.08,0-.11L220.4,227a.21.21,0,0,0-.19,0l-1.27.74c-.05,0-.05.08,0,.11l1.33.76a.19.19,0,0,0,.19,0Zm-1.94-1.12s0-.08,0-.11l-1.33-.77a.25.25,0,0,0-.19,0l-1.27.74c-.05,0,0,.08,0,.11l1.33.76a.19.19,0,0,0,.19,0Zm-11-5.81s0-.08,0-.11l-1.32-.77a.24.24,0,0,0-.2,0l-.34.2c-.05,0,0,.08,0,.11l1.32.76a.21.21,0,0,0,.2,0ZM203,217.58s0-.08,0-.11l-1.33-.77a.25.25,0,0,0-.19,0l-.34.2c-.05,0-.05.08,0,.11l1.33.77a.21.21,0,0,0,.19,0Zm-1.74,1c.05,0,.05-.08,0-.11l-1.33-.77a.21.21,0,0,0-.19,0l-1.27.73s0,.08,0,.11l1.33.77a.21.21,0,0,0,.19,0Zm-4.77,5,1.27-.73c.05,0,.05-.08,0-.11l-1.33-.77a.21.21,0,0,0-.19,0l-1.27.73s0,.08,0,.11l1.33.77A.21.21,0,0,0,196.48,223.57Zm10.38-3.75s0-.08,0-.11l-1.32-.77a.24.24,0,0,0-.2,0l-.33.2c-.05,0-.05.08,0,.11l1.32.77a.23.23,0,0,0,.2,0ZM223.68,229s0-.08,0-.11l-1.33-.77a.21.21,0,0,0-.19,0l-1.27.74s0,.07,0,.11l1.33.76a.19.19,0,0,0,.19,0Z"/><polygon class="cls-10" points="216.67 239.72 216.4 239.88 209.17 244.05 196.32 236.63 196.06 236.48 203.56 232.15 216.67 239.72"/><polygon class="cls-11" points="216.4 239.88 209.17 244.05 196.32 236.63 203.56 232.46 216.4 239.88"/><g class="cls-12"><polygon class="cls-10" points="216.4 239.88 209.17 244.05 196.32 236.63 203.56 232.46 216.4 239.88"/></g><path class="cls-5" d="M253.72,238.37a1.94,1.94,0,0,1-.36.15,1.44,1.44,0,0,0,.36-.15l.11-.07Z"/><path class="cls-5" d="M251.64,238.48l0,0v0Z"/></g></g><path class="cls-24" d="M293.41,189.84a3.35,3.35,0,0,1-1.69-.44L266.1,174.61l36.62-21.14L326.06,167a2.6,2.6,0,0,1,0,4.58l-31,17.87A3.35,3.35,0,0,1,293.41,189.84Z"/><path class="cls-10" d="M301.68,156.11l23.49,12.37.49.76v.61a.9.9,0,0,1-.49.76l-30.95,17.87a1.65,1.65,0,0,1-.81.2,1.58,1.58,0,0,1-.8-.2l-23-13.26v-.61Z"/><path class="cls-4" d="M293.41,188.07a1.65,1.65,0,0,0,.81-.2L325.17,170a.9.9,0,0,0,.49-.76.88.88,0,0,0-.49-.76l-22.45-13-33.08,19.1,23,13.26A1.58,1.58,0,0,0,293.41,188.07Z"/><path class="cls-19" d="M302.72,153.72l22.2,12.82.23.31v2.39h0a.41.41,0,0,1-.23.32l-31,17.87a1.25,1.25,0,0,1-1.1,0l-22.2-12.82v-2.38Z"/><path class="cls-26" d="M270.66,172.23l.28.16,3.61,2.09.67.38,17.64,10.19a1.25,1.25,0,0,0,1.1,0l31-17.88a.33.33,0,0,0,0-.63l-.3-.17-21.9-12.65-31.79,18.35-.06,0Z"/><path class="cls-18" d="M293.41,185.18v2.38a1.09,1.09,0,0,0,.55-.13l31-17.88a.38.38,0,0,0,.23-.31v-2.39a.39.39,0,0,1-.23.32l-31,17.88A1.09,1.09,0,0,1,293.41,185.18Z"/><path class="cls-27" d="M270.66,171.91l4,2.31.62.36,17.58,10.15a1.25,1.25,0,0,0,1.1,0l27.72-16c.25-.13.48-.27.7-.4a6.8,6.8,0,0,0,2.24-1.95l.06-.09a.56.56,0,0,0,.07-.16.5.5,0,0,0-.39-.56,10.41,10.41,0,0,1-2.09-.87l0,0L302.72,153.4Z"/><path class="cls-24" d="M274.8,171.63a.32.32,0,0,1,0,.6,1.17,1.17,0,0,1-1,0c-.29-.17-.29-.43,0-.6A1.17,1.17,0,0,1,274.8,171.63Z"/><path class="cls-10" d="M270.78,171.31a4.36,4.36,0,0,0,0,.51l.37-.21a1.51,1.51,0,0,1,0-.3,1.42,1.42,0,0,1,.52-1.28.78.78,0,0,1,.37-.09,1.26,1.26,0,0,1,.63.19,3.86,3.86,0,0,1,1.56,2.22.9.9,0,0,0,.37,0,4.28,4.28,0,0,0-1.74-2.5,1.36,1.36,0,0,0-1.38-.1A1.78,1.78,0,0,0,270.78,171.31Z"/><path class="cls-10" d="M270.85,172a.29.29,0,0,0,0,.09l.06,0Z"/><path class="cls-24" d="M277.9,169.84a.32.32,0,0,1,0,.6,1.17,1.17,0,0,1-1,0c-.29-.17-.29-.43,0-.6A1.17,1.17,0,0,1,277.9,169.84Z"/><path class="cls-10" d="M273.88,169.52a3,3,0,0,0,0,.51l.36-.21a1.51,1.51,0,0,1,0-.3,1.42,1.42,0,0,1,.52-1.28.79.79,0,0,1,.37-.1,1.25,1.25,0,0,1,.63.2,3.86,3.86,0,0,1,1.56,2.22,1,1,0,0,0,.38-.05A4.37,4.37,0,0,0,276,168a1.36,1.36,0,0,0-1.39-.1A1.78,1.78,0,0,0,273.88,169.52Z"/><path class="cls-24" d="M281,168.05a.32.32,0,0,1,0,.6,1.17,1.17,0,0,1-1,0,.32.32,0,0,1,0-.6A1.1,1.1,0,0,1,281,168.05Z"/><path class="cls-10" d="M277,167.73a3,3,0,0,0,0,.51l.36-.21c0-.1,0-.2,0-.3a1.42,1.42,0,0,1,.52-1.28.83.83,0,0,1,.38-.1,1.31,1.31,0,0,1,.63.2,3.9,3.9,0,0,1,1.55,2.22,1.2,1.2,0,0,0,.38-.05,4.32,4.32,0,0,0-1.74-2.5,1.36,1.36,0,0,0-1.39-.1A1.78,1.78,0,0,0,277,167.73Z"/><path class="cls-24" d="M284.1,166.26c.29.16.29.43,0,.6a1.17,1.17,0,0,1-1,0,.32.32,0,0,1,0-.6A1.1,1.1,0,0,1,284.1,166.26Z"/><path class="cls-10" d="M280.08,165.93a4.55,4.55,0,0,0,0,.52l.36-.21a3,3,0,0,1,0-.31,1.42,1.42,0,0,1,.53-1.27.76.76,0,0,1,.37-.1,1.28,1.28,0,0,1,.63.2,3.85,3.85,0,0,1,1.55,2.22,1.2,1.2,0,0,0,.38,0,4.34,4.34,0,0,0-1.74-2.51,1.36,1.36,0,0,0-1.38-.09A1.75,1.75,0,0,0,280.08,165.93Z"/><path class="cls-24" d="M287.21,164.47a.31.31,0,0,1,0,.59,1.1,1.1,0,0,1-1,0,.31.31,0,0,1,0-.59A1.1,1.1,0,0,1,287.21,164.47Z"/><path class="cls-10" d="M283.19,164.14a4.67,4.67,0,0,0,0,.52l.36-.21c0-.1,0-.21,0-.31a1.4,1.4,0,0,1,.52-1.27.69.69,0,0,1,.37-.1,1.37,1.37,0,0,1,.63.19,3.9,3.9,0,0,1,1.56,2.22.92.92,0,0,0,.37,0,4.3,4.3,0,0,0-1.74-2.51,1.36,1.36,0,0,0-1.38-.09A1.74,1.74,0,0,0,283.19,164.14Z"/><path class="cls-24" d="M290.31,162.68a.31.31,0,0,1,0,.59,1.1,1.1,0,0,1-1,0,.31.31,0,0,1,0-.59A1.1,1.1,0,0,1,290.31,162.68Z"/><path class="cls-10" d="M286.29,162.35a3.12,3.12,0,0,0,0,.52l.36-.21c0-.1,0-.21,0-.31a1.4,1.4,0,0,1,.52-1.27.69.69,0,0,1,.37-.1,1.41,1.41,0,0,1,.64.19,3.93,3.93,0,0,1,1.55,2.22,1,1,0,0,0,.38,0,4.39,4.39,0,0,0-1.74-2.51,1.35,1.35,0,0,0-1.39-.09A1.76,1.76,0,0,0,286.29,162.35Z"/><path class="cls-24" d="M293.41,160.88a.32.32,0,0,1,0,.6,1.1,1.1,0,0,1-1,0,.32.32,0,0,1,0-.6A1.17,1.17,0,0,1,293.41,160.88Z"/><path class="cls-10" d="M289.39,160.56a2.92,2.92,0,0,0,0,.51l.36-.2c0-.11,0-.21,0-.31a1.4,1.4,0,0,1,.52-1.27.72.72,0,0,1,.38-.1,1.29,1.29,0,0,1,.63.19,3.93,3.93,0,0,1,1.55,2.22,1.2,1.2,0,0,0,.38,0,4.32,4.32,0,0,0-1.74-2.51,1.38,1.38,0,0,0-1.39-.1A1.79,1.79,0,0,0,289.39,160.56Z"/><path class="cls-24" d="M296.51,159.09c.29.17.29.44,0,.6a1.1,1.1,0,0,1-1,0,.32.32,0,0,1,0-.6A1.17,1.17,0,0,1,296.51,159.09Z"/><path class="cls-10" d="M292.49,158.77a4.38,4.38,0,0,0,0,.51l.36-.21c0-.1,0-.2,0-.3a1.42,1.42,0,0,1,.52-1.28.75.75,0,0,1,.37-.09,1.26,1.26,0,0,1,.63.19,3.85,3.85,0,0,1,1.55,2.22,1,1,0,0,0,.38-.05,4.28,4.28,0,0,0-1.74-2.5,1.36,1.36,0,0,0-1.38-.1A1.77,1.77,0,0,0,292.49,158.77Z"/><path class="cls-24" d="M299.62,157.3a.32.32,0,0,1,0,.6,1.17,1.17,0,0,1-1,0c-.29-.17-.29-.43,0-.6A1.17,1.17,0,0,1,299.62,157.3Z"/><path class="cls-10" d="M295.6,157a4.36,4.36,0,0,0,0,.51l.37-.21a1.51,1.51,0,0,1,0-.3,1.42,1.42,0,0,1,.52-1.28.78.78,0,0,1,.37-.09,1.26,1.26,0,0,1,.63.19,3.86,3.86,0,0,1,1.56,2.22.9.9,0,0,0,.37-.05,4.28,4.28,0,0,0-1.74-2.5,1.34,1.34,0,0,0-1.38-.1A1.78,1.78,0,0,0,295.6,157Z"/><path class="cls-24" d="M302.72,155.51a.32.32,0,0,1,0,.6,1.17,1.17,0,0,1-1,0c-.29-.17-.29-.43,0-.6A1.17,1.17,0,0,1,302.72,155.51Z"/><path class="cls-10" d="M298.7,155.19a3,3,0,0,0,0,.51l.36-.21c0-.1,0-.2,0-.3a1.42,1.42,0,0,1,.52-1.28.79.79,0,0,1,.37-.1,1.32,1.32,0,0,1,.64.2,3.9,3.9,0,0,1,1.55,2.22,1,1,0,0,0,.38,0,4.37,4.37,0,0,0-1.74-2.5,1.36,1.36,0,0,0-1.39-.1A1.78,1.78,0,0,0,298.7,155.19Z"/><path class="cls-19" d="M296.51,181.47a.25.25,0,0,1-.14,0l-17.08-9.86a.28.28,0,1,1,.29-.49l17.08,9.86a.29.29,0,0,1,.1.39A.29.29,0,0,1,296.51,181.47Z"/><path class="cls-19" d="M298.58,180.28a.33.33,0,0,1-.14,0l-17.08-9.86a.29.29,0,0,1,.29-.5l17.07,9.86a.29.29,0,0,1,.11.39A.29.29,0,0,1,298.58,180.28Z"/><path class="cls-19" d="M300.65,179.08a.23.23,0,0,1-.14,0l-17.08-9.86a.28.28,0,1,1,.28-.49l17.08,9.86a.28.28,0,0,1,.11.39A.3.3,0,0,1,300.65,179.08Z"/><path class="cls-19" d="M302.72,177.89a.33.33,0,0,1-.14,0L285.5,168a.29.29,0,0,1-.11-.39.29.29,0,0,1,.39-.11l17.08,9.87a.28.28,0,0,1,.11.38A.29.29,0,0,1,302.72,177.89Z"/><path class="cls-19" d="M304.79,176.69a.23.23,0,0,1-.14,0l-17.08-9.86a.28.28,0,0,1-.11-.39.29.29,0,0,1,.39-.1l17.08,9.86a.28.28,0,0,1,.1.39A.27.27,0,0,1,304.79,176.69Z"/><path class="cls-19" d="M306.86,175.5a.28.28,0,0,1-.15,0l-17.08-9.86a.29.29,0,0,1-.1-.39.28.28,0,0,1,.39-.1L307,175a.29.29,0,0,1,.1.39A.28.28,0,0,1,306.86,175.5Z"/><path class="cls-19" d="M308.92,174.3l-.14,0L291.7,164.4a.28.28,0,0,1-.1-.38.28.28,0,0,1,.39-.11l17.08,9.86a.29.29,0,0,1,.1.39A.29.29,0,0,1,308.92,174.3Z"/><path class="cls-19" d="M311,173.11a.25.25,0,0,1-.14,0l-17.08-9.86a.28.28,0,1,1,.29-.49l17.08,9.86a.29.29,0,0,1,.1.39A.29.29,0,0,1,311,173.11Z"/><path class="cls-19" d="M313.06,171.92a.33.33,0,0,1-.14,0L295.84,162a.28.28,0,0,1-.1-.39.27.27,0,0,1,.38-.11l17.08,9.86a.29.29,0,0,1,.11.39A.31.31,0,0,1,313.06,171.92Z"/><path class="cls-19" d="M315.13,170.72a.23.23,0,0,1-.14,0l-17.08-9.86a.28.28,0,1,1,.28-.49l17.08,9.86a.28.28,0,0,1,.11.39A.3.3,0,0,1,315.13,170.72Z"/><path class="cls-19" d="M317.2,169.53a.33.33,0,0,1-.14,0L300,159.63a.29.29,0,0,1-.11-.39.29.29,0,0,1,.39-.11L317.34,169a.27.27,0,0,1,.1.38A.26.26,0,0,1,317.2,169.53Z"/><path class="cls-19" d="M319.27,168.33a.28.28,0,0,1-.15,0l-17.07-9.86a.28.28,0,0,1-.11-.39.29.29,0,0,1,.39-.1l17.08,9.86a.28.28,0,0,1-.14.53Z"/><path class="cls-19" d="M321.34,167.14a.28.28,0,0,1-.15,0l-17.08-9.86a.29.29,0,0,1-.1-.39.28.28,0,0,1,.39-.1l17.08,9.86a.29.29,0,0,1,.1.39A.28.28,0,0,1,321.34,167.14Z"/><path class="cls-5" d="M294.41,182.66a.35.35,0,0,1-.14,0l-18.06-10.45a.29.29,0,0,1-.11-.39.29.29,0,0,1,.39-.11l18.07,10.45a.29.29,0,0,1,.1.39A.29.29,0,0,1,294.41,182.66Z"/><g class="cls-28"><path class="cls-4" d="M285.8,170.07a2.69,2.69,0,0,0,.87-.9.93.93,0,0,1,.38-.09c.5.07.08.26,0,.45a.08.08,0,0,0,.09.11c.35,0,1.19-.26,1,.31a.07.07,0,0,0,0,.1c.11,0,.58.1.53.21a.08.08,0,0,0,.07.11,10.28,10.28,0,0,1,1.11,0,2.45,2.45,0,0,1,.5.06c.11.13-.07.41-.12.51s0,.09,0,.12.33.2.2.4c0,0,0,.11,0,.12.47.13,1.32-.26,1.45.31.08.35,0,.43.46.39.08,0,.14-.15,0-.16-.46,0-.12-.52-.38-.69s-.88.16-1.17,0,.05-.2-.11-.4-.16,0-.19-.08-.07-.08-.08-.08l0-.12c0-.1.06-.09.07-.14.11-.53-.74-.4-1.08-.43a4.12,4.12,0,0,1-.62,0s0-.12,0-.14-.49-.19-.5-.21.11-.2.05-.31-.72-.12-.94-.11h-.16s.14,0,.15-.15,0-.11,0-.2-.17-.17-.31-.18a.9.9,0,0,0-.45.08.84.84,0,0,0,.07-.48c-.13-.52-.71-.14-1,0-.07,0-.1.18,0,.15a2,2,0,0,1,.67-.2c.28.05.07.46-.09.72l-.34.17a1.49,1.49,0,0,0-.7.45C285.13,170.13,285.47,170.25,285.8,170.07Zm.18-.54.26-.14a1.17,1.17,0,0,1-.44.47s-.37.13-.26,0A1,1,0,0,1,286,169.53Z"/><path class="cls-4" d="M293.16,174.2s0,.06,0,.07c.4.12.78-.35.92-.82.15,0,.47-.07.52.17,0,0-.08.2-.09.24s0,.07.08.08c.22,0,.92-.26.81.13a.08.08,0,0,0,0,.08c.19.13.59-.09.64.19,0,.13-.24.26-.1.44s.32.05.45,0,.17-.12.26-.09,0,.09,0,.13.05.11.1.14.14,0,.21,0,.09-.08.14-.08a1.29,1.29,0,0,1,.28.08s.39.17.35.11c.06.1-.18.29-.06.45s.72,0,.88,0,.14-.17,0-.17-.4.06-.41,0c-.36-.15-.26-.26-.2-.43s0-.11-.06-.11c-.24,0-.41-.22-.59-.22s-.25.11-.29.11c-.28,0-.14-.08-.15-.28a.07.07,0,0,0-.1-.06c-.16.06-.58.39-.59,0,0,0,.18-.16.19-.24s-.06-.23-.23-.27a1.1,1.1,0,0,0-.35.05c-.44.07-.07,0-.22-.12a.43.43,0,0,0-.41-.13,1,1,0,0,1-.29,0c-.24-.06-.08,0-.09-.16s.09-.19,0-.31-.19-.2-.39-.16a2.21,2.21,0,0,0-.39.13c0-.32-.05-.59-.36-.58-.09,0-.16.15-.05.17s.22.3.16.54C293.55,173.56,293.18,173.88,293.16,174.2Zm.39-.3a1,1,0,0,1,.28-.28l-.05.11C293.74,173.8,293.47,174.14,293.55,173.9Z"/><path class="cls-4" d="M288.13,176.19a2.61,2.61,0,0,0,.88-.9.86.86,0,0,1,.38-.09c.5.07.08.26,0,.45a.08.08,0,0,0,.1.11c.35,0,1.19-.26,1,.31a.09.09,0,0,0,0,.1c.1,0,.58.1.53.21a.08.08,0,0,0,.07.11,10,10,0,0,1,1.1,0,2.64,2.64,0,0,1,.51.06c.11.13-.07.41-.12.51a.08.08,0,0,0,0,.12c.19.09.33.2.21.4,0,0,0,.11,0,.12.48.13,1.33-.26,1.46.31.08.35,0,.43.46.39.08,0,.13-.15,0-.16-.45,0-.12-.52-.37-.69s-.89.16-1.17,0,0-.2-.12-.4-.16,0-.19-.08-.07-.08-.08-.08a.31.31,0,0,0,0-.12c0-.1.05-.09.07-.14.11-.53-.74-.4-1.08-.43a4.09,4.09,0,0,1-.62,0s0-.12,0-.14-.5-.19-.5-.21.11-.2.05-.31-.73-.12-.94-.11h-.16a.18.18,0,0,0,.14-.15c0-.07.05-.11,0-.2s-.17-.17-.32-.19a1.09,1.09,0,0,0-.45.09.7.7,0,0,0,.07-.48c-.12-.52-.7-.14-1,0-.07,0-.09.18,0,.15a2,2,0,0,1,.66-.2c.28.05.07.46-.09.72l-.33.17a1.49,1.49,0,0,0-.7.45C287.46,176.25,287.8,176.37,288.13,176.19Zm.19-.54.26-.14a1.33,1.33,0,0,1-.44.47s-.37.13-.27,0A1.1,1.1,0,0,1,288.32,175.65Z"/><path class="cls-4" d="M281.7,172.38a.08.08,0,0,0,.05.07c.41.13.78-.35.92-.82.15,0,.47-.06.53.17a2.07,2.07,0,0,0-.09.24c0,.05,0,.07.07.08.22,0,.93-.26.81.13a.07.07,0,0,0,0,.08c.18.13.58-.08.64.2,0,.12-.25.25-.1.44s.32,0,.45,0,.16-.12.25-.09,0,.09,0,.14.06.1.1.13.14,0,.21,0,.09-.08.14-.08a1.15,1.15,0,0,1,.28.08s.39.18.35.11c.06.1-.18.29-.06.45s.72,0,.88,0,.15-.18,0-.18l-.41.06c-.35-.16-.26-.26-.19-.44a.07.07,0,0,0-.07-.11c-.24,0-.4-.22-.58-.21s-.26.11-.29.1c-.29,0-.15-.08-.16-.28,0,0-.05-.07-.1-.06s-.58.39-.59,0c0,0,.18-.16.19-.24s-.06-.23-.22-.27a1,1,0,0,0-.35.05c-.45.07-.07,0-.22-.11s-.17-.15-.42-.13a1.37,1.37,0,0,1-.28,0c-.24-.06-.08,0-.09-.15s.09-.19.05-.32-.2-.19-.4-.16a1.9,1.9,0,0,0-.38.13c0-.32-.06-.59-.37-.58-.08,0-.16.15-.05.17s.22.3.16.55C282.09,171.75,281.73,172.07,281.7,172.38Zm.39-.3a1,1,0,0,1,.29-.28.36.36,0,0,1-.06.11C282.29,172,282,172.32,282.09,172.08Z"/><path class="cls-4" d="M298.41,163.1a2.61,2.61,0,0,0,.88-.9.74.74,0,0,1,.38-.09c.5.07.08.26,0,.45a.08.08,0,0,0,.1.11c.35-.06,1.19-.27,1,.3a.08.08,0,0,0,.05.1c.1,0,.58.1.53.22a.08.08,0,0,0,.07.11,10.07,10.07,0,0,1,1.1,0,3.76,3.76,0,0,1,.51.06c.11.14-.07.42-.12.51a.09.09,0,0,0,0,.13c.19.08.34.19.21.39a.09.09,0,0,0,0,.13c.48.13,1.33-.26,1.46.31.08.34,0,.42.46.39.08,0,.13-.16,0-.16-.45,0-.12-.52-.37-.7s-.89.16-1.17,0,0-.19-.12-.4c0-.05-.16,0-.19-.08s-.07-.07-.08-.07a.4.4,0,0,0,0-.13c0-.09.05-.08.07-.14.11-.53-.74-.4-1.08-.43a4.25,4.25,0,0,1-.62,0s0-.13,0-.15-.5-.18-.5-.2.11-.2.05-.31c-.14-.27-.73-.12-.94-.12l-.16,0a.18.18,0,0,0,.14-.15c0-.07.05-.11,0-.2s-.17-.17-.32-.19a1.26,1.26,0,0,0-.45.08.75.75,0,0,0,.08-.47c-.13-.52-.71-.14-1,0-.07,0-.09.17,0,.14a2.19,2.19,0,0,1,.67-.19c.27.05.06.46-.09.71a3.57,3.57,0,0,1-.34.17,1.57,1.57,0,0,0-.7.45C297.75,163.16,298.08,163.27,298.41,163.1Zm.19-.55.26-.13c-.12.16-.25.38-.44.46s-.37.14-.27,0A1.12,1.12,0,0,1,298.6,162.55Z"/><path class="cls-4" d="M305.77,167.22s0,.07.05.07c.41.13.78-.34.93-.81.14,0,.46-.07.52.16a2.3,2.3,0,0,0-.09.25s0,.07.08.08c.22,0,.92-.26.81.12a.08.08,0,0,0,0,.09c.18.12.58-.09.64.19,0,.12-.25.25-.1.44s.32,0,.45,0,.16-.11.25-.08,0,.09,0,.13.06.1.11.13.13,0,.2,0,.1-.08.14-.08a.82.82,0,0,1,.28.07s.39.18.35.11c.06.11-.17.29-.05.46s.71,0,.88,0,.14-.17,0-.17l-.41,0c-.36-.15-.27-.26-.2-.44s0-.11-.07-.1c-.23,0-.4-.22-.58-.22a3,3,0,0,0-.29.11c-.29,0-.15-.09-.16-.28a.07.07,0,0,0-.1-.06c-.16.06-.57.39-.58,0,0-.06.17-.16.18-.25s-.05-.22-.22-.26a.83.83,0,0,0-.35.05c-.45.07-.07,0-.22-.12s-.17-.14-.42-.13a1.41,1.41,0,0,1-.28,0c-.24-.06-.08,0-.09-.16s.09-.19.05-.31-.2-.2-.4-.16a1.56,1.56,0,0,0-.38.13c0-.32-.06-.59-.37-.58-.08,0-.16.15-.05.16s.22.3.16.55C306.16,166.59,305.8,166.91,305.77,167.22Zm.39-.29a1,1,0,0,1,.29-.28l-.05.11C306.36,166.82,306.08,167.16,306.16,166.93Z"/><path class="cls-4" d="M300.75,169.22a2.6,2.6,0,0,0,.87-.9.8.8,0,0,1,.39-.09c.5.07.07.26,0,.45a.08.08,0,0,0,.1.11c.35-.06,1.19-.27,1,.3a.07.07,0,0,0,0,.1c.11,0,.59.1.53.22a.08.08,0,0,0,.07.11,10.28,10.28,0,0,1,1.11,0,3.43,3.43,0,0,1,.5.06c.11.14-.07.42-.12.51a.1.1,0,0,0,0,.13c.19.08.33.19.21.39a.09.09,0,0,0,0,.13c.48.13,1.32-.26,1.45.31.09.34,0,.42.47.39.07,0,.13-.16,0-.16-.46,0-.12-.52-.38-.7s-.88.16-1.17,0,.05-.19-.11-.4c0,0-.16,0-.19-.08s-.07-.07-.08-.07,0-.05,0-.13.06-.08.07-.14c.11-.53-.73-.4-1.08-.43a4.26,4.26,0,0,1-.62,0s0-.13,0-.15-.49-.18-.5-.2.11-.2.06-.31c-.14-.27-.73-.12-.94-.12l-.17,0s.14,0,.15-.15,0-.11,0-.2-.18-.18-.32-.19a1.22,1.22,0,0,0-.45.08.81.81,0,0,0,.07-.47c-.12-.52-.71-.14-1,0-.07,0-.09.17,0,.14s.5-.22.66-.19.07.46-.09.71a2.15,2.15,0,0,1-.34.17,1.49,1.49,0,0,0-.69.45C300.08,169.28,300.42,169.39,300.75,169.22Zm.18-.55.26-.13a1.19,1.19,0,0,1-.43.46c-.05,0-.37.14-.27,0A1,1,0,0,1,300.93,168.67Z"/><path class="cls-4" d="M294.32,165.41s0,.06.05.07c.41.12.78-.35.92-.82.15,0,.47-.07.52.17,0,0-.08.2-.09.24s0,.07.08.08c.22,0,.92-.26.81.12a.1.1,0,0,0,0,.09c.19.12.59-.09.64.19,0,.13-.24.26-.09.44s.31,0,.45,0,.16-.11.25-.08,0,.09,0,.13.05.11.1.13.14,0,.21,0,.09-.08.14-.08a.89.89,0,0,1,.28.07s.39.18.35.11c.06.11-.18.3-.06.46s.72,0,.88,0,.14-.17,0-.17-.4.06-.41.05c-.36-.15-.26-.26-.2-.43s0-.12-.06-.11c-.24,0-.41-.22-.59-.22s-.25.11-.29.11c-.28,0-.14-.09-.15-.28a.07.07,0,0,0-.1-.06c-.16.06-.58.39-.59,0,0,0,.18-.16.19-.24s-.06-.23-.23-.27a.87.87,0,0,0-.35,0c-.44.07-.06,0-.22-.12a.43.43,0,0,0-.41-.13.92.92,0,0,1-.28,0c-.25-.06-.09,0-.1-.16s.09-.19.05-.31-.19-.2-.39-.16a2.21,2.21,0,0,0-.39.13c0-.32,0-.59-.36-.58-.08,0-.16.15-.05.17s.22.3.16.54C294.71,164.77,294.34,165.09,294.32,165.41Zm.39-.3a1,1,0,0,1,.28-.28l-.05.11C294.9,165,294.63,165.35,294.71,165.11Z"/><path class="cls-4" d="M299.45,173.43a2.51,2.51,0,0,0,.87-.9.93.93,0,0,1,.39-.09c.5.07.08.26,0,.45a.08.08,0,0,0,.1.11c.35-.06,1.19-.26,1,.3a.07.07,0,0,0,0,.1c.1,0,.58.1.53.22a.08.08,0,0,0,.07.11,10.1,10.1,0,0,1,1.1,0,2.67,2.67,0,0,1,.51.05c.11.14-.07.42-.12.51a.09.09,0,0,0,0,.13c.19.08.33.19.21.4,0,0,0,.11,0,.12.48.13,1.32-.26,1.46.31.08.35,0,.43.46.39.07,0,.13-.16,0-.16-.45,0-.12-.52-.38-.7s-.88.16-1.16,0,0-.2-.12-.41c0,0-.16,0-.19-.08s-.07-.07-.08-.07a.33.33,0,0,0,0-.13c0-.09.05-.08.06-.14.12-.52-.73-.4-1.07-.42a4.09,4.09,0,0,1-.62,0s0-.13,0-.15-.5-.18-.51-.2.12-.2.06-.31c-.14-.27-.73-.12-.94-.11H301a.18.18,0,0,0,.14-.15c0-.07.05-.11,0-.2s-.17-.17-.32-.19a1.09,1.09,0,0,0-.45.09.7.7,0,0,0,.07-.48c-.12-.52-.7-.14-1,0-.07,0-.09.17,0,.14s.5-.22.66-.19.07.46-.09.71l-.33.18a1.47,1.47,0,0,0-.7.44C298.78,173.49,299.12,173.6,299.45,173.43Zm.19-.54.26-.14a1.22,1.22,0,0,1-.44.46s-.37.14-.27,0A1,1,0,0,1,299.64,172.89Z"/><path class="cls-4" d="M294.11,170a.08.08,0,0,0,.05.07c.41.13.78-.34.92-.82.15,0,.47-.06.53.17a2.07,2.07,0,0,0-.09.24.07.07,0,0,0,.07.08c.22,0,.93-.26.81.13a.08.08,0,0,0,0,.09c.18.12.58-.09.64.19,0,.12-.25.25-.1.44s.32,0,.45,0,.16-.12.25-.09,0,.1,0,.14.06.1.1.13.14,0,.21,0,.09-.07.14-.08a1.15,1.15,0,0,1,.28.08s.39.18.35.11c.06.1-.18.29-.05.45s.71,0,.87,0,.15-.18.05-.17l-.42.05c-.35-.15-.26-.26-.19-.44s0-.11-.07-.1c-.24,0-.4-.23-.58-.22a2.24,2.24,0,0,0-.29.11c-.29,0-.15-.09-.16-.28a.07.07,0,0,0-.1-.06c-.16.05-.58.39-.58,0,0-.05.17-.16.18-.24s-.06-.23-.22-.26a.83.83,0,0,0-.35.05c-.45.07-.07,0-.22-.12s-.17-.14-.42-.13c-.07,0-.22,0-.28,0-.24-.07-.08,0-.09-.16s.09-.19.05-.31-.2-.2-.4-.16a1.43,1.43,0,0,0-.38.13c0-.33-.06-.59-.37-.58-.08,0-.16.15,0,.16s.22.3.16.55C294.5,169.37,294.14,169.69,294.11,170Zm.39-.29c0-.07.15-.18.29-.28l-.06.11C294.7,169.6,294.42,169.94,294.5,169.71Z"/><path class="cls-4" d="M290.15,166.06a1.2,1.2,0,0,1,0,.5s0,.07.08.08c.22,0,.92-.27.81.12a.1.1,0,0,0,0,.09c.19.12.59-.09.64.19,0,.12-.24.25-.1.44s.32,0,.45,0,.17-.12.26-.08,0,.09,0,.13.05.1.1.13.14,0,.21,0,.09-.07.14-.07a.89.89,0,0,1,.28.07s.39.18.35.11c.06.1-.18.29-.06.45s.72,0,.88,0,.14-.17,0-.17l-.41.05c-.36-.15-.26-.26-.2-.44s0-.11-.06-.1c-.24,0-.41-.22-.59-.22s-.25.11-.29.11c-.28,0-.14-.09-.15-.28a.07.07,0,0,0-.1-.06c-.16.06-.58.39-.59,0,0-.06.18-.17.19-.25s-.06-.23-.23-.26a.87.87,0,0,0-.35,0c-.44.07-.07,0-.22-.12s-.17-.14-.41-.13a2.85,2.85,0,0,1-.29,0c-.24-.07-.08,0-.09-.16s.09-.19.05-.31-.32-.33-.39-.09a.14.14,0,0,0,0,.09A.53.53,0,0,0,290.15,166.06Z"/></g><g id="Papers"><path id="Shadow-4" data-name="Shadow" class="cls-29" d="M267.42,286.7a2.73,2.73,0,0,1-1.37-.34l-22.87-13.2a1.25,1.25,0,0,1-.69-1.05,1.22,1.22,0,0,1,.69-1l4.08-2.36-1.95-1.13a1.13,1.13,0,0,1,0-2.09L279,246.06a2.93,2.93,0,0,1,2.74,0l22.87,13.2a1.24,1.24,0,0,1,.7,1.05,1.21,1.21,0,0,1-.7,1l-4.08,2.36,2,1.13a1.14,1.14,0,0,1,0,2.09l-33.66,19.43A2.73,2.73,0,0,1,267.42,286.7Z"/><path class="cls-19" d="M302.7,264.11a.8.8,0,0,0-.48-.66l-22.86-13.2a2.52,2.52,0,0,0-2.3,0l-33.65,19.43a.8.8,0,0,0-.48.66v1.05a.8.8,0,0,0,.48.65l22.86,13.2a2.52,2.52,0,0,0,2.3,0l33.65-19.42a.81.81,0,0,0,.48-.66Z"/><path class="cls-21" d="M243.41,269.68l33.65-19.43a2.52,2.52,0,0,1,2.3,0l22.86,13.2a.7.7,0,0,1,0,1.33l-33.65,19.43a2.58,2.58,0,0,1-2.3,0L243.41,271C242.77,270.64,242.77,270,243.41,269.68Z"/><path class="cls-18" d="M267.42,284.48v1a2.28,2.28,0,0,1-1.15-.28l-22.86-13.19a.83.83,0,0,1-.48-.67v-1a.79.79,0,0,0,.48.66l22.86,13.21A2.38,2.38,0,0,0,267.42,284.48Z"/><path class="cls-19" d="M304.83,258.54a.83.83,0,0,0-.48-.67l-22.87-13.2a2.52,2.52,0,0,0-2.3,0L245.53,264.1a.79.79,0,0,0-.47.66v1.05a.82.82,0,0,0,.47.66l22.87,13.2a2.58,2.58,0,0,0,2.3,0l33.65-19.43a.84.84,0,0,0,.48-.66Z"/><path class="cls-21" d="M245.53,264.1l33.65-19.43a2.52,2.52,0,0,1,2.3,0l22.87,13.2a.7.7,0,0,1,0,1.33L270.7,278.63a2.52,2.52,0,0,1-2.3,0l-22.87-13.2A.7.7,0,0,1,245.53,264.1Z"/><path class="cls-18" d="M269.55,278.9v1a2.35,2.35,0,0,1-1.15-.27l-22.87-13.2a.83.83,0,0,1-.47-.66v-1.05a.79.79,0,0,0,.47.66l22.87,13.21A2.25,2.25,0,0,0,269.55,278.9Z"/></g><g id="Folder"><g class="cls-30"><path d="M345.93,242.78a2.65,2.65,0,0,1-1.31-.33l-36.8-21.25a1.42,1.42,0,0,1-.06-2.55l30.4-19.32a2.68,2.68,0,0,1,1.43-.39,2.61,2.61,0,0,1,1.32.33l10.95,6.32a2,2,0,0,1,.77,2.63l-.44.87a.36.36,0,0,0,.13.46l22.06,12.84a1.53,1.53,0,0,1,.81,1.26,1.51,1.51,0,0,1-.75,1.3l-27.07,17.43A2.66,2.66,0,0,1,345.93,242.78Z"/></g><path class="cls-5" d="M346.46,240.59l27.57-16a.59.59,0,0,0,0-1.13L336.23,202a2.17,2.17,0,0,0-2,0l-27.32,15.77a.6.6,0,0,0,0,1.13l37.56,21.68A2.15,2.15,0,0,0,346.46,240.59Z"/><g class="cls-31"><path class="cls-4" d="M346.46,240.59l27.57-16a.59.59,0,0,0,0-1.13L336.23,202a2.17,2.17,0,0,0-2,0l-27.32,15.77a.6.6,0,0,0,0,1.13l37.56,21.68A2.15,2.15,0,0,0,346.46,240.59Z"/></g><path class="cls-5" d="M306.92,217.73l31-19.71a2,2,0,0,1,1.94,0l11.17,6.45a1.19,1.19,0,0,1,.46,1.57l-.45.89a1.2,1.2,0,0,0,.46,1.58L374,221.57a.64.64,0,0,1,0,1.19l-27.63,17.79a2,2,0,0,1-1.93,0l-37.56-21.68A.63.63,0,0,1,306.92,217.73Z"/></g><g id="Black_pencil" data-name="Black pencil"><polyline id="Shadow-5" data-name="Shadow" class="cls-24" points="316.82 195.96 281.95 216.06 286.14 218.47 320.77 198.25"/><g id="Pencil"><path class="cls-13" d="M320.22,197l4.15-4.93a.19.19,0,0,0-.19-.31l-6.33,1.39Z"/><path class="cls-9" d="M324.21,191.7h0l-6.33,1.39,1.25,2,.68-.42,4.42-2.79Z"/><path class="cls-10" d="M324.18,191.71a.19.19,0,0,1,.19.31l-.81,1h0a1.09,1.09,0,0,0-.63-.94l-.1-.05Z"/><path class="cls-11" d="M289.22,210.38l.51-.31.61-.37,27.51-16.6a2.89,2.89,0,0,1,1.75,1.17,3,3,0,0,1,.62,2.68l-27.49,16.59-1.18.71C292.28,213.75,290,209.89,289.22,210.38Z"/><path class="cls-4" d="M289.22,210.38l.51-.31.61-.37,27.51-16.6a3,3,0,0,1,2,1.57l-28.69,17.51c0,.08,0,.11,0,.11C290.55,211.19,289.64,210.1,289.22,210.38Z"/><path class="cls-19" d="M291.16,209.2l1.14-.69c.32-.21,1,.37,1.52,1.14.75,1,1.23,2.47.8,2.75l-.84.5-.31.18c.43-.28,0-1.73-.79-2.75-.54-.73-1.15-1.29-1.48-1.15h0Z"/><path class="cls-11" d="M291.44,209c.76-.49,3.07,3.39,2.32,3.88l-1.14.69c.75-.49-1.56-4.37-2.32-3.88Z"/><path class="cls-19" d="M289.22,210.38l1.12-.68c.74-.49,3,3.24,2.39,3.84l0,0-1.14.68C292.28,213.75,290,209.89,289.22,210.38Z"/><path class="cls-9" d="M324.38,191.78a.19.19,0,0,0-.16-.08A.19.19,0,0,1,324.38,191.78Z"/><path class="cls-13" d="M284.44,213.27l4.78-2.89c.32-.21.95.36,1.51,1.12.76,1,1.24,2.46.82,2.75h0l-4.79,2.9c-1,.58-2.36-1.22-2.66-2.61A1.18,1.18,0,0,1,284.44,213.27Z"/><path class="cls-24" d="M285.9,213.75a3.51,3.51,0,0,1,1.13,2.89.8.8,0,0,1-.44.59c-.94.31-2.22-1.37-2.5-2.69a1.18,1.18,0,0,1,.33-1.25C284.78,213.08,285.34,213.22,285.9,213.75Z"/></g></g><g id="Character_2" data-name="Character 2"><path class="cls-16" d="M362.86,346.84c0-.16.94-9.79.94-9.79s-.68,1-6.24.5a30.39,30.39,0,0,1-6.2-1.44l-.37,7c-1,2.83-5.87,2.45-11.12,2.74-.88.05-1.79.06-2.71.06h-.05c-2.8.32-5.31,2.47-2,4.34s8.21,2,12.73,2C353.28,352.28,362.81,352.25,362.86,346.84Z"/><path class="cls-10" d="M325.79,352.35a5.52,5.52,0,0,0,.1,2.89c.28,1,3.4,4.05,8.24,5.41s10.4.56,13.12.86,5.35,1.39,8.53,1.61,6.27.09,9-2.45a6.92,6.92,0,0,0,.49-3.24C364.67,357,325.79,352.35,325.79,352.35Z"/><path class="cls-11" d="M350.34,344.13c-1.74,1.7-6,1.45-10.47,1.7-4.23.24-9.15-.42-11.81,1s-3.11,4.77,1.43,8.37a19.66,19.66,0,0,0,4.22,3c4.76,1.86,9.76.89,12.94,1.12,4.14.3,6.61,1.69,10.35,1.49,4.85-.27,7.64-2,8.25-3.41s-.39-11.77-2.39-11.21c0,0-.29,3.46-8.6,1.57C350.63,347,350.33,344.9,350.34,344.13Z"/><path class="cls-27" d="M333.71,358.23s-1.61-10.77,4.47-12.34l.79,0s-.12-.74-2.53-.93c-4.62-.36-7.53.22-9.47,2.21a5.93,5.93,0,0,0-1.21,5.1C326.35,354.33,328.73,356.72,333.71,358.23Z"/><path class="cls-27" d="M338.11,351.87s-.29-4.39,2.7-6.08a1.7,1.7,0,0,1,1.8-.07s-2.89.93-3,6.17c0,0-.1.36-.76.35C338.63,352.24,338.14,352.23,338.11,351.87Z"/><path class="cls-27" d="M345.39,345.59s0-.15-.8-.16a1.33,1.33,0,0,0-.86.25s-2.2,1.43-1.87,6a.8.8,0,0,0,.85.56.65.65,0,0,0,.77-.58S343.16,346.85,345.39,345.59Z"/><path class="cls-27" d="M348,345.24s-.18-.25-.74-.15c-.71.13-.82.43-.82.43s-1.4,2-.77,5.8c0,0,0,.65.94.56s.64-.78.64-.78S346.7,346.24,348,345.24Z"/><path class="cls-11" d="M350.49,284.62c-.4,9.63-.07,54.44-.07,54.44s5.91,5,13.38,2.4L368.44,290Z"/><path class="cls-16" d="M336.34,363.35c0-.16,1.76-9.36,1.76-9.36s-1.75,1.18-7.32.85a24.72,24.72,0,0,1-5.5-1l-.89,6.78c-.89,2.86-5.8,2.62-11,3.07-.88.08-1.8.11-2.71.14h0c-2.8.41-5.23,2.63-1.89,4.41s8.27,1.7,12.8,1.61C327,369.7,336.46,368.76,336.34,363.35Z"/><path class="cls-10" d="M299.48,370.61a5.47,5.47,0,0,0,.18,2.88c.31,1,3.53,3.95,8.41,5.16s10.41.24,13.14.46,5.38,1.22,8.57,1.34,6.27-.09,8.91-2.71c.38-1,.6-3.1.38-3.26C338.48,374.06,299.48,370.61,299.48,370.61Z"/><path class="cls-11" d="M323.76,361.64c-1.68,1.75-5.92,1.63-10.4,2-4.23.37-9.17-.14-11.78,1.4s-3,4.86,1.69,8.32a19.61,19.61,0,0,0,4.3,2.86c4.81,1.72,9.79.6,13,.73,4.14.17,6.65,1.48,10.39,1.17,4.83-.41,7.58-2.23,8.14-3.66s-.74-11.75-2.73-11.13c0,0-.18,3.47-8.54,1.84C324.14,364.47,323.78,362.41,323.76,361.64Z"/><path class="cls-27" d="M307.57,376.24s-1.94-10.71,4.1-12.47l.78-.06s-.14-.73-2.55-.84c-4.63-.23-7.53.44-9.41,2.49a5.94,5.94,0,0,0-1.05,5.13C300.09,372.56,302.55,374.88,307.57,376.24Z"/><path class="cls-27" d="M311.78,369.75s-.43-4.38,2.51-6.16a1.71,1.71,0,0,1,1.8-.13s-2.86,1-2.81,6.26c0,0-.08.36-.75.38C312.31,370.1,311.82,370.11,311.78,369.75Z"/><path class="cls-27" d="M318.86,363.25s0-.15-.8-.13a1.36,1.36,0,0,0-.85.27s-2.16,1.5-1.7,6.08a.81.81,0,0,0,.87.54.67.67,0,0,0,.76-.61S316.67,364.58,318.86,363.25Z"/><path class="cls-27" d="M321.42,362.83s-.19-.25-.74-.13c-.71.14-.81.45-.81.45s-1.34,2.07-.6,5.82c0,0,.06.65,1,.54s.62-.81.62-.81S320.19,363.86,321.42,362.83Z"/><path class="cls-4" d="M327,303.33c-1.13,10-2.19,38.86-2.93,53.29a19.89,19.89,0,0,0,14.4,1.61l10.29-51.84Z"/><path class="cls-4" d="M391.69,421.57a1.2,1.2,0,0,1-1.2-1.2V343a1.21,1.21,0,0,1,2.41,0v77.41A1.21,1.21,0,0,1,391.69,421.57Z"/><path class="cls-4" d="M439.58,393.4a1.2,1.2,0,0,1-1.12-.77l-23.73-60.07a1.21,1.21,0,0,1,2.24-.89l23.73,60.08a1.21,1.21,0,0,1-1.12,1.65Z"/><path class="cls-4" d="M436.73,386.18a1.18,1.18,0,0,1-.87-.38l-44.17-46.73-44.08,46.54a1.21,1.21,0,0,1-1.75-1.66l45-47.46a1.2,1.2,0,0,1,.87-.38h0a1.23,1.23,0,0,1,.88.38l45,47.66a1.21,1.21,0,0,1-.05,1.7A1.2,1.2,0,0,1,436.73,386.18Z"/><path class="cls-4" d="M343.8,393.4a1.22,1.22,0,0,1-1.12-1.65l23.74-60.08A1.19,1.19,0,0,1,368,331a1.2,1.2,0,0,1,.68,1.56l-23.74,60.07A1.19,1.19,0,0,1,343.8,393.4Z"/><path class="cls-5" d="M343.22,316.42c-.86-4.86,3.09-8.65,10.54-13.67a174.8,174.8,0,0,1,21.56-12.11c6.22-2.86,12.59-2.6,20.56,1.5C407,297.83,440.28,318,440.28,318s-49.82,28.13-59.41,26.87-33.54-16.84-35.44-22.33S343.22,316.42,343.22,316.42Z"/><path class="cls-5" d="M385.69,339c-7.16,6.48-14.63.91-26.46-6.77-13.38-8.69-16-15.79-16-15.79s0,5.32,1,7.82,3.16,5.32,12.82,12,16.64,10,23.13,11.22l5.12-.7"/><path class="cls-6" d="M359.23,332.21c-13.38-8.69-16-15.79-16-15.79s0,5.32,1,7.82,3.16,5.32,12.82,12,16.64,10,23.13,11.22l5.12-.7.4-7.76C378.53,345.46,371.06,339.89,359.23,332.21Z"/><path class="cls-5" d="M438,384.32l3.14,8.29a1.49,1.49,0,0,1,0,.21.38.38,0,0,1,0,.15c0,.17-.24.38-.47.52a2.08,2.08,0,0,1-1.91,0,.85.85,0,0,1-.37-.39,0,0,0,0,0,0,0l0-.12-2.91-7.76Z"/><path class="cls-5" d="M345.44,384.32l-3.14,8.29a.76.76,0,0,0,0,.21V393a1,1,0,0,0,.48.52,2.08,2.08,0,0,0,1.91,0,.85.85,0,0,0,.37-.39h0l0-.12,2.9-7.76Z"/><path class="cls-5" d="M393.08,414.37v6.85a.68.68,0,0,1-.41.57,2.18,2.18,0,0,1-2,0,.69.69,0,0,1-.4-.57v-6.85A3,3,0,0,1,393.08,414.37Z"/><path class="cls-11" d="M424.65,297.16s-40-12.06-46.92-14-20.28-5.11-24.17-3.36-5.88,3.77-6.23,9.38c-.08,1.06,0,6.2,0,6.2s20.24,8.24,36.07,8.24S424.65,297.16,424.65,297.16Z"/><path class="cls-4" d="M424.79,292.16c2.5,8.55,3.29,16.92-2.71,23.1-4.35,4.49-22.42,20.51-38.25,15.65-17.7-5.42-38.82-20.79-38.82-20.79s-13.67.42-13.74-3.59c0-1-4.31-2.2-4.26-3.26.55-11.77,8.47-16.67,20.28-14.53,12.39,2.24,40.1,10.14,40.1,10.14Z"/><path class="cls-32" d="M405,327.78c3-10.87,6.54-24.67,6.54-24.67l-16.33,5.14c-3.37,10.68-5.08,16.48-13.51,15.1S345,310.12,345,310.12s21.12,15.37,38.82,20.79C390.92,333.08,398.45,331.07,405,327.78Z"/><g id="Character"><path class="cls-16" d="M421.18,229.21c5.4-1.2,11.27,2.7,14.63,11.2s11.32,29.49,12.69,35.16c.62,2.53-20.2,25.32-19.51,25,.22-.1-6.11-11-6.11-11l10.58-14.11-6.71-15.75Z"/><path class="cls-4" d="M419.64,228.37c4.84-.12,10.7.79,14.52,8a140.13,140.13,0,0,1,11.33,27.8S430.8,274.49,421.38,271Z"/><polygon class="cls-16" points="398.64 222.5 401.22 238.77 415.87 238.03 414.16 219 398.64 222.5"/><path class="cls-2" d="M431.35,237.19c-1.35-4.43-6.16-8.95-11.88-8.82l-4.46.09c-.67,2.74-7.6,5.79-14.78,4.1q-3.24.85-5.94,1.75c-5.16,1.72-9.93,6-10.73,22.86,0,0-2,38.66-2.24,46.25,7.32,9.31,25.14,8.05,32.56,6.6,15.46-3,17.88-11.32,17.88-11.32s.83-28.22.64-40.43C432.24,247.91,432.28,240.24,431.35,237.19Z"/><path class="cls-14" d="M387.79,202.55s-3.84,5.83-3.4,6.4,3.26,1.09,3.26,1.09Z"/><path class="cls-16" d="M398.47,186.41c-7.78,1.64-10,5.06-10.76,17.42-.77,12.91.55,17,2.25,18.71,1.14,1.17,7.51,1.38,10.72.5,4-1.11,13.09-4.33,17.35-10.82,5-7.64,6.31-18,1-22.25C411.45,184,401.63,185.74,398.47,186.41Z"/><path class="cls-10" d="M386,191.75h0a17.85,17.85,0,0,0,7.51,2.37,15.42,15.42,0,0,0,1.25,6.13c.48,1.37,2.2,5.68,3.92,3.25,1.24-1.75,2.36-3.34,4.82-3,4.05.61,4.59,5.77,2,8.9s-4.93,1.94-4.93,1.94.13,6.82,3.15,10.68c0,0,3.44,1.12,9.77-.23,3.88-.83,9.38-5.69,11.69-10.84,4.89-10.89,5.24-20.68-1.72-23.62-.75-5-4.7-7.26-9.2-8.3-6.24-1.43-12.6,2.61-18.66.18-1.27-.52-2.45-1.26-3.76-1.7a2.59,2.59,0,0,0-2.23.06,2.76,2.76,0,0,0-.92,1.73,4.9,4.9,0,0,0,.32,3.58,10.29,10.29,0,0,0-2.84-1,3.19,3.19,0,0,0-3.92,3.22A7.64,7.64,0,0,0,386,191.75Z"/><path class="cls-10" d="M423.63,189l4.66-2.74a2.7,2.7,0,1,0-4.66,2.74Z"/><path class="cls-16" d="M328.44,263.48c2.5,1.18,32.74,25.18,37.44,22.72s28.58-30.62,28.58-30.62a19.68,19.68,0,0,0,.08-21.33s-7.67,1.24-11.8,7.19-21.88,27.21-21.88,27.21q-6.32-3.34-12.6-6.77c-3.45-1.89-6.9-3.77-10.27-5.79a12.3,12.3,0,0,1-2.65-1.72c-1.65-1.7-1.27-5.72-1.19-7.91,0-1,.08-2.05.22-3.07.17-1.25.48-4.31-1.79-3.38a2.76,2.76,0,0,0-1.1.88,5.08,5.08,0,0,0-.84,1.51c-.45,1.32-.35,2.77-.77,4.1a1.2,1.2,0,0,1-.29.53,1,1,0,0,1-.72.2c-3.28-.18-6.28-4.84-7.73-7.32a6.69,6.69,0,0,0-2.42-2.89c-1.78-.88-4,.27-5.16,1.85a10.43,10.43,0,0,0-1.79,7.2,14.37,14.37,0,0,0,4.08,9.16A44,44,0,0,0,328.44,263.48Z"/><path class="cls-4" d="M397,233.45c-3.14.29-8.34.41-13.56,6.06-6.1,6.6-14.18,17.43-14.18,17.43a17.34,17.34,0,0,0,13.42,13.21s11-10.74,14.09-16.73S400.61,237.62,397,233.45Z"/></g><path class="cls-5" d="M385.29,346.74c4.07-.21,7.26-3.2,16.94-7.23,17.88-7.45,31.29-13.41,36.4-22.78s8.73-36.4,7.45-48.11a15.74,15.74,0,0,0-.87-3.88l1.25-.18-3.25-2.78h0c-3.34-2.73-8.78-.29-12.88,1.94-11.7,6.37-20.86,12.56-28.1,34.91-5.44,16.81-9,32.14-16.54,40.34"/><path class="cls-8" d="M445.21,264.74l1.25-.18-3.25-2.78h0c-3.34-2.73-8.78-.29-12.88,1.94-11.7,6.37-20.86,12.56-28.1,34.91-5.44,16.81-9,32.14-16.54,40.34l-.4,7.76c4.07-.21,7.26-3.2,16.94-7.23,17.88-7.45,31.29-13.41,36.4-22.78s8.73-36.4,7.45-48.11A15.74,15.74,0,0,0,445.21,264.74Z"/><path class="cls-5" d="M433.72,266.61c-11.7,6.37-20.86,12.55-28.09,34.9s-11.2,42.1-25.46,45.93c0,0,6.45,2.57,26.21-5.79,6.29-2.66,13.92-7.51,18.93-10.32,9.82-5.52,15.77-10,16.72-11.72,5.19-9.32,8.72-36.4,7.45-48.11S439.59,263.41,433.72,266.61Z"/></g><g id="Character_1" data-name="Character 1"><g id="Legs"><path class="cls-10" d="M172,342.53c1,2.71,5.73,2.22,10.81,2.38,4.1.13,8.84-.62,11.45.73s3.12,4.53-1.19,8.12c-5.38,4.49-12.5,4-16.49,4.38s-6.34,1.79-10,1.68c-4.69-.13-7.43-1.74-8.05-3.09s.09-11.39,2-10.89c0,0-.2-.32,6.69-.55C172.06,345.12,172,342.53,172,342.53Z"/><path class="cls-9" d="M160.59,346.44c0-.16-1.15-9.45-1.15-9.45s.19-.8,5.77-1c2.74-.1,5.94-2.38,6.24-.21s.52,6.74.52,6.74c1,2.71,5.73,2.22,10.81,2.38.85,0,1.74,0,2.62,0h.06c2.71.25,5.18,2.26,2,4.15s-7.89,2.09-12.26,2.24C170,351.47,160.76,351.66,160.59,346.44Z"/><path class="cls-5" d="M173.34,283.12c.42,10.13-1,57.92-1,57.92s-4.82,2.32-12.67-.38l-5.22-51.85Z"/><g class="cls-33"><path d="M173.34,283.12c.42,10.13-1,57.92-1,57.92s-4.82,2.32-12.67-.38l-5.22-51.85Z"/></g><path class="cls-10" d="M197.86,363.89c.92,2.74,5.66,2.41,10.73,2.74,4.09.27,8.86-.32,11.41,1.11s3,4.64-1.45,8.09c-5.53,4.3-12.63,3.56-16.63,3.82s-6.4,1.57-10,1.34c-4.69-.3-7.37-2-8-3.37s.48-11.37,2.41-10.81c0,0-.19-.33,6.7-.33C197.87,366.48,197.86,363.89,197.86,363.89Z"/><path class="cls-9" d="M186.36,367.41c0-.16-.83-9.48-.83-9.48s.22-.8,5.8-.8c2.74,0,6-2.18,6.24,0s.29,6.76.29,6.76c.92,2.74,5.66,2.41,10.73,2.74.85.06,1.74.07,2.62.08h0c2.71.34,5.11,2.44,1.91,4.22s-7.95,1.82-12.33,1.82C195.57,372.75,186.36,372.63,186.36,367.41Z"/><path class="cls-5" d="M197.13,301.06c1.19,10.5.88,47.16,1,58.35a23.42,23.42,0,0,1-12.82.08s-9.09-39.34-8.4-50.55C177.26,303.6,197.13,301.06,197.13,301.06Z"/></g><path class="cls-4" d="M132.11,419.48a1.21,1.21,0,0,0,1.21-1.2V340.87a1.21,1.21,0,0,0-2.41,0v77.41A1.2,1.2,0,0,0,132.11,419.48Z"/><path class="cls-4" d="M84.22,391.31a1.19,1.19,0,0,0,1.12-.77l23.74-60.07a1.21,1.21,0,0,0-2.24-.89L83.1,389.66a1.22,1.22,0,0,0,1.12,1.65Z"/><path class="cls-4" d="M87.08,384.09a1.22,1.22,0,0,0,.87-.38L132.12,337l44.08,46.54a1.21,1.21,0,0,0,1.75-1.66L133,334.4a1.21,1.21,0,0,0-.88-.38h0a1.2,1.2,0,0,0-.87.38l-45,47.66a1.21,1.21,0,0,0,.88,2Z"/><path class="cls-4" d="M180,391.31a1.2,1.2,0,0,0,.45-.09,1.19,1.19,0,0,0,.67-1.56l-23.73-60.08a1.21,1.21,0,0,0-2.24.89l23.74,60.07A1.19,1.19,0,0,0,180,391.31Z"/><path class="cls-4" d="M180.59,314.33c.86-4.86-3.1-8.65-10.54-13.67a175.54,175.54,0,0,0-21.56-12.11c-6.23-2.86-12.6-2.6-20.57,1.5-11.07,5.69-44.39,25.89-44.39,25.89s49.82,28.13,59.4,26.87,33.55-16.84,35.45-22.33S180.59,314.33,180.59,314.33Z"/><path class="cls-10" d="M138.12,336.89c7.15,6.48,14.63.91,26.46-6.77,13.38-8.69,16-15.79,16-15.79s0,5.32-1,7.82-3.16,5.32-12.82,12-16.64,10-23.13,11.22l-5.12-.7"/><path class="cls-5" d="M85.86,382.23l-3.14,8.29a.76.76,0,0,0,0,.21v.15a1,1,0,0,0,.48.52,2.08,2.08,0,0,0,1.91,0,.85.85,0,0,0,.37-.39h0l0-.12,2.91-7.76Z"/><path class="cls-5" d="M178.37,382.23l3.14,8.29a.76.76,0,0,1,0,.21v.15a1,1,0,0,1-.48.52,2.08,2.08,0,0,1-1.91,0,.85.85,0,0,1-.37-.39h0l0-.12-2.91-7.76Z"/><path class="cls-5" d="M130.73,412.28v6.85a.69.69,0,0,0,.4.57,2.2,2.2,0,0,0,2,0,.69.69,0,0,0,.4-.57v-6.85A3,3,0,0,0,130.73,412.28Z"/><g id="Character-2" data-name="Character"><path class="cls-5" d="M96.75,295.86s42-12.68,49.31-14.68,21.31-5.36,25.4-3.53,6.17,4,6.55,9.87c.08,1.11,0,6.51,0,6.51s-20.3,6.28-36.94,6.28S96.75,295.86,96.75,295.86Z"/><g class="cls-33"><path d="M96.75,295.86s42-12.68,49.31-14.68,21.31-5.36,25.4-3.53,6.17,4,6.55,9.87c.08,1.11,0,6.51,0,6.51s-20.3,6.28-36.94,6.28S96.75,295.86,96.75,295.86Z"/></g><path class="cls-5" d="M96.6,290.59c-2.63,9-3.46,17.79,2.84,24.28,4.58,4.72,12.85,18.86,38,17.8,11.36-.48,43.19-22.69,43.19-22.69s15.5-2.32,15.57-6.53c0-1,1.18-1.29,1-2.39-1.73-9.22-7.5-14.41-15.59-14.9-12.8-.78-47.91,8.37-47.91,8.37Z"/><polygon class="cls-9" points="129.17 218.02 125 236.56 110.61 234.33 114.55 213.86 129.17 218.02"/><path class="cls-9" d="M108.7,223.59c-6.7-.23-11.34,2.91-14.93,12s-14.65,31-14.93,37.22c-.29,6.47,20.2,26.41,19.46,26.06-.22-.1,6.54-11.77,6.54-11.77L94.67,271.89l6-16.74Z"/><path class="cls-4" d="M108.88,223.61a12.12,12.12,0,0,0-11.22,4.3c-4.15,4.88-11.17,22.78-11.17,22.78s3.35,8.75,14.4,8.75l10-21.4Z"/><path class="cls-26" d="M94.76,287.65c1.73-3.72,3.3-8.21,7.85-15.44-4.54-19.78-6.53-27.77-5-37,1-6.05,5.14-12.61,11.22-11.57,1.58.28,2.2.25,3.69.53-.84,3.1,9.84,5.6,14.69,2.47,2.19.51,8.76,1.44,8.76,1.44,2.81,1,12.78,16.23,14.47,25.49,1.74,9.57-6.78,15.5-6.78,15.5.42,8,.12,16.55-.07,31.14,0,0-5.2,10-28.35,7.38-20.58-2.31-23.23-11.11-23.23-11.11A70.33,70.33,0,0,1,94.76,287.65Z"/><path class="cls-9" d="M208.49,235.25a20.43,20.43,0,0,0-5.25,3.75c-.14.13-1.56,1.58-2.23,1.39a.7.7,0,0,1-.43-.47c-.24-.77.94-3.08,1-3.88s-.4-1.83-1.19-1.69a1.57,1.57,0,0,0-.73.46,16.34,16.34,0,0,0-4,7.33,34.08,34.08,0,0,1-1.52,4.88c-1.18,2.56-23,18-23.4,18.3,0,0-13.16-15.64-20.54-25.47-8-10.66-11.05-10.06-17.3-11.78-4.92,17.36,9.31,30.43,9.31,30.43s11.83,12.16,19.21,17.61c4.74,3.5,7.51,5.8,10,5.8s4.55-1.27,6.58-2.79c4.8-3.58,19.28-18.14,20.87-19.74,2.73-2.76,5.65-5.3,8.31-8.09l8.83-9.25a12.73,12.73,0,0,0,2-2.5,3.89,3.89,0,0,0-3.53-6.07,11.26,11.26,0,0,0-5.19,1.37Z"/><path class="cls-4" d="M131.24,227.33s6.94-.08,10.57,2.76c2.76,2.15,21.51,25,21.51,25s.88,8.48-11.73,14l-15.7-16.36S127.92,240.88,131.24,227.33Z"/><path class="cls-5" d="M141.59,201.62s5.24-9.08,1.39-16.23c-4.55-8.43-14.27-11.4-26.22-9.11-5.92,1.14-15.45,6.68-17,17.77-1.18,8.55,22.33,16.64,21.35,22.48Z"/><g class="cls-12"><path d="M141.59,201.62s5.24-9.08,1.39-16.23c-4.55-8.43-14.27-11.4-26.22-9.11-5.92,1.14-15.45,6.68-17,17.77-1.18,8.55,22.33,16.64,21.35,22.48Z"/></g><path class="cls-13" d="M142.58,200.78s3.43,6,2.93,6.45-3.25.8-3.25.8Z"/><path class="cls-9" d="M133.86,183.54c3.12,2,8.49,5.73,8.74,18,.26,12.59-1.78,16.78-3.64,18.24-1.25,1-9.5.85-11.75,0-3.79-1.42-11.26-7.15-14.54-14-3.85-8-3.8-18.18,1.91-21.59C122.62,179.41,131.22,181.82,133.86,183.54Z"/><path class="cls-5" d="M137.19,186.32c-.11-.42-.25-1.43-.6-1.75a27.94,27.94,0,0,0-23.7-5.68,16.15,16.15,0,0,0-9.23,5.65l.16-3.82a2.71,2.71,0,0,0-2.74,2.55,2.46,2.46,0,0,0,1,2.12h-1.18A14.33,14.33,0,0,0,86.6,199.72V225.3h0A14.32,14.32,0,0,0,100.93,211l.49-5.41a21.59,21.59,0,0,0,2.73,4.74c9.06,11.85,20.82,7.6,20.82,7.6,5.61-2,6.34-8.22,6.34-8.22a5.72,5.72,0,0,1-5.81-1.85c-2.76-2.91-2.6-8.06,1.36-9,2.82-.66,4.66,1.59,5.65,3.86.15.36.36.77.74.87.59.16,1.07-.49,1.33-1a34.66,34.66,0,0,0,3.09-11.32A14.91,14.91,0,0,0,137.19,186.32Z"/><path class="cls-6" d="M137.19,186.32c-.11-.42-.25-1.43-.6-1.75a27.94,27.94,0,0,0-23.7-5.68,16.15,16.15,0,0,0-9.23,5.65l.16-3.82a2.71,2.71,0,0,0-2.74,2.55,2.46,2.46,0,0,0,1,2.12h-1.18A14.33,14.33,0,0,0,86.6,199.72V225.3h0A14.32,14.32,0,0,0,100.93,211l.49-5.41a21.59,21.59,0,0,0,2.73,4.74c9.06,11.85,20.82,7.6,20.82,7.6,5.61-2,6.34-8.22,6.34-8.22a5.72,5.72,0,0,1-5.81-1.85c-2.76-2.91-2.6-8.06,1.36-9,2.82-.66,4.66,1.59,5.65,3.86.15.36.36.77.74.87.59.16,1.07-.49,1.33-1a34.66,34.66,0,0,0,3.09-11.32A14.91,14.91,0,0,0,137.19,186.32Z"/></g><path class="cls-11" d="M138.52,344.65c-4.08-.21-7.26-3.2-17-7.23C103.69,330,90.28,324,85.17,314.64s-8.72-36.4-7.45-48.11a15.71,15.71,0,0,1,.88-3.88l-1.26-.18,3.26-2.78h0c3.34-2.73,8.78-.29,12.88,1.94,11.7,6.37,20.86,12.56,28.09,34.91,5.45,16.81,9,32.14,16.55,40.34"/><path class="cls-4" d="M90.08,264.52c11.71,6.37,20.86,12.55,28.1,34.9s11.2,42.1,25.46,45.93c0,0-6.45,2.57-26.21-5.79-6.29-2.66-13.92-7.51-18.93-10.32-9.82-5.52-15.78-10-16.72-11.72-5.19-9.32-8.73-36.4-7.45-48.11S84.22,261.32,90.08,264.52Z"/></g><path class="cls-16" d="M263,145.06c-2.89,4.05-7.69,5.47-18.77,2.08-3.19-1-7.67-2.59-11.56-4.25-9.21-3.9-13.81-5.44-19.69-8.57-1.24-.68-5.57-6.52-10.27-13.2a17.3,17.3,0,0,0,10.18-10.62l8.75,12.86c1.51,1.11,12.08,7.69,18.64,10a5,5,0,0,0,3.58-.12c3.07-1.24,5.19-1.11,8.22-1.52,2.37-.32,3.55-1.21,3.86-.71a2.72,2.72,0,0,1-1,3.55,19.5,19.5,0,0,1-4.08,2,25.18,25.18,0,0,0,8.06.8C265.1,137,267.59,138.58,263,145.06Z"/><path class="cls-9" d="M332.3,122l-12.49,6.42q-6.22,3.21-12.44,6.44c-3.59,1.87-7.83,3.34-10.6,6.34a18.39,18.39,0,0,0-4.16,6,9.69,9.69,0,0,0,.2,6.79,11,11,0,0,0,4.43,5.2,3,3,0,0,0,2.32.56.86.86,0,0,0,.41-.25,1,1,0,0,0,.15-.56c.11-1.58,0-3.17,0-4.76,0-1.36.15-5.07,2.14-4.76l4.63-1.94c.09-2.13,1.09-1.9,2.81-2.45L313,144q4.47-1.45,8.93-3c3.82-1.28,7.62-2.58,11.4-4,1.93-.71,4.63-1.32,6.26-2.67Z"/><g id="Pencil-2" data-name="Pencil"><path class="cls-9" d="M300.89,162.32l4.07,5.8a.22.22,0,0,0,.39-.12l.3-7.12Z"/><path class="cls-13" d="M305.34,168a.08.08,0,0,0,0,0l.3-7.12-2.52.76.24.84L305.1,168Z"/><path class="cls-10" d="M305.35,168a.22.22,0,0,1-.39.12l-.8-1.14h0a1.19,1.19,0,0,0,1.18-.41l.07-.09Z"/><path class="cls-4" d="M297.24,132.19l.18.63.23.76,8,27.3a3.2,3.2,0,0,1-1.74,1.53,3.26,3.26,0,0,1-3-.09l-8-27.29-.42-1.45C292.8,134.51,297.55,133.12,297.24,132.19Z"/><path class="cls-11" d="M297.24,132.19l.18.63.23.76,8,27.3a3.41,3.41,0,0,1-2.24,1.7l-8.64-28.82c-.09,0-.12,0-.1-.06C296,133.38,297.41,132.71,297.24,132.19Z"/><path class="cls-19" d="M298,134.59l.41,1.4c.13.41-.66.92-1.64,1.3-1.29.52-3,.61-3.14.08l-.31-1-.1-.37c.18.53,1.85.44,3.15-.07.93-.37,1.7-.86,1.64-1.26h0S298,134.6,298,134.59Z"/><path class="cls-11" d="M298.05,134.94c.31.94-4.47,2.31-4.78,1.37l-.41-1.41c.3.94,5.08-.43,4.77-1.37Z"/><path class="cls-19" d="M297.24,132.19l.41,1.39c.31.92-4.29,2.28-4.76,1.45,0,0,0,0,0-.05l-.4-1.4C292.8,134.51,297.55,133.12,297.24,132.19Z"/><path class="cls-9" d="M305.21,168.19a.18.18,0,0,0,.13-.15A.17.17,0,0,1,305.21,168.19Z"/><path class="cls-13" d="M295.5,126.3l1.74,5.89c.13.4-.65.92-1.61,1.3-1.3.52-3,.62-3.16.09h0l-1.73-5.92c-.34-1.17,2-2.16,3.53-2.08A1.25,1.25,0,0,1,295.5,126.3Z"/><path class="cls-24" d="M294.59,127.71a3.86,3.86,0,0,1-3.39.4.87.87,0,0,1-.5-.63c-.07-1.1,2.07-2,3.56-1.9a1.27,1.27,0,0,1,1.23.69C295.62,126.72,295.3,127.27,294.59,127.71Z"/></g><path class="cls-9" d="M302.28,149.4c0,1.1-.36,2.89-.31,4a4.56,4.56,0,0,0,1.12,3,1.65,1.65,0,0,0,1.83.49,2.13,2.13,0,0,0,.86-1.44,35.41,35.41,0,0,0,1.13-7.86v-.16Z"/></svg>