<svg xmlns="http://www.w3.org/2000/svg" 
viewBox="0 0 22.88 22.07"><defs><style>.cls-1{fill:#365899;}.cls-2{fill:#fff;}
</style></defs><g id="Layer_2" data-name="Layer 2"><g id="Layer_1-2" data-name="Layer 1">
<path id="Path_2125" data-name="Path 2125" class="cls-1" d="M0,4.81l.12-.46A3,3,0,0,1,2.9,2.2c.47,0,1,0,1.46,0,0-.38,0-.73,0-1.07A1.09,1.09,0,0,1,6.54,1v.11c0,.36,0,.73,0,1.11h8.74c0-.39,0-.76,0-1.13a1.06,1.06,0,0,1,.75-1,1,1,0,0,1,1.2.4,1.54,1.54,0,0,1,.21.69,7.85,7.85,0,0,1,0,1s0,0,0,.08c.45,0,.92,0,1.38,0A2.86,2.86,0,0,1,21.55,4a3.48,3.48,0,0,1,.26,1.31c0,1.1,0,2.2,0,3.3a1.12,1.12,0,0,1-1,1.23h0a1.1,1.1,0,0,1-1.19-1v0s0,0,0-.05H2.2c0,.09,0,.18,0,.27v8.31a1.1,1.1,0,0,0,1,1.23,1.13,1.13,0,0,0,.26,0H8.66a1.09,1.09,0,0,1,1.16,1v.06a1,1,0,0,1-1,1.09c-1.94,0-3.87,0-5.8,0A3.23,3.23,0,0,1,.06,18.08c0-.08,0-.15,0-.22Z"/><circle id="Ellipse_211" data-name="Ellipse 211" class="cls-1" cx="17.88" cy="17.07" r="5"/>
<path id="Icon_ionic-ios-add" data-name="Icon ionic-ios-add" class="cls-2" d="M20.25,16.73h-2v-2a.34.34,0,0,0-.68,0h0v2h-2a.34.34,0,0,0,0,.68h2v2a.34.34,0,1,0,.67,0v-2h2a.34.34,0,0,0,0-.67Z"/>
</g></g></svg>