<svg xmlns="http://www.w3.org/2000/svg" width="22.878" height="22.068" viewBox="0 0 22.878 22.068">
  <g id="calender_add-ic" data-name="calender add-ic" transform="translate(-1816.122 931.068)">
    <path id="Path_2125" data-name="Path 2125" d="M-674.613,89.285c.04-.156.076-.313.121-.468a2.993,2.993,0,0,1,2.779-2.149c.475-.013.951,0,1.461,0,0-.375-.007-.722,0-1.068a1.1,1.1,0,0,1,.96-1.115,1.09,1.09,0,0,1,1.222,1.052c.011.365,0,.73,0,1.111h8.738c0-.384-.009-.756,0-1.128a1.062,1.062,0,0,1,.753-.99,1.031,1.031,0,0,1,1.2.4,1.693,1.693,0,0,1,.211.691,9.632,9.632,0,0,1,.018.97c0,.015.014.029.04.077.449,0,.915-.015,1.381,0a2.855,2.855,0,0,1,2.666,1.783,3.574,3.574,0,0,1,.265,1.312c.037,1.1.013,2.2.012,3.3a1.118,1.118,0,0,1-1,1.232,1.1,1.1,0,0,1-1.188-1.019c0-.015-.014-.028-.027-.053h-17.412c0,.088-.012.178-.012.267q0,4.156,0,8.311a1.107,1.107,0,0,0,1.232,1.231c1.747,0,3.495,0,5.242,0a1.087,1.087,0,0,1,1.158,1.07,1.06,1.06,0,0,1-1.024,1.094c-1.935.011-3.871.03-5.8-.012a3.229,3.229,0,0,1-2.936-2.636c-.014-.074-.037-.147-.055-.221Z" transform="translate(2490.735 -1015.543)"/>
    <g id="Group_6652" data-name="Group 6652">
      <circle id="Ellipse_211" data-name="Ellipse 211" cx="5" cy="5" r="5" transform="translate(1829 -919)"/>
      <path id="Icon_ionic-ios-add" data-name="Icon ionic-ios-add" d="M14.043,11.335H12.01V9.3a.337.337,0,1,0-.674,0v2.033H9.3a.337.337,0,0,0,0,.674h2.033v2.033a.337.337,0,0,0,.674,0V12.01h2.033a.337.337,0,0,0,0-.674Z" transform="translate(1822.328 -925.672)" fill="#fff"/>
    </g>
  </g>
</svg>
