<svg xmlns="http://www.w3.org/2000/svg" viewBox="0 0 31.18 26.67"><defs><style>.cls-1{fill:#526bb1;}</style></defs><g id="Layer_2" data-name="Layer 2"><g id="Layer_1-2" data-name="Layer 1"><path class="cls-1" d="M3.51,19.57,3,22.4A1.54,1.54,0,0,1,1.1,23.71,1.5,1.5,0,0,1,0,21.88C.39,20,.74,18.05,1.1,16.13A1.46,1.46,0,0,1,3,14.84l6.25,1a1.5,1.5,0,0,1,1.29,1.59A1.43,1.43,0,0,1,9,18.8a19.27,19.27,0,0,1-2.14-.28,2.45,2.45,0,0,0-.68,0c.43.56.81,1.15,1.28,1.67a10.71,10.71,0,0,0,17.77-2.74,1.59,1.59,0,0,1,1.34-1.11,1.47,1.47,0,0,1,1.5,2.07,13.32,13.32,0,0,1-9.63,8A13.58,13.58,0,0,1,3.68,19.84Z"/><path class="cls-1" d="M24.92,8.2a2.59,2.59,0,0,0-.19-.33A10.37,10.37,0,0,0,15.21,3,10.2,10.2,0,0,0,5.81,9.4a1.51,1.51,0,0,1-1.54,1A1.42,1.42,0,0,1,3,9.25a1.68,1.68,0,0,1,.1-.94A13.1,13.1,0,0,1,12.52.39,13.24,13.24,0,0,1,26,4.77a20.22,20.22,0,0,1,1.43,2c.06.09.12.18.22.35.17-.89.32-1.69.47-2.5,0-.14.05-.29.08-.44A1.5,1.5,0,0,1,29.9,2.93a1.48,1.48,0,0,1,1.26,1.74q-.54,3-1.12,5.95a1.5,1.5,0,0,1-1.83,1.23l-6.18-1A1.5,1.5,0,0,1,20.8,9.05a1.52,1.52,0,0,1,1.76-1.2l2.3.37Z"/></g></g></svg>