<svg id="angry" xmlns="http://www.w3.org/2000/svg" width="19.189" height="19.19" viewBox="0 0 19.189 19.19">
  <ellipse id="Ellipse_546" data-name="Ellipse 546" cx="9.595" cy="9.595" rx="9.595" ry="9.595" transform="translate(0 0)" fill="#f94342"/>
  <g id="Group_7412" data-name="Group 7412" transform="translate(4.605 4.365)">
    <path id="Path_4618" data-name="Path 4618" d="M.087-410.212a.958.958,0,0,1-.675-.273c-.335-.387-.083-1.057.253-1.418a1.547,1.547,0,0,1,1.045-.462A1.5,1.5,0,0,1,2-411.709c.172.27.4.857.066,1.229a.992.992,0,0,1-.73.267Z" transform="translate(1.084 415.008)" fill="#322f30"/>
    <path id="Path_4619" data-name="Path 4619" d="M34.032-410.212a.974.974,0,0,1-.682-.273c-.338-.387-.084-1.057.256-1.418a1.573,1.573,0,0,1,1.056-.462,1.516,1.516,0,0,1,1.305.656c.174.27.408.857.067,1.229a1.01,1.01,0,0,1-.738.267Z" transform="translate(-26.612 415.008)" fill="#322f30"/>
    <path id="Path_4620" data-name="Path 4620" d="M8.666-380.749h5.588a2.849,2.849,0,0,0,.026-.379,2.819,2.819,0,0,0-2.819-2.819,2.819,2.819,0,0,0-2.82,2.819A2.848,2.848,0,0,0,8.666-380.749Zm2.795-2.466a2.1,2.1,0,0,1,2.076,1.785H9.383A2.1,2.1,0,0,1,11.46-383.214Z" transform="translate(-6.576 391.814)" fill="#322f30"/>
    <rect id="Rectangle_2332" data-name="Rectangle 2332" width="3.882" height="0.627" transform="matrix(0.847, 0.532, -0.532, 0.847, 0.333, 0)" fill="#322f30"/>
    <rect id="Rectangle_2333" data-name="Rectangle 2333" width="3.882" height="0.627" transform="matrix(0.847, -0.532, 0.532, 0.847, 6.359, 2.064)" fill="#322f30"/>
  </g>
</svg>
