<svg xmlns="http://www.w3.org/2000/svg" xmlns:xlink="http://www.w3.org/1999/xlink" width="375" height="247" viewBox="0 0 375 247">
  <defs>
    <linearGradient id="linear-gradient" x1="0.5" x2="0.5" y2="1" gradientUnits="objectBoundingBox">
      <stop offset="0" stop-color="#f7ffff" stop-opacity="0.8"/>
      <stop offset="1" stop-color="#1a5669"/>
    </linearGradient>
    <clipPath id="clip-path">
      <path id="App_Panel" data-name="App Panel" d="M25,0H350a25,25,0,0,1,25,25V247a0,0,0,0,1,0,0H0a0,0,0,0,1,0,0V25A25,25,0,0,1,25,0Z" transform="translate(0 163.5)" fill="none"/>
    </clipPath>
    <clipPath id="clip-path-2">
      <path id="Rectangle_113" data-name="Rectangle 113" d="M0,0H375a0,0,0,0,1,0,0V206.107a40,40,0,0,1-40,40H40a40,40,0,0,1-40-40V0A0,0,0,0,1,0,0Z" transform="translate(0)" fill="#1a5669" opacity="0.3"/>
    </clipPath>
    <clipPath id="clip-path-3">
      <rect id="Rectangle_1391" data-name="Rectangle 1391" width="448" height="302.1" fill="url(#linear-gradient)"/>
    </clipPath>
  </defs>
  <g id="Mask_Group_58" data-name="Mask Group 58" transform="translate(0 -163.5)" opacity="0.6" clip-path="url(#clip-path)">
    <g id="Mask_Group_57" data-name="Mask Group 57" transform="translate(0 164)" opacity="0.3" clip-path="url(#clip-path-2)">
      <g id="Group_3896" data-name="Group 3896" transform="translate(-17 -16.928)">
        <g id="Group_3895" data-name="Group 3895" transform="translate(0 0)" clip-path="url(#clip-path-3)">
          <rect id="Rectangle_1390" data-name="Rectangle 1390" width="448" height="302.1" fill="url(#linear-gradient)"/>
          <path id="Path_3800" data-name="Path 3800" d="M496.812,441.447c-4.5-13-3.262-27.268-.884-40.822s5.853-27.057,5.67-40.819a77.513,77.513,0,0,0-28.469-58.625,75.133,75.133,0,0,0-63.134-14.418c-13.752,3.22-26.68,10.422-40.786,11.008-14.484.6-28.248-5.844-42.506-8.479-33.854-6.258-70.14,10.9-89.083,39.831s-20.743,67.75-6.879,99.47,42.287,56.052,74.838,67.318,68.775,9.961,101.428-1c16.011-5.375,31.256-12.98,47.494-17.613s34.172-6.083,49.606.795l22.417-11.919C512.857,465.807,501.311,454.444,496.812,441.447Z" transform="translate(-88.79 -112.923)" opacity="0.2" fill="url(#linear-gradient)" style="mix-blend-mode: multiply;isolation: isolate"/>
          <path id="Path_3801" data-name="Path 3801" d="M47.169,569.936c-4.5-13-3.262-27.268-.884-40.822s5.853-27.057,5.67-40.819a77.513,77.513,0,0,0-28.469-58.625,75.135,75.135,0,0,0-63.134-14.419c-13.752,3.221-26.679,10.423-40.786,11.008-14.484.6-28.248-5.844-42.506-8.479-33.854-6.258-70.14,10.9-89.083,39.831s-20.743,67.75-6.878,99.47,42.286,56.052,74.837,67.319,68.775,9.961,101.428-1c16.011-5.375,31.256-12.98,47.494-17.613s34.171-6.083,49.605.794l22.417-11.919C63.214,594.3,51.668,582.933,47.169,569.936Z" transform="translate(92.375 -164.165)" opacity="0.2" fill="url(#linear-gradient)" style="mix-blend-mode: multiply;isolation: isolate"/>
          <path id="Path_3802" data-name="Path 3802" d="M667.123-112.253c-4.5-13-3.263-27.268-.885-40.822s5.853-27.057,5.67-40.819a77.511,77.511,0,0,0-28.469-58.624A75.134,75.134,0,0,0,580.3-266.937c-13.752,3.221-26.679,10.422-40.786,11.008-14.484.6-28.248-5.843-42.506-8.479-33.854-6.258-70.14,10.895-89.083,39.831s-20.742,67.75-6.878,99.47,42.286,56.052,74.837,67.319,68.775,9.96,101.428-1c16.011-5.374,31.256-12.98,47.494-17.613s34.171-6.083,49.605.795l22.417-11.919C683.167-87.894,671.622-99.256,667.123-112.253Z" transform="translate(-157.41 107.896)" opacity="0.2" fill="url(#linear-gradient)" style="mix-blend-mode: multiply;isolation: isolate"/>
          <path id="Path_3803" data-name="Path 3803" d="M296.049,0a94.058,94.058,0,0,1-18,41.837c-18.486,23.952-49.135,37.845-79.2,35.891-3.194-.2-6.413-.571-9.643-1.01-16.886-2.279-34.094-6.433-49.242.667-12.861,6.03-21.083,18.968-32.691,27.174-15.184,10.737-35.622,12.493-53.284,6.763S21.37,93.022,10.437,77.926C6.658,72.707,3.314,67.176,0,61.627V0Z" transform="translate(0.519 0.695)" opacity="0.2" fill="url(#linear-gradient)" style="mix-blend-mode: multiply;isolation: isolate"/>
          <path id="Path_3804" data-name="Path 3804" d="M458.82,0a40.235,40.235,0,0,1-12.909,8.218c-8.723,3.4-18.558,4.052-26.475,9.06-10.431,6.6-15.28,19.274-17.907,31.388s-3.815,24.853-9.745,35.723c-12.288,22.551-42.841,30.306-67.065,22.13-16.127-5.447-29.6-16.425-40.459-29.8a145.3,145.3,0,0,1-14.366-21.529C260.556,38.211,253.707,19.508,240.9,5a58.5,58.5,0,0,0-4.98-5Z" transform="translate(-94.535 0.695)" fill="url(#linear-gradient)" style="mix-blend-mode: overlay;isolation: isolate"/>
          <path id="Path_3805" data-name="Path 3805" d="M602.608,244V396.821H384.18a96.912,96.912,0,0,1,4.1-19.022A93.614,93.614,0,0,1,428.6,327.155a80.477,80.477,0,0,1,32.434-11.206c15-1.689,31.92.349,43.486-9.421,6.956-5.88,10.336-14.855,14.67-22.893,12.348-22.869,35.6-40.376,61.393-42.216A60.773,60.773,0,0,1,602.608,244Z" transform="translate(-154.271 -95.525)" fill="url(#linear-gradient)" style="mix-blend-mode: overlay;isolation: isolate"/>
          <path id="Path_3806" data-name="Path 3806" d="M451.474,443.41H161.33a94.262,94.262,0,0,1,5.923-24.084c7-17.988,20.994-35.134,39.987-37.863,8.192-1.178,16.241.421,24.033,3.331a28.015,28.015,0,0,0,31.335-8.411,50.433,50.433,0,0,1,65.113-11.074,76.415,76.415,0,0,1,11.094,8.435c9.971,8.85,18.934,19.2,31.491,23.05,13.058,3.992,27.329-.018,40.71,2.675,19.614,3.95,34.028,21.968,39.724,41.272Q451.134,442.066,451.474,443.41Z" transform="translate(-64.482 -142.114)" fill="url(#linear-gradient)" style="mix-blend-mode: soft-light;isolation: isolate"/>
          <path id="Path_4605" data-name="Path 4605" d="M19.308-.95a20.357,20.357,0,1,1-.06,40.713A20.357,20.357,0,1,1,19.308-.95Z" transform="translate(94.016 108.887) rotate(-77.258)" fill="url(#linear-gradient)" style="mix-blend-mode: overlay;isolation: isolate"/>
          <path id="Path_4606" data-name="Path 4606" d="M6.283-.773a6.953,6.953,0,0,1,6.983,6.989,7.068,7.068,0,0,1-7.031,7.037A6.953,6.953,0,0,1-.748,6.264,7.068,7.068,0,0,1,6.283-.773Z" transform="matrix(0.749, -0.663, 0.663, 0.749, 348.476, 155.89)" fill="url(#linear-gradient)" style="mix-blend-mode: overlay;isolation: isolate"/>
          <path id="Path_3807" data-name="Path 3807" d="M98.661,394.194a3.493,3.493,0,1,1-3.493-3.517A3.5,3.5,0,0,1,98.661,394.194Z" transform="translate(-36.418 -155.108)" fill="url(#linear-gradient)" style="mix-blend-mode: overlay;isolation: isolate"/>
          <path id="Path_3808" data-name="Path 3808" d="M654.246,211.261a3.493,3.493,0,1,1-3.493-3.517A3.5,3.5,0,0,1,654.246,211.261Z" transform="translate(-260.268 -82.153)" fill="url(#linear-gradient)" style="mix-blend-mode: overlay;isolation: isolate"/>
          <g id="Group_3891" data-name="Group 3891" transform="translate(53.48 -21.201)">
            <path id="Path_3809" data-name="Path 3809" d="M88.7-21.837A86.364,86.364,0,0,1,154.1,8.758c13.86,16.578,21,37.754,32.888,55.817s31.968,33.905,53.127,29.938c14.528-2.724,26.075-14.39,32.907-27.584s9.79-28,13.448-42.415,8.3-29.051,17.771-40.476a57.468,57.468,0,0,1,50.088-20.095" transform="translate(-88.698 36.425)" fill="url(#linear-gradient)"/>
            <path id="Path_3810" data-name="Path 3810" d="M102.619-22.749A80.956,80.956,0,0,1,163.926,5.93c12.993,15.541,19.684,35.391,30.83,52.324s29.967,31.783,49.8,28.064c13.618-2.554,24.443-13.49,30.847-25.857s9.177-26.247,12.606-39.76S295.8-6.532,304.671-17.242a53.869,53.869,0,0,1,46.953-18.837" transform="translate(-94.307 36.424)" fill="url(#linear-gradient)"/>
            <path id="Path_3811" data-name="Path 3811" d="M116.541-23.663A75.551,75.551,0,0,1,173.755,3.1c12.126,14.5,18.371,33.028,28.772,48.83S230.493,81.594,249,78.123c12.709-2.383,22.811-12.589,28.787-24.131s8.565-24.494,11.764-37.106S296.82-8.528,305.1-18.523A50.275,50.275,0,0,1,348.921-36.1" transform="translate(-99.916 36.425)" fill="url(#linear-gradient)"/>
            <path id="Path_3812" data-name="Path 3812" d="M130.462-24.576A70.146,70.146,0,0,1,183.583.274C194.841,13.74,200.639,30.939,210.3,45.612s25.966,27.539,43.152,24.317c11.8-2.212,21.179-11.688,26.728-22.4s7.951-22.742,10.923-34.451,6.745-23.6,14.435-32.877a46.678,46.678,0,0,1,40.684-16.322" transform="translate(-105.525 36.425)" fill="url(#linear-gradient)"/>
            <path id="Path_3813" data-name="Path 3813" d="M144.383-25.488A64.744,64.744,0,0,1,193.411-2.554c10.391,12.428,15.742,28.3,24.654,41.844s23.966,25.418,39.827,22.443c10.891-2.042,19.548-10.788,24.669-20.678s7.339-20.99,10.081-31.8,6.225-21.779,13.322-30.343a43.08,43.08,0,0,1,37.549-15.064" transform="translate(-111.134 36.425)" fill="url(#linear-gradient)"/>
          </g>
          <g id="Group_3892" data-name="Group 3892" transform="translate(178.689 174.678)">
            <path id="Path_3814" data-name="Path 3814" d="M302.942,459.616c-4.106-15.09-7.1-31.534-1.361-46.072,7.522-19.049,28.39-29.716,48.6-32.16s40.567,1.6,60.867,3.15,42.043.209,58.775-11.47c23.205-16.2,30.822-47.759,51.761-66.832,17.46-15.9,43.816-21.148,65.971-13.126" transform="translate(-298.398 -289.393)" fill="url(#linear-gradient)"/>
            <path id="Path_3815" data-name="Path 3815" d="M328.859,465.716c-3.884-14.275-6.719-29.83-1.288-43.583,7.115-18.02,26.857-28.111,45.978-30.423s38.375,1.51,57.579,2.98,39.772.2,55.6-10.85c21.952-15.321,29.157-45.18,48.965-63.222,16.517-15.045,41.449-20.005,62.407-12.416" transform="translate(-308.939 -295.493)" fill="url(#linear-gradient)"/>
            <path id="Path_3816" data-name="Path 3816" d="M354.774,471.817c-3.663-13.46-6.335-28.127-1.214-41.095,6.709-16.991,25.323-26.505,43.353-28.685s36.184,1.423,54.291,2.809,37.5.186,52.425-10.231c20.7-14.447,27.492-42.6,46.169-59.611,15.573-14.186,39.081-18.863,58.843-11.708" transform="translate(-319.479 -301.593)" fill="url(#linear-gradient)"/>
            <path id="Path_3817" data-name="Path 3817" d="M380.691,477.917c-3.441-12.644-5.952-26.423-1.141-38.606,6.3-15.962,23.789-24.9,40.727-26.948s33.992,1.337,51,2.639,35.229.175,49.25-9.611c19.445-13.572,25.827-40.02,43.372-56a55.661,55.661,0,0,1,55.28-11" transform="translate(-330.02 -307.693)" fill="url(#linear-gradient)"/>
            <path id="Path_3818" data-name="Path 3818" d="M406.607,484.017c-3.219-11.829-5.568-24.72-1.068-36.117,5.9-14.933,22.256-23.295,38.1-25.211s31.8,1.251,47.715,2.469,32.958.164,46.074-8.991c18.192-12.7,24.162-37.439,40.576-52.391a52.073,52.073,0,0,1,51.716-10.289" transform="translate(-340.561 -313.793)" fill="url(#linear-gradient)"/>
          </g>
          <g id="Group_3893" data-name="Group 3893" transform="translate(-26.014 120.715)">
            <path id="Path_3819" data-name="Path 3819" d="M-8,199.634c-3,10.51,2.341,21.873,10.08,29.544s17.647,12.638,26.751,18.6,17.9,13.571,21.35,23.941c6.129,18.451-6.383,37.231-12.348,55.737-9.026,28-1.992,60.641,17.747,82.357" transform="translate(30.098 -199.634)" fill="url(#linear-gradient)"/>
            <path id="Path_3820" data-name="Path 3820" d="M-19.864,203.243c-3,10.51,2.34,21.873,10.08,29.544s17.646,12.638,26.75,18.6,17.906,13.571,21.35,23.942c6.128,18.451-6.383,37.231-12.349,55.737-9.026,28-1.992,60.641,17.747,82.357" transform="translate(34.878 -201.073)" fill="url(#linear-gradient)"/>
            <path id="Path_3821" data-name="Path 3821" d="M-31.727,206.852c-3,10.51,2.341,21.873,10.08,29.544S-4,249.033,5.1,255s17.9,13.571,21.35,23.942c6.129,18.451-6.383,37.231-12.348,55.737-9.026,28-1.992,60.641,17.747,82.357" transform="translate(39.658 -202.513)" fill="url(#linear-gradient)"/>
            <path id="Path_3822" data-name="Path 3822" d="M-43.591,210.461c-3,10.51,2.34,21.873,10.079,29.543s17.647,12.638,26.751,18.6,17.906,13.571,21.35,23.942C20.718,301,8.206,319.778,2.241,338.284c-9.026,28-1.992,60.641,17.747,82.357" transform="translate(44.438 -203.952)" fill="url(#linear-gradient)"/>
          </g>
          <g id="Group_3894" data-name="Group 3894" transform="translate(327.57 -111.64)">
            <path id="Path_3823" data-name="Path 3823" d="M575.834-186.857c1.514,10.829,10.987,19.015,21.159,22.846s21.229,4.3,31.956,6.015,21.843,5.049,29.185,13.107c13.062,14.337,9.234,36.62,11.274,55.967,3.086,29.273,22.717,56.2,49.53,67.934" transform="translate(-559.061 186.857)" fill="url(#linear-gradient)"/>
            <path id="Path_3824" data-name="Path 3824" d="M566.47-178.728c1.514,10.829,10.987,19.015,21.159,22.846s21.23,4.3,31.956,6.015,21.843,5.049,29.185,13.107c13.063,14.337,9.235,36.62,11.274,55.967,3.086,29.273,22.718,56.2,49.53,67.934" transform="translate(-555.288 183.615)" fill="url(#linear-gradient)"/>
            <path id="Path_3825" data-name="Path 3825" d="M557.106-170.6c1.514,10.828,10.987,19.015,21.159,22.846s21.229,4.3,31.956,6.015,21.843,5.049,29.185,13.107c13.063,14.337,9.234,36.62,11.274,55.967,3.086,29.273,22.717,56.2,49.53,67.934" transform="translate(-551.515 180.373)" fill="url(#linear-gradient)"/>
            <path id="Path_3826" data-name="Path 3826" d="M547.742-162.47c1.514,10.828,10.986,19.015,21.159,22.846s21.229,4.3,31.956,6.014S622.7-128.56,630.042-120.5c13.062,14.337,9.235,36.62,11.274,55.967,3.086,29.273,22.717,56.2,49.53,67.934" transform="translate(-547.742 177.131)" fill="url(#linear-gradient)"/>
          </g>
        </g>
      </g>
    </g>
  </g>
</svg>
