<svg xmlns="http://www.w3.org/2000/svg" width="45" height="45" viewBox="0 0 45 45">
  <g id="Group_7688" data-name="Group 7688" transform="translate(-1282 -31)">
    <circle id="Ellipse_566" data-name="Ellipse 566" cx="22.5" cy="22.5" r="22.5" transform="translate(1282 31)" fill="red"/>
    <g id="Layer_2" data-name="Layer 2" transform="translate(1295.015 42.367)">
      <g id="Layer_1" data-name="Layer 1">
        <g id="Group_7696" data-name="Group 7696">
          <path id="Path_2429" data-name="Path 2429" d="M93.193,0a.345.345,0,0,1-.058.046.865.865,0,0,0-.514.872v20.44a.811.811,0,0,0,.8.909h12.386a.812.812,0,0,0,.8-.912q0-1.609,0-3.218a.776.776,0,1,0-1.528,0v2.381H94.16V1.75h10.925V4.129a.775.775,0,1,0,1.526.009c0-1-.016-2,.007-3A1.067,1.067,0,0,0,106.04,0Z" transform="translate(-92.621)" fill="#fff"/>
          <path id="Path_2430" data-name="Path 2430" d="M4.2,151.143h9.843a1.154,1.154,0,0,0,1.109-.677,1.139,1.139,0,0,0-.123-1.244,1.21,1.21,0,0,0-1.046-.479q-4.731.008-9.464,0H4.2l-.051-.08c.366-.348.737-.69,1.094-1.046a1.176,1.176,0,0,0,.319-1.343,1.2,1.2,0,0,0-1.8-.551,2.15,2.15,0,0,0-.294.255q-1.5,1.495-3,2.994a1.23,1.23,0,0,0,0,1.941q1.527,1.532,3.06,3.059a1.21,1.21,0,0,0,2.092-.589,1.167,1.167,0,0,0-.362-1.092c-.358-.364-.727-.717-1.091-1.075Z" transform="translate(5.688 -138.81)" fill="#fff"/>
        </g>
      </g>
    </g>
  </g>
</svg>
