<svg xmlns="http://www.w3.org/2000/svg" width="86.957" height="86.957" viewBox="0 0 86.957 86.957">
  <g id="Group_7445" data-name="Group 7445" transform="translate(-227.355 -420.743)">
    <circle id="Ellipse_98" data-name="Ellipse 98" cx="43.478" cy="43.478" r="43.478" transform="translate(227.355 420.743)" fill="#fd5f5f" opacity="0.36"/>
    <path id="Path_4607" data-name="Path 4607" d="M38.949,0A38.949,38.949,0,1,1,0,38.949,38.949,38.949,0,0,1,38.949,0Z" transform="translate(232 425)" fill="#fd5f5f"/>
    <text id="Clock_out" data-name="Clock out" transform="translate(245 483)" fill="#fff" font-size="12" font-family="HelveticaNeue, Helvetica Neue"><tspan x="0" y="0">Clock out</tspan></text>
    <path id="Union_96" data-name="Union 96" d="M3.878,25.855A3.882,3.882,0,0,1,0,21.977V3.878A3.883,3.883,0,0,1,3.878,0H9.049a1.293,1.293,0,0,1,0,2.586H3.878A1.294,1.294,0,0,0,2.585,3.878v18.1A1.294,1.294,0,0,0,3.878,23.27H9.049a1.293,1.293,0,1,1,0,2.585ZM14.6,20.306,8.137,13.845a1.293,1.293,0,0,1,.02-1.853L14.6,5.55a1.293,1.293,0,0,1,1.829,1.828L12.17,11.635H24.562a1.293,1.293,0,1,1,0,2.585H12.169l4.258,4.258A1.293,1.293,0,1,1,14.6,20.306Z" transform="translate(258 441.599)" fill="#fff"/>
    <path id="Union_96_-_Outline" data-name="Union 96 - Outline" d="M9.049,26.355H3.878A4.383,4.383,0,0,1-.5,21.977V3.878A4.383,4.383,0,0,1,3.878-.5H9.049a1.793,1.793,0,1,1,0,3.586H3.878a.794.794,0,0,0-.793.793v18.1a.794.794,0,0,0,.793.793H9.049a1.793,1.793,0,1,1,0,3.585ZM3.878.5A3.382,3.382,0,0,0,.5,3.878v18.1a3.382,3.382,0,0,0,3.379,3.378H9.049a.793.793,0,1,0,0-1.585H3.878a1.8,1.8,0,0,1-1.793-1.793V3.878A1.8,1.8,0,0,1,3.878,2.086H9.049A.793.793,0,1,0,9.049.5ZM15.513,21.185a1.782,1.782,0,0,1-1.268-.525L7.784,14.2a1.778,1.778,0,0,1-.528-1.271,1.8,1.8,0,0,1,.552-1.294L14.245,5.2a1.793,1.793,0,0,1,2.536,2.535l-3.4,3.4H24.562a1.793,1.793,0,1,1,0,3.585H13.376l3.4,3.4a1.793,1.793,0,0,1-1.268,3.06Zm0-15.514a.788.788,0,0,0-.561.233L8.5,12.354a.793.793,0,0,0-.012,1.136l6.462,6.462a.793.793,0,0,0,1.122-1.121L10.962,13.72h13.6a.793.793,0,1,0,0-1.585h-13.6l5.111-5.11a.793.793,0,0,0-.561-1.354Z" transform="translate(258 441.599)" fill="rgba(0,0,0,0)"/>
  </g>
</svg>
