<svg xmlns="http://www.w3.org/2000/svg" width="86.957" height="86.957" viewBox="0 0 86.957 86.957">
  <g id="Group_7446" data-name="Group 7446" transform="translate(-227.355 -494.743)">
    <circle id="Ellipse_98" data-name="Ellipse 98" cx="43.478" cy="43.478" r="43.478" transform="translate(227.355 494.743)" fill="#1a5669" opacity="0.36"/>
    <path id="Path_4607" data-name="Path 4607" d="M38.949,0A38.949,38.949,0,1,1,0,38.949,38.949,38.949,0,0,1,38.949,0Z" transform="translate(232 499)" fill="#1a5669"/>
    <g id="Group_7441" data-name="Group 7441">
      <text id="Clock_In" data-name="Clock In" transform="translate(249 557)" fill="#fff" font-size="12" font-family="HelveticaNeue, Helvetica Neue"><tspan x="0" y="0">Clock In</tspan></text>
      <g id="Group_7440" data-name="Group 7440" transform="translate(-7.887 4.985)">
        <path id="Union_94" data-name="Union 94" d="M17.109,26.313a1.315,1.315,0,1,1,0-2.629h5.266a1.317,1.317,0,0,0,1.313-1.318V3.947a1.317,1.317,0,0,0-1.312-1.318H17.109a1.315,1.315,0,1,1,0-2.629h5.266a3.948,3.948,0,0,1,3.947,3.947V22.365a3.953,3.953,0,0,1-3.947,3.947ZM9.592,20.671a1.325,1.325,0,0,1,0-1.862l4.344-4.338H1.32a1.315,1.315,0,1,1,0-2.629H13.936L9.592,7.5a1.318,1.318,0,0,1,1.867-1.862l6.578,6.583a1.314,1.314,0,0,1,0,1.862l-6.578,6.583a1.328,1.328,0,0,1-1.867,0Z" transform="translate(261.863 510.156)" fill="#fff"/>
        <path id="Union_94_-_Outline" data-name="Union 94 - Outline" d="M22.375,26.813H17.109a1.815,1.815,0,1,1,0-3.629h5.266a.816.816,0,0,0,.813-.818V3.947a.816.816,0,0,0-.812-.818H17.109a1.815,1.815,0,1,1,0-3.629h5.266a4.452,4.452,0,0,1,4.447,4.447V22.365A4.452,4.452,0,0,1,22.375,26.813Zm-5.266-2.629a.815.815,0,1,0,0,1.629h5.266a3.451,3.451,0,0,0,3.447-3.447V3.947A3.451,3.451,0,0,0,22.375.5H17.109a.805.805,0,0,0-.816.811.809.809,0,0,0,.816.818h5.266a1.817,1.817,0,0,1,1.813,1.818V22.365a1.817,1.817,0,0,1-1.812,1.818Zm-6.584-2.629a1.826,1.826,0,0,1-1.283-.526l-.006-.006a1.831,1.831,0,0,1,0-2.565l3.491-3.486H1.32a1.815,1.815,0,1,1,0-3.629H12.727L9.238,7.858a1.824,1.824,0,0,1,0-2.567l.007-.007a1.835,1.835,0,0,1,1.286-.523,1.81,1.81,0,0,1,1.282.527l6.58,6.585a1.82,1.82,0,0,1,0,2.569l-6.582,6.587A1.826,1.826,0,0,1,10.525,21.554Zm-.581-1.238a.831.831,0,0,0,.581.238.82.82,0,0,0,.582-.239l6.576-6.581a.818.818,0,0,0,0-1.155L11.105,6a.814.814,0,0,0-.576-.235A.84.84,0,0,0,9.944,6a.822.822,0,0,0,0,1.153l5.2,5.192H1.32a.815.815,0,1,0,0,1.629H15.144l-5.2,5.192A.827.827,0,0,0,9.945,20.317Z" transform="translate(261.863 510.156)" fill="rgba(0,0,0,0)"/>
      </g>
    </g>
  </g>
</svg>
