<svg id="feeling-not-good" xmlns="http://www.w3.org/2000/svg" width="19.189" height="19.19" viewBox="0 0 19.189 19.19">
  <ellipse id="Ellipse_543" data-name="Ellipse 543" cx="9.595" cy="9.595" rx="9.595" ry="9.595" transform="translate(0 0)" fill="#ff7c23"/>
  <g id="Group_7410" data-name="Group 7410" transform="translate(5.121 5.031)">
    <path id="Path_4617" data-name="Path 4617" d="M-113.956-380.7a2.735,2.735,0,0,0-2.734-2.734,2.733,2.733,0,0,0-2.732,2.734h.632a2.1,2.1,0,0,1,2.1-2.03,2.1,2.1,0,0,1,2.1,2.03Z" transform="translate(121.16 390.731)" fill="#303030"/>
    <g id="Group_7409" data-name="Group 7409" transform="translate(0 1.939)">
      <ellipse id="Ellipse_544" data-name="Ellipse 544" cx="1.336" cy="1.336" rx="1.336" ry="1.336" fill="#303030"/>
      <ellipse id="Ellipse_545" data-name="Ellipse 545" cx="1.336" cy="1.336" rx="1.336" ry="1.336" transform="translate(6.269)" fill="#303030"/>
    </g>
    <rect id="Rectangle_2330" data-name="Rectangle 2330" width="2.551" height="0.693" transform="matrix(0.903, -0.429, 0.429, 0.903, 0.146, 1.118)" fill="#303030"/>
    <rect id="Rectangle_2331" data-name="Rectangle 2331" width="2.551" height="0.693" transform="translate(6.67 0) rotate(26.735)" fill="#303030"/>
  </g>
</svg>
