<svg id="Feeling_good" data-name="Feeling good" xmlns="http://www.w3.org/2000/svg" width="19.189" height="19.19" viewBox="0 0 19.189 19.19">
  <line id="Line_500" data-name="Line 500" x1="0.564" y1="0.34" transform="translate(3.778 6.525)" fill="#303030"/>
  <g id="Group_7406" data-name="Group 7406" transform="translate(0 0)">
    <ellipse id="Ellipse_537" data-name="Ellipse 537" cx="9.595" cy="9.595" rx="9.595" ry="9.595" fill="#94cc43"/>
    <ellipse id="Ellipse_538" data-name="Ellipse 538" cx="1.336" cy="1.336" rx="1.336" ry="1.336" transform="translate(5.156 6.969)" fill="#303030"/>
    <ellipse id="Ellipse_539" data-name="Ellipse 539" cx="1.336" cy="1.336" rx="1.336" ry="1.336" transform="translate(11.426 6.969)" fill="#303030"/>
    <path id="Path_4614" data-name="Path 4614" d="M-391.975-424.176a3.153,3.153,0,0,0-2.385,1.69l.564.34a2.492,2.492,0,0,1,1.9-1.372Z" transform="translate(398.138 429.012)" fill="#303030"/>
    <line id="Line_501" data-name="Line 501" x1="0.077" y1="0.658" transform="translate(6.163 4.836)" fill="#303030"/>
    <path id="Path_4615" data-name="Path 4615" d="M-344.36-423.518a2.492,2.492,0,0,1,1.9,1.372l.564-.34a3.153,3.153,0,0,0-2.385-1.69Z" transform="translate(357.331 429.012)" fill="#303030"/>
    <line id="Line_502" data-name="Line 502" x1="0.077" y2="0.658" transform="translate(12.971 4.836)" fill="#303030"/>
    <line id="Line_503" data-name="Line 503" x1="0.564" y2="0.34" transform="translate(14.869 6.525)" fill="#303030"/>
    <path id="Path_4616" data-name="Path 4616" d="M-371.984-381.586a2.735,2.735,0,0,1-2.734,2.734,2.733,2.733,0,0,1-2.732-2.734h.632a2.1,2.1,0,0,0,2.1,2.03,2.1,2.1,0,0,0,2.1-2.03Z" transform="translate(384.337 394.252)" fill="#303030"/>
    <line id="Line_504" data-name="Line 504" x1="0.634" transform="translate(11.719 12.666)" fill="#303030"/>
    <line id="Line_505" data-name="Line 505" x1="0.632" transform="translate(6.887 12.666)" fill="#303030"/>
  </g>
</svg>
