<svg id="happy" xmlns="http://www.w3.org/2000/svg" width="19.189" height="19.19" viewBox="0 0 19.189 19.19">
  <ellipse id="Ellipse_536" data-name="Ellipse 536" cx="9.595" cy="9.595" rx="9.595" ry="9.595" transform="translate(0 0)" fill="#2bc168"/>
  <g id="Group_7404" data-name="Group 7404" transform="translate(4.84 3.949)">
    <path id="Path_4608" data-name="Path 4608" d="M-514.454-428.262l-.546.526a1.3,1.3,0,0,0-1.05-.53,1.312,1.312,0,0,0-1.079.566l-.546-.53A2.1,2.1,0,0,1-516.05-429,2.1,2.1,0,0,1-514.454-428.262Z" transform="translate(517.675 428.996)" fill="#322f30"/>
    <path id="Path_4609" data-name="Path 4609" d="M-480.254-428.262l-.546.526a1.3,1.3,0,0,0-1.05-.53,1.312,1.312,0,0,0-1.079.566l-.546-.53A2.1,2.1,0,0,1-481.85-429,2.1,2.1,0,0,1-480.254-428.262Z" transform="translate(489.763 428.996)" fill="#322f30"/>
    <line id="Line_497" data-name="Line 497" x1="0.546" y2="0.526" transform="translate(2.675 0.734)" fill="#322f30"/>
    <line id="Line_498" data-name="Line 498" x1="0.546" y1="0.53" transform="translate(0 0.767)" fill="#322f30"/>
    <path id="Path_4610" data-name="Path 4610" d="M-515.624-410.212a.9.9,0,0,1-.646-.273c-.32-.387-.08-1.057.242-1.418a1.446,1.446,0,0,1,1-.462,1.412,1.412,0,0,1,1.236.656c.165.27.386.857.063,1.229a.924.924,0,0,1-.7.267Z" transform="translate(516.651 415.424)" fill="#322f30"/>
    <path id="Path_4611" data-name="Path 4611" d="M-481.688-410.212a.9.9,0,0,1-.646-.273c-.32-.387-.08-1.057.242-1.418a1.446,1.446,0,0,1,1-.462,1.412,1.412,0,0,1,1.236.656c.165.27.386.857.063,1.229a.924.924,0,0,1-.7.267Z" transform="translate(488.955 415.424)" fill="#322f30"/>
    <path id="Path_4612" data-name="Path 4612" d="M-501.422-383.946h-5.588a2.849,2.849,0,0,0-.026.379,2.819,2.819,0,0,0,2.819,2.819,2.819,2.819,0,0,0,2.82-2.819A2.849,2.849,0,0,0-501.422-383.946Zm-2.795,2.466a2.1,2.1,0,0,1-2.076-1.785h4.154A2.1,2.1,0,0,1-504.216-381.48Z" transform="translate(508.991 392.229)" fill="#322f30"/>
    <path id="Path_4613" data-name="Path 4613" d="M-501.307-383.946h0Z" transform="translate(508.877 392.229)" fill="#322f30"/>
    <path id="Line_499" data-name="Line 499" d="M4.153.125H0v-.25H4.153Z" transform="translate(2.699 8.963)" fill="#322f30"/>
  </g>
</svg>
