<svg xmlns="http://www.w3.org/2000/svg" width="78" height="78" viewBox="0 0 78 78">
  <g id="home" transform="translate(-0.229 0.479)">
    <circle id="Ellipse_97" data-name="Ellipse 97" cx="39" cy="39" r="39" transform="translate(0.229 -0.479)" fill="#1a5669"/>
    <g id="Group_3929" data-name="Group 3929" transform="translate(23.902 21.782)">
      <path id="Path_3864" data-name="Path 3864" d="M400.032,250.791l-5.888-5.046a.452.452,0,0,0-.59,0l-5.888,5.046a.452.452,0,0,0-.158.344v22.889a.452.452,0,0,0,.453.453h11.775a.453.453,0,0,0,.453-.453V251.135A.453.453,0,0,0,400.032,250.791Zm-3.918,21.293a.453.453,0,0,1-.453.453h-3.624a.453.453,0,0,1-.453-.453v-6.87a.453.453,0,0,1,.453-.453h3.624a.453.453,0,0,1,.453.453Zm-2.264-15.928a2.264,2.264,0,1,1,2.264-2.264A2.264,2.264,0,0,1,393.85,256.156Z" transform="translate(-378.049 -240.099)" fill="#fff"/>
      <path id="Path_3865" data-name="Path 3865" d="M393.75,239.851a1.358,1.358,0,0,0-1.769,0l-6.341,5.435a1.359,1.359,0,0,0,1.769,2.063l5.456-4.677,5.457,4.677a1.359,1.359,0,1,0,1.769-2.063Zm-9.891,15.935h-5.435a.453.453,0,0,0-.453.453v17.21a.453.453,0,0,0,.453.453h5.435a.453.453,0,0,0,.453-.453v-3.17H380.7a.453.453,0,0,1-.453-.453v-2.717a.453.453,0,0,1,.453-.453h3.616v-3.623H380.7a.453.453,0,0,1-.453-.453v-2.717a.453.453,0,0,1,.453-.453h3.616v-3.17A.453.453,0,0,0,383.858,255.786Zm-6.793-3.623a1.359,1.359,0,0,0,1.359,1.359h5.888V250.8h-5.888A1.359,1.359,0,0,0,377.065,252.163Zm30.226-1.359H401.4v2.717h5.888a1.359,1.359,0,1,0,0-2.717Zm0,4.982h-5.435a.453.453,0,0,0-.453.453v3.17h3.616a.453.453,0,0,1,.453.453v2.717a.453.453,0,0,1-.453.453H401.4v3.623h3.616a.453.453,0,0,1,.453.453v2.717a.453.453,0,0,1-.453.453H401.4v3.17a.453.453,0,0,0,.453.453h5.435a.453.453,0,0,0,.453-.453v-17.21A.453.453,0,0,0,407.291,255.786Z" transform="translate(-377.065 -239.524)" fill="#fff"/>
    </g>
  </g>
</svg>
