<?xml version="1.0" encoding="utf-8"?>
<!-- Generator: Adobe Illustrator 21.0.0, SVG Export Plug-In . SVG Version: 6.00 Build 0)  -->
<svg version="1.1" id="Layer_1" xmlns="http://www.w3.org/2000/svg" xmlns:xlink="http://www.w3.org/1999/xlink" x="0px"
     y="0px"
     viewBox="0 0 24 24" style="enable-background:new 0 0 24 24;" xml:space="preserve">
<g>
	<path d="M15.5,13c-2,0-6,1-6,3v2h12v-2C21.5,14,17.5,13,15.5,13"/>
    <path d="M15.5,11c1.7,0,3-1.3,3-3s-1.3-3-3-3s-3,1.3-3,3S13.8,11,15.5,11"/>
    <polygon points="10.5,10 7.5,10 7.5,7 5.5,7 5.5,10 2.5,10 2.5,12 5.5,12 5.5,15 7.5,15 7.5,12 10.5,12 	"/>
</g>
</svg>
