<svg xmlns="http://www.w3.org/2000/svg" viewBox="0 0 86.53 86.53"><defs><style>.cls-1{fill:#f1593f;}.cls-2{fill:#fff;}</style></defs><title>Asset 9</title><g id="Layer_2" data-name="Layer 2"><g id="Layer_3" data-name="Layer 3"><rect class="cls-1" width="86.53" height="86.53" rx="14.1"/><path class="cls-2" d="M65.73,20H23.06A7.12,7.12,0,0,0,16,27.13V62.69a7.12,7.12,0,0,0,7.11,7.11H65.73a7.12,7.12,0,0,0,7.11-7.11V27.13A7.12,7.12,0,0,0,65.73,20ZM68.1,62.69a2.37,2.37,0,0,1-2.37,2.37H23.06a2.38,2.38,0,0,1-2.37-2.37v-26H68.1v26Z"/><path class="cls-2" d="M30.18,12.91H27.8a2.38,2.38,0,0,0-2.37,2.38v9.48a2.37,2.37,0,0,0,2.37,2.37h2.38a2.38,2.38,0,0,0,2.37-2.37V15.29A2.38,2.38,0,0,0,30.18,12.91Z"/><path class="cls-2" d="M61,12.91H58.62a2.37,2.37,0,0,0-2.37,2.38v9.48a2.36,2.36,0,0,0,2.37,2.36H61a2.36,2.36,0,0,0,2.37-2.37V15.29A2.37,2.37,0,0,0,61,12.91Z"/><circle class="cls-2" cx="44.27" cy="50.65" r="9.45"/><path class="cls-1" d="M46.81,54.29A1.09,1.09,0,0,1,46,54L43.5,51.42a1.06,1.06,0,0,1-.32-.77v-4a1.09,1.09,0,0,1,2.18,0V50.2l2.22,2.22a1.1,1.1,0,0,1-.77,1.87Z"/></g></g></svg>