<svg xmlns="http://www.w3.org/2000/svg" viewBox="0 0 86.53 86.53"><defs><style>.cls-1{fill:#38489e;}.cls-2{fill:#fff;}</style></defs><title>Asset 22</title><g id="Layer_2" data-name="Layer 2"><g id="Layer_3" data-name="Layer 3"><rect class="cls-1" width="86.53" height="86.53" rx="14.1"/><path class="cls-2" d="M48.66,33.48l.41-12.09c0-3.44-2.64-7.19-5.89-7.19S37.29,18,37.29,21.39l.41,12.18-24.27,15V53a1.25,1.25,0,0,0,1.25,1.25L38.16,47.4l.51,12.4c0,1.07-.78,2.07-.47,3l-7,4.69v3.93a1,1,0,0,0,.95,1L42.63,68.9h1.26l10.49,3.42a.94.94,0,0,0,.94-.94V67.45l-7.13-4.77c.29-.87-.5-1.84-.5-2.88l.51-12.45,23.64,6.86A1.24,1.24,0,0,0,73.09,53V48.57Z"/></g></g></svg>