<svg xmlns="http://www.w3.org/2000/svg" xmlns:xlink="http://www.w3.org/1999/xlink" width="25.444" height="22.184" viewBox="0 0 25.444 22.184">
  <defs>
    <clipPath id="clip-path">
      <rect id="Rectangle_4" data-name="Rectangle 4" width="25.444" height="22.184" fill="none"/>
    </clipPath>
  </defs>
  <g id="Group_21" data-name="Group 21" transform="translate(-1448 -719.714)">
    <g id="Group_8" data-name="Group 8" transform="translate(1448 719.714)">
      <g id="Group_7" data-name="Group 7" clip-path="url(#clip-path)">
        <path id="Path_149" data-name="Path 149" d="M15.342,11.48a.5.5,0,0,1-.2-.544c.056-.472.1-.946.169-1.417a.463.463,0,0,0-.216-.495,4.544,4.544,0,0,1-1.829-2.739,4.487,4.487,0,0,1,1.3-4.416c.113-.112.23-.22.361-.345a7.451,7.451,0,0,0-1.368-.473,10.25,10.25,0,0,0-6.1.329A10.066,10.066,0,0,0,3.974,3.556c-.029.027-.06.051-.091.076s-.095.037-.108.094L3.7,3.8c-.13-.055-.2.062-.3.1a.319.319,0,0,1-.3-.241.34.34,0,0,1,.1-.378c.189-.175.382-.345.573-.517.052-.026.084.019.145.044A.173.173,0,0,1,3.949,2.6a9.755,9.755,0,0,1,1.877-1.29A10.724,10.724,0,0,1,9.218.153a10.838,10.838,0,0,1,6.137.739.593.593,0,0,0,.566-.028A6.943,6.943,0,0,1,21.044.226a6.593,6.593,0,0,1,1.814.756.947.947,0,0,1,.24.193.321.321,0,0,1,.039.41.33.33,0,0,1-.384.157,1.1,1.1,0,0,1-.328-.145A6.04,6.04,0,0,0,18.342.815,6.165,6.165,0,0,0,15.492,2c-.067.051-.153.076-.2.151a.24.24,0,0,0-.189.166c-.036.011-.015.069-.059.073-.1-.01-.12.046-.115.128A4.317,4.317,0,0,0,13.994,4.3a3.679,3.679,0,0,0,1.02,3.641,4.869,4.869,0,0,0,.8.673.6.6,0,0,1,.274.665c-.049.323-.085.647-.124.972a1.97,1.97,0,0,0,0,.211c.306-.235.6-.459.891-.685.077-.06.149-.126.227-.184a.7.7,0,0,1,.627-.133,6.059,6.059,0,0,0,4.4-.465A6.452,6.452,0,0,0,23.531,8c.193,0,.193,0,.208-.215a4.858,4.858,0,0,0,.673-1.13A3.761,3.761,0,0,0,24,3.043c-.074-.109-.155-.213-.229-.322a.384.384,0,0,1,.051-.526.369.369,0,0,1,.533.076,4.71,4.71,0,0,1,1.036,2.267,4.09,4.09,0,0,1-.182,1.976,5.172,5.172,0,0,1-2.918,3.216c-.239.11-.3.191-.275.45a10.982,10.982,0,0,1-.858,5.353,11.218,11.218,0,0,1-2.022,3.111.264.264,0,0,1-.041.03c-.091.028-.189.047-.171.179a10.619,10.619,0,0,1-2.776,2.086,10.776,10.776,0,0,1-3.919,1.18A10.765,10.765,0,0,1,5.189,20.5,10.8,10.8,0,0,1,.223,13.22a10.3,10.3,0,0,1-.188-2.943A10.936,10.936,0,0,1,1.823,5a1.828,1.828,0,0,1,.307-.412.325.325,0,0,1,.423-.049.334.334,0,0,1,.14.433,1.712,1.712,0,0,1-.172.316A9.987,9.987,0,0,0,.795,11.67a10.091,10.091,0,0,0,2.184,5.715.756.756,0,0,1,.045.072c-.021.061.035.061.065.081h0c.031.014-.076.138.057.071,0,.054.073.049.082.1a.392.392,0,0,0,.126.144l.113.138a.8.8,0,0,0,.241.24h0a.1.1,0,0,0,.062.069l.212.212c.01.071.076.11.1.174s.071.033.111.011A12.492,12.492,0,0,0,5.539,19.7a9.918,9.918,0,0,0,3.214,1.34,10.073,10.073,0,0,0,8.177-1.609,10.018,10.018,0,0,0,3.889-5.269,10.1,10.1,0,0,0,.473-3.78c-.009-.154-.042-.217-.215-.177a8.018,8.018,0,0,1-2.7.086c-.205-.022-.411-.035-.617-.048a.648.648,0,0,0-.448.142q-.639.492-1.277.987a1.714,1.714,0,0,0-.31.137.313.313,0,0,1-.245.037h0c-.019-.076-.084-.062-.137-.071" transform="translate(0 0)"/>
        <path id="Path_150" data-name="Path 150" d="M137.046,34.068h1.02a.516.516,0,0,1,.126.011.164.164,0,0,1,.116.183.16.16,0,0,1-.125.167.612.612,0,0,1-.119.01h-2.018a.35.35,0,0,1-.14-.021.164.164,0,0,1-.107-.189.173.173,0,0,1,.145-.159c.08-.005.16,0,.24,0h.863" transform="translate(-120.042 -30.153)" fill="#010101"/>
        <path id="Path_151" data-name="Path 151" d="M184.827,34.068h1.035a.532.532,0,0,1,.128.011.164.164,0,0,1,.117.183.16.16,0,0,1-.127.167.628.628,0,0,1-.121.01h-2.047a.359.359,0,0,1-.142-.021.164.164,0,0,1-.108-.189.174.174,0,0,1,.147-.159c.081-.005.162,0,.243,0h.875" transform="translate(-162.468 -30.153)" fill="#010101"/>
        <path id="Path_152" data-name="Path 152" d="M137.058,46.219c.352,0,.7,0,1.057,0,.133,0,.195.068.189.2a.157.157,0,0,1-.123.158.666.666,0,0,1-.112.01l-2.009.005a.731.731,0,0,1-.149-.015.152.152,0,0,1-.089-.234.209.209,0,0,1,.2-.129c.345.008.69,0,1.035,0Z" transform="translate(-120.194 -40.905)"/>
        <path id="Path_153" data-name="Path 153" d="M184.84,46.219c.358,0,.716,0,1.074,0a.17.17,0,0,1,.192.2.157.157,0,0,1-.125.158.686.686,0,0,1-.114.01l-2.042.005a.754.754,0,0,1-.151-.015.151.151,0,0,1-.091-.234.213.213,0,0,1,.2-.129c.35.008.7,0,1.051,0Z" transform="translate(-162.467 -40.905)"/>
        <path id="Path_154" data-name="Path 154" d="M134.706,99.049a.67.67,0,0,0,.353-.152c.062-.06.132-.039.2-.022a.5.5,0,0,1-.555.174" transform="translate(-119.228 -87.498)" fill="#08090b"/>
        <path id="Path_155" data-name="Path 155" d="M205,67.758a.585.585,0,0,0,.038.127c.038.068-.006.108-.043.148-.058.064-.085-.012-.124-.032a.587.587,0,0,0-.079-.028l.208-.215" transform="translate(-181.259 -59.972)" fill="#050609"/>
        <path id="Path_156" data-name="Path 156" d="M34.7,161.272c-.006.04-.007.088-.055.1s-.09-.022-.085-.064c.012-.088-.15-.111-.074-.216a.776.776,0,0,1,.213.185" transform="translate(-30.509 -142.578)" fill="#030305"/>
        <path id="Path_157" data-name="Path 157" d="M29.568,32.637l.078-.09c.07-.08.143-.128.222-.01a.3.3,0,0,1-.3.1" transform="translate(-26.171 -28.736)" fill="#050508"/>
        <path id="Path_158" data-name="Path 158" d="M164.246,162.613c-.009-.051-.1-.08-.047-.146s.144-.032.218-.033a.649.649,0,0,1-.171.179" transform="translate(-145.319 -143.758)" fill="#06070a"/>
        <path id="Path_159" data-name="Path 159" d="M32.97,22.638a.738.738,0,0,0-.026.1c-.007.049.052.112.011.142-.077.055-.1-.065-.166-.073a.6.6,0,0,1,.182-.164" transform="translate(-29.021 -20.037)" fill="#09080c"/>
        <path id="Path_160" data-name="Path 160" d="M129.472,20.482c-.014-.059-.1-.112-.029-.176s.093.039.144.048l-.115.128" transform="translate(-114.544 -17.958)" fill="#040407"/>
        <path id="Path_161" data-name="Path 161" d="M131.227,18.737a.211.211,0,0,0-.027-.191.471.471,0,0,0,.216.025.536.536,0,0,1-.189.166" transform="translate(-116.125 -16.415)" fill="#040407"/>
        <path id="Path_162" data-name="Path 162" d="M30.4,156.781c-.123-.037-.223-.1-.241-.24a.859.859,0,0,1,.241.24" transform="translate(-26.698 -138.554)" fill="#030305"/>
        <path id="Path_163" data-name="Path 163" d="M26.313,152.7c-.064.014-.013.1-.073.114-.013,0-.037-.021-.048-.037-.058-.083.056-.093.064-.148a.1.1,0,0,1,.057.071" transform="translate(-23.168 -135.093)" fill="#030305"/>
        <path id="Path_164" data-name="Path 164" d="M133.521,99.463c.037-.013.047-.089.109-.044a.076.076,0,0,1,.028.115.15.15,0,0,1-.137-.071" transform="translate(-118.179 -87.983)" fill="#08090b"/>
        <path id="Path_165" data-name="Path 165" d="M32.744,31.626c-.048-.128.033-.108.108-.094a.166.166,0,0,1-.108.094" transform="translate(-28.969 -27.9)" fill="#050508"/>
        <path id="Path_166" data-name="Path 166" d="M28.214,154.231a.14.14,0,0,1-.126-.144.356.356,0,0,1,.126.144" transform="translate(-24.861 -136.382)" fill="#030305"/>
        <path id="Path_167" data-name="Path 167" d="M25.938,152.011c-.041-.005-.1.021-.119-.022s.053-.022.055-.059a.134.134,0,0,1,.065.081" transform="translate(-22.849 -134.473)" fill="#030305"/>
        <path id="Path_168" data-name="Path 168" d="M32.19,158.7c-.023.01-.047.031-.07,0s0-.049.008-.072c.03.014.058.031.062.069" transform="translate(-28.421 -140.408)" fill="#030305"/>
        <path id="Path_169" data-name="Path 169" d="M59.589,44.518a11.594,11.594,0,0,0-1.4-2.074,1.438,1.438,0,0,0-1.523-.468.65.65,0,0,1-.634-.155,3.426,3.426,0,0,1-.783-1.058,4.844,4.844,0,0,1-.534-3.138.648.648,0,0,1,.536-.548A1.463,1.463,0,0,0,56.3,35.911a10,10,0,0,0,.091-2.187,1.342,1.342,0,0,0-.928-1.263,2.539,2.539,0,0,0-1.687.061A4.345,4.345,0,0,0,51.1,35.174a5.112,5.112,0,0,0-.348,2.163,12.131,12.131,0,0,0,.339,2.9,12.318,12.318,0,0,0,1.577,3.633A6.186,6.186,0,0,0,54.7,45.912a4.8,4.8,0,0,0,2.148.754,3.833,3.833,0,0,0,2.342-.582,1.2,1.2,0,0,0,.4-1.566m-1.1,1.1a3.153,3.153,0,0,1-2.6.057,5.336,5.336,0,0,1-2.609-2.22,11.478,11.478,0,0,1-1.53-3.689,9.609,9.609,0,0,1-.189-3.383A3.938,3.938,0,0,1,53.2,33.61a2.773,2.773,0,0,1,1.8-.494.642.642,0,0,1,.632.628c.02.153.022.309.032.463a12.26,12.26,0,0,1-.059,1.372.834.834,0,0,1-.67.825,1.168,1.168,0,0,0-.9.869,4.626,4.626,0,0,0,.089,2.69,4.943,4.943,0,0,0,1.417,2.41,1.136,1.136,0,0,0,1.237.319.654.654,0,0,1,.322-.021.925.925,0,0,1,.643.386c.367.5.726,1,1.045,1.532.3.493.208.781-.314,1.026" transform="translate(-44.915 -28.626)"/>
        <path id="Path_170" data-name="Path 170" d="M159.868,30.131h-.195l-.055-.038a.288.288,0,0,1-.1-.385l.622-1.477h-.354a.281.281,0,0,1-.265-.426l.312-.624.685-1.371a.3.3,0,0,1,.283-.176h1.042a.282.282,0,0,1,.271.152.287.287,0,0,1-.024.3l-.574.906h.411a.281.281,0,0,1,.216.468l-.443.526-1.682,2a.84.84,0,0,1-.065.067l-.02.019Zm.544-2.326h.358l-.122.309-.013.033-.371.88,1.108-1.315.247-.294h-.874l.21-.34.025-.04.62-.978h-.733l-.656,1.312L160,27.8Z" transform="translate(-141.121 -22.572)"/>
      </g>
    </g>
  </g>
</svg>
