<svg xmlns="http://www.w3.org/2000/svg" width="45.278" height="37.468" viewBox="0 0 45.278 37.468" fill="white">
  <g id="Group_467" data-name="Group 467" transform="translate(-840.345 -55.813)">
    <path id="Path_840" data-name="Path 840" d="M860.071,90.865a31.346,31.346,0,0,1-4.3.331c-9.2,0-15.423-6.819-15.423-14.894,0-8.009,7.744-14.563,15.423-14.563,9.2,0,16.615,6.555,16.615,14.563a14.5,14.5,0,0,1-5.1,11.519V95.1Zm9.8-14.365c0-6.752-6.089-12.18-14.1-12.18-6.419,0-12.842,5.429-12.842,12.18,0,6.686,5.031,12.18,12.842,12.18a26.048,26.048,0,0,0,4.568-.4l4.369,2.912v-4.5A12.914,12.914,0,0,0,869.869,76.5Z" transform="translate(0 -1.822)" fill="var(--currentThemeColor)" fill-rule="evenodd"/>
    <g id="Group_465" data-name="Group 465" transform="translate(846.568 55.813)" >
      <path id="Path_841" data-name="Path 841" d="M882.715,85a12.419,12.419,0,0,0-1.323.134,22.376,22.376,0,0,0,1.587-2.715l4.37,2.914V80.769a12.92,12.92,0,0,0,5.163-10.195c0-6.752-6.155-12.18-14.1-12.18a11.819,11.819,0,0,0-4.039.729,16.637,16.637,0,0,0-3.441-1.259,15.158,15.158,0,0,1,7.479-2.051c9.2,0,16.614,6.552,16.614,14.563a14.8,14.8,0,0,1-5.1,11.518v7.281Z" transform="translate(-855.973 -55.813)" fill="var(--currentThemeColor)" fill-rule="evenodd"/>
      <path id="Path_842" data-name="Path 842" d="M870.034,80.15a2.4,2.4,0,0,0-.727,1.72,2.444,2.444,0,0,0,.727,1.788,2.413,2.413,0,0,0,1.722.727,2.452,2.452,0,0,0,1.789-.727,2.742,2.742,0,0,0,.726-1.788,2.714,2.714,0,0,0-.726-1.72h0a2.448,2.448,0,0,0-1.789-.729,2.409,2.409,0,0,0-1.722.729Z" transform="translate(-855.473 -63.072)" fill="var(--currentThemeColor)" fill-rule="evenodd"/>
      <path id="Path_843" data-name="Path 843" d="M864.263,81.871a2.645,2.645,0,0,0-.661-1.72h0a2.554,2.554,0,0,0-1.788-.729,2.291,2.291,0,0,0-1.719.729h0a2.4,2.4,0,0,0-.73,1.72,2.441,2.441,0,0,0,.73,1.788,2.3,2.3,0,0,0,1.719.727,2.558,2.558,0,0,0,1.788-.727,2.688,2.688,0,0,0,.661-1.788Z" transform="translate(-852.416 -63.072)" fill="var(--currentThemeColor)" fill-rule="evenodd"/>
      <path id="Path_844" data-name="Path 844" d="M854.3,81.871a2.492,2.492,0,0,0-2.449-2.45,2.439,2.439,0,0,0-1.787.729h0a2.712,2.712,0,0,0-.728,1.72,2.74,2.74,0,0,0,.728,1.788,2.443,2.443,0,0,0,1.787.727,2.4,2.4,0,0,0,1.719-.727,2.446,2.446,0,0,0,.73-1.788Z" transform="translate(-849.331 -63.072)" fill="var(--currentThemeColor)" fill-rule="evenodd"/>
    </g>
  </g>
</svg>
