<svg id="Group_2" data-name="Group 2" xmlns="http://www.w3.org/2000/svg" xmlns:xlink="http://www.w3.org/1999/xlink" width="28.026" height="25.131" viewBox="0 0 28.026 25.131">
  <defs>
    <clipPath id="clip-path">
      <rect id="Rectangle_1" data-name="Rectangle 1" width="28.026" height="25.131" fill="none"/>
    </clipPath>
  </defs>
  <g id="Group_1" data-name="Group 1" clip-path="url(#clip-path)">
    <path id="Path_1" data-name="Path 1" d="M229.218,280.859c0,.061.059.046.091.073-.057.014-.108.023-.125.093a.129.129,0,0,1-.105.1c-.068.013-.1.048-.085.125.01.045-.007.086-.064.082-.086-.005-.159.048-.242.055a2.406,2.406,0,0,1,.53-.527" transform="translate(-216.958 -266.454)" fill="#050607"/>
    <path id="Path_2" data-name="Path 2" d="M361.372,156.692c.01.111-.1.136-.15.2-.072.083-.19.106-.243.229-.031.073.04.091.015.143-.087.015-.2-.031-.263.082,0,.007-.033.007-.039.028-.024.077-.024.077-.092.046a3.734,3.734,0,0,1,.771-.726" transform="translate(-342.106 -148.655)" fill="#060608"/>
    <path id="Path_3" data-name="Path 3" d="M137.435,298.918a1.321,1.321,0,0,0-.028-.174c0-.012,0-.108-.069-.037-.031.031-.07-.011-.073-.036-.017-.153-.144-.213-.247-.284s.047-.11,0-.162a1.1,1.1,0,0,1,.359.35.328.328,0,0,1,.058.343" transform="translate(-129.957 -282.93)" fill="#040506"/>
    <path id="Path_4" data-name="Path 4" d="M128.36,290.877c-.027.031-.052.063-.081.091s-.06.013-.058,0c.013-.1-.119-.106-.126-.194s-.094-.057-.139-.081a.171.171,0,0,1-.093-.21,5.116,5.116,0,0,1,.5.4" transform="translate(-121.3 -275.581)" fill="#040506"/>
    <path id="Path_5" data-name="Path 5" d="M110.108,276.333c-.06.078-.154.013-.224.053,0-.037-.026-.079-.021-.1.014-.065,0-.084-.065-.1s-.121-.037-.107-.129c.007-.045-.057-.054-.086-.081s-.107-.047-.1-.121a6.51,6.51,0,0,1,.6.481" transform="translate(-103.89 -261.703)" fill="#060608"/>
    <path id="Path_6" data-name="Path 6" d="M389.364,41.864c.016.121-.107.21-.08.334-.035-.02-.07.088-.107,0-.022-.052-.043,0-.058.007-.039.031-.067.08-.128.07a1.941,1.941,0,0,1,.373-.41" transform="translate(-369.039 -39.717)" fill="#060608"/>
    <path id="Path_7" data-name="Path 7" d="M165.481,400.773c-.052.016-.089-.033-.151-.019-.161.035-.238-.072-.185-.235l.336.254" transform="translate(-156.659 -379.976)" fill="#070809"/>
    <path id="Path_8" data-name="Path 8" d="M383.521,51.934a.143.143,0,0,1-.019.2,1.008,1.008,0,0,1-.2.141,1.293,1.293,0,0,1,.215-.342" transform="translate(-363.646 -49.27)" fill="#060608"/>
    <path id="Path_9" data-name="Path 9" d="M225.993,291.119c0,.07.057.038.09.049a.064.064,0,0,1,.049.072c-.005.053-.044.039-.071.032-.078-.019-.137.057-.213.04a.619.619,0,0,1,.146-.194" transform="translate(-214.263 -276.187)" fill="#050607"/>
    <path id="Path_10" data-name="Path 10" d="M58.952,138.868l.161.051c-.022.056.053.135.018.15-.066.027-.112.139-.21.072.142-.1.142-.1.03-.273" transform="translate(-55.9 -131.745)" fill="#080909"/>
    <path id="Path_11" data-name="Path 11" d="M214.409,395.722c-.011.037-.057.062-.033.112.01.02.009.033-.032.028-.06-.008-.051.01-.087.089s-.118.037-.182.025a1.47,1.47,0,0,1,.335-.253" transform="translate(-203.094 -375.425)" fill="#080909"/>
    <path id="Path_12" data-name="Path 12" d="M41.344,152.823c0,.06.075.127-.015.179a.127.127,0,0,1-.178-.035.71.71,0,0,1,.193-.144" transform="translate(-39.04 -144.985)" fill="#060609"/>
    <path id="Path_13" data-name="Path 13" d="M35.932,155.622c0,.043-.048.058-.05.094-.011.166-.115.158-.232.128a1.27,1.27,0,0,1,.283-.221" transform="translate(-33.821 -147.64)" fill="#060609"/>
    <path id="Path_14" data-name="Path 14" d="M177.995,67.872c.011.1,0,.173-.131.142-.064-.016-.114.067-.18.02a1.141,1.141,0,0,1,.311-.162" transform="translate(-168.571 -64.391)" fill="#09090a"/>
    <path id="Path_15" data-name="Path 15" d="M161.123,397.078a.4.4,0,0,1-.159.028c-.025,0-.06-.02-.052-.027.081-.074-.047-.122-.02-.186a1.251,1.251,0,0,1,.231.186" transform="translate(-152.637 -376.535)" fill="#070809"/>
    <path id="Path_16" data-name="Path 16" d="M443.331,380.589a.321.321,0,0,1,.024-.207c.019-.076.088-.011.135,0a.847.847,0,0,1-.158.2" transform="translate(-420.582 -360.838)" fill="#070909"/>
    <path id="Path_17" data-name="Path 17" d="M446.882,375.969c-.084-.164-.078-.172.141-.2a.781.781,0,0,1-.141.2" transform="translate(-423.913 -356.499)" fill="#070909"/>
    <path id="Path_18" data-name="Path 18" d="M350.348,404.092c-.085.044-.182-.042-.188-.168a.457.457,0,0,1,.188.168" transform="translate(-332.2 -383.207)" fill="#0a0a0c"/>
    <path id="Path_19" data-name="Path 19" d="M144.6,413.544c.082-.04.132.058.22.049.05-.005-.04.073-.022.121a.818.818,0,0,1-.2-.17" transform="translate(-137.184 -392.324)" fill="#07090a"/>
    <path id="Path_20" data-name="Path 20" d="M121.568,350.714c-.056.007-.114.022-.106-.071s-.11-.149-.1-.251a1.725,1.725,0,0,1,.2.321" transform="translate(-115.141 -332.42)" fill="#070709"/>
    <path id="Path_21" data-name="Path 21" d="M123.248,286.989c-.152.049-.187-.061-.225-.166a.568.568,0,0,1,.225.166" transform="translate(-116.713 -272.112)" fill="#060608"/>
    <path id="Path_22" data-name="Path 22" d="M130.19,363.946a.179.179,0,0,1-.161-.227.781.781,0,0,1,.161.227" transform="translate(-123.355 -345.064)" fill="#08080a"/>
    <path id="Path_23" data-name="Path 23" d="M229.212,374.531c.138-.025.164.005.143.164a.574.574,0,0,1-.143-.164" transform="translate(-217.456 -355.314)" fill="#08080a"/>
    <path id="Path_24" data-name="Path 24" d="M511.395,160.571c-.182.1-.131-.07-.163-.144a.552.552,0,0,1,.163.144" transform="translate(-485.011 -152.199)" fill="#08080b"/>
    <path id="Path_25" data-name="Path 25" d="M170.236,102.873a.543.543,0,0,1,.255-.309l-.255.309" transform="translate(-161.505 -97.303)" fill="#0a0b0c"/>
    <path id="Path_26" data-name="Path 26" d="M118.057,344.983c-.06-.078-.2-.113-.139-.256a.676.676,0,0,1,.139.256" transform="translate(-111.856 -327.046)" fill="#070709"/>
    <path id="Path_27" data-name="Path 27" d="M173.035,71.711c-.019.122-.079.169-.2.105a.469.469,0,0,1,.2-.105" transform="translate(-163.973 -68.033)" fill="#09090a"/>
    <path id="Path_28" data-name="Path 28" d="M439.3,387.214c-.037-.13-.018-.153.115-.136a.327.327,0,0,1-.115.136" transform="translate(-416.748 -367.22)" fill="#070909"/>
    <path id="Path_29" data-name="Path 29" d="M67.769,29.17c-.067.086-.133.173-.258.17a.967.967,0,0,1,.258-.17" transform="translate(-64.048 -27.674)" fill="#08090a"/>
    <path id="Path_30" data-name="Path 30" d="M234.573,379.63c.032-.014.046-.07.088-.052s.077-.023.091.024c0,.009.035.068-.027.059-.016,0-.028-.025-.044-.028-.038-.006-.042.025-.048.052l-.06-.056" transform="translate(-222.542 -360.105)" fill="#08080a"/>
    <path id="Path_31" data-name="Path 31" d="M134.288,369.9c-.049-.053-.2-.026-.137-.169a.3.3,0,0,1,.137.169" transform="translate(-127.257 -350.765)" fill="#08080a"/>
    <path id="Path_32" data-name="Path 32" d="M113.668,380.66c.074.022.105.095.165.134.039.026-.019.037-.02.059a.634.634,0,0,1-.145-.194" transform="translate(-107.838 -361.136)" fill="#090a0c"/>
    <path id="Path_33" data-name="Path 33" d="M80.2,23.725c-.062.069-.118.151-.23.089a.781.781,0,0,1,.23-.089" transform="translate(-75.87 -22.508)" fill="#08090a"/>
    <path id="Path_34" data-name="Path 34" d="M232.023,377.759c.1-.019.159,0,.106.119a.312.312,0,0,1-.106-.119" transform="translate(-220.122 -358.378)" fill="#08080a"/>
    <path id="Path_35" data-name="Path 35" d="M73.674,26.723c0,.007,0,.015,0,.022h0c-.062.044-.116.107-.206.079a.44.44,0,0,1,.206-.1" transform="translate(-69.7 -25.352)" fill="#08090a"/>
    <path id="Path_36" data-name="Path 36" d="M142.575,312.877c-.008,0-.023-.006-.024-.012-.013-.065-.118.021-.1-.044s.093-.024.143,0a.046.046,0,0,1-.022.058" transform="translate(-135.145 -296.744)" fill="#040506"/>
    <path id="Path_37" data-name="Path 37" d="M221.813,391.727c-.017.11-.106.131-.193.151a.8.8,0,0,1,.193-.151" transform="translate(-210.253 -371.635)" fill="#080909"/>
    <path id="Path_38" data-name="Path 38" d="M508.6,158.45c-.085-.008-.139-.048-.143-.108a.254.254,0,0,1,.143.108" transform="translate(-482.375 -150.221)" fill="#08080b"/>
    <path id="Path_39" data-name="Path 39" d="M151.692,419.317c.13-.07.093.076.142.11a.361.361,0,0,1-.142-.11" transform="translate(-143.912 -397.792)" fill="#07090a"/>
    <path id="Path_40" data-name="Path 40" d="M125.429,356.835a.23.23,0,0,1-.134-.2.791.791,0,0,1,.134.2" transform="translate(-118.869 -338.342)" fill="#070709"/>
    <path id="Path_41" data-name="Path 41" d="M205.443,405.371c-.031.058-.027.161-.142.113l.142-.113" transform="translate(-194.771 -384.579)" fill="#0a0a0c"/>
    <path id="Path_42" data-name="Path 42" d="M234.724,381.732c.039,0,.084.011.074.056-.013.062-.074.071-.128.08.02-.045.113-.061.054-.136" transform="translate(-222.634 -362.153)" fill="#08080a"/>
    <path id="Path_43" data-name="Path 43" d="M441.75,384.983c0-.057-.04-.151.087-.108a.247.247,0,0,1-.087.108" transform="translate(-419.088 -365.124)" fill="#070909"/>
    <path id="Path_44" data-name="Path 44" d="M201.168,409.273c.05.139-.068.064-.11.086a.209.209,0,0,1,.11-.086" transform="translate(-190.746 -388.281)" fill="#0a0a0c"/>
    <path id="Path_45" data-name="Path 45" d="M346.1,401.376c-.062-.007-.1-.071-.187-.056l.077-.052c.043.029.092.053.11.108" transform="translate(-328.172 -380.687)" fill="#0a0a0c"/>
    <path id="Path_46" data-name="Path 46" d="M337.255,4.685a.317.317,0,0,1-.11-.189.276.276,0,0,1,.11.189" transform="translate(-319.853 -4.265)" fill="#0a0a0b"/>
    <path id="Path_47" data-name="Path 47" d="M239.138,279.186c.032.061,0,.087-.11.086a.248.248,0,0,1,.11-.086" transform="translate(-226.768 -264.866)" fill="#050607"/>
    <path id="Path_48" data-name="Path 48" d="M47.625,150.086c.018.034.024.065-.014.091s-.045-.031-.074-.032a.147.147,0,0,1,.087-.059" transform="translate(-45.1 -142.388)" fill="#060609"/>
    <path id="Path_49" data-name="Path 49" d="M505.9,156.15c-.063,0-.11-.014-.108-.09.044.02.091.037.108.09" transform="translate(-479.846 -148.056)" fill="#08080b"/>
    <path id="Path_50" data-name="Path 50" d="M354.595,407.935c-.06-.011-.114-.027-.109-.105a.193.193,0,0,1,.109.105" transform="translate(-336.304 -386.912)" fill="#08080a"/>
    <path id="Path_51" data-name="Path 51" d="M334.292,1.859c-.063.011-.124.021-.086-.078a.085.085,0,0,1,.086.078" transform="translate(-317.053 -1.69)" fill="#0a0a0b"/>
    <path id="Path_52" data-name="Path 52" d="M117.427,384.718l.08-.046-.016.126-.064-.081" transform="translate(-111.404 -364.942)" fill="#090a0c"/>
    <path id="Path_53" data-name="Path 53" d="M203.289,407.568c0,.077-.054.082-.109.088a.286.286,0,0,1,.109-.088" transform="translate(-192.759 -386.664)" fill="#0a0a0c"/>
    <path id="Path_54" data-name="Path 54" d="M360.544,413.85c-.073,0-.091-.044-.089-.106a.186.186,0,0,1,.089.106" transform="translate(-341.967 -392.523)" fill="#08080a"/>
    <path id="Path_55" data-name="Path 55" d="M120.113,388.533c.119-.051.066.036.065.081l-.065-.081" transform="translate(-113.952 -368.59)" fill="#090a0c"/>
    <path id="Path_56" data-name="Path 56" d="M138.284,374.336c-.068,0-.076-.054-.089-.1a.176.176,0,0,1,.089.1" transform="translate(-131.107 -355.039)" fill="#08080a"/>
    <path id="Path_57" data-name="Path 57" d="M345.388,399.709c-.048-.012-.1-.02-.108-.083.053.006.079.045.108.083" transform="translate(-327.57 -379.129)" fill="#0a0a0c"/>
    <path id="Path_58" data-name="Path 58" d="M446.636,379.652c0-.042,0-.082.061-.079a.116.116,0,0,1-.061.079" transform="translate(-423.728 -360.104)" fill="#070909"/>
    <path id="Path_59" data-name="Path 59" d="M357,410.51c-.019.007-.038.025-.058,0s0-.039,0-.058a.051.051,0,0,1,.053.054" transform="translate(-338.625 -389.404)" fill="#08080a"/>
    <path id="Path_60" data-name="Path 60" d="M167.824,110.188c-.034-.061.026-.06.054-.081a.077.077,0,0,1-.054.081" transform="translate(-159.207 -104.46)" fill="#0a0b0c"/>
    <path id="Path_61" data-name="Path 61" d="M41.151,155.622h0Z" transform="translate(-39.04 -147.64)"/>
    <path id="Path_62" data-name="Path 62" d="M18.563,3.443c-.2-.476-.37-.967-.556-1.45C17.8,1.468,17.641.93,17.4.42c-.044-.059-.062-.133-.11-.189L17.239.169C17.2.15,17.163.137,17.152.091A.338.338,0,0,0,16.877,0c-.4.066-.637.286-.538.7.111.469.318.906.47,1.362.05.151.1.3.161.464-.039,0-.057-.006-.074-.01a10.123,10.123,0,0,0-1.674-.237,11.212,11.212,0,0,0-4.531.639,8.428,8.428,0,0,0-1.268.556c-.029.036-.019.111-.088.107a.989.989,0,0,0-.223.055l-.051.035a.217.217,0,0,1-.2.105c-.078.043-.122.062-.151-.064a3.717,3.717,0,0,0-.522-1.232,3.342,3.342,0,0,0-3.86-1.27c-.027.035-.07.037-.107.052s-.044.03-.005.052a.055.055,0,0,1-.038-.012.093.093,0,0,0-.08,0c-.06-.012-.086.041-.127.065,0,0,0,0-.007.007s0,.01.006.015a.023.023,0,0,1,.009.021.035.035,0,0,0-.026-.028.656.656,0,0,1-.189.086c-.02,0-.039,0-.047.024a.941.941,0,0,1-.258.17A.433.433,0,0,0,3.4,1.7a3.342,3.342,0,0,0-1.3,3.452,5.5,5.5,0,0,0,.947,1.971c.06.045.154.078.139.166s-.1.089-.169.107a4.064,4.064,0,0,0-.5.3c-.01.048-.047.055-.087.059-.037.039-.1.031-.134.081C2.269,8,2.269,8,2.111,7.982c-.085.085-.121.233-.282.221a.419.419,0,0,0-.057.037,5.124,5.124,0,0,0-1.71,3.125,2.492,2.492,0,0,0-.037.856.484.484,0,0,0,.363.41,1.856,1.856,0,0,0,.522.059q3.641.006,7.282.008c.648,0,1.3,0,1.945-.019a.584.584,0,0,0,.652-.67c0-.074,0-.148-.007-.222A5.229,5.229,0,0,0,9.09,8.3a8.225,8.225,0,0,0-1.33-.928c-.087-.054-.112-.09-.049-.188.307-.482.605-.97.907-1.456-.009-.045.045-.048.054-.081l.061-.077a1.3,1.3,0,0,1,.255-.309,3.481,3.481,0,0,1,.426-.375,8.871,8.871,0,0,1,2.08-.976A9.291,9.291,0,0,1,15.5,3.528a4.247,4.247,0,0,1,.809.172l-.072.049a6.9,6.9,0,0,1-1.3.625,1.781,1.781,0,0,0-.459.226.473.473,0,0,0-.176.566.493.493,0,0,0,.484.4,1.275,1.275,0,0,0,.487-.1q1.439-.529,2.876-1.06a.717.717,0,0,0,.414-.967M3.057,4.62a2.236,2.236,0,1,1,4.467-.143A2.2,2.2,0,0,1,5.254,6.7a2.163,2.163,0,0,1-2.2-2.085M7.863,8.762a.721.721,0,0,1,.336.279.025.025,0,0,0,.027.026.874.874,0,0,1,.306.309.023.023,0,0,0,.024.026c.095.043.124.138.173.217a4.232,4.232,0,0,1,.736,1.749c.019.11.015.148-.116.148q-3.961-.006-7.921,0c-.12,0-.135-.043-.127-.142A3.077,3.077,0,0,1,1.96,9.693,4.246,4.246,0,0,1,4.815,8.066,4.28,4.28,0,0,1,6.737,8.2a4.545,4.545,0,0,1,1.126.559" transform="translate(0 0)"/>
    <path id="Path_63" data-name="Path 63" d="M153.649,170.92l-.336-.279a.148.148,0,0,1,.152.031.143.143,0,0,0,.1.041c.151-.011.172.022.111.158-.007.017-.016.033-.025.049" transform="translate(-145.449 -161.878)" fill="#050607"/>
    <path id="Path_64" data-name="Path 64" d="M160.7,175.937l-.306-.309c.016-.075.09-.064.129-.06s.059.053.027.1c-.022.035.021.075.042.072.125-.023.082.082.109.133h0l0,.06" transform="translate(-152.17 -166.56)" fill="#050607"/>
    <path id="Path_65" data-name="Path 65" d="M167,183.5l-.173-.217c.093-.022.186.094.173.217" transform="translate(-158.269 -173.881)" fill="#050607"/>
    <path id="Path_66" data-name="Path 66" d="M166.389,179.208c.01-.015.017-.035.031-.045.031-.022-.031-.1.049-.086.041.008.013.043.009.068-.007.055-.013.107-.089.063h0" transform="translate(-157.855 -169.891)" fill="#050607"/>
    <path id="Path_67" data-name="Path 67" d="M77.189,27.16c.036.03.034.06-.007.1-.027-.037.015-.066.007-.1h0" transform="translate(-73.215 -25.767)" fill="#08090a"/>
    <path id="Path_68" data-name="Path 68" d="M511.232,160.426h0Z" transform="translate(-485.011 -152.198)"/>
    <path id="Path_69" data-name="Path 69" d="M441.838,387.165h0Z" transform="translate(-419.175 -367.307)"/>
    <path id="Path_70" data-name="Path 70" d="M447.807,379.576h0Z" transform="translate(-424.838 -360.107)"/>
    <path id="Path_71" data-name="Path 71" d="M395.28,170.425h0" transform="translate(-375.006 -161.684)"/>
    <path id="Path_72" data-name="Path 72" d="M395.275,170.426h0" transform="translate(-375.001 -161.685)"/>
    <path id="Path_73" data-name="Path 73" d="M346.535,34.613a5.422,5.422,0,0,0-.594-2.095,4.811,4.811,0,0,0-1.04-1.358c-.1,0-.128-.074-.162-.144a.412.412,0,0,1-.143-.107l-.029-.027a.262.262,0,0,1-.108-.09,8.121,8.121,0,0,0-.946-.628c-.114-.071-.108-.117-.042-.216a6.234,6.234,0,0,0,.914-1.89,2.861,2.861,0,0,0-.149-2.072,3.425,3.425,0,0,0-4.17-1.786,3.1,3.1,0,0,0-1.226.736.775.775,0,0,0-.108.248c0,.025-.012.074-.038.061-.124-.064-.148.077-.227.1-.035.029-.076.053-.077.107s.008.144-.049.173c-.078.04-.1.12-.166.169a2.824,2.824,0,0,0-.388,1.232,3.62,3.62,0,0,0,1.065,2.953c.081.083.074.113-.025.171a7.394,7.394,0,0,0-1.045.676.711.711,0,0,1-.193.189c-.1.087-.242.145-.243.312a.048.048,0,0,1-.053.051c-.118-.024-.16.067-.213.137-.02.027-.046.026-.069.038a1.092,1.092,0,0,0-.078.079,5.107,5.107,0,0,0-1.1,2.364,3.291,3.291,0,0,0-.089.95.489.489,0,0,0,.4.46,3.064,3.064,0,0,0,.854.083q2.578.006,5.156,0c.146,0,.177.053.193.175a5.562,5.562,0,0,1-.049,1.66,10.39,10.39,0,0,1-1,3,5.718,5.718,0,0,1-1.109,1.569,1.871,1.871,0,0,1-.5.361c.033-.2.063-.363.088-.532a3.764,3.764,0,0,0,.1-.977.552.552,0,0,0-1.01-.184,1.481,1.481,0,0,0-.137.42c-.144.768-.293,1.536-.432,2.305a4.881,4.881,0,0,0-.124.963.512.512,0,0,0,.345.5,3.124,3.124,0,0,0,.614.169c.7.128,1.392.258,2.089.382a4.182,4.182,0,0,0,.919.129.488.488,0,0,0,.429-.237.532.532,0,0,0-.264-.818,1.605,1.605,0,0,0-.211-.067c-.49-.119-.986-.209-1.482-.3-.191-.036-.382-.076-.61-.121.067-.057.107-.088.143-.123a8.546,8.546,0,0,0,.921-.979c.01-.069.037-.124.115-.136.016-.046.031-.093.087-.107.045-.074.021-.2.158-.2h0c.023-.023.027-.062.06-.078-.029-.12.057-.158.141-.2.018-.021.037-.04.053-.063a11.239,11.239,0,0,0,2.025-6.244c0-.05-.025-.112.045-.147a.626.626,0,0,1,.272-.089c.588-.011,1.176-.024,1.764-.047s.8-.27.75-.858M338.9,27.287a2.254,2.254,0,0,1,2.32-2.128,2.22,2.22,0,0,1,2.146,2.263,2.186,2.186,0,0,1-2.329,2.212,2.221,2.221,0,0,1-2.137-2.347m6.2,7.018q-3.96-.006-7.92,0c-.116,0-.16-.01-.132-.146a4.2,4.2,0,0,1,.921-1.887c.048-.056.1-.112.144-.168a2.4,2.4,0,0,1,.608-.555.152.152,0,0,1,.066-.019l-.006-.008.006.007a.587.587,0,0,1,.273-.172,1.576,1.576,0,0,1,.388-.2,4.671,4.671,0,0,1,1.452-.34,4.137,4.137,0,0,1,2.7.8c.034.024.068.047.1.07a.836.836,0,0,1,.3.254,1.119,1.119,0,0,1,.39.424,4.481,4.481,0,0,1,.831,1.783c.027.124.01.156-.125.156" transform="translate(-318.518 -22.788)"/>
    <path id="Path_74" data-name="Path 74" d="M380.807,169.665a6.578,6.578,0,0,0-.675.574c-.03-.034-.078.055-.1-.014a.093.093,0,0,1,0-.067c.028-.048.06-.005.093,0,.054.006.11-.056.1-.081-.033-.143.085-.138.157-.179a.078.078,0,0,0,.029-.043c.032-.105.108-.128.206-.116a.045.045,0,0,0,.052-.036c.009-.148.086-.041.135-.037" transform="translate(-360.533 -160.924)" fill="#040406"/>
    <path id="Path_75" data-name="Path 75" d="M497.36,178.506l-.39-.424c.037,0,.071-.059.108.02.05.106.183.122.267.2s.082.127.015.2" transform="translate(-471.48 -168.928)" fill="#050607"/>
    <path id="Path_76" data-name="Path 76" d="M400.506,162.976l-.388.2s0-.01,0-.013c-.048-.076-.045-.067.067-.1.061-.018.172.032.173-.1l.144.014" transform="translate(-379.57 -154.604)" fill="#040406"/>
    <path id="Path_77" data-name="Path 77" d="M491.409,173.768l-.3-.255c.109-.011.177.093.279.1-.041.058.086.092.022.153" transform="translate(-465.919 -164.613)" fill="#050607"/>
    <path id="Path_78" data-name="Path 78" d="M395.425,167.025l-.275.173c-.037-.126.086-.094.134-.138a.168.168,0,0,1,.141-.035" transform="translate(-374.876 -158.456)" fill="#040406"/>
    <path id="Path_79" data-name="Path 79" d="M491.767,172.282c.062,0,.093-.015.122.007a.033.033,0,0,1-.009.023c-.041.033-.06,0-.114-.029" transform="translate(-466.544 -163.44)" fill="#050607"/>
    <path id="Path_80" data-name="Path 80" d="M391.267,168.183c-.008-.006-.024-.012-.027-.022-.008-.03.018-.025.034-.025s.032.008.033.014c0,.022-.016.029-.039.032" transform="translate(-371.171 -159.512)" fill="#040406"/>
    <path id="Path_81" data-name="Path 81" d="M235.719,381.733h0Z" transform="translate(-223.628 -362.153)"/>
    <path id="Path_82" data-name="Path 82" d="M228.688,291.12h0Z" transform="translate(-216.958 -276.187)"/>
    <path id="Path_83" data-name="Path 83" d="M125.294,356.634h0Z" transform="translate(-118.868 -338.342)"/>
    <path id="Path_84" data-name="Path 84" d="M239.029,280.859h0Z" transform="translate(-226.769 -266.454)"/>
    <path id="Path_85" data-name="Path 85" d="M203.18,409.274h0Z" transform="translate(-192.759 -388.281)"/>
    <path id="Path_86" data-name="Path 86" d="M47.562,268.464c0-.018-.007-.036-.011-.054a6.915,6.915,0,0,0-.633-1.727,4.442,4.442,0,0,0-.6-.9c-.055-.014-.06-.069-.089-.106l-.114-.114a.075.075,0,0,1-.053-.054l-.03-.029a.332.332,0,0,1-.109-.105l-.034-.033a.276.276,0,0,1-.188-.168l-.031-.028c-.041-.022-.065-.075-.122-.07a.143.143,0,0,0-.031.005c.012-.012.033,0,.043-.019a.025.025,0,0,0,0-.024h0c-.031-.034-.084-.039-.108-.083a7.38,7.38,0,0,0-.93-.76c-.108-.077-.115-.127-.037-.234a5.427,5.427,0,0,0,.847-1.676,2.934,2.934,0,0,0-.118-2.181,3.335,3.335,0,0,0-2.792-1.971,3.212,3.212,0,0,0-2.31.645c-.01.062-.068.065-.11.086-.026.037-.012.058.028.068.005,0,.017,0,.015,0-.125.1-.281.167-.327.343-.005.021-.038.023-.061.026a.45.45,0,0,0-.185.085c-.043.081.052.064.076.106a.4.4,0,0,0-.222.088c-.017.021-.036.042-.051.065a3.45,3.45,0,0,0,.223,4.027c.11,0,.113.094.143.164h0c.054.023.105.048.106.119l.025.024c.048.017.085-.059.136-.017-.052,0-.107-.01-.076.073.129.1-.035.091-.055.136a5.077,5.077,0,0,0-.476.376.437.437,0,0,1-.193.151c-.037,0-.029.042-.052.054-.046.062-.08.138-.174.14a.013.013,0,0,0-.01.009c0,.105-.094.078-.151.1l-.308.242c-.043.043-.068.108-.142.113a.236.236,0,0,1-.108.088c-.011.061-.07.061-.11.086-.118.089-.24.172-.352.268a.154.154,0,0,1-.2.022c-.324-.17-.621-.382-.933-.571-.047,0-.071-.053-.121-.058-.186-.015-.2-.03-.214-.2-.047-.033-.134.028-.152-.048-.014-.059-.058-.089-.079-.138a13.449,13.449,0,0,1-1.079-1.06c-.052-.015-.054-.073-.089-.1l-.057-.062c-.044-.057-.12-.089-.137-.169l-.06-.081a.38.38,0,0,1-.161-.227.483.483,0,0,0-.113-.163.537.537,0,0,1-.133-.2c-.111-.079-.133-.214-.2-.321l-.025-.035c-.049-.084-.135-.147-.139-.256-.018-.042-.034-.086-.055-.126a8.911,8.911,0,0,1-.712-1.8,1.776,1.776,0,0,1-.085-.385c.105.066.2.122.284.18a9.232,9.232,0,0,1,.832.6,1.471,1.471,0,0,0,.469.29.476.476,0,0,0,.556-.2c.025-.038.053-.074.079-.111a.081.081,0,0,0-.082-.061c.038-.011.069.03.1,0l.026-.086c.035-.088.017-.218-.035-.237-.1-.036-.123-.124-.191-.176a.41.41,0,0,1-.192-.279h0c-.1.068-.147,0-.2-.064-.035-.041-.052-.1-.111-.118a.247.247,0,0,1-.185-.215l-.028-.022c-.107-.012-.161-.1-.225-.166l-.092-.082c-.142,0-.142,0-.217-.124a.111.111,0,0,0-.039-.038,3.688,3.688,0,0,1-.344-.319c-.286-.234-.565-.478-.86-.7a.7.7,0,0,0-1.143.146l-.034.044q-.706.893-1.412,1.787c-.178.225-.359.448-.527.681a.494.494,0,0,0-.033.653c.289.334.531.334.826.094a1.181,1.181,0,0,0,.138-.137c.342-.39.665-.8.99-1.2.08-.1.161-.2.255-.313.013.05.021.075.027.1a10.837,10.837,0,0,0,1.172,3,8.191,8.191,0,0,0,.814,1.221c.047.043.085.094.131.138a.105.105,0,0,1,.014.056.085.085,0,0,0,.047.058c.1-.052.02.05.05.058,0,0,.007.016.014.023l.074.086c.045.008.047.051.065.081a8.547,8.547,0,0,0,1.191,1.2c.071.05.189.047.2.17l.166.135c.083-.009.095.073.142.11a8.645,8.645,0,0,0,1.29.862c.08.045.109.085.081.183-.081.28-.153.562-.218.846a3.15,3.15,0,0,0-.1.977.579.579,0,0,0,.48.554,3.1,3.1,0,0,0,.745.073q3.962,0,7.923,0a5.439,5.439,0,0,0,.928-.069c.648-.113.866-.41.769-1.054m-6.707-8.77a2.217,2.217,0,0,1,2.8.123,2.252,2.252,0,0,1,.6,2.533c-.008.021-.015.043-.022.065a.526.526,0,0,1-.115.223.091.091,0,0,1-.042.063l-.036.053a.505.505,0,0,1-.222.279c-.054.058-.083.143-.172.165l-.137.1a.756.756,0,0,1-.387.231,2.262,2.262,0,0,1-1.939-.031c-.116-.055-.222-.129-.333-.194-.044-.022-.1-.031-.114-.09l-.024-.021a.381.381,0,0,1-.2-.19l-.053-.058c-.033-.016-.032-.058-.058-.079a2.241,2.241,0,0,1,.463-3.178m5.286,8.68q-4.03-.006-8.06,0c-.112,0-.127-.029-.111-.132a3.524,3.524,0,0,1,.623-1.557l.135-.192a.457.457,0,0,1,.2-.222l-.007-.008.007.007a.605.605,0,0,1,.275-.254c.04-.1.145-.135.221-.2a5.015,5.015,0,0,1,.985-.585,4.154,4.154,0,0,1,2.936-.152,5.19,5.19,0,0,1,1.383.654.367.367,0,0,1,.221.179l.023.018c.1.014.148.107.207.172a1.555,1.555,0,0,1,.328.386l.02.027a.543.543,0,0,1,.145.2,4.226,4.226,0,0,1,.593,1.513c.021.121,0,.146-.124.145" transform="translate(-27.743 -244.458)"/>
    <path id="Path_87" data-name="Path 87" d="M218.031,425.21h0" transform="translate(-206.848 -403.401)"/>
    <path id="Path_88" data-name="Path 88" d="M218.028,425.215h0" transform="translate(-206.846 -403.406)"/>
    <path id="Path_89" data-name="Path 89" d="M336.425,417.788a7.456,7.456,0,0,0-.535-.557c.045-.009.014-.057.039-.076.023.062.122.018.135.1.008.05,0,.118.1.1.039-.008.1.061.077.11a.09.09,0,0,0,.069.122c.184-.011.083.136.119.2" transform="translate(-318.662 -395.759)" fill="#050607"/>
    <path id="Path_90" data-name="Path 90" d="M216.884,420l-.276.254c0-.057-.054-.079-.077-.111a.31.31,0,0,1,.353-.143" transform="translate(-205.425 -398.447)" fill="#050606"/>
    <path id="Path_91" data-name="Path 91" d="M313.294,357.008l.222-.279c.047.072.072.143-.04.174-.086.024-.022.077-.028.124-.053-.008-.1-.048-.154-.019" transform="translate(-297.225 -338.432)" fill="#060708"/>
    <path id="Path_92" data-name="Path 92" d="M299.737,367.659l.387-.231c-.017.07-.106.1-.1.189,0,.009-.015.02-.023.031-.093-.075-.176.061-.268.012" transform="translate(-284.363 -348.582)" fill="#060708"/>
    <path id="Path_93" data-name="Path 93" d="M213.961,424.777a1.253,1.253,0,0,1-.2.222c-.044-.048.029-.1-.015-.162-.024-.032.021-.013.044-.01.06.008.03-.032.023-.057a.148.148,0,0,1,.147.008" transform="translate(-202.777 -402.968)" fill="#050606"/>
    <path id="Path_94" data-name="Path 94" d="M331.344,414.213l-.221-.179c.131-.08.2-.042.206.113a.357.357,0,0,0,.016.066" transform="translate(-314.14 -392.759)" fill="#050607"/>
    <path id="Path_95" data-name="Path 95" d="M247.864,361.67a1.182,1.182,0,0,1,.2.189c-.118.061-.17-.043-.237-.1s.053-.048.034-.091" transform="translate(-235.104 -343.12)" fill="#08080a"/>
    <path id="Path_96" data-name="Path 96" d="M222.657,416.409a1.289,1.289,0,0,1-.221.2c-.084-.077-.064-.117.044-.136.061-.011.111-.062.177-.062" transform="translate(-210.977 -395.051)" fill="#050606"/>
    <path id="Path_97" data-name="Path 97" d="M309.944,362.336l.172-.165c0,.065-.091.115-.021.19-.064.025-.106-.009-.15-.025" transform="translate(-294.047 -343.595)" fill="#060708"/>
    <path id="Path_98" data-name="Path 98" d="M346.855,429.362l-.145-.2.081-.046c-.09.114.154.138.064.248" transform="translate(-328.927 -407.105)" fill="#050607"/>
    <path id="Path_99" data-name="Path 99" d="M319.12,350.33a.962.962,0,0,1,.116-.224c.07.131-.043.167-.116.224" transform="translate(-302.752 -332.149)" fill="#060708"/>
    <path id="Path_100" data-name="Path 100" d="M253.007,365.778a.291.291,0,0,1,.114.09c-.053-.011-.159.045-.114-.09" transform="translate(-240.02 -347.017)" fill="#08080a"/>
    <path id="Path_101" data-name="Path 101" d="M318.318,354.518l.042-.064c-.007.039.061.06.035.092s-.049-.021-.077-.028" transform="translate(-301.991 -336.274)" fill="#060708"/>
    <path id="Path_102" data-name="Path 102" d="M213.214,424.156c-.033-.008-.074.015-.107-.041a.073.073,0,0,1,.107.041" transform="translate(-202.177 -402.354)" fill="#050606"/>
    <path id="Path_103" data-name="Path 103" d="M246.592,359.006a.083.083,0,0,1,.058.079c-.1.03-.044-.049-.058-.079" transform="translate(-233.943 -340.592)" fill="#08080a"/>
  </g>
</svg>
