<svg xmlns="http://www.w3.org/2000/svg" width="21.465" height="20.243" viewBox="0 0 21.465 20.243">
  <path id="Icon_ionic-md-arrow-round-forward" data-name="Icon ionic-md-arrow-round-forward" d="M18.12,26l8.421-8.171a1.857,1.857,0,0,0,.549-1.366v-.024a1.857,1.857,0,0,0-.549-1.366L18.12,6.9a1.8,1.8,0,0,0-2.634,0,2.017,2.017,0,0,0,0,2.756L20.547,14.5H7.5a1.953,1.953,0,0,0-.006,3.9h13.05L15.48,23.245a2.017,2.017,0,0,0,0,2.756A1.81,1.81,0,0,0,18.12,26Z" transform="translate(-5.625 -6.33)" fill="#757d86"/>
</svg>
