<svg xmlns="http://www.w3.org/2000/svg" width="27.391" height="30.754" viewBox="0 0 27.391 30.754">
  <g id="Custom_Approval" data-name="Custom Approval" transform="translate(-28)">
    <path id="Path_573" data-name="Path 573" d="M59.79,46.395A13.395,13.395,0,1,1,46.395,33,13.395,13.395,0,0,1,59.79,46.395Z" transform="translate(-4.7 -31.018)" fill="#88e288"/>
    <path id="Path_574" data-name="Path 574" d="M77.387,65.194A12.194,12.194,0,1,1,65.194,53,12.194,12.194,0,0,1,77.387,65.194Z" transform="translate(-23.498 -49.816)" fill="#6dcc6d"/>
    <path id="Path_575" data-name="Path 575" d="M130.354,121.777a8.578,8.578,0,1,1-8.578-8.578A8.578,8.578,0,0,1,130.354,121.777Z" transform="translate(-80.081 -106.4)" fill="#e9e9ea"/>
    <path id="Path_576" data-name="Path 576" d="M172.763,207.3l-3.063-3.063a1.2,1.2,0,1,1,1.694-1.694l2.21,2.211,4.253-4.253a1.2,1.2,0,0,1,1.694,1.694l-5.094,5.094A1.186,1.186,0,0,1,172.763,207.3Z" transform="translate(-132.858 -188.127)" fill="#6dcc6d"/>
    <path id="Path_577" data-name="Path 577" d="M383.186,1.081A1.333,1.333,0,0,1,382.129.024.026.026,0,0,0,382.105,0c-.012,0-.012.012-.024.024a1.333,1.333,0,0,1-1.057,1.057.026.026,0,0,0-.024.024c0,.012.012.012.024.024a1.333,1.333,0,0,1,1.057,1.057.026.026,0,0,0,.024.024c.012,0,.012-.012.024-.024a1.333,1.333,0,0,1,1.057-1.057c.012,0,.024-.012.012-.024S383.186,1.081,383.186,1.081Z" transform="translate(-331.796)" fill="#60bae2"/>
    <path id="Path_578" data-name="Path 578" d="M42.744,446H41.7a.3.3,0,1,1,0-.6h1.045a.3.3,0,0,1,.3.3A.305.305,0,0,1,42.744,446Z" transform="translate(-12.593 -418.644)" fill="#6dcc6d"/>
    <path id="Path_579" data-name="Path 579" d="M50.3,438.248a.3.3,0,0,1-.3-.3V436.9a.3.3,0,0,1,.6,0v1.045A.3.3,0,0,1,50.3,438.248Z" transform="translate(-20.679 -410.377)" fill="#6dcc6d"/>
    <path id="Path_580" data-name="Path 580" d="M108.6,502.594a.347.347,0,0,1-.216-.084.168.168,0,0,1-.036-.048.092.092,0,0,1-.024-.048.106.106,0,0,1-.012-.06c0-.024-.012-.036,0-.06v-.06c0-.024.012-.036.012-.06s.012-.036.024-.048.024-.036.036-.048a.3.3,0,0,1,.324-.06c.012.012.036.012.048.024s.036.024.048.036a.17.17,0,0,1,.036.048.092.092,0,0,1,.024.048.09.09,0,0,1,.012.06v.12c0,.024-.012.036-.012.06s-.012.036-.024.048-.024.036-.036.048a.174.174,0,0,1-.048.036.092.092,0,0,1-.048.024.109.109,0,0,1-.06.012C108.639,502.594,108.627,502.594,108.6,502.594Z" transform="translate(-75.486 -471.839)" fill="#fcd770"/>
    <path id="Path_581" data-name="Path 581" d="M439.5,53.742h-.06c-.024,0-.036-.012-.06-.012s-.036-.012-.048-.024-.036-.024-.048-.036a.29.29,0,0,1-.084-.216.109.109,0,0,1,.012-.06c0-.024.012-.036.012-.06s.012-.036.024-.048.024-.036.036-.048a.161.161,0,0,1,.048-.036.093.093,0,0,1,.048-.024.254.254,0,0,1,.228,0c.024.012.036.012.048.024a.281.281,0,0,1,.084.084.093.093,0,0,1,.024.048.109.109,0,0,1,.012.06c0,.024.012.036.012.06a.347.347,0,0,1-.084.216.171.171,0,0,1-.048.036.09.09,0,0,1-.048.024.109.109,0,0,1-.06.012Z" transform="translate(-386.5 -49.958)" fill="#f75c64"/>
    <g id="Group_354" data-name="Group 354" transform="translate(28 1.682)">
      <path id="Path_582" data-name="Path 582" d="M41.7,55.39a13.7,13.7,0,1,1,13.7-13.7A13.689,13.689,0,0,1,41.7,55.39Zm0-26.79A13.095,13.095,0,1,0,54.79,41.7,13.095,13.095,0,0,0,41.7,28.6Z" transform="translate(-28 -28)" fill="#231f20"/>
      <path id="Path_583" data-name="Path 583" d="M60.494,72.988A12.494,12.494,0,1,1,72.988,60.494,12.5,12.5,0,0,1,60.494,72.988Zm0-24.387A11.893,11.893,0,1,0,72.387,60.494,11.89,11.89,0,0,0,60.494,48.6Z" transform="translate(-46.799 -46.799)" fill="#231f20"/>
      <path id="Path_584" data-name="Path 584" d="M117.077,125.955a8.878,8.878,0,1,1,8.878-8.878A8.88,8.88,0,0,1,117.077,125.955Zm0-17.155a8.277,8.277,0,1,0,8.277,8.277A8.285,8.285,0,0,0,117.077,108.8Z" transform="translate(-103.382 -103.382)" fill="#231f20"/>
      <path id="Path_585" data-name="Path 585" d="M168.989,202.943a1.462,1.462,0,0,1-1.057-.444l-3.063-3.063a1.5,1.5,0,0,1,2.114-2.139l.012.012,1.994,1.994,4.037-4.036a1.5,1.5,0,0,1,2.138,2.114l-.012.012-5.106,5.118A1.5,1.5,0,0,1,168.989,202.943Zm-3.063-5.454a.9.9,0,0,0-.637,1.538l3.063,3.063a.906.906,0,0,0,1.273,0L174.719,197a.9.9,0,0,0-1.273-1.273l-4.253,4.253a.29.29,0,0,1-.42,0l-2.211-2.222A.9.9,0,0,0,165.925,197.489Z" transform="translate(-156.231 -184.803)" fill="#231f20"/>
    </g>
  </g>
</svg>
