<svg id="_x33_0" enable-background="new 0 0 64 64" viewBox="0 0 64 64"
     xmlns="http://www.w3.org/2000/svg">
    <g>
        <g>
            <g>
                <path d="m2 10h44v52h-44z" fill="#f0d0b4"/>
            </g>
            <g>
                <path d="m8 6h32v24h-32z" fill="#e6e9ed"/>
            </g>
            <g>
                <path d="m31 7.66c0 1.5-.6 2.94-1.66 4l-.34.34v-1.36c0-.95-.67-1.77-1.61-1.96l-1.43-.29c-1.14-.23-1.96-1.23-1.96-2.39 0 1.16-.82 2.16-1.96 2.39l-1.43.29c-.94.19-1.61 1.01-1.61 1.96v1.36l-.34-.34c-1.06-1.06-1.66-2.5-1.66-4 0-.58.09-1.14.24-1.66h.01c.71-2.32 2.86-4 5.41-4h2.68c1.56 0 2.98.63 4 1.66.65.64 1.14 1.44 1.41 2.34h.01c.15.52.24 1.08.24 1.66z"
                      fill="#656d78"/>
            </g>
            <g>
                <path d="m23 25-1 5h-8v-5.66c0-2.47 1.8-4.57 4.24-4.94l2.76 4.6 1-1z" fill="#4fc1e9"/>
            </g>
            <g>
                <path d="m26 23 1 1 2.76-4.6c2.44.37 4.24 2.47 4.24 4.94v5.66h-8l-1-5z" fill="#4fc1e9"/>
            </g>
            <g>
                <path d="m25 25 1 5h-4l1-5z" fill="#fcd770"/>
            </g>
            <g>
                <path d="m26 23-1 2h-2l-1-2 2-2z" fill="#ffc729"/>
            </g>
            <g>
                <path d="m29.76 19.4-2.76 4.6-1-1-2-2 3-2 2.71.39c.02 0 .03 0 .05.01z" fill="#3bafda"/>
            </g>
            <g>
                <path d="m21 24-2.76-4.6c.02-.01.03-.01.05-.01l2.71-.39 3 2-2 2z" fill="#3bafda"/>
            </g>
            <g>
                <path d="m24 17c.78 0 1.52-.18 2.17-.49l.83 2.49-3 2-3-2 .83-2.49z" fill="#f0d0b4"/>
            </g>
            <g>
                <path d="m29 12c0 1.98-1.15 3.7-2.83 4.51-.65.31-1.39.49-2.17.49l-2.17-.49-1.37-.97c-.9-.91-1.46-2.16-1.46-3.54v-1.36c0-.95.67-1.77 1.61-1.96l1.43-.29c1.14-.23 1.96-1.23 1.96-2.39 0 1.16.82 2.16 1.96 2.39l1.43.29c.94.19 1.61 1.01 1.61 1.96z"
                      fill="#f0d0b4"/>
            </g>
            <g>
                <path d="m8 42h4v4h-4z" fill="#b4dd7f"/>
            </g>
            <g>
                <path d="m8 50h4v4h-4z" fill="#b4dd7f"/>
            </g>
            <g>
                <path d="m24 50h4v4h-4z" fill="#b4dd7f"/>
            </g>
            <g>
                <path d="m24 42h4v4h-4z" fill="#b4dd7f"/>
            </g>
            <g>
                <path d="m54.19 46.27c1.14 1.62 1.81 3.6 1.81 5.73 0 5.52-4.48 10-10 10-4.83 0-8.87-3.44-9.8-8-.13-.64-.2-1.31-.2-2s.07-1.36.2-2c.3-1.48.93-2.84 1.8-4 1.83-2.43 4.73-4 8-4 3.39 0 6.38 1.69 8.19 4.27z"
                      fill="#ff826e"/>
            </g>
        </g>
        <g>
            <path d="m7 33h6v2h-6z"/>
            <path d="m15 33h26v2h-26z"/>
            <path d="m7 37h34v2h-34z"/>
            <path d="m62.765 37.644-1.53-1.288-7.028 8.345c-1.807-2.03-4.347-3.391-7.207-3.65v-32.051h-6v-4h-9.557c-1.028-2.351-3.374-4-6.1-4h-2.687c-2.726 0-5.072 1.649-6.1 4h-9.556v4h-6v54h45c6.065 0 11-4.935 11-11 0-2.063-.582-3.989-1.574-5.641zm-32.715-25.28c1.258-1.258 1.95-2.929 1.95-4.707 0-.222-.012-.441-.033-.657h7.033v22h-4v-4.664c0-2.966-2.215-5.52-5.151-5.939l-2.095-.299-.38-1.14c1.47-1.004 2.468-2.645 2.605-4.521zm-5.668 11.636h-.764l-.401-.803.783-.783.783.783zm2.419-1.613-1.232-1.232 1.668-1.112.894.128zm-2.801-6.387c-2.206-.001-4-1.796-4-4.002v-1.358c0-.475.338-.888.804-.981l1.431-.286c.689-.138 1.296-.478 1.765-.952.469.474 1.076.814 1.765.952l1.431.286c.466.093.804.506.804.981v1.358c0 2.206-1.794 4.001-4 4.002zm-.002 2h.004c.533 0 1.048-.077 1.541-.209l.267.801-1.81 1.206-1.81-1.207.267-.801c.493.133 1.008.21 1.541.21zm-3.235 2.044 1.668 1.112-1.232 1.232-1.329-2.216zm-3.006.494 3.044 5.075.925-.925.226.452-.772 3.86h-6.18v-4.664c0-1.741 1.146-3.267 2.757-3.798zm6.063 5.462h.36l.6 3h-1.56zm3 3-.772-3.86.226-.452.925.925 3.044-5.075c1.611.531 2.757 2.057 2.757 3.798v4.664zm-4.163-26h2.687c2.567 0 4.656 2.089 4.656 4.657 0 .58-.115 1.141-.317 1.667-.402-.816-1.158-1.439-2.095-1.626l-1.431-.286c-.67-.135-1.157-.728-1.157-1.412v-1h-2v1c0 .684-.487 1.277-1.157 1.412l-1.431.286c-.937.187-1.692.81-2.095 1.626-.202-.526-.317-1.087-.317-1.667 0-2.568 2.089-4.657 4.657-4.657zm-13.657 4h7.033c-.021.216-.033.435-.033.657 0 1.778.692 3.45 1.95 4.707l.072.072c.137 1.877 1.134 3.517 2.605 4.521l-.38 1.14-2.095.299c-2.937.42-5.152 2.974-5.152 5.94v4.664h-4zm-6 54v-50h4v20h34v-20h4v30.051c-1.43.13-2.779.537-4 1.164v-1.215h-10v2h8.695c-.81.569-1.544 1.239-2.174 2h-6.521v2h5.214c-.325.634-.59 1.302-.788 2h-4.426v2h4.051c-.03.33-.051.662-.051 1s.021.67.051 1h-4.051v2h4.426c.699 2.458 2.228 4.566 4.269 6zm52-9c0 4.962-4.038 9-9 9s-9-4.038-9-9 4.038-9 9-9c2.774 0 5.257 1.263 6.909 3.243l-6.972 8.28-4.23-4.229-1.414 1.414 5.77 5.771 7.985-9.482c.604 1.206.952 2.563.952 4.003z"/>
            <path d="m7 47h6v-6h-6zm2-4h2v2h-2z"/>
            <path d="m15 41h6v2h-6z"/>
            <path d="m15 45h6v2h-6z"/>
            <path d="m7 55h6v-6h-6zm2-4h2v2h-2z"/>
            <path d="m15 49h6v2h-6z"/>
            <path d="m15 53h6v2h-6z"/>
            <path d="m23 47h6v-6h-6zm2-4h2v2h-2z"/>
            <path d="m23 55h6v-6h-6zm2-4h2v2h-2z"/>
            <path d="m7 57h6v2h-6z"/>
            <path d="m15 57h14v2h-14z"/>
        </g>
    </g>
</svg>