<svg id="Layer_1" enable-background="new 0 0 24 24" height="24" viewBox="0 0 24 24" width="24"
     xmlns="http://www.w3.org/2000/svg">
    <path d="m354.1279907 10.0710001v74.9820023c0 6.6029968 5.4110107 11.9869995 12.0130005 11.9869995h62.9550171z"
          fill="#ccf5fc"/>
    <path d="m317.946991 287.6669922c-7.1679993 7.1409912-15.1860046 13.4320068-23.9129944 18.6749878l52.9819946 53.019989 42.6119995-42.6199951-53.0100098-52.9920044c-5.2409667 8.7280273-11.5309753 16.7480163-18.6709899 23.9170227z"
          fill="#8aa8bd"/>
    <path d="m228.7559967 124.8389969c-27.4830017 0-49.7519989 22.2739944-49.7519989 49.7610092 0 27.4589996 22.2689972 49.7330017 49.7519989 49.7330017 27.4539948 0 49.7239838-22.272995 49.7239838-49.7330017.0000305-27.4880066-22.268982-49.7610092-49.7239838-49.7610092z"
          fill="#dc72a9"/>
    <path d="m228.7559967 224.3329926c-27.4830017 0-49.7519989-22.272995-49.7519989-49.7330017 0-27.4880066 22.2689972-49.7610016 49.7519989-49.7610016 27.4539948 0 49.7239838 22.2740021 49.7239838 49.7610016.0000305 27.4590148-22.268982 49.7330017-49.7239838 49.7330017zm1.5590057-148.2919922c-68.4509888 0-123.9550018 55.4850006-123.9550018 123.9489899 0 33.0700073 12.947998 63.0800171 34.0269928 85.3250122 13.5149994-35.6490021 47.9949951-60.9830017 88.3690033-60.9830017 41.2519989 0 76.298996 26.4669952 89.1909943 63.3349915 7.1400146-7.1690063 13.4299927-15.1889954 18.67099-23.9169922 11.1910095-18.6459961 17.6229858-40.4380035 17.6229858-63.7599945.0000305-68.4640046-55.5029602-123.9490052-123.9259644-123.9490052z"
          fill="#ccf5fc"/>
    <path d="m434.677002 447.0390015c29.6640015 29.6409912 69.4150085-15.8120117 42.6119995-42.6199951l-48.1940002-48.1740112-39.4670105-39.5029907-42.6119995 42.6199951 82.07901 82.0939941z"
          fill="#00ccf2"/>
    <path d="m287.743988 368.9859924h-114.8879852c-5.5610046 0-10.0690002 4.5090027-10.0690002 10.0710144s4.5079956 10.0710144 10.0690002 10.0710144h114.8880157c5.5610046 0 10.0690002-4.5090027 10.0690002-10.0710144.0009767-5.5620117-4.508026-10.0710144-10.0690307-10.0710144z"/>
    <path d="m119.1269989 430.6879883c0 5.5620117 4.5080032 10.0710144 10.0690002 10.0710144h56.2120056c5.5610046 0 10.0690002-4.5090027 10.0690002-10.0710144s-4.5079956-10.0710144-10.0690002-10.0710144h-56.2120056c-5.560997.0000305-10.0690002 4.5090332-10.0690002 10.0710144z"/>
    <path d="m265.1239929 430.6879883c0 5.5620117 4.5090027 10.0710144 10.0690002 10.0710144h56.2120056c5.5610046 0 10.0690002-4.5090027 10.0690002-10.0710144s-4.5090027-10.0710144-10.0690002-10.0710144h-56.2120056c-5.5599975.0000305-10.0690002 4.5090332-10.0690002 10.0710144z"/>
    <path d="m230.201004 420.6170044c-5.5610046 0-10.0690002 4.5090027-10.0690002 10.0710144s4.5079956 10.0710144 10.0690002 10.0710144h.197998c5.5610046 0 10.0690002-4.5090027 10.0690002-10.0710144s-4.5079956-10.0710144-10.0690002-10.0710144z"/>
    <path d="m25.8110008 166.5350037c5.5610008 0 10.0690002-4.5090027 10.0690002-10.0709991v-.1990051c0-5.5619965-4.5079994-10.0709991-10.0690002-10.0709991s-10.0690002 4.5090027-10.0690002 10.0709991v.1990051c-.000001 5.5619964 4.5079994 10.0709991 10.0690002 10.0709991z"/>
    <path d="m228.7559967 224.3329926c-40.3740082 0-74.8539886 25.3339996-88.3690033 60.9829865 22.5809937 23.8040161 54.5119934 38.6530151 89.927002 38.6530151 23.2890015 0 45.105011-6.4330139 63.7200012-17.6260071 8.7260132-5.2420044 16.743988-11.5329895 23.9129944-18.6749878-12.8909912-36.8679962-47.9379883-63.3350067-89.1909943-63.3350067z"
          fill="#dc72a9"/>
    <path d="m484.4089966 397.2969971-45.243988-45.2430115v-255.0149841c0-.3219986-.0180054-.6419983-.0490112-.9609985-.0130005-.1340027-.0360107-.2649994-.053009-.3970032-.0239868-.1790009-.0480042-.3570023-.0809937-.5339966-.0310059-.1600037-.0700073-.3170013-.1080017-.473999-.0350037-.1439972-.0700073-.288002-.1109924-.4300003-.0480042-.1660004-.1019897-.3290024-.1589966-.4919968-.0450134-.1299973-.0920105-.2600021-.1419983-.3889999-.0629883-.1610031-.1300049-.3199997-.2019958-.4769974-.0580139-.1279984-.1199951-.2549973-.1830139-.3809967-.0750122-.1480026-.1520081-.2959976-.2340088-.4400024-.0750122-.1320038-.1549988-.2600021-.2359924-.3889999-.0830078-.1309967-.1640015-.262001-.2529907-.3889999-.0960083-.137001-.197998-.2699966-.3009949-.4029999-.0859985-.1110001-.1700134-.2229996-.2600098-.3310013-.0249939-.0299988-.04599-.060997-.0710144-.0910034l-74.9679872-86.9660064c-.0639954-.0739999-.1369934-.1389999-.2030029-.211-.1440125-.1570001-.2890015-.313-.4429932-.461-.1029968-.099-.2090149-.1930001-.3160095-.2869999-.1530151-.135-.3080139-.267-.4689941-.3929999-.1099854-.086-.2219849-.169-.3349915-.2509999-.1719971-.123-.3479919-.24-.5270081-.3529999-.1090088-.068-.2179871-.136-.32901-.2-.197998-.113-.401001-.2179999-.6069946-.318-.1019897-.049-.2009888-.101-.3039856-.147-.2269897-.101-.4590149-.19-.6940002-.274-.0910034-.033-.1789856-.069-.269989-.099-.2520142-.082-.5100098-.15-.769989-.213-.0809937-.02-.1610107-.045-.2420044-.062-.2730103-.059-.552002-.101-.8330078-.136-.071991-.009-.1430054-.025-.2149963-.033-.3520204-.0360003-.7080079-.0570003-1.0690309-.0570003h-293.3549919c-24.829998 0-45.0309982 20.2169991-45.0309982 45.0680008v66.3099976c0 5.5619965 4.5079994 10.0709991 10.0690002 10.0709991s10.0690002-4.5090027 10.0690002-10.0709991v-66.3099976c0-13.7449989 11.1669998-24.9260006 24.8930016-24.9260006h283.2860184v64.9110031c0 12.163002 9.9060059 22.0579987 22.0820007 22.0579987h52.8850098v224.8049927l-22.118988-22.118988c-.0549927-.0580139-.1029968-.1199951-.1589966-.1759949-.0570068-.0570068-.118988-.105011-.177002-.1600037l-47.4790039-47.4779968c9.7139893-18.5509949 15.2189941-39.6390076 15.2189941-61.9920044 0-73.8990021-60.1099854-134.0200043-133.9960022-134.0200043-73.901001 0-134.022995 60.1210022-134.022995 134.0200043 0 35.272995 13.6989975 67.401001 36.0460052 91.3600159.4600067.6149902.9920044 1.178009 1.5910034 1.6799927 24.3890076 25.2669983 58.5820007 41.0090027 96.3869934 41.0090027 22.3399963 0 43.4150085-5.5050049 61.9550171-15.2179871l47.4620056 47.480011c.0570068.0599976.1059875.1239929.1650085.1820068.0580139.0580139.1220093.1069946.1809998.1640015l78.947998 78.9790039v21.3059998c0 13.7449951-11.1669922 24.9259949-24.8930054 24.9259949h-333.3610647c-13.7260017 0-24.8930016-11.1820068-24.8930016-24.9259949v-265.7800542c0-5.5619965-4.5079994-10.0709991-10.0690002-10.0709991s-10.0690002 4.5090027-10.0690002 10.0709991v265.7789917c0 24.8510284 20.2010002 45.0680084 45.0309982 45.0680084h333.3609619c24.8299866 0 45.0310059-20.2170105 45.0310059-45.0679932v-4.1740112c5.5180054 2.8280029 11.1159973 4.0849915 16.5249939 4.0849915 10.7090149-.0010071 20.677002-4.881012 27.8039856-12.0140076 14.1610565-14.1699829 19.2940521-39.1489868.9150543-57.5319824zm-120.2109986-312.2439957v-47.8780022l42.9219971 49.7939949h-40.9779968c-1.0539856.0000077-1.9440003-.8779907-1.9440003-1.9159927zm-133.8829956 1.0589981c62.7810059 0 113.8569946 51.0859985 113.8569946 113.8779907 0 20.8079987-5.6109924 40.3289948-15.3909912 57.1340027-.7109985.8420105-1.2650146 1.7709961-1.6560059 2.7510071-1.9819946 3.1940002-4.1170044 6.2839966-6.394989 9.2579956-11.9710083-22.1439972-31.4840088-39.0419922-54.57901-47.9179993 13.6430054-10.9700012 22.3989868-27.7850037 22.3989868-46.6159973 0-32.9909973-26.822998-59.8320007-59.7929993-59.8320007-32.9850006 0-59.8209991 26.8399963-59.8209991 59.8320007 0 18.8110046 8.7409973 35.6119995 22.3670044 46.5830078-7.9329987 3.0460052-15.5149994 7.0610046-22.5910034 12.0319977-12.6609955 8.8959961-23.048996 20.3119965-30.628006 33.5149994-13.6139984-18.7689972-21.6549988-41.8309937-21.6549988-66.7399902.0000154-62.7910157 51.0890199-113.8770142 113.8860169-113.8770142zm-41.2420044 88.4880066c0-21.8849945 17.802002-39.6900024 39.6829987-39.6900024 21.8659973 0 39.655014 17.8049927 39.655014 39.6900024 0 21.8699951-17.7879944 39.6620026-39.6549988 39.6620026-21.8810119-.0000153-39.6830139-17.7930146-39.6830139-39.6620026zm-36.7400054 108.3229981c13.7890015-29.2680054 43.7249908-48.5200043 76.4229889-48.5200043 33.651001 0 63.9440002 20.0650024 77.3070068 50.548996-4.9299927 4.4039917-10.2449951 8.3859863-15.8859863 11.8890076-.9920044.3940125-1.9320068.9549866-2.7829895 1.6759949-16.7919922 9.7739868-36.2929993 15.3800049-57.0800018 15.3800049-30.1450044-.0000001-57.5880128-11.7799989-77.9810181-30.9739991zm171.7559967 12.7189941c.6919861-.5329895 1.3039856-1.1480103 1.8269958-1.8269958 4.3919983-4.4779968 8.473999-9.2600098 12.2090149-14.3150024l37.2529907 37.2520142-28.3529968 28.3590088-37.243988-37.2590027c5.053009-3.7360231 9.8330078-7.8180238 14.3079834-12.2100221zm145.1620178 144.946991c-6.4679871 6.4729919-17.0780029 9.6950073-27.45401-.67099l-80.5339966-80.5650024 28.3559875-28.3609924 32.1700134 32.1699829c.1270142.1329956.256012.2630005.3900146.3900146l47.9899902 47.9890137c10.3150026 10.316986 5.102997 23.0239867-.9179991 29.0479736z"/>
</svg>