<svg height="512pt" viewBox="0 0 512 512" width="512pt" xmlns="http://www.w3.org/2000/svg"><path d="m512 55c0-30.328125-24.671875-55-54.992188-55h-402.015624c-30.320313 0-54.992188 24.671875-54.992188 55v391.515625h512zm0 0" fill="#b6d2e0"/><path d="m512 55v391.511719h-256v-446.511719h201.011719c30.316406 0 54.988281 24.671875 54.988281 55zm0 0" fill="#aac3ce"/><path d="m482 55c0-13.785156-11.210938-25-24.992188-25h-402.015624c-13.78125 0-24.992188 11.214844-24.992188 25v391.515625h452zm0 0" fill="#d6f3fe"/><path d="m482 55v391.511719h-226v-416.511719h201.011719c13.777343 0 24.988281 11.210938 24.988281 25zm0 0" fill="#bdecfc"/><path d="m512 55c0-30.328125-24.671875-55-54.992188-55h-402.015624c-30.320313 0-54.992188 24.671875-54.992188 55v81h512zm0 0" fill="#b6d2e0"/><path d="m512 55v81h-256v-136h201.011719c30.316406 0 54.988281 24.671875 54.988281 55zm0 0" fill="#aac3ce"/><g fill="#bdecfc"><path d="m450.976562 76c0 8.285156-6.714843 15-15 15-8.285156 0-15-6.714844-15-15s6.714844-15 15-15c8.285157 0 15 6.714844 15 15zm0 0"/><path d="m390.984375 76c0 8.285156-6.714844 15-15 15s-15-6.714844-15-15 6.714844-15 15-15 15 6.714844 15 15zm0 0"/><path d="m330.992188 76c0 8.285156-6.714844 15-15 15-8.285157 0-15-6.714844-15-15s6.714843-15 15-15c8.285156 0 15 6.714844 15 15zm0 0"/></g><path d="m90 362c-24.8125 0-45-20.1875-45-45s20.1875-45 45-45 45 20.1875 45 45-20.1875 45-45 45zm0 0" fill="#eebb2c"/><path d="m256 316c-28.949219 0-52.5-23.550781-52.5-52.5s23.550781-52.5 52.5-52.5 52.5 23.550781 52.5 52.5-23.550781 52.5-52.5 52.5zm0 0" fill="#dd5c60"/><path d="m256 211v105c28.949219 0 52.5-23.550781 52.5-52.5s-23.550781-52.5-52.5-52.5zm0 0" fill="#d8333c"/><path d="m165 512h-150c-8.285156 0-15-6.714844-15-15v-78c0-30.878906 25.121094-56 56-56h68c30.878906 0 56 25.121094 56 56v78c0 8.285156-6.714844 15-15 15zm0 0" fill="#eebb2c"/><path d="m422 362c-24.8125 0-45-20.1875-45-45s20.1875-45 45-45 45 20.1875 45 45-20.1875 45-45 45zm0 0" fill="#e79b34"/><path d="m497 512h-150c-8.285156 0-15-6.714844-15-15v-78c0-30.878906 25.121094-56 56-56h68c30.878906 0 56 25.121094 56 56v78c0 8.285156-6.714844 15-15 15zm0 0" fill="#e79b34"/><path d="m361 512h-210v-139c0-30.929688 25.070312-56 56-56h98c30.929688 0 56 25.070312 56 56zm0 0" fill="#dd5c60"/><path d="m305 317h-49v195h105v-139c0-30.929688-25.070312-56-56-56zm0 0" fill="#d8333c"/></svg>