<svg xmlns="http://www.w3.org/2000/svg" viewBox="0 0 25.02 20.02">
    <defs>
        <style>.cls-1{fill:#4768a0;}.cls-2{fill:#4975c0;}.cls-3{fill:none;stroke:#000;stroke-width:1.02px;}</style>
    </defs>
    <title>ic_documents</title>
    <g id="Layer_2" data-name="Layer 2">
        <g id="Layer_1-2" data-name="Layer 1">
            <g id="open-folder">
                <g id="Group_1175" data-name="Group 1175">
                    <path id="Path_520" data-name="Path 520" class="cls-1"
                          d="M6.91,9.31a5.94,5.94,0,0,1,2.49-.6h10.5v-2a2.84,2.84,0,0,0-2.82-2.83H10.2V3.46a2.72,2.72,0,0,0-.83-2,2.72,2.72,0,0,0-2-.83h-4a2.72,2.72,0,0,0-2,.83,2.72,2.72,0,0,0-.83,2V15.58s0,.09,0,.16,0,.12,0,.16l.06-.08,4.25-5A5.89,5.89,0,0,1,6.91,9.31Z"/>
                    <path id="Path_521" data-name="Path 521" class="cls-2"
                          d="M23.89,11.49a1.71,1.71,0,0,0-.76-.16H9.39a4.38,4.38,0,0,0-1.81.45,4.28,4.28,0,0,0-1.52,1.09l-4.24,5a1.3,1.3,0,0,0-.39.83.56.56,0,0,0,.33.54,1.71,1.71,0,0,0,.76.16H16.26A4.38,4.38,0,0,0,18.07,19a4.28,4.28,0,0,0,1.52-1.09l4.24-5a1.3,1.3,0,0,0,.39-.83A.56.56,0,0,0,23.89,11.49Z"/>
                </g>
                <path id="Path_722" data-name="Path 722" class="cls-3"
                      d="M2.26,19.47s13.68.21,15.26-.25,6.53-6.4,6.94-7.09S23,11.29,23,11.29c-4.17.06-13.79-.43-15.56.49s-5.25,5.42-6,6.55.77,1.14.77,1.14Z"/>
                <path id="Path_723" data-name="Path 723" class="cls-3"
                      d="M.51,15.81s0-9.25,0-13A2.56,2.56,0,0,1,2.77.69C4.87.32,8.24.57,8.93,1s1.22,1.37,1.08,3c0,0,6.3-.18,7.29,0s2.51,1.19,2.54,2.23,0,2.41,0,2.41-9-.23-11.78.15S.51,15.81.51,15.81Z"/>
            </g>
        </g>
    </g>
</svg>