<svg xmlns="http://www.w3.org/2000/svg" viewBox="0 0 24 28.76"><defs><style>.cls-1{fill:#ddf5ff;}.cls-2{fill:#ff6969;}.cls-3{fill:#ea4747;}.cls-4{fill:#636363;}.cls-5{fill:#494949;}.cls-6{fill:#f9b3a7;}.cls-7{fill:#ffd664;}.cls-8{fill:#feccc1;}.cls-9{fill:#c1e9f4;}</style></defs><title>ic_e_learning</title><g id="Layer_2" data-name="Layer 2"><g id="Layer_1-2" data-name="Layer 1"><g id="student"><path id="Path_660" data-name="Path 660" class="cls-1" d="M8.6,19,3.75,20.32A4.54,4.54,0,0,0,.42,24.7v3.64H23.57V24.7a4.54,4.54,0,0,0-3.33-4.37L15.41,19Z"/><path id="Path_661" data-name="Path 661" class="cls-2" d="M13.08,23.07l.68,3.4L12,28.34l-1.76-1.87.68-3.4Z"/><path id="Path_662" data-name="Path 662" class="cls-3" d="M13.76,26.47l-.68-3.4H12l.86,4.35Z"/><path id="Path_663" data-name="Path 663" class="cls-4" d="M20.25,20.33,17,19.44l-1.7,5.39L12,28.34H23.58V24.7a4.54,4.54,0,0,0-3.33-4.37Z"/><path id="Path_664" data-name="Path 664" class="cls-5" d="M20.25,20.33l-.37-.1a4.54,4.54,0,0,1,1.59,3.46v4.67h2.1V24.7a4.54,4.54,0,0,0-3.32-4.38Z"/><path id="Path_665" data-name="Path 665" class="cls-4" d="M3.75,20.33,7,19.44l1.7,5.39L12,28.34H.43V24.7a4.54,4.54,0,0,1,3.33-4.37Z"/><path id="Path_666" data-name="Path 666" class="cls-6" d="M14,17.56l-2,2-2-2V14.33H14Z"/><path id="Path_667" data-name="Path 667" class="cls-7" d="M17.33,6.27h1.48V8.54H17.33Z"/><path id="Path_668" data-name="Path 668" class="cls-4" d="M18.81,6.27V.43H5.19V6.27Z"/><path id="Path_669" data-name="Path 669" class="cls-5" d="M17.74.43V4A1.13,1.13,0,0,1,16.6,5.14H5.19V6.27H18.81V.43Z"/><path id="Path_670" data-name="Path 670" class="cls-7" d="M5.19,6.27H6.66V8.54H5.19Z"/><path id="Path_671" data-name="Path 671" class="cls-8" d="M12,6.27H6.67v4.09a5.33,5.33,0,1,0,10.67,0V6.27Z"/><path id="Path_672" data-name="Path 672" class="cls-6" d="M15.75,6.27v4.09a5.33,5.33,0,0,1-4.54,5.27,5.34,5.34,0,0,0,6.13-5.27V6.27Z"/><path id="Path_673" data-name="Path 673" class="cls-8" d="M5.82,11.21H7V8.14H5.82A1.13,1.13,0,0,0,4.68,9.28h0v.79a1.13,1.13,0,0,0,1.13,1.14h0Z"/><path id="Path_674" data-name="Path 674" class="cls-6" d="M18.19,11.21H17.05V8.14h1.13a1.13,1.13,0,0,1,1.13,1.13v.79a1.13,1.13,0,0,1-1.13,1.14h0Z"/><path id="Path_675" data-name="Path 675" class="cls-7" d="M22.61,6.38a1,1,0,1,1-1-1h0A1,1,0,0,1,22.61,6.38Z"/><path id="Path_676" data-name="Path 676" class="cls-2" d="M12,23.06h1.08l1.11-1.28L12,19.6,9.82,21.78l1.11,1.28Z"/><path id="Path_677" data-name="Path 677" class="cls-3" d="M12,19.6l-.67.67,1.14,1.14a.57.57,0,0,1,0,.77l-.76.88h1.33l1.11-1.28Z"/><path id="Path_678" data-name="Path 678" class="cls-9" d="M9.82,21.79,12,19.6l-2-2L8.56,18.95Z"/><path id="Path_679" data-name="Path 679" class="cls-9" d="M14.18,21.79,12,19.6l2-2,1.39,1.39Z"/><path id="Path_680" data-name="Path 680" d="M23.57,25.39A.43.43,0,0,0,24,25h0V24.7a5,5,0,0,0-3.64-4.78L15.7,18.62l-1.24-1.24V15.56a5.78,5.78,0,0,0,3.15-3.93h.57a1.56,1.56,0,0,0,1.56-1.56V9.28a1.56,1.56,0,0,0-.51-1.15V.85h1.93V5a1.45,1.45,0,0,0,0,2.77V8.82a.43.43,0,1,0,.85,0V7.77A1.45,1.45,0,0,0,22,5V.85h.43a.43.43,0,1,0,0-.85H1.56a.43.43,0,1,0,0,.85h3.2v.85a.43.43,0,1,0,.85,0V.85H18.38v5H5.62V3.69a.43.43,0,1,0-.85,0h0V8.12a1.56,1.56,0,0,0-.51,1.15v.79a1.56,1.56,0,0,0,1.56,1.56h.57a5.78,5.78,0,0,0,3.15,3.93v1.83L8.3,18.62,3.64,19.92A5,5,0,0,0,0,24.7V25a.43.43,0,1,0,.85,0V24.7a4.13,4.13,0,0,1,3-4L6.67,20l1.58,5a.43.43,0,0,0,.1.17L11,27.91H5.16V26.58a.43.43,0,1,0-.85,0h0v1.33H.85v-1a.43.43,0,1,0-.85,0H0v1.39a.43.43,0,0,0,.43.43H23.57a.43.43,0,0,0,.43-.43h0V26.95a.43.43,0,0,0-.85,0h0v1H19.69V26.58a.43.43,0,1,0-.85,0h0v1.33H13l2.66-2.8a.43.43,0,0,0,.1-.17l1.58-5,2.81.78a4.12,4.12,0,0,1,3,4V25a.43.43,0,0,0,.43.43h0ZM21.59,7a.6.6,0,1,1,.6-.6A.6.6,0,0,1,21.59,7ZM11.27,23.49h1.46l.57,2.87L12,27.72l-1.3-1.37Zm1.61-.85H11.12l-.72-.83,1.6-1.6,1.6,1.6ZM14,21,12.6,19.6,14,18.16l.88.88Zm4.85-11a.71.71,0,0,1-.71.71h-.42V8.57h.42a.71.71,0,0,1,.71.71Zm-.51-2.34h-.62v-1h.62ZM5.61,6.7h.62v1H5.62Zm.62,4.09H5.82a.71.71,0,0,1-.71-.71V9.28a.71.71,0,0,1,.71-.71h.43Zm.85-.43V6.7H16.9v3.66a4.91,4.91,0,0,1-9.82,0ZM12,16.12a5.75,5.75,0,0,0,1.62-.23v1.5L12,19l-1.62-1.62V15.88a5.74,5.74,0,0,0,1.62.24Zm-2,2L11.4,19.6,10,21l-.88-2ZM7.49,19.73l.85-.24L9.43,22l0,0h0l0,0h0l1,1.12L10,25.6l-1-1ZM15,24.6l-1,1-.48-2.42,1-1.12h0l0,0h0l0,0,1.08-2.46.85.24Z"/></g></g></g></svg>