<svg xmlns="http://www.w3.org/2000/svg" viewBox="0 0 25.02 19.54"><defs><style>.cls-1{fill:#3db39e;}.cls-1,.cls-3{stroke:#000;stroke-width:1.02px;}.cls-2{fill:#78cabb;}.cls-3{fill:#5abeac;}.cls-4{fill:#8cd2c5;}</style></defs><title>ic_expenses</title><g id="Layer_2" data-name="Layer 2"><g id="Layer_1-2" data-name="Layer 1"><g id="wallet"><path id="Path_701" data-name="Path 701" class="cls-1" d="M7.36,6,21.12,2.32a.88.88,0,0,1,1.08.61l2.28,8.44a.88.88,0,0,1-.61,1.08L6,17.22a.88.88,0,0,1-1.08-.61l-1.67-6.2Z"/><path id="Path_702" data-name="Path 702" class="cls-2" d="M22.09,11.11l-3,.79a.43.43,0,1,1-.22-.84l2.55-.68-1.36-5.1L17.54,6a.43.43,0,1,1-.22-.84l3-.79a.41.41,0,0,1,.52.26v0l1.58,5.93a.41.41,0,0,1-.25.52ZM9.78,14.43l-3,.79A.41.41,0,0,1,6.3,15v0L4.71,9A.41.41,0,0,1,5,8.47H5l3-.79a.43.43,0,0,1,.22.84l-2.55.68L7,14.28l2.55-.68a.41.41,0,0,1,.52.26v0a.43.43,0,0,1-.3.52Z"/><path id="Path_703" data-name="Path 703" class="cls-3" d="M.53,9C4.44,6.8,15,.63,15,.63A.89.89,0,0,1,16.2.94L20.59,8.5a.87.87,0,0,1-.33,1.18h0L4.18,18.91A.89.89,0,0,1,3,18.61S1.74,16.1.51,14C.51,9,.53,10.67.53,9Z"/><path id="Path_704" data-name="Path 704" class="cls-4" d="M18.35,8.26,15.28,2.94a.42.42,0,0,0-.56-.17l0,0L12,4.32a.43.43,0,1,0,.41.76l0,0,2.28-1.32,2.64,4.57L15.1,9.64a.43.43,0,1,0,.41.76l0,0L18.2,8.85a.43.43,0,0,0,.16-.58ZM6.71,14.47,4.42,15.79,1.78,11.22,4.07,9.9a.43.43,0,0,0-.44-.75L1,10.69a.42.42,0,0,0-.17.56l0,0L3.89,16.6a.42.42,0,0,0,.56.17l0,0,2.66-1.54a.42.42,0,0,0,.17-.56l0,0a.43.43,0,0,0-.58-.16ZM7.83,6.72A3.52,3.52,0,1,0,12.64,8a3.52,3.52,0,0,0-4.81-1.3h0ZM18.35,8.26,15.28,2.94a.42.42,0,0,0-.56-.17l0,0L12,4.32a.43.43,0,1,0,.41.76l0,0,2.28-1.32,2.64,4.57L15.1,9.64a.43.43,0,1,0,.41.76l0,0L18.2,8.85a.43.43,0,0,0,.16-.58h0ZM6.71,14.47,4.42,15.79,1.78,11.22,4.07,9.9a.43.43,0,0,0-.44-.75L1,10.69a.42.42,0,0,0-.17.56l0,0L3.89,16.6a.42.42,0,0,0,.56.17l0,0,2.66-1.54a.42.42,0,0,0,.17-.56l0,0a.43.43,0,0,0-.58-.16ZM7.83,6.72A3.52,3.52,0,1,0,12.64,8a3.52,3.52,0,0,0-4.81-1.3h0Z"/></g></g></g></svg>