<svg xmlns="http://www.w3.org/2000/svg" viewBox="0 0 24 17.77"><defs><style>.cls-1{fill:#694b4b;}.cls-2{fill:#5a4146;}.cls-3{fill:#e6af78;}.cls-4{fill:#f500bb;}.cls-5{fill:#f0c087;}.cls-6{fill:#c7cfe2;}.cls-7{fill:#162b5f;}.cls-8{fill:#ff507d;}.cls-9{fill:#d23c69;}.cls-10{fill:#d29b6e;}.cls-11{fill:none;}</style></defs><title>ic_groups</title><g id="Layer_2" data-name="Layer 2"><g id="Layer_1-2" data-name="Layer 1"><g id="team"><path id="Path_465" data-name="Path 465" class="cls-1" d="M6.68,8.66a2.46,2.46,0,0,0-4.93,0h0a8.85,8.85,0,0,1-.35,2.82,2.53,2.53,0,0,0,1.65,1.06H5.4A2.52,2.52,0,0,0,7,11.48,8.85,8.85,0,0,1,6.68,8.66Z"/><path id="Path_466" data-name="Path 466" class="cls-2" d="M3.87,8.66a1.28,1.28,0,0,1-.11-2.42,2.57,2.57,0,0,0-2,2.42,8.85,8.85,0,0,1-.35,2.82,2.53,2.53,0,0,0,1.65,1.06H4.17Z"/><path id="Path_467" data-name="Path 467" class="cls-3" d="M6.81,13.38l-1.14-.57a.7.7,0,0,1-.39-.63V11.12H3.17v1.06a.7.7,0,0,1-.39.63l-1.14.57a1.06,1.06,0,0,0-.58.94v2.43H7.39V14.32a1.06,1.06,0,0,0-.58-.94Z"/><path id="Path_468" data-name="Path 468" class="cls-4" d="M7.39,14.32a1.06,1.06,0,0,0-.58-.94l-1.14-.57a.7.7,0,0,1-.17-.13l-.41.45a1.14,1.14,0,0,1-1.61.12l-.12-.12L3,12.68a.7.7,0,0,1-.17.13l-1.14.57a1.06,1.06,0,0,0-.58.94v2.43H7.39V14.32Z"/><path id="Path_469" data-name="Path 469" class="cls-5" d="M4.22,11.83a2.11,2.11,0,0,1-1.86-1.12A1,1,0,0,1,2.7,9.4l.25-.19a2,2,0,0,0,.48-.64.35.35,0,0,1,.39-.19A6.06,6.06,0,0,1,6.21,9.59a.34.34,0,0,1,.12.28,2.11,2.11,0,0,1-2.11,2Z"/><path id="Path_470" data-name="Path 470" class="cls-3" d="M6.21,9.6A6.06,6.06,0,0,0,3.82,8.38a.35.35,0,0,0-.4.19A2,2,0,0,1,3.1,9l-.16.16-.24.19a1,1,0,0,0-.27,1.45,2.12,2.12,0,0,0,1.46,1,1.53,1.53,0,0,1-.74-1.38v-.27L3.41,10a2.8,2.8,0,0,0,.5-.59,5.31,5.31,0,0,1,1.83,1l.35.32a2.12,2.12,0,0,0,.23-.81.34.34,0,0,0-.12-.28Z"/><g id="Group_1167" data-name="Group 1167"><path id="Path_471" data-name="Path 471" class="cls-6" d="M1.27,13.69a1.05,1.05,0,0,0-.21.63v2.43H2.46V15a.7.7,0,0,0-.26-.55Z"/><path id="Path_472" data-name="Path 472" class="cls-6" d="M7.18,13.69a1.05,1.05,0,0,1,.21.63v2.43H6V15a.7.7,0,0,1,.26-.55Z"/></g><path id="Path_473" data-name="Path 473" class="cls-2" d="M16.89,7.61v.25a2.81,2.81,0,0,0,.14.89l.56,1.68h1.06V6.55h-.7a1.06,1.06,0,0,0-1.06,1.05Z"/><path id="Path_474" data-name="Path 474" class="cls-1" d="M21.74,8.24l-.62,2.18L18.3,8a.7.7,0,0,1-.7-.7h0A1.06,1.06,0,0,1,18.65,6.2h3.17V7.66a2.11,2.11,0,0,1-.08.58Z"/><path id="Rectangle_298" data-name="Rectangle 298" class="cls-3" d="M18.3,11.48h2.11v2.11H18.3Z"/><path id="Path_475" data-name="Path 475" class="cls-7" d="M22.11,12.82l-1.7-.49-1.06,1.26L18.3,12.33l-1.7.49a1.06,1.06,0,0,0-.77,1v2.92h7V13.83a1.06,1.06,0,0,0-.77-1Z"/><path id="Path_476" data-name="Path 476" class="cls-5" d="M19.36,11.83a2.11,2.11,0,0,1-2.11-2.11h0a1.7,1.7,0,0,1,.5-1.2l.35-.35A.7.7,0,0,1,18.6,8a4.09,4.09,0,0,1,2.66.81.69.69,0,0,1,.2.5v.45a2.11,2.11,0,0,1-2.11,2.11Z"/><path id="Path_477" data-name="Path 477" class="cls-3" d="M18.3,9.72A.7.7,0,0,1,19,9h0a7.42,7.42,0,0,1,2.41.48,2,2,0,0,0-.19-.72A4.09,4.09,0,0,0,18.6,8a.7.7,0,0,0-.51.2l-.35.35a1.7,1.7,0,0,0-.5,1.2,2.11,2.11,0,0,0,1.53,2,2.09,2.09,0,0,1-.47-1.32v-.7Z"/><path id="Path_478" data-name="Path 478" class="cls-6" d="M21.47,14.88a1.06,1.06,0,0,1,.31-.75l.91-.91a1.05,1.05,0,0,1,.19.6v2.92H21.46Z"/><path id="Path_479" data-name="Path 479" class="cls-8" d="M17,12.9l-2.94-1.07-2.11.7-2.11-.7L6.91,12.9A1.41,1.41,0,0,0,6,14.22v2.53h12V14.22A1.41,1.41,0,0,0,17,12.9Z"/><path id="Path_480" data-name="Path 480" class="cls-9" d="M17.57,13.26a1.41,1.41,0,0,1,.38,1v2.53H15.84V15.58a1.41,1.41,0,0,1,.41-1Z"/><path id="Path_481" data-name="Path 481" class="cls-2" d="M15.84,4.57v-3a.7.7,0,0,0-.7-.7H10.91A2.82,2.82,0,0,0,8.09,3.73h0v.84a3.52,3.52,0,0,0,.18,1.12L8.39,6a1.06,1.06,0,0,1,.05.33v.18h7V6.37A1.06,1.06,0,0,1,15.54,6l.12-.35a3.52,3.52,0,0,0,.18-1.11Z"/><path id="Path_482" data-name="Path 482" class="cls-1" d="M9.85,2.35a1.43,1.43,0,0,0,1.43,1.43h.2l.1,2.77h3.91V6.37A1.06,1.06,0,0,1,15.53,6l.12-.35a3.52,3.52,0,0,0,.18-1.11v-3a.7.7,0,0,0-.7-.7H11.28A1.43,1.43,0,0,0,9.85,2.34Z"/><path id="Rectangle_299" data-name="Rectangle 299" class="cls-3" d="M9.85,9.36h4.22v3.17H9.85Z"/><path id="Path_483" data-name="Path 483" class="cls-10" d="M9.85,11a4.56,4.56,0,0,0,4.22,0V9.36H9.85Z"/><g id="Group_1168" data-name="Group 1168"><path id="Path_484" data-name="Path 484" class="cls-9" d="M12,12.53l-1.12,1.12a.35.35,0,0,1-.5,0l0,0L9.15,12.08l.31-.64a.35.35,0,0,1,.47-.17l0,0Z"/><path id="Path_485" data-name="Path 485" class="cls-9" d="M12,12.53l1.12,1.12a.35.35,0,0,0,.5,0l0,0,1.16-1.53-.31-.64a.35.35,0,0,0-.47-.17l0,0Z"/></g><path id="Path_486" data-name="Path 486" class="cls-5" d="M12,10.42A3.52,3.52,0,0,1,8.45,6.9h0V6.55L9,6.16a1.06,1.06,0,0,0,.47-.88V4.09a5.35,5.35,0,0,1,4.93.7v.49a1.06,1.06,0,0,0,.47.88l.59.39V6.9A3.52,3.52,0,0,1,12,10.42Z"/><path id="Path_487" data-name="Path 487" class="cls-9" d="M6.36,13.26a1.41,1.41,0,0,0-.38,1v2.53H8.09V15.58a1.41,1.41,0,0,0-.41-1Z"/><path id="Path_488" data-name="Path 488" class="cls-3" d="M11.18,4.93a6.51,6.51,0,0,1,3.26.35V4.79a5.35,5.35,0,0,0-4.93-.7V5.28A1.06,1.06,0,0,1,9,6.16l-.59.39V6.9a3.52,3.52,0,0,0,3.09,3.49,3.5,3.5,0,0,1-1-2.44V5.63a.7.7,0,0,1,.61-.7Z"/><path id="Path_489" data-name="Path 489" class="cls-11" d="M20.26,8.6A.33.33,0,0,0,20.56,8a6.42,6.42,0,0,0-2.26-.39.33.33,0,1,0,0,.66A5.68,5.68,0,0,1,20.26,8.6Z"/><path id="Path_490" data-name="Path 490" class="cls-11" d="M22.2,12.7l-1.36-.39a.14.14,0,0,1-.1-.13v-.45a2.47,2.47,0,0,0,.31-.26,2.42,2.42,0,0,0,.74-1.75V9.09l.13-.26a2.1,2.1,0,0,0,.22-.93V6.2a.33.33,0,0,0-.33-.33H18.65A2.09,2.09,0,0,0,16.56,8V8a1.75,1.75,0,0,0,.18.78l.17.34v.54A2.57,2.57,0,0,0,18,11.71v.48c0,.07,0,.1-.27.18l-.66.19-1.92-.7A.33.33,0,0,0,15,11.6L14.41,11V9.88l.19-.17A3.87,3.87,0,0,0,15.83,6.9V6a3.81,3.81,0,0,0,.35-1.6V.92a.33.33,0,0,0-.33-.33H10.91A3.15,3.15,0,0,0,7.77,3.73v.7A3.81,3.81,0,0,0,8.12,6v.74A4,4,0,0,0,9.53,9.85V11l-.61.64a.33.33,0,0,0-.09.25l-2,.74a1.73,1.73,0,0,0-.41.21l-.32-.16a2.52,2.52,0,0,0,1.26-1,.33.33,0,0,0,0-.29,5.85,5.85,0,0,1-.29-2c0-.23,0-.45,0-.65A2.86,2.86,0,0,0,4.23,5.87a2.86,2.86,0,0,0-2.8,2.77c0,.2,0,.42,0,.65a5.85,5.85,0,0,1-.29,2,.33.33,0,0,0,0,.29,2.51,2.51,0,0,0,1.26,1l-.88.44a1.38,1.38,0,0,0-.77,1.24v2.43a.33.33,0,1,0,.66,0h0V14.33a.72.72,0,0,1,.4-.65l1.1-.55.38.36a1.38,1.38,0,0,0,1.91,0l.38-.36.36.18a1.73,1.73,0,0,0-.26.92v2.53a.33.33,0,1,0,.66,0V14.22a1.08,1.08,0,0,1,.71-1l2.14-.78.89,1.33a.68.68,0,0,0,.5.3h.07a.68.68,0,0,0,.48-.2l.54-.54v3.43a.33.33,0,1,0,.66,0h0V13.31l.54.54a.68.68,0,0,0,.48.2h.07a.68.68,0,0,0,.5-.3l.89-1.33,2.14.78a1.08,1.08,0,0,1,.71,1v2.53a.33.33,0,1,0,.66,0V14.22A1.74,1.74,0,0,0,17.81,13l.08,0a1.81,1.81,0,0,0,.31-.11l.84.84v3a.33.33,0,1,0,.66,0h0v-3l.83-.83.14.06,1.36.39a.73.73,0,0,1,.53.7v2.72a.33.33,0,1,0,.66,0V14A1.39,1.39,0,0,0,22.2,12.7ZM5.61,12.12v-.39a2.44,2.44,0,0,0,.87-1.07,3.62,3.62,0,0,0,.19.79A2.38,2.38,0,0,1,5.61,12.12ZM2.09,8.68a2.44,2.44,0,0,1,.67-1.53,2,2,0,0,1,2.89,0l0,0a2.44,2.44,0,0,1,.67,1.53c0,.18,0,.4,0,.62v.06A3,3,0,0,0,4.76,8.18,4.13,4.13,0,0,0,3.51,8a.33.33,0,0,0-.23.1l-.59.62a.33.33,0,0,0,.47.46l.49-.51A2.66,2.66,0,0,1,6,10a1.78,1.78,0,0,1-3.54-.28.33.33,0,0,0-.33-.33H2.05V9.31C2.07,9.08,2.08,8.87,2.09,8.68Zm-.31,2.76A3.63,3.63,0,0,0,2,10.65a2.46,2.46,0,0,0,.87,1.07v.4a2.37,2.37,0,0,1-1.06-.68ZM3.72,13l-.31-.29a.68.68,0,0,0,.08-.32V12A2.45,2.45,0,0,0,5,12v.35a.68.68,0,0,0,.08.32L4.73,13a.73.73,0,0,1-1,0ZM8.78,6.78V6a.33.33,0,0,0,0-.14,3.16,3.16,0,0,1-.32-1.38v-.7a2.49,2.49,0,0,1,2.49-2.49h4.6V4.44a3.16,3.16,0,0,1-.32,1.38.33.33,0,0,0,0,.14V6.9a3.16,3.16,0,0,1-1,2.33l-.25.21h0a3.17,3.17,0,0,1-2.14.64A3.26,3.26,0,0,1,8.78,6.78Zm2.94,4H12a3.81,3.81,0,0,0,1.78-.44v.6L12,12.14l-1.78-1.22v-.61a3.71,3.71,0,0,0,1.53.44Zm-1.08,2.66h0l-1-1.54.33-.35,1.55,1.06Zm2.71,0h0l-.82-.82L14,11.52l.33.35Zm4.23-3.77V9a.33.33,0,0,0,0-.15l-.2-.41A1.09,1.09,0,0,1,17.22,8V8a1.43,1.43,0,0,1,1.42-1.44h2.85V7.89a1.44,1.44,0,0,1-.15.64l-.17.33a.33.33,0,0,0,0,.15v.7a1.78,1.78,0,0,1-1.78,1.78H19.3a1.84,1.84,0,0,1-1.73-1.87Zm1.71,2.53h.07a2.44,2.44,0,0,0,.73-.11v.13a.79.79,0,0,0,0,.19l-.75.75-.75-.75a.9.9,0,0,0,0-.2V12a2.31,2.31,0,0,0,.65.11Z"/><path id="Path_491" data-name="Path 491" class="cls-11" d="M21.47,14.32a.33.33,0,0,0-.33.33v2.11a.33.33,0,0,0,.66,0V14.65a.33.33,0,0,0-.33-.33Z"/><path id="Path_492" data-name="Path 492" class="cls-11" d="M2.46,14.75a.33.33,0,0,0-.33.33v1.68a.33.33,0,0,0,.66,0V15.08a.33.33,0,0,0-.33-.33Z"/><path id="Path_493" data-name="Path 493" class="cls-11" d="M9.84,4.38a0,0,0,0,1,0,0A10.4,10.4,0,0,1,12,4.26,3.4,3.4,0,0,1,14.2,5a.33.33,0,0,0,.47-.47h0c-1.24-1.24-3.85-1-4.91-.85a.68.68,0,0,0-.58.67v.76a.33.33,0,0,0,.66,0V4.39Z"/><path id="Path_494" data-name="Path 494" class="cls-11" d="M8.1,15a.33.33,0,0,0-.33.33v1.41a.33.33,0,0,0,.66,0V15.35A.33.33,0,0,0,8.1,15Z"/><path id="Path_495" data-name="Path 495" class="cls-11" d="M15.84,15a.33.33,0,0,0-.33.33v1.41a.33.33,0,0,0,.66,0V15.35A.33.33,0,0,0,15.84,15Z"/><g id="Path_724" data-name="Path 724"><path class="cls-11" d="M1.06,16.75H22.93s.1-3.2,0-3.4-.79-.4-.79-.4l-1.78-.59v-.86a4.57,4.57,0,0,0,1.11-2.44L21.82,8V6.2s-2.47,0-3.51.08L18,6.53h-.2c-.37.37-.73.46-.85,1.18s.42.92.36,1.69A2.48,2.48,0,0,0,17.65,11a4.89,4.89,0,0,0,.67.49v.86l-1.75.4-1.85-.69a3.17,3.17,0,0,0-.31-.72.15.15,0,0,0-.21-.06l-.06.06,0-.07A6.52,6.52,0,0,1,14,9.74a4.29,4.29,0,0,0,1.41-3.21l.07-.69.26-.77c.06-.74,0-2.63,0-3.83C15.81,1,10.14,1,10.14,1a3,3,0,0,0-2,2.58c.07,1.26.11,1.86.11,1.86l.25.73A4,4,0,0,0,8.7,8.07,4.41,4.41,0,0,0,9.94,9.74v1.54c-.34-.09-.72.79-.72.79L6.42,13.2s-1.07-.46-1-.67A4.58,4.58,0,0,0,7,11.44a3,3,0,0,1-.24-1.08A7.48,7.48,0,0,0,6.3,7.6,2.26,2.26,0,0,0,3.77,6.34,2.44,2.44,0,0,0,1.93,8c-.1.34-.24,3-.24,3l-.27.49a5.57,5.57,0,0,0,1.63,1.06c.14.2-1.52.87-1.52.87-.72.46-.46,2-.46,2Z"/><path class="cls-11" d="M22.93,16.75s.1-3.2,0-3.4-.79-.4-.79-.4l-1.78-.59v-.86a4.57,4.57,0,0,0,1.11-2.44L21.82,8V6.2h-.11c-.49,0-2.49,0-3.4.08L18,6.53h-.21c-.37.37-.73.46-.85,1.18s.42.92.36,1.69A2.49,2.49,0,0,0,17.64,11a4.86,4.86,0,0,0,.67.49v.86l-1.75.39-1.85-.69a3.22,3.22,0,0,0-.31-.72.17.17,0,0,0-.13-.08.19.19,0,0,0-.13.08l0-.07A6.58,6.58,0,0,1,14,9.74a4.29,4.29,0,0,0,1.4-3.21l.07-.69.26-.77c.06-.74,0-2.63,0-3.83C15.8,1,12,1,10.64,1h-.51a3,3,0,0,0-2,2.58c.07,1.26.11,1.86.11,1.86l.25.73A4,4,0,0,0,8.7,8.07,4.42,4.42,0,0,0,9.94,9.74v1.54H9.89c-.32,0-.67.8-.67.8L6.41,13.2s-1.07-.46-1-.67A4.59,4.59,0,0,0,7,11.44a3,3,0,0,1-.24-1.08A7.47,7.47,0,0,0,6.3,7.59,2.13,2.13,0,0,0,4.16,6.32l-.4,0A2.44,2.44,0,0,0,1.92,8c-.1.34-.24,3-.24,3l-.27.49A5.55,5.55,0,0,0,3,12.56c.14.2-1.52.87-1.52.87-.72.46-.46,2-.46,2v1.37H22.94m1,1H0V15.47C0,15-.16,13.3,1,12.57l0,0a2.21,2.21,0,0,1-.46-.49l-.32-.5L.52,11l.16-.29a24,24,0,0,1,.26-3A3.44,3.44,0,0,1,3.67,5.32l.49,0A3.13,3.13,0,0,1,7.22,7.17a6,6,0,0,1,.51,2.42c0,.22,0,.44,0,.64a4.12,4.12,0,0,0,.13.72l.29.43.28-.11a2.63,2.63,0,0,1,.44-.59v-.49A5.09,5.09,0,0,1,7.74,8.43a5.08,5.08,0,0,1-.29-2.12l-.18-.52,0-.13V5.53s0-.62-.11-1.87v-.1A4,4,0,0,1,9.79.06L10,0h.68c.66,0,1.92,0,3,0l1.48.06c.64,0,1.06.1,1.37.45a1,1,0,0,1,.26.72c0,.52,0,1.18,0,1.82,0,.86,0,1.61,0,2.06v.13l0,.12-.22.66,0,.24A3.85,3.85,0,0,1,16.84,6l.2-.17.3-.3h.3l.09-.06L18,5.28l.28,0c.93-.07,2.9-.08,3.48-.08h1.13v3l-.05.16-.33,1a6.15,6.15,0,0,1-.9,2.38l.89.3c1.1.32,1.32.75,1.4.91s.22.43.11,3.89l0,1Zm-8.4-6.49,1.12.42.21,0a3.49,3.49,0,0,1-.6-2.34c0-.1,0-.14-.1-.33A3.47,3.47,0,0,1,16,8.66a5.84,5.84,0,0,1-1,1.5c0,.12,0,.26,0,.4l.15.16a2.46,2.46,0,0,1,.32.57Z"/></g></g></g></g></svg>