<svg id="Capa_1" enable-background="new 0 0 497 497" height="512" viewBox="0 0 497 497" width="512" xmlns="http://www.w3.org/2000/svg"><g><path d="m459.586 68.539v66.82l-229.793 12.481-229.793-12.481v-66.82c0-9.839 7.98-17.82 17.819-17.82h423.947c9.839 0 17.82 7.981 17.82 17.82z" fill="#5986cb"/><path d="m459.586 68.539v66.82l-26.401 2v-68.82c0-9.839-7.98-17.819-17.819-17.819h26.401c9.838-.001 17.819 7.98 17.819 17.819z" fill="#4278c3"/><path d="m459.586 135.359v287.255c0 9.839-7.98 17.819-17.819 17.819h-423.948c-9.839 0-17.819-7.98-17.819-17.819v-287.255z" fill="#eaf6ff"/><path d="m459.586 135.359v287.255c0 9.839-7.98 17.819-17.819 17.819h-26.401c9.839 0 17.819-7.98 17.819-17.819v-287.255z" fill="#c8effe"/><g><path d="m183.15 189.71v48.4c0 4.14-3.36 7.5-7.5 7.5h-131.03c-4.14 0-7.5-3.36-7.5-7.5v-48.4c0-4.14 3.36-7.5 7.5-7.5h131.03c4.14 0 7.5 3.36 7.5 7.5z" fill="#5986cb"/></g><g><path d="m183.15 189.71v48.4c0 4.14-3.36 7.5-7.5 7.5h-25c4.14 0 7.5-3.36 7.5-7.5v-48.4c0-4.14-3.36-7.5-7.5-7.5h25c4.14 0 7.5 3.36 7.5 7.5z" fill="#4278c3"/></g><g><path d="m183.15 286.34v48.4c0 4.14-3.36 7.5-7.5 7.5h-131.03c-4.14 0-7.5-3.36-7.5-7.5v-48.4c0-4.14 3.36-7.5 7.5-7.5h131.03c4.14 0 7.5 3.36 7.5 7.5z" fill="#5986cb"/></g><g><path d="m183.15 286.34v48.4c0 4.14-3.36 7.5-7.5 7.5h-25c4.14 0 7.5-3.36 7.5-7.5v-48.4c0-4.14-3.36-7.5-7.5-7.5h25c4.14 0 7.5 3.36 7.5 7.5z" fill="#4278c3"/></g><path d="m327.922 477.608h146.886c12.256 0 22.191-9.935 22.191-22.191v-146.887c0-12.256-9.935-22.191-22.191-22.191h-146.886c-12.256 0-22.191 9.935-22.191 22.191v146.886c0 12.256 9.935 22.192 22.191 22.192z" fill="#46cc8d"/><path d="m497 308.528v146.892c0 12.253-9.931 22.184-22.193 22.184h-37.414c12.262 0 22.193-9.931 22.193-22.184v-146.892c0-12.253-9.931-22.193-22.193-22.193h37.414c12.261 0 22.193 9.941 22.193 22.193z" fill="#00c27a"/><path d="m455.249 371.331v21.276c0 2.02-1.638 3.658-3.658 3.658h-32.271c-2.02 0-3.658 1.638-3.658 3.658v32.271c0 2.02-1.638 3.658-3.658 3.658h-21.276c-2.02 0-3.658-1.638-3.658-3.658v-32.271c0-2.02-1.638-3.658-3.658-3.658h-32.272c-2.02 0-3.658-1.638-3.658-3.658v-21.276c0-2.02 1.638-3.658 3.658-3.658h32.271c2.02 0 3.658-1.638 3.658-3.658v-32.262c0-2.02 1.638-3.658 3.658-3.658h21.276c2.02 0 3.658 1.638 3.658 3.658v32.262c0 2.02 1.638 3.658 3.658 3.658h32.271c2.021 0 3.659 1.638 3.659 3.658z" fill="#eaf6ff"/><g><path d="m76.289 82.478c-4.143 0-7.5-3.358-7.5-7.5v-48.086c0-4.142 3.357-7.5 7.5-7.5s7.5 3.358 7.5 7.5v48.085c0 4.143-3.357 7.501-7.5 7.501z" fill="#678d98"/></g><g><path d="m383.296 82.478c-4.143 0-7.5-3.358-7.5-7.5v-48.086c0-4.142 3.357-7.5 7.5-7.5s7.5 3.358 7.5 7.5v48.085c0 4.143-3.358 7.501-7.5 7.501z" fill="#678d98"/></g><g><path d="m413.304 205.291h-198.042c-4.143 0-7.5-3.358-7.5-7.5s3.357-7.5 7.5-7.5h198.042c4.143 0 7.5 3.358 7.5 7.5s-3.358 7.5-7.5 7.5z" fill="#5986cb"/></g><g><path d="m413.304 237.525h-198.042c-4.143 0-7.5-3.358-7.5-7.5s3.357-7.5 7.5-7.5h198.042c4.143 0 7.5 3.358 7.5 7.5s-3.358 7.5-7.5 7.5z" fill="#62dbfb"/></g><g><path d="m264.623 301.921h-49.361c-4.143 0-7.5-3.358-7.5-7.5s3.357-7.5 7.5-7.5h49.361c4.143 0 7.5 3.358 7.5 7.5s-3.357 7.5-7.5 7.5z" fill="#5986cb"/></g><g><path d="m264.623 334.156h-49.361c-4.143 0-7.5-3.358-7.5-7.5s3.357-7.5 7.5-7.5h49.361c4.143 0 7.5 3.358 7.5 7.5s-3.357 7.5-7.5 7.5z" fill="#62dbfb"/></g><g><path d="m110.134 407.385c-1.919 0-3.839-.732-5.304-2.197l-22.082-22.082c-2.929-2.929-2.929-7.678 0-10.606 2.93-2.929 7.678-2.929 10.607 0l16.778 16.779 16.778-16.779c2.93-2.929 7.678-2.929 10.607 0s2.929 7.678 0 10.606l-22.082 22.082c-1.463 1.465-3.383 2.197-5.302 2.197z" fill="#62dbfb"/></g></g></svg>