<svg xmlns="http://www.w3.org/2000/svg" viewBox="0 0 24 19.74"><defs><style>.cls-1{fill:#fff;}.cls-10,.cls-2,.cls-3{fill:none;}.cls-2,.cls-3{stroke:#000;stroke-width:0.88px;}.cls-3{stroke-linecap:round;}.cls-4{fill:#d75a4a;}.cls-5{fill:#ed8a19;}.cls-6{fill:#c7cac7;}.cls-7{fill:#fbce9d;}.cls-8{fill:#f2ecbf;}.cls-9{fill:#ebba16;}</style></defs><title>ic_leaves</title><g id="Layer_2" data-name="Layer 2"><g id="Layer_1-2" data-name="Layer 1"><g id="leave"><g id="Ellipse_61-2" data-name="Ellipse 61-2"><circle class="cls-1" cx="9.87" cy="9.87" r="9.87"/><circle class="cls-2" cx="9.87" cy="9.87" r="9.43"/></g><path id="Line_124" data-name="Line 124" class="cls-3" d="M6.09,7h8.52"/><path id="Line_125" data-name="Line 125" class="cls-3" d="M4.2,7"/><path id="Line_126" data-name="Line 126" class="cls-3" d="M3.25,9.8h8.52"/><path id="Line_127" data-name="Line 127" class="cls-3" d="M3.25,11.69H8.93"/><g id="edit"><path id="Path_565" data-name="Path 565" class="cls-4" d="M19.74,1.51a2,2,0,1,1,2.94,2.78l-.08.08Z"/><path id="Path_566" data-name="Path 566" class="cls-5" d="M20.45,5.45,13.89,12l-.13,1.21L21,6Z"/><path id="Path_567" data-name="Path 567" class="cls-5" d="M12.33,11.78l1.21-.13L20.1,5.09,19,4l-6.56,6.56Z"/><path id="Path_568" data-name="Path 568" class="cls-5" d="M18.66,3.66l-.54-.54L10.9,10.35l1.21-.13Z"/><path id="Path_569" data-name="Path 569" class="cls-6" d="M22.06,4.91l.54-.54L19.74,1.51,19.2,2Z"/><path id="Path_570" data-name="Path 570" class="cls-6" d="M18.84,2.41l-.36.36,2.86,2.86.36-.36Z"/><path id="Path_571" data-name="Path 571" class="cls-7" d="M13.37,12.18l-1.3.14H12l-.05,0,0,0,0,0,0,0,0,0V12.1a.25.25,0,0,1,0,0,.26.26,0,0,1,0,0l.14-1.3-1.3.14h-.09l-.73,3,.53-.53a.25.25,0,0,1,.36.36l-.53.53,3-.73a.25.25,0,0,1,0-.09Z"/><path id="Path_572" data-name="Path 572" d="M10.71,13.4a.28.28,0,0,0-.39,0L9.74,14l-.12.5.51-.12.58-.57a.26.26,0,0,0,0-.37Z"/><path id="Path_573" data-name="Path 573" class="cls-8" d="M22.06,4.91,19.2,2l-.36.36L21.7,5.27Z"/><path id="Path_574" data-name="Path 574" class="cls-9" d="M20.1,5.09l-6.56,6.56-1.21.13.13-1.21L19,4l-.36-.36L12.1,10.22l-1.21.13-.29.29-.06.24h.09l1.3-.14L11.79,12a.25.25,0,0,0,0,0,.26.26,0,0,0,0,0v0a.25.25,0,0,0,0,.09l0,0,0,0,0,0,.05,0h.08l1.3-.14-.15,1.29a.25.25,0,0,0,0,.09l.24-.06.29-.29L13.9,12l6.56-6.56Z"/><path id="Path_575" data-name="Path 575" class="cls-8" d="M21.35,5.63,18.48,2.76l-.36.36.54.54L19,4,20.1,5.09l.36.36L21,6Z"/></g><g id="Path_725" data-name="Path 725"><path class="cls-10" d="M9.7,14.4l.9-3.7L19.77,1.5a2,2,0,0,1,2.71,0,2,2,0,0,1,.09,2.87l-9.08,9.1Z"/><path class="cls-10" d="M9.7,14.41l3.79-.94,9.08-9.1a2,2,0,0,0-.09-2.87A1.82,1.82,0,0,0,21.16,1a2.08,2.08,0,0,0-1.39.53L10.6,10.71l-.9,3.7m-1.2,1.21.35-1.42.9-3.7.06-.24.17-.17L19.15.88l0,0,0,0a3,3,0,0,1,2-.76,2.68,2.68,0,0,1,1.95.8A3.11,3.11,0,0,1,24,2.78,2.84,2.84,0,0,1,23.21,5h0l-9.08,9.1-.17.17-.24.06-3.79.94Z"/></g></g></g></g></svg>