<svg xmlns="http://www.w3.org/2000/svg" viewBox="0 0 283.12 271.09"><defs><style>.cls-1{fill:#2a70ab;}.cls-2{fill:#4db7e5;}.cls-3{fill:#ff9f9b;}.cls-4{fill:#0e9347;}.cls-5{fill:#0d8944;}.cls-6{fill:#3bb54a;}.cls-7{fill:#89c763;}.cls-8{fill:#ffdad2;}</style></defs><g id="Layer_2" data-name="Layer 2"><g id="Layer_1-2" data-name="Layer 1"><path class="cls-1" d="M254.8,49.32h28.32v103.8H254.8Z"/><path class="cls-2" d="M235.93,54H254.8V139H235.93Z"/><path class="cls-3" d="M235.93,68.19H217.06L184,54H151V139h51.9l14.16-14.16h18.87Z"/><path class="cls-4" d="M155.55,151.27,83.8,143.54A6.58,6.58,0,0,1,78,136.31L92,5.86A6.57,6.57,0,0,1,99.25,0L171,7.76A6.58,6.58,0,0,1,176.82,15l-14,130.46A6.59,6.59,0,0,1,155.55,151.27Z"/><path class="cls-5" d="M156.53,151.37a6.68,6.68,0,0,0,6.25-5.92l7.34-68.17a23,23,0,0,0-22,20.4,24.51,24.51,0,0,0,1.75,11.4,22,22,0,0,0-11.43,17.25A23.36,23.36,0,0,0,156.53,151.37Z"/><path class="cls-6" d="M143.21,143.34l-45.66-4.92A13.17,13.17,0,0,0,85.91,124L97.15,19.61A13.17,13.17,0,0,0,111.6,8l45.66,4.91A13.15,13.15,0,0,0,168.9,27.33L157.66,131.7A13.15,13.15,0,0,0,143.21,143.34Z"/><path class="cls-4" d="M143.24,143a13.09,13.09,0,0,1,14.42-11.31l5.72-53.16a22.54,22.54,0,0,0-15.26,19.14,24.51,24.51,0,0,0,1.75,11.4,22,22,0,0,0-11.43,17.25A23.72,23.72,0,0,0,143.24,143Z"/><ellipse class="cls-4" cx="127.4" cy="75.65" rx="26.24" ry="29.52" transform="translate(38.54 194.22) rotate(-83.85)"/><circle class="cls-4" cx="131.62" cy="36.52" r="6.56"/><circle class="cls-4" cx="123.19" cy="114.79" r="6.56"/><path class="cls-7" d="M132.52,89.4a9.67,9.67,0,0,0,10.84-8.73,3.28,3.28,0,0,0,.7-6.52l.35-3.26a3.28,3.28,0,1,0-6.52-.71l-1,9.79a3.28,3.28,0,0,1-6.53-.7l.71-6.53a9.84,9.84,0,0,0-19.57-2.11,3.28,3.28,0,0,0-.71,6.53l-.35,3.26a3.28,3.28,0,0,0,6.53.7l1-9.78a3.28,3.28,0,1,1,6.52.7l-.7,6.52A9.67,9.67,0,0,0,132.52,89.4Z"/><path class="cls-8" d="M151,91.78a13.35,13.35,0,0,0,18.87,18.88l18.87-18.88a26.68,26.68,0,0,0,37.75,0l9.44-9.43V68.19H217.06L184,54H158.29L169,73.79Z"/><path class="cls-1" d="M0,186.15H18.87v84.94H0Z"/><path class="cls-2" d="M18.87,195.59H37.75v66.06H18.87Z"/><path class="cls-8" d="M94.37,209.75l4.72,4.72H127.4a14.16,14.16,0,1,1,0,28.31h75.5a14.16,14.16,0,1,1,0,28.31H100.09a112.43,112.43,0,0,1-62.34-18.87V209.75a40,40,0,0,1,56.62,0Z"/><path class="cls-3" d="M84.93,247.5a4.74,4.74,0,0,0,4.72,4.72H127.4a4.72,4.72,0,0,0,0-9.44H89.65A4.72,4.72,0,0,0,84.93,247.5Z"/></g></g></svg>