<svg height="512pt" viewBox="0 0 512 512" width="512pt" xmlns="http://www.w3.org/2000/svg"><path d="m427.007812 481h-372.015624c-30.320313 0-54.992188-24.671875-54.992188-55v-371c0-30.328125 24.671875-55 54.992188-55h372.015624c30.320313 0 54.992188 24.671875 54.992188 55v371c0 30.328125-24.671875 55-54.992188 55zm0 0" fill="#b6d2e0"/><path d="m427.011719 0h-186.011719v481h186.011719c30.316406 0 54.988281-24.671875 54.988281-55v-371c0-30.328125-24.671875-55-54.988281-55zm0 0" fill="#aac3ce"/><path d="m54.992188 451c-13.78125 0-24.992188-11.214844-24.992188-25v-371c0-13.785156 11.210938-25 24.992188-25h372.015624c13.78125 0 24.992188 11.214844 24.992188 25v371c0 13.785156-11.210938 25-24.992188 25zm0 0" fill="#d6f3fe"/><path d="m452 55v371c0 13.789062-11.210938 25-24.988281 25h-186.011719v-421h186.011719c13.777343 0 24.988281 11.210938 24.988281 25zm0 0" fill="#bdecfc"/><path d="m482 55c0-30.328125-24.671875-55-54.992188-55h-372.015624c-30.320313 0-54.992188 24.671875-54.992188 55v81h482zm0 0" fill="#b6d2e0"/><path d="m482 55v81h-241v-136h186.011719c30.316406 0 54.988281 24.671875 54.988281 55zm0 0" fill="#aac3ce"/><g fill="#bdecfc"><path d="m420.976562 76c0 8.285156-6.714843 15-15 15-8.285156 0-15-6.714844-15-15s6.714844-15 15-15c8.285157 0 15 6.714844 15 15zm0 0"/><path d="m360.984375 76c0 8.285156-6.714844 15-15 15s-15-6.714844-15-15 6.714844-15 15-15 15 6.714844 15 15zm0 0"/><path d="m300.992188 76c0 8.285156-6.714844 15-15 15-8.285157 0-15-6.714844-15-15s6.714843-15 15-15c8.285156 0 15 6.714844 15 15zm0 0"/></g><path d="m405.953125 271h-328.65625c-8.28125 0-15-6.714844-15-15v-59.953125c0-8.28125 6.71875-15 15-15h328.652344c8.285156 0 15 6.71875 15 15v59.953125c.003906 8.285156-6.714844 15-14.996094 15zm0 0" fill="#dd5c60"/><path d="m405.949219 181.050781h-164.949219v89.949219h164.949219c8.289062 0 15-6.71875 15-15v-59.949219c0-8.289062-6.710938-15-15-15zm0 0" fill="#d8333c"/><path d="m241 332h-165c-8.285156 0-15-6.714844-15-15s6.714844-15 15-15h165c8.285156 0 15 6.714844 15 15s-6.714844 15-15 15zm0 0" fill="#eebb2c"/><path d="m256 317c0 8.28125-6.71875 15-15 15v-30c8.28125 0 15 6.71875 15 15zm0 0" fill="#e79b34"/><path d="m181 391h-105c-8.285156 0-15-6.714844-15-15s6.714844-15 15-15h105c8.285156 0 15 6.714844 15 15s-6.714844 15-15 15zm0 0" fill="#eebb2c"/><path d="m346.378906 330.941406c-91.320312 0-165.609375 74.488282-165.609375 166.058594 0 8.28125 6.71875 15 15 15h301.230469c8.28125 0 15-6.71875 15-15 0-91.570312-74.289062-166.058594-165.621094-166.058594zm0 0" fill="#7280f8"/><path d="m346.378906 330.941406v181.058594h150.621094c8.28125 0 15-6.71875 15-15 0-91.570312-74.289062-166.058594-165.621094-166.058594zm0 0" fill="#434af2"/><path d="m211.589844 482c7.464844-67.992188 65.066406-121.0625 134.789062-121.0625 69.730469 0 127.335938 53.070312 134.800782 121.0625zm0 0" fill="#eebb2c"/><path d="m481.179688 482h-134.800782v-121.058594c69.730469 0 127.339844 53.070313 134.800782 121.058594zm0 0" fill="#e79b34"/><path d="m387.980469 417.171875-45.761719 94.828125h-33.308594l52.050782-107.859375c3.597656-7.460937 12.558593-10.601563 20.019531-7 7.46875 3.609375 10.597656 12.570313 7 20.03125zm0 0" fill="#7280f8"/><path d="m387.980469 417.171875c-36.636719 75.925781-28.214844 58.472656-41.601563 86.207031v-69.027344l14.582032-30.210937c3.597656-7.460937 12.558593-10.601563 20.019531-7 7.46875 3.609375 10.597656 12.570313 7 20.03125zm0 0" fill="#434af2"/></svg>