<svg xmlns="http://www.w3.org/2000/svg" viewBox="0 0 512 510.82"><defs><style>.cls-1{fill:#68748f;}.cls-2{fill:#8ac9fe;}.cls-3{fill:#60b7ff;}.cls-4{fill:#ffe177;}.cls-5{fill:#ffd15b;}.cls-6{fill:#ea576b;}.cls-7{fill:#fd4755;}.cls-8{fill:#ffcebf;}.cls-9{fill:#ffb09e;}.cls-10{fill:#5d6980;}.cls-11{fill:#aee69c;}.cls-12{fill:#89daa4;}</style></defs><g id="Layer_2" data-name="Layer 2"><g id="Layer_1-2" data-name="Layer 1"><path class="cls-1" d="M424,247.68H263.72V223.56a7.72,7.72,0,0,0-15.44,0v24.12H88a7.72,7.72,0,0,0-7.73,7.72v31.69a7.73,7.73,0,0,0,15.45,0v-24H248.28v24.27a7.72,7.72,0,0,0,15.44,0V263.12H416.26v24.27a7.73,7.73,0,0,0,15.45,0v-32A7.72,7.72,0,0,0,424,247.68Z"/><path class="cls-2" d="M358,178.17v45.09H154V178.17a26.17,26.17,0,0,1,17.7-24.77L210.81,140l17.36-5.94h55.66L301.19,140l39.14,13.38A26.17,26.17,0,0,1,358,178.17Z"/><path class="cls-3" d="M248.77,134.08l-56.5,19.32a26.17,26.17,0,0,0-17.7,24.77v45.09H154V178.17a26.19,26.19,0,0,1,17.7-24.77l56.51-19.32Z"/><path class="cls-4" d="M512,471.92v38.9H336v-38.9a22.58,22.58,0,0,1,15.27-21.37l32.37-11.07,16.37-5.6h48l16.36,5.6,32.38,11.07A22.59,22.59,0,0,1,512,471.92Z"/><path class="cls-5" d="M430.88,433.88l-48.75,16.67a22.57,22.57,0,0,0-15.26,21.37v38.9H336v-38.9a22.59,22.59,0,0,1,15.26-21.37L400,433.88Z"/><path class="cls-6" d="M176,471.92v38.9H0v-38.9a22.59,22.59,0,0,1,15.27-21.37l32.38-11.07L64,433.88h48l16.37,5.6,32.37,11.07A22.58,22.58,0,0,1,176,471.92Z"/><path class="cls-7" d="M84.61,433.88,35.87,450.55A22.57,22.57,0,0,0,20.6,471.92v38.9H0v-38.9a22.59,22.59,0,0,1,15.27-21.37L64,433.88Z"/><path class="cls-5" d="M464.35,439.48a47.94,47.94,0,0,1-37.22,17.71h-6.29a48,48,0,0,1-37.23-17.71l16.37-5.6h48Z"/><path class="cls-8" d="M382.79,359.16v50a38.06,38.06,0,0,0,38,38.05h6.29a38,38,0,0,0,38-38.05v-50a11.64,11.64,0,0,0-11.65-11.65H394.44a11.65,11.65,0,0,0-11.65,11.65Z"/><path class="cls-9" d="M434.28,446.51a37.44,37.44,0,0,1-7.15.68h-6.3a38,38,0,0,1-38-38.05v-50a11.66,11.66,0,0,1,11.65-11.65H415a11.65,11.65,0,0,0-11.65,11.65v50A38.06,38.06,0,0,0,434.28,446.51Z"/><path class="cls-1" d="M382.79,372.18h16.52A22.86,22.86,0,0,0,415.94,365l11.3-11.95,7.34,12.8a12.6,12.6,0,0,0,10.92,6.32h19.67v-25.7a28.24,28.24,0,0,0-28.24-28.25H411a28.25,28.25,0,0,0-28.25,28.25Z"/><path class="cls-10" d="M411,318.23h20.6a28.25,28.25,0,0,0-28.25,28.25v25.33a22.2,22.2,0,0,1-4.08.37H382.8v-25.7A28.24,28.24,0,0,1,411,318.23Z"/><path class="cls-3" d="M301.19,140a54,54,0,0,1-41.54,19.48h-7.29A54,54,0,0,1,210.81,140l17.36-5.94h55.66Z"/><path class="cls-8" d="M208.25,47.45v58a44.11,44.11,0,0,0,44.11,44.1h7.29a44.11,44.11,0,0,0,44.1-44.1V47.45A13.5,13.5,0,0,0,290.24,34H221.76a13.5,13.5,0,0,0-13.51,13.5Z"/><path class="cls-9" d="M266.3,149a45.66,45.66,0,0,1-6.65.49h-7.3a44.11,44.11,0,0,1-44.1-44.1V47.45a13.51,13.51,0,0,1,13.51-13.51h20.6a13.51,13.51,0,0,0-13.51,13.51v58A44.13,44.13,0,0,0,266.3,149Z"/><path class="cls-1" d="M208.25,62.55H227.4a26.55,26.55,0,0,0,19.28-8.31l13.1-13.86,8.51,14.84a14.58,14.58,0,0,0,12.65,7.33h22.81V32.75A32.74,32.74,0,0,0,271,0H241a32.74,32.74,0,0,0-32.74,32.74Z"/><path class="cls-10" d="M241,0h20.59a32.75,32.75,0,0,0-32.75,32.75V62.51c-.48,0-1,0-1.45,0H208.25V32.75A32.75,32.75,0,0,1,241,0Z"/><path class="cls-7" d="M128.39,439.48a48,48,0,0,1-37.23,17.71H84.87a47.94,47.94,0,0,1-37.22-17.71L64,433.88h48Z"/><path class="cls-8" d="M46.83,359.16v50a38,38,0,0,0,38,38.05h6.29a38.06,38.06,0,0,0,38.05-38.05v-50a11.65,11.65,0,0,0-11.66-11.65H58.48A11.64,11.64,0,0,0,46.83,359.16Z"/><path class="cls-9" d="M98.31,446.51a37.44,37.44,0,0,1-7.15.68H84.87a38,38,0,0,1-38.05-38.05v-50a11.66,11.66,0,0,1,11.66-11.65H79.07a11.66,11.66,0,0,0-11.65,11.65v50A38,38,0,0,0,98.31,446.51Z"/><path class="cls-1" d="M46.83,372.18H63.34A22.88,22.88,0,0,0,80,365l11.3-11.95,7.33,12.8a12.6,12.6,0,0,0,10.92,6.32h19.68v-25.7A28.25,28.25,0,0,0,101,318.23H75.07a28.24,28.24,0,0,0-28.24,28.25v25.7Z"/><path class="cls-10" d="M75.07,318.23h20.6a28.25,28.25,0,0,0-28.25,28.25v25.33a22.2,22.2,0,0,1-4.08.37H46.82v-25.7A28.25,28.25,0,0,1,75.07,318.23Z"/><path class="cls-11" d="M344,471.92v38.9H168v-38.9a22.59,22.59,0,0,1,15.28-21.37l32.37-11.07,16.37-5.6h48l16.37,5.6,32.38,11.07A22.59,22.59,0,0,1,344,471.92Z"/><path class="cls-12" d="M252.59,433.88l-48.74,16.67a22.58,22.58,0,0,0-15.27,21.37v38.9H168v-38.9a22.58,22.58,0,0,1,15.27-21.37L232,433.88Z"/><path class="cls-12" d="M296.37,439.48a48,48,0,0,1-37.23,17.71h-6.28a48,48,0,0,1-37.23-17.71l16.37-5.6h48Z"/><path class="cls-8" d="M214.81,359.16v50a38.06,38.06,0,0,0,38.05,38.05h6.28a38,38,0,0,0,38.05-38.05v-50a11.65,11.65,0,0,0-11.65-11.65H226.46A11.65,11.65,0,0,0,214.81,359.16Z"/><path class="cls-9" d="M266.3,446.51a37.54,37.54,0,0,1-7.16.68h-6.28a38,38,0,0,1-38.05-38.05v-50a11.66,11.66,0,0,1,11.66-11.65h20.59a11.66,11.66,0,0,0-11.66,11.65v50A38.05,38.05,0,0,0,266.3,446.51Z"/><path class="cls-1" d="M214.81,372.18h16.52A22.86,22.86,0,0,0,248,365l11.3-11.95,7.34,12.8a12.58,12.58,0,0,0,10.92,6.32h19.67v-25.7A28.24,28.24,0,0,0,269,318.23H243.06a28.25,28.25,0,0,0-28.25,28.25Z"/><path class="cls-10" d="M243.06,318.23h20.59a28.25,28.25,0,0,0-28.25,28.25v25.33a21.93,21.93,0,0,1-4.07.37H214.81v-25.7A28.25,28.25,0,0,1,243.06,318.23Z"/></g></g></svg>