<svg xmlns="http://www.w3.org/2000/svg" viewBox="0 0 24 19.51"><defs><style>.cls-1{fill:#467080;}.cls-2{fill:#ececec;}.cls-3{fill:#dc594e;}.cls-4{fill:#7e7e80;}.cls-5{fill:#ff1a07;}.cls-6{fill:#f5bb00;}.cls-7{fill:#328270;}.cls-8{fill:#2660a4;}.cls-9{fill:#0d3160;}.cls-10{fill:#5a4146;}.cls-11{fill:#d29b6e;}.cls-12{fill:#79abe6;}.cls-13{fill:#f5bb76;}.cls-14{fill:#e6af78;}.cls-15{fill:none;}</style></defs><title>ic_projects</title><g id="Layer_2" data-name="Layer 2"><g id="Layer_1-2" data-name="Layer 1"><g id="presentation"><path id="Path_728" data-name="Path 728" class="cls-1" d="M9.44,6l4.93-3.75.39.52L9.84,6.49Z"/><path id="Path_729" data-name="Path 729" class="cls-1" d="M15.64,2.75,16,2.23,21,6l-.39.52Z"/><path id="Path_730" data-name="Path 730" class="cls-2" d="M7.85,4.94H22.56a.43.43,0,0,1,.43.43h0V15.66a.43.43,0,0,1-.43.43H7.85a.43.43,0,0,1-.43-.43h0V5.37a.43.43,0,0,1,.43-.43Z"/><path id="Path_731" data-name="Path 731" class="cls-3" d="M14.06,2A1.14,1.14,0,1,0,15.2.81h0A1.14,1.14,0,0,0,14.06,2Zm.6,0a.54.54,0,1,1,.54.54A.54.54,0,0,1,14.66,2Z"/><path id="Path_732" data-name="Path 732" class="cls-4" d="M13.21,10.74a2.9,2.9,0,0,1-4.1,0l2.05-2.05Z"/><path id="Path_733" data-name="Path 733" class="cls-5" d="M11.16,5.79a2.9,2.9,0,0,1,2,4.95L11.16,8.69Z"/><path id="Path_734" data-name="Path 734" class="cls-6" d="M11.16,5.79v2.9L9.11,6.64A2.89,2.89,0,0,1,11.16,5.79Z"/><path id="Path_735" data-name="Path 735" class="cls-7" d="M9.11,6.64l2.05,2.05-2.05,2A2.9,2.9,0,0,1,9.11,6.64Z"/><g id="Group_1237" data-name="Group 1237"><path id="Path_736" data-name="Path 736" d="M22.13,15.22h-.94V11.06h.94Z"/><path id="Path_737" data-name="Path 737" d="M20.85,15.22h-.94V7.65h.94Z"/><path id="Path_738" data-name="Path 738" d="M19.58,15.22h-.94V9.87h.94Z"/><path id="Path_739" data-name="Path 739" d="M18.31,15.22h-.94V11.86h.94Z"/><path id="Path_740" data-name="Path 740" d="M17,15.22H16.1V8.38H17Z"/><path id="Path_741" data-name="Path 741" d="M15.77,15.22h-.94V10.45h.94Z"/></g><g id="Group_1239" data-name="Group 1239"><g id="Group_1238" data-name="Group 1238"><path id="Path_742" data-name="Path 742" class="cls-8" d="M13.16,14.31,9.9,13.12l-2.34.78-2.34-.78L2,14.31a1.56,1.56,0,0,0-1,1.46v2.8H14.18v-2.8a1.56,1.56,0,0,0-1-1.46Z"/><path id="Path_743" data-name="Path 743" class="cls-9" d="M13.76,14.71a1.56,1.56,0,0,1,.42,1.06v2.8H11.85v-1.3a1.56,1.56,0,0,1,.46-1.1Z"/><path id="Path_744" data-name="Path 744" class="cls-10" d="M11.85,6.21V3a.78.78,0,0,0-.78-.78H6.4A3.12,3.12,0,0,0,3.28,5.29h0v.93a3.89,3.89,0,0,0,.2,1.23l.13.39a1.17,1.17,0,0,1,.06.37v.2h7.79V8.2a1.17,1.17,0,0,1,.06-.37l.13-.39a3.89,3.89,0,0,0,.2-1.23Z"/><path id="Path_746" data-name="Path 746" class="cls-11" d="M5.22,13.28a5,5,0,0,0,4.67,0V11.52H5.22Z"/><path id="Path_747" data-name="Path 747" class="cls-12" d="M7.56,13.9,6.32,15.14a.39.39,0,0,1-.55,0l0,0L4.45,13.4l.34-.71a.39.39,0,0,1,.52-.19l0,0Z"/><path id="Path_748" data-name="Path 748" class="cls-12" d="M7.56,13.9,8.8,15.14a.39.39,0,0,0,.55,0l0,0,1.29-1.7-.34-.71a.39.39,0,0,0-.52-.19l0,0Z"/><path id="Path_749" data-name="Path 749" class="cls-13" d="M7.56,12.69A3.89,3.89,0,0,1,3.67,8.79h0V8.4L4.32,8a1.17,1.17,0,0,0,.52-1V5.68S8,4.51,10.29,6.46V7a1.17,1.17,0,0,0,.52,1l.65.43V8.8a3.89,3.89,0,0,1-3.89,3.89Z"/><path id="Path_750" data-name="Path 750" class="cls-9" d="M1.36,14.71a1.56,1.56,0,0,0-.42,1.06v2.8H3.28v-1.3a1.56,1.56,0,0,0-.46-1.1Z"/><path id="Path_751" data-name="Path 751" class="cls-14" d="M6.69,6.61a7.2,7.2,0,0,1,3.6.39V6.46C8,4.51,4.84,5.68,4.84,5.68V7a1.17,1.17,0,0,1-.52,1l-.65.43v.39a3.89,3.89,0,0,0,3.42,3.86A3.88,3.88,0,0,1,6,10V7.39a.78.78,0,0,1,.69-.77Z"/></g><g id="Path_752" data-name="Path 752"><path class="cls-15" d="M.94,18.57h13.2V16s8.58.28,8.79.06.12-10.76,0-11-3.43,0-3.43,0L16.23,2.52s.36-1.69-1-1.57-1.08,1.57-1.08,1.57L11.77,4.43s0-1.52-.37-1.91-3.22-.33-6.22.2-1.51,5.2-1.51,5.2-.38,2.69,1.61,4v.5l-.86,1s-2.91.87-3.22,1.47A15.92,15.92,0,0,0,.94,18.57Z"/><path class="cls-15" d="M.94,18.57h13.2V16s4.41.14,7,.14a8.71,8.71,0,0,0,1.81-.08c.21-.22.12-10.76,0-11,0-.09-.43-.12-.94-.12-1,0-2.49.12-2.49.12L16.23,2.52S16.56.94,15.35.94h-.13c-1.36.12-1.08,1.57-1.08,1.57L11.78,4.43s0-1.52-.37-1.91a3.28,3.28,0,0,0-1.68-.25,27.32,27.32,0,0,0-4.53.45c-3,.53-1.52,5.2-1.52,5.2s-.38,2.69,1.61,4v.5l-.86,1s-2.91.87-3.22,1.46a15.92,15.92,0,0,0-.26,3.63M0,19.51l0-.92S0,17.8,0,17a5.75,5.75,0,0,1,.36-2.45c.22-.41.68-.81,2.23-1.4q.63-.24,1.28-.44l.32-.39A5.4,5.4,0,0,1,2.72,8c-.21-.74-.78-3.18.21-4.82A3,3,0,0,1,5,1.8a28.35,28.35,0,0,1,4.7-.47c1.6,0,2.07.25,2.34.52a1.79,1.79,0,0,1,.44.78l.68-.55A2.27,2.27,0,0,1,13.62.8,2.05,2.05,0,0,1,15.14,0h.21a1.74,1.74,0,0,1,1.41.63,2.27,2.27,0,0,1,.45,1.45l2.59,2Q20.89,4,22,4c.7,0,1.49,0,1.8.67.09.2.12.27.16,2.17q.07,3.74,0,7.49,0,.64,0,1.29a1.58,1.58,0,0,1-.33,1.13,1.56,1.56,0,0,1-1.18.35l-1.3,0c-1.83,0-4.59-.07-6-.11V19.5H0Z"/></g></g></g></g></g></svg>