<svg xmlns="http://www.w3.org/2000/svg" viewBox="0 0 24 24"><defs><style>.cls-1{fill:#0052a3;}.cls-2{fill:#e7e4e1;}</style></defs><title>ic_schedules</title><g id="Layer_2" data-name="Layer 2"><g id="Layer_1-2" data-name="Layer 1"><g id="calendar"><path id="Path_690" data-name="Path 690" class="cls-1" d="M23.5,7.5H.5V4.22A2.22,2.22,0,0,1,2.71,2H21.28A2.22,2.22,0,0,1,23.5,4.22Z"/><path id="Path_691" data-name="Path 691" d="M24,8H0V4.21A2.72,2.72,0,0,1,2.71,1.5H21.28A2.72,2.72,0,0,1,24,4.21ZM1,7H23V4.22A1.72,1.72,0,0,0,21.28,2.5H2.71A1.72,1.72,0,0,0,1,4.21Z"/><path id="Path_692" data-name="Path 692" class="cls-2" d="M21.28,23.5H2.71A2.21,2.21,0,0,1,.5,21.29h0V7.5h23V21.29a2.21,2.21,0,0,1-2.21,2.22Z"/><g id="Group_1220" data-name="Group 1220"><path id="Path_693" data-name="Path 693" d="M21.28,24H2.71A2.72,2.72,0,0,1,0,21.28V7H24V21.29A2.72,2.72,0,0,1,21.28,24ZM1,8V21.29A1.72,1.72,0,0,0,2.71,23H21.28A1.72,1.72,0,0,0,23,21.29V8Z"/><path id="Path_694" data-name="Path 694" d="M7.5,3.88a.5.5,0,0,1-.5-.5H7V.5a.5.5,0,0,1,1,0V3.39a.5.5,0,0,1-.5.49Z"/><path id="Path_695" data-name="Path 695" d="M4.5,3.88a.5.5,0,0,1-.5-.5H4V.5a.5.5,0,1,1,1,0V3.39A.5.5,0,0,1,4.5,3.88Z"/><path id="Path_696" data-name="Path 696" d="M19.5,3.88a.5.5,0,0,1-.5-.5V.5a.5.5,0,0,1,1,0V3.39a.5.5,0,0,1-.5.49Z"/><path id="Path_697" data-name="Path 697" d="M16.5,3.88a.5.5,0,0,1-.5-.5V.5a.5.5,0,0,1,1,0V3.39a.5.5,0,0,1-.5.49Z"/><path id="Path_698" data-name="Path 698" d="M9.38,14.68a1.69,1.69,0,0,0,.36-1,1.13,1.13,0,0,0-.39-.86,1.39,1.39,0,0,0-1-.36,2,2,0,0,0-1.73,1.06L5.5,12.85a4.21,4.21,0,0,1,1.23-1.26,3.2,3.2,0,0,1,1.73-.42,2.8,2.8,0,0,1,1.86.67,2.27,2.27,0,0,1,.8,1.83,2.47,2.47,0,0,1-.34,1.25,8.36,8.36,0,0,1-1.25,1.52l-2,2h3.83v1.37H5.6V18.62L8.16,16a13.79,13.79,0,0,0,1.22-1.37Z"/><path id="Path_699" data-name="Path 699" d="M16.51,14.68a1.69,1.69,0,0,0,.36-1,1.13,1.13,0,0,0-.39-.86,1.39,1.39,0,0,0-1-.36,2,2,0,0,0-1.73,1.06l-1.15-.66a4.21,4.21,0,0,1,1.23-1.26,3.19,3.19,0,0,1,1.73-.42,2.79,2.79,0,0,1,1.86.67,2.27,2.27,0,0,1,.8,1.83,2.47,2.47,0,0,1-.34,1.25,8.36,8.36,0,0,1-1.25,1.52l-2,2H18.5v1.37H12.72V18.62L15.28,16a13.77,13.77,0,0,0,1.22-1.37Z"/></g></g></g></g></svg>