<svg xmlns="http://www.w3.org/2000/svg" viewBox="0 0 24 20.96"><defs><style>.cls-1{fill:#fcab29;}.cls-2{fill:#dd8d19;}.cls-3{fill:#444966;}.cls-4{fill:#2e344c;}.cls-5{fill:#ec86c8;}.cls-6{fill:#d770b7;}.cls-7{fill:#ebeef2;}.cls-8{fill:#dce0e5;}.cls-9{fill:#d1d6de;}.cls-10{fill:#48cfb7;}.cls-10,.cls-11,.cls-12,.cls-14{stroke:#000;}.cls-10,.cls-11,.cls-12{stroke-width:0.45px;}.cls-11{fill:#1b3d66;}.cls-12{fill:#ed5575;}.cls-13,.cls-14{fill:none;}.cls-14{stroke-width:0.89px;}</style></defs><title>ic_task</title><g id="Layer_2" data-name="Layer 2"><g id="Layer_1-2" data-name="Layer 1"><g id="task"><path id="Path_753" data-name="Path 753" class="cls-1" d="M22.12,4.28,20.22,3.1a.32.32,0,0,0-.17,0H1.73a.85.85,0,0,0-.85.85V6.08a.85.85,0,0,0,.85.85H20.06a.32.32,0,0,0,.17,0L22.12,5.7a.83.83,0,0,0,0-1.42Z"/><path id="Path_754" data-name="Path 754" class="cls-2" d="M22.12,5.23l-1.89.4-.17,0H1.73c-.47,0-.85-.13-.85-.29v.72a.85.85,0,0,0,.85.85H20.06a.32.32,0,0,0,.17,0L22.12,5.7A.83.83,0,0,0,22.51,5C22.51,5.09,22.36,5.18,22.12,5.23Z"/><path id="Path_755" data-name="Path 755" class="cls-3" d="M22.12,4.28,20.22,3.1a.32.32,0,0,0-.17,0h-.32V6.92h.32a.32.32,0,0,0,.17,0L22.12,5.7a.83.83,0,0,0,0-1.42Z"/><path id="Path_756" data-name="Path 756" class="cls-4" d="M22.12,5.23l-1.89.4-.17,0h-.32V6.92h.32a.32.32,0,0,0,.17,0L22.12,5.7A.83.83,0,0,0,22.51,5C22.51,5.09,22.36,5.18,22.12,5.23Z"/><path id="Path_757" data-name="Path 757" class="cls-5" d="M2.73,6.07V3.9a.85.85,0,0,1,.85-.85H1.73a.85.85,0,0,0-.85.85V6.08a.85.85,0,0,0,.85.85H3.58A.85.85,0,0,1,2.73,6.07Z"/><path id="Path_758" data-name="Path 758" class="cls-6" d="M2.73,6.08V5.65h-1c-.47,0-.85-.13-.85-.29v.72a.85.85,0,0,0,.85.85H3.58a.85.85,0,0,1-.85-.85Z"/><path id="Path_759" data-name="Path 759" class="cls-7" d="M17.13,1.81H4.51a.32.32,0,0,0-.32.32h0v16.4a1.54,1.54,0,0,0,1.54,1.54h9.12a.32.32,0,0,0,.22-.09l3.5-3.51a.32.32,0,0,0,.09-.22V3.34A1.54,1.54,0,0,0,17.13,1.81Z"/><path id="Path_760" data-name="Path 760" class="cls-8" d="M17.13,1.81H16a1.54,1.54,0,0,1,1.54,1.54v12.9a.32.32,0,0,1-.09.22l-.17.17h1.1l.17-.17a.32.32,0,0,0,.09-.22V3.34A1.54,1.54,0,0,0,17.13,1.81Z"/><path id="Path_761" data-name="Path 761" class="cls-9" d="M18.64,16.13a.32.32,0,0,0-.29-.2h-3.5a.32.32,0,0,0-.32.32v3.5a.32.32,0,0,0,.54.22l3.5-3.5A.32.32,0,0,0,18.64,16.13Z"/><g id="Group_1240" data-name="Group 1240"><path id="Path_762" data-name="Path 762" class="cls-3" d="M6.61,3.38a.32.32,0,0,1-.32-.32h0V1.19a.32.32,0,1,1,.63,0V3.06A.32.32,0,0,1,6.61,3.38Z"/><path id="Path_763" data-name="Path 763" class="cls-3" d="M9.83,3.38a.32.32,0,0,1-.32-.32h0V1.19a.32.32,0,1,1,.63,0V3.06A.32.32,0,0,1,9.83,3.38Z"/><path id="Path_764" data-name="Path 764" class="cls-3" d="M13,3.38a.32.32,0,0,1-.32-.32V1.19a.32.32,0,1,1,.63,0V3.06A.32.32,0,0,1,13,3.38Z"/><path id="Path_765" data-name="Path 765" class="cls-3" d="M16.25,3.38a.32.32,0,0,1-.32-.32V1.19a.32.32,0,0,1,.63,0V3.06A.32.32,0,0,1,16.25,3.38Z"/></g><path id="Path_766" data-name="Path 766" class="cls-10" d="M7.84,7.8a.43.43,0,0,1-.31-.13l-.86-.86a.43.43,0,1,1,.6-.63h0l.55.55L9.13,5.46a.43.43,0,0,1,.63.6h0l-1.6,1.6A.43.43,0,0,1,7.84,7.8Z"/><g id="Group_1241" data-name="Group 1241"><path id="Path_767" data-name="Path 767" class="cls-11" d="M15.77,6H11.33a.32.32,0,0,1,0-.63h4.44a.32.32,0,1,1,0,.63h0Z"/><path id="Path_768" data-name="Path 768" class="cls-11" d="M12.89,7.45H11.33a.32.32,0,0,1,0-.63h1.57a.32.32,0,0,1,0,.63Z"/></g><path id="Path_769" data-name="Path 769" class="cls-10" d="M7.84,12.25a.43.43,0,0,1-.31-.13l-.86-.86a.43.43,0,0,1,.6-.63h0l.55.55L9.13,9.9a.43.43,0,0,1,.63.6h0l-1.6,1.6A.43.43,0,0,1,7.84,12.25Z"/><g id="Group_1242" data-name="Group 1242"><path id="Path_770" data-name="Path 770" class="cls-11" d="M15.77,10.41H11.33a.32.32,0,0,1,0-.63h4.44a.32.32,0,0,1,0,.63Z"/><path id="Path_771" data-name="Path 771" class="cls-11" d="M12.89,11.9H11.33a.32.32,0,0,1,0-.63h1.57a.32.32,0,0,1,0,.63Z"/><path id="Path_772" data-name="Path 772" class="cls-11" d="M15.77,15.5H11.33a.32.32,0,0,1,0-.63h4.44a.32.32,0,0,1,0,.63Z"/><path id="Path_773" data-name="Path 773" class="cls-11" d="M12.89,17H11.33a.32.32,0,0,1,0-.63h1.57a.32.32,0,0,1,0,.63Z"/></g><path id="Path_774" data-name="Path 774" class="cls-12" d="M8.65,17.4A1.45,1.45,0,1,1,10.1,16,1.45,1.45,0,0,1,8.65,17.4Zm0-2.26a.81.81,0,1,0,.81.81A.81.81,0,0,0,8.65,15.14Z"/><g id="Path_775" data-name="Path 775"><path class="cls-13" d="M5.14,20l9.77.09,3.82-3.7V7h1.19l2.6-2.07-2.6-1.82H18.72A2.29,2.29,0,0,0,17.84,2a2.9,2.9,0,0,0-1.29-.16,1.38,1.38,0,0,0-.07-.71.27.27,0,0,0-.49,0c-.14.22,0,.71,0,.71H13.34V1.12a.36.36,0,0,0-.64,0v.71H10.09V1a.35.35,0,0,0-.57.08v.71H6.91V1A.35.35,0,0,0,6.42,1,.34.34,0,0,0,6.34,1v.79A17.45,17.45,0,0,0,4.21,2V3.05H1.86S1,3,.92,3.74s0,1.56,0,2.36.94.79.94.79H4.21s-.12,11.64.15,12.3a1.3,1.3,0,0,0,.78.8Z"/><path class="cls-13" d="M14.9,20.06l3.82-3.7V7h1.19l2.6-2.07-2.6-1.82H18.73A2.3,2.3,0,0,0,17.84,2a2.51,2.51,0,0,0-1-.18h-.3a1.38,1.38,0,0,0-.07-.71.27.27,0,0,0-.49,0c-.14.22,0,.71,0,.71H13.34V1.12a.37.37,0,0,0-.64,0v.71H10.09V1A.28.28,0,0,0,9.86.92a.42.42,0,0,0-.34.2v.71H6.91V1A.35.35,0,0,0,6.42,1L6.34,1v.79A17.53,17.53,0,0,0,4.21,2V3H1.85c-.11,0-.89,0-.93.68s0,1.56,0,2.36.87.79.94.79H4.21s-.12,11.64.15,12.3a1.3,1.3,0,0,0,.78.8l9.77.08m.36.89H14.9l-9.77-.08H5l-.11,0a2.2,2.2,0,0,1-1.38-1.33c-.1-.24-.23-.57-.24-6.73,0-2,0-3.92,0-5H1.85A1.73,1.73,0,0,1,0,6.12c0-1,0-1.81,0-2.44A1.67,1.67,0,0,1,1.84,2.16H3.32V1.59l.31-.27c.24-.2.43-.26,1.64-.33h.18V.75L5.62.52a1.24,1.24,0,0,1,2,0L7.8.75V.94h.82V.86L8.77.63A1.31,1.31,0,0,1,9.86,0a1.17,1.17,0,0,1,1,.49L11,.75V.94h.83V.84L12,.61a1.25,1.25,0,0,1,2.09,0l.16.23v.1h.87a1.26,1.26,0,0,1,.14-.3,1.15,1.15,0,0,1,2,0,1.31,1.31,0,0,1,.15.32,3,3,0,0,1,.84.23,2.58,2.58,0,0,1,1,1h.93l.23.16L23,4.14l1,.68-.93.74-2.6,2.07-.24.19h-.61v8.9l-.27.26-3.82,3.7-.26.25Z"/></g><path id="Path_776" data-name="Path 776" class="cls-14" d="M3.72,2.52l-1,1h0a2.41,2.41,0,0,0,0,2.84q.53.68,1.11,1.3"/></g></g></g></svg>