<svg xmlns="http://www.w3.org/2000/svg" viewBox="0 0 512 499.91"><defs><style>.cls-1{fill:#a7c7d3;}.cls-2{fill:#fecbaa;}.cls-3{fill:#fdd559;}.cls-4{fill:#ff8812;}.cls-5{fill:#ffae85;}.cls-6{fill:#ff84a7;}.cls-7{fill:#ef6085;}.cls-8{fill:#fedfc5;}.cls-9{fill:#83d9ff;}.cls-10{fill:#5186ff;}</style></defs><g id="Layer_2" data-name="Layer 2"><g id="Layer_1-2" data-name="Layer 1"><path class="cls-1" d="M254.57,472.62a7.79,7.79,0,1,1,.44,0h-.44Zm-31.07-1.17a7.09,7.09,0,0,1-.92-.05h0A7.73,7.73,0,1,1,224.15,456l.24,0a7.73,7.73,0,0,1-.89,15.4Zm62.07-2.38a7.73,7.73,0,0,1-1.49-15.31l.15,0a7.73,7.73,0,0,1,2.9,15.18l-.06,0A8.46,8.46,0,0,1,285.57,469.07Zm-92.73-3.5a7.65,7.65,0,0,1-2-.28h0a7.73,7.73,0,0,1,4-14.94l.16,0a7.73,7.73,0,0,1-2,15.19Zm122.84-4.75a7.73,7.73,0,0,1-2.65-15l.13,0a7.73,7.73,0,1,1,5.23,14.54l-.07,0A7.71,7.71,0,0,1,315.68,460.82ZM163.41,455a7.56,7.56,0,0,1-3.15-.69l-.1,0a7.67,7.67,0,1,1,3.25.73Zm180.73-7a7.82,7.82,0,1,1,3.8-1l-.17.1A7.78,7.78,0,0,1,344.14,448.05ZM414.32,379l.05,0-.82-.58ZM57.64,345.3a7.73,7.73,0,0,1-7.16-4.82l0-.06a7.73,7.73,0,0,1,14.28-5.9l.06.14a7.73,7.73,0,0,1-4.25,10.07A7.85,7.85,0,0,1,57.64,345.3Zm383.53-14.83a7.78,7.78,0,1,1,7.43-5.59l-.1.3A7.73,7.73,0,0,1,441.17,330.47Zm-393-14.92a7.74,7.74,0,0,1-7.51-5.93l0-.1a7.73,7.73,0,1,1,15-3.59l0,.1A7.73,7.73,0,0,1,50,315.34,8,8,0,0,1,48.19,315.55Zm400.09-15.47a7.78,7.78,0,1,1,7.65-6.71l-.05.32A7.73,7.73,0,0,1,448.28,300.08ZM43.42,284.69a7.71,7.71,0,0,1-7.68-7l0-.32a7.73,7.73,0,1,1,8.39,7.33C43.87,284.68,43.65,284.69,43.42,284.69ZM450.65,269a7.73,7.73,0,0,1-7.73-7.73v-.57a7.73,7.73,0,1,1,15.45,0v.57A7.72,7.72,0,0,1,450.65,269ZM43.41,253.5c-.23,0-.45,0-.68,0a7.78,7.78,0,1,1,8.39-7.34l0,.32A7.72,7.72,0,0,1,43.41,253.5Zm404.81-16.12a7.73,7.73,0,0,1-7.6-6.39l-.05-.32a7.71,7.71,0,1,1,7.65,6.71Zm1.3-8-1.31.19ZM48.09,222.64a8,8,0,0,1-1.8-.21,7.78,7.78,0,1,1,9.38-6l-.07.32A7.71,7.71,0,0,1,48.09,222.64Zm393-15.6a7.8,7.8,0,0,1-7.37-5.33l-.08-.27a7.73,7.73,0,0,1,14.77-4.54h0a7.68,7.68,0,0,1-4.9,9.73A7.53,7.53,0,0,1,441.13,207ZM57.46,192.85a7.73,7.73,0,0,1-7.16-10.64l0-.09a7.73,7.73,0,0,1,14.32,5.81l0,.1A7.73,7.73,0,0,1,57.46,192.85Zm372-14.76a7.77,7.77,0,0,1-6.9-4.2l-.12-.23a7.73,7.73,0,0,1,13.87-6.82v0a7.68,7.68,0,0,1-3.33,10.37A7.56,7.56,0,0,1,429.41,178.09ZM71.3,164.86a7.63,7.63,0,0,1-4-1.13,7.78,7.78,0,1,1,10.8-2.88l-.18.31A7.74,7.74,0,0,1,71.3,164.86Zm342.07-13.57a7.77,7.77,0,1,1,6.22-12.3l.17.23a7.73,7.73,0,0,1-6.39,12.07Zm-324.12-12a7.73,7.73,0,0,1-5.94-12.67l.06-.08a7.73,7.73,0,1,1,11.89,9.88l-.06.07A7.69,7.69,0,0,1,89.25,139.32Zm304.21-12.07A7.75,7.75,0,1,1,398.91,114l.13.13a7.72,7.72,0,0,1-5.58,13.08ZM110.87,116.8a7.72,7.72,0,0,1-5.12-13.51l0,0a7.73,7.73,0,0,1,10.34,11.49l-.13.11A7.71,7.71,0,0,1,110.87,116.8Zm259.26-10.29a7.76,7.76,0,0,1-4.56-1.49l-.26-.2a7.72,7.72,0,1,1,4.82,1.69Zm.7-8.78-.78,1Zm-235.17.1a7.81,7.81,0,1,1,4.41-1.39l-.27.18A7.66,7.66,0,0,1,135.66,97.83ZM343.9,89.55a7.59,7.59,0,0,1-3.61-.91l-.18-.1A7.72,7.72,0,0,1,347.55,75l0,0a7.73,7.73,0,0,1-3.68,14.53ZM163,82.86a7.72,7.72,0,0,1-3.19-14.76L160,68a7.73,7.73,0,1,1,3,14.84Z"/><path class="cls-2" d="M306.52,411.12,190.19,294.79a18.63,18.63,0,1,1,26.34-26.34l-30-29.95a18.62,18.62,0,0,1,24.57-27.88l-11.39-11.4a18.62,18.62,0,0,1-5.48-13.2,16.94,16.94,0,0,1,.25-3,18.63,18.63,0,0,1,31.57-10.13l13.06,13a18.62,18.62,0,0,1-5.23-16.15,18.4,18.4,0,0,1,5.21-10.21,18.65,18.65,0,0,1,26.36,0l75.6,75.6.21-.3a34.07,34.07,0,0,1,48.22,0l35.25,35.25a36.18,36.18,0,0,1,10.6,25.53l0,22.05a38.9,38.9,0,0,0,11.41,27.49l7.86,7.86L364.75,443,354.7,433a39,39,0,0,0-25-11.32A36.1,36.1,0,0,1,306.52,411.12Z"/><path class="cls-3" d="M358.9,448.85,461,346.8a8.59,8.59,0,0,1,12.17,0l36.35,36.34a8.62,8.62,0,0,1,0,12.18L407.42,497.37a8.61,8.61,0,0,1-12.17,0L358.9,461A8.62,8.62,0,0,1,358.9,448.85Z"/><path class="cls-4" d="M463.67,392.61a7.71,7.71,0,1,0,0-10.92A7.73,7.73,0,0,0,463.67,392.61Z"/><path class="cls-5" d="M367.12,261.21l-26-26,.21-.3a34,34,0,0,1,13.17-8.18l23.58,23.59a7.73,7.73,0,1,1-10.93,10.92Z"/><path class="cls-2" d="M205.48,411.14,321.81,294.8a18.63,18.63,0,0,0,0-26.36,18.41,18.41,0,0,0-10.2-5.21,18.61,18.61,0,0,0-16.16,5.23l29.95-29.95a18.62,18.62,0,0,0-24.57-27.88l11.4-11.4A18.6,18.6,0,0,0,317.73,186a19.28,19.28,0,0,0-.25-3,18.63,18.63,0,0,0-31.57-10.12l-13.06,13.05a18.63,18.63,0,0,0,5.23-16.16,18.41,18.41,0,0,0-5.21-10.2,18.64,18.64,0,0,0-26.36,0l-75.6,75.6-.22-.3a34.05,34.05,0,0,0-48.21,0L87.23,270.18a36.2,36.2,0,0,0-10.6,25.53l0,22.05A38.92,38.92,0,0,1,65.2,345.25l-7.86,7.86L147.25,443l10.05-10a38.92,38.92,0,0,1,25-11.32A36.23,36.23,0,0,0,205.48,411.14Z"/><path class="cls-6" d="M153.1,448.86,51,346.81a8.61,8.61,0,0,0-12.17,0L2.52,383.15a8.62,8.62,0,0,0,0,12.18L104.57,497.38a8.6,8.6,0,0,0,12.18,0L153.1,461A8.62,8.62,0,0,0,153.1,448.86Z"/><path class="cls-7" d="M118.26,462.55a7.71,7.71,0,1,0-10.91,0A7.72,7.72,0,0,0,118.26,462.55Z"/><path class="cls-5" d="M144.88,261.22l26-26-.22-.3a33.91,33.91,0,0,0-13.16-8.18L134,250.29a7.73,7.73,0,0,0,10.93,10.93Z"/><path class="cls-8" d="M330.4,132.34V296.86a18.63,18.63,0,1,1-37.25,0v42.36a18.61,18.61,0,0,1-37.09,2.33v16.13a18.63,18.63,0,0,1-5.46,13.2,17.31,17.31,0,0,1-2.32,2,18.63,18.63,0,0,1-29.48-15.16V339.22a18.62,18.62,0,0,1-7.73,15.12,18.42,18.42,0,0,1-10.9,3.54,18.65,18.65,0,0,1-18.63-18.66V232.3l-.36.06a34.06,34.06,0,0,1-34.07-34.12V148.39a36.17,36.17,0,0,1,10.56-25.54l15.58-15.61a38.92,38.92,0,0,0,11.37-27.51V68.62H311.77v14.2a38.94,38.94,0,0,0,9.67,25.68A36.14,36.14,0,0,1,330.4,132.34Z"/><path class="cls-5" d="M321.83,268.44a18.41,18.41,0,0,0-10.2-5.21,18.61,18.61,0,0,0-16.16,5.23l29.95-29.95a18.62,18.62,0,0,0-24.57-27.88l11.41-11.4A18.63,18.63,0,0,0,317.73,186a18.16,18.16,0,0,0-.25-3,18.63,18.63,0,0,0-31.57-10.12l-13.06,13.05a18.63,18.63,0,0,0,5.23-16.16,18.41,18.41,0,0,0-5.21-10.2,18.64,18.64,0,0,0-26.36,0l-75.6,75.6-.22-.3a33.91,33.91,0,0,0-13.16-8.18,34.31,34.31,0,0,0-17.69-1.09,49.65,49.65,0,0,0,19.39,17.07,51.05,51.05,0,0,0,6.86,2.78v93.75a34.11,34.11,0,0,0,40.74,33.46A34.23,34.23,0,0,0,226.59,390l95.22-95.23A18.63,18.63,0,0,0,321.83,268.44Z"/><path class="cls-5" d="M345.85,296.86v-65.8a34.76,34.76,0,0,0-4.55,3.82l-.22.3-75.6-75.6a18.65,18.65,0,0,0-26.36,0,18.4,18.4,0,0,0-5.21,10.21,18.62,18.62,0,0,0,5.23,16.15l-13.06-13a18.59,18.59,0,0,0-16.15-5.23A18.58,18.58,0,0,0,194.51,183a19,19,0,0,0-.25,3,18.62,18.62,0,0,0,5.48,13.2l11.4,11.4a18.61,18.61,0,0,0-29.81,11.72,17.6,17.6,0,0,0-.23,3,18.51,18.51,0,0,0,5.47,13.18l30,29.95a18.63,18.63,0,1,0-26.34,26.35l77.93,77.93a35,35,0,0,0,6.4.6,33.84,33.84,0,0,0,19.95-6.45,35.41,35.41,0,0,0,4.16-3.55,33.87,33.87,0,0,0,10-24.11v-8.4c1,.1,2.11.14,3.17.14A34.13,34.13,0,0,0,345.85,296.86Z"/><path class="cls-8" d="M330.4,132.34V296.86a18.62,18.62,0,0,1-18.62,18.65c-.28,0-.58,0-.88,0a18.39,18.39,0,0,1-10-3.5h0a18.63,18.63,0,0,1-7.72-15.12v42.36a18.61,18.61,0,0,1-37.09,2.33v16.13a18.63,18.63,0,0,1-5.46,13.2,17.31,17.31,0,0,1-2.32,2,18.63,18.63,0,0,1-29.48-15.16V339.22a18.62,18.62,0,0,1-7.73,15.12,18.42,18.42,0,0,1-10.9,3.54,18.65,18.65,0,0,1-18.63-18.66V232.3l-.36.06a34.06,34.06,0,0,1-34.07-34.12V148.39a36.17,36.17,0,0,1,10.56-25.54l15.58-15.61a39,39,0,0,0,11.37-27.51V68.62H311.77v14.2A35.35,35.35,0,0,0,313,92.43a38.69,38.69,0,0,0,8.44,16.07A36.42,36.42,0,0,1,330.4,132.34Z"/><path class="cls-2" d="M330.4,132.34V296.86a18.62,18.62,0,0,1-18.62,18.65c-.28,0-.58,0-.88,0a18.39,18.39,0,0,1-10-3.5l.31-158.53a24.21,24.21,0,0,0-.61-4.4c-7.11-34.63-36.34-57.83-71.69-57.83h-46a38.63,38.63,0,0,0,1.74-11.5V68.62H311.77v14.2A35.35,35.35,0,0,0,313,92.43a38.69,38.69,0,0,0,8.44,16.07A36.42,36.42,0,0,1,330.4,132.34Z"/><path class="cls-9" d="M320,68.62H175.71A8.61,8.61,0,0,1,167.1,60V8.61A8.62,8.62,0,0,1,175.71,0H320a8.62,8.62,0,0,1,8.61,8.61V60A8.61,8.61,0,0,1,320,68.62Z"/><path class="cls-10" d="M207.89,34.31A7.72,7.72,0,1,0,200.17,42,7.71,7.71,0,0,0,207.89,34.31Z"/><path class="cls-2" d="M300.88,210.76V312a18.62,18.62,0,0,1-7.73-15.13v42.36a18.56,18.56,0,0,1-5.45,13.19,17.69,17.69,0,0,1-2.28,1.94V210.76a7.73,7.73,0,0,1,15.46,0Z"/><path class="cls-2" d="M263.74,210.76V354.42a18.61,18.61,0,0,1-7.68-12.87v16.13a18.63,18.63,0,0,1-5.46,13.2,17.43,17.43,0,0,1-2.32,2V210.76a7.73,7.73,0,0,1,15.46,0Z"/><path class="cls-2" d="M226.52,210.76v162a18.63,18.63,0,0,1-7.72-15.12V339.21a18.63,18.63,0,0,1-7.73,15.13V210.76a7.73,7.73,0,1,1,15.45,0Z"/><path class="cls-2" d="M181.55,195.49V232.3l-.37.06a33.94,33.94,0,0,1-15.09-3.52V195.49a7.73,7.73,0,0,1,15.46,0Z"/></g></g></svg>