<svg height="512" viewBox="0 0 512 512" width="512" xmlns="http://www.w3.org/2000/svg"><g><g><rect fill="#e0e0e2" height="280" rx="16" width="480" x="16" y="56"/><g fill="#5f4d37"><path d="m240 32h32v24h-32z"/><path d="m128 480h-32l32-144h32z"/><path d="m384 480h32l-32-144h-32z"/></g><path d="m192 80h128v112h-128z" fill="#83d8f4"/><g fill="#ffda44"><path d="m40 128h128v184h-128z"/><path d="m344 80h128v72h-128z"/><path d="m192 288h128v24h-128z"/></g><g fill="#ff9811"><path d="m344 176h64v40h-64z"/><path d="m40 80h31v24h-31z"/><path d="m432 176h40v40h-40z"/></g></g><g><path d="m480 48h-200v-16a8 8 0 0 0 -8-8h-32a8 8 0 0 0 -8 8v16h-200a24.032 24.032 0 0 0 -24 24v248a24.032 24.032 0 0 0 24 24h86.03l-28.45 128h-9.58a8 8 0 0 0 0 16h352a8 8 0 0 0 0-16h-9.58l-28.45-128h86.03a24.032 24.032 0 0 0 24-24v-248a24.032 24.032 0 0 0 -24-24zm-232-8h16v8h-16zm-126.42 432h-15.61l28.45-128h15.61zm16.39 0 28.45-128h179.16l28.45 128zm268.06 0h-15.61l-28.45-128h15.61zm81.97-152a8.011 8.011 0 0 1 -8 8h-448a8.011 8.011 0 0 1 -8-8v-248a8.011 8.011 0 0 1 8-8h448a8.011 8.011 0 0 1 8 8z"/><path d="m464 472h-8a8 8 0 0 0 0 16h8a8 8 0 0 0 0-16z"/><path d="m320 72h-128a8 8 0 0 0 -8 8v112a8 8 0 0 0 8 8h128a8 8 0 0 0 8-8v-112a8 8 0 0 0 -8-8zm-8 112h-112v-96h112z"/><path d="m168 120h-128a8 8 0 0 0 -8 8v184a8 8 0 0 0 8 8h128a8 8 0 0 0 8-8v-184a8 8 0 0 0 -8-8zm-8 184h-112v-168h112z"/><path d="m472 72h-128a8 8 0 0 0 -8 8v72a8 8 0 0 0 8 8h128a8 8 0 0 0 8-8v-72a8 8 0 0 0 -8-8zm-8 72h-112v-56h112z"/><path d="m320 280h-128a8 8 0 0 0 -8 8v24a8 8 0 0 0 8 8h128a8 8 0 0 0 8-8v-24a8 8 0 0 0 -8-8zm-8 24h-112v-8h112z"/><path d="m344 224h64a8 8 0 0 0 8-8v-40a8 8 0 0 0 -8-8h-64a8 8 0 0 0 -8 8v40a8 8 0 0 0 8 8zm8-40h48v24h-48z"/><path d="m40 112h31a8 8 0 0 0 8-8v-24a8 8 0 0 0 -8-8h-31a8 8 0 0 0 -8 8v24a8 8 0 0 0 8 8zm8-24h15v8h-15z"/><path d="m168 72h-72a8 8 0 0 0 0 16h72a8 8 0 0 0 0-16z"/><path d="m120 112a8 8 0 0 0 0-16h-24a8 8 0 0 0 0 16z"/><path d="m152 112a8 8 0 0 0 0-16h-8a8 8 0 0 0 0 16z"/><path d="m320 208h-128a8 8 0 0 0 0 16h128a8 8 0 0 0 0-16z"/><path d="m320 232h-128a8 8 0 0 0 0 16h128a8 8 0 0 0 0-16z"/><path d="m192 272h96a8 8 0 0 0 0-16h-96a8 8 0 0 0 0 16z"/><path d="m320 256h-8a8 8 0 0 0 0 16h8a8 8 0 0 0 0-16z"/><path d="m472 232h-128a8 8 0 0 0 0 16h128a8 8 0 0 0 0-16z"/><path d="m472 280h-128a8 8 0 0 0 0 16h128a8 8 0 0 0 0-16z"/><path d="m344 272h96a8 8 0 0 0 0-16h-96a8 8 0 0 0 0 16z"/><path d="m472 256h-8a8 8 0 0 0 0 16h8a8 8 0 0 0 0-16z"/><path d="m440 304h-96a8 8 0 0 0 0 16h96a8 8 0 0 0 0-16z"/><path d="m472 304h-8a8 8 0 0 0 0 16h8a8 8 0 0 0 0-16z"/><path d="m472 168h-40a8 8 0 0 0 -8 8v40a8 8 0 0 0 8 8h40a8 8 0 0 0 8-8v-40a8 8 0 0 0 -8-8zm-8 40h-24v-24h24z"/></g></g></svg>