<svg xmlns="http://www.w3.org/2000/svg" viewBox="0 0 25.02 22.43"><defs><style>.cls-1{fill:#7e5c62;}.cls-2{fill:#996459;}.cls-3{fill:#ba7958;}.cls-4{fill:#ffcd00;}.cls-5{fill:#ffe671;}.cls-6{fill:none;stroke:#000;stroke-width:1.02px;}</style></defs><title>ic_travel</title><g id="Layer_2" data-name="Layer 2"><g id="Layer_1-2" data-name="Layer 1"><g id="briefcase"><g id="Group_1222" data-name="Group 1222"><g id="Group_1221" data-name="Group 1221"><path id="Path_711" data-name="Path 711" class="cls-1" d="M16,4c-.31,0-.56-.17-.56-.37V2.19c0-.2.25-.37.56-.37s.56.17.56.37V3.68C16.6,3.88,16.35,4,16,4Z"/></g></g><g id="Group_1224" data-name="Group 1224"><g id="Group_1223" data-name="Group 1223"><path id="Path_712" data-name="Path 712" class="cls-1" d="M9,4c-.31,0-.56-.17-.56-.37V2.19c0-.2.25-.37.56-.37s.56.17.56.37V3.68C9.54,3.88,9.29,4,9,4Z"/></g></g><g id="Group_1225" data-name="Group 1225"><path id="Path_713" data-name="Path 713" class="cls-2" d="M23.29,13H1.74a.37.37,0,0,0-.37.37h0v6.32a1.86,1.86,0,0,0,1.86,1.86H21.81a1.86,1.86,0,0,0,1.86-1.86V13.34a.37.37,0,0,0-.37-.37Z"/></g><g id="Group_1226" data-name="Group 1226"><path id="Path_714" data-name="Path 714" class="cls-3" d="M22.55,3.68H2.49A1.86,1.86,0,0,0,.63,5.53V12a1.87,1.87,0,0,0,1.14,1.72,27.34,27.34,0,0,0,9.63,2.17h2.24a27.32,27.32,0,0,0,9.62-2.17A1.87,1.87,0,0,0,24.41,12V5.53A1.86,1.86,0,0,0,22.55,3.68Z"/></g><g id="Group_1227" data-name="Group 1227"><path id="Path_715" data-name="Path 715" class="cls-1" d="M17,11.85a1.49,1.49,0,0,0-1.49-1.49H9.55a1.49,1.49,0,0,0-1.49,1.49v3.69a27.61,27.61,0,0,0,3.34.35h2.24A27.48,27.48,0,0,0,17,15.54Z"/></g><g id="Group_1228" data-name="Group 1228"><path id="Path_716" data-name="Path 716" class="cls-4" d="M12.89,17h-.74a.74.74,0,0,1-.74-.74h0V14.82a.74.74,0,0,1,.74-.74h.74a.74.74,0,0,1,.74.74h0v1.49a.74.74,0,0,1-.74.74Z"/></g><g id="Group_1229" data-name="Group 1229"><path id="Path_717" data-name="Path 717" class="cls-2" d="M16.61,2.36a.74.74,0,0,1-.21,0,14.85,14.85,0,0,0-7.75,0A.74.74,0,0,1,8.22.91h0a16.33,16.33,0,0,1,8.6,0,.74.74,0,0,1-.21,1.46Z"/></g><g id="Group_1230" data-name="Group 1230"><path id="Path_718" data-name="Path 718" class="cls-5" d="M13.26,14.08H11.77a.37.37,0,0,0-.37.37h0v.74a.74.74,0,0,0,.74.74h.74a.74.74,0,0,0,.74-.74h0v-.74a.37.37,0,0,0-.37-.37h0Z"/></g><path id="Path_719" data-name="Path 719" class="cls-6" d="M23.73,13.48l0,6.64c-1,2.76-22.15,2-22.42,0V13.48L.53,12.35V4.55s-.32-.74,1.64-1,4.66.3,6.21,0V2.35s-.72.36-.95,0,0-1.42,0-1.42h.06a30.23,30.23,0,0,1,9.9,0s.23,1.07,0,1.42-.91,0-.91,0V3.55c1.82.37,5.29-.11,7.29.26,0,0,.57.17.69,1.21s0,8,0,8Z"/></g></g></g></svg>