<svg xmlns="http://www.w3.org/2000/svg" width="384.484" height="377.739" viewBox="0 0 384.484 377.739">
  <g id="Group_3838" data-name="Group 3838" transform="translate(-597.23 -66.148)">
    <path id="Path_1386" data-name="Path 1386" d="M964.974,95.991H825.89v-12.1a17.749,17.749,0,0,0-20.452-17.532L612.266,96.177a17.734,17.734,0,0,0-15.036,17.531V392.877a17.746,17.746,0,0,0,14.736,17.483l193.172,33.27a17.752,17.752,0,0,0,20.752-17.483V398.623H964.974a15.955,15.955,0,0,0,16.74-15.049V111.039A15.955,15.955,0,0,0,964.974,95.991ZM659.031,154.643h27.962a194.559,194.559,0,0,0-1.368,36.155,147.562,147.562,0,0,0,8.541,45.812c.354.953.7,1.907,1.092,2.837a93.224,93.224,0,0,0-9.057,7.2c-3.3,3.233-6.633,6.862-6.633,6.862a87.616,87.616,0,0,0-6.448,7.521,181.891,181.891,0,0,1-15.648-66.45,195.626,195.626,0,0,1,1.553-39.916ZM648.271,329.78a141.918,141.918,0,0,1,35.537-65.712,145.993,145.993,0,0,1,22.084-18.156,152.937,152.937,0,0,1,48.144-21.418v30.235A143.257,143.257,0,0,0,648.265,329.8Zm116.322,13.453a149.482,149.482,0,0,1-46.034-24.315A151.707,151.707,0,0,1,694.3,295.04l.6-.437c2.243-1.656,21.04-14.707,23.487-17.016l.037-.036a133.453,133.453,0,0,0,46.183,34.259Zm202.576,42.836H825.417l-.228-25.946h34.133V329.912H824.913l-.15-17.856h34.559V281.845H824.487l-.162-17.855h35V233.779H824.211V215.911h35.111V185.7H824.211V167.857h35.111V137.646H824.211v-27.44H967.169Z" fill="var(--primary_theme_color_green)" fill-rule="evenodd"/>
    <rect id="Rectangle_1461" data-name="Rectangle 1461" width="59.354" height="30.205" transform="translate(878.551 137.652)" fill="var(--primary_theme_color_green)"/>
    <rect id="Rectangle_1462" data-name="Rectangle 1462" width="59.354" height="30.211" transform="translate(878.551 185.718)" fill="var(--primary_theme_color_green)"/>
    <rect id="Rectangle_1463" data-name="Rectangle 1463" width="59.354" height="30.211" transform="translate(878.551 233.791)" fill="var(--primary_theme_color_green)"/>
    <rect id="Rectangle_1464" data-name="Rectangle 1464" width="59.354" height="30.211" transform="translate(878.551 281.863)" fill="var(--primary_theme_color_green)"/>
    <rect id="Rectangle_1465" data-name="Rectangle 1465" width="59.354" height="30.211" transform="translate(878.551 329.93)" fill="var(--primary_theme_color_green)"/>
  </g>
</svg>
