<svg xmlns="http://www.w3.org/2000/svg" viewBox="0 0 312.13 383.15"><defs><style>.cls-1{fill:#e8f1fe;}.cls-2{fill:#ddeafe;}.cls-3{fill:#b4cdfe;}.cls-4{fill:#90a7dc;}.cls-5{fill:#91a8dc;}</style></defs><g id="Layer_2" data-name="Layer 2"><g id="Layer_1-2" data-name="Layer 1"><path class="cls-1" d="M32.27,0H273.21c1.6,1.76,1.33,4,1.33,6,0,12.59,0,25.18,0,37.76q0,140.19,0,280.39a32.42,32.42,0,0,1-.36,7.43c-1.06,2.84-2.89,1.66-4.51.74-4.46-2.5-8.81-5.19-13.16-7.86-30.93-18.95-62-37.72-92.91-56.64-8.3-5.07-16.67-10-24.89-15.2-3.35-2.12-3.53-1.93-3.65,2A85.07,85.07,0,0,1,125,293.38c-8.56,15.8-22.27,23.23-39.86,24.29-13.43-.86-24.61-6.73-34.32-15.68-14-12.9-19.77-29.33-19.79-48q-.12-91.23,0-182.47c0-15.2-.17-30.41.11-45.61C30.77,18.55,31,11.16,31,3.76A5.2,5.2,0,0,1,32.27,0Z"/><path class="cls-2" d="M312.12,0q0,176.33,0,352.65c0,2.43.66,5.7-3.76,3.64A137.2,137.2,0,0,0,296,348.4c-6.74-4-13.34-8.18-20.05-12.21-1.2-.72-2.88-1.17-2.71-3.13q0-166.53,0-333.06Z"/><path class="cls-3" d="M281.44,351.56c-2.47-.09-2.32,1.61-2.31,3.29,0,8.23-.1,16.46.07,24.69.05,2.8-.82,3.59-3.61,3.59q-136-.11-272,0C.05,383.15,0,381.5,0,378.84q.08-69.76,0-139.52v-208c0-5.16,0-5.16,5.3-5.16H32.27q0,114.57.08,229.13c0,20.94,8.22,38.23,25.24,50.73,8.41,6.19,17.88,10.24,28.61,10.48,43.93,5.89,87.3,15.05,131,22.35,20,3.34,39.94,7.24,60,10.52C278.72,349.65,280.82,349.27,281.44,351.56Z"/><path class="cls-4" d="M281.44,351.56,257,347.15q-43.56-7.78-87.12-15.55c-27.58-4.87-55.19-9.64-82.78-14.48-.33-.06-.61-.39-.92-.59,21-1.38,34.44-12.77,41.84-31.92a85.91,85.91,0,0,0,6-32.08c0-3.31.71-3.53,3.45-1.86q66.8,40.8,133.67,81.44a20.51,20.51,0,0,0,2,.95c8.67,6,17.92,11.11,26.87,16.68,2.85,1.78,5.69,3.56,8.55,5.32,1.14.7.67,1-.27,1.23Z"/><path class="cls-5" d="M172.27,88.33q43.2,0,86.4,0c4.65,0,7.54,2.4,7.34,6-.18,3.21-2,5-5.07,5.56a23.28,23.28,0,0,1-4.09.22H87.42a15.71,15.71,0,0,1-4.82-.43c-2.84-.89-4.59-2.81-4.5-5.7a5.65,5.65,0,0,1,4.8-5.48A19.22,19.22,0,0,1,87,88.34Z"/><path class="cls-5" d="M172,171.32H87.86c-.87,0-1.75,0-2.62,0-4.38-.11-7.25-2.48-7.22-6,0-3.14,3-5.61,7-5.86.87-.06,1.74,0,2.62,0H256a26.07,26.07,0,0,1,5.56.48c3.11.65,4.44,2.71,4.48,5.58s-1.86,4.82-4.64,5.57a14.29,14.29,0,0,1-3.71.2Z"/><path class="cls-4" d="M171.7,135.48q-43.18,0-86.38,0c-5.32,0-8.11-3-6.93-7.14a5.28,5.28,0,0,1,4.75-4.11,29,29,0,0,1,3.73-.07H257.39c6.15,0,8.71,1.68,8.68,5.69s-2.54,5.63-8.74,5.63Z"/><path class="cls-4" d="M171.79,64.34q-43,0-86,0c-2.86,0-5.46-.2-7-3.2-1.86-3.79.29-7.77,4.51-8.11.87-.07,1.74,0,2.62,0H258.33c2.95,0,5.89,0,7.26,3.26a5.83,5.83,0,0,1-4.82,8,23.5,23.5,0,0,1-3.36.07Z"/></g></g></svg>