<svg id="Group_30" data-name="Group 30" xmlns="http://www.w3.org/2000/svg" width="100%" height="100%" viewBox="0 0 24 24">
  <path id="Path_36" data-name="Path 36" d="M23,11H21V9a1,1,0,0,0-2,0v2H17a1,1,0,0,0,0,2h2v2a1,1,0,0,0,2,0V13h2a1,1,0,0,0,0-2Z" fill="#757d86"/>
  <path id="Path_37" data-name="Path 37" d="M9,12A6,6,0,1,0,3,6,6,6,0,0,0,9,12ZM9,2A4,4,0,1,1,5,6,4,4,0,0,1,9,2Z" fill="#757d86"/>
  <path id="Path_38" data-name="Path 38" d="M9,14a9.011,9.011,0,0,0-9,9,1,1,0,0,0,2,0,7,7,0,0,1,14,0,1,1,0,0,0,2,0A9.011,9.011,0,0,0,9,14Z" fill="#757d86"/>
</svg>
