<svg xmlns="http://www.w3.org/2000/svg" width="100%" height="100%" viewBox="0 0 24.706 32.547">
  <g id="Administration" transform="translate(-61.671)">
    <path id="Path_689" data-name="Path 689" d="M77.918,42.771H63.167a1.5,1.5,0,0,0-1.5,1.5V65.042a1.5,1.5,0,0,0,1.5,1.5H77.918a1.5,1.5,0,0,0,1.5-1.5V44.267A1.5,1.5,0,0,0,77.918,42.771Z" transform="translate(0 -40.052)" fill="#ebeef2"/>
    <path id="Path_690" data-name="Path 690" d="M291.659,42.771h-1.737a1.5,1.5,0,0,1,1.5,1.5V65.042a1.5,1.5,0,0,1-1.5,1.5h1.737a1.5,1.5,0,0,0,1.5-1.5V44.267A1.5,1.5,0,0,0,291.659,42.771Z" transform="translate(-213.741 -40.052)" fill="#d1d6de"/>
    <path id="Path_691" data-name="Path 691" d="M167.948,2.866h-3.824a.477.477,0,0,1-.477-.477,2.389,2.389,0,1,1,4.778,0A.477.477,0,0,1,167.948,2.866Zm-3.266-.954h2.708a1.436,1.436,0,0,0-2.708,0Z" transform="translate(-95.494)" fill="#444966"/>
    <path id="Path_692" data-name="Path 692" d="M230.716,283.6l-1.329-.2a6.044,6.044,0,0,0-.29-.7l.8-1.083a.476.476,0,0,0-.047-.619l-1.807-1.807a.477.477,0,0,0-.619-.047l-1.083.8a6,6,0,0,0-.7-.29l-.2-1.329a.477.477,0,0,0-.471-.4H222.4a.477.477,0,0,0-.471.4l-.2,1.329a6,6,0,0,0-.7.29l-1.083-.8a.477.477,0,0,0-.619.047l-1.807,1.807a.476.476,0,0,0-.047.619l.8,1.083a6.052,6.052,0,0,0-.291.7l-1.329.2a.477.477,0,0,0-.4.471v2.556a.477.477,0,0,0,.4.471l1.329.2a6,6,0,0,0,.291.7l-.8,1.083a.476.476,0,0,0,.047.619l1.807,1.807a.477.477,0,0,0,.619.048l1.083-.8a6,6,0,0,0,.7.291l.2,1.329a.476.476,0,0,0,.471.4h2.556a.476.476,0,0,0,.471-.4l.2-1.329a6,6,0,0,0,.7-.291l1.083.8a.477.477,0,0,0,.619-.048l1.807-1.807a.476.476,0,0,0,.047-.619l-.8-1.083a6,6,0,0,0,.29-.7l1.329-.2a.477.477,0,0,0,.4-.471v-2.556A.477.477,0,0,0,230.716,283.6Zm-4.058,1.749a2.977,2.977,0,1,1-2.977-2.978A2.977,2.977,0,0,1,226.658,285.351Z" transform="translate(-144.743 -260.244)" fill="#ed5575"/>
    <path id="Path_693" data-name="Path 693" d="M273,330.575a4.093,4.093,0,1,0,4.093,4.092A4.093,4.093,0,0,0,273,330.575Zm0,7.07a2.977,2.977,0,1,1,2.977-2.977A2.977,2.977,0,0,1,273,337.645Z" transform="translate(-194.061 -309.561)" fill="#cc3a60"/>
    <path id="Path_694" data-name="Path 694" d="M165.023,116.333h0a2.458,2.458,0,0,0-2.458,2.458v1.185a2.458,2.458,0,0,0,2.458,2.458h0a2.458,2.458,0,0,0,2.458-2.458v-1.185A2.458,2.458,0,0,0,165.023,116.333Z" transform="translate(-94.48 -108.938)" fill="#f9c295"/>
    <path id="Path_695" data-name="Path 695" d="M151.264,236.178a6.491,6.491,0,0,1-7.278,0,2.609,2.609,0,0,1,1.763-2.167v0a2.521,2.521,0,0,1,.3-.082,19.7,19.7,0,0,1,2.622-.053,2.592,2.592,0,0,1,.525.053,2.64,2.64,0,0,1,.3.082v0A2.609,2.609,0,0,1,151.264,236.178Z" transform="translate(-77.082 -219.006)" fill="#5c9cee"/>
    <g id="Group_413" data-name="Group 413" transform="translate(68.085 7.396)">
      <path id="Path_696" data-name="Path 696" d="M166.622,116.946h0a2.46,2.46,0,0,0-4.057,1.865v.227a2.933,2.933,0,0,0,3.361-.72,2.122,2.122,0,0,0,1.554.957A2.739,2.739,0,0,0,166.622,116.946Z" transform="translate(-162.565 -116.355)" fill="#444966"/>
      <path id="Path_697" data-name="Path 697" d="M286.078,132.612h-5.434a.477.477,0,0,1,0-.954h5.434a.477.477,0,0,1,0,.954Z" transform="translate(-272.691 -130.685)" fill="#444966"/>
      <path id="Path_698" data-name="Path 698" d="M286.078,220.54h-5.434a.477.477,0,0,1,0-.954h5.434a.477.477,0,0,1,0,.954Z" transform="translate(-272.691 -213.024)" fill="#444966"/>
    </g>
    <g id="Group_414" data-name="Group 414" transform="translate(80.994 7.144)">
      <path id="Path_699" data-name="Path 699" d="M367.351,112.391a1.7,1.7,0,1,0,1.7,1.7A1.7,1.7,0,0,0,367.351,112.391Z" transform="translate(-365.649 -112.391)" fill="#9fd479"/>
      <path id="Path_700" data-name="Path 700" d="M367.351,200.318a1.7,1.7,0,1,0,1.7,1.7A1.7,1.7,0,0,0,367.351,200.318Z" transform="translate(-365.649 -194.729)" fill="#9fd479"/>
    </g>
    <path id="Path_701" data-name="Path 701" d="M146.094,30.081h-6.013a.941.941,0,0,0-.94.94V32.51a.941.941,0,0,0,.94.94h6.013a.941.941,0,0,0,.94-.94V31.021A.941.941,0,0,0,146.094,30.081Z" transform="translate(-72.545 -28.169)" fill="#f2df33"/>
    <path id="Path_702" data-name="Path 702" d="M234.946,30.081h-.922a.941.941,0,0,1,.94.94V32.51a.941.941,0,0,1-.94.94h.922a.941.941,0,0,0,.94-.94V31.021A.941.941,0,0,0,234.946,30.081Z" transform="translate(-161.397 -28.169)" fill="#d9b92c"/>
  </g>
</svg>
