<svg xmlns="http://www.w3.org/2000/svg" width="100%" height="100%" viewBox="0 0 27.289 27.803">
  <g id="Appraisals" transform="translate(-4.731)">
    <path id="Path_703" data-name="Path 703" d="M21.035,73.617H6.985a2.253,2.253,0,0,1-2.253-2.253V50.7a2.253,2.253,0,0,1,2.253-2.253H23.193A2.253,2.253,0,0,1,25.446,50.7V69.207A4.41,4.41,0,0,1,21.035,73.617Z" transform="translate(-0.001 -45.814)" fill="#fbf1cf"/>
    <path id="Path_704" data-name="Path 704" d="M4.731,50.7V71.364a2.253,2.253,0,0,0,2.253,2.253h6.751C9.781,70.463,9.482,56.409,9.469,48.445H6.984A2.253,2.253,0,0,0,4.731,50.7Z" transform="translate(0 -45.814)" fill="#fae0bd"/>
    <path id="Path_705" data-name="Path 705" d="M296.1,125.9l-4.353,4.353a2.78,2.78,0,0,0-.819,1.978v1.324a2.326,2.326,0,0,0,2.323,2.323h1.324a2.778,2.778,0,0,0,1.526-.452Z" transform="translate(-270.655 -119.063)" fill="#fae0bd"/>
    <g id="Group_418" data-name="Group 418" transform="translate(7.587 6.638)">
      <path id="Path_706" data-name="Path 706" d="M255.721,240.169h-2.612a1.135,1.135,0,0,1-1.134-1.134v-2.612a1.135,1.135,0,0,1,1.134-1.134h2.612a1.135,1.135,0,0,1,1.134,1.134v2.612A1.135,1.135,0,0,1,255.721,240.169Zm-2.612-4.065a.32.32,0,0,0-.32.32v2.612a.32.32,0,0,0,.32.32h2.612a.32.32,0,0,0,.32-.32v-2.612a.32.32,0,0,0-.32-.32Z" transform="translate(-241.405 -229.151)" fill="#616a84"/>
      <path id="Path_707" data-name="Path 707" d="M255.721,372.321h-2.612a1.135,1.135,0,0,1-1.134-1.134v-2.612a1.135,1.135,0,0,1,1.134-1.134h2.612a1.135,1.135,0,0,1,1.134,1.134v2.612A1.135,1.135,0,0,1,255.721,372.321Zm-2.612-4.065a.32.32,0,0,0-.32.32v2.612a.32.32,0,0,0,.32.32h2.612a.32.32,0,0,0,.32-.32v-2.612a.32.32,0,0,0-.32-.32Z" transform="translate(-241.405 -354.126)" fill="#616a84"/>
      <g id="Group_417" data-name="Group 417">
        <path id="Path_708" data-name="Path 708" d="M63.837,123.064h-6.11a.407.407,0,1,1,0-.815h6.11a.407.407,0,0,1,0,.815Z" transform="translate(-57.32 -122.249)" fill="#616a84"/>
        <path id="Path_709" data-name="Path 709" d="M60.782,163.074H57.727a.407.407,0,0,1,0-.815h3.055a.407.407,0,0,1,0,.815Z" transform="translate(-57.32 -160.086)" fill="#616a84"/>
        <path id="Path_710" data-name="Path 710" d="M63.837,255.215h-6.11a.407.407,0,0,1,0-.815h6.11a.407.407,0,0,1,0,.815Z" transform="translate(-57.32 -247.224)" fill="#616a84"/>
        <path id="Path_711" data-name="Path 711" d="M60.782,295.226H57.727a.407.407,0,0,1,0-.815h3.055a.407.407,0,0,1,0,.815Z" transform="translate(-57.32 -285.062)" fill="#616a84"/>
        <path id="Path_712" data-name="Path 712" d="M63.837,387.368h-6.11a.407.407,0,0,1,0-.815h6.11a.407.407,0,0,1,0,.815Z" transform="translate(-57.32 -372.201)" fill="#616a84"/>
        <path id="Path_713" data-name="Path 713" d="M60.782,427.377H57.727a.407.407,0,1,1,0-.815h3.055a.407.407,0,1,1,0,.815Z" transform="translate(-57.32 -410.038)" fill="#616a84"/>
      </g>
    </g>
    <path id="Path_714" data-name="Path 714" d="M264.046,118.161a.406.406,0,0,1-.288-.119l-1.15-1.15a.407.407,0,1,1,.576-.576l.862.862,2.012-2.012a.407.407,0,0,1,.576.576l-2.3,2.3a.406.406,0,0,1-.288.119Z" transform="translate(-243.761 -108.8)" fill="#e68a97"/>
    <g id="Group_419" data-name="Group 419" transform="translate(19.107 21.465)">
      <path id="Path_715" data-name="Path 715" d="M275.813,397.219a4.41,4.41,0,0,1-4.41,4.41h-1.927a1.851,1.851,0,0,0,1.851-1.851V399.4a2.253,2.253,0,0,1,2.253-2.253h.382a1.851,1.851,0,0,0,1.851-1.851v1.927Z" transform="translate(-269.476 -395.292)" fill="#fae0bd"/>
    </g>
    <path id="Path_716" data-name="Path 716" d="M437.5,94.458l-.806-.806a1.15,1.15,0,0,0-1.627,0l-1.218,1.218,2.432,2.432,1.217-1.218A1.15,1.15,0,0,0,437.5,94.458Z" transform="translate(-405.817 -88.248)" fill="#e68a97"/>
    <path id="Path_717" data-name="Path 717" d="M337,127.229l5.256-5.256,2.432,2.432-5.256,5.256Z" transform="translate(-314.222 -115.35)" fill="#f3be77"/>
    <path id="Path_718" data-name="Path 718" d="M337.049,164.315l2.432,2.432,1.7-1.7c-.9-.655-1.167-2.979-1.012-3.853Z" transform="translate(-314.272 -152.437)" fill="#f19a60"/>
    <path id="Path_719" data-name="Path 719" d="M322.658,218.741l-.5.5a1.12,1.12,0,0,0-.328.792v1.324a.645.645,0,0,0,.645.645H323.8a1.119,1.119,0,0,0,.792-.328l.5-.5Z" transform="translate(-299.882 -206.863)" fill="#616a84"/>
    <path id="Path_720" data-name="Path 720" d="M168.81,0h-.443a1.321,1.321,0,0,0-1.321,1.321V2.527a1.321,1.321,0,0,0,1.321,1.321h.443a1.321,1.321,0,0,0,1.321-1.321V1.321A1.321,1.321,0,0,0,168.81,0Z" transform="translate(-153.501)" fill="#e68a97"/>
    <path id="Path_721" data-name="Path 721" d="M46.769,0h-.443A1.321,1.321,0,0,0,45,1.321V2.527a1.321,1.321,0,0,0,1.321,1.321h.443A1.321,1.321,0,0,0,48.09,2.527V1.321A1.321,1.321,0,0,0,46.769,0Z" transform="translate(-38.086)" fill="#e26e7e"/>
    <path id="Path_722" data-name="Path 722" d="M290.409,0h.443a1.321,1.321,0,0,1,1.321,1.321V2.527a1.321,1.321,0,0,1-1.321,1.321h-.443a1.321,1.321,0,0,1-1.321-1.321V1.321A1.321,1.321,0,0,1,290.409,0Z" transform="translate(-268.916)" fill="#e26e7e"/>
  </g>
</svg>
