<svg xmlns="http://www.w3.org/2000/svg" width="100%" height="100%" viewBox="0 0 79.856 78.944">
  <path id="Icon_ionic-ios-arrow-dropdown-circle" data-name="Icon ionic-ios-arrow-dropdown-circle" d="M3.375,43.3A39.7,39.7,0,0,0,42.847,83.231,39.7,39.7,0,0,0,82.319,43.3,39.7,39.7,0,0,0,42.847,3.375,39.7,39.7,0,0,0,3.375,43.3Zm54.863-8.331a3.653,3.653,0,0,1,6.243,2.611,3.746,3.746,0,0,1-1.082,2.63L45.5,58.257a3.628,3.628,0,0,1-5.048-.115L22.3,39.828a3.732,3.732,0,0,1,0-5.241,3.63,3.63,0,0,1,5.181,0L42.866,50.31Z" transform="translate(83.231 -3.375) rotate(90)" fill="var(--primary_theme_color_green)"/>
</svg>
