<svg xmlns="http://www.w3.org/2000/svg" viewBox="0 0 479.77 479.8"><defs><style>.cls-1{fill:#828282;}.cls-2{fill:#f6bb00;}.cls-3{fill:#eea600;}.cls-4{fill:#5186fe;}.cls-5{fill:#df9400;}.cls-6{fill:#f5c899;}.cls-7{fill:#d08300;}.cls-8{fill:#f05d32;}.cls-9{fill:#d24413;}</style></defs><g id="Layer_2" data-name="Layer 2"><g id="Layer_1-2" data-name="Layer 1"><path d="M0,340.86c2.79-4,6.61-5.12,11.47-5.1,40.3.17,80.61.1,120.91.1,9.23,0,12,2.32,11.39,11.39-.36,5.75,1.59,8.37,6.88,10.37a203.22,203.22,0,0,1,32.42,15.13c1.52-1.06.8-2.5.8-3.67.06-15.65,0-31.31,0-47,0-7.53,2.7-10.23,10.19-10.24,16.49,0,33-.12,49.46.07,3.42,0,4.44-.69,4.4-4.28-.18-21.65-.1-43.3-.09-65,0-8.24,2.53-10.81,10.63-10.81,16,0,32-.23,48,.13,4.81.11,5.5-1.51,5.47-5.77-.18-29.14-.1-58.29-.09-87.43,0-8.45,2.49-10.89,11-10.89,16.16,0,32.31-.15,48.46.1,3.85.06,4.56-1,4.55-4.66-.15-37.3,0-74.61-.19-111.92,0-4.86,1-8.68,5.1-11.47h70c4.7,1.08,6.32,4.43,6.53,8.82.13,2.67.09,5.33.09,8q0,201.48,0,403c0,11.24-.38,10.27,10.24,10.49,4.06.08,8.37-1.13,12.12,1.57v16c-2.59,2.13-5.7,1.52-8.63,1.53q-69.86,0-139.71,0c-1.49,0-3,0-4.49,0-5.47.1-5.64.2-5.59,5.57.06,8.19-3.29,14.67-9.2,20.22-3.58,3.35-8,3.7-12.29,4.64h-92c-1.81-1.06-3.79-.27-5.68-.52-20.92-.71-37.8-10.48-53.1-23.74a49.9,49.9,0,0,1-4.25-4.23c-2-2.16-4.18-3.11-7.12-2.4a27.49,27.49,0,0,1-6.48.36H12.38c-1.17,0-2.33,0-3.5-.06-4.41-.13-7.75-1.73-8.88-6.41Z"/><path d="M335.84,479.8c.07-5.14-1.85-12.07.74-14.95,2.95-3.29,10-1,15.25-1s12.3-2.32,15.25,1c2.59,2.88.67,9.81.74,14.95Z"/><path d="M399.81,479.8c.33-5.25-2.25-12.3,1-15.25,2.89-2.59,9.81-.83,14.95-.7s12.3-2.29,15.25,1c2.59,2.88.67,9.81.74,14.95Z"/><path class="cls-1" d="M202.9,479.8a1.22,1.22,0,0,0-.09-.88c1.78-.19,3.59-.57,5.09.88Z"/><path d="M199.9,131.94c0,13.83-.11,27.65.07,41.47.06,4.63-1.48,7.87-5.38,10.43-14.87,9.76-29.64,19.66-44.41,29.57a14.23,14.23,0,0,1-8.39,2.55q-22-.17-44,0a13.43,13.43,0,0,1-7.92-2.42q-22.37-15-44.83-29.88a10.4,10.4,0,0,1-5.14-9.52q.15-42.23,0-84.44c0-4.56,1.84-7.49,5.71-9.63q34.47-19,68.83-38.2c3.72-2.08,7-2.23,10.76-.13q34.58,19.34,69.27,38.45c4,2.18,5.5,5.33,5.45,9.79C199.82,104,199.9,118,199.9,131.94Z"/><path d="M87.63,295.88c-9.33,0-18.65-.08-28,.05-2.57,0-3.73-.29-3.77-3.38-.17-12.67-.3-12.67,12.42-12.67,15.82,0,31.64.13,47.46-.09,3.62-.05,4.31,1,4.27,4.42-.15,11.66,0,11.67-11.42,11.67Z"/><path d="M159.72,295.88c-6.83,0-13.66-.11-20.48.05-2.54.06-3.33-.57-3.38-3.26-.28-12.79-.38-12.79,12.28-12.79,10.82,0,21.65.08,32.47-.05,2.53,0,3.32.57,3.38,3.26.28,12.79.37,12.79-12.28,12.79Z"/><path d="M139.86,263.89c-5.49,0-11-.17-16.48.07-2.94.13-3.48-.93-3.51-3.64-.12-12.43-.21-12.42,12.14-12.42,8,0,16,.09,24-.06,2.75-.05,4,.23,4,3.63,0,12.42.18,12.42-12.18,12.42Z"/><path d="M91.56,263.89c-11.71,0-11.61,0-11.67-11.89,0-3.06.49-4.4,4-4.19,5.47.33,11,.22,16.47,0,2.68-.09,3.66.48,3.7,3.45C104.2,263.89,104.31,263.89,91.56,263.89Z"/><path class="cls-2" d="M439.79,223.92q0,101.42.1,202.83c0,4.13-.93,5.28-5.13,5.18-13-.3-26-.23-39,0-3.37.06-4.05-1-4.05-4.19q.11-203.82,0-407.65c0-3.22.79-4.19,4.1-4.15,13.15.2,26.31.25,39.46,0,3.86-.08,4.58,1.08,4.57,4.71Q439.71,122.26,439.79,223.92Z"/><path class="cls-3" d="M327.84,287.32c0-46.11.06-92.23-.1-138.34,0-4.19,1-5.24,5.17-5.15,12.82.3,25.64.22,38.46,0,3.28-.05,4.54.51,4.54,4.23q-.18,139.83,0,279.68c0,3.29-.9,4.16-4.14,4.11-13.15-.18-26.31-.25-39.45,0-3.94.08-4.54-1.22-4.54-4.77Q327.94,357.25,327.84,287.32Z"/><path class="cls-4" d="M71.94,351.85c17.3,0,34.61.08,51.91-.07,3.2,0,4.19.76,4.17,4.08q-.23,36,0,71.89c0,3.23-.81,4.16-4.1,4.14q-51.91-.18-103.83,0c-3.2,0-4.19-.76-4.17-4.08q.22-36,0-71.89c0-3.23.81-4.18,4.1-4.15C37.33,351.94,54.63,351.85,71.94,351.85Z"/><path class="cls-5" d="M311.85,340.07c0,29-.08,57.95.09,86.93,0,3.91-1,5-4.91,4.92-10.81-.29-21.64-.19-32.46-.05-3,0-4-.34-3.21-3.82,1.59-7-.28-13.59-4.88-19.14a10.34,10.34,0,0,1-2.67-7.13q.13-74.68,0-149.37c0-3.83,1.07-4.67,4.72-4.6q19.22.34,38.46,0c3.78-.07,5,.77,5,4.83C311.76,281.78,311.85,310.93,311.85,340.07Z"/><path class="cls-6" d="M143.94,372.22c19.84,7.43,38,16.87,54,30.17,1.66,1.38,3.6,2.57,4.88,4.25,6.33,8.33,14.78,10.28,24.7,9.29,5.94-.59,12-.12,18-.1,6.68,0,10.4,3,10.3,8.13-.1,5-3.7,7.84-10.08,7.85-11.32,0-22.65.1-34-.06-2.9,0-4,.47-4,3.74,0,12.32-.18,12.32,12.33,12.32q36.72,0,73.44,0c3.1,0,6.07.2,8.21,2.73a7.46,7.46,0,0,1,1.37,8.36c-1.54,3.44-4.29,4.92-7.95,4.92h-29c-16.65,0-33.31.1-50,0-31.26-.22-54.68-14.32-71.13-40.56a5.81,5.81,0,0,1-1.21-3.19C144,404.24,143.94,388.45,143.94,372.22Z"/><path class="cls-7" d="M247.88,363.64c0,10.33-.29,20.66.13,31,.19,4.68-1.43,5.91-5.58,5.23a8.16,8.16,0,0,0-1,0c-7.47-.12-15.62,1.59-22.22-.87s-11.62-9.16-17.44-13.86a4.83,4.83,0,0,1-1.9-4.27c0-16.49.09-33,0-49.46,0-2.94,1-3.59,3.72-3.56,13.49.12,27,.14,40.46,0,3,0,4,.75,3.93,3.88C247.76,342.32,247.88,353,247.88,363.64Z"/><path class="cls-8" d="M56.4,101.81C65.74,107,74.86,112,84,117.06c9.89,5.49,19.85,10.84,29.6,16.57,4.58,2.7,8.47,2.48,13-.11,17.2-9.77,34.56-19.28,51.86-28.88,1.56-.87,3.16-1.69,5.48-2.93v6.8c0,19.47-.07,39,.07,58.43,0,3.31-.79,5.38-3.74,7.28C168.21,182,156.35,190,144.5,198a10.82,10.82,0,0,1-6.48,2q-18-.14-36,0a10.79,10.79,0,0,1-6.5-1.9Q77.37,185.75,59,173.68c-1.91-1.26-3.14-2.42-3.13-5.05C56,147,56,125.34,56,103.7A11.67,11.67,0,0,1,56.4,101.81Z"/><path class="cls-9" d="M64.8,87.84c6.68-3.74,12.83-7.22,19-10.65,11-6.13,22.1-12.22,33.14-18.36,1.59-.88,2.91-1.84,5-.68C139.43,68,157,77.7,174.46,87.41c-.12,1.78-1.5,2-2.42,2.46-16.11,9-32.24,17.91-48.34,26.89-2.24,1.25-4,2-6.76.44-16.45-9.38-33.07-18.46-49.63-27.65C66.63,89.17,66,88.67,64.8,87.84Z"/></g></g></svg>