<svg xmlns="http://www.w3.org/2000/svg" viewBox="0 0 511.81 511.81"><defs><style>.cls-1{fill:#99db59;}.cls-2{fill:#fed12e;}.cls-3{fill:#feda57;}.cls-4{fill:#cbecaa;}.cls-5{fill:#fecd1a;}.cls-6{fill:#e61804;}.cls-7{fill:#f9822a;}.cls-8{fill:#f65d2e;}.cls-9{fill:#00acd3;}.cls-10{fill:#8fd748;}.cls-11{fill:#158078;}.cls-12{fill:#fba666;}.cls-13{fill:#f77c58;}.cls-14{fill:#e82614;}.cls-15{fill:#fee37f;}.cls-16{fill:#fee99a;}.cls-17{fill:#ef6659;}.cls-18{fill:#f18074;}.cls-19{fill:#55ab62;}.cls-20{fill:#00232b;}.cls-21{fill:#1d3e46;}</style></defs><g id="Layer_2" data-name="Layer 2"><g id="Layer_1-2" data-name="Layer 1"><path class="cls-1" d="M265.9,0a5.87,5.87,0,0,1-7,0Z"/><path class="cls-2" d="M252.9,0c-1.79,1.71-4,.76-6.05,1-.33-.23-.43-.45-.31-.66s.25-.3.37-.3Z"/><path class="cls-3" d="M246.91,0q0,.48-.06,1c-2-.29-4.21.88-5.94-1Z"/><path class="cls-4" d="M273.9,0c-1,1.44-2,1.21-3,0Z"/><path class="cls-5" d="M252.9,0h3c1.81,1.82,2,4.15,2,6.5q.06,39.12,0,78.25a14.86,14.86,0,0,1-.66,4.91c-1.09,2.66-3.49,2.82-5.83,2.88a159.14,159.14,0,0,0-73.49,19.79,161.37,161.37,0,0,0-65.94,66.22,159.22,159.22,0,0,0-19.4,72.58c-.06,2.32-.08,4.76-2.71,6a17.43,17.43,0,0,1-6.41.76q-37.71,0-75.41,0c-2.81,0-5.73.25-8-2v-14c.61-.56.48-1.3.5-2s.11-1.45-.5-2v-4c1.43-9,1.25-18.14,3-27.13,8.72-43.89,27.29-83.07,56.35-117.07q58.7-68.65,147.41-86.66c9.3-1.89,18.78-1.71,28.12-3h6c1.92,1.06,4,.25,6,.51C248.89.25,251,1.06,252.9,0Z"/><path class="cls-6" d="M275.9,511.81h-4c-.56-.61-1.3-.48-2-.51s-1.45-.1-2,.51h-5a5.45,5.45,0,0,0-5,0h-2c-1.81-1.82-2-4.16-2-6.5q-.07-39.12,0-78.24a14.54,14.54,0,0,1,.66-4.91c1.35-3.11,4.21-2.83,6.83-2.92,33.83-1.09,64.28-11.94,91.52-31.87A134.71,134.71,0,0,0,368,375a9.38,9.38,0,0,1,4.1-2.74c2.71-.34,4.27,1.56,5.89,3.18,18.69,18.7,37.3,37.48,56.07,56.1,1.64,1.62,3.39,3.28,3.21,5.94-3.13,4.8-7.48,8.49-11.71,12.17A257.13,257.13,0,0,1,299.6,509.78C291.77,511.16,283.75,510.64,275.9,511.81Z"/><path class="cls-7" d="M0,255.9H90.8c1.82,1.19,1.68,3.13,1.74,4.92,1.29,41.08,16.47,76.45,43.93,106.76,1.23,1.35,2.58,2.61,2.93,4.53A3.76,3.76,0,0,1,138,375.2c-6.26,5.7-11.37,12.47-17.52,18.33-7.9,7.52-15.39,15.51-23.14,23.22-6.45,6.42-12.8,13-19.3,19.35a4.54,4.54,0,0,1-2.58,1.4c-5.69-2.19-9-7.17-12.77-11.44C30.67,389.23,10,346.88,2,298.57c-1.15-6.85-.61-13.85-2-20.68v-7a10.39,10.39,0,0,0,0-7Z"/><path class="cls-8" d="M75.72,437.22C80.31,431.33,85.9,426.41,91,421s10.31-10.29,15.4-15.49c4.6-4.7,8.88-9.83,14.06-13.94,4.37-3.46,7.14-8.33,11.24-12,2.48-2.21,4.87-4.51,7.3-6.77,2.8-.56,4.18,1.64,5.84,3.13,24.86,22.39,53.7,36.51,86.82,41.63A113.7,113.7,0,0,0,250,419.26c2.09,0,4.4-.37,5.92,1.74q0,45.4,0,90.81h-7a7.8,7.8,0,0,0-6,0h-9c-10.17-1.39-20.46-1.53-30.57-3.72A261,261,0,0,1,91.12,453.74a132,132,0,0,1-12.48-11.51C77.29,440.8,75.63,439.51,75.72,437.22Z"/><path class="cls-9" d="M436.66,436.69,372.8,372.82c-.56-2.81,1.64-4.19,3.13-5.85,19.38-21.6,32.91-46.28,39.34-74.67a156.51,156.51,0,0,0,4-30.63c.07-2.61-.29-5.48,2.74-7a17.48,17.48,0,0,1,6.42-.76q37.69,0,75.4,0c2.81,0,5.72-.25,8,2v12c-.8.82-.41,1.85-.51,2.79.05.77-.16,1.59.51,2.21v5c-1.34,11.17-1.76,22.42-4.31,33.46-9.56,41.44-27.73,78.54-55.29,111-3.66,4.32-7.49,8.47-11.54,12.41C439.61,435.79,438.81,437.76,436.66,436.69Z"/><path class="cls-10" d="M255.9,90.8V0h3a10.39,10.39,0,0,0,7,0h5a2.3,2.3,0,0,0,3,0h3c10.83,1.35,21.75,1.5,32.5,3.87a257.9,257.9,0,0,1,111.08,54c6,5,12,10,16.7,16.31.14,2.32-1.6,3.55-3,4.93q-28.53,28.6-57.14,57.14c-1.38,1.38-2.65,3.05-4.91,3.11-1.93-.33-3.19-1.69-4.54-2.92-25.08-22.9-54.26-37.37-88-42.34a111.94,111.94,0,0,0-17.84-1.6C259.73,92.56,257.41,92.92,255.9,90.8Z"/><path class="cls-11" d="M492,157.87c8.57,18.9,13.47,38.82,16.91,59.2,1,5.94.54,12.13,2.91,17.84v3c-.61.55-.48,1.3-.51,2s-.1,1.44.51,2v5a7.78,7.78,0,0,0,0,6v3H421c-1.79-1.2-1.81-3.1-1.85-4.91a159.85,159.85,0,0,0-10.53-53.06,9.48,9.48,0,0,1-.77-4.37c.45-2.56,2.59-3.31,4.57-4.14q37.36-15.57,74.8-31C488.74,157.8,490.28,157,492,157.87Z"/><path class="cls-12" d="M0,263.9c1.4,2.33,1.67,4.66,0,7Z"/><path class="cls-13" d="M242.91,511.81c2-1.6,4-1.41,6,0Z"/><path class="cls-14" d="M257.9,511.81a3.43,3.43,0,0,1,5,0Z"/><path class="cls-15" d="M.85,239.87a1.76,1.76,0,0,1-.85,2v-2C.26,239.41.55,239.42.85,239.87Z"/><path class="cls-16" d="M.85,239.87l-.85,0v-2C1,238.27,1,239.05.85,239.87Z"/><path class="cls-17" d="M267.9,511.81A1.72,1.72,0,0,1,270,511c.32.21.42.4.3.58s-.23.27-.35.27Z"/><path class="cls-18" d="M269.9,511.81A7.92,7.92,0,0,1,270,511c.81-.1,1.62-.19,1.95.85Z"/><path class="cls-19" d="M408.82,192.86c-7.61-16.66-16.75-32.37-29-46.09l-7-7.76c9.57-9.71,19.1-19.47,28.74-29.12,11.64-11.65,23.38-23.21,35.07-34.81A239.24,239.24,0,0,1,492,157.87l-52.43,22Q424.19,186.34,408.82,192.86Z"/><path class="cls-20" d="M255.93,301.05q43.45-.07,86.91-.21c2.38,0,3.13.63,3.08,3.05q-.21,12,0,24c.05,2.42-.7,3.06-3.08,3.05q-43.45-.19-86.91-.21C253.07,325.91,253.07,305.85,255.93,301.05Z"/><path class="cls-20" d="M255.93,181.1q43.45-.09,86.91-.22c2.38,0,3.13.64,3.08,3.06q-.21,12,0,24c.05,2.42-.7,3.07-3.08,3.06q-43.45-.19-86.91-.21C253.07,206,253.07,185.89,255.93,181.1Z"/><path class="cls-20" d="M255.93,241.07q43.45-.07,86.91-.21c2.38,0,3.13.64,3.08,3q-.21,12,0,24c.05,2.42-.7,3.07-3.08,3.06q-43.45-.19-86.91-.22C253.07,265.93,253.07,245.87,255.93,241.07Z"/><path class="cls-21" d="M195.67,256.4c-.2,4.74,2.36,11.08-.75,13.78-2.68,2.33-8.86.8-13.49.67-5.08-.14-11.87,2.24-14.74-1-2.5-2.82-.84-9.48-.7-14.44.13-4.75-2.16-11.08.95-13.78,2.68-2.33,8.86-.8,13.49-.68,5.08.14,11.9-2.23,14.73,1C197.62,244.77,195.67,251.43,195.67,256.4Z"/><path class="cls-21" d="M255.93,241.07v29.66c-9,.06-18,0-27,.21-2.37.05-3.15-.62-3.11-3.05q.21-12,0-24c0-2.44.74-3.1,3.11-3.06C238,241,246.94,241,255.93,241.07Z"/><path class="cls-21" d="M255.93,181.1v29.66c-9,.05-18,0-27,.21-2.37,0-3.15-.63-3.11-3.06q.21-12,0-24c0-2.43.74-3.1,3.11-3.06C238,181.06,246.94,181,255.93,181.1Z"/><path class="cls-21" d="M166.19,195.43c.2-4.74-2.36-11.08.75-13.78,2.69-2.33,8.87-.8,13.49-.67,5.08.14,11.88-2.24,14.74,1,2.5,2.82.85,9.49.71,14.44-.14,4.75,2.15,11.09-1,13.78-2.68,2.33-8.86.8-13.49.67-5.08-.14-11.9,2.24-14.73-1C164.24,207.06,166.19,200.39,166.19,195.43Z"/><path class="cls-21" d="M195.92,316.12c0,4-.1,8,.05,12,.08,2.17-.62,2.86-2.81,2.83q-12.22-.18-24.44,0c-2.16,0-2.86-.62-2.83-2.81q.18-12.23,0-24.44c0-2.17.62-2.86,2.82-2.83q12.21.18,24.43,0c2.17,0,2.91.62,2.83,2.82C195.82,307.81,195.92,312,195.92,316.12Z"/><path class="cls-21" d="M255.93,301.05v29.66c-9,.05-18,0-27,.21-2.37.05-3.15-.62-3.11-3.05q.21-12,0-24c0-2.43.74-3.1,3.11-3.05C238,301,246.94,301,255.93,301.05Z"/></g></g></svg>