<svg xmlns="http://www.w3.org/2000/svg" viewBox="0 0 359.25 353.21"><defs><style>.cls-1{fill:#fee4ce;}.cls-2{fill:#2b67b2;}.cls-3{fill:#cae5fd;}.cls-4{fill:#e2a700;}.cls-5{fill:#f4dbc6;}.cls-6{fill:#e7e4de;}.cls-7{fill:#fdbd07;}.cls-8{fill:#a8c5ea;}.cls-9{fill:#e8e4dd;}.cls-10{fill:#fcfcfd;}.cls-11{fill:#fefefe;}.cls-12{fill:#fdfdfd;}</style></defs><g id="Layer_2" data-name="Layer 2"><g id="Layer_1-2" data-name="Layer 1"><path class="cls-1" d="M258.13,233.47c12.62-5.5,25.21-11,37.87-16.44a8.62,8.62,0,0,0,4.76-4.37c3.42-7.06,7-14,10.47-21.07-.41-3.1,2-5.16,2.92-7.74.56-1.5,1.4-2.88,2.09-4.32a10.12,10.12,0,0,1,.47-.93c1-1.77,1.82-3.7,3.54-5,5.07-4.43,10.5-7.34,17.63-5.36a16.68,16.68,0,0,1,11.78,18.57c-1.88,10.87-3.66,21.72-6.76,32.34a157.83,157.83,0,0,1-16.4,36.67,140.17,140.17,0,0,1-23.6,29.63c-21.6,20.63-47,34.4-76.27,40.57a142.91,142.91,0,0,1-35.87,3.16c-6.53-.71-13.11-.86-19.67-1.16-24.61-1.13-47-8.22-66.42-23.82-22.2-17.9-34.92-41.18-39-69.31a7.49,7.49,0,0,1,.13-3c14.4-9.28,30.35-14.71,46.87-18.6a140,140,0,0,1,32.05-3.8q44.13-.06,88.25,0c13.6,0,24,10.23,24.41,23.9,1.21,1.81.6,3.58-.08,5.35a30.5,30.5,0,0,1-28.48,19.75H144.38c-5.22,0-7.08,2.81-5.39,7.92a2.32,2.32,0,0,0,2.16,1.71,22.83,22.83,0,0,0,3,.1c29.53,0,59.05.06,88.57,0,14.44,0,26-9.39,28.89-22.94.7-3.26.69-6.14-2-8.54A3.61,3.61,0,0,1,258.13,233.47Z"/><path class="cls-2" d="M54,329.26c0,5.61-.05,11.21-.13,16.81-.06,4.9-2.2,7.09-7.07,7.11q-16.82.06-33.63,0c-4.94,0-7.16-2.16-7.16-7q0-64.85,0-129.69c0-4.68,2.21-6.92,6.84-6.94q17.19-.07,34.38,0c4.38,0,6.58,2.32,6.63,6.77.1,7.48.09,14.95.13,22.42,1.24,1.47,1.1,3.26,1.1,5q0,40.29,0,80.56C55.08,326,55.19,327.78,54,329.26Z"/><path class="cls-3" d="M197.53,83.8c0-22.55.06-45.1-.07-67.65,0-3.17.64-4.3,4.08-4.26,17.44.18,34.88.11,52.32,0,2.38,0,3.6.35,3.58,3.2-.13,22.92-.12,45.85-.15,68.77-1.74,3.37-4.76,5.62-7.38,8.18-3.6,3.51-6.69,7.57-11,10.34-4.32-.48-4.55,2.75-5.13,5.66-5.68,6.62-12.22,12.39-18.23,18.68-1,1.07-2.29,1.92-3.07,3.52,1.72.7,3.46.26,5.14.35,4.05.22,4.81.83,4.85,4.89.1,9.58,0,19.15,0,28.73,0,3.86.05,7.72,0,11.57,0,1.58.17,3.3-1.51,4.35-7.91.7-15.83,1.57-23.69-.48-1.16-1.66-1-3.57-1-5.42q0-42.39,0-84.77C196.32,87.54,196.08,85.48,197.53,83.8Z"/><path class="cls-4" d="M149.58,19.21c3.16-1.69,6.33-3.36,9.47-5.08,2.12-1.17,4.17-1.58,6.15.23s1.66,3.9.74,6.12c-5,12-9.84,24.05-14.85,36-.9,2.15-.86,3.32,1.07,5.22A62.56,62.56,0,0,1,166.21,83.8c-1.29,1.31-3,1.13-4.57,1.15q-6.54.1-13.09,0c-2.72,0-3.8,1.09-3.74,3.79.08,4.74,0,9.48,0,14.22a13,13,0,0,1-.5,4.8c-.43.73-.94,1.17-1.72.4a6.19,6.19,0,0,1-1.26-2.27c-6.63-17.33-19.61-28.51-35.71-36.52a95.65,95.65,0,0,0-20.8-7.23c-4.54-1.06-5.12-.9-7.24,3C69.35,80.42,62.9,96.36,61.16,113.74a137.38,137.38,0,0,0,0,26.9c1.47,15.11,13.75,25.86,28.93,25.93,16.21.08,32.41,0,48.62.05,1.91,0,4.07-.53,5.52,1.44.78,3.92,1.21,7.83-.37,11.68-1.39,1.08-3,1-4.65,1-20.89,0-41.79.07-62.68,0a28.41,28.41,0,0,1-14.19-4.08c-1.27-.74-2.67-1.43-3.07-3.07-5.77-5.24-10.21-11.39-11.1-19.28-.61-5.42-.12-10.95-.3-16.43C47,111.8,56.48,89,70.24,67.65a22.31,22.31,0,0,1,5.05-5.94c2.12-1.57,2-2.93,1-4.84-.82-2.1.95-2.24,2.12-2.59,3.33-1,6.72-1.8,10.1-2.57a129.46,129.46,0,0,0,57.05-29.26C146.87,21.31,148.55,20.67,149.58,19.21Z"/><path class="cls-5" d="M54,329.26q0-45.25,0-90.53L65.82,232c1.22,5.5,2.28,11.05,3.68,16.5a102.1,102.1,0,0,0,23.27,43.1c14.51,16.25,32.47,26.55,53.31,32.11,8.27,2.21,16.84,2.46,25.31,3.38,6.46.7,13,.83,19.37,2.17Z"/><path class="cls-6" d="M59.27,173.57c6.93,4.78,14.59,6.25,23,6.12,20.45-.31,40.9-.12,61.35-.13a6.17,6.17,0,0,1,4.21-1.16c10.55,0,21.1-.15,31.65.08,4.61-.18,9.22-.07,13.83-.06,1.5,0,3,0,4.23,1.14h24c1.2-1.1,2.71-1.14,4.19-1.14,6.56,0,13.12-.14,19.68.06q12-.21,23.95,0,12-.21,24,0c6.57-.2,13.15-.07,19.72-.06,1.49,0,3,0,4.21,1.14q-3,6-6,12l-256.33,0c-9.32,0-16.08-5.21-18.61-14.14-.76-2.71-.32-3.93,2.81-3.86C45.82,173.7,52.55,173.58,59.27,173.57Z"/><path class="cls-3" d="M179.6,179.56h-36l-.06-11.94c-1.2-1.48-1.07-3.26-1.08-5q0-24.6,0-49.2c0-1.71-.2-3.51,1.07-5,0-7.1.25-14.2.05-21.3-.09-2.93.89-3.5,3.57-3.41,6.35.19,12.71.06,19.06,0l13.41.07c1.28,1.42,1.11,3.2,1.11,4.89,0,4.3.13,8.59-.06,12.88.11,4,.12,8,0,12,.1,4,.12,8,0,12q.17,6,0,12,.17,6,0,12c.12,4,.11,8,0,12.07.19,4.55.07,9.11.06,13.67C180.73,176.86,180.69,178.36,179.6,179.56Z"/><path class="cls-3" d="M269.38,179.56h-24c-1.2-1.32-1.17-3-1.17-4.58q-.06-19.39,0-38.78c0-1.61-.05-3.26,1-4.65,1.5-1.16,3.28-1.06,5-1.06q30.91,0,61.82,0c1.82,0,3.78-.28,5.22,1.32l0,41.77c1.4,1.75.54,3.51,0,5.26,0,.24,0,.47-.06.71H293.28c-1.28-1.45-1.13-3.24-1.14-5,0-6.46,0-12.93,0-19.4,0-3.94-.4-4.29-4.25-4.34q-6.53-.09-13.06,0c-3.85.05-4.21.4-4.25,4.34-.06,6.47,0,12.94,0,19.4C270.51,176.32,270.66,178.11,269.38,179.56Z"/><path class="cls-7" d="M149.58,19.21c-3.25,5-8.3,8.09-12.92,11.58C120.06,43.32,101,50.23,81,54.68c-1.6.35-3.93-.24-4.66,2.19L57.74,22.8c-1-1.87-1.43-3.72,0-5.58s3.43-1.89,5.43-1.33c5.16,1.42,10.36,2.75,15.42,4.45,3.19,1.07,5.45.34,7.66-2,3.13-3.38,6.46-6.58,9.76-9.8s5.58-3,8.36.6c2,2.56,3.83,5.24,5.84,7.78,2.41,3.05,4.73,3.22,7.56.52,3.07-2.93,6-6,9-9s5.45-2.89,8.11.46c2,2.54,3.89,5.18,5.83,7.77C143.85,20.77,144.63,21,149.58,19.21Z"/><path class="cls-4" d="M317.25,131.82H245.43c-3.46,1.53-7.05.82-10.59.57-1.78-.13-1.78-1.38-.89-2.68a16.62,16.62,0,0,1,2-2.21q8.79-8.81,17.6-17.59c1.22-1.21,2.36-2.59,4.26-2.75q10.72-10.64,21.44-21.29c1.17-1.17,2-2.36,3.8-.5,15.13,15.28,30.36,30.45,46.37,46.45Z"/><path class="cls-8" d="M257.79,107.16,233.7,130.62l.46,1.2h11.27q0,23.87,0,47.74H221.5c0-14.69-.08-29.39,0-44.07,0-2.83-.61-4.16-3.71-3.84-2.53.25-5.1,0-7.81,0l23.34-24c1,.73,1,1.91,1.2,3s.72,1.84,2,1.74,1.63-1,1.75-2c.27-2.32-.09-4.67.31-7a3.24,3.24,0,0,1,.83-1.61,244.05,244.05,0,0,1,17.88-17.94c0,6.42,0,12.83.11,19.24C257.41,104.5,257.15,105.88,257.79,107.16Z"/><path class="cls-5" d="M258.13,233.47c.29.4.48.94.87,1.19,5.61,3.64,4.7,8.62,3,13.84a30,30,0,0,1-28.76,20.88c-30.41,0-60.82-.05-91.23.08-3.41,0-4.5-.86-4.39-4.35.24-7.69,0-7.7,7.68-7.7,28.3,0,56.59-.1,84.88.09,5.54,0,10.42-1.32,14.57-4.68,6.24-5.06,11.92-10.66,12.68-19.39Z"/><path class="cls-8" d="M179.63,101.86q0-9,0-18l17.91-.07q0,47.88,0,95.76H179.6l0-18c.19-.16.4-.28.6-.42,1.27-.85,3.53,0,4-2a14.5,14.5,0,0,0,0-6.93c-.59-2.26-3.38-1-4.61-2.43V137.59c.19-.15.4-.28.6-.42,1.27-.84,3.53,0,4-2a14.46,14.46,0,0,0,0-6.92c-.59-2.26-3.38-1-4.61-2.44V113.65c.19-.16.4-.28.6-.42,1.27-.85,3.53,0,4-2a14.5,14.5,0,0,0,0-6.93C183.65,102,180.86,103.28,179.63,101.86Z"/><path class="cls-7" d="M23.91,53.91l5.21,0c6.79,0,6.79,0,6.79,6.73,0,5.24,0,5.24-5.3,5.24l-6.7,0-.44-.49a22.14,22.14,0,0,1,0-10.94Z"/><path class="cls-7" d="M6,113.74c-6,0-6,0-6-7.21,0-4.76,0-4.77,7.31-4.76,4.66,0,4.66,0,4.66,7.4C12,113.74,12,113.74,6,113.74Z"/><path class="cls-7" d="M317.24,66.19c0,5.65,0,5.65-5.66,5.65-6.31,0-6.31,0-6.31-6.14a21.14,21.14,0,0,0,0-3c-.33-2.33.61-3.2,2.9-2.88a17.46,17.46,0,0,0,2.61,0C317.24,59.86,317.24,59.86,317.24,66.19Z"/><path class="cls-7" d="M23.91,65.82c0,1.74,0,3.47,0,5.21,0,6.79,0,6.79-6.73,6.79-5.24,0-5.24,0-5.24-5.3,0-2.23,0-4.47,0-6.7l.52-.46c3.86-.8,7.72-1.41,11.45.52Z"/><path class="cls-7" d="M35.91,5.83c0,6.14,0,6.14-6.29,6.14-5.68,0-5.68,0-5.68-5.64C23.94,0,23.94,0,30.42,0,35.91,0,35.91,0,35.91,5.83Z"/><path class="cls-7" d="M317.28,12c0-1.74,0-3.47,0-5.21C317.24,0,317.24,0,324,0c5.25,0,5.25,0,5.24,5.3q0,3.36,0,6.7l-.49.44a22.14,22.14,0,0,1-10.94,0Z"/><path class="cls-7" d="M317.27,23.91c-1.73,0-3.47,0-5.21,0-6.79,0-6.79,0-6.79-6.73,0-5.24,0-5.24,5.31-5.24l6.7,0-.07-.06c1.94,3.74,1.32,7.59.53,11.46Z"/><path class="cls-7" d="M329.19,12c1.73,0,3.47,0,5.21,0,6.79,0,6.79,0,6.79,6.73,0,5.24,0,5.25-5.3,5.24-2.24,0-4.47,0-6.7,0l-.47-.52c-.79-3.86-1.41-7.71.53-11.45Z"/><path class="cls-7" d="M329.19,23.91c0,1.74,0,3.48,0,5.22,0,6.79,0,6.79-6.72,6.79-5.25,0-5.25,0-5.24-5.31q0-3.34,0-6.7l-.06.06a13.89,13.89,0,0,1,12,0Z"/><path class="cls-7" d="M12,53.91c0-1.74,0-3.48,0-5.21,0-6.8,0-6.8,6.73-6.8,5.24,0,5.25,0,5.24,5.31,0,2.23,0,4.46,0,6.7l.06-.06c-3.73,1.93-7.59,1.31-11.45.53Z"/><path class="cls-7" d="M347.17,47.58c0-5.68,0-5.68,5.64-5.68,6.33,0,6.33,0,6.33,6.49a15.08,15.08,0,0,0,0,2.23c.41,2.6-.58,3.69-3.23,3.28a16.23,16.23,0,0,0-2.61,0C347.17,53.88,347.17,53.88,347.17,47.58Z"/><path class="cls-7" d="M12,65.82c-1.73,0-3.47,0-5.21,0C0,65.85,0,65.85,0,59.12c0-5.24,0-5.25,5.3-5.24,2.24,0,4.47,0,6.7,0l-.06-.06a13.8,13.8,0,0,1,0,12Z"/><path class="cls-9" d="M317.28,178.85c0-1.75,0-3.51,0-5.26l3,0A17,17,0,0,1,317.28,178.85Z"/><path class="cls-10" d="M35.92,242.37c0,6.13-1.8,8.91-5.83,9s-6.15-2.81-6.15-9.07v-.74c0-5.33,2.09-8.11,6-8.1s5.95,2.8,6,8.14Z"/><path class="cls-2" d="M221.47,107.69a25,25,0,0,0,0,2.6c.24,2.29-.12,3.56-3,3.57s-3.14-1.44-3-3.63c.1-1.36-.09-2.74,0-4.09.18-1.9-1.21-4.44,2.82-4.51s3,2.43,3.14,4.58C221.49,106.7,221.47,107.2,221.47,107.69Z"/><path class="cls-2" d="M239.41,101.85c0,3.11-.12,6.22.06,9.31.13,2.31-1,2.64-2.9,2.63s-3.47-.12-3.15-2.72a23.32,23.32,0,0,0-.07-3.34,2.46,2.46,0,0,0,0-.37C233.56,101.64,233.56,101.64,239.41,101.85Z"/><path class="cls-2" d="M239.43,60a18.78,18.78,0,0,0,0,2.6c.36,2.53-.51,3.38-3.2,3.41s-2.94-1.34-2.82-3.4c.09-1.61,0-3.22,0-4.83,0-2.1-.45-4,3-4s3,1.88,3,4C239.42,58.47,239.43,59.21,239.43,60Z"/><path class="cls-2" d="M239.43,36.07c0,.86-.07,1.74,0,2.59.21,2.15-.14,3.35-2.87,3.35s-3.4-1-3.16-3.45a28.79,28.79,0,0,0,0-5.57c-.24-2.43.63-3.2,3.08-3.14,2.16.06,3.3.46,3,2.88A23.23,23.23,0,0,0,239.43,36.07Z"/><path class="cls-2" d="M215.49,35.8c0-.87.06-1.74,0-2.6-.18-2.1.07-3.39,2.85-3.38s3.44.94,3.19,3.44a27.92,27.92,0,0,0,0,5.56c.22,2.39-.57,3.25-3.06,3.16-2.12-.07-3.33-.39-3-2.84A24.79,24.79,0,0,0,215.49,35.8Z"/><path class="cls-2" d="M221.47,59.74a26.74,26.74,0,0,0,0,3c.27,2.3-.41,3.26-3,3.23s-3.28-.78-3.06-3.17a34.66,34.66,0,0,0,0-5.94c-.16-2.16.4-3,2.82-3,2.64,0,3.6.79,3.22,3.36A18.78,18.78,0,0,0,221.47,59.74Z"/><path class="cls-2" d="M221.47,83.87a18.78,18.78,0,0,0,0,2.6c.34,2.49-.44,3.42-3.17,3.43s-3-1.26-2.85-3.37c.1-1.48,0-3,0-4.46.07-2-.93-4.38,2.95-4.38s3,2.24,3,4.33C221.49,82.63,221.47,83.25,221.47,83.87Z"/><path class="cls-2" d="M239.43,84a22.55,22.55,0,0,0,0,2.6c.24,2.22-.28,3.34-2.94,3.28-2.39-.06-3.38-.66-3.1-3.13.18-1.59,0-3.21,0-4.82,0-2.13-.7-4.33,3.1-4.26,3.57.07,2.85,2.1,2.88,4.1C239.44,82.52,239.43,83.26,239.43,84Z"/><path class="cls-7" d="M143.53,108.46v59.16c-17.45,0-34.91-.23-52.37.06a30.42,30.42,0,0,1-31.34-31.23c.26-12.65-.63-25.34,3-37.77A166.53,166.53,0,0,1,78.19,62c.87-1.51,1.72-1.69,3.26-1.42A93.3,93.3,0,0,1,115,73.4a69.85,69.85,0,0,1,24.51,25.5C141.16,101.9,142.2,105.26,143.53,108.46Z"/><path class="cls-8" d="M269.38,179.56c0-8.7.13-17.39-.09-26.08-.09-3.2,1-4,4-3.88,5.32.21,10.68.21,16,0,3-.13,4.12.68,4,3.88-.22,8.69-.08,17.38-.09,26.08Z"/><path class="cls-2" d="M179.63,125.8a16.13,16.13,0,0,0,1.85-.1c3.15-.51,4.71.55,4.1,4a12.64,12.64,0,0,0,0,2.22c0,5.94,0,5.94-5.93,5.71Z"/><path class="cls-2" d="M161.62,155.79a26.74,26.74,0,0,0,0-3c-.26-2.26.34-3.3,3-3.26,2.43,0,3.31.73,3.08,3.16a30.13,30.13,0,0,0,0,5.93c.27,2.56-.84,3-3.16,3.06s-3.19-.66-2.89-3A22.61,22.61,0,0,0,161.62,155.79Z"/><path class="cls-2" d="M179.63,149.75a16.13,16.13,0,0,0,1.85-.1c3.15-.52,4.71.55,4.1,3.95a12.76,12.76,0,0,0,0,2.23c0,5.94,0,5.94-5.93,5.71Z"/><path class="cls-2" d="M167.6,107.69a22.52,22.52,0,0,0,0,2.6c.24,2.29-.12,3.56-3.05,3.57s-3.13-1.44-3-3.63c.09-1.36-.09-2.74,0-4.09.18-1.9-1.21-4.44,2.81-4.51s3.05,2.43,3.15,4.58C167.62,106.7,167.6,107.2,167.6,107.69Z"/><path class="cls-2" d="M179.63,101.86a16.13,16.13,0,0,0,1.85-.1c3.15-.52,4.71.55,4.1,3.95a12.76,12.76,0,0,0,0,2.23c0,5.94,0,5.94-5.93,5.71Z"/><path class="cls-2" d="M167.6,131.71a20.48,20.48,0,0,0,0,2.6c.31,2.41-.32,3.5-3.12,3.48s-3.09-1.14-2.91-3.32c.12-1.48,0-3,0-4.46.11-2-1-4.39,2.9-4.43s3,2.17,3.07,4.27C167.61,130.47,167.6,131.09,167.6,131.71Z"/><circle class="cls-11" cx="17.96" cy="59.86" r="8.51"/><circle class="cls-11" cx="323.23" cy="17.96" r="8.51" transform="translate(-0.02 0.43) rotate(-0.08)"/><path class="cls-12" d="M101.91,131.7c3,0,6-.16,9,.05,2.36.16,2.92-.67,2.93-2.94s-.54-3.27-3.08-3.16c-4.61.21-9.23.1-13.84,0-4.9,0-7-2.19-7.09-7.09q-.08-7.85,0-15.71c0-4.92,2.17-7.12,7.06-7.08,3,0,5.92.33,4.93-4.24-.34-1.55.73-1.84,2-1.8a43.61,43.61,0,0,0,5.24,0c3.06-.28,5.49-.07,4.69,4.08-.27,1.41.44,2,1.9,1.94a33.34,33.34,0,0,1,3.74,0c5,.26,8.65,6.82,6.21,11.23-.64,1.16-1.76.69-2.67.7-6.11,0-12.22.13-18.32,0-2.34-.07-2.93.65-2.94,2.93s.53,3.28,3.08,3.17c4.73-.21,9.48-.12,14.21,0,4.44.07,6.66,2.27,6.72,6.7.08,5.36.06,10.72,0,16.08,0,4.92-2.19,7.13-7.07,7.09-3,0-5.91-.3-4.92,4.25.34,1.56-.75,1.83-2,1.79a41.63,41.63,0,0,0-5.24,0c-3.08.28-5.48,0-4.68-4.09.27-1.42-.46-2-1.91-1.94a33.34,33.34,0,0,1-3.74,0c-5-.26-8.65-6.83-6.21-11.24.56-1,1.5-.68,2.31-.69C95.43,131.68,98.67,131.7,101.91,131.7Z"/></g></g></svg>