<svg xmlns="http://www.w3.org/2000/svg" viewBox="0 0 463.9 464"><defs><style>.cls-1{fill:#ebebeb;}.cls-2{fill:#17a249;}.cls-3{fill:#c6c6c4;}.cls-4{fill:#66d386;}</style></defs><g id="Layer_2" data-name="Layer 2"><g id="Layer_1-2" data-name="Layer 1"><path class="cls-1" d="M359,463.88q-177.1,0-354.19.12C.52,464,0,462.91,0,459Q.18,232,0,5c0-3.8.4-5,4.71-5Q142.85.26,281,.13a3.36,3.36,0,0,1,.57,1.79c.66,18,.12,35.94.28,53.91.05,5,0,10,0,15,0,7.33.08,7.39,7.64,7.4q30.7,0,61.43,0a62.94,62.94,0,0,1,8.46.45c3.14,2.25,2.4,5.65,2.41,8.7q.13,34.73,0,69.44c0,17,.13,34-.06,50.94-4.17,6.71-10.14,11.78-16.16,16.63-23.63,19-50.73,27.72-81.07,26.15-3.42-.18-7.08,0-9.53-3.23-.65-4.62-3.55-5.56-7.81-5.53-21,.16-41.95.05-62.93.09-5.69,0-8.7,5.51-5.85,10.54,1.24,2.2,3.46,1.71,5.36,1.72,15.32.09,30.63,0,45.95,0,6.49,0,13,0,19.48,0,2.47,0,5-.16,7.15,1.61a20.59,20.59,0,0,1,0,16.43c-2.76,2.13-6,1.62-9.14,1.62q-56.71.06-113.43,0c-1.67,0-3.34,0-5,0-6.28.1-8.66,3.71-6.55,9.78.6,1.74,1.85,2.2,3.43,2.31,2,.14,4,.12,6,.12q57.71,0,115.43,0c3.12,0,6.38-.5,9.18,1.55,1.37,1.62,1.55,3.61,1.58,5.58q.17,14.82,0,29.63a8.54,8.54,0,0,1-1.36,5.17c-2.69,2.29-6,1.75-9.07,1.75q-40.92.07-81.83,0c-1.83,0-3.66,0-5.49,0-5.46.16-8.32,5.42-5.69,10.4.74,1.4,2,1.63,3.34,1.72,2,.13,4,.11,6,.11,28.11,0,56.22,0,84.33,0,3.76,0,7.88-.51,9.85,4,.94,4.79,3.94,9.49.74,14.5-2.95,1.61-6.17,1.17-9.3,1.17q-97.67,0-195.33,0c-2,0-4,0-6,0-5.44.16-6,.72-6,6.1,0,5.62.46,6.06,7.49,6.07q102.15,0,204.32,0c3,0,6-.23,8.94.5a5,5,0,0,1,3.85,2.83c1.83,3.71,3.78,7.35,5.55,11.08.74,1.55.94,3.23-.89,4.37-2.51,1.18-5.2.92-7.84.92-18.27,0-36.54,0-54.82,0-6.07,0-8.89,4.67-6.37,10.25.65,1.46,1.82,1.79,3.2,1.9,2.65.2,5.31.13,8,.13H274.7a40.08,40.08,0,0,1,7.43.4,8.59,8.59,0,0,1,6,3.15c9.71,10.45,21.79,17.84,33.36,25.87,10.91,7.56,21.78,15.18,32.73,22.68C356.24,459.54,359.19,460.49,359,463.88Z"/><path class="cls-2" d="M361,208.87c18.84,22.26,42.91,35,71.63,39.17a115,115,0,0,0,31.28,0v98.95a100.29,100.29,0,0,1-7.42,30.28c-9.16,21.27-23.55,38-42.54,51.1-15.5,10.67-31,21.28-46.36,32.21-2.08,1.48-4.49,2.11-6.63,3.35h-2c-3.66-4.16-8.62-6.6-13.05-9.72-13.46-9.51-27-18.85-40.64-28.14-7.74-5.29-14.49-11.68-21.13-18.22a29.57,29.57,0,0,1-11.84-15.93l-8.15-16a20.28,20.28,0,0,1-5.21-15.93q-1.06-6.5-2.12-13c-1.38-4.37-3.34-8.59-2.62-13.4.29-2,.24-4,1.64-5.61V288a18,18,0,0,1,0-16.07V256c-1.83-2.69-2.11-5.35.19-7.94,24.19,2.95,47.24-.63,69-12a115.4,115.4,0,0,0,31.78-24.44C357.9,210.46,358.59,208.32,361,208.87Z"/><path class="cls-3" d="M179.43,224c-44.45,0-88.89-.08-133.34.1-4.78,0-6.29-1.23-6.12-6.08.34-10,.08-10,10.06-10H313.2c6.76,0,6.76,0,6.76,6.72,0,9.27,0,9.27-9.2,9.27Z"/><path class="cls-3" d="M258.93,359.91q2.61,8,5.21,15.93-109.86,0-219.71.13c-3.14,0-4.36-.82-4.43-4.19-.23-11.85-.35-11.85,11.7-11.85Z"/><path class="cls-3" d="M281,1l78,78c-1.31,1.49-3.07,1-4.68,1-23.13,0-46.26,0-69.39.07-3.4,0-5.1-.49-5.07-4.55.17-23.45.08-46.91.09-70.37C280,3.76,279.66,2.18,281,1Z"/><path class="cls-3" d="M120.63,144.05c24.63,0,49.25.11,73.87-.1,4.36,0,5.74,1.1,5.62,5.57-.27,10.52,0,10.52-10.53,10.52-47.92,0-95.83-.06-143.74.1-4.55,0-6-1.16-5.88-5.81.31-10.27.07-10.28,10.29-10.28Z"/><path class="cls-3" d="M115.81,192c-23.29,0-46.58-.1-69.87.09-4.38,0-6.14-.87-6-5.71C40.3,176,40,176,50.17,176H185.41c6.6,0,6.6,0,6.61,6.37,0,9.62,0,9.62-9.83,9.62Z"/><path class="cls-3" d="M248,128.06c-22.12,0-44.24-.1-66.37.08-4.15,0-5.89-.75-5.76-5.41.29-10.66,0-10.66,10.91-10.66,42.25,0,84.5.07,126.75-.1,4.76,0,6.8.76,6.54,6.18-.48,9.89-.12,9.91-10.19,9.91Z"/><path class="cls-3" d="M111.83,407.91c-22,0-43.91-.11-65.87.08-4.35,0-6.16-.82-6-5.69.35-10.38.07-10.38,10.69-10.38H177.4c6.61,0,6.61,0,6.62,6.34,0,9.65,0,9.65-9.81,9.65Z"/><path class="cls-3" d="M255.83,271.94V288c-43.27,0-86.53-.1-129.8.07-4.82,0-6.25-1.3-6.09-6.11.34-10,.08-10,10.08-10Z"/><path class="cls-3" d="M176,32.11c19.62,0,39.25.12,58.87-.09,4.23-.05,5.34,1.32,5.27,5.39-.18,10.69,0,10.69-10.85,10.69-37.09,0-74.17-.09-111.26.11-4.88,0-6.19-1.41-6-6.16.34-9.93.09-9.94,10.12-9.94Z"/><path class="cls-3" d="M176.08,80.08c-19.46,0-38.92-.1-58.37.09-4.14,0-5.9-.74-5.77-5.41.28-10.66,0-10.67,10.89-10.67,37.09,0,74.18.1,111.26-.11,4.91,0,6.17,1.47,6,6.18-.32,9.92-.08,9.92-10.13,9.92Z"/><path class="cls-3" d="M99.81,128.06c-18.29,0-36.58-.08-54.88.07-3.58,0-5-.83-4.94-4.7,0-11.36-.14-11.36,11.17-11.36,34.26,0,68.52.08,102.77-.1,4.66,0,6.39,1,6.22,6-.36,10.11-.09,10.12-10,10.12Z"/><path class="cls-3" d="M100.6,240c18.13,0,36.26.09,54.38-.08,3.84,0,5.2,1,5.15,5-.14,11.06.05,11.06-11,11.06-34.42,0-68.85-.08-103.27.09-4.48,0-6.06-1-5.91-5.77C40.29,240,40,240,50.22,240Z"/><path class="cls-3" d="M263.64,192c-17,0-33.92-.09-50.88.08-3.72,0-4.85-1.07-4.83-4.8C208,176,207.81,176,219.19,176c31.76,0,63.52.09,95.28-.09,4.39,0,5.71,1.14,5.6,5.57C319.81,192,320,192,309.53,192Z"/><path class="cls-3" d="M255.83,327.91q.5,9.49,1,19c-1-3-3.3-3-5.93-3-30.95.06-61.9-.06-92.84.15-4.8,0-6.28-1.26-6.12-6.09.35-10,.09-10,10.07-10Z"/><path class="cls-3" d="M268.53,144.05c15.62,0,31.25.08,46.88-.06,3.39,0,4.61.92,4.64,4.48.07,11.57.21,11.57-11.46,11.57-29.09,0-58.18-.07-87.28.08-4.05,0-5.48-1-5.4-5.25.19-10.82,0-10.82,10.72-10.82Z"/><path class="cls-3" d="M88.1,343.94c-14.13,0-28.26-.14-42.38.09-4.18.07-5.88-.79-5.75-5.43C40.25,328,40,328,50.87,328c26.43,0,52.86.09,79.29-.08,4.33,0,6.17.8,6,5.67-.34,10.39-.06,10.4-10.66,10.4Z"/><path class="cls-3" d="M256,248.09c-.06,2.65-.12,5.29-.19,7.94-24.65,0-49.3-.12-74,.05-4.4,0-6.13-.91-6-5.73C176.24,240,176,240,186.15,240q30.72,0,61.46,0C257.44,240,255.76,239.07,256,248.09Z"/><path class="cls-3" d="M272.29,391.87l11.84,15.93c-26.65,0-53.3,0-79.95.16-3.35,0-4.19-1.22-4.23-4.38-.17-11.67-.28-11.66,11.38-11.67Z"/><path class="cls-3" d="M71.57,288c-9,0-17.94-.12-26.91.06-3.36.07-4.64-.84-4.66-4.45C39.92,272,39.77,272,51.4,272c15.94,0,31.88.09,47.83-.07,3.6,0,4.93.87,4.92,4.71C104.12,288,104.28,288,93,288Z"/><path class="cls-4" d="M431.92,313.25c-.41,10.56,1.1,23.09-1.48,35.43-4.63,22.06-16.51,39.26-35.08,51.94-10.57,7.22-21.14,14.45-31.59,21.85-2.63,1.86-4.56,2.29-7.38.18-13.06-9.75-27.15-18-39.8-28.34-15.36-12.5-24.72-28.81-27.44-48.27-2.91-20.81-.61-41.87-1.18-62.81-.07-2.31.86-3,3.16-3.34A143.64,143.64,0,0,0,356.76,254c2.5-1.8,4.17-1.58,6.51.11,19.53,14.07,41.42,22.35,65.17,25.7,2.9.41,3.54,1.47,3.51,4.06C431.85,293.06,431.92,302.21,431.92,313.25Z"/><path class="cls-1" d="M350.86,384c-1,.06-2.71-.89-4.33-2.1-9.32-7-18.57-14.06-28-20.9-3-2.15-2.62-3.8-.65-6.4,6.89-9.13,6.8-9.18,16-2.26,4.37,3.32,8.88,6.47,13.1,10,2.61,2.16,4,2.08,6.19-.77,14.55-19,29.34-37.86,44-56.78,4.42-5.7,4.38-5.73,9.94-1.4,7.13,5.54,7.13,5.54,1.58,12.67Q384,347.7,359.37,379.42C357.45,381.91,355.32,383.8,350.86,384Z"/></g></g></svg>