<svg xmlns="http://www.w3.org/2000/svg" width="100%" height="100%" viewBox="0 0 37.389 29.443">
  <g id="Career" transform="translate(0 -54.4)">
    <path id="Path_802" data-name="Path 802" d="M136.206,158.921H109.5a.678.678,0,0,1-.675-.675V140.424a.676.676,0,0,1,.675-.673h26.707a.674.674,0,0,1,.673.673v17.823a.676.676,0,0,1-.673.675Z" transform="translate(-100.877 -79.118)" fill="#d8a595" fill-rule="evenodd"/>
    <path id="Path_803" data-name="Path 803" d="M209.472,68.88a.548.548,0,0,1-1.1,0V66.787a2.414,2.414,0,0,1,2.41-2.409.548.548,0,0,1,0,1.1,1.322,1.322,0,0,0-1.314,1.314Zm10.013-3.407a.548.548,0,1,1,0-1.1,2.417,2.417,0,0,1,2.41,2.409V68.88a.548.548,0,0,1-1.1,0V66.787a1.322,1.322,0,0,0-1.314-1.314Z" transform="translate(-193.16 -9.249)" fill="#477b9e"/>
    <g id="Group_440" data-name="Group 440" transform="translate(0 54.4)">
      <path id="Path_804" data-name="Path 804" d="M90.524,126.031h29.442a.68.68,0,0,1,.693.665v6.3c0,3.424-13.2,3.993-15.413,3.993s-15.416-.569-15.416-3.993v-6.3a.681.681,0,0,1,.693-.665Z" transform="translate(-83.271 -120.8)" fill="#d09080" fill-rule="evenodd"/>
      <path id="Path_805" data-name="Path 805" d="M118.834,126.031h1.132a.68.68,0,0,1,.693.665v6.3c0,3.424-13.2,3.993-15.413,3.993s-15.416-.569-15.416-3.993v-1.824c0,3.422,13.2,3.991,15.416,3.991s13.587-.569,13.587-3.991Z" transform="translate(-83.271 -120.8)" fill="#be694f" fill-rule="evenodd"/>
      <path id="Path_806" data-name="Path 806" d="M250.162,240.013h5.359a1.112,1.112,0,0,1,1.109,1.107v3.051a1.112,1.112,0,0,1-1.109,1.107h-5.359a1.111,1.111,0,0,1-1.107-1.107V241.12A1.111,1.111,0,0,1,250.162,240.013Z" transform="translate(-230.868 -226.459)" fill="#ffe5a0" fill-rule="evenodd"/>
      <path id="Path_807" data-name="Path 807" d="M242.65,54.4h6.144a1.277,1.277,0,1,1,0,2.554H242.65a1.277,1.277,0,1,1,0-2.554Z" transform="translate(-223.747 -54.4)" fill="#ffe5a0" fill-rule="evenodd"/>
      <path id="Path_808" data-name="Path 808" d="M.64,213.679H12.482a.639.639,0,0,1,.638.638v16.537a.639.639,0,0,1-.638.638H.64a.641.641,0,0,1-.64-.638V214.316a.641.641,0,0,1,.64-.638Z" transform="translate(0 -202.048)" fill="#ecf4ff" fill-rule="evenodd"/>
      <path id="Path_809" data-name="Path 809" d="M37.037,179.566c.2,0,.368.045.414-.22a1.3,1.3,0,0,1,1.275-1.072h1.94a1.3,1.3,0,0,1,1.273,1.072c.054.284.186.22.414.22a1.294,1.294,0,1,1,0,2.587H37.037a1.294,1.294,0,0,1,0-2.587Z" transform="translate(-33.135 -169.228)" fill="#477b9e" fill-rule="evenodd"/>
    </g>
    <path id="Path_810" data-name="Path 810" d="M30.7,256.86a.546.546,0,0,1,1.019-.391l1.248,3.25,1.248-3.25a.546.546,0,0,1,1.018.391l-1.757,4.575a.545.545,0,0,1-1.019,0Zm-4,.019a2.98,2.98,0,0,0,0,3.989,2.569,2.569,0,0,0,1.9.851,2.517,2.517,0,0,0,.609-.077.547.547,0,0,0,.4-.662c-.145-.577-.638-.356-1.008-.356a1.489,1.489,0,0,1-1.1-.5,1.9,1.9,0,0,1,0-2.509,1.457,1.457,0,0,1,1.439-.453.546.546,0,1,0,.265-1.06,2.418,2.418,0,0,0-.609-.077,2.569,2.569,0,0,0-1.9.851Z" transform="translate(-24.044 -186.904)" fill="#477b9e"/>
    <path id="Path_811" data-name="Path 811" d="M26.486,356.79a.548.548,0,1,1,0-1.1h8.237a.548.548,0,0,1,0,1.1Zm1.728,4.086a.548.548,0,0,1,0-1.1h4.778a.548.548,0,1,1,0,1.1Zm-1.728-2.043a.548.548,0,1,1,0-1.1h8.237a.548.548,0,0,1,0,1.1Z" transform="translate(-24.043 -279.293)" fill="#477b9e"/>
    <path id="Path_812" data-name="Path 812" d="M459.466,245.8v10.064a.676.676,0,0,1-.673.675h1.826a.676.676,0,0,0,.673-.675V245.059a9.951,9.951,0,0,1-1.826.741Z" transform="translate(-425.29 -176.736)" fill="#d09080" fill-rule="evenodd"/>
    <path id="Path_813" data-name="Path 813" d="M314.434,240.013h-1.826a1.112,1.112,0,0,1,1.11,1.107v3.051a1.112,1.112,0,0,1-1.11,1.107h1.826a1.112,1.112,0,0,0,1.109-1.107V241.12A1.112,1.112,0,0,0,314.434,240.013Z" transform="translate(-289.78 -172.059)" fill="#f2ce7e" fill-rule="evenodd"/>
    <path id="Path_814" data-name="Path 814" d="M146.568,227.451v3.4a.639.639,0,0,1-.638.637h1.826a.639.639,0,0,0,.638-.637V214.316a.639.639,0,0,0-.638-.638H145.93a.639.639,0,0,1,.638.638v13.134Z" transform="translate(-135.273 -147.648)" fill="#ddeafb" fill-rule="evenodd"/>
  </g>
</svg>
