<svg xmlns="http://www.w3.org/2000/svg" viewBox="0 0 383.13 378.5"><defs><style>.cls-1{fill:#abb2b9;}.cls-2{fill:#fe7058;}.cls-3{fill:#4cdac3;}.cls-4{fill:#fed05c;}.cls-5{fill:#ccd5df;}.cls-6{fill:#84dafe;}.cls-7{fill:#40596b;}</style></defs><g id="Layer_2" data-name="Layer 2"><g id="Layer_1-2" data-name="Layer 1"><path class="cls-1" d="M0,358.29l311.5,0c22.56,0,45.12.06,67.68-.08,3.13,0,4.11.85,3.93,4-.26,4.47-.15,9,0,13.46.06,2.1-.65,3-2.78,2.78a29.81,29.81,0,0,0-3,0H4.86c-1.62,0-3.24,0-4.86.05Z"/><path class="cls-2" d="M367.18,222.11V337c0,4.77,0,4.77-4.91,4.77-16.83,0-33.66-.08-50.49.07-3,0-3.73-.85-3.72-3.77q.1-115.57,0-231.17c0-3.22,1-3.87,4-3.84q25.43.21,50.87,0c3.35,0,4.37.76,4.36,4.28C367.13,145.56,367.18,183.83,367.18,222.11Z"/><path class="cls-3" d="M89.24,235.19c0-34,.05-68.06-.08-102.09,0-3.47.65-4.67,4.41-4.62,17.08.22,34.15.15,51.23,0,2.78,0,3.57.72,3.56,3.54q-.11,103.39,0,206.8c0,3-.88,3.75-3.79,3.72q-25.61-.19-51.23,0c-3.32,0-4.19-.91-4.18-4.19C89.28,304,89.24,269.59,89.24,235.19Z"/><path class="cls-4" d="M162.16,252.06c0-28.81.07-57.61-.08-86.41,0-3.49,1-4.36,4.38-4.32q25.24.24,50.5,0c3.08,0,4,.8,4,3.95q-.15,86.78,0,173.56c0,3-.89,3.76-3.8,3.74q-25.42-.19-50.87,0c-3.26,0-4.2-.79-4.18-4.14C162.22,309.66,162.16,280.86,162.16,252.06Z"/><path class="cls-5" d="M15.74,270.41c0-22.56.11-45.12-.1-67.67,0-4,1.19-4.71,4.84-4.67,16.82.19,33.64.16,50.47,0,3.13,0,4,.91,4,4q-.14,68.23,0,136.47c0,3-.59,4.12-3.86,4.09q-25.78-.24-51.59,0c-3,0-3.77-.87-3.76-3.8C15.79,316,15.74,293.22,15.74,270.41Z"/><path class="cls-6" d="M235.58,285.18c0-17.46.08-34.91-.07-52.36,0-3.15.92-4,4-3.95q25.42.21,50.86,0c3.12,0,4.38.65,4.37,4.11q-.18,52.35,0,104.72c0,3.43-1.2,4.15-4.35,4.12q-25.44-.19-50.86,0c-3.05,0-4.05-.75-4-3.93C235.66,320.34,235.58,302.76,235.58,285.18Z"/><path class="cls-5" d="M231.21,124.91c0-1.55-1.21-2.38-2.16-3.34q-40.31-40.3-80.6-80.6c-1-1-1.79-2.13-3.34-2.18,4.56-3.44,8.23-7.76,11.91-12.06,1,1.11,1.92,2.28,3,3.33l80.15,80.19c1.05,1,2,2.18,3,3.27-.2,1.13-1.11,1.6-2,2a19.64,19.64,0,0,0-8.15,7.85C232.64,124.1,232.36,125.06,231.21,124.91Z"/><path class="cls-5" d="M41,104c1.35-.12,2.2-1,3.08-1.93l73.35-73.38a24.74,24.74,0,0,0,1.64-2,1.32,1.32,0,0,1,1.26.64,25.24,25.24,0,0,0,10.35,10.45.86.86,0,0,1,.28,1c-1.85.1-2.74,1.59-3.86,2.71Q91.7,76.87,56.3,112.27c-1,1-1.9,2.33-3.38,2.88a1.32,1.32,0,0,1-1.26-.64,22.46,22.46,0,0,0-9.71-9A1.57,1.57,0,0,1,41,104Z"/><path class="cls-5" d="M256.58,113.65c1.38-.09,2.18-1.08,3.06-2Q294,77.34,328.34,43c.61-.61,1.1-1.33,1.65-2a1.65,1.65,0,0,1,1.71,1.13,19.31,19.31,0,0,0,8.45,8.44c.62.32,1.28.8,1,1.72-.55.67-1.06,1.39-1.67,2Q305.13,88.64,270.74,123c-.7.69-1.53,1.25-2.3,1.87-.25,0-.58.06-.69-.11a29.83,29.83,0,0,0-11.12-10.42C256.46,114.25,256.5,113.91,256.58,113.65Z"/><path class="cls-7" d="M341.15,52.26A23.75,23.75,0,0,1,330,41c-2.56-11,.17-19.23,8.08-24.24a19.91,19.91,0,1,1,7.44,36.45C344.05,52.93,342.6,52.57,341.15,52.26Z"/><path class="cls-7" d="M41,104a23.2,23.2,0,0,1,11.92,11.13c2.1,7.18,1.88,14-3,20.17a19.93,19.93,0,1,1-11.12-31.77C39.54,103.72,40.27,103.87,41,104Z"/><path class="cls-7" d="M256.58,113.65a22.91,22.91,0,0,1,11.86,11.22c2.09,7.32,1.76,14.27-3.34,20.39a19.91,19.91,0,0,1-34.73-17.11c.24-1.09.56-2.16.84-3.24a22.45,22.45,0,0,1,12-11.39A25.6,25.6,0,0,1,256.58,113.65Z"/><path class="cls-7" d="M131,38.79A22.65,22.65,0,0,1,119.07,26.7c-2.21-8.81-.6-16.54,6.78-22.38a19.45,19.45,0,0,1,23.25-.9,20,20,0,0,1,8.35,21.13c-.16.72-.28,1.45-.43,2.18a22.33,22.33,0,0,1-11.91,12.06A23.64,23.64,0,0,1,131,38.79Z"/></g></g></svg>