<svg xmlns="http://www.w3.org/2000/svg" viewBox="0 0 383.18 383.21"><defs><style>.cls-1{fill:#26c5d9;}.cls-2{fill:#00bbd3;}.cls-3{fill:#eaf9fb;}.cls-4{fill:#eaac87;}.cls-5{fill:#faf1de;}.cls-6{fill:#7d4d3d;}.cls-7{fill:#f1e4cd;}.cls-8{fill:#e7906f;}.cls-9{fill:#704537;}.cls-10{fill:#e6387f;}.cls-11{fill:#e79673;}.cls-12{fill:#e89774;}.cls-13{fill:#fed640;}</style></defs><g id="Layer_2" data-name="Layer 2"><g id="Layer_1-2" data-name="Layer 1"><path class="cls-1" d="M.15,329.19c1.48-2.37,1.41-5.16,2.05-7.75a70.65,70.65,0,0,1,65.16-53.78c2.73-.13,5.46-.28,8.19-.43,4.11,2.31,6.51,6.36,9.67,9.63,3.89,4,7.36,8.45,11.34,12.4,2.51,2.5,3.17,2.4,5.06-.63,3.89-6.24,7.65-12.56,11.62-18.74,1.86-2.9,2.46-2.84,5-.16q5.76,9.36,11.54,18.7c2.06,3.32,2.67,3.43,5.53.48,5.79-6,11-12.44,16.81-18.41,1-1,1.7-2.6,3.62-2,10.55,3.36,20.32,8.08,28.74,15.49a72.52,72.52,0,0,1,22.94,38.1,65.12,65.12,0,0,1,1.83,16.3c-.13,13.09,0,26.18-.06,39.27,0,1.83.36,3.77-1,5.36H3.15a3.78,3.78,0,0,1-3-3Z"/><path class="cls-2" d="M208.12,383.05c0-15.57.14-31.14,0-46.71C207.9,320,202,305.6,191.72,293a68.79,68.79,0,0,0-35-22.82c-.94-.27-1.65-.49-1.74-1.56-.43-.47-.35-.87.16-1.22a71.53,71.53,0,0,1,75.21,58.23,75.87,75.87,0,0,1,1,14.13c-.05,12.08-.08,24.17,0,36.25,0,2.72-.34,5.11-2.33,7.07Z"/><path class="cls-3" d="M.15,380.06l3,3Q-.69,383.91.15,380.06Z"/><path class="cls-4" d="M92.26,232.56c-3.76-1.57-7.61-3-11.27-4.73-27.31-13.25-43.1-35-47.86-64.93-.11-.72,0-1.52-.79-2a15.33,15.33,0,0,1-1.08-6.54c-.13-9.54-.26-19.07,0-28.61,2.94-20.21,14.37-34.54,31.35-44.91,10.52-6.43,21.94-7,33.91-5.34,12.5,1.72,25.08,1.74,37.19-2.75,9.83-3.64,16.6-10.28,19.33-20.64a13.27,13.27,0,0,1,.7-2.13c1.74-3.85,5.65-4.84,8.86-2.11a22.46,22.46,0,0,1,5.84,6.73c6.45,13.55,8.88,27.83,8.6,42.8-.35,17.93.12,35.88-.13,53.81-.42,30.77-13.4,55-39,72.05A79.33,79.33,0,0,1,106,235.44c-4.39.69-8.62-.84-12.81-2.05A3.76,3.76,0,0,1,92.26,232.56Z"/><path class="cls-5" d="M373.46,243.18c-1.11,1.19-2.57.71-3.89.71q-50.08,0-100.18,0c-9.95,0-16.19-4.79-15.68-15.79.27-5.71.08-11.46,0-17.19,0-3.76-1.14-4.45-4.77-4-10.78,1.47-21.59,2.73-32.38,4.15-1,.14-2,.4-2.6-.68-.67-1.27.59-1.79,1.24-2.37q12.75-11.43,25.57-22.78c2.69-2.39,5.29-4.89,8.09-7.15,3.67-3,5-6.51,5-11.34-.18-50.83-.11-101.67-.11-152.51C253.76,4.89,258.64,0,268.05,0l83,0c7.37,2.34,10,5.83,10,13.58,0,4.47.09,8.94,0,13.41,0,1.53.23,3.36-1.9,4a51.08,51.08,0,0,0-9.65-.67c-12.82,0-25.64,0-38.46,0a24.76,24.76,0,0,0-4.47.22A3.81,3.81,0,0,0,303.07,34a4.11,4.11,0,0,0,2.48,4.56,10.37,10.37,0,0,0,4.74.77c14.07,0,28.13,0,42.19,0,2.39,0,4.63-1,7-.7,2.42,3.23,2.4,16.18,0,19.33-23.9-1.4-47.82-.33-71.73-.58-3.89,0-5.54,1.34-5.66,4s1.85,4.44,5.57,4.73c2.37.18,4.74.08,7.11.08,13.21,0,26.42,0,39.63,0,8.34-.05,16.69.49,25-.66.12,0,.27.09.33.18,2.21,3.13,2,16.17-.23,19.18-23.85-1.4-47.72-.29-71.58-.61a11.14,11.14,0,0,0-2.23.19c-2.05.39-3.38,1.5-3.57,3.69A4.09,4.09,0,0,0,285,92.49a12.65,12.65,0,0,0,5.14.63c20.53,0,41.05,0,61.58,0,2.63,0,5.14-.89,7.77-.71,1.75.92,1.66,2.64,1.69,4.21q.15,10.36,0,20.73c0,1.46,0,3-1.45,4-.36,0-.79.06-1.08-.19-5.08-4.33-11.17-4.13-17.33-4.09-16.2.11-32.39,0-48.59,0-9.51,0-13.74,4.07-13.8,13.64-.12,21.8-.05,43.6,0,65.4a20.18,20.18,0,0,0,.33,3.72c1.22,6.61,4.8,9.83,11.52,9.91,11.71.14,23.42,0,35.13,0,5.36,0,10.72-.14,16.07,0,6.19.2,12.22.09,17.22-4.32,2,.4,1.88,2.12,1.91,3.51.13,7.56.25,15.13,0,22.69a12.44,12.44,0,0,1-6.18,10.52,135.68,135.68,0,0,1,16.33-.12A3,3,0,0,1,373.46,243.18Z"/><path class="cls-6" d="M167.7,54.71a28.34,28.34,0,0,0-5.48-6c-3-2.58-6.36-1.67-7.69,2-6.67,18.13-17.2,25.61-36.5,26.57-9.61.47-19.06-.35-28.58-1.42-10-1.12-19.29,1.47-27.75,6.79-14,8.81-24,20.78-28.18,37.05-.47,1.79-.77,3.63-1.15,5.45-.59.37-1.33.44-1.68-.08-2.42-3.61-6.08-6-9-9.08a206.42,206.42,0,0,1-5.3-41.32c-.89-29.42,13.45-48.94,38.67-61.8A117.24,117.24,0,0,1,99,.72c2.47-.2,4.89-1,7.41-.55,1.6,1,3.41.5,5.12.75a46.68,46.68,0,0,1,21,8.28,21.6,21.6,0,0,0,10.65,4.07c13.9,1.59,26.19,6.56,35.88,17.13a42,42,0,0,1,9.4,17.19c4.6,16.13,3.29,32.26-.37,48.36a3.22,3.22,0,0,1-1.35,2.15c-2,.23-2.06-1.49-2.49-2.65A51.91,51.91,0,0,1,181,84.33C179.56,73.08,174.48,63.53,167.7,54.71Z"/><path class="cls-7" d="M359.42,30.69a83.13,83.13,0,0,0,.14-21.49C359,4.39,354.77,2.29,351,.06c6.6,0,13.21,0,19.81,0a12,12,0,0,1,12.32,12.21q0,109.71,0,219.41a12,12,0,0,1-9.7,11.51H351.87c6.13-3.54,8.55-8.28,8.19-14.76s-.06-12.71-.09-19.07c0-1.21.37-2.51-.6-3.58a2.35,2.35,0,0,1-.32-1.42c2.79-24.88.56-49.83,1.22-74.74.08-2.86-1.77-5.47-.93-8.39,1.07-1.15.61-2.58.62-3.89Q360,107,360,96.6c0-1.29.5-2.75-.76-3.81a31.65,31.65,0,0,0,.14-8.25,49.17,49.17,0,0,0-.17-18.69,44.51,44.51,0,0,0,.2-8.24c.91-6.25,1.25-12.49-.22-18.71A46.94,46.94,0,0,0,359.42,30.69Z"/><path class="cls-8" d="M167.7,54.71c7.55,7,11.61,15.75,13.49,25.71a73.88,73.88,0,0,0,5.2,17.68c2.94,4.88,4.43,10.4,6.79,15.55,1.39,3,3,6,4.16,9.11.25.68.47,1.55,1.3,1.67,1.12.15,1.28-1,1.72-1.65,2-3.16,4-6.36,6.83-8.9.2.91,0,2,1.49,2.13,12.15,1.46,18.43,16,17.23,27.26-.73,6.85-3.08,13.1-8.53,17.7-4.57,3.86-9.9,5.63-15.58,3.22-3.3-1.4-3.69.06-4.07,2.47a78.37,78.37,0,0,1-14,33.76,82.9,82.9,0,0,1-41.14,30.76c-1.15.4-2.24.94-3.36,1.41-.72,6.18-.2,12.38-.29,18.57,0,1.86-.26,3.45-2,4.47-6.74,3.95-13.08,8.58-20.16,12a7.51,7.51,0,0,1-4.62-1.11c-5.69-3.59-11.49-7-17.15-10.62-1.27-.82-2.52-1.63-2.47-3.43.19-6.58-.38-13.17.33-19.73,2.79-.18,5.3,1.15,8,1.5,8.64,1.15,16.35-2.26,24-5.28a76.14,76.14,0,0,0,28.59-19.79c12.27-13.51,20-29.2,21.72-47.52,1.83-19.74.3-39.55.79-59.32.34-13.35-.17-26.58-5.09-39.24C169.79,60.28,168.75,57.49,167.7,54.71Z"/><path class="cls-9" d="M207.19,113.88c-1.74,4.38-5.39,7.53-7.46,11.77-1.09,2.22-2.13-.2-2.58-1.19q-4.34-9.64-8.46-19.37c-.95-2.25-2.21-4.44-2.3-7a84.65,84.65,0,0,0,3.37-18.15c1.32-15.26,1.07-30.52-7.61-43.88C174.31,24,162.37,17.45,148.33,15.12,141.44,14,135,12.74,129.11,8.27c-5.65-4.3-12.77-5.87-19.87-6.7-1.17-.14-2.22-.25-2.83-1.4C119.5-.34,132.49.07,145,4.54c2.09.74,4.48,1.33,6.05,2.75,6.06,5.51,13.62,6.31,21.16,7.85,17.11,3.49,30.75,12,37.3,29.07,4.55,11.85,4.86,24.26,3.42,36.73C211.65,92,208.31,102.76,207.19,113.88Z"/><path class="cls-8" d="M21.71,115.92a19.47,19.47,0,0,1,8.33,7c.57.88,1,2.06,2.33,2.14,0,9.67,0,19.34-.09,29,0,2.29,1.68,4.56.06,6.85-8.24,6.51-18,5.21-24.37-3.27C.1,147.27.73,131.13,9.54,121.48A16,16,0,0,1,21.71,115.92Z"/><path class="cls-5" d="M92.88,232.7c0,6.07,0,12.15,0,18.22,0,1.41.08,2.58,1.54,3.45,6.59,3.95,13.11,8,19.65,12a3.72,3.72,0,0,0,2.81.65c1.39.71,1.69,1.7.77,3-.89-.45-.89-1.81-2.2-2-4.46,7.22-8.93,14.49-13.44,21.75-2.33,3.77-2.72,3.84-5.56.69Q85.94,278.9,75.55,267.23l13.54-10.9a7.49,7.49,0,0,0,3.14-6.67c-.25-5.69,0-11.4,0-17.1A4.29,4.29,0,0,0,92.88,232.7Z"/><path class="cls-5" d="M117.61,270.07a5.22,5.22,0,0,0-.77-3c6.39-4,12.75-8.09,19.22-12a5,5,0,0,0,2.66-4.76c.12-5.9-.8-11.85.52-17.71,0,5.68.26,11.38,0,17.06-.13,3.14,1.22,5,3.46,6.85,4.24,3.51,9,6.5,12.46,10.86,0,.41-.1.81-.16,1.22-6.69,7.37-13.44,14.68-20,22.14-2.26,2.56-3.58,2.34-5.25-.53C125.79,283.42,121.66,276.77,117.61,270.07Z"/><path class="cls-5" d="M128.07,332.67a12.33,12.33,0,1,1-24.65-.42,12.33,12.33,0,0,1,24.65.42Z"/><path class="cls-10" d="M359.34,121.22a19.76,19.76,0,0,1,2,9.37q-.08,32.9,0,65.81a19.76,19.76,0,0,1-2,9.37c-2.92,3.92-6.84,5.36-11.69,5.33-18.81-.12-37.62,0-56.44-.06-8.64,0-13.34-4.7-13.36-13.44q-.06-34,0-68c0-8.89,4.76-13.56,13.64-13.56,18.69,0,37.38.07,56.06-.06C352.44,115.93,356.34,117.41,359.34,121.22Z"/><path class="cls-6" d="M359.34,84.54a6.23,6.23,0,0,1-.14,8.25,9.76,9.76,0,0,1-5.29,1.48c-22.17,0-44.34,0-66.52,0-4.57,0-7.09-2.23-6.93-5.93.15-3.34,2.37-5.24,6.37-5.26,8.6-.05,17.19,0,25.79,0,13.57,0,27.15,0,40.73,0C355.52,83,357.57,83.12,359.34,84.54Z"/><path class="cls-6" d="M359.37,57.61c2.05,2.79,1.88,5.54-.2,8.24a9.77,9.77,0,0,1-5.3,1.45c-22.17,0-44.34,0-66.51,0-4.57,0-7.08-2.26-6.89-6,.16-3.34,2.36-5.21,6.4-5.23,9.84,0,19.68,0,29.52,0,12.33,0,24.67,0,37,0C355.55,56,357.62,56.16,359.37,57.61Z"/><path class="cls-6" d="M359.42,30.69c2,2.81,1.81,5.54-.27,8.21a9.94,9.94,0,0,1-5.31,1.43c-15.2,0-30.41,0-45.61,0-4.81,0-7.52-2.77-6.74-6.76a5,5,0,0,1,5.24-4.39c16.2,0,32.39,0,48.59,0A7,7,0,0,1,359.42,30.69Z"/><path class="cls-11" d="M199,128.16v32.68h-.38V128.11Z"/><path class="cls-12" d="M108.07,235.14h15.49v.37H108Z"/><path class="cls-13" d="M314.16,151.63c0-5,0-10,0-14.93,0-4.21,1.72-6.32,5.05-6.52,3.56-.21,6,2,6.08,6.46.2,7.46.1,14.93.06,22.4,0,3.1.3,6.22-.31,9.3-.64,3.25-3,5.39-5.79,5.19s-5-2.58-5.07-5.85C314.1,162.33,314.16,157,314.16,151.63Z"/><path class="cls-13" d="M325.37,186.07c-.05,4.54-2.14,7.08-5.81,7.07-3.88,0-5.47-2.24-5.41-7.55q.09-6.84,5.52-6.76C323.22,178.88,325.42,181.67,325.37,186.07Z"/></g></g></svg>