<svg height="512pt" viewBox="0 0 512 512.00006" width="512pt" xmlns="http://www.w3.org/2000/svg"><path d="m505.496094 255.902344c0-137.695313-111.703125-249.316406-249.5-249.316406-137.792969 0-249.5 111.621093-249.5 249.316406 0 137.695312 111.707031 249.320312 249.5 249.320312 137.796875 0 249.5-111.625 249.5-249.320312zm0 0" fill="#d6f3fe"/><path d="m505.496094 255.902344c0 137.699218-111.699219 249.320312-249.5 249.320312v-498.636718c137.800781 0 249.5 111.617187 249.5 249.316406zm0 0" fill="#bdecfc"/><path d="m511.992188 255.605469c-.242188-150.386719-127.953126-259.761719-258.539063-255.484375-141.949219 1.382812-257.027344 118.1875-253.3671875 262.480468 3.4335935 135.664063 112.4531245 244.929688 248.0976565 248.988282 5.203125.546875 10.421875.546875 15.628906 0 138.167969-4.136719 248.519531-117.328125 248.179688-255.984375zm-30.488282-14.558594h-90.730468c-.933594-32.0625-4.84375-62.375-11.230469-89.984375h76.734375c14.242187 27.121094 23.128906 57.558594 25.226562 89.984375zm-44.128906-119.980469h-66.078125c-10.449219-32.492187-23.972656-58.464844-39.328125-77.886718 42.296875 15.085937 78.925781 42.414062 105.40625 77.886718zm-97.714844 0h-68.664062v-88.484375c33.480468 11.101563 56.675781 55.015625 68.664062 88.484375zm-98.664062-88.484375v88.484375h-68.660156c11.988281-33.464844 35.199218-77.390625 68.660156-88.484375zm0 118.480469v89.984375h-89.761719c.980469-31.933594 5.089844-62.382813 12.03125-89.984375zm0 119.976562v89.984376h-77.730469c-6.941406-27.601563-11.046875-58.054688-12.03125-89.984376zm0 119.980469v88.484375c-33.476563-11.101562-56.671875-55.015625-68.660156-88.484375zm30 88.484375v-88.484375h68.664062c-11.988281 33.464844-35.199218 77.390625-68.664062 88.484375zm0-118.480468v-89.984376h89.765625c-.980469 31.933594-5.089844 62.382813-12.03125 89.984376zm0-119.976563v-89.984375h77.734375c6.941406 27.601562 11.046875 58.054688 12.03125 89.984375zm-91.089844-197.828125c-15.273438 19.386719-28.75 45.324219-39.207031 77.847656h-66.101563c26.464844-35.453125 63.066406-62.757812 105.308594-77.847656zm-47.453125 107.84375c-6.386719 27.609375-10.296875 57.921875-11.230469 89.984375h-90.730468c2.09375-32.445313 10.972656-62.875 25.203124-89.984375zm-101.941406 119.976562h90.710937c.933594 32.0625 4.84375 62.375 11.230469 89.984376h-76.59375c-14.28125-27.097657-23.214844-57.527344-25.347656-89.984376zm44.316406 119.980469h65.867187c10.382813 32.285157 23.773438 58.105469 38.960938 77.464844-41.992188-15.066406-78.425781-42.222656-104.828125-77.464844zm257.492187 77.488281c15.195313-19.363281 28.589844-45.191406 38.976563-77.488281h65.898437c-26.398437 35.257813-62.839843 62.421875-104.875 77.488281zm123.832032-107.484374h-76.609375c6.386719-27.609376 10.296875-57.921876 11.230469-89.984376h90.710937c-2.128906 32.453126-11.058594 62.882813-25.332031 89.984376zm0 0" fill="#66a9df"/><path d="m255.996094.0585938v511.9375002c139.046875 0 256.34375-112.914063 256-256.394532-.25-149.410156-126.296875-258.332031-256-255.5429682zm134.773437 240.9843752c-.929687-32.054688-4.839843-62.375-11.230469-89.984375h76.738282c14.242187 27.121094 23.128906 57.558594 25.21875 89.984375zm90.71875 30c-2.128906 32.445312-11.058593 62.882812-25.332031 89.984375h-76.617188c6.390626-27.621094 10.300782-57.929688 11.230469-89.984375zm-110.191406-149.972657c-10.449219-32.496093-23.96875-58.46875-39.328125-77.890624 42.300781 15.085937 78.929688 42.417968 105.410156 77.890624zm-31.640625 0h-68.660156v-88.484374c33.480468 11.101562 56.671875 55.011718 68.660156 88.484374zm9.070312 29.988282c6.941407 27.601562 11.050782 58.058594 12.03125 89.988281h-89.761718v-89.988281zm12.03125 119.984375c-.980468 31.925781-5.089843 62.375-12.03125 89.984375h-77.730468v-89.984375zm-21.101562 119.972656c-11.988281 33.464844-35.199219 77.394531-68.660156 88.484375v-88.484375zm31.640625 0h65.902344c-26.402344 35.265625-62.839844 62.425781-104.882813 77.492187 15.203125-19.363281 28.589844-45.183593 38.980469-77.492187zm0 0" fill="#4f84cf"/></svg>