<svg xmlns="http://www.w3.org/2000/svg" viewBox="0 0 505.99 510.67"><defs><style>.cls-1{fill:#eeebed;}.cls-2{fill:#d1c9cf;}.cls-3{fill:#fafafa;}.cls-4{fill:#e6e2e6;}.cls-5{fill:#fee066;}.cls-6{fill:#857382;}.cls-7{fill:#fecb00;}.cls-8{fill:#684f64;}.cls-9{fill:#fec46e;}.cls-10{fill:#e8e4e7;}.cls-11{fill:#a698ef;}.cls-12{fill:#6c52e2;}.cls-13{fill:#e0dbdf;}.cls-14{fill:#fed89f;}.cls-15{fill:#c2b8c0;}.cls-16{fill:#feeacf;}.cls-17{fill:#958492;}.cls-18{fill:#feb039;}</style></defs><g id="Layer_2" data-name="Layer 2"><g id="Layer_1-2" data-name="Layer 1"><path class="cls-1" d="M46.1.22H331.36c5.63,1,7.45,5,7.6,10,.17,5.46.22,10.92,0,16.38q.64,14.82,0,29.63a38.47,38.47,0,0,1,.31,6q0,184.72,0,369.43c0,3.66.22,7.34-.8,10.91-1.28,4.52-3.8,7.74-8.91,8-4.48-.2-9-.08-13.44-.08q-133.69,0-267.38,0A8.9,8.9,0,0,1,42.94,449c-2.87-1.91-3.95-4.8-4.4-8a57.21,57.21,0,0,1-.29-8V17.44c0-2.33,0-4.66.16-7C38.84,5.45,40.57,1.41,46.1.22Z"/><path class="cls-2" d="M6.18,449.11c-2.77-.18-3.71-3.07-6-4V5.21a7.39,7.39,0,0,1,5-5H46.1c-4.74,2.94-6,7.3-6,12.71q.12,212.28.07,424.58c0,4-.12,8.08,4,10.56-.73,3.18-3.47,2.59-5.58,2.75C27.69,451.67,17,450,6.18,449.11Z"/><path class="cls-3" d="M5.21.22l-5,5Q-1.07-1.07,5.21.22Z"/><path class="cls-4" d="M6.18,449.11c10.93,0,21.85,0,32.78-.05,1.75,0,3.69.61,5.16-1a7,7,0,0,0,4,1c1.72.95,3.58.48,5.37.48q135.27,0,270.52,0c1.79,0,3.66.47,5.38-.48,6.09,0,7-4.62,7.89-9.09a25.82,25.82,0,0,0,.08-5q0-189.46,0-378.95a4.83,4.83,0,0,1,4.1-1.31c8,1.2,16.07,1.18,23.89,3.29,3.91,3.25,8.86,1.92,13.28,2.91,4.8,1.08,9.82,1.14,14.68,2,7.7,1.36,9.81,4.71,8.83,12.49-2.39,19-4.6,38-6.95,57-2.22,17.83-4.71,35.63-6.72,53.49-1,8.52-1.84,17.05-3.08,25.54-.21,1.38.48,2.9.75,4.35-.46,10.24-1.79,20.39-3,30.56-3.15,26.7-6.46,53.38-9.64,80.07q-8.28,69.45-16.67,138.89c-.52,4.34,0,9.09-3.54,12.64-1,8-1.69,16.07-2.94,24-.79,5-4.3,7.42-9.36,6.91-9.68-1-19.35-2.09-29-3.26-12.44-1.5-24.87-3.12-37.31-4.68-12.59-1.58-25.18-3.31-37.8-4.64-6.41-.68-12.8-1.82-19.3-1.4-6.69-.88-13.44-1.18-20.15-2-37.44-4.39-74.83-9.11-112.28-13.4a22.27,22.27,0,0,1-5.24-1.47c-6.84-2-14-2.06-20.94-3-11.58-1.58-23.23-2.65-34.81-4.28-6.22-.88-9-5.83-7.82-12.69,1.35-7.75,1.35-7.75-6.44-8C8.59,450,7.21,450.24,6.18,449.11Z"/><path class="cls-5" d="M176.7,145c30.91,3.7,55.64,31.14,56,62.1.26,23.36-9.43,41.73-28.49,54.91-4.64,3.21-3,7.16-3.47,11-.25.42-.32,1.05-.86,1.15-7.92,1.61-15.83,2.68-23.57-.81-1.37-2.06-1.25-4.42-1.26-6.73,0-11.61-.07-23.23,0-34.84.06-7.68,1.24-8.75,9.11-8.87a79.59,79.59,0,0,0,8.46-.21c3.35-.41,5.66-2.16,5.87-5.66.2-3.34-2.14-5-5-6.06a15.67,15.67,0,0,0-5.42-.54q-19.16,0-38.32,0a19.07,19.07,0,0,0-5.44.48c-3,.92-5.65,2.48-5.32,6.18.31,3.48,2.63,5.19,6,5.58s6.63.13,10,.27c6,.25,7.4,1.51,7.52,7.4.18,9.29.11,18.58,0,27.87,0,1.83-.13,3.67-1.36,5.19-2.71,1.81-4.83,0-6.71-1.44-15.77-12.16-25.4-28.08-26.84-48-2.09-28.68,13-53.18,39-65.23C169.88,147.22,173.7,147.21,176.7,145Z"/><path class="cls-6" d="M176.71,272.66c8,1.15,16,.51,24,.35,6.29,1.59,8,3.6,8,10q.09,10.44,0,20.87c-.2,18.78-12.07,31.5-31.06,33.34-17.24-4.32-26.41-16.14-26.46-34.1q0-7.71,0-15.43c0-4-.28-8,2-12.14-4.08-.77-7.68-.18-11.22-.42-2.24-.16-4.73.44-6.4-1.81l1-.85c2-1.66,4.5-1.78,7-1.75,5.71.08,11.42-.32,17.12.25C166,271.14,171.67,269.14,176.71,272.66Z"/><path class="cls-7" d="M160.83,272.62l-24.28-.17c.92-5.23-.75-8.63-5.48-11.85-20.59-14-30.62-41.22-25-66.19,5.47-24.48,26.41-44.38,50.85-48.7,6.62-1.17,13.2-.88,19.81-.72,3.37,3.07-1.25,2.32-1.49,2.39-11.39,3-20.75,9.27-29,17.55-22.73,22.95-23.14,63.46-.86,86.7,4.37,4.56,8.74,9.1,14.46,12C163.39,266.3,162.84,269.38,160.83,272.62Z"/><path class="cls-8" d="M135.58,273.3h21.48c-4.2,4.14-4.42,8.3-4.29,12.67.17,5.8.36,11.63,0,17.41-.9,13.58,8.74,28.05,22,32.12a16.1,16.1,0,0,1,3,1.7c-6,0-12,.26-17.93.06a31.57,31.57,0,0,1-30.85-29.87c-.47-8.44-.32-16.93-.29-25.39C128.62,277.38,130.45,274,135.58,273.3Z"/><path class="cls-2" d="M365.35,58c-1.53,1.59-3.27.82-5.06.6-7.64-.94-15.29-1.73-22.93-2.58V26.23c4.73-.56,9.49-1,14.2-1.71,5.41-.83,9.76,1.66,10.58,7.06C363.46,40.36,365.13,49.11,365.35,58Z"/><path class="cls-9" d="M85.65,152.75a14.35,14.35,0,0,1,3.26,1c4.93,2.73,9.92,5.39,14.63,8.46A7.67,7.67,0,0,1,106,172.77a7.34,7.34,0,0,1-10.29,2.89,166.45,166.45,0,0,1-15-8.78,6.76,6.76,0,0,1-2.9-8.27A8.22,8.22,0,0,1,85.65,152.75Z"/><path class="cls-9" d="M86.39,264.76c-4.53-.2-7.11-1.53-8.41-4.95s-.63-6.48,2-8.53a67.6,67.6,0,0,1,16.72-9.62c3.73-1.44,7.32-.15,9.31,3.59s1.44,7.32-2,9.73C98.24,259,92.38,263.08,86.39,264.76Z"/><path class="cls-9" d="M128.15,147a6.65,6.65,0,0,1-6.28-3.6c-2.71-4.55-5.54-9-8-13.74s-.94-9,3.06-11.15c3.8-2,8.47-.53,11,3.76a138.33,138.33,0,0,1,7.72,13.86C138.22,141.8,134.45,147.11,128.15,147Z"/><path class="cls-9" d="M160.81,120.52c0-2.65-.14-5.31,0-8,.31-4.63,3.28-7.59,7.45-7.71,4.58-.14,8.08,2.69,8.34,7.36.29,5.44.27,10.93,0,16.38a8.19,8.19,0,0,1-8,7.93c-4.48-.1-7.64-3.5-7.82-8.56-.09-2.48,0-5,0-7.45Z"/><path class="cls-9" d="M257,216.7c-2.65,0-5.3.11-7.95,0-4.48-.23-7.77-3.16-7.9-7.35s1.85-7.18,6-7.94a56.25,56.25,0,0,1,19.71,0c4.45.78,6.3,4,5.77,8.45s-3.28,6.69-7.68,6.86C262.26,216.79,259.61,216.7,257,216.7Z"/><path class="cls-9" d="M224.7,126.19a10.35,10.35,0,0,1-.79,2.82c-2.64,4.77-5.23,9.59-8.19,14.17a8.17,8.17,0,0,1-10.83,3.06c-3.63-2.05-5-6.43-2.86-10.77a145.84,145.84,0,0,1,8.46-14.58c2.17-3.32,5.8-3.9,9.31-2.62C223,119.44,224.59,122.18,224.7,126.19Z"/><path class="cls-9" d="M259.71,161.15c.27,2.64-1.14,4.83-3.55,6.29-4.67,2.83-9.36,5.64-14.19,8.17-4,2.11-8.4,1-10.39-2.62-2.08-3.76-1.66-7.68,1.78-10.28a66.76,66.76,0,0,1,16.28-9.35C254.85,151.38,259.75,155.27,259.71,161.15Z"/><path class="cls-9" d="M80.23,216.69c-2.65,0-5.3.1-7.94,0-4.5-.2-7.08-2.93-7.61-7.1s1.54-7.27,5.65-8.09a52.7,52.7,0,0,1,20.18,0c4.49.85,6.13,4.25,5.52,8.59-.58,4.14-3.17,6.43-7.36,6.63C85.86,216.8,83,216.69,80.23,216.69Z"/><path class="cls-9" d="M250.56,264.66c-6.2-2.84-13.82-5.75-19.14-12.13-2-2.37-1.41-5.8.58-8.33s5.13-4,8.36-2.68A78.82,78.82,0,0,1,257.12,251c3.18,2.29,3.28,6,1.95,9.5C257.85,263.64,255.16,264.75,250.56,264.66Z"/><path class="cls-10" d="M329.37,449.07c-1.5,1.55-3.44,1-5.19,1q-135.45,0-270.89,0c-1.76,0-3.7.59-5.19-1Z"/><path class="cls-11" d="M505.83,128.94l0,280.13c-1.63,1.75-3.81,1.89-6,1.91q-13.95.13-27.9,0c-2.16,0-4.34-.11-6.12-1.65-2.2-2.92-1.65-6.35-1.65-9.62q-.06-75.78,0-151.57,0-55.08,0-110.18c0-3.12-.48-6.36,1.44-9.2,1.89-1.68,4.25-1.68,6.55-1.7q13.62-.12,27.23,0C501.68,127.07,504,127.09,505.83,128.94Z"/><path class="cls-2" d="M353.31,477.93c1.32-10.31,2.67-20.62,4-30.93q2.37-18.66,4.65-37.34c1.49-12.3,2.85-24.6,4.34-36.9,1.55-12.78,3.23-25.54,4.76-38.32,1.46-12.13,2.76-24.28,4.22-36.41,1.86-15.41,3.85-30.79,5.7-46.2,1.18-9.83,2.23-19.69,3.24-29.54.24-2.34.44-4.6,1.95-6.52q2.3,18.45,4.59,36.9,2.7,21.39,5.46,42.78t5.45,42.78q2.75,21.39,5.52,42.77,2.77,21.63,5.54,43.27c1.45,11.3,3.17,22.58,4.34,33.92.95,9.14-2.09,11.64-12.7,12.84-16.42,1.85-32.79,4.08-49.18,6.18A7.79,7.79,0,0,0,353.31,477.93Z"/><path class="cls-12" d="M465.94,129V409.1l-.64.7c-8.05,1.48-16.09,2.59-24-.75,0-20.77-.1-41.54-.1-62.31q0-108.94.08-217.88a6.28,6.28,0,0,1,5-1.67c6.06.14,12.15-.74,18.17.6A3.35,3.35,0,0,1,465.94,129Z"/><path class="cls-2" d="M79.91,478.06c3.34-1.59,6.8-.25,10,.13,25.86,3,51.68,6.49,77.53,9.65,15.22,1.87,30.47,3.44,45.72,5.11a6,6,0,0,1,4.4,1.95q-21.92,2.76-43.81,5.52c-14.27,1.81-28.54,3.67-42.81,5.49-11.48,1.46-23,2.67-34.45,4.39-8.92,1.34-12.35-.79-13.6-9.62C81.85,493.14,80.91,485.6,79.91,478.06Z"/><path class="cls-13" d="M466,409.1l39.85,0c-.25,9.6,1,19.24-.8,28.8a24.47,24.47,0,0,1-22.35,20c-6.85.39-13.87,1.25-20.71-.73,5.47-3.38,11.29-1.39,15.94-1.27-6.78-3.3-12.06-9.11-13.14-17.61s-.43-16.93-.25-25.41a5.1,5.1,0,0,1,1.5-3.59Z"/><path class="cls-14" d="M465,128.36l-23.65.5c3.92-13.88,9.91-27,14.67-40.58,1-2.81,2.13-5.56,3.21-8.34a6.35,6.35,0,0,1,4.51-1.66c6.57-.16,13.14-.2,19.7,0a6.05,6.05,0,0,1,4.44,1.81A3.35,3.35,0,0,1,488,81c-6.82,14.64-13.31,29.43-20.25,44C467.05,126.37,466.45,127.72,465,128.36Z"/><path class="cls-15" d="M466,409.27c0,7.27.38,14.57-.1,21.81-.81,12.43,5.24,20.23,15.87,26.07H461.94c-12.69-2.42-20.33-11.56-20.72-25.26-.22-7.6,0-15.22.1-22.84Z"/><path class="cls-16" d="M465,128.36q10.13-22.43,20.25-44.84c.55-1.21,1.11-2.47,2.75-2.52,6,13,10.26,26.68,15.42,40,1,2.56,2.75,5,2.46,7.94l-39.89,0Z"/><path class="cls-17" d="M487.83,80.11l-28.65-.17c2.26-6,4.5-12,6.78-18,1.38-3.63,4.13-5.69,7.94-5.6,3.61.08,6.16,2.28,7.42,5.65C483.57,68,485.67,74.08,487.83,80.11Z"/><path class="cls-18" d="M160.83,272.62c-.29-3,.67-6.12-1-9,1.77-2.39.86-5.14.9-7.71.12-8.79-.16-17.59.13-26.37.14-4.09-1.33-5.27-5.15-5-3.29.27-6.63.1-9.94,0-5.6-.11-8.86-3-8.93-7.84-.06-4.66,3.29-7.88,8.86-8.07,5.8-.19,11.61-.05,17.42-.05,9.45,0,18.91-.13,28.36.05,7.13.14,11.2,6.07,8.29,11.67a7.53,7.53,0,0,1-6.82,4.23c-.66,0-1.33,0-2,0-4.55.46-10.46-2.09-13.34,1.13s-.78,8.9-.84,13.51c-.14,11.11-.07,22.23-.09,33.34Z"/></g></g></svg>