<svg xmlns="http://www.w3.org/2000/svg" viewBox="0 0 399.81 471.79"><defs><style>.cls-1{fill:#505050;}.cls-2{fill:#131313;}.cls-3{fill:#555;}.cls-4{fill:#f6bb00;}.cls-5{fill:#f5c899;}.cls-6{fill:#5186fe;}.cls-7{fill:#eea600;}.cls-8{fill:#df9400;}.cls-9{fill:#d08300;}</style></defs><g id="Layer_2" data-name="Layer 2"><g id="Layer_1-2" data-name="Layer 1"><path d="M346.83,471.79H244.88c-5.5-1.35-6.51-5.54-6.53-10.35-.06-13.49,0-27,0-40.45,0-16.31,0-32.63,0-48.94,0-6.29-.44-6.58-6.63-5.47a179,179,0,0,1-63.55,0c-6.19-1.11-6.62-.82-6.63,5.47q-.06,42.19,0,84.39c0,2.17,0,4.33-.07,6.49-.19,4.41-1.83,7.73-6.48,8.86H53c-5.5-1.38-6.39-5.58-6.39-10.38,0-20.8-.28-41.6.15-62.38.15-7-1.85-11.58-7.78-15.69C21.29,371.09,9.56,354.25,3,333.79A57.32,57.32,0,0,1,.52,316.11c0-1.62,0-3.25,0-4.87-.25-1.78.53-3.67-.52-5.38v-87c.87-8,5.6-13.25,12.13-17.17,2.27-1.36,3.06-2.89,2.93-5.65-2.53-52.58,13.3-98.66,49-137.64C91.08,29,124.37,10.77,163.23,2.3c6.5-1.42,13.18-1,19.68-2.3h4c.88.87,2,.38,3,.52,1-.13,2.12.35,3-.52h10c4.69,1.14,6.3,4.52,6.32,8.91.1,20.64.17,41.29,0,61.93-.07,7.25-3.72,10.19-11.67,10.5-22.09.86-42.33,7.47-59.75,21.11-28.31,22.18-42,51.74-40.24,87.56,2.37,49.47,41.66,89.81,90.8,95.7,54.74,6.56,106.57-33.25,113.31-89.47.46-3.81.78-7.6.94-11.43.26-6.51,3.54-10.07,9.91-10.15q31.45-.36,62.92,0c6.11.08,9.36,3.64,9.7,9.83a53.62,53.62,0,0,1-.18,11c-.42,2.8.25,4.71,2.81,6.23,6.55,3.9,11.21,9.25,12.08,17.2v91c-1.09,2-.25,4.22-.52,6.32-.34,21.29-10,38.56-23.52,54.09a77.89,77.89,0,0,1-17.67,15.31c-3.7,2.29-5,5.23-4.93,9.5.13,22.11.07,44.22.06,66.33C353.23,466.22,352.33,470.41,346.83,471.79Z"/><path class="cls-1" d="M399.81,315.86l-.41.19H399c-.38-2.15-.67-4.29.85-6.18Z"/><path class="cls-2" d="M0,305.86c1.65,1.49.85,3.4.9,5.16a.53.53,0,0,1-.9-.16Z"/><path class="cls-3" d="M0,310.86a5.67,5.67,0,0,1,.9.16c0,1.68-.05,3.36-.07,5l-.46.11-.37-.3Z"/><path class="cls-4" d="M48,248.88c0-7.73-.08-15.35,0-23,.12-10.19-3.77-18.12-12.85-23.08-2-1.08-2.27-2.49-2.43-4.4-3.49-41.87,6.94-80,31.94-113.67,30.69-41.32,72.19-63.88,123.5-68.44,3.38-.3,3.83.78,3.8,3.7-.12,13-.31,26,.09,39,.14,4.53-1.54,5.37-5.45,5.89-44.58,5.9-77.18,29.05-95.89,69.85-33.24,72.48,13.35,156.78,92.17,168A120.27,120.27,0,0,0,318.67,201.16c1.36-9.25,1.36-9.25,10.7-9.25,11,0,22-.06,33,.07,1.72,0,4.92-1.24,5,1.24.07,3,1.39,7.18-2.08,9.11-10.5,5.83-14,14.92-13.45,26.33.26,5.65,0,11.32.08,17,.05,2.43-.15,3.43-3.23,2.88-15.63-2.84-28.56,7.94-28.77,23.78-.1,8,0,16,0,24,0,1.62.07,3.09-1.24,4.59a138.45,138.45,0,0,1-59.29,40C199.75,361.92,144.73,353,94.63,314.57c-5.23-4-8.62-10.12-13.89-14.26-1.24-1-.76-2.48-.76-3.76,0-6.66-.55-13.38.08-20C81.77,258.91,68.08,244.17,48,248.88Z"/><path class="cls-5" d="M295.86,340.89c0,5.69.12,10.82-.05,15.93-.08,2.42.73,3,3.09,3.09,12.75.52,12.62.59,13-12.16.44-14.88,6.62-27,18.61-35.85,3.91-2.88,5.54-6.17,5.4-11-.24-8.65-.08-17.31-.07-26q0-10.94,7.87-11.06c5.37-.09,8.12,3.72,8.12,11.31,0,10.82.1,21.65-.06,32.47,0,3,.42,4.29,4,4.27,12.1-.06,12.1.1,12.1-12,0-24.81,0-49.62,0-74.43,0-4.51,1.49-7.88,5.93-9.28,5.35-1.69,10,2.5,10.08,9,.06,16.81.17,33.63,0,50.45-.16,13.64,1.12,27.33-.94,40.9-3.93,25.9-18.12,44.86-40.11,58.42-1.58,1-3.18.82-4.81.82-26,0-52,0-77.92.08-3.12,0-4.49-.58-4.18-4,.36-4.13-1.18-9.18.7-12.19,1.69-2.7,6.91-3.22,10.6-4.63A194,194,0,0,0,295.86,340.89Z"/><path class="cls-5" d="M104,341.14c5.66,2.95,11.17,5.94,16.79,8.72a137.37,137.37,0,0,0,19.83,8c2.31.72,3.65,1.62,3.43,4.42-.34,4.29,1.38,9.88-.75,12.57s-8.08.9-12.33.91c-22.81.09-45.63,0-68.44.09a12.84,12.84,0,0,1-7.41-2.2c-26.26-17-39.35-41.07-39.11-72.45.18-24.48,0-49,0-73.44,0-1.33-.07-2.67,0-4,.36-4.71,3.65-7.9,8-7.86s7.7,3.24,7.87,8c.19,5.48.05,11,.05,16.48,0,22.32.11,44.63-.1,67,0,3.8,1,4.65,4.67,4.59,11.42-.2,11.43,0,11.43-11.21,0-9.16,0-18.32,0-27.48,0-5.87,3.17-9.41,8.06-9.36s7.87,3.6,7.9,9.52q.09,14.49,0,29c0,3.4.93,6.23,3.76,8.23C82.43,321,88.62,335.46,88,353.22c-.24,6.61,0,6.62,6.89,6.62,9.08,0,9.08,0,9.06-9Z"/><path class="cls-6" d="M104,455.8c-12,0-24-.12-35.92.07-3.25.06-4.16-.83-4.14-4.11q.24-27.94,0-55.89c0-3.27.88-4.14,4.13-4.12q35.92.21,71.85,0c3.25,0,4.17.84,4.14,4.12q-.24,27.93,0,55.88c0,3.27-.87,4.18-4.13,4.12C127.91,455.68,115.93,455.8,104,455.8Z"/><path class="cls-6" d="M295.86,391.83c12,0,23.95.11,35.92-.08,3.26-.05,4.16.84,4.14,4.12q-.24,27.94,0,55.88c0,3.28-.88,4.14-4.13,4.12q-35.93-.21-71.86,0c-3.25,0-4.16-.84-4.13-4.11q.24-27.94,0-55.89c0-3.27.88-4.17,4.13-4.12C271.9,391.94,283.88,391.83,295.86,391.83Z"/><path d="M200,231.9H139.06c-8.75,0-11.11-2.42-11.12-11.32,0-11.66,0-23.31,0-35,0-6.81,2.88-9.62,9.75-9.67,6.32,0,12.66-.14,19,0,2.64.08,3.44-.71,3.3-3.32-.21-4-.14-8,0-12,.14-5.59,3.1-8.61,8.68-8.71,6.66-.11,13.32-.13,20,0,2.53.06,3.45-.55,3.36-3.27-.2-6.32-.09-12.65-.05-19,0-6.89,2.84-9.74,9.63-9.79,6,0,12-.21,18,.06,3.34.16,4.8-.53,4.44-4.22a89.51,89.51,0,0,1-.06-11c.14-5.64,3.05-8.75,8.57-8.81q15.48-.18,31,0c5.26.07,8.37,3.18,8.38,8.49q.09,59.45,0,118.88c0,5.65-3.3,8.5-9.39,8.51Q231.22,231.94,200,231.9Z"/><path d="M255.45,64c-7.57,0-7.57,0-7.57-7.42,0-8.57,0-8.57-8.42-8.57-7.57,0-7.57,0-7.57-7.42,0-8.57,0-8.57,8.42-8.57,7.57,0,7.57,0,7.57-7.43,0-8.57,0-8.57,8.42-8.57,7.57,0,7.57,0,7.57,7.43,0,8.57,0,8.57,8.42,8.57,7.58,0,7.58,0,7.58,7.42,0,8.57,0,8.57-8.42,8.57-7.58,0-7.58,0-7.58,7.42C263.87,64,263.87,64,255.45,64Z"/><path d="M343.57,151.93c-4.33,0-8.66-.11-13,0-2.22.09-2.7-.67-2.81-2.81-.7-13.23-.77-13.23,12.32-13.23,5.66,0,11.33.1,17-.05,2.22-.06,2.7.67,2.81,2.81.71,13.24.77,13.23-12.32,13.23Z"/><path d="M143.93,247.41c0-7.52,0-7.52,7.48-7.52,8.51,0,8.51,0,8.51,8.48,0,7.52,0,7.52-7.48,7.52C143.93,255.89,143.93,255.89,143.93,247.41Z"/><path d="M184.12,239.89c7.79,0,7.79,0,7.79,7.71,0,8.29,0,8.29-8.2,8.29-7.79,0-7.79,0-7.79-7.71C175.92,239.89,175.92,239.89,184.12,239.89Z"/><path d="M223.89,248.25c0,7.64,0,7.64-7.85,7.64-8.14,0-8.14,0-8.14-8.36,0-7.64,0-7.64,7.86-7.64C223.89,239.89,223.89,239.89,223.89,248.25Z"/><path d="M255.88,248.37c0,7.52,0,7.52-7.48,7.52-8.51,0-8.51,0-8.51-8.48,0-7.52,0-7.52,7.48-7.52C255.88,239.89,255.88,239.89,255.88,248.37Z"/><path class="cls-4" d="M255.88,164.47c0,15.8-.1,31.6.07,47.4,0,3.27-.87,4.13-4.12,4.12-11.94,0-11.94.09-11.94-11.69,0-29.27.07-58.54-.1-87.81,0-3.74.91-4.7,4.64-4.64,11.44.2,11.45,0,11.45,11.7Z"/><path class="cls-7" d="M207.9,175.51c0-12,.07-23.93-.05-35.89,0-2.65.49-3.7,3.47-3.76,12.58-.26,12.57-.38,12.57,12.06,0,21.27,0,42.54.06,63.81,0,3.05-.5,4.28-4,4.27-12.07,0-12.07.13-12.07-12.08Z"/><path class="cls-8" d="M191.91,192c0,6.65-.13,13.32.06,20,.08,2.9-.51,4-3.77,4-12.29.09-12.28.23-12.28-11.93,0-10.82.07-21.64-.06-32.46,0-2.68.54-3.7,3.51-3.77,12.54-.27,12.54-.38,12.54,12.17Z"/><path class="cls-9" d="M159.92,203.74c0,13,0,12.92-12.93,12.23-2.38-.13-3.15-.8-3.1-3.16.13-6,.1-12,0-17.95,0-2,.45-3.23,2.74-3a6.68,6.68,0,0,0,1,0C159.92,191.56,159.92,191.56,159.92,203.74Z"/></g></g></svg>