<svg xmlns="http://www.w3.org/2000/svg" width="100%" height="100%" viewBox="0 0 27.963 25.717">
  <g id="Docs_Archives" data-name="Docs/Archives" transform="translate(0 -18.806)">
    <path id="Path_461" data-name="Path 461" d="M6.557,53.452H1.491A1.491,1.491,0,0,1,0,51.961V29.793A1.491,1.491,0,0,1,1.491,28.3H6.557a1.491,1.491,0,0,1,1.491,1.491V51.961A1.491,1.491,0,0,1,6.557,53.452Z" transform="translate(0 -8.929)" fill="#fcd462"/>
    <path id="Path_462" data-name="Path 462" d="M28.079,63.76V57.125a.746.746,0,0,1,.746-.746h3.2a.746.746,0,0,1,.746.746V63.76a.746.746,0,0,1-.746.746h-3.2A.746.746,0,0,1,28.079,63.76Z" transform="translate(-26.402 -35.329)" fill="#ebf0f3"/>
    <path id="Path_463" data-name="Path 463" d="M34.128,351.608H32.006a1.119,1.119,0,0,1-1.119-1.118v-2.122a1.119,1.119,0,0,1,1.119-1.119h2.122a1.119,1.119,0,0,1,1.119,1.119v2.122A1.119,1.119,0,0,1,34.128,351.608Z" transform="translate(-29.043 -308.83)" fill="#64798a"/>
    <path id="Path_464" data-name="Path 464" d="M34.746,352.328H32.4a1.006,1.006,0,0,1-1.006-1.006v-2.347a1,1,0,0,1,.122-.471,1,1,0,0,0-.628.931v2.347a1.006,1.006,0,0,0,1.006,1.006H34.24a1,1,0,0,0,.884-.535A1,1,0,0,1,34.746,352.328Z" transform="translate(-29.043 -310.011)" fill="#3a556a"/>
    <g id="Group_205" data-name="Group 205" transform="translate(2.683 22.599)">
      <rect id="Rectangle_29" data-name="Rectangle 29" width="2.683" height="1.006" transform="translate(0 2.012)" fill="#64798a"/>
      <rect id="Rectangle_30" data-name="Rectangle 30" width="2.683" height="1.006" fill="#64798a"/>
      <rect id="Rectangle_31" data-name="Rectangle 31" width="2.683" height="1.006" transform="translate(0 4.024)" fill="#64798a"/>
    </g>
    <path id="Path_465" data-name="Path 465" d="M340.07,53.452H335a1.491,1.491,0,0,1-1.491-1.491V29.793A1.491,1.491,0,0,1,335,28.3h5.065a1.491,1.491,0,0,1,1.491,1.491V51.961A1.491,1.491,0,0,1,340.07,53.452Z" transform="translate(-313.598 -8.929)" fill="#44c4a1"/>
    <path id="Path_466" data-name="Path 466" d="M361.592,63.76V57.125a.746.746,0,0,1,.746-.746h3.2a.746.746,0,0,1,.746.746V63.76a.746.746,0,0,1-.746.746h-3.2A.746.746,0,0,1,361.592,63.76Z" transform="translate(-340 -35.329)" fill="#ebf0f3"/>
    <path id="Path_467" data-name="Path 467" d="M367.641,351.608h-2.122a1.119,1.119,0,0,1-1.118-1.118v-2.122a1.119,1.119,0,0,1,1.118-1.119h2.122a1.119,1.119,0,0,1,1.119,1.119v2.122A1.119,1.119,0,0,1,367.641,351.608Z" transform="translate(-342.641 -308.83)" fill="#64798a"/>
    <path id="Path_468" data-name="Path 468" d="M368.259,352.328h-2.347a1.006,1.006,0,0,1-1.006-1.006v-2.347a1,1,0,0,1,.122-.471,1,1,0,0,0-.628.931v2.347a1.006,1.006,0,0,0,1.006,1.006h2.347a1,1,0,0,0,.884-.535A1,1,0,0,1,368.259,352.328Z" transform="translate(-342.641 -310.011)" fill="#3a556a"/>
    <g id="Group_206" data-name="Group 206" transform="translate(22.598 22.599)">
      <rect id="Rectangle_32" data-name="Rectangle 32" width="2.683" height="1.006" transform="translate(0 2.012)" fill="#64798a"/>
      <rect id="Rectangle_33" data-name="Rectangle 33" width="2.683" height="1.006" fill="#64798a"/>
      <rect id="Rectangle_34" data-name="Rectangle 34" width="2.683" height="1.006" transform="translate(0 4.024)" fill="#64798a"/>
    </g>
    <path id="Path_469" data-name="Path 469" d="M141.4,44.477l-4.988-.88a1.491,1.491,0,0,1-1.21-1.728l3.849-21.831a1.491,1.491,0,0,1,1.728-1.21l4.988.88a1.491,1.491,0,0,1,1.21,1.728l-3.849,21.831A1.491,1.491,0,0,1,141.4,44.477Z" transform="translate(-127.106)" fill="#e56353"/>
    <path id="Path_470" data-name="Path 470" d="M205.493,56.507l1.152-6.535a.746.746,0,0,1,.864-.6l3.155.556a.746.746,0,0,1,.6.864l-1.152,6.535a.746.746,0,0,1-.864.6L206.1,57.37A.746.746,0,0,1,205.493,56.507Z" transform="translate(-193.211 -28.725)" fill="#ebf0f3"/>
    <path id="Path_471" data-name="Path 471" d="M172.7,341.961l-2.09-.369a1.118,1.118,0,0,1-.907-1.3l.369-2.09a1.118,1.118,0,0,1,1.3-.907l2.09.369a1.118,1.118,0,0,1,.907,1.3l-.369,2.09A1.118,1.118,0,0,1,172.7,341.961Z" transform="translate(-159.551 -299.459)" fill="#64798a"/>
    <path id="Path_472" data-name="Path 472" d="M173.105,341.707l-2.312-.408a1.006,1.006,0,0,1-.816-1.165l.408-2.312a.994.994,0,0,1,.2-.442,1,1,0,0,0-.78.808L169.4,340.5a1.006,1.006,0,0,0,.816,1.165l2.312.408a1,1,0,0,0,.963-.374A1,1,0,0,1,173.105,341.707Z" transform="translate(-159.27 -299.551)" fill="#3a556a"/>
    <g id="Group_207" data-name="Group 207" transform="translate(13.412 22.213)">
      <rect id="Rectangle_35" data-name="Rectangle 35" width="1.006" height="2.683" transform="translate(0.349 2.972) rotate(-80.003)" fill="#64798a"/>
      <rect id="Rectangle_36" data-name="Rectangle 36" width="1.006" height="2.683" transform="translate(0.698 0.991) rotate(-80.003)" fill="#64798a"/>
      <rect id="Rectangle_37" data-name="Rectangle 37" width="1.006" height="2.683" transform="translate(0 4.954) rotate(-80.003)" fill="#64798a"/>
    </g>
  </g>
</svg>
