<svg xmlns="http://www.w3.org/2000/svg" width="100%" height="100%" viewBox="0 0 28.66 26.444">
  <g id="E_Learning" data-name="E Learning" transform="translate(0 -19.791)">
    <path id="Path_473" data-name="Path 473" d="M172.012,384.8v1.764a1.985,1.985,0,0,1-.854,1.656l-1.283.856h9.642l-1.283-.856a1.985,1.985,0,0,1-.854-1.656V384.8Z" transform="translate(-160.366 -344.573)" fill="#b1dbfc"/>
    <path id="Path_474" data-name="Path 474" d="M172.012,384.8v1.764a1.985,1.985,0,0,1-.854,1.656l-1.283.856h3.112l.027-.018a1.985,1.985,0,0,0,.854-1.656v-1.222a.543.543,0,0,1,.543-.543h2.968V384.8Z" transform="translate(-160.366 -344.573)" fill="#8bcaff"/>
    <path id="Path_475" data-name="Path 475" d="M155.553,460.072H144.116a.577.577,0,0,0-.577.577v.646a.577.577,0,0,0,.577.577h11.437a.577.577,0,0,0,.577-.577v-.646A.577.577,0,0,0,155.553,460.072Z" transform="translate(-135.504 -415.636)" fill="#dfebfa"/>
    <path id="Path_476" data-name="Path 476" d="M146.735,461.294v-.646a.577.577,0,0,1,.577-.577h-3.2a.577.577,0,0,0-.577.577v.646a.577.577,0,0,0,.577.577h3.2A.577.577,0,0,1,146.735,461.294Z" transform="translate(-135.504 -415.636)" fill="#b1dbfc"/>
    <g id="Group_210" data-name="Group 210" transform="translate(0 19.791)">
      <g id="Group_209" data-name="Group 209">
        <path id="Path_477" data-name="Path 477" d="M27,19.791H1.662A1.664,1.664,0,0,0,0,21.453V38.637A1.664,1.664,0,0,0,1.662,40.3H27a1.664,1.664,0,0,0,1.662-1.662V21.453A1.664,1.664,0,0,0,27,19.791Z" transform="translate(0 -19.791)" fill="#695d67"/>
      </g>
    </g>
    <path id="Path_478" data-name="Path 478" d="M1.922,38.637V21.453a1.664,1.664,0,0,1,1.662-1.662H1.662A1.664,1.664,0,0,0,0,21.453V38.637A1.664,1.664,0,0,0,1.662,40.3H3.584A1.664,1.664,0,0,1,1.922,38.637Z" fill="#554e56"/>
    <g id="Group_211" data-name="Group 211" transform="translate(1.799 23.613)">
      <path id="Path_479" data-name="Path 479" d="M32.137,88.075v14.647a.239.239,0,0,0,.239.239H56.96a.239.239,0,0,0,.239-.239V88.075Z" transform="translate(-32.137 -88.075)" fill="#dfebfa"/>
    </g>
    <path id="Path_480" data-name="Path 480" d="M33.867,102.723V88.076h-1.73v14.647a.239.239,0,0,0,.239.239h1.73A.239.239,0,0,1,33.867,102.723Z" transform="translate(-30.338 -64.463)" fill="#b1dbfc"/>
    <path id="Path_481" data-name="Path 481" d="M99.785,51.928H77.5v2.139h22.523v-1.9A.239.239,0,0,0,99.785,51.928Z" transform="translate(-73.163 -30.338)" fill="#5cb3f8"/>
    <path id="Path_482" data-name="Path 482" d="M34.734,51.928H32.376a.239.239,0,0,0-.239.239v1.9h2.6Z" transform="translate(-30.338 -30.338)" fill="#ff656f"/>
    <path id="Path_483" data-name="Path 483" d="M34.106,51.928h-1.73a.239.239,0,0,0-.239.239v1.9h1.73v-1.9A.239.239,0,0,1,34.106,51.928Z" transform="translate(-30.338 -30.338)" fill="#ff4756"/>
    <path id="Path_484" data-name="Path 484" d="M170.063,205.745a1.134,1.134,0,0,1-1.016,0l-4.472-2.241v3.421a1.063,1.063,0,0,0,.184.129,10.125,10.125,0,0,0,9.592,0,1.063,1.063,0,0,0,.184-.129V203.5Z" transform="translate(-155.363 -173.429)" fill="#6e60b8"/>
    <path id="Path_485" data-name="Path 485" d="M166.654,204.545l-2.08-1.042v3.421a1.063,1.063,0,0,0,.184.129,10.078,10.078,0,0,0,1.9.784Z" transform="translate(-155.362 -173.428)" fill="#6353b2"/>
    <path id="Path_486" data-name="Path 486" d="M174.35,261.654a10.125,10.125,0,0,1-9.592,0,1.063,1.063,0,0,1-.184-.129V262.7a1.03,1.03,0,0,0,.533.909,9.388,9.388,0,0,0,8.894,0,1.03,1.03,0,0,0,.533-.909v-1.172a1.064,1.064,0,0,1-.184.129Z" transform="translate(-155.362 -228.203)" fill="#9790cc"/>
    <path id="Path_487" data-name="Path 487" d="M166.654,262.438a10.077,10.077,0,0,1-1.9-.784,1.063,1.063,0,0,1-.184-.129V262.7a1.03,1.03,0,0,0,.533.909,9.354,9.354,0,0,0,1.547.662v-1.829Z" transform="translate(-155.362 -228.203)" fill="#8479c2"/>
    <path id="Path_488" data-name="Path 488" d="M138.694,117.595l-6.437-3.225a1.134,1.134,0,0,0-1.016,0l-6.437,3.225a.5.5,0,0,0,0,.9l6.437,3.225a1.134,1.134,0,0,0,1.016,0l6.437-3.225a.5.5,0,0,0,0-.9Z" transform="translate(-117.557 -89.171)" fill="#9790cc"/>
    <path id="Path_489" data-name="Path 489" d="M138.694,117.595l-6.437-3.225a1.134,1.134,0,0,0-1.016,0l-6.437,3.225a.5.5,0,0,0,0,.9l6.437,3.225a1.134,1.134,0,0,0,1.016,0l6.437-3.225a.5.5,0,0,0,0-.9Z" transform="translate(-117.557 -89.171)" fill="#9790cc"/>
    <path id="Path_490" data-name="Path 490" d="M133.332,163.733l-6.668-3.341a.516.516,0,0,1-.275-.571l-1.585.794a.5.5,0,0,0,0,.9l6.437,3.225a1.134,1.134,0,0,0,1.016,0l1.787-.9A1.175,1.175,0,0,1,133.332,163.733Z" transform="translate(-117.556 -132.192)" fill="#8479c2"/>
    <g id="Group_212" data-name="Group 212" transform="translate(14.319 28.44)">
      <path id="Path_491" data-name="Path 491" d="M262.907,179.816a.432.432,0,0,1-.432-.432v-4.22h-6.23a.433.433,0,0,1,0-.865h6.662a.432.432,0,0,1,.432.432v4.652a.432.432,0,0,1-.432.432Z" transform="translate(-255.812 -174.299)" fill="#6353b2"/>
    </g>
    <g id="Group_213" data-name="Group 213" transform="translate(20.225 34.383)">
      <path id="Path_492" data-name="Path 492" d="M363.676,282.542l-.511-2.066a.838.838,0,0,1-1.314,0l-.511,2.066a.623.623,0,0,0,.6.781h1.131a.623.623,0,0,0,.6-.781Z" transform="translate(-361.319 -280.476)" fill="#fec458"/>
    </g>
    <g id="Group_214" data-name="Group 214" transform="translate(20.225 34.383)">
      <path id="Path_493" data-name="Path 493" d="M362.378,282.543l.449-1.812a.827.827,0,0,1-.318.065.842.842,0,0,1-.657-.318l-.511,2.066a.623.623,0,0,0,.6.781h1.038A.623.623,0,0,1,362.378,282.543Z" transform="translate(-361.319 -280.477)" fill="#f9ab49"/>
    </g>
    <circle id="Ellipse_27" data-name="Ellipse 27" cx="0.848" cy="0.848" r="0.848" transform="translate(13.22 29.573) rotate(-80.783)" fill="#8479c2"/>
    <path id="Path_494" data-name="Path 494" d="M377.482,261.587a.846.846,0,0,1-.328.67c-.144.111-.871-.67-.871-.67s.727-.782.871-.67A.846.846,0,0,1,377.482,261.587Z" transform="translate(-355.22 -227.618)" fill="#ffe181"/>
    <path id="Path_495" data-name="Path 495" d="M368.448,258.773a.846.846,0,0,1,.329-.669.848.848,0,1,0,0,1.339.846.846,0,0,1-.329-.67Z" transform="translate(-346.844 -224.804)" fill="#fec458"/>
  </g>
</svg>
