<svg xmlns="http://www.w3.org/2000/svg" width="100%" height="100%" viewBox="0 0 35.111 27.183">
  <g id="Employees" transform="translate(0 -58)">
    <path id="Path_656" data-name="Path 656" d="M8.326,358.415,6.964,357.9a1.132,1.132,0,0,1-.735-1.061v-1.551h-3.4v1.551A1.132,1.132,0,0,1,2.1,357.9l-1.362.511A1.133,1.133,0,0,0,0,359.476v1.48a1.133,1.133,0,0,0,1.133,1.133H8.495a.566.566,0,0,0,.566-.566v-2.047A1.132,1.132,0,0,0,8.326,358.415Z" transform="translate(0 -276.906)" fill="#ecbd83"/>
    <path id="Path_657" data-name="Path 657" d="M40.722,355.293v1.551a1.141,1.141,0,0,1-.042.306,3.918,3.918,0,0,0,3.482,0,1.141,1.141,0,0,1-.042-.306v-1.551Z" transform="translate(-37.89 -276.906)" fill="#e2a975"/>
    <path id="Path_658" data-name="Path 658" d="M27.6,287.2a2.832,2.832,0,0,1-2.832-2.831v-1.7a1.7,1.7,0,0,1,1.7-1.7h3.4a.566.566,0,0,1,.566.566v2.832A2.832,2.832,0,0,1,27.6,287.2Z" transform="translate(-23.074 -207.679)" fill="#f6d190"/>
    <path id="Path_659" data-name="Path 659" d="M28.173,288.553a2.835,2.835,0,0,1-2.268-2.775v-3.294a1.694,1.694,0,0,0-1.133,1.595v1.7a2.835,2.835,0,0,0,3.4,2.775Z" transform="translate(-23.074 -209.09)" fill="#ecbd83"/>
    <path id="Path_660" data-name="Path 660" d="M41.861,323.391h-.006a.566.566,0,1,1,.006,0Z" transform="translate(-38.458 -246.136)" fill="#6e4848"/>
    <path id="Path_661" data-name="Path 661" d="M74.814,323.391h-.006a.566.566,0,1,1,.006,0Z" transform="translate(-69.151 -246.136)" fill="#6e4848"/>
    <path id="Path_662" data-name="Path 662" d="M8.326,393.082l-1.362-.511a1.14,1.14,0,0,1-.105-.059l-1.93,1.913a.566.566,0,0,1-.8,0l-1.922-1.9a1.215,1.215,0,0,1-.114.05l-1.362.511A1.133,1.133,0,0,0,0,394.142v1.48a1.133,1.133,0,0,0,1.133,1.133H8.495a.566.566,0,0,0,.566-.566v-2.047A1.133,1.133,0,0,0,8.326,393.082Z" transform="translate(0 -311.572)" fill="#ffe07d"/>
    <path id="Path_663" data-name="Path 663" d="M1.133,400.2v-1.557l-.4.149A1.133,1.133,0,0,0,0,399.855v1.48a1.133,1.133,0,0,0,1.133,1.133H8.495a.566.566,0,0,0,.566-.566v-.566h-6.8A1.133,1.133,0,0,1,1.133,400.2Z" transform="translate(0 -317.285)" fill="#ffd064"/>
    <path id="Path_664" data-name="Path 664" d="M26.472,280.969h3.4a.566.566,0,0,1,.566.566v1.133H24.773A1.7,1.7,0,0,1,26.472,280.969Z" transform="translate(-23.074 -207.679)" fill="#6e4848"/>
    <path id="Path_665" data-name="Path 665" d="M113.468,140.583a6.365,6.365,0,0,0-6.113,6.435v5.644a1.133,1.133,0,0,0,.93,1.114l5.3.963,5.3-.963a1.133,1.133,0,0,0,.93-1.114v-5.85A6.229,6.229,0,0,0,113.468,140.583Z" transform="translate(-99.993 -76.919)" fill="#6e4848"/>
    <path id="Path_666" data-name="Path 666" d="M104.573,310.95l-3.452-1.593a1.133,1.133,0,0,1-.658-1.028v-2.586H95.933v2.586a1.133,1.133,0,0,1-.658,1.028l-3.452,1.593a1.7,1.7,0,0,0-.987,1.543v1.744a1.7,1.7,0,0,0,1.7,1.7h11.326a1.7,1.7,0,0,0,1.7-1.7v-1.744A1.7,1.7,0,0,0,104.573,310.95Z" transform="translate(-84.607 -230.753)" fill="#ecbd83"/>
    <path id="Path_667" data-name="Path 667" d="M165.16,307.519a5.457,5.457,0,0,0,1.891.476c.126.008.251.012.375.012a5.625,5.625,0,0,0,2.265-.476v-1.789H165.16Z" transform="translate(-153.834 -230.753)" fill="#e2a975"/>
    <path id="Path_668" data-name="Path 668" d="M140.311,195.741a12.263,12.263,0,0,1-4.959-2.3.563.563,0,0,0-.768.016l-2.123,2.123a1.132,1.132,0,0,0-.332.8v1.074a4.634,4.634,0,0,0,4.229,4.676,4.531,4.531,0,0,0,4.832-4.521v-.77A1.132,1.132,0,0,0,140.311,195.741Z" transform="translate(-123.068 -126.023)" fill="#f6d190"/>
    <path id="Path_669" data-name="Path 669" d="M175.118,274.186a2.62,2.62,0,0,1-1.444-.429.566.566,0,1,1,.622-.947,1.533,1.533,0,0,0,1.644,0,.566.566,0,0,1,.621.947A2.621,2.621,0,0,1,175.118,274.186Z" transform="translate(-161.526 -199.993)" fill="#c38c66"/>
    <path id="Path_670" data-name="Path 670" d="M135.391,194.834a13.4,13.4,0,0,0,5.8,2.077v-.119a1.131,1.131,0,0,0-.874-1.1,12.245,12.245,0,0,1-4.978-2.309.552.552,0,0,0-.751.024l-2.126,2.126a1.132,1.132,0,0,0-.332.8v1.082a4.686,4.686,0,0,0,2.907,4.366,4.384,4.384,0,0,0,2.475.232,4.545,4.545,0,0,1-3.683-4.451v-1.327a1.134,1.134,0,0,1,.332-.8l.538-.538A.546.546,0,0,1,135.391,194.834Z" transform="translate(-123.068 -125.971)" fill="#ecbd83"/>
    <path id="Path_671" data-name="Path 671" d="M157.468,233.121a.566.566,0,0,1-.566-.566v-.566a.566.566,0,1,1,1.133,0v.566A.566.566,0,0,1,157.468,233.121Z" transform="translate(-146.142 -161.529)" fill="#6e4848"/>
    <path id="Path_672" data-name="Path 672" d="M223.535,233.121a.566.566,0,0,1-.566-.566v-.566a.566.566,0,1,1,1.133,0v.566A.566.566,0,0,1,223.535,233.121Z" transform="translate(-207.679 -161.529)" fill="#6e4848"/>
    <path id="Path_673" data-name="Path 673" d="M169.817,145.679c.154,0,.316-.012.468-.018a6.236,6.236,0,0,0-6.247-5.077,5.977,5.977,0,0,0-2.389.544A9.612,9.612,0,0,0,169.817,145.679Z" transform="translate(-150.563 -76.919)" fill="#8a6055"/>
    <path id="Path_674" data-name="Path 674" d="M104.577,362.065l-3.129-1.444-2.473,2.31a1.133,1.133,0,0,1-1.546,0l-2.473-2.31-3.129,1.444a1.7,1.7,0,0,0-.987,1.543v1.744a1.7,1.7,0,0,0,1.7,1.7h11.326a1.7,1.7,0,0,0,1.7-1.7v-1.744A1.7,1.7,0,0,0,104.577,362.065Z" transform="translate(-84.611 -281.868)" fill="#a4ccff"/>
    <path id="Path_675" data-name="Path 675" d="M91.973,382.921V380.7l-.146.067a1.7,1.7,0,0,0-.987,1.543v1.744a1.7,1.7,0,0,0,1.7,1.7h11.326a1.694,1.694,0,0,0,1.595-1.133H93.671A1.7,1.7,0,0,1,91.973,382.921Z" transform="translate(-84.611 -300.57)" fill="#8bb3ea"/>
    <path id="Path_676" data-name="Path 676" d="M272.753,58h-3.964a1.694,1.694,0,0,0-1.595,1.133h-.1a2.832,2.832,0,0,0-2.832,2.831v1.579a2.263,2.263,0,0,0,.381,1.257l1.885,2.827h9.061l1.885-2.827a2.265,2.265,0,0,0,.38-1.257V63.1A5.1,5.1,0,0,0,272.753,58Z" transform="translate(-246.136)" fill="#6e4848"/>
    <path id="Path_677" data-name="Path 677" d="M233.936,315.308,230,314H219.808l-3.936,1.312a1.7,1.7,0,0,0-1.161,1.612v5a1.7,1.7,0,0,0,1.7,1.7H233.4a1.7,1.7,0,0,0,1.7-1.7v-5A1.7,1.7,0,0,0,233.936,315.308Z" transform="translate(-199.987 -238.441)" fill="#ff8b5a"/>
    <path id="Path_678" data-name="Path 678" d="M313.8,239.68h6.8v6.229h-6.8Z" transform="translate(-292.285 -169.221)" fill="#ecbd83"/>
    <path id="Path_679" data-name="Path 679" d="M313.8,242.158a6.737,6.737,0,0,0,6.8,0V239.68h-6.8Z" transform="translate(-292.285 -169.221)" fill="#e2a975"/>
    <path id="Path_680" data-name="Path 680" d="M289.859,114.237a14.235,14.235,0,0,1-5.015-2.115,1.127,1.127,0,0,0-1.351.073l-2.109,1.758a1.7,1.7,0,0,0-.611,1.305v1.84a5.793,5.793,0,0,0,5.288,5.847,5.648,5.648,0,0,0,6.039-5.556V117A2.812,2.812,0,0,0,289.859,114.237Z" transform="translate(-261.519 -50.233)" fill="#f6d190"/>
    <path id="Path_681" data-name="Path 681" d="M216.41,330.516l-.537.179a1.7,1.7,0,0,0-1.161,1.612v5a1.7,1.7,0,0,0,1.7,1.7H233.4a1.7,1.7,0,0,0,1.7-1.7h-15.29a3.4,3.4,0,0,1-3.4-3.4Z" transform="translate(-199.987 -253.828)" fill="#ff7350"/>
    <path id="Path_682" data-name="Path 682" d="M314.375,158.8a.566.566,0,0,1-.566-.566v-.566a.566.566,0,0,1,1.133,0v.566A.566.566,0,0,1,314.375,158.8Z" transform="translate(-292.289 -92.302)" fill="#6e4848"/>
    <path id="Path_683" data-name="Path 683" d="M332.8,208.346a3.364,3.364,0,0,1-2.021-.679.566.566,0,0,1,.676-.909,2.253,2.253,0,0,0,2.691,0,.566.566,0,0,1,.676.909A3.363,3.363,0,0,1,332.8,208.346Z" transform="translate(-307.882 -138.453)" fill="#c38c66"/>
    <path id="Path_684" data-name="Path 684" d="M290.64,292.751l3.488,2.491-1.827,1.827a.566.566,0,0,1-.836-.038l-2.435-2.921.808-1.212A.566.566,0,0,1,290.64,292.751Z" transform="translate(-269.21 -218.554)" fill="#ffa95f"/>
    <path id="Path_685" data-name="Path 685" d="M367.644,292.9a.566.566,0,0,0-.8-.147l-3.488,2.491,1.827,1.827a.566.566,0,0,0,.836-.038l2.433-2.922h0Z" transform="translate(-338.438 -218.554)" fill="#ffa95f"/>
    <path id="Path_686" data-name="Path 686" d="M282.472,117.322v-1.977a1.7,1.7,0,0,1,.612-1.305l.811-.676a.548.548,0,0,1,.661-.031,14.459,14.459,0,0,0,7.245,2.449,2.771,2.771,0,0,0-1.942-1.517,14.231,14.231,0,0,1-5.008-2.11,1.134,1.134,0,0,0-1.358.069l-2.109,1.758a1.7,1.7,0,0,0-.611,1.305v1.969a5.7,5.7,0,0,0,5.286,5.718,5.783,5.783,0,0,0,1.231-.051A5.671,5.671,0,0,1,282.472,117.322Z" transform="translate(-261.519 -50.261)" fill="#ecbd83"/>
    <path id="Path_687" data-name="Path 687" d="M396.953,158.8a.566.566,0,0,1-.566-.566v-.566a.566.566,0,0,1,1.133,0v.566A.566.566,0,0,1,396.953,158.8Z" transform="translate(-369.204 -92.302)" fill="#6e4848"/>
    <path id="Path_688" data-name="Path 688" d="M320.506,58h-3.964a1.674,1.674,0,0,0-1.015.34c1.471,1.861,4.464,4.47,10.053,5.519a2.218,2.218,0,0,0,.022-.316V63.1A5.1,5.1,0,0,0,320.506,58Z" transform="translate(-293.889)" fill="#8a6055"/>
  </g>
</svg>
