<svg id="Groups" xmlns="http://www.w3.org/2000/svg" width="100%" height="100%" viewBox="0 0 34.117 34.117">
  <path id="Path_149" data-name="Path 149" d="M34.117,17.058A17.047,17.047,0,0,1,22.231,33.318a16.724,16.724,0,0,1-2.459.584l-.011,0q-.62.1-1.253.153l-.271.021c-.128.008-.256.016-.384.022q-.395.019-.794.019t-.813-.02q-.183-.008-.366-.022l-.272-.02Q14.959,34,14.324,33.9c-.2-.033-.4-.068-.6-.108a16.856,16.856,0,0,1-2.515-.7q-.705-.257-1.38-.574-.23-.108-.457-.224-.583-.294-1.138-.632a17.059,17.059,0,1,1,25.885-14.6Z" transform="translate(0)" fill="#ffe152"/>
  <path id="Path_150" data-name="Path 150" d="M34.223,267.455v11.653a16.864,16.864,0,0,1-2.515-.7q-.705-.257-1.38-.574-.23-.108-.457-.224-.583-.294-1.138-.632a17.108,17.108,0,0,1-6.768-7.676v-1.844a4.624,4.624,0,0,1,3.425-4.466c.072-.02.145-.038.219-.053a4.464,4.464,0,0,1,.6-.089c.125-.01.251-.015.378-.015H29.6a4.6,4.6,0,0,1,.981.1l.054.012c.053.012.107.025.159.039h0a4.628,4.628,0,0,1,3.426,4.467Z" transform="translate(-20.501 -245.318)" fill="#2ba1cf"/>
  <path id="Path_151" data-name="Path 151" d="M62.016,267.455v11.653a16.864,16.864,0,0,1-2.515-.7q-.705-.257-1.38-.574-.23-.108-.457-.224-.583-.294-1.138-.632a17.148,17.148,0,0,1-4.784-4.315v-5.205a4.624,4.624,0,0,1,3.425-4.466c.073-.02.145-.038.219-.053a4.477,4.477,0,0,1,.6-.089c.125-.01.251-.015.378-.015h1.027a4.6,4.6,0,0,1,.981.1l.054.012c.053.012.107.025.159.039h0a4.628,4.628,0,0,1,3.426,4.467Z" transform="translate(-48.294 -245.318)" fill="#66baed"/>
  <path id="Path_152" data-name="Path 152" d="M78.632,264.4l-.011.052-1.383,6.433a1.346,1.346,0,0,1-1.309,1.067h-.023a1.345,1.345,0,0,1-1.309-1.067l-1.383-6.433L73.2,264.4Z" transform="translate(-68.325 -246.78)" fill="#f2f0ec"/>
  <path id="Path_153" data-name="Path 153" d="M75.918,255.519l-2.082,1.157-.633-2.945,1.293-.762" transform="translate(-68.325 -236.113)" fill="#d8d5d0"/>
  <path id="Path_154" data-name="Path 154" d="M113.941,255.519l2.082,1.157.633-2.945-1.293-.762" transform="translate(-106.349 -236.113)" fill="#d8d5d0"/>
  <path id="Path_155" data-name="Path 155" d="M20.676,61.379V54.407a6.215,6.215,0,1,1,12.43,0v6.973" transform="translate(-19.298 -44.98)" fill="#cc7a3b"/>
  <path id="Path_156" data-name="Path 156" d="M23.229,54.686c0,2.466,1.444,5.32,2.237,6.7H20.672V54.414a6.211,6.211,0,0,1,6.17-6.215C24.931,48.247,23.229,51.312,23.229,54.686Z" transform="translate(-19.295 -44.987)" fill="#a35418"/>
  <path id="Path_157" data-name="Path 157" d="M92.494,236.105v2.025a1.649,1.649,0,0,1-3.3,0v-2.025Z" transform="translate(-83.252 -220.372)" fill="#eab599"/>
  <path id="Path_158" data-name="Path 158" d="M106.349,264.563v.128a1.193,1.193,0,1,1-2.31.215q.165.01.332.01a5.7,5.7,0,0,0,1.978-.353Z" transform="translate(-97.106 -246.934)" fill="#f6caae"/>
  <path id="Path_159" data-name="Path 159" d="M3.068,164.831a1.534,1.534,0,1,1-1.288-1.514A1.534,1.534,0,0,1,3.068,164.831Z" transform="translate(0 -152.416)" fill="#f6caae"/>
  <path id="Path_160" data-name="Path 160" d="M25.144,165.108a1.534,1.534,0,0,1-1.288,1.514,5.734,5.734,0,0,1,0-3.028A1.534,1.534,0,0,1,25.144,165.108Z" transform="translate(-22.076 -152.693)" fill="#eab599"/>
  <path id="Path_161" data-name="Path 161" d="M15.89,178.638a.548.548,0,1,1-.548-.548A.548.548,0,0,1,15.89,178.638Z" transform="translate(-13.807 -166.223)" fill="#eab599"/>
  <path id="Path_162" data-name="Path 162" d="M37.943,108.15v5.273a5.686,5.686,0,0,1-3.023,1.5l-.028,0A5.632,5.632,0,0,1,34,115a5.707,5.707,0,0,1-5.707-5.707V107.12a5.753,5.753,0,0,1,.058-.82,3.617,3.617,0,0,0,4.545-.292,3.233,3.233,0,0,0,.858-1.34,3.766,3.766,0,0,0,1.178,2.351A4.212,4.212,0,0,0,37.943,108.15Z" transform="translate(-26.411 -97.693)" fill="#eab599"/>
  <path id="Path_163" data-name="Path 163" d="M62.838,108.15v5.273a5.686,5.686,0,0,1-3.023,1.5l-.028,0a5.708,5.708,0,0,1-4.818-5.638V107.12q0-.087,0-.173a3.576,3.576,0,0,0,2.823-.94,3.231,3.231,0,0,0,.858-1.34,3.766,3.766,0,0,0,1.178,2.351A4.212,4.212,0,0,0,62.838,108.15Z" transform="translate(-51.306 -97.693)" fill="#f6caae"/>
  <path id="Path_164" data-name="Path 164" d="M133.392,153.573a.948.948,0,1,0-1.9,0" transform="translate(-122.734 -142.455)" fill="#eab599"/>
  <path id="Path_165" data-name="Path 165" d="M69.857,153.573a.948.948,0,1,0-1.9,0" transform="translate(-63.432 -142.455)" fill="#eab599"/>
  <path id="Path_166" data-name="Path 166" d="M73.764,163.838a.647.647,0,1,1-.648-.647A.648.648,0,0,1,73.764,163.838Z" transform="translate(-67.64 -152.317)" fill="#3d4159"/>
  <path id="Path_167" data-name="Path 167" d="M137.3,163.838a.647.647,0,1,1-.647-.647A.647.647,0,0,1,137.3,163.838Z" transform="translate(-126.945 -152.317)" fill="#3d4159"/>
  <path id="Path_168" data-name="Path 168" d="M101.621,189.547h-1.295a.279.279,0,0,1,0-.559h1.295a.279.279,0,0,1,0,.559Z" transform="translate(-93.38 -176.395)" fill="#eab599"/>
  <path id="Path_169" data-name="Path 169" d="M92.619,212.183a2.883,2.883,0,0,1-1.392-.36.254.254,0,1,1,.245-.445,2.369,2.369,0,0,0,2.294,0,.254.254,0,1,1,.245.445A2.882,2.882,0,0,1,92.619,212.183Z" transform="translate(-85.025 -197.265)" fill="#eab599"/>
  <path id="Path_170" data-name="Path 170" d="M82.149,167.3a.277.277,0,1,1-.277-.277A.278.278,0,0,1,82.149,167.3Z" transform="translate(-76.157 -155.897)" fill="#fff"/>
  <path id="Path_171" data-name="Path 171" d="M146.164,167.3a.277.277,0,1,1-.277-.277A.277.277,0,0,1,146.164,167.3Z" transform="translate(-135.906 -155.897)" fill="#fff"/>
  <path id="Path_172" data-name="Path 172" d="M152.332,186.613a.711.711,0,1,1-.711-.711A.711.711,0,0,1,152.332,186.613Z" transform="translate(-140.854 -173.515)" fill="#eab599"/>
  <path id="Path_173" data-name="Path 173" d="M57.074,186.613a.711.711,0,1,1-.711-.711A.711.711,0,0,1,57.074,186.613Z" transform="translate(-51.944 -173.515)" fill="#eab599"/>
  <path id="Path_174" data-name="Path 174" d="M309.376,262.363V264.5a17.126,17.126,0,0,1-8.3,8.382,17.028,17.028,0,0,1-4.517,1.388l-.011,0V262.363a4.836,4.836,0,0,1,4.442-4.82c.131-.011.262-.016.4-.016h3.15a4.83,4.83,0,0,1,4.838,4.836Z" transform="translate(-276.79 -240.367)" fill="#bfd5de"/>
  <path id="Path_175" data-name="Path 175" d="M343.98,262.363V264.5a17.127,17.127,0,0,1-8.3,8.382,16.884,16.884,0,0,1-2.058.8V262.363a4.837,4.837,0,0,1,4.838-4.836h.679A4.837,4.837,0,0,1,343.98,262.363Z" transform="translate(-311.394 -240.367)" fill="#dde8ed"/>
  <path id="Path_176" data-name="Path 176" d="M276.772,154.984a1.6,1.6,0,1,1-1.348-1.584A1.6,1.6,0,0,1,276.772,154.984Z" transform="translate(-255.333 -143.159)" fill="#d3a489"/>
  <path id="Path_177" data-name="Path 177" d="M375.894,283.711l-1.3,2.083-1.3-2.083" transform="translate(-348.423 -264.806)" fill="#f74f4f"/>
  <path id="Path_178" data-name="Path 178" d="M370.056,313.262l-1.747,2.2-1.747-2.2,1.748-6.426Z" transform="translate(-342.136 -286.39)" fill="#f74f4f"/>
  <path id="Path_179" data-name="Path 179" d="M299.873,155.272a1.6,1.6,0,0,1-1.348,1.584,6,6,0,0,1,0-3.169A1.605,1.605,0,0,1,299.873,155.272Z" transform="translate(-278.434 -143.447)" fill="#bf8e75"/>
  <path id="Path_180" data-name="Path 180" d="M290.19,169.432a.574.574,0,1,1-.574-.573A.574.574,0,0,1,290.19,169.432Z" transform="translate(-269.783 -157.607)" fill="#bf8e75"/>
  <path id="Path_181" data-name="Path 181" d="M353,249.863l-2.178,1.21-.662-3.082,1.353-.8" transform="translate(-326.824 -230.723)" fill="#bfd5de"/>
  <path id="Path_182" data-name="Path 182" d="M392.777,249.863l2.178,1.21.662-3.082-1.353-.8" transform="translate(-366.605 -230.723)" fill="#bfd5de"/>
  <path id="Path_183" data-name="Path 183" d="M463.828,154.984a1.6,1.6,0,1,0,1.348-1.584A1.6,1.6,0,0,0,463.828,154.984Z" transform="translate(-432.921 -143.159)" fill="#d3a489"/>
  <g id="Group_108" data-name="Group 108" transform="translate(20.201 4.991)">
    <path id="Path_184" data-name="Path 184" d="M463.828,155.272a1.6,1.6,0,0,0,1.348,1.584,6,6,0,0,0,0-3.169A1.605,1.605,0,0,0,463.828,155.272Z" transform="translate(-453.123 -148.438)" fill="#bf8e75"/>
    <path id="Path_185" data-name="Path 185" d="M480.452,169.432a.574.574,0,1,1-.574-.573A.574.574,0,0,1,480.452,169.432Z" transform="translate(-467.568 -162.598)" fill="#bf8e75"/>
    <path id="Path_186" data-name="Path 186" d="M315.111,80.882a5.972,5.972,0,0,1-5.013,5.894,5.9,5.9,0,0,1-.958.077,5.971,5.971,0,0,1-5.971-5.971,8.507,8.507,0,0,1,1.522-4.967c1.091-1.185,2.712-1,4.449-1a5.9,5.9,0,0,1,.958.077A5.972,5.972,0,0,1,315.111,80.882Z" transform="translate(-303.168 -74.901)" fill="#bf8e75"/>
    <path id="Path_187" data-name="Path 187" d="M370.335,229.559v2.118a1.726,1.726,0,0,1-3.452,0v-2.118Z" transform="translate(-362.637 -219.253)" fill="#bf8e75"/>
  </g>
  <path id="Path_188" data-name="Path 188" d="M384.831,259.328v.134a1.248,1.248,0,1,1-2.417.225q.173.011.348.011a5.936,5.936,0,0,0,.958-.077A5.871,5.871,0,0,0,384.831,259.328Z" transform="translate(-356.932 -242.048)" fill="#d3a489"/>
  <path id="Path_189" data-name="Path 189" d="M341.96,82.1a5.967,5.967,0,1,1-.029-.6Q341.96,81.8,341.96,82.1Z" transform="translate(-309.816 -71.125)" fill="#d3a489"/>
  <path id="Path_190" data-name="Path 190" d="M370.462,196.555a3.016,3.016,0,0,1-1.456-.376.266.266,0,1,1,.256-.465,2.48,2.48,0,0,0,2.4,0,.266.266,0,1,1,.256.465A3.017,3.017,0,0,1,370.462,196.555Z" transform="translate(-344.289 -182.641)" fill="#bf8e75"/>
  <path id="Path_191" data-name="Path 191" d="M354.722,149.959a.677.677,0,1,1-.678-.678A.677.677,0,0,1,354.722,149.959Z" transform="translate(-329.821 -139.334)" fill="#3d4159"/>
  <path id="Path_192" data-name="Path 192" d="M413.222,149.959a.677.677,0,1,1-.677-.678A.677.677,0,0,1,413.222,149.959Z" transform="translate(-384.422 -139.334)" fill="#3d4159"/>
  <path id="Path_193" data-name="Path 193" d="M363.494,153.587a.29.29,0,1,1-.29-.29A.29.29,0,0,1,363.494,153.587Z" transform="translate(-338.731 -143.082)" fill="#fff"/>
  <path id="Path_194" data-name="Path 194" d="M422.494,153.587a.29.29,0,1,1-.29-.29A.29.29,0,0,1,422.494,153.587Z" transform="translate(-393.8 -143.082)" fill="#fff"/>
  <path id="Path_195" data-name="Path 195" d="M379.877,176.857h-1.355a.292.292,0,1,1,0-.584h1.355a.292.292,0,1,1,0,.584Z" transform="translate(-353.027 -164.527)" fill="#bf8e75"/>
  <path id="Path_196" data-name="Path 196" d="M422.289,327.727h2.6v.8h-2.6Z" transform="translate(-394.15 -305.889)" fill="#bfd5de"/>
  <path id="Path_197" data-name="Path 197" d="M387.539,49.318a3.619,3.619,0,0,1,3.353,3.43l.017.345h1.041l.56,3.727,1.357-.42-.182-3.652a3.619,3.619,0,0,0-3.628-3.439Z" transform="translate(-361.716 -46.023)" fill="#2a2f4f"/>
  <path id="Path_198" data-name="Path 198" d="M404.99,27.816a3.689,3.689,0,1,1-5.217,5.217Z" transform="translate(-373.134 -25.962)" fill="#3d4159"/>
  <path id="Path_199" data-name="Path 199" d="M309.5,53.089h-4.527l-.561,3.727-1.357-.42.182-3.652a3.62,3.62,0,0,1,3.629-3.439l6.538.025.864,1.556" transform="translate(-282.857 -46.019)" fill="#3d4159"/>
  <path id="Path_200" data-name="Path 200" d="M309.376,49.318a3.619,3.619,0,0,0-3.353,3.43l-.017.345h-1.04L304.4,56.82l-1.357-.42.182-3.652a3.619,3.619,0,0,1,3.628-3.439Z" transform="translate(-282.854 -46.023)" fill="#2a2f4f"/>
  <path id="Path_201" data-name="Path 201" d="M161.939,392.338v1.279a17.1,17.1,0,0,1-14.462,0v-1.278a5.456,5.456,0,0,1,4.041-5.269c.085-.023.171-.044.258-.063a5.381,5.381,0,0,1,.71-.1c.148-.012.3-.018.446-.018h3.552a5.464,5.464,0,0,1,1.157.123l.064.014c.063.015.125.03.187.047h0a5.46,5.46,0,0,1,4.042,5.27Z" transform="translate(-137.65 -361.103)" fill="#3d4159"/>
  <path id="Path_202" data-name="Path 202" d="M214.331,388.723l-.013.062-1.74,8.091-.271.021c-.128.008-.256.016-.384.022q-.395.019-.794.019t-.813-.02q-.183-.008-.366-.022l-.272-.02-1.739-8.091-.013-.063Z" transform="translate(-194.071 -362.821)" fill="#66baed"/>
  <path id="Path_203" data-name="Path 203" d="M236.949,416.422l-1.464,2.348-1.464-2.348" transform="translate(-218.426 -388.674)" fill="#3d4159"/>
  <path id="Path_204" data-name="Path 204" d="M240.666,447.083c-.128.008-.256.016-.384.022q-.395.019-.794.019t-.813-.02q-.183-.008-.366-.022l1.179-4.591Z" transform="translate(-222.429 -413.007)" fill="#3d4159"/>
  <path id="Path_205" data-name="Path 205" d="M211.125,378.251l-2.456,1.365-.747-3.475,1.526-.9" transform="translate(-194.067 -350.238)" fill="#2ba1cf"/>
  <path id="Path_206" data-name="Path 206" d="M255.988,378.251l2.456,1.365.747-3.475-1.526-.9" transform="translate(-238.93 -350.238)" fill="#2ba1cf"/>
  <path id="Path_207" data-name="Path 207" d="M270.411,393.412h.779l-1.361,3.31a16.972,16.972,0,0,1-1.92.2l2.39-8.135.018-.061,1.68.549Z" transform="translate(-250.058 -362.821)" fill="#2a2f4f"/>
  <path id="Path_208" data-name="Path 208" d="M186.519,396.918a16.9,16.9,0,0,1-1.921-.2l-1.359-3.306h.779l-1.588-4.141,1.681-.549.018.061Z" transform="translate(-170.274 -362.821)" fill="#2a2f4f"/>
  <path id="Path_209" data-name="Path 209" d="M230.677,355.352v2.388a1.946,1.946,0,0,1-3.892,0v-2.388Z" transform="translate(-211.673 -331.673)" fill="#eab599"/>
  <path id="Path_210" data-name="Path 210" d="M247.022,388.922v.151a1.407,1.407,0,1,1-2.725.253q.2.012.392.012a6.709,6.709,0,0,0,2.333-.417Z" transform="translate(-228.018 -363.006)" fill="#f6caae"/>
  <path id="Path_211" data-name="Path 211" d="M125.171,271.255a1.81,1.81,0,0,1-1.52,1.787,1.833,1.833,0,0,1-.29.023,1.81,1.81,0,1,1,1.81-1.81Z" transform="translate(-113.452 -251.491)" fill="#f6caae"/>
  <path id="Path_212" data-name="Path 212" d="M151.221,271.584a1.81,1.81,0,0,1-1.52,1.787,6.772,6.772,0,0,1,0-3.573A1.81,1.81,0,0,1,151.221,271.584Z" transform="translate(-139.502 -251.819)" fill="#eab599"/>
  <path id="Path_213" data-name="Path 213" d="M140.3,287.549a.647.647,0,1,1-.647-.647A.647.647,0,0,1,140.3,287.549Z" transform="translate(-129.745 -267.784)" fill="#eab599"/>
  <path id="Path_214" data-name="Path 214" d="M336.105,271.255a1.81,1.81,0,0,0,1.52,1.787,1.83,1.83,0,0,0,.29.023,1.81,1.81,0,1,0-1.81-1.81Z" transform="translate(-313.709 -251.491)" fill="#f6caae"/>
  <path id="Path_215" data-name="Path 215" d="M336.105,271.584a1.81,1.81,0,0,0,1.52,1.787,6.772,6.772,0,0,0,0-3.573A1.81,1.81,0,0,0,336.105,271.584Z" transform="translate(-313.709 -251.819)" fill="#eab599"/>
  <path id="Path_216" data-name="Path 216" d="M168.408,149.371v2.564a6.734,6.734,0,0,1-5.653,6.647l-.033.005a6.62,6.62,0,0,1-1.048.081,6.733,6.733,0,0,1-6.733-6.733v-2.564a6.729,6.729,0,0,1,6.733-6.734h0a6.729,6.729,0,0,1,6.733,6.734Z" transform="translate(-144.617 -133.132)" fill="#eab599"/>
  <path id="Path_217" data-name="Path 217" d="M354.853,287.549a.647.647,0,1,1-.647-.647A.647.647,0,0,1,354.853,287.549Z" transform="translate(-330 -267.784)" fill="#eab599"/>
  <path id="Path_218" data-name="Path 218" d="M197.776,150.512v2.564a6.734,6.734,0,0,1-5.653,6.646l-.033.005a6.735,6.735,0,0,1-5.684-6.652v-2.564a6.735,6.735,0,0,1,5.686-6.653A6.735,6.735,0,0,1,197.776,150.512Z" transform="translate(-173.985 -134.273)" fill="#f6caae"/>
  <path id="Path_219" data-name="Path 219" d="M213.071,265.592a.764.764,0,1,1-.764-.764A.764.764,0,0,1,213.071,265.592Z" transform="translate(-197.447 -247.181)" fill="#3d4159"/>
  <path id="Path_220" data-name="Path 220" d="M279.04,265.592a.764.764,0,1,1-.764-.764A.764.764,0,0,1,279.04,265.592Z" transform="translate(-259.02 -247.181)" fill="#3d4159"/>
  <path id="Path_221" data-name="Path 221" d="M222.964,269.682a.327.327,0,1,1-.327-.328A.327.327,0,0,1,222.964,269.682Z" transform="translate(-207.496 -251.407)" fill="#fff"/>
  <path id="Path_222" data-name="Path 222" d="M289.495,269.682a.327.327,0,1,1-.327-.328A.327.327,0,0,1,289.495,269.682Z" transform="translate(-269.593 -251.407)" fill="#fff"/>
  <path id="Path_223" data-name="Path 223" d="M241.439,291.429h-1.528a.33.33,0,0,1,0-.659h1.528a.33.33,0,1,1,0,.659Z" transform="translate(-223.618 -271.395)" fill="#eab599"/>
  <path id="Path_224" data-name="Path 224" d="M230.821,318.133a3.4,3.4,0,0,1-1.642-.424.3.3,0,0,1,.289-.525,2.794,2.794,0,0,0,2.706,0,.3.3,0,0,1,.289.525A3.4,3.4,0,0,1,230.821,318.133Z" transform="translate(-213.763 -296.014)" fill="#eab599"/>
  <path id="Path_225" data-name="Path 225" d="M168.4,132.832v2.627h-1.253V133.4L158.1,131.72l-1.914-.356v4.094h-1.253v-2.627a5.421,5.421,0,0,1,5.421-5.421h2.626c.071,0,.143,0,.214,0A5.42,5.42,0,0,1,168.4,132.832Z" transform="translate(-144.613 -118.92)" fill="#2a2f4f"/>
  <path id="Path_226" data-name="Path 226" d="M212.773,132.9v2.627H211.52V133.47l-9.047-1.681a5.19,5.19,0,0,1,10.3,1.111Z" transform="translate(-188.981 -118.989)" fill="#3d4159"/>
</svg>
