<svg xmlns="http://www.w3.org/2000/svg" width="100%" height="100%" viewBox="0 0 32.079 27.499">
  <g id="Holidays" transform="translate(0 -36.543)">
    <path id="Path_787" data-name="Path 787" d="M31.584,183.689H.494A.494.494,0,0,1,0,183.195V164.187H32.078v19.008A.494.494,0,0,1,31.584,183.689Z" transform="translate(0 -119.647)" fill="#f8f6f6"/>
    <path id="Path_788" data-name="Path 788" d="M32.078,81.506H0V75.551a.494.494,0,0,1,.494-.494h31.09a.494.494,0,0,1,.494.494v5.955Z" transform="translate(0 -36.101)" fill="#a6e7f0"/>
    <path id="Path_789" data-name="Path 789" d="M484.83,177.992v18.143a.494.494,0,0,1-.494.494h-1.322a.494.494,0,0,0,.494-.494V177.992Z" transform="translate(-452.752 -132.587)" fill="#ebebeb"/>
    <path id="Path_790" data-name="Path 790" d="M484.83,75.553v5.955h-1.322V75.553a.494.494,0,0,0-.494-.494h1.322A.494.494,0,0,1,484.83,75.553Z" transform="translate(-452.752 -36.103)" fill="#6bd9e7"/>
    <g id="Group_435" data-name="Group 435" transform="translate(5.795 36.543)">
      <path id="Path_791" data-name="Path 791" d="M93.552,41.15a1.066,1.066,0,0,1-1.066-1.066V37.611a1.066,1.066,0,1,1,2.131,0v2.474A1.066,1.066,0,0,1,93.552,41.15Z" transform="translate(-92.486 -36.545)" fill="#5a5a5a"/>
      <path id="Path_792" data-name="Path 792" d="M386.56,41.15a1.066,1.066,0,0,1-1.066-1.066V37.611a1.066,1.066,0,0,1,2.131,0v2.474A1.066,1.066,0,0,1,386.56,41.15Z" transform="translate(-367.136 -36.545)" fill="#5a5a5a"/>
    </g>
    <g id="Group_436" data-name="Group 436" transform="translate(6.327 36.543)">
      <path id="Path_793" data-name="Path 793" d="M102.59,37.609v2.474a1.066,1.066,0,0,1-1.6.924,1.066,1.066,0,0,0,.533-.924V37.609a1.062,1.062,0,0,0-.312-.753,1.087,1.087,0,0,0-.221-.17,1.066,1.066,0,0,1,1.6.923Z" transform="translate(-100.992 -36.543)" fill="#444"/>
      <path id="Path_794" data-name="Path 794" d="M395.6,37.609v2.474a1.065,1.065,0,0,1-1.6.923,1.064,1.064,0,0,0,.533-.923V37.609a1.064,1.064,0,0,0-.533-.922,1.065,1.065,0,0,1,1.6.922Z" transform="translate(-375.642 -36.543)" fill="#444"/>
    </g>
    <g id="Group_437" data-name="Group 437" transform="translate(1.976 52.383)">
      <path id="Path_795" data-name="Path 795" d="M362.09,289.717l-.005-.013a.553.553,0,0,0-.513-.344h0a.553.553,0,0,0-.513.345l0,.011-1.405,3.689a.47.47,0,1,0,.878.334l.235-.616h1.609l.232.615a.47.47,0,0,0,.879-.332Zm-.97,2.467.45-1.182.446,1.182Z" transform="translate(-339.063 -289.36)" fill="#cecece"/>
      <path id="Path_796" data-name="Path 796" d="M201.406,293.1l-.838,0V289.83a.47.47,0,1,0-.94,0v3.739a.47.47,0,0,0,.391.463,3.48,3.48,0,0,0,.476.01l.916,0a.47.47,0,1,0-.005-.94Z" transform="translate(-189.097 -289.36)" fill="#cecece"/>
      <path id="Path_797" data-name="Path 797" d="M254.526,289.36a.47.47,0,0,0-.47.47v3.742a.47.47,0,1,0,.94,0V289.83A.47.47,0,0,0,254.526,289.36Z" transform="translate(-240.115 -289.36)" fill="#cecece"/>
      <path id="Path_798" data-name="Path 798" d="M34.6,289.36a.47.47,0,0,0-.47.47v1.337h-1.65V289.83a.47.47,0,1,0-.94,0v3.742a.47.47,0,1,0,.94,0v-1.465h1.65v1.465a.47.47,0,1,0,.94,0V289.83A.47.47,0,0,0,34.6,289.36Z" transform="translate(-31.545 -289.36)" fill="#cecece"/>
      <path id="Path_799" data-name="Path 799" d="M293.675,291.127h-1.028a.47.47,0,0,0-.47.471v0h0v3.569a.486.486,0,0,0,.477.529h0c.031,0,.765,0,1.058-.008a2.066,2.066,0,0,0,1.9-2.278,2.017,2.017,0,0,0-1.936-2.286Zm.022,3.623c-.132,0-.363,0-.575.005,0-.428,0-2.243,0-2.689h.558c.166,0,1,.065,1,1.346,0,.912-.489,1.329-.975,1.338Z" transform="translate(-275.848 -291.016)" fill="#cecece"/>
      <path id="Path_800" data-name="Path 800" d="M430.564,289.445a.47.47,0,0,0-.65.137l-.792,1.217-.8-1.227a.47.47,0,1,0-.787.514l1.118,1.713,0,1.771a.47.47,0,0,0,.469.471h0a.47.47,0,0,0,.47-.469l0-1.773,1.11-1.7a.47.47,0,0,0-.137-.65Z" transform="translate(-402.652 -289.359)" fill="#cecece"/>
      <path id="Path_801" data-name="Path 801" d="M108.73,289.36a2.341,2.341,0,1,0,2.341,2.341A2.343,2.343,0,0,0,108.73,289.36Zm0,3.742a1.4,1.4,0,1,1,1.4-1.4A1.4,1.4,0,0,1,108.73,293.1Z" transform="translate(-101.7 -289.36)" fill="#cecece"/>
    </g>
  </g>
</svg>
