<svg xmlns="http://www.w3.org/2000/svg" width="100%" height="100%" viewBox="0 0 24.386 26.717">
  <g id="Inventory" transform="translate(-5.017)">
    <g id="Group_249" data-name="Group 249" transform="translate(5.017 10.823)">
      <g id="Group_220" data-name="Group 220" transform="translate(0 3.447)">
        <g id="Group_219" data-name="Group 219">
          <path id="Path_519" data-name="Path 519" d="M5.017,61.423V72.681A1.189,1.189,0,0,0,6.206,73.87H17.359a1.189,1.189,0,0,0,1.189-1.189V61.423Z" transform="translate(-5.017 -61.423)" fill="#c9b77d"/>
        </g>
      </g>
      <g id="Group_225" data-name="Group 225" transform="translate(1.833 13.141)">
        <g id="Group_222" data-name="Group 222">
          <g id="Group_221" data-name="Group 221">
            <path id="Path_520" data-name="Path 520" d="M14.45,104.337l-.618-1.107a.168.168,0,0,0-.289,0l-.618,1.107a.156.156,0,0,0,.145.228h.286v.381a.16.16,0,0,0,.164.155h.337a.16.16,0,0,0,.164-.155v-.381h.286A.155.155,0,0,0,14.45,104.337Z" transform="translate(-12.906 -103.147)" fill="#99734a"/>
          </g>
        </g>
        <g id="Group_224" data-name="Group 224" transform="translate(7.389)">
          <g id="Group_223" data-name="Group 223">
            <path id="Path_521" data-name="Path 521" d="M46.254,104.337l-.618-1.107a.168.168,0,0,0-.289,0l-.618,1.107a.156.156,0,0,0,.145.228h.286v.381a.16.16,0,0,0,.164.155h.337a.16.16,0,0,0,.164-.155v-.381h.286A.156.156,0,0,0,46.254,104.337Z" transform="translate(-44.71 -103.147)" fill="#99734a"/>
          </g>
        </g>
      </g>
      <g id="Group_227" data-name="Group 227" transform="translate(5.506 3.447)">
        <g id="Group_226" data-name="Group 226" transform="translate(0)">
          <path id="Path_522" data-name="Path 522" d="M28.716,61.423V63.8h.11a.216.216,0,0,1,.421,0h.161a.216.216,0,0,1,.421,0h.161a.216.216,0,0,1,.421,0h.161a.216.216,0,0,1,.421,0h.161a.216.216,0,0,1,.421,0h.11V61.423Z" transform="translate(-28.716 -61.423)" fill="#99734a"/>
        </g>
      </g>
      <g id="Group_229" data-name="Group 229">
        <g id="Group_228" data-name="Group 228">
          <path id="Path_523" data-name="Path 523" d="M17.581,47.4a1.251,1.251,0,0,0-1.174-.819H7.183a1.251,1.251,0,0,0-1.174.819l-.992,2.628H18.548Z" transform="translate(-5.017 -46.585)" fill="#ffeead"/>
        </g>
      </g>
      <g id="Group_231" data-name="Group 231" transform="translate(5.497 0)">
        <g id="Group_230" data-name="Group 230" transform="translate(0)">
          <path id="Path_524" data-name="Path 524" d="M31.375,46.586H28.959l-.283,3.447H31.65Z" transform="translate(-28.676 -46.586)" fill="#b28559"/>
        </g>
      </g>
      <g id="Group_233" data-name="Group 233" transform="translate(5.505 13.632)">
        <g id="Group_232" data-name="Group 232">
          <path id="Path_525" data-name="Path 525" d="M31.576,105.262a.218.218,0,0,1-.421,0h-.161a.219.219,0,0,1-.421,0H30.41a.219.219,0,0,1-.421,0h-.161a.219.219,0,0,1-.421,0h-.161a.219.219,0,0,1-.421,0h-.11v2.259h2.971v-2.259Z" transform="translate(-28.714 -105.262)" fill="#99734a"/>
        </g>
      </g>
      <g id="Group_235" data-name="Group 235" transform="translate(1.266 4.637)">
        <g id="Group_234" data-name="Group 234">
          <path id="Path_526" data-name="Path 526" d="M12.531,66.543H10.583a.117.117,0,1,0,0,.234h1.948a.117.117,0,1,0,0-.234Z" transform="translate(-10.466 -66.543)" fill="#99734a"/>
        </g>
      </g>
      <g id="Group_237" data-name="Group 237" transform="translate(1.266 5.258)">
        <g id="Group_236" data-name="Group 236">
          <path id="Path_527" data-name="Path 527" d="M12.531,69.216H10.583a.117.117,0,1,0,0,.234h1.948a.117.117,0,1,0,0-.234Z" transform="translate(-10.466 -69.216)" fill="#99734a"/>
        </g>
      </g>
      <g id="Group_239" data-name="Group 239" transform="translate(1.266 5.878)">
        <g id="Group_238" data-name="Group 238">
          <path id="Path_528" data-name="Path 528" d="M12.531,71.888H10.583a.117.117,0,1,0,0,.234h1.948a.117.117,0,1,0,0-.234Z" transform="translate(-10.466 -71.888)" fill="#99734a"/>
        </g>
      </g>
      <g id="Group_241" data-name="Group 241" transform="translate(1.266 6.499)">
        <g id="Group_240" data-name="Group 240">
          <path id="Path_529" data-name="Path 529" d="M12.531,74.561H10.583a.117.117,0,0,0,0,.234h1.948a.117.117,0,1,0,0-.234Z" transform="translate(-10.466 -74.561)" fill="#99734a"/>
        </g>
      </g>
      <g id="Group_248" data-name="Group 248" transform="translate(1.2 7.696)">
        <g id="Group_243" data-name="Group 243" transform="translate(1.474 0.597)">
          <g id="Group_242" data-name="Group 242">
            <path id="Path_530" data-name="Path 530" d="M17.314,83.146l-.285-.422.082-.051a.115.115,0,0,0-.012-.2l-.393-.181a.114.114,0,0,0-.048-.011.116.116,0,0,0-.115.112l-.015.432a.116.116,0,0,0,.116.12.114.114,0,0,0,.06-.017l.11-.068.29.429h-.5a.234.234,0,0,1-.022.253H17.1a.253.253,0,0,0,.21-.393Z" transform="translate(-16.527 -82.279)" fill="#99734a"/>
          </g>
        </g>
        <g id="Group_245" data-name="Group 245" transform="translate(0.377)">
          <g id="Group_244" data-name="Group 244">
            <path id="Path_531" data-name="Path 531" d="M12.792,79.824a.253.253,0,0,0-.421,0l-.293.435-.092-.061a.115.115,0,0,0-.179.1v.433a.116.116,0,0,0,.115.115.113.113,0,0,0,.045-.009l.4-.168a.116.116,0,0,0,.019-.2l-.1-.064.292-.434.236.355a.24.24,0,0,1,.213-.136Z" transform="translate(-11.808 -79.711)" fill="#99734a"/>
          </g>
        </g>
        <g id="Group_247" data-name="Group 247" transform="translate(0 1.115)">
          <g id="Group_246" data-name="Group 246">
            <path id="Path_532" data-name="Path 532" d="M11.58,85.009l-.367-.229a.115.115,0,0,0-.177.1l0,.116h-.6l.232-.348a.24.24,0,0,1-.21-.141l-.232.349a.253.253,0,0,0,.21.393h.611l0,.11a.116.116,0,0,0,.116.112.114.114,0,0,0,.066-.022l.353-.25A.115.115,0,0,0,11.58,85.009Z" transform="translate(-10.184 -84.51)" fill="#99734a"/>
          </g>
        </g>
      </g>
    </g>
    <g id="Group_280" data-name="Group 280" transform="translate(5.017)">
      <g id="Group_251" data-name="Group 251" transform="translate(0 1.381)">
        <g id="Group_250" data-name="Group 250">
          <path id="Path_533" data-name="Path 533" d="M5.017,5.944V17.2a1.189,1.189,0,0,0,1.189,1.189H17.359A1.189,1.189,0,0,0,18.548,17.2V5.944Z" transform="translate(-5.017 -5.944)" fill="#c9b77d"/>
        </g>
      </g>
      <g id="Group_256" data-name="Group 256" transform="translate(1.833 11.074)">
        <g id="Group_253" data-name="Group 253">
          <g id="Group_252" data-name="Group 252">
            <path id="Path_534" data-name="Path 534" d="M14.45,48.858l-.618-1.107a.168.168,0,0,0-.289,0l-.618,1.107a.156.156,0,0,0,.145.228h.286v.381a.159.159,0,0,0,.164.155h.337a.159.159,0,0,0,.164-.155v-.381h.286A.155.155,0,0,0,14.45,48.858Z" transform="translate(-12.906 -47.668)" fill="#99734a"/>
          </g>
        </g>
        <g id="Group_255" data-name="Group 255" transform="translate(7.389)">
          <g id="Group_254" data-name="Group 254">
            <path id="Path_535" data-name="Path 535" d="M46.254,48.858l-.618-1.107a.168.168,0,0,0-.289,0l-.618,1.107a.156.156,0,0,0,.145.228h.286v.381a.159.159,0,0,0,.164.155h.337a.159.159,0,0,0,.164-.155v-.381h.286A.156.156,0,0,0,46.254,48.858Z" transform="translate(-44.71 -47.668)" fill="#99734a"/>
          </g>
        </g>
      </g>
      <g id="Group_258" data-name="Group 258" transform="translate(5.506 1.381)">
        <g id="Group_257" data-name="Group 257" transform="translate(0)">
          <path id="Path_536" data-name="Path 536" d="M28.716,5.944V8.323h.11a.216.216,0,0,1,.421,0h.161a.216.216,0,0,1,.421,0h.161a.216.216,0,0,1,.421,0h.161a.216.216,0,0,1,.421,0h.161a.216.216,0,0,1,.421,0h.11V5.944Z" transform="translate(-28.716 -5.944)" fill="#99734a"/>
        </g>
      </g>
      <g id="Group_260" data-name="Group 260">
        <g id="Group_259" data-name="Group 259">
          <path id="Path_537" data-name="Path 537" d="M17.581.328A1.758,1.758,0,0,0,16.407,0H7.183A1.758,1.758,0,0,0,6.009.328L5.017,1.381H18.548Z" transform="translate(-5.017 0)" fill="#ffeead"/>
        </g>
      </g>
      <g id="Group_262" data-name="Group 262" transform="translate(5.506)">
        <g id="Group_261" data-name="Group 261" transform="translate(0)">
          <path id="Path_538" data-name="Path 538" d="M31.405,0H28.99l-.274,1.381h2.965Z" transform="translate(-28.716)" fill="#b28559"/>
        </g>
      </g>
      <g id="Group_264" data-name="Group 264" transform="translate(5.525 11.566)">
        <g id="Group_263" data-name="Group 263">
          <path id="Path_539" data-name="Path 539" d="M31.6,49.783a.213.213,0,0,1-.412,0H31.03a.213.213,0,0,1-.412,0H30.46a.213.213,0,0,1-.412,0H29.89a.213.213,0,0,1-.412,0H29.32a.213.213,0,0,1-.412,0H28.8v2.259h2.906V49.783Z" transform="translate(-28.8 -49.783)" fill="#99734a"/>
        </g>
      </g>
      <g id="Group_266" data-name="Group 266" transform="translate(1.266 2.57)">
        <g id="Group_265" data-name="Group 265">
          <path id="Path_540" data-name="Path 540" d="M12.531,11.064H10.583a.117.117,0,1,0,0,.234h1.948a.117.117,0,1,0,0-.234Z" transform="translate(-10.466 -11.064)" fill="#99734a"/>
        </g>
      </g>
      <g id="Group_268" data-name="Group 268" transform="translate(1.266 3.191)">
        <g id="Group_267" data-name="Group 267">
          <path id="Path_541" data-name="Path 541" d="M12.531,13.736H10.583a.117.117,0,1,0,0,.234h1.948a.117.117,0,1,0,0-.234Z" transform="translate(-10.466 -13.736)" fill="#99734a"/>
        </g>
      </g>
      <g id="Group_270" data-name="Group 270" transform="translate(1.266 3.812)">
        <g id="Group_269" data-name="Group 269">
          <path id="Path_542" data-name="Path 542" d="M12.531,16.409H10.583a.117.117,0,1,0,0,.234h1.948a.117.117,0,1,0,0-.234Z" transform="translate(-10.466 -16.409)" fill="#99734a"/>
        </g>
      </g>
      <g id="Group_272" data-name="Group 272" transform="translate(1.266 4.433)">
        <g id="Group_271" data-name="Group 271">
          <path id="Path_543" data-name="Path 543" d="M12.531,19.082H10.583a.117.117,0,1,0,0,.234h1.948a.117.117,0,1,0,0-.234Z" transform="translate(-10.466 -19.082)" fill="#99734a"/>
        </g>
      </g>
      <g id="Group_279" data-name="Group 279" transform="translate(1.2 5.629)">
        <g id="Group_274" data-name="Group 274" transform="translate(1.474 0.597)">
          <g id="Group_273" data-name="Group 273">
            <path id="Path_544" data-name="Path 544" d="M17.314,27.667l-.285-.422.082-.051a.115.115,0,0,0-.012-.2l-.393-.181a.114.114,0,0,0-.048-.011.116.116,0,0,0-.115.112l-.015.432a.116.116,0,0,0,.116.12.114.114,0,0,0,.06-.017l.11-.068.29.429h-.5a.234.234,0,0,1-.022.253H17.1a.253.253,0,0,0,.21-.392Z" transform="translate(-16.527 -26.8)" fill="#99734a"/>
          </g>
        </g>
        <g id="Group_276" data-name="Group 276" transform="translate(0.377)">
          <g id="Group_275" data-name="Group 275">
            <path id="Path_545" data-name="Path 545" d="M12.792,24.344a.253.253,0,0,0-.421,0l-.293.435-.092-.061a.113.113,0,0,0-.063-.02.116.116,0,0,0-.116.116v.432a.116.116,0,0,0,.115.115.113.113,0,0,0,.045-.009l.4-.168a.116.116,0,0,0,.019-.2l-.1-.064.292-.434.236.355a.24.24,0,0,1,.213-.136Z" transform="translate(-11.808 -24.231)" fill="#99734a"/>
          </g>
        </g>
        <g id="Group_278" data-name="Group 278" transform="translate(0 1.115)">
          <g id="Group_277" data-name="Group 277">
            <path id="Path_546" data-name="Path 546" d="M11.58,29.53l-.367-.229a.115.115,0,0,0-.177.1l0,.116h-.6l.232-.348a.24.24,0,0,1-.21-.141l-.232.349a.253.253,0,0,0,.21.393h.611l0,.11a.116.116,0,0,0,.116.112.114.114,0,0,0,.066-.022l.353-.25A.115.115,0,0,0,11.58,29.53Z" transform="translate(-10.184 -29.031)" fill="#99734a"/>
          </g>
        </g>
      </g>
    </g>
    <g id="Group_282" data-name="Group 282" transform="translate(13.774 4.932)">
      <g id="Group_281" data-name="Group 281">
        <path id="Path_547" data-name="Path 547" d="M47.485,21.23H44.2a1.446,1.446,0,0,0-1.484,1.405V40.37A1.446,1.446,0,0,0,44.2,41.775h3.29V30.568l-.309-.838a1.18,1.18,0,0,0,.309-.793Z" transform="translate(-42.711 -21.23)" fill="#aa9865"/>
      </g>
    </g>
    <g id="Group_284" data-name="Group 284" transform="translate(14.276 23.964)">
      <g id="Group_283" data-name="Group 283">
        <path id="Path_548" data-name="Path 548" d="M46.379,104.337l-.618-1.107a.168.168,0,0,0-.289,0l-.6,1.073a1.52,1.52,0,0,0,.982.359h.094v-.1h.286A.156.156,0,0,0,46.379,104.337Z" transform="translate(-44.873 -103.147)" fill="#825e3b"/>
      </g>
    </g>
    <g id="Group_351" data-name="Group 351" transform="translate(14.978 2.768)">
      <g id="Group_286" data-name="Group 286" transform="translate(0 0.425)">
        <g id="Group_285" data-name="Group 285">
          <path id="Path_549" data-name="Path 549" d="M60.834,13.746H49.377a1.446,1.446,0,0,0-1.484,1.405V32.886a1.446,1.446,0,0,0,1.484,1.405H60.834a1.446,1.446,0,0,0,1.484-1.405V15.151A1.446,1.446,0,0,0,60.834,13.746Z" transform="translate(-47.893 -13.746)" fill="#71a58a"/>
        </g>
      </g>
      <g id="Group_288" data-name="Group 288" transform="translate(1.419 1.938)">
        <g id="Group_287" data-name="Group 287">
          <rect id="Rectangle_38" data-name="Rectangle 38" width="11.554" height="16.95" fill="#ffeead"/>
        </g>
      </g>
      <g id="Group_344" data-name="Group 344" transform="translate(2.345 4.949)">
        <g id="Group_297" data-name="Group 297">
          <g id="Group_294" data-name="Group 294" transform="translate(0 0.392)">
            <g id="Group_290" data-name="Group 290" transform="translate(0.158 0.158)">
              <g id="Group_289" data-name="Group 289">
                <path id="Path_550" data-name="Path 550" d="M59.612,35.584h-.664a.282.282,0,0,0-.282.282v.664a.282.282,0,0,0,.282.282h.664a.282.282,0,0,0,.282-.282v-.664A.282.282,0,0,0,59.612,35.584Z" transform="translate(-58.665 -35.584)" fill="#fff"/>
              </g>
            </g>
            <g id="Group_293" data-name="Group 293">
              <g id="Group_292" data-name="Group 292">
                <g id="Group_291" data-name="Group 291">
                  <path id="Path_551" data-name="Path 551" d="M59.091,34.906h-.664a.44.44,0,0,0-.44.44v.664a.44.44,0,0,0,.44.44h.664a.44.44,0,0,0,.44-.44v-.664A.44.44,0,0,0,59.091,34.906Zm.125,1.1a.125.125,0,0,1-.125.125h-.664a.125.125,0,0,1-.125-.125v-.664a.125.125,0,0,1,.125-.125h.664a.125.125,0,0,1,.125.125Z" transform="translate(-57.987 -34.906)" fill="#71a58a"/>
                </g>
              </g>
            </g>
          </g>
          <g id="Group_296" data-name="Group 296" transform="translate(0.253)">
            <g id="Group_295" data-name="Group 295">
              <path id="Path_552" data-name="Path 552" d="M61.8,33.375a.315.315,0,0,0-.431-.113,3.624,3.624,0,0,0-1.225,1.183,2.558,2.558,0,0,0-.585-.531.315.315,0,1,0-.346.527,1.917,1.917,0,0,1,.673.765.315.315,0,0,0,.283.177h.007a.315.315,0,0,0,.282-.19,2.991,2.991,0,0,1,1.229-1.388A.315.315,0,0,0,61.8,33.375Z" transform="translate(-59.074 -33.219)" fill="#ff6f69"/>
            </g>
          </g>
        </g>
        <g id="Group_306" data-name="Group 306" transform="translate(0 2.496)">
          <g id="Group_303" data-name="Group 303" transform="translate(0 0.392)">
            <g id="Group_299" data-name="Group 299" transform="translate(0.158 0.158)">
              <g id="Group_298" data-name="Group 298">
                <path id="Path_553" data-name="Path 553" d="M59.612,46.328h-.664a.282.282,0,0,0-.282.282v.664a.282.282,0,0,0,.282.282h.664a.282.282,0,0,0,.282-.282V46.61A.282.282,0,0,0,59.612,46.328Z" transform="translate(-58.665 -46.328)" fill="#fff"/>
              </g>
            </g>
            <g id="Group_302" data-name="Group 302">
              <g id="Group_301" data-name="Group 301">
                <g id="Group_300" data-name="Group 300">
                  <path id="Path_554" data-name="Path 554" d="M59.091,45.649h-.664a.44.44,0,0,0-.44.44v.664a.44.44,0,0,0,.44.44h.664a.44.44,0,0,0,.44-.44v-.664A.44.44,0,0,0,59.091,45.649Zm.125,1.1a.125.125,0,0,1-.125.125h-.664a.125.125,0,0,1-.125-.125v-.664a.125.125,0,0,1,.125-.125h.664a.125.125,0,0,1,.125.125Z" transform="translate(-57.987 -45.649)" fill="#71a58a"/>
                </g>
              </g>
            </g>
          </g>
          <g id="Group_305" data-name="Group 305" transform="translate(0.253)">
            <g id="Group_304" data-name="Group 304">
              <path id="Path_555" data-name="Path 555" d="M61.8,44.119a.316.316,0,0,0-.431-.113,3.624,3.624,0,0,0-1.225,1.183,2.552,2.552,0,0,0-.585-.53.315.315,0,0,0-.346.527,1.917,1.917,0,0,1,.673.765.316.316,0,0,0,.283.177h.007a.315.315,0,0,0,.282-.191,2.991,2.991,0,0,1,1.229-1.388A.315.315,0,0,0,61.8,44.119Z" transform="translate(-59.074 -43.964)" fill="#ff6f69"/>
            </g>
          </g>
        </g>
        <g id="Group_315" data-name="Group 315" transform="translate(0 4.992)">
          <g id="Group_312" data-name="Group 312" transform="translate(0 0.392)">
            <g id="Group_308" data-name="Group 308" transform="translate(0.158 0.158)">
              <g id="Group_307" data-name="Group 307">
                <path id="Path_556" data-name="Path 556" d="M59.612,57.071h-.664a.282.282,0,0,0-.282.282v.664a.282.282,0,0,0,.282.282h.664a.282.282,0,0,0,.282-.282v-.664A.282.282,0,0,0,59.612,57.071Z" transform="translate(-58.665 -57.071)" fill="#fff"/>
              </g>
            </g>
            <g id="Group_311" data-name="Group 311">
              <g id="Group_310" data-name="Group 310">
                <g id="Group_309" data-name="Group 309">
                  <path id="Path_557" data-name="Path 557" d="M59.091,56.393h-.664a.44.44,0,0,0-.44.44V57.5a.44.44,0,0,0,.44.44h.664a.44.44,0,0,0,.44-.44v-.664A.44.44,0,0,0,59.091,56.393Zm.125,1.1a.125.125,0,0,1-.125.125h-.664A.125.125,0,0,1,58.3,57.5v-.664a.125.125,0,0,1,.125-.125h.664a.125.125,0,0,1,.125.125Z" transform="translate(-57.987 -56.393)" fill="#71a58a"/>
                </g>
              </g>
            </g>
          </g>
          <g id="Group_314" data-name="Group 314" transform="translate(0.253)">
            <g id="Group_313" data-name="Group 313">
              <path id="Path_558" data-name="Path 558" d="M61.8,54.861a.315.315,0,0,0-.431-.113,3.627,3.627,0,0,0-1.225,1.184,2.558,2.558,0,0,0-.585-.531.315.315,0,1,0-.346.527,1.917,1.917,0,0,1,.673.765.316.316,0,0,0,.283.177h.007a.315.315,0,0,0,.282-.191,2.992,2.992,0,0,1,1.229-1.388A.315.315,0,0,0,61.8,54.861Z" transform="translate(-59.074 -54.705)" fill="#ff6f69"/>
            </g>
          </g>
        </g>
        <g id="Group_324" data-name="Group 324" transform="translate(0 7.487)">
          <g id="Group_321" data-name="Group 321" transform="translate(0 0.392)">
            <g id="Group_317" data-name="Group 317" transform="translate(0.158 0.158)">
              <g id="Group_316" data-name="Group 316">
                <path id="Path_559" data-name="Path 559" d="M59.612,67.815h-.664a.282.282,0,0,0-.282.282v.664a.282.282,0,0,0,.282.282h.664a.282.282,0,0,0,.282-.282V68.1A.282.282,0,0,0,59.612,67.815Z" transform="translate(-58.665 -67.815)" fill="#fff"/>
              </g>
            </g>
            <g id="Group_320" data-name="Group 320">
              <g id="Group_319" data-name="Group 319">
                <g id="Group_318" data-name="Group 318">
                  <path id="Path_560" data-name="Path 560" d="M59.091,67.136h-.664a.44.44,0,0,0-.44.44v.664a.44.44,0,0,0,.44.44h.664a.44.44,0,0,0,.44-.44v-.664A.44.44,0,0,0,59.091,67.136Zm.125,1.1a.125.125,0,0,1-.125.125h-.664a.125.125,0,0,1-.125-.125v-.664a.125.125,0,0,1,.125-.125h.664a.125.125,0,0,1,.125.125Z" transform="translate(-57.987 -67.136)" fill="#71a58a"/>
                </g>
              </g>
            </g>
          </g>
          <g id="Group_323" data-name="Group 323" transform="translate(0.252)">
            <g id="Group_322" data-name="Group 322">
              <path id="Path_561" data-name="Path 561" d="M61.8,65.6a.315.315,0,0,0-.431-.113,3.628,3.628,0,0,0-1.225,1.184,2.54,2.54,0,0,0-.586-.531.315.315,0,1,0-.345.527,1.921,1.921,0,0,1,.673.765.316.316,0,0,0,.283.177h.007a.315.315,0,0,0,.282-.191,2.992,2.992,0,0,1,1.229-1.388A.316.316,0,0,0,61.8,65.6Z" transform="translate(-59.074 -65.448)" fill="#ff6f69"/>
            </g>
          </g>
        </g>
        <g id="Group_333" data-name="Group 333" transform="translate(0 9.983)">
          <g id="Group_330" data-name="Group 330" transform="translate(0 0.392)">
            <g id="Group_326" data-name="Group 326" transform="translate(0.158 0.158)">
              <g id="Group_325" data-name="Group 325">
                <path id="Path_562" data-name="Path 562" d="M59.612,78.559h-.664a.282.282,0,0,0-.282.282v.664a.282.282,0,0,0,.282.282h.664a.282.282,0,0,0,.282-.282v-.664A.282.282,0,0,0,59.612,78.559Z" transform="translate(-58.665 -78.559)" fill="#fff"/>
              </g>
            </g>
            <g id="Group_329" data-name="Group 329">
              <g id="Group_328" data-name="Group 328">
                <g id="Group_327" data-name="Group 327">
                  <path id="Path_563" data-name="Path 563" d="M59.091,77.88h-.664a.44.44,0,0,0-.44.44v.664a.44.44,0,0,0,.44.44h.664a.44.44,0,0,0,.44-.44V78.32A.44.44,0,0,0,59.091,77.88Zm.125,1.1a.125.125,0,0,1-.125.125h-.664a.125.125,0,0,1-.125-.125V78.32a.125.125,0,0,1,.125-.125h.664a.125.125,0,0,1,.125.125Z" transform="translate(-57.987 -77.88)" fill="#71a58a"/>
                </g>
              </g>
            </g>
          </g>
          <g id="Group_332" data-name="Group 332" transform="translate(0.252)">
            <g id="Group_331" data-name="Group 331">
              <path id="Path_564" data-name="Path 564" d="M61.8,76.348a.315.315,0,0,0-.431-.113,3.627,3.627,0,0,0-1.225,1.184,2.539,2.539,0,0,0-.586-.531.315.315,0,1,0-.345.527,1.921,1.921,0,0,1,.673.765.315.315,0,0,0,.283.177h.007a.315.315,0,0,0,.282-.191,2.991,2.991,0,0,1,1.229-1.388A.316.316,0,0,0,61.8,76.348Z" transform="translate(-59.074 -76.191)" fill="#ff6f69"/>
            </g>
          </g>
        </g>
        <g id="Group_335" data-name="Group 335" transform="translate(3.327 0.926)">
          <g id="Group_334" data-name="Group 334">
            <path id="Path_565" data-name="Path 565" d="M78.067,37.2H72.605a.3.3,0,0,0-.3.3v.045a.3.3,0,0,0,.3.3h5.462a.3.3,0,0,0,.3-.3V37.5A.3.3,0,0,0,78.067,37.2Z" transform="translate(-72.309 -37.205)" fill="#96ceb4"/>
          </g>
        </g>
        <g id="Group_337" data-name="Group 337" transform="translate(3.327 3.369)">
          <g id="Group_336" data-name="Group 336">
            <path id="Path_566" data-name="Path 566" d="M78.067,47.72H72.605a.3.3,0,0,0-.3.3v.045a.3.3,0,0,0,.3.3h5.462a.3.3,0,0,0,.3-.3v-.045A.3.3,0,0,0,78.067,47.72Z" transform="translate(-72.309 -47.72)" fill="#96ceb4"/>
          </g>
        </g>
        <g id="Group_339" data-name="Group 339" transform="translate(3.327 5.812)">
          <g id="Group_338" data-name="Group 338">
            <path id="Path_567" data-name="Path 567" d="M78.067,58.236H72.605a.3.3,0,0,0-.3.3v.045a.3.3,0,0,0,.3.3h5.462a.3.3,0,0,0,.3-.3v-.045A.3.3,0,0,0,78.067,58.236Z" transform="translate(-72.309 -58.236)" fill="#96ceb4"/>
          </g>
        </g>
        <g id="Group_341" data-name="Group 341" transform="translate(3.327 8.255)">
          <g id="Group_340" data-name="Group 340">
            <path id="Path_568" data-name="Path 568" d="M78.067,68.75H72.605a.3.3,0,0,0-.3.3v.045a.3.3,0,0,0,.3.3h5.462a.3.3,0,0,0,.3-.3v-.045A.3.3,0,0,0,78.067,68.75Z" transform="translate(-72.309 -68.75)" fill="#96ceb4"/>
          </g>
        </g>
        <g id="Group_343" data-name="Group 343" transform="translate(3.327 10.697)">
          <g id="Group_342" data-name="Group 342">
            <path id="Path_569" data-name="Path 569" d="M78.067,79.265H72.605a.3.3,0,0,0-.3.3v.045a.3.3,0,0,0,.3.3h5.462a.3.3,0,0,0,.3-.3v-.045A.3.3,0,0,0,78.067,79.265Z" transform="translate(-72.309 -79.265)" fill="#96ceb4"/>
          </g>
        </g>
      </g>
      <g id="Group_346" data-name="Group 346" transform="translate(4.91 0.396)">
        <g id="Group_345" data-name="Group 345">
          <path id="Path_570" data-name="Path 570" d="M73.288,13.62H69.417a.388.388,0,0,0-.388.388v1.948a.388.388,0,0,0,.388.388h3.872a.388.388,0,0,0,.388-.388V14.008A.387.387,0,0,0,73.288,13.62Z" transform="translate(-69.029 -13.62)" fill="#c9b77d"/>
        </g>
      </g>
      <g id="Group_348" data-name="Group 348" transform="translate(4.91)">
        <g id="Group_347" data-name="Group 347">
          <path id="Path_571" data-name="Path 571" d="M73.288,11.916H69.417a.388.388,0,0,0-.388.388v1.948a.388.388,0,0,0,.388.388h3.872a.388.388,0,0,0,.388-.388V12.3A.388.388,0,0,0,73.288,11.916Z" transform="translate(-69.029 -11.916)" fill="#e05858"/>
        </g>
      </g>
      <g id="Group_350" data-name="Group 350" transform="translate(4.91)">
        <g id="Group_349" data-name="Group 349">
          <path id="Path_572" data-name="Path 572" d="M73.288,11.916H69.417a.388.388,0,0,0-.388.388v.565h4.647V12.3A.388.388,0,0,0,73.288,11.916Z" transform="translate(-69.029 -11.916)" fill="#ff6f69"/>
        </g>
      </g>
    </g>
    <g id="Group_353" data-name="Group 353" transform="translate(13.774 13.828)">
      <g id="Group_352" data-name="Group 352">
        <rect id="Rectangle_39" data-name="Rectangle 39" width="1.204" height="0.442" fill="#c9b77d"/>
      </g>
    </g>
  </g>
</svg>
