<svg xmlns="http://www.w3.org/2000/svg" width="100%" height="100%" viewBox="0 0 32 32">
  <g id="Lead_Manager" data-name="Lead Manager" transform="translate(-101.908 -101.908)">
    <g id="Group_165" data-name="Group 165" transform="translate(101.908 101.908)">
      <circle id="Ellipse_20" data-name="Ellipse 20" cx="16" cy="16" r="16" transform="translate(0 0)" fill="#534686" opacity="0.579"/>
      <circle id="Ellipse_21" data-name="Ellipse 21" cx="13.862" cy="13.862" r="13.862" transform="translate(2.231 2.231)" fill="#534686"/>
    </g>
    <path id="Path_349" data-name="Path 349" d="M240.426,307.484s0,0,0-.006,0-.031,0-.047v-.013c0-.012,0-.023,0-.035s0-.013,0-.019l-.259-1.863a1.646,1.646,0,0,0-.972-1.279l-1.949-.658-.352-.415-.366.3h0l.366-.3v-.54l.02-.027.033-.047q.049-.071.092-.148t.08-.157q.025-.054.047-.109t.043-.112a3.641,3.641,0,0,0,.153-.6c.217-.01.418-.286.461-.647a.823.823,0,0,0-.161-.649l0-.03,0-.04c0-.016,0-.033,0-.049l0-.041q0-.025,0-.049c0-.014,0-.027,0-.041s0-.033,0-.049,0-.027,0-.041,0-.033,0-.049,0-.027,0-.041,0-.032,0-.049,0-.027,0-.04,0-.032,0-.048,0-.026,0-.04,0-.032,0-.048,0-.026,0-.038,0-.032-.005-.048,0-.025,0-.037,0-.032-.008-.048,0-.023-.006-.035-.007-.032-.01-.048,0-.021-.007-.031-.009-.035-.014-.052l-.007-.025c-.007-.025-.015-.05-.024-.074a.782.782,0,0,0-.09-.176c-.012-.017-.023-.033-.036-.048s-.026-.031-.039-.045l-.034-.033a.728.728,0,0,0-.072-.058.786.786,0,0,0-.076-.047.874.874,0,0,0-.117-.052c-.026-.009-.052-.018-.077-.024l-.075-.017c-.036-.007-.071-.012-.1-.015l-.039,0h-.163v0h0l0-.006,0-.013,0-.013-.005-.015-.007-.019-.005-.013,0-.008-.009-.019-.009-.018,0-.006-.008-.014-.013-.022,0-.007-.009-.014-.012-.017-.01-.013-.011-.014-.008-.01-.009-.011-.018-.02,0,0h0l-.008-.008-.027-.027,0,0-.014-.013-.022-.019h0l-.01-.008-.017-.014-.041-.029-.013-.009-.059-.037-.016-.009-.05-.027-.023-.011-.051-.024-.023-.01-.079-.031h0a1.642,1.642,0,0,0-2.054.828h0c-.015.03-.03.061-.043.092l-.013.031c-.009.021-.018.042-.026.064l-.014.037-.022.06-.013.038-.019.061-.011.038c-.006.022-.012.044-.017.066l-.008.033q-.01.043-.019.087l0,.012c-.007.033-.013.066-.019.1l0,.029c0,.023-.007.047-.011.07l0,.037c0,.021-.005.042-.007.063s0,.026,0,.039,0,.041-.005.062,0,.025,0,.038,0,.043,0,.064,0,.023,0,.034,0,.051,0,.077c0,.006,0,.012,0,.018-.219.047-.359.369-.316.739s.254.651.478.646c.018.1.04.208.066.311q.015.059.032.117a2.559,2.559,0,0,0,.255.6l.031.049c.027.042.055.082.085.121h0v.54l.366.3h0l-.366-.3-.352.415-1.594.538-.6-.2,0,0-.031-.011-.588-.694-.611.495h0l.611-.495v-.9a4.59,4.59,0,0,0,.783-2c.363-.016.7-.478.769-1.081a1.378,1.378,0,0,0-.269-1.085v-.008l0-.043,0-.032,0-.044,0-.031,0-.046,0-.028c0-.017,0-.034,0-.05l0-.024q0-.031,0-.062v-.013q0-.038,0-.076s0-.006,0-.009q0-.033,0-.066c0-.008,0-.015,0-.023s0-.035,0-.052,0-.018,0-.028,0-.031,0-.047,0-.02,0-.03,0-.03,0-.045,0-.021,0-.031,0-.029,0-.043,0-.021,0-.031,0-.028,0-.042,0-.021,0-.032,0-.027,0-.041l0-.032,0-.04,0-.032q0-.02,0-.04l0-.032,0-.039,0-.032,0-.039,0-.032-.006-.038,0-.031-.006-.038-.005-.03-.007-.038-.006-.03-.008-.038-.006-.028-.009-.038-.007-.027-.011-.039-.007-.025-.013-.042-.006-.02c-.007-.021-.014-.041-.021-.061a1.33,1.33,0,0,0-.122-.252,1.2,1.2,0,0,0-.155-.2,1.5,1.5,0,0,0-.928-.412l-.045,0h-.014l-.035,0h-.008l-.039,0h-.194l-.006-.02,0-.01-.012-.037,0-.008-.006-.016h0q-.009-.023-.018-.046l0-.005,0-.01,0-.007-.02-.041,0-.007q-.016-.03-.033-.06l-.005-.009,0-.006,0,0-.031-.046,0,0c-.014-.019-.028-.038-.043-.057l-.008-.01,0,0h0a1.289,1.289,0,0,0-.1-.1l-.011-.011c-.019-.018-.038-.035-.059-.052l-.006,0-.06-.047-.013-.01-.069-.048-.013-.008-.067-.042-.014-.008-.081-.045-.018-.009-.08-.039-.011-.005-.094-.041-.023-.009-.1-.04a2.98,2.98,0,0,0-1.323-.141l-.074.01a2.626,2.626,0,0,0-2.033,1.514c-.021.043-.042.086-.061.129l-.009.021q-.028.062-.053.126l-.01.024c-.017.043-.033.086-.048.129l-.006.017q-.022.064-.043.128l0,.013c-.014.044-.027.088-.039.133l-.007.025q-.018.065-.033.131l-.006.024c-.011.045-.021.09-.03.135l0,.009c-.009.044-.017.088-.025.132l0,.021q-.011.066-.021.132l0,.026q-.009.066-.017.132l0,.021c0,.044-.009.088-.013.131v.009c0,.045-.007.089-.01.134l0,.024q0,.064-.006.128v.025q0,.062,0,.124c-.366.077-.6.617-.528,1.236s.425,1.089.8,1.081a4.59,4.59,0,0,0,.783,2v.9l.611.495h0l-.611-.495-.588.694-.626.212-1.6-.54-.352-.415-.366.3h0l.366-.3v-.54l.02-.027.033-.047q.049-.071.092-.148t.08-.157q.025-.054.047-.109t.043-.112a3.644,3.644,0,0,0,.153-.6c.217-.01.418-.286.461-.647a.824.824,0,0,0-.161-.649l0-.029,0-.04c0-.016,0-.032,0-.049s0-.027,0-.041,0-.033,0-.049,0-.027,0-.041,0-.033,0-.049,0-.027,0-.041,0-.033,0-.049,0-.027,0-.041,0-.032,0-.048,0-.027,0-.04,0-.032,0-.048,0-.027,0-.04,0-.032,0-.048,0-.026,0-.039,0-.032-.005-.047,0-.025,0-.037,0-.032-.007-.047,0-.024-.006-.035-.007-.032-.01-.048,0-.021-.007-.032-.009-.034-.013-.051l-.007-.026c-.007-.025-.015-.049-.024-.073h0a.8.8,0,0,0-.073-.151c-.011-.018-.023-.035-.036-.052a.721.721,0,0,0-.057-.067.709.709,0,0,0-.07-.063.957.957,0,0,0-.524-.187h-.163v0h0l0-.006,0-.013,0-.013-.005-.015-.007-.019-.005-.013,0-.008-.009-.019-.009-.018,0-.006-.008-.014-.013-.022,0-.007-.009-.014-.012-.018-.01-.013-.011-.014-.008-.01-.009-.011-.018-.02,0,0h0l-.008-.008-.027-.027,0,0-.014-.013-.022-.019h0l-.01-.008-.017-.014-.041-.029-.013-.009-.059-.037-.016-.009-.05-.027-.023-.011-.051-.024-.023-.01-.079-.031h0a1.642,1.642,0,0,0-2.054.828h0c-.015.03-.03.061-.043.092l-.013.031c-.009.021-.018.042-.026.064l-.014.037-.022.06-.013.038-.019.061-.011.038c-.006.022-.012.044-.017.065l-.008.033c-.007.029-.013.057-.019.086l0,.013q-.01.05-.019.1l0,.029c0,.023-.007.047-.011.07l0,.037c0,.021-.005.042-.007.063l0,.039q0,.031-.005.062c0,.013,0,.025,0,.038s0,.043,0,.064,0,.022,0,.034,0,.051,0,.076c0,.006,0,.012,0,.018-.219.047-.359.369-.316.739s.254.651.478.646a2.749,2.749,0,0,0,.469,1.2v.54l.366.3h0l-.366-.3-.352.415-1.949.658a1.644,1.644,0,0,0-.972,1.279l-.259,1.863c0,.007,0,.013,0,.019s0,.023,0,.035,0,.009,0,.013,0,.032,0,.047,0,0,0,.006a.767.767,0,0,0,.01.113h0c0,.008,0,.016,0,.023a.777.777,0,0,0,.762.627h2.846l-.277,1.991c0,.032-.007.063-.009.095v.011c0,.03,0,.061,0,.091h0a1.295,1.295,0,0,0,1.3,1.278h13.468a1.295,1.295,0,0,0,1.3-1.278h0c0-.03,0-.06,0-.091v-.011c0-.031,0-.063-.009-.095l-.277-1.991h2.846a.777.777,0,0,0,.762-.627c0-.008,0-.015,0-.023h0A.767.767,0,0,0,240.426,307.484Z" transform="translate(-111.059 -184.628)" fill="#221d59"/>
    <g id="Group_184" data-name="Group 184" transform="translate(106.636 108.917)">
      <g id="Group_176" data-name="Group 176" transform="translate(0 3.501)">
        <g id="Group_170" data-name="Group 170" transform="translate(13.114)">
          <path id="Path_350" data-name="Path 350" d="M552.257,505.086h-8.064a.777.777,0,0,1-.769-.884l.259-1.863a1.639,1.639,0,0,1,.972-1.279l.9-.3.346-.117h0l.691-.233.369-.124H549.5l2.3.777a1.639,1.639,0,0,1,.972,1.279l.259,1.863A.777.777,0,0,1,552.257,505.086Z" transform="translate(-543.417 -494.689)" fill="#de3884"/>
          <path id="Path_351" data-name="Path 351" d="M543.685,502.591a1.639,1.639,0,0,1,.972-1.279l2.3-.777H549.5l2.3.777a1.639,1.639,0,0,1,.972,1.279l.256,1.842a.78.78,0,0,0,0-.233l-.259-1.863a1.639,1.639,0,0,0-.972-1.279l-2.3-.777h-2.541l-2.3.777a1.639,1.639,0,0,0-.972,1.279l-.259,1.863a.778.778,0,0,0,0,.233Z" transform="translate(-543.419 -494.686)" fill="#e15093"/>
          <path id="Path_352" data-name="Path 352" d="M553,593.154a.777.777,0,0,1-.744.554h-8.064a.777.777,0,0,1-.745-.554l-.025.179a.777.777,0,0,0,.769.884h8.064a.777.777,0,0,0,.769-.884Z" transform="translate(-543.416 -583.82)" fill="#d41875"/>
          <path id="Path_353" data-name="Path 353" d="M623.712,493.371l-.383-.453-1.27,1.029-1.27-1.029-.383.453a.635.635,0,0,0,0,.541l1.195,2.483.454.944,1.649-3.427A.635.635,0,0,0,623.712,493.371Z" transform="translate(-617.249 -487.619)" fill="#de3884"/>
          <path id="Path_354" data-name="Path 354" d="M631.308,462.951v1.206l1.27,1.029,1.27-1.029v-1.206Z" transform="translate(-627.77 -458.859)" fill="#ffc000"/>
          <g id="Group_166" data-name="Group 166" transform="translate(4.809 9.553)">
            <path id="Path_355" data-name="Path 355" d="M662.871,598.6h0Z" transform="translate(-662.871 -598.597)" fill="#0081ce"/>
          </g>
          <g id="Group_167" data-name="Group 167" transform="translate(4.809 9.551)">
            <path id="Path_356" data-name="Path 356" d="M662.871,598.554h0Z" transform="translate(-662.871 -598.554)" fill="#0081ce"/>
          </g>
          <g id="Group_169" data-name="Group 169" transform="translate(2.584)">
            <path id="Path_357" data-name="Path 357" d="M621.279,376.759c0,1.076-.195,2.862-1.821,2.862s-1.821-1.787-1.821-2.862.169-1.948,1.821-1.948S621.279,375.683,621.279,376.759Z" transform="translate(-617.233 -374.267)" fill="#ffea00"/>
            <path id="Path_358" data-name="Path 358" d="M619.458,419.52c-1.5,0-1.783-1.527-1.817-2.607,0,.083,0,.167,0,.253,0,1.076.195,2.863,1.821,2.863s1.821-1.787,1.821-2.863c0-.086,0-.17,0-.253C621.241,417.994,620.961,419.52,619.458,419.52Z" transform="translate(-617.233 -414.674)" fill="#ffd604"/>
            <path id="Path_359" data-name="Path 359" d="M608.445,415.77c.045.384-.107.717-.34.744s-.458-.262-.5-.646.107-.717.34-.744S608.4,415.386,608.445,415.77Z" transform="translate(-607.594 -412.956)" fill="#ffea00"/>
            <path id="Path_360" data-name="Path 360" d="M696.389,415.77c-.045.384.107.717.34.744s.458-.262.5-.646-.107-.717-.34-.744S696.434,415.386,696.389,415.77Z" transform="translate(-692.807 -412.956)" fill="#ffea00"/>
            <g id="Group_168" data-name="Group 168" transform="translate(0.19 2.385)">
              <path id="Path_361" data-name="Path 361" d="M612.619,421.071a1.908,1.908,0,0,1,.008-.536h-.03c-.185.022-.308.261-.276.535s.208.478.392.457l.011,0A1.994,1.994,0,0,1,612.619,421.071Z" transform="translate(-612.315 -420.535)" fill="#ffd604"/>
              <path id="Path_362" data-name="Path 362" d="M704.434,421.071a1.9,1.9,0,0,0-.008-.536h.03c.185.022.308.261.276.535a.654.654,0,0,1-.115.309.418.418,0,0,1-.1.1c-.028.02-.084.055-.119.048a.123.123,0,0,0-.01-.069l-.008-.017c-.023-.052.009-.12.02-.172S704.426,421.137,704.434,421.071Z" transform="translate(-700.667 -420.535)" fill="#ffd604"/>
            </g>
            <path id="Path_363" data-name="Path 363" d="M618.451,362.659a1.558,1.558,0,0,1-1.072.662c-.68.056-1.16.1-1.349.433s0,.968-.146.968a2.954,2.954,0,0,1,.019-2.492,1.641,1.641,0,0,1,2.054-.828c.485.177.643.457.643.746A1.019,1.019,0,0,1,618.451,362.659Z" transform="translate(-615.304 -361.305)" fill="#069fde"/>
            <path id="Path_364" data-name="Path 364" d="M619.656,367.3a.661.661,0,0,1,.093.347,1.019,1.019,0,0,1-.149.513,1.557,1.557,0,0,1-1.072.662c-.68.056-1.16.1-1.349.433a1.559,1.559,0,0,0-.084.742c.056.291.137.48.192.48.151,0-.043-.632.146-.968s.669-.377,1.349-.433a1.558,1.558,0,0,0,1.072-.662A1.019,1.019,0,0,0,620,367.9.691.691,0,0,0,619.656,367.3Z" transform="translate(-616.707 -367.058)" fill="#0081ce"/>
            <path id="Path_365" data-name="Path 365" d="M685.229,377.5a.894.894,0,0,1,.922.52,3.158,3.158,0,0,1-.266,2.2c-.128,0,.042-.694-.15-1.316a.858.858,0,0,0-.658-.669Z" transform="translate(-681.958 -376.84)" fill="#069fde"/>
            <path id="Path_366" data-name="Path 366" d="M685.989,378.649a.858.858,0,0,0-.658-.669l.1-.482a1.049,1.049,0,0,0-.2,0l-.152.739a.858.858,0,0,1,.658.669c.192.621.022,1.316.15,1.316.045,0,.127-.176.2-.438A3.8,3.8,0,0,0,685.989,378.649Z" transform="translate(-681.958 -376.84)" fill="#0081ce"/>
            <path id="Path_367" data-name="Path 367" d="M615.954,362.357a1.642,1.642,0,0,1,2.054-.828.98.98,0,0,1,.567.429.88.88,0,0,0-.618-.556,1.641,1.641,0,0,0-2.054.828,3.31,3.31,0,0,0-.091,2.413A3.39,3.39,0,0,1,615.954,362.357Z" transform="translate(-615.304 -361.305)" fill="#24b2e1"/>
            <path id="Path_368" data-name="Path 368" d="M689.168,378.015a.894.894,0,0,0-.922-.52l-.026.124a.864.864,0,0,1,.872.522,3.486,3.486,0,0,1-.169,2.067A3.319,3.319,0,0,0,689.168,378.015Z" transform="translate(-684.974 -376.84)" fill="#24b2e1"/>
            <path id="Path_369" data-name="Path 369" d="M655.142,450.118a.319.319,0,0,1-.314-.194.205.205,0,0,0-.01.062.333.333,0,0,0,.648,0,.205.205,0,0,0-.01-.062A.319.319,0,0,1,655.142,450.118Z" transform="translate(-652.917 -446.356)" fill="#ffd604"/>
          </g>
          <path id="Path_370" data-name="Path 370" d="M662.864,494.35l1.1,1.1.546-1.137a1.072,1.072,0,0,0,.006-.944l-.383-.453-1.27,1.029Z" transform="translate(-658.055 -487.619)" fill="#d41875"/>
          <path id="Path_371" data-name="Path 371" d="M620.911,494.35l-1.1,1.1-.546-1.137a1.072,1.072,0,0,1-.006-.944l.383-.453,1.27,1.029Z" transform="translate(-616.103 -487.619)" fill="#d41875"/>
          <path id="Path_372" data-name="Path 372" d="M622.067,493.947l-1.1,1.1-.547-1.137a.635.635,0,0,1-.005-.542l.383-.452Z" transform="translate(-617.258 -487.619)" fill="#fff"/>
          <path id="Path_373" data-name="Path 373" d="M662.864,493.947l1.1,1.1.546-1.137a.635.635,0,0,0,.005-.542l-.383-.452Z" transform="translate(-658.055 -487.619)" fill="#fff"/>
        </g>
        <g id="Group_175" data-name="Group 175">
          <path id="Path_374" data-name="Path 374" d="M226.529,505.086h-8.064a.777.777,0,0,1-.769-.884l.259-1.863a1.639,1.639,0,0,1,.972-1.279l.9-.3.346-.117h0l.691-.233.369-.124h2.541l2.3.777a1.639,1.639,0,0,1,.972,1.279l.259,1.863A.777.777,0,0,1,226.529,505.086Z" transform="translate(-217.688 -494.689)" fill="#de3884"/>
          <path id="Path_375" data-name="Path 375" d="M217.958,502.591a1.639,1.639,0,0,1,.972-1.279l2.3-.777h2.541l2.3.777a1.639,1.639,0,0,1,.972,1.279l.256,1.842a.775.775,0,0,0,0-.233l-.259-1.863a1.639,1.639,0,0,0-.972-1.279l-2.3-.777H221.23l-2.3.777a1.639,1.639,0,0,0-.972,1.279L217.7,504.2a.778.778,0,0,0,0,.233Z" transform="translate(-217.691 -494.686)" fill="#e15093"/>
          <path id="Path_376" data-name="Path 376" d="M227.273,593.154a.777.777,0,0,1-.744.554h-8.064a.777.777,0,0,1-.745-.554l-.025.179a.777.777,0,0,0,.769.884h8.064a.777.777,0,0,0,.769-.884Z" transform="translate(-217.688 -583.82)" fill="#d41875"/>
          <path id="Path_377" data-name="Path 377" d="M297.984,493.371l-.383-.453-1.27,1.029-1.27-1.029-.383.453a.635.635,0,0,0,0,.541l1.195,2.483.454.944,1.649-3.427A.635.635,0,0,0,297.984,493.371Z" transform="translate(-291.521 -487.619)" fill="#de3884"/>
          <path id="Path_378" data-name="Path 378" d="M305.58,462.951v1.206l1.27,1.029,1.27-1.029v-1.206Z" transform="translate(-302.042 -458.859)" fill="#ffc000"/>
          <g id="Group_171" data-name="Group 171" transform="translate(4.809 9.553)">
            <path id="Path_379" data-name="Path 379" d="M337.143,598.6h0Z" transform="translate(-337.143 -598.597)" fill="#0081ce"/>
          </g>
          <g id="Group_172" data-name="Group 172" transform="translate(4.809 9.551)">
            <path id="Path_380" data-name="Path 380" d="M337.143,598.554h0Z" transform="translate(-337.143 -598.554)" fill="#0081ce"/>
          </g>
          <g id="Group_174" data-name="Group 174" transform="translate(2.51)">
            <path id="Path_381" data-name="Path 381" d="M295.551,376.759c0,1.076-.195,2.862-1.821,2.862s-1.821-1.787-1.821-2.862.169-1.948,1.821-1.948S295.551,375.683,295.551,376.759Z" transform="translate(-291.431 -374.267)" fill="#ffea00"/>
            <path id="Path_382" data-name="Path 382" d="M293.73,419.52c-1.5,0-1.783-1.527-1.817-2.607,0,.083,0,.167,0,.253,0,1.076.195,2.863,1.821,2.863s1.821-1.787,1.821-2.863c0-.086,0-.17,0-.253C295.513,417.994,295.233,419.52,293.73,419.52Z" transform="translate(-291.431 -414.674)" fill="#ffd604"/>
            <ellipse id="Ellipse_22" data-name="Ellipse 22" cx="0.424" cy="0.7" rx="0.424" ry="0.7" transform="translate(0 2.218) rotate(-6.683)" fill="#ffea00"/>
            <ellipse id="Ellipse_23" data-name="Ellipse 23" cx="0.7" cy="0.424" rx="0.7" ry="0.424" transform="translate(3.575 3.509) rotate(-83.317)" fill="#ffea00"/>
            <g id="Group_173" data-name="Group 173" transform="translate(0.264 2.385)">
              <path id="Path_383" data-name="Path 383" d="M286.891,421.071a1.906,1.906,0,0,1,.008-.536h-.03c-.185.022-.308.261-.276.535s.208.478.392.457l.011,0A1.991,1.991,0,0,1,286.891,421.071Z" transform="translate(-286.587 -420.535)" fill="#ffd604"/>
              <path id="Path_384" data-name="Path 384" d="M378.706,421.071a1.906,1.906,0,0,0-.008-.536h.03c.185.022.308.261.276.535a.654.654,0,0,1-.115.309.418.418,0,0,1-.1.1c-.028.02-.084.055-.119.048a.123.123,0,0,0-.01-.069l-.008-.017c-.023-.052.009-.12.02-.172S378.7,421.137,378.706,421.071Z" transform="translate(-374.94 -420.535)" fill="#ffd604"/>
            </g>
            <path id="Path_385" data-name="Path 385" d="M292.723,362.659a1.558,1.558,0,0,1-1.072.662c-.68.056-1.16.1-1.349.433s0,.968-.146.968a2.954,2.954,0,0,1,.019-2.492,1.642,1.642,0,0,1,2.054-.828c.485.177.643.457.643.746A1.019,1.019,0,0,1,292.723,362.659Z" transform="translate(-289.502 -361.305)" fill="#069fde"/>
            <path id="Path_386" data-name="Path 386" d="M293.928,367.3a.662.662,0,0,1,.093.347,1.019,1.019,0,0,1-.149.513,1.558,1.558,0,0,1-1.072.662c-.68.056-1.16.1-1.349.433a1.558,1.558,0,0,0-.084.742c.056.291.137.48.192.48.151,0-.043-.632.146-.968s.669-.377,1.349-.433a1.558,1.558,0,0,0,1.072-.662,1.018,1.018,0,0,0,.149-.513A.691.691,0,0,0,293.928,367.3Z" transform="translate(-290.906 -367.058)" fill="#0081ce"/>
            <path id="Path_387" data-name="Path 387" d="M359.5,377.5a.894.894,0,0,1,.922.52,3.159,3.159,0,0,1-.266,2.2c-.128,0,.042-.694-.15-1.316a.858.858,0,0,0-.658-.669Z" transform="translate(-356.156 -376.84)" fill="#069fde"/>
            <path id="Path_388" data-name="Path 388" d="M360.261,378.649a.858.858,0,0,0-.658-.669l.1-.482a1.05,1.05,0,0,0-.2,0l-.152.739a.858.858,0,0,1,.658.669c.192.621.022,1.316.15,1.316.045,0,.127-.176.2-.438A3.8,3.8,0,0,0,360.261,378.649Z" transform="translate(-356.156 -376.84)" fill="#0081ce"/>
            <path id="Path_389" data-name="Path 389" d="M290.226,362.357a1.642,1.642,0,0,1,2.054-.828.98.98,0,0,1,.567.429.88.88,0,0,0-.618-.556,1.642,1.642,0,0,0-2.054.828,3.311,3.311,0,0,0-.091,2.413A3.391,3.391,0,0,1,290.226,362.357Z" transform="translate(-289.503 -361.305)" fill="#24b2e1"/>
            <path id="Path_390" data-name="Path 390" d="M363.441,378.015a.894.894,0,0,0-.922-.52l-.026.124a.864.864,0,0,1,.872.522,3.485,3.485,0,0,1-.169,2.067A3.318,3.318,0,0,0,363.441,378.015Z" transform="translate(-359.174 -376.84)" fill="#24b2e1"/>
            <path id="Path_391" data-name="Path 391" d="M329.414,450.118a.319.319,0,0,1-.314-.194.207.207,0,0,0-.01.062.333.333,0,0,0,.648,0,.2.2,0,0,0-.01-.062A.319.319,0,0,1,329.414,450.118Z" transform="translate(-327.115 -446.356)" fill="#ffd604"/>
          </g>
          <path id="Path_392" data-name="Path 392" d="M337.136,494.35l1.1,1.1.546-1.137a1.072,1.072,0,0,0,.006-.944l-.383-.453-1.27,1.029Z" transform="translate(-332.327 -487.619)" fill="#d41875"/>
          <path id="Path_393" data-name="Path 393" d="M295.184,494.35l-1.1,1.1-.546-1.137a1.072,1.072,0,0,1-.006-.944l.383-.453,1.27,1.029Z" transform="translate(-290.375 -487.619)" fill="#d41875"/>
          <path id="Path_394" data-name="Path 394" d="M296.339,493.947l-1.1,1.1-.546-1.137a.635.635,0,0,1-.005-.542l.383-.452Z" transform="translate(-291.53 -487.619)" fill="#fff"/>
          <path id="Path_395" data-name="Path 395" d="M337.136,493.947l1.1,1.1.546-1.137a.635.635,0,0,0,.005-.542l-.383-.452Z" transform="translate(-332.327 -487.619)" fill="#fff"/>
        </g>
      </g>
      <g id="Group_183" data-name="Group 183" transform="translate(3.334)">
        <g id="Group_181" data-name="Group 181">
          <path id="Path_396" data-name="Path 396" d="M315.268,514.482H301.8a1.3,1.3,0,0,1-1.285-1.476l.432-3.11a2.737,2.737,0,0,1,1.623-2.135l1.5-.5.577-.2h0l1.153-.39.616-.208h4.243l2.522.852.069.023.4.134.721.243.135.045.022.01c.082.036.162.077.239.12a2.737,2.737,0,0,1,1.361,2.005l.432,3.11A1.3,1.3,0,0,1,315.268,514.482Z" transform="translate(-300.503 -497.118)" fill="#069fde"/>
          <path id="Path_397" data-name="Path 397" d="M300.955,510.315a2.738,2.738,0,0,1,1.623-2.135l3.842-1.3h4.243l3.842,1.3a2.738,2.738,0,0,1,1.623,2.135l.427,3.076a1.3,1.3,0,0,0,0-.389l-.432-3.111a2.738,2.738,0,0,0-1.623-2.135l-3.842-1.3h-4.243l-3.842,1.3a2.738,2.738,0,0,0-1.623,2.135L300.523,513a1.3,1.3,0,0,0,0,.389Z" transform="translate(-300.511 -497.113)" fill="#24b2e1"/>
          <path id="Path_398" data-name="Path 398" d="M316.515,661.568a1.3,1.3,0,0,1-1.243.926H301.8a1.3,1.3,0,0,1-1.243-.926l-.042.3a1.3,1.3,0,0,0,1.285,1.476h13.468a1.3,1.3,0,0,0,1.285-1.476Z" transform="translate(-300.506 -645.979)" fill="#0081ce"/>
          <path id="Path_399" data-name="Path 399" d="M434.61,494.918l-.64-.756-2.122,1.719-2.122-1.719-.64.756a1.061,1.061,0,0,0,.008.9l2,4.147.759,1.577,2.754-5.724A1.061,1.061,0,0,0,434.61,494.918Z" transform="translate(-423.817 -485.313)" fill="#e8e8e8"/>
          <path id="Path_400" data-name="Path 400" d="M482.672,565.9l-.363-3.04h-.791l-.363,3.04.759,1.577Z" transform="translate(-473.882 -551.246)" fill="#0081ce"/>
          <path id="Path_401" data-name="Path 401" d="M447.3,444.113v2.015l2.122,1.719,2.122-1.719v-2.015Z" transform="translate(-441.388 -437.278)" fill="#ffc000"/>
          <path id="Path_402" data-name="Path 402" d="M431.864,495.881l-1.693,2.145-1.059-2.2a1.061,1.061,0,0,1-.009-.905l.64-.755Z" transform="translate(-423.832 -485.313)" fill="#d2d1d1"/>
          <path id="Path_403" data-name="Path 403" d="M500,495.881l1.693,2.145,1.059-2.2a1.061,1.061,0,0,0,.009-.905l-.64-.755Z" transform="translate(-491.968 -485.313)" fill="#d2d1d1"/>
          <path id="Rectangle_28" data-name="Rectangle 28" d="M.473,0h0a.954.954,0,0,1,.954.954v0a.473.473,0,0,1-.473.473H.473A.473.473,0,0,1,0,.954V.473A.473.473,0,0,1,.473,0Z" transform="translate(7.022 11.323) rotate(-45)" fill="#24b2e1"/>
          <path id="Path_404" data-name="Path 404" d="M479.568,546.949l-.449.449a.3.3,0,0,1-.425,0l-.449-.449-.135.135a.3.3,0,0,0,0,.425l.584.584a.3.3,0,0,0,.425,0l.584-.584a.3.3,0,0,0,0-.425Z" transform="translate(-470.875 -535.974)" fill="#069fde"/>
          <g id="Group_177" data-name="Group 177" transform="translate(3.505 9.553)">
            <path id="Path_405" data-name="Path 405" d="M500.011,670.659h0Z" transform="translate(-495.485 -664.257)" fill="#ffc000"/>
            <path id="Path_406" data-name="Path 406" d="M389.344,524.092a12.419,12.419,0,0,1-.1-.915l-1.033.349h0l-.578.2a1.575,1.575,0,0,0,.069,1.039c.327,1.046.454,1.329.454,1.329l.919-.1-.594.8a15.372,15.372,0,0,0,1.231,1.612,6.246,6.246,0,0,0,2.39,1.422l-.759-1.578Z" transform="translate(-387.571 -522.712)" fill="#0081ce"/>
            <path id="Path_407" data-name="Path 407" d="M493.335,671.61l-.12-.249h-.16v.559h.559v-.559h-.16Z" transform="translate(-488.809 -664.93)" fill="#0081ce"/>
            <path id="Path_408" data-name="Path 408" d="M392.109,518.309a6.246,6.246,0,0,1-2.39-1.422,15.386,15.386,0,0,1-1.231-1.612l.594-.8-.92.1s-.127-.283-.454-1.329a1.575,1.575,0,0,1-.069-1.039l.578-.2h0l1.153-.39-.024.053a1.061,1.061,0,0,0,.008.9l2,4.147Z" transform="translate(-387.582 -511.628)" fill="#24b2e1"/>
          </g>
          <g id="Group_178" data-name="Group 178" transform="translate(8.032 9.55)">
            <path id="Path_409" data-name="Path 409" d="M500.012,670.587h0Z" transform="translate(-500.012 -664.184)" fill="#ffc000"/>
            <path id="Path_410" data-name="Path 410" d="M504.5,523.639l-.578-.2h0l-1.034-.349a11.586,11.586,0,0,1-.1.916l-2,4.147-.759,1.578a6.245,6.245,0,0,0,2.39-1.422,15.381,15.381,0,0,0,1.231-1.612l-.594-.8.919.1s.127-.283.454-1.33A1.575,1.575,0,0,0,504.5,523.639Z" transform="translate(-500.027 -522.629)" fill="#0081ce"/>
            <path id="Path_411" data-name="Path 411" d="M500.028,518.236a6.245,6.245,0,0,0,2.39-1.422,15.381,15.381,0,0,0,1.231-1.612l-.594-.8.919.1s.127-.283.454-1.329a1.575,1.575,0,0,0,.069-1.039l-.578-.2h0l-1.153-.39.024.053a1.06,1.06,0,0,1-.008.9l-2,4.147Z" transform="translate(-500.027 -511.555)" fill="#24b2e1"/>
          </g>
          <g id="Group_180" data-name="Group 180" transform="translate(4.193)">
            <path id="Path_412" data-name="Path 412" d="M430.547,300.159c0,1.8-.325,4.781-3.041,4.781s-3.041-2.984-3.041-4.781.283-3.253,3.041-3.253S430.547,298.363,430.547,300.159Z" transform="translate(-423.667 -295.998)" fill="#ffea00"/>
            <path id="Path_413" data-name="Path 413" d="M427.506,371.576c-2.51,0-2.978-2.55-3.034-4.354,0,.138-.007.279-.007.422,0,1.8.325,4.781,3.041,4.781s3.041-2.984,3.041-4.781c0-.143,0-.284-.007-.422C430.484,369.027,430.016,371.576,427.506,371.576Z" transform="translate(-423.667 -363.483)" fill="#ffd604"/>
            <ellipse id="Ellipse_24" data-name="Ellipse 24" cx="0.708" cy="1.168" rx="0.708" ry="1.168" transform="translate(0 3.704) rotate(-6.682)" fill="#ffea00"/>
            <ellipse id="Ellipse_25" data-name="Ellipse 25" cx="1.168" cy="0.708" rx="1.168" ry="0.708" transform="translate(5.97 5.86) rotate(-83.318)" fill="#ffea00"/>
            <g id="Group_179" data-name="Group 179" transform="translate(0.44 3.983)">
              <path id="Path_414" data-name="Path 414" d="M416.084,374.167a3.181,3.181,0,0,1,.013-.9.384.384,0,0,0-.05,0c-.308.036-.515.436-.461.894s.347.8.655.763l.019,0A3.329,3.329,0,0,1,416.084,374.167Z" transform="translate(-415.577 -373.271)" fill="#ffd604"/>
              <path id="Path_415" data-name="Path 415" d="M569.427,374.167a3.182,3.182,0,0,0-.013-.9.383.383,0,0,1,.05,0c.308.036.515.436.461.894a1.094,1.094,0,0,1-.192.515.7.7,0,0,1-.165.165c-.047.033-.14.092-.2.08a.2.2,0,0,0-.017-.115c0-.01-.01-.019-.014-.028-.038-.087.016-.2.034-.287Q569.408,374.333,569.427,374.167Z" transform="translate(-563.137 -373.271)" fill="#ffd604"/>
            </g>
            <path id="Path_416" data-name="Path 416" d="M425.824,276.612a2.6,2.6,0,0,1-1.79,1.105c-1.136.093-1.937.163-2.253.723s.008,1.616-.244,1.616-.84-2.419.032-4.162A2.741,2.741,0,0,1,425,274.51c.809.3,1.074.763,1.074,1.245A1.7,1.7,0,0,1,425.824,276.612Z" transform="translate(-420.446 -274.349)" fill="#069fde"/>
            <path id="Path_417" data-name="Path 417" d="M427.837,284.36a1.1,1.1,0,0,1,.156.579,1.7,1.7,0,0,1-.249.856,2.6,2.6,0,0,1-1.79,1.105c-1.136.093-1.937.163-2.253.723a2.6,2.6,0,0,0-.14,1.239c.094.486.229.8.32.8.252,0-.072-1.056.244-1.616s1.117-.63,2.253-.723a2.6,2.6,0,0,0,1.79-1.105,1.7,1.7,0,0,0,.249-.856A1.154,1.154,0,0,0,427.837,284.36Z" transform="translate(-422.789 -283.957)" fill="#0081ce"/>
            <path id="Path_418" data-name="Path 418" d="M537.352,301.389a1.493,1.493,0,0,1,1.54.868,5.276,5.276,0,0,1-.445,3.681c-.213,0,.071-1.16-.251-2.2a1.433,1.433,0,0,0-1.1-1.118Z" transform="translate(-531.765 -300.295)" fill="#069fde"/>
            <path id="Path_419" data-name="Path 419" d="M538.621,303.316a1.433,1.433,0,0,0-1.1-1.118l.166-.8a1.754,1.754,0,0,0-.336-.005l-.254,1.234a1.433,1.433,0,0,1,1.1,1.118c.321,1.038.037,2.2.251,2.2.075,0,.212-.294.336-.731A6.347,6.347,0,0,0,538.621,303.316Z" transform="translate(-531.765 -300.295)" fill="#0081ce"/>
            <path id="Path_420" data-name="Path 420" d="M421.654,276.106a2.741,2.741,0,0,1,3.43-1.383,1.637,1.637,0,0,1,.947.716A1.469,1.469,0,0,0,425,274.51a2.742,2.742,0,0,0-3.43,1.383,5.53,5.53,0,0,0-.152,4.03A5.663,5.663,0,0,1,421.654,276.106Z" transform="translate(-420.446 -274.349)" fill="#24b2e1"/>
            <path id="Path_421" data-name="Path 421" d="M543.932,302.257a1.493,1.493,0,0,0-1.54-.868l-.043.207a1.443,1.443,0,0,1,1.456.873,5.82,5.82,0,0,1-.283,3.452A5.542,5.542,0,0,0,543.932,302.257Z" transform="translate(-536.805 -300.295)" fill="#24b2e1"/>
            <path id="Path_422" data-name="Path 422" d="M487.1,422.679a.532.532,0,0,1-.524-.323.342.342,0,0,0-.017.1.556.556,0,0,0,1.082,0,.342.342,0,0,0-.017-.1A.532.532,0,0,1,487.1,422.679Z" transform="translate(-483.264 -416.397)" fill="#ffd604"/>
          </g>
          <path id="Path_423" data-name="Path 423" d="M431.864,495.881l-1.84,1.84-.913-1.9a1.061,1.061,0,0,1-.009-.905l.64-.755Z" transform="translate(-423.832 -485.313)" fill="#fff"/>
          <path id="Path_424" data-name="Path 424" d="M500,495.881l1.84,1.84.912-1.9a1.061,1.061,0,0,0,.009-.905l-.64-.755Z" transform="translate(-491.968 -485.313)" fill="#fff"/>
        </g>
        <path id="Path_425" data-name="Path 425" d="M618.585,528.759v3.48h-1.512v-4.033l1.251.422.023.01C618.428,528.675,618.508,528.715,618.585,528.759Z" transform="translate(-604.328 -517.986)" fill="#ffc000"/>
        <path id="Path_426" data-name="Path 426" d="M627.622,531.767v3.656H626.9v-3.9Z" transform="translate(-613.76 -521.17)" fill="#ffea00"/>
        <path id="Path_427" data-name="Path 427" d="M605.736,604.969a.1.1,0,0,0-.039-.085h0l-.013-.007,0,0-.013,0h-.005l-.019,0h-.8a.1.1,0,0,1-.091-.066l-.1-.321-.142-.436a.094.094,0,0,0-.036-.049.1.1,0,0,0-.121.01.092.092,0,0,0-.025.039l-.246.756a.1.1,0,0,1-.091.066h-.8l-.019,0h-.005l-.013,0,0,0-.013.007h0a.1.1,0,0,0-.039.085,0,0,0,0,1,0,0v.292s0,0,0,.006a.093.093,0,0,0,.039.081l.618.449-.186.572a.1.1,0,0,0,0,.037s0,0,0,0v.292s0,0,0,.006a.1.1,0,0,0,.152.078l.644-.468a.1.1,0,0,1,.112,0l.643.468a.1.1,0,0,0,.152-.078s0,0,0-.006v-.292s0,0,0,0a.1.1,0,0,0,0-.037l-.186-.572.618-.449a.093.093,0,0,0,.039-.081s0,0,0-.006v-.292Z" transform="translate(-590.917 -590.708)" fill="#00568f"/>
        <g id="Group_182" data-name="Group 182" transform="translate(12.182 12.811)">
          <path id="Path_428" data-name="Path 428" d="M603.568,595.288s0,0,0,.006a.1.1,0,0,0,.152.078l.643-.468a.1.1,0,0,1,.112,0l.643.468a.1.1,0,0,0,.152-.078s0,0,0-.006V595s0,0,0-.006a.1.1,0,0,0,0-.035l-.186-.572.618-.449a.092.092,0,0,0,.039-.081s0,0,0-.006v-.292s0,0,0-.006a.1.1,0,0,0-.1-.1h-.8a.1.1,0,0,1-.091-.066l-.246-.756a.1.1,0,0,0-.182,0l-.246.756a.1.1,0,0,1-.091.066h-.8a.1.1,0,0,0-.1.1s0,0,0,.006v.292s0,0,0,.006a.093.093,0,0,0,.039.081l.618.449-.186.572a.1.1,0,0,0,0,.035s0,0,0,.006Z" transform="translate(-603.101 -592.563)" fill="#bababa"/>
          <path id="Path_429" data-name="Path 429" d="M604.5,592.629l.246.756a.1.1,0,0,0,.091.066h.8a.1.1,0,0,1,.056.173l-.643.468a.1.1,0,0,0-.035.107l.246.756a.1.1,0,0,1-.147.107l-.644-.467a.1.1,0,0,0-.112,0l-.644.467a.1.1,0,0,1-.147-.107l.246-.756a.1.1,0,0,0-.035-.107l-.644-.468a.1.1,0,0,1,.056-.173h.8a.1.1,0,0,0,.091-.066l.246-.756A.1.1,0,0,1,604.5,592.629Z" transform="translate(-603.092 -592.563)" fill="#fff"/>
        </g>
        <path id="Path_430" data-name="Path 430" d="M618.585,528.759v.424l-1.512-.553v-.424l1.251.422.023.01C618.428,528.675,618.508,528.715,618.585,528.759Z" transform="translate(-604.328 -517.986)" fill="#ffea00"/>
      </g>
    </g>
  </g>
</svg>
