<svg xmlns="http://www.w3.org/2000/svg" width="100%" height="100%" viewBox="0 0 30.555 30.98">
  <g id="Loan" transform="translate(-3.992)">
    <path id="Path_764" data-name="Path 764" d="M37.676,22.8l.462.823,7.474-4.2-.462-.823Z" transform="translate(-31.642 -17.466)" fill="#954c35"/>
    <path id="Path_765" data-name="Path 765" d="M168.278,18.593l-.462.823,7.82,4.373.462-.823Z" transform="translate(-153.893 -17.466)" fill="#954c35"/>
    <path id="Path_766" data-name="Path 766" d="M302.347,152.789v1.061a5.954,5.954,0,0,1-2.016,4.466l-.056.049a3.958,3.958,0,0,1-2.617.989h-3.982a3.957,3.957,0,0,1-2.682-1.048,5.955,5.955,0,0,1-1.919-4.378v-1.172c0-3.6,1.841-6.083,4.879-8.015l.059-.037v-1.431l-1.033-5.823a.347.347,0,0,1,.34-.418h4.719a.348.348,0,0,1,.34.418l-1.022,5.822v1.433l.069.043C300.489,146.675,302.347,149.171,302.347,152.789Z" transform="translate(-267.8 -128.725)" fill="#20b7a1"/>
    <path id="Path_767" data-name="Path 767" d="M327.221,152.789v1.061a5.954,5.954,0,0,1-2.016,4.466l-.056.049a3.958,3.958,0,0,1-2.617.989h-2.376a3.957,3.957,0,0,1-2.682-1.048,5.954,5.954,0,0,1-1.919-4.378v-1.172c0-3.6,1.841-6.083,4.879-8.015l.059-.037v-1.431l-1.034-5.823a.348.348,0,0,1,.34-.418h3.113a.348.348,0,0,1,.34.418l-1.022,5.822v1.433l.069.043C325.362,146.675,327.221,149.171,327.221,152.789Z" transform="translate(-292.674 -128.725)" fill="#24d3b5"/>
    <path id="Path_768" data-name="Path 768" d="M370.525,240.007h3.344v1.429h-3.344Z" transform="translate(-344.312 -225.457)" fill="#ffde91"/>
    <path id="Path_769" data-name="Path 769" d="M370.525,240.007h1.605v1.429h-1.605Z" transform="translate(-344.312 -225.457)" fill="#edc472"/>
    <path id="Path_770" data-name="Path 770" d="M146.517,303.246a6.636,6.636,0,1,1-.4-9.374A6.606,6.606,0,0,1,146.517,303.246Z" transform="translate(-123.061 -274.415)" fill="#ffde91"/>
    <path id="Path_771" data-name="Path 771" d="M175.648,304.278a6.605,6.605,0,0,1-3.95,2.081,6.635,6.635,0,0,1,0-13.136,6.636,6.636,0,0,1,3.945,11.055Z" transform="translate(-152.192 -275.446)" fill="#ffe89c"/>
    <path id="Path_772" data-name="Path 772" d="M175.442,328.759a4.756,4.756,0,1,1-3.988-5.593c.084.012.167.027.25.043a4.721,4.721,0,0,1,2.878,1.82A4.769,4.769,0,0,1,175.442,328.759Z" transform="translate(-152.2 -303.528)" fill="#dbad5c"/>
    <path id="Path_773" data-name="Path 773" d="M204.545,330.2a4.757,4.757,0,1,1-.861-3.73A4.743,4.743,0,0,1,204.545,330.2Z" transform="translate(-181.303 -304.968)" fill="#edc472"/>
    <path id="Path_774" data-name="Path 774" d="M218.527,339.066c0-2.1-2.479-1.5-2.479-2.66,0-.57.506-.689.931-.689a1.554,1.554,0,0,1,.8.2.566.566,0,0,0,.251.087c.243,0,.365-.283.365-.441,0-.343-.55-.515-1.05-.571v-.84a.472.472,0,1,0-.944,0v.88a1.384,1.384,0,0,0-1.172,1.435c0,1.9,2.479,1.244,2.479,2.66,0,.731-.6.84-.953.84a1.249,1.249,0,0,1-.984-.424c-.1-.1-.19-.187-.3-.187a.448.448,0,0,0-.373.441c0,.335.5.8,1.307.919v.672a.472.472,0,1,0,.944,0v-.708A1.518,1.518,0,0,0,218.527,339.066Z" transform="translate(-198.302 -313.45)" fill="#ffe89c"/>
    <path id="Path_775" data-name="Path 775" d="M15.514,303.246a6.636,6.636,0,1,1-.4-9.374A6.607,6.607,0,0,1,15.514,303.246Z" transform="translate(0 -274.415)" fill="#ffe89c"/>
    <path id="Path_776" data-name="Path 776" d="M44.645,304.278a6.606,6.606,0,0,1-3.95,2.081,6.635,6.635,0,0,1,0-13.136,6.636,6.636,0,0,1,3.945,11.055Z" transform="translate(-29.131 -275.446)" fill="#fcf2b6"/>
    <path id="Path_777" data-name="Path 777" d="M44.441,328.759a4.756,4.756,0,1,1-3.989-5.593c.084.012.167.027.25.043a4.721,4.721,0,0,1,2.878,1.82A4.769,4.769,0,0,1,44.441,328.759Z" transform="translate(-29.141 -303.528)" fill="#dbad5c"/>
    <path id="Path_778" data-name="Path 778" d="M73.543,330.2a4.752,4.752,0,0,1-3.729,3.775,4.758,4.758,0,0,1-.009-9.325,4.721,4.721,0,0,1,2.878,1.82A4.769,4.769,0,0,1,73.543,330.2Z" transform="translate(-58.243 -304.968)" fill="#edc472"/>
    <path id="Path_779" data-name="Path 779" d="M87.525,339.066c0-2.1-2.479-1.5-2.479-2.66,0-.57.506-.689.93-.689a1.554,1.554,0,0,1,.8.2.565.565,0,0,0,.251.087c.243,0,.366-.283.366-.441,0-.343-.55-.515-1.05-.571v-.84a.472.472,0,0,0-.944,0v.88a1.384,1.384,0,0,0-1.172,1.435c0,1.9,2.479,1.244,2.479,2.66,0,.731-.6.84-.953.84a1.249,1.249,0,0,1-.984-.424c-.1-.1-.19-.187-.3-.187a.447.447,0,0,0-.373.441c0,.335.5.8,1.307.919v.672a.472.472,0,1,0,.943,0v-.708A1.518,1.518,0,0,0,87.525,339.066Z" transform="translate(-75.242 -313.45)" fill="#ffe89c"/>
    <path id="Path_780" data-name="Path 780" d="M27.579,80.237v9.39a.849.849,0,0,1-.849.849H8.973a.849.849,0,0,1-.849-.849v-9.39a.85.85,0,0,1,.849-.849H26.73A.849.849,0,0,1,27.579,80.237Z" transform="translate(-3.882 -74.575)" fill="#c0694e"/>
    <path id="Path_781" data-name="Path 781" d="M54.208,80.237v7.986H37.32a.849.849,0,0,1-.849-.849V79.388H53.358A.849.849,0,0,1,54.208,80.237Z" transform="translate(-30.51 -74.575)" fill="#c97e67"/>
    <g id="Group_433" data-name="Group 433" transform="translate(5.965 7.139)">
      <path id="Path_782" data-name="Path 782" d="M39.391,123.245H37.534v-4.391c0-.318-.549-.369-.837-.232a.242.242,0,0,0-.152.232V123.8a.255.255,0,0,0,.133.232c.178.107.068.08,2.712.08C39.779,124.112,39.794,123.245,39.391,123.245Z" transform="translate(-36.545 -118.503)" fill="#ffde91"/>
      <path id="Path_783" data-name="Path 783" d="M97.774,118.819c-.76-.641-3.051-.729-3.051,1.347,0,2.255-.04,2.505.137,2.933a1.394,1.394,0,0,0,.94.837,1.933,1.933,0,0,0,2.355-.837c.177-.427.137-.673.137-2.933A1.684,1.684,0,0,0,97.774,118.819Zm-.472,3.47a.9.9,0,0,1-.213.666.8.8,0,0,1-1.377-.666c0-2.264-.06-2.518.206-2.789a.917.917,0,0,1,1.172,0C97.365,119.771,97.3,120.026,97.3,122.289Z" transform="translate(-91.192 -118.376)" fill="#ffde91"/>
      <path id="Path_784" data-name="Path 784" d="M162.751,118.09c-1.6,5.2-1.547,4.875-1.423,5.029.2.256.805.369.9.046l.289-1.012h1.743c.312,1.094.29,1.1.407,1.164a.726.726,0,0,0,.78-.2c.125-.148.185.213-1.423-5.026C163.884,117.637,162.886,117.645,162.751,118.09Zm-.03,3.287.662-2.336.662,2.336Z" transform="translate(-153.712 -117.753)" fill="#ffde91"/>
      <path id="Path_785" data-name="Path 785" d="M242.447,118.817v3.059c-1.725-3.334-1.609-3.363-2.207-3.363-.188,0-.494.064-.494.312v4.938c0,.413.989.415.989,0V120.7c1.768,3.305,1.669,3.2,1.883,3.3a.774.774,0,0,0,.662-.012.251.251,0,0,0,.156-.232v-4.946C243.436,118.413,242.447,118.405,242.447,118.817Z" transform="translate(-227.427 -118.465)" fill="#ffde91"/>
    </g>
    <path id="Path_786" data-name="Path 786" d="M152.17,1.132A1.132,1.132,0,1,1,151.038,0,1.132,1.132,0,0,1,152.17,1.132Z" transform="translate(-137.068)" fill="#edc472"/>
  </g>
</svg>
