<svg xmlns="http://www.w3.org/2000/svg" width="100%" height="100%" viewBox="0 0 38.096 33.166">
  <g id="Messenger" transform="translate(-225 -268.481)">
    <g id="Group_98" data-name="Group 98" transform="translate(225 268.481)">
      <g id="Group_94" data-name="Group 94" transform="translate(0)">
        <path id="Path_143" data-name="Path 143" d="M230.838,294.418a8.365,8.365,0,0,0,.522-1.467,13.153,13.153,0,1,1,3.931,1.583,8.343,8.343,0,0,1-7.08,3.09A8.288,8.288,0,0,0,230.838,294.418Z" transform="translate(-225 -268.481)" fill="#fed100"/>
      </g>
      <g id="Group_96" data-name="Group 96" transform="translate(1.482 1.537)">
        <g id="Group_95" data-name="Group 95">
          <path id="Path_144" data-name="Path 144" d="M252.016,308.529a11.644,11.644,0,0,1,20.875-7.1,11.645,11.645,0,1,0-19.328,12.9A11.591,11.591,0,0,1,252.016,308.529Z" transform="translate(-251.149 -295.59)" fill="#ffdf5a"/>
        </g>
      </g>
      <g id="Group_97" data-name="Group 97" transform="translate(2.114 1.984)">
        <path id="Path_145" data-name="Path 145" d="M286.546,314.266v-.025a13.158,13.158,0,0,0-6.269-10.762,13.167,13.167,0,0,1-17.982,18.312,13.233,13.233,0,0,0,4.22,4.137l-.009.014.036.023a8.341,8.341,0,0,1-3.149,4.672,8.343,8.343,0,0,0,7.08-3.09l.02,0,0-.008A13.176,13.176,0,0,0,286.515,315.7,13.431,13.431,0,0,0,286.546,314.266Z" transform="translate(-262.294 -303.48)" fill="#fcc200"/>
      </g>
    </g>
    <g id="Group_103" data-name="Group 103" transform="translate(236.723 272.484)">
      <g id="Group_99" data-name="Group 99" transform="translate(0 0)">
        <path id="Path_146" data-name="Path 146" d="M452.327,365.023a8.362,8.362,0,0,1-.522-1.467,13.151,13.151,0,1,0-3.931,1.583,8.343,8.343,0,0,0,7.08,3.09A8.288,8.288,0,0,1,452.327,365.023Z" transform="translate(-431.792 -339.086)" fill="#fcc200"/>
      </g>
      <g id="Group_100" data-name="Group 100" transform="translate(2.114 1.987)">
        <path id="Path_147" data-name="Path 147" d="M487.5,398.081a8.352,8.352,0,0,1-.52-1.459,13.168,13.168,0,0,0,.081-22.492,13.167,13.167,0,0,1-17.982,18.312,13.182,13.182,0,0,0,13.971,5.758,8.343,8.343,0,0,0,7.078,3.086A8.288,8.288,0,0,1,487.5,398.081Z" transform="translate(-469.077 -374.13)" fill="#e2a700"/>
      </g>
      <g id="Group_102" data-name="Group 102" transform="translate(1.482 1.539)">
        <g id="Group_101" data-name="Group 101">
          <path id="Path_148" data-name="Path 148" d="M458.809,379.179a11.644,11.644,0,0,1,20.875-7.1,11.645,11.645,0,1,0-19.328,12.9A11.591,11.591,0,0,1,458.809,379.179Z" transform="translate(-457.942 -366.24)" fill="#ffdf5a"/>
        </g>
      </g>
    </g>
    <g id="Group_104" data-name="Group 104" transform="translate(243.818 284.735)">
      <circle id="Ellipse_11" data-name="Ellipse 11" cx="1.238" cy="1.238" r="1.238" transform="translate(0)" fill="#fff"/>
    </g>
    <g id="Group_105" data-name="Group 105" transform="translate(248.671 284.735)">
      <circle id="Ellipse_12" data-name="Ellipse 12" cx="1.238" cy="1.238" r="1.238" fill="#fff"/>
    </g>
    <g id="Group_106" data-name="Group 106" transform="translate(253.406 284.735)">
      <circle id="Ellipse_13" data-name="Ellipse 13" cx="1.238" cy="1.238" r="1.238" fill="#fff"/>
    </g>
  </g>
</svg>
