<svg id="Component_2_1" data-name="Component 2 – 1" xmlns="http://www.w3.org/2000/svg" width="55" height="55" viewBox="0 0 55 55">
  <g id="Group_33" data-name="Group 33" transform="translate(-429 -271)">
    <circle id="Ellipse_2" data-name="Ellipse 2" cx="27.5" cy="27.5" r="27.5" transform="translate(429 271)" fill="#f4f4f4"/>
    <path id="Subtraction_1" data-name="Subtraction 1" d="M15.488,30.482A15.46,15.46,0,0,1,11.822,0a11.889,11.889,0,1,0,19.09,13.621c.042.466.063.938.063,1.4A15.468,15.468,0,0,1,15.488,30.482Z" transform="translate(441.237 283.281)" fill="#1a5669"/>
  </g>
  <g id="Group_34" data-name="Group 34" transform="translate(-490 -271)" opacity="0">
    <g id="Group_32" data-name="Group 32" transform="translate(61)">
      <circle id="Ellipse_5" data-name="Ellipse 5" cx="27.5" cy="27.5" r="27.5" transform="translate(429 271)" fill="#fecd2f"/>
      <path id="Icon_metro-sun4" data-name="Icon metro-sun4" d="M19.85,11.46A7.747,7.747,0,1,0,27.6,19.207,7.756,7.756,0,0,0,19.85,11.46Zm0-2.213A1.106,1.106,0,0,0,20.957,8.14V5.927a1.107,1.107,0,1,0-2.213,0V8.14A1.105,1.105,0,0,0,19.85,9.247Zm0,19.921a1.106,1.106,0,0,0-1.107,1.107v2.213a1.107,1.107,0,1,0,2.213,0V30.274A1.107,1.107,0,0,0,19.85,29.167Zm8.606-17L30.02,10.6a1.107,1.107,0,0,0-1.565-1.565L26.891,10.6a1.107,1.107,0,1,0,1.565,1.565ZM11.241,26.252,9.676,27.817a1.107,1.107,0,0,0,1.565,1.565l1.565-1.565a1.107,1.107,0,0,0-1.565-1.565ZM9.89,19.207A1.107,1.107,0,0,0,8.783,18.1H6.569a1.107,1.107,0,1,0,0,2.213H8.783A1.106,1.106,0,0,0,9.89,19.207ZM33.13,18.1H30.917a1.107,1.107,0,1,0,0,2.213H33.13a1.107,1.107,0,0,0,0-2.213ZM11.24,12.163A1.107,1.107,0,0,0,12.8,10.6L11.24,9.034A1.107,1.107,0,1,0,9.675,10.6ZM28.458,26.249a1.107,1.107,0,1,0-1.565,1.565l1.565,1.565a1.107,1.107,0,0,0,1.565-1.565Z" transform="translate(436.76 279.381)" fill="#ffee34"/>
    </g>
  </g>
</svg>
