<svg xmlns="http://www.w3.org/2000/svg" width="100%" height="100%" viewBox="0 0 25.746 25.746">
  <g id="My_Team" data-name="My Team" transform="translate(-4 -4)">
    <g id="Group_404" data-name="Group 404" transform="translate(4 4)">
      <g id="Group_366" data-name="Group 366" transform="translate(8.275)">
        <path id="Path_588" data-name="Path 588" d="M25.678,4h1.839a3.678,3.678,0,0,1,3.678,3.678v5.517a.919.919,0,0,1-.919.919H22.919A.919.919,0,0,1,22,13.195V7.678A3.678,3.678,0,0,1,25.678,4Z" transform="translate(-22 -4)" fill="#c80a50"/>
      </g>
      <g id="Group_373" data-name="Group 373" transform="translate(8.059 2.758)">
        <g id="Group_367" data-name="Group 367" transform="translate(0 7.676)">
          <rect id="Rectangle_40" data-name="Rectangle 40" width="9.67" height="9.67" transform="translate(0 0)" fill="#0a5078"/>
        </g>
        <g id="Group_368" data-name="Group 368" transform="translate(4.029 7.676)">
          <rect id="Rectangle_41" data-name="Rectangle 41" width="1.612" height="9.67" transform="translate(0 0)" fill="#00a0c8"/>
        </g>
        <path id="Path_589" data-name="Path 589" d="M23.379,35.195V34.119a2.765,2.765,0,0,0,1.839-2.6.919.919,0,1,0,0-1.839V27.839A2.727,2.727,0,0,0,24.51,26H22v9.195Z" transform="translate(-21.783 -18.644)" fill="#00325a"/>
        <path id="Path_590" data-name="Path 590" d="M33.919,31.517a2.765,2.765,0,0,0,1.839,2.6v1.076h1.379V26h-2.51a2.727,2.727,0,0,0-.708,1.839v1.839a.919.919,0,0,0,0,1.839Z" transform="translate(-27.726 -18.644)" fill="#00325a"/>
        <g id="Group_369" data-name="Group 369" transform="translate(2.975 5.517)">
          <path id="Path_591" data-name="Path 591" d="M29.839,25.678h0A1.839,1.839,0,0,1,28,23.839V22h3.678v1.839A1.839,1.839,0,0,1,29.839,25.678Z" transform="translate(-28 -22)" fill="#d2aa82"/>
        </g>
        <g id="Group_370" data-name="Group 370" transform="translate(1.136)">
          <path id="Path_592" data-name="Path 592" d="M26.758,10h-.919A1.839,1.839,0,0,0,24,11.839h0v1.839a2.758,2.758,0,0,0,2.758,2.758H28.6a2.758,2.758,0,0,0,2.758-2.758V11.839H28.6A1.839,1.839,0,0,1,26.758,10Z" transform="translate(-24 -10)" fill="#f0c8a0"/>
        </g>
        <g id="Group_371" data-name="Group 371" transform="translate(0.217 1.839)">
          <path id="Path_593" data-name="Path 593" d="M22.919,15.839h0V14h0a.919.919,0,0,0-.919.919h0A.919.919,0,0,0,22.919,15.839Z" transform="translate(-22 -14)" fill="#d2aa82"/>
        </g>
        <g id="Group_372" data-name="Group 372" transform="translate(8.492 1.839)">
          <path id="Path_594" data-name="Path 594" d="M40,15.839h0V14h0a.919.919,0,0,1,.919.919h0A.919.919,0,0,1,40,15.839Z" transform="translate(-40 -14)" fill="#d2aa82"/>
        </g>
      </g>
      <g id="Group_389" data-name="Group 389" transform="translate(11.034 8.275)">
        <g id="Group_374" data-name="Group 374" transform="translate(3.678 0.919)">
          <path id="Path_595" data-name="Path 595" d="M38.758,24H40.6a2.758,2.758,0,0,1,2.758,2.758V28.6H36V26.758A2.758,2.758,0,0,1,38.758,24Z" transform="translate(-36 -24)" fill="#dc9600"/>
        </g>
        <g id="Group_375" data-name="Group 375" transform="translate(0 11.034)">
          <path id="Path_596" data-name="Path 596" d="M30.758,46v6.436H28V48.758A2.758,2.758,0,0,1,30.758,46Z" transform="translate(-28 -46)" fill="#00a0c8"/>
        </g>
        <g id="Group_376" data-name="Group 376" transform="translate(2.666 11.023)">
          <rect id="Rectangle_42" data-name="Rectangle 42" width="9.67" height="6.447" transform="translate(0 0)" fill="#00a0c8"/>
        </g>
        <g id="Group_377" data-name="Group 377" transform="translate(2.758 13.792)">
          <path id="Path_597" data-name="Path 597" d="M34.46,55.678V52.23a.23.23,0,1,0-.46,0v3.448Z" transform="translate(-34 -52)" fill="#0082aa"/>
        </g>
        <g id="Group_378" data-name="Group 378" transform="translate(11.494 13.792)">
          <path id="Path_598" data-name="Path 598" d="M53.46,55.678V52.23a.23.23,0,1,0-.46,0v3.448Z" transform="translate(-53 -52)" fill="#0082aa"/>
        </g>
        <g id="Group_379" data-name="Group 379" transform="translate(1.379 11.121)">
          <path id="Path_599" data-name="Path 599" d="M31.69,46.189a2.734,2.734,0,0,0-.69.282v6.067h2.758V48.861A2.759,2.759,0,0,0,31.69,46.189Z" transform="translate(-31 -46.189)" fill="#0082aa"/>
        </g>
        <g id="Group_380" data-name="Group 380" transform="translate(6.436 12.873)">
          <path id="Path_600" data-name="Path 600" d="M43.379,50H42.46L42,54.6h1.839Z" transform="translate(-42 -50)" fill="#0a5078"/>
        </g>
        <g id="Group_381" data-name="Group 381" transform="translate(5.517 11.034)">
          <path id="Path_601" data-name="Path 601" d="M41.839,47.839l-1.054,1.054A.46.46,0,0,1,40,48.568V46h1.839Z" transform="translate(-40 -46)" fill="#0082aa"/>
        </g>
        <g id="Group_382" data-name="Group 382" transform="translate(7.356 11.034)">
          <path id="Path_602" data-name="Path 602" d="M44,47.839l1.054,1.054a.46.46,0,0,0,.785-.325V46H44Z" transform="translate(-44 -46)" fill="#0082aa"/>
        </g>
        <g id="Group_383" data-name="Group 383" transform="translate(5.517 9.195)">
          <path id="Path_603" data-name="Path 603" d="M41.839,45.678h0a1.839,1.839,0,0,0,1.839-1.839V42H40v1.839A1.839,1.839,0,0,0,41.839,45.678Z" transform="translate(-40 -42)" fill="#d2aa82"/>
        </g>
        <g id="Group_384" data-name="Group 384" transform="translate(3.678 2.758)">
          <path id="Path_604" data-name="Path 604" d="M37.839,28h3.678a.919.919,0,0,1,.919.919v.919a.919.919,0,0,0,.919.919h0V32.6A2.758,2.758,0,0,1,40.6,35.356H38.758A2.758,2.758,0,0,1,36,32.6V30.758h0a.919.919,0,0,0,.919-.919v-.919A.919.919,0,0,1,37.839,28Z" transform="translate(-36 -28)" fill="#f0c8a0"/>
        </g>
        <g id="Group_385" data-name="Group 385" transform="translate(11.034 5.517)">
          <path id="Path_605" data-name="Path 605" d="M52,35.839h0V34h0a.919.919,0,0,1,.919.919h0A.919.919,0,0,1,52,35.839Z" transform="translate(-52 -34)" fill="#d2aa82"/>
        </g>
        <g id="Group_386" data-name="Group 386" transform="translate(2.758 5.517)">
          <path id="Path_606" data-name="Path 606" d="M34.919,35.839h0V34h0a.919.919,0,0,0-.919.919h0A.919.919,0,0,0,34.919,35.839Z" transform="translate(-34 -34)" fill="#d2aa82"/>
        </g>
        <g id="Group_387" data-name="Group 387" transform="translate(11.953 11.034)">
          <path id="Path_607" data-name="Path 607" d="M56.758,48.758v3.678H54V46A2.758,2.758,0,0,1,56.758,48.758Z" transform="translate(-54 -46)" fill="#00a0c8"/>
        </g>
        <g id="Group_388" data-name="Group 388" transform="translate(4.597)">
          <path id="Path_608" data-name="Path 608" d="M43.057,22H39.839A1.839,1.839,0,0,0,38,23.839v.919h3.678a1.839,1.839,0,0,0,1.839-1.839v-.46A.46.46,0,0,0,43.057,22Z" transform="translate(-38 -22)" fill="#dc9600"/>
        </g>
      </g>
      <g id="Group_401" data-name="Group 401" transform="translate(0 9.195)">
        <g id="Group_390" data-name="Group 390" transform="translate(3.678)">
          <path id="Path_609" data-name="Path 609" d="M14.758,24H16.6a2.758,2.758,0,0,1,2.758,2.758V28.6H12V26.758A2.758,2.758,0,0,1,14.758,24Z" transform="translate(-12 -24)" fill="#0a5078"/>
        </g>
        <g id="Group_391" data-name="Group 391" transform="translate(2.418 10.104)">
          <rect id="Rectangle_43" data-name="Rectangle 43" width="9.67" height="6.447" transform="translate(0 0)" fill="#fab400"/>
        </g>
        <g id="Group_392" data-name="Group 392" transform="translate(6.436 11.953)">
          <path id="Path_610" data-name="Path 610" d="M19.379,50H18.46L18,54.6h1.839Z" transform="translate(-18 -50)" fill="#00a0c8"/>
        </g>
        <g id="Group_393" data-name="Group 393" transform="translate(5.517 10.114)">
          <path id="Path_611" data-name="Path 611" d="M17.839,47.839l-1.054,1.054A.46.46,0,0,1,16,48.568V46h1.839Z" transform="translate(-16 -46)" fill="#dc9600"/>
        </g>
        <g id="Group_394" data-name="Group 394" transform="translate(7.356 10.114)">
          <path id="Path_612" data-name="Path 612" d="M20,47.839l1.054,1.054a.46.46,0,0,0,.785-.325V46H20Z" transform="translate(-20 -46)" fill="#dc9600"/>
        </g>
        <g id="Group_395" data-name="Group 395" transform="translate(5.517 8.275)">
          <path id="Path_613" data-name="Path 613" d="M17.839,45.678h0a1.839,1.839,0,0,0,1.839-1.839V42H16v1.839A1.839,1.839,0,0,0,17.839,45.678Z" transform="translate(-16 -42)" fill="#d2aa82"/>
        </g>
        <g id="Group_396" data-name="Group 396" transform="translate(11.953 10.114)">
          <path id="Path_614" data-name="Path 614" d="M32.758,48.758v3.678H30V46A2.758,2.758,0,0,1,32.758,48.758Z" transform="translate(-30 -46)" fill="#fab400"/>
        </g>
        <g id="Group_397" data-name="Group 397" transform="translate(0 10.114)">
          <path id="Path_615" data-name="Path 615" d="M6.758,46v6.436H4V48.758A2.758,2.758,0,0,1,6.758,46Z" transform="translate(-4 -46)" fill="#fab400"/>
        </g>
        <g id="Group_398" data-name="Group 398" transform="translate(3.678 1.839)">
          <path id="Path_616" data-name="Path 616" d="M13.839,28h3.678a.919.919,0,0,1,.919.919v.919a.919.919,0,0,0,.919.919h0V32.6A2.758,2.758,0,0,1,16.6,35.356H14.758A2.758,2.758,0,0,1,12,32.6V30.758h0a.919.919,0,0,0,.919-.919v-.919A.919.919,0,0,1,13.839,28Z" transform="translate(-12 -28)" fill="#f0c8a0"/>
        </g>
        <g id="Group_399" data-name="Group 399" transform="translate(11.034 4.597)">
          <path id="Path_617" data-name="Path 617" d="M28,35.839h0V34h0a.919.919,0,0,1,.919.919h0A.919.919,0,0,1,28,35.839Z" transform="translate(-28 -34)" fill="#d2aa82"/>
        </g>
        <g id="Group_400" data-name="Group 400" transform="translate(2.758 4.597)">
          <path id="Path_618" data-name="Path 618" d="M10.919,35.839h0V34h0a.919.919,0,0,0-.919.919h0A.919.919,0,0,0,10.919,35.839Z" transform="translate(-10 -34)" fill="#d2aa82"/>
        </g>
      </g>
      <g id="Group_402" data-name="Group 402" transform="translate(2.758 22.068)">
        <path id="Path_619" data-name="Path 619" d="M10.46,55.678V52.23a.23.23,0,1,0-.46,0v3.448Z" transform="translate(-10 -52)" fill="#dc9600"/>
      </g>
      <g id="Group_403" data-name="Group 403" transform="translate(11.494 22.068)">
        <path id="Path_620" data-name="Path 620" d="M29.46,55.678V52.23a.23.23,0,1,0-.46,0v3.448Z" transform="translate(-29 -52)" fill="#dc9600"/>
      </g>
    </g>
  </g>
</svg>
