<svg xmlns="http://www.w3.org/2000/svg" width="100%" height="100%" viewBox="0 0 28.851 28.784">
  <g id="Org_Chart" data-name="Org Chart" transform="translate(0 -0.59)">
    <path id="Path_621" data-name="Path 621" d="M99.661,218.222H90.63v-1.359a.435.435,0,1,0-.87,0v1.359H80.729a.435.435,0,0,0-.435.435v1.786a.435.435,0,0,0,.87,0v-1.35h8.6v1.367a.435.435,0,0,0,.87,0v-1.367h8.6v1.367a.435.435,0,0,0,.87,0v-1.8A.435.435,0,0,0,99.661,218.222Z" transform="translate(-75.77 -203.676)" fill="#68748f"/>
    <path id="Path_622" data-name="Path 622" d="M165.469,137.154V139.7h-11.5v-2.541a1.475,1.475,0,0,1,1-1.4l2.206-.754.978-.335h3.136l.978.335,2.205.754a1.475,1.475,0,0,1,1,1.4Z" transform="translate(-145.294 -126.525)" fill="#8ac9fe"/>
    <path id="Path_623" data-name="Path 623" d="M159.314,134.666l-3.184,1.089a1.475,1.475,0,0,0-1,1.4v2.541h-1.161v-2.541a1.475,1.475,0,0,1,1-1.4l3.184-1.089Z" transform="translate(-145.296 -126.521)" fill="#60b7ff"/>
    <path id="Path_624" data-name="Path 624" d="M345.889,436.613v2.192H335.97v-2.192a1.272,1.272,0,0,1,.86-1.2l1.824-.624.922-.316h2.705l.922.316,1.825.624a1.273,1.273,0,0,1,.86,1.2Z" transform="translate(-317.038 -409.431)" fill="#ffe177"/>
    <path id="Path_625" data-name="Path 625" d="M341.321,434.473l-2.747.939a1.272,1.272,0,0,0-.86,1.2v2.192h-1.741v-2.192a1.272,1.272,0,0,1,.86-1.2l2.747-.939Z" transform="translate(-317.041 -409.434)" fill="#ffd15b"/>
    <path id="Path_626" data-name="Path 626" d="M9.919,436.613v2.192H0v-2.192a1.273,1.273,0,0,1,.86-1.2l1.825-.624.922-.316H6.312l.922.316,1.824.624A1.272,1.272,0,0,1,9.919,436.613Z" transform="translate(0 -409.431)" fill="#ea576b"/>
    <path id="Path_627" data-name="Path 627" d="M4.767,434.473l-2.746.939a1.272,1.272,0,0,0-.861,1.2v2.192H0v-2.192a1.272,1.272,0,0,1,.861-1.2l2.746-.939Z" transform="translate(0 -409.434)" fill="#fd4755"/>
    <path id="Path_628" data-name="Path 628" d="M388.16,434.786a2.7,2.7,0,0,1-2.1,1h-.354a2.7,2.7,0,0,1-2.1-1l.922-.316h2.705Z" transform="translate(-361.994 -409.431)" fill="#ffd15b"/>
    <path id="Path_629" data-name="Path 629" d="M382.794,348.754v2.816a2.144,2.144,0,0,0,2.144,2.144h.354a2.144,2.144,0,0,0,2.144-2.144v-2.816a.657.657,0,0,0-.657-.657h-3.329a.657.657,0,0,0-.657.657Z" transform="translate(-361.224 -327.926)" fill="#ffcebf"/>
    <path id="Path_630" data-name="Path 630" d="M385.7,353.675a2.1,2.1,0,0,1-.4.038h-.355a2.144,2.144,0,0,1-2.143-2.144v-2.816a.657.657,0,0,1,.656-.657h1.16a.656.656,0,0,0-.656.657v2.816A2.144,2.144,0,0,0,385.7,353.675Z" transform="translate(-361.225 -327.924)" fill="#ffb09e"/>
    <path id="Path_631" data-name="Path 631" d="M382.794,321.861h.931a1.29,1.29,0,0,0,.937-.4l.637-.674.414.721a.709.709,0,0,0,.615.356h1.109v-1.449a1.592,1.592,0,0,0-1.592-1.592h-1.459a1.592,1.592,0,0,0-1.591,1.592Z" transform="translate(-361.224 -300.299)" fill="#68748f"/>
    <path id="Path_632" data-name="Path 632" d="M384.388,318.82h1.161a1.592,1.592,0,0,0-1.592,1.592v1.427a1.267,1.267,0,0,1-.23.021H382.8v-1.448A1.592,1.592,0,0,1,384.388,318.82Z" transform="translate(-361.226 -300.298)" fill="#5d6980"/>
    <path id="Path_633" data-name="Path 633" d="M215.9,135a3.043,3.043,0,0,1-2.341,1.1h-.411a3.044,3.044,0,0,1-2.341-1.1l.978-.335h3.136Z" transform="translate(-198.931 -126.525)" fill="#60b7ff"/>
    <path id="Path_634" data-name="Path 634" d="M208.252,35.3v3.265a2.485,2.485,0,0,0,2.485,2.485h.411a2.485,2.485,0,0,0,2.485-2.485V35.3a.761.761,0,0,0-.761-.761h-3.859a.761.761,0,0,0-.761.761Z" transform="translate(-196.517 -32.034)" fill="#ffcebf"/>
    <path id="Path_635" data-name="Path 635" d="M211.521,41.016a2.575,2.575,0,0,1-.375.028h-.411a2.486,2.486,0,0,1-2.485-2.485V35.293a.761.761,0,0,1,.761-.761h1.161a.761.761,0,0,0-.761.761v3.265a2.487,2.487,0,0,0,2.11,2.457Z" transform="translate(-196.515 -32.029)" fill="#ffb09e"/>
    <path id="Path_636" data-name="Path 636" d="M208.252,4.119h1.079a1.5,1.5,0,0,0,1.087-.468l.738-.781.479.836a.822.822,0,0,0,.713.413h1.285V2.44A1.845,1.845,0,0,0,211.788.6H210.1a1.845,1.845,0,0,0-1.845,1.845Z" transform="translate(-196.517 -0.005)" fill="#68748f"/>
    <path id="Path_637" data-name="Path 637" d="M210.1.59h1.161a1.845,1.845,0,0,0-1.845,1.845V4.112l-.082,0H208.25V2.435A1.845,1.845,0,0,1,210.1.59Z" transform="translate(-196.515)" fill="#5d6980"/>
    <path id="Path_638" data-name="Path 638" d="M52.2,434.786a2.7,2.7,0,0,1-2.1,1h-.354a2.7,2.7,0,0,1-2.1-1l.922-.316h2.705Z" transform="translate(-44.965 -409.431)" fill="#fd4755"/>
    <path id="Path_639" data-name="Path 639" d="M46.827,348.754v2.816a2.144,2.144,0,0,0,2.144,2.144h.354a2.144,2.144,0,0,0,2.144-2.144v-2.816a.656.656,0,0,0-.657-.657H47.484A.657.657,0,0,0,46.827,348.754Z" transform="translate(-44.188 -327.926)" fill="#ffcebf"/>
    <path id="Path_640" data-name="Path 640" d="M49.724,353.675a2.1,2.1,0,0,1-.4.038h-.355a2.144,2.144,0,0,1-2.144-2.144v-2.816a.657.657,0,0,1,.657-.657H48.64a.657.657,0,0,0-.657.657v2.816A2.144,2.144,0,0,0,49.724,353.675Z" transform="translate(-44.185 -327.924)" fill="#ffb09e"/>
    <path id="Path_641" data-name="Path 641" d="M46.827,321.861h.931a1.29,1.29,0,0,0,.937-.4l.637-.674.414.721a.709.709,0,0,0,.615.356h1.109v-1.449a1.592,1.592,0,0,0-1.592-1.592H48.419a1.592,1.592,0,0,0-1.592,1.592v1.448Z" transform="translate(-44.188 -300.299)" fill="#68748f"/>
    <path id="Path_642" data-name="Path 642" d="M48.416,318.82h1.161a1.592,1.592,0,0,0-1.592,1.592v1.427a1.267,1.267,0,0,1-.23.021h-.931v-1.448A1.592,1.592,0,0,1,48.416,318.82Z" transform="translate(-44.186 -300.298)" fill="#5d6980"/>
    <path id="Path_643" data-name="Path 643" d="M177.9,436.613v2.192h-9.92v-2.192a1.273,1.273,0,0,1,.861-1.2l1.824-.624.922-.316h2.7l.922.316,1.825.624A1.273,1.273,0,0,1,177.9,436.613Z" transform="translate(-158.515 -409.431)" fill="#aee69c"/>
    <path id="Path_644" data-name="Path 644" d="M172.754,434.473l-2.746.939a1.272,1.272,0,0,0-.86,1.2v2.192h-1.161v-2.192a1.272,1.272,0,0,1,.861-1.2l2.746-.939Z" transform="translate(-158.521 -409.434)" fill="#89daa4"/>
    <path id="Path_645" data-name="Path 645" d="M220.18,434.786a2.7,2.7,0,0,1-2.1,1h-.354a2.7,2.7,0,0,1-2.1-1l.922-.316h2.7Z" transform="translate(-203.48 -409.431)" fill="#89daa4"/>
    <path id="Path_646" data-name="Path 646" d="M214.811,348.754v2.816a2.144,2.144,0,0,0,2.144,2.144h.354a2.144,2.144,0,0,0,2.144-2.144v-2.816a.657.657,0,0,0-.657-.657h-3.329A.656.656,0,0,0,214.811,348.754Z" transform="translate(-202.707 -327.926)" fill="#ffcebf"/>
    <path id="Path_647" data-name="Path 647" d="M217.71,353.675a2.1,2.1,0,0,1-.4.038h-.354a2.144,2.144,0,0,1-2.144-2.144v-2.816a.657.657,0,0,1,.657-.657h1.161a.657.657,0,0,0-.657.657v2.816A2.144,2.144,0,0,0,217.71,353.675Z" transform="translate(-202.705 -327.924)" fill="#ffb09e"/>
    <path id="Path_648" data-name="Path 648" d="M214.811,321.861h.931a1.29,1.29,0,0,0,.937-.4l.637-.674.414.721a.709.709,0,0,0,.615.356h1.109v-1.449a1.592,1.592,0,0,0-1.592-1.592H216.4a1.592,1.592,0,0,0-1.592,1.592Z" transform="translate(-202.707 -300.299)" fill="#68748f"/>
    <path id="Path_649" data-name="Path 649" d="M216.4,318.82h1.161a1.592,1.592,0,0,0-1.592,1.592v1.427a1.262,1.262,0,0,1-.23.021h-.931v-1.448A1.592,1.592,0,0,1,216.4,318.82Z" transform="translate(-202.706 -300.298)" fill="#5d6980"/>
  </g>
</svg>
