<svg id="Payroll" xmlns="http://www.w3.org/2000/svg" width="100%" height="100%" viewBox="0 0 27.831 27.831">
  <path id="Path_650" data-name="Path 650" d="M88.365,70.656h19.1a1.739,1.739,0,0,0,1.739-1.739V51.739A1.739,1.739,0,0,0,107.465,50h-19.1a1.739,1.739,0,0,0-1.739,1.739V68.916A1.739,1.739,0,0,0,88.365,70.656Z" transform="translate(-81.917 -47.282)" fill="#fff"/>
  <path id="Path_651" data-name="Path 651" d="M88.365,50h19.1a1.739,1.739,0,0,1,1.739,1.739v3.805H86.626V51.739A1.739,1.739,0,0,1,88.365,50Z" transform="translate(-81.917 -47.282)" fill="#ff9eb1"/>
  <ellipse id="Ellipse_28" data-name="Ellipse 28" cx="5.974" cy="6.109" rx="5.974" ry="6.109" transform="translate(0.679 15.07)" fill="#fff2a0"/>
  <g id="Group_407" data-name="Group 407">
    <path id="Path_652" data-name="Path 652" d="M374.509,14.349a1.2,1.2,0,0,0,1.2-1.2V11.2a1.2,1.2,0,0,0-2.392,0v1.957A1.2,1.2,0,0,0,374.509,14.349Z" transform="translate(-353.021 -9.456)" fill="#fff"/>
    <path id="Path_653" data-name="Path 653" d="M172.509,14.349a1.2,1.2,0,0,1-1.2-1.2V11.2a1.2,1.2,0,0,1,2.392,0v1.957A1.2,1.2,0,0,1,172.509,14.349Z" transform="translate(-162.001 -9.456)" fill="#fff"/>
    <g id="Group_406" data-name="Group 406">
      <path id="Path_654" data-name="Path 654" d="M25.548,2.174h-2.32V1.739a1.739,1.739,0,1,0-3.479,0v.435h-7.5V1.739a1.739,1.739,0,1,0-3.479,0v.435H6.448A2.286,2.286,0,0,0,4.165,4.457V15.044a6.631,6.631,0,1,0,8.515,8.874H25.548a2.286,2.286,0,0,0,2.283-2.283V4.457A2.286,2.286,0,0,0,25.548,2.174Zm-4.712-.435a.652.652,0,0,1,1.3,0V3.7a.652.652,0,0,1-1.3,0Zm-10.98,0a.652.652,0,1,1,1.3,0V3.7a.652.652,0,1,1-1.3,0Zm-3.224,25A5.544,5.544,0,1,1,12.176,21.2,5.551,5.551,0,0,1,6.632,26.744Zm20.112-5.11a1.2,1.2,0,0,1-1.2,1.2H13.06a6.633,6.633,0,0,0-7.808-8.118V4.457a1.2,1.2,0,0,1,1.2-1.2h2.32V3.7a1.739,1.739,0,1,0,3.479,0V3.261h7.5V3.7a1.739,1.739,0,0,0,3.479,0V3.261h2.32a1.2,1.2,0,0,1,1.2,1.2Z" fill="#ff5d7d"/>
      <path id="Path_655" data-name="Path 655" d="M84.688,311.91l-.267-.1v-1.782a1.646,1.646,0,0,1,.343.176.544.544,0,0,0,.653-.869,2.8,2.8,0,0,0-1-.44v-.355a.544.544,0,1,0-1.087,0v.352c-.051.012-.1.024-.154.04A1.867,1.867,0,0,0,81.9,310.4a1.658,1.658,0,0,0,.547,1.634,4.214,4.214,0,0,0,.888.512v2.375a1.682,1.682,0,0,1-.807-.327.544.544,0,1,0-.6.91,2.685,2.685,0,0,0,1.4.509v.358a.544.544,0,1,0,1.087,0v-.423a2.259,2.259,0,0,0,1.618-1.792,1.963,1.963,0,0,0-1.35-2.247Zm-1.571-.732a.6.6,0,0,1-.15-.577.828.828,0,0,1,.366-.553v1.277A2.171,2.171,0,0,1,83.117,311.177Zm1.849,2.8a1.173,1.173,0,0,1-.545.8v-1.807A.878.878,0,0,1,84.966,313.976Z" transform="translate(-77.245 -291.258)" fill="#ff5d7d"/>
    </g>
  </g>
  <g id="Group_409" data-name="Group 409" transform="translate(8.279 10.437)">
    <g id="Group_408" data-name="Group 408">
      <circle id="Ellipse_29" data-name="Ellipse 29" cx="1.739" cy="1.739" r="1.739" transform="translate(11.959)" fill="#ff9eb1"/>
      <circle id="Ellipse_30" data-name="Ellipse 30" cx="1.739" cy="1.739" r="1.739" transform="translate(5.979)" fill="#ff9eb1"/>
      <circle id="Ellipse_31" data-name="Ellipse 31" cx="1.739" cy="1.739" r="1.739" fill="#ff9eb1"/>
      <circle id="Ellipse_32" data-name="Ellipse 32" cx="1.739" cy="1.739" r="1.739" transform="translate(11.959 5.979)" fill="#ff9eb1"/>
      <circle id="Ellipse_33" data-name="Ellipse 33" cx="1.739" cy="1.739" r="1.739" transform="translate(5.979 5.979)" fill="#ff9eb1"/>
    </g>
  </g>
</svg>
