<svg xmlns="http://www.w3.org/2000/svg" width="100%" height="100%" viewBox="0 0 34 35.648">
  <g id="Projects" transform="translate(-10.847)">
    <circle id="Ellipse_14" data-name="Ellipse 14" cx="17" cy="17" r="17" transform="translate(10.847 1.648)" fill="#1a2b63"/>
    <path id="Path_227" data-name="Path 227" d="M207.1,337.269a2.551,2.551,0,0,1,2.152,1.175.069.069,0,0,0,.053.031h.005a.069.069,0,0,0,.052-.023,3.737,3.737,0,0,1,3.856-1.114l-1.232-3.158h-4.359l-1.245,3.192A2.546,2.546,0,0,1,207.1,337.269Z" transform="translate(-181.907 -311.112)" fill="#d9eafc"/>
    <g id="Group_110" data-name="Group 110" transform="translate(23.047 23.068)">
      <path id="Path_228" data-name="Path 228" d="M208.2,334.179h-.568l-1.245,3.192a2.558,2.558,0,0,1,.607-.1Z" transform="translate(-204.954 -334.179)" fill="#aec1ed"/>
      <path id="Path_229" data-name="Path 229" d="M186.46,380.145a.069.069,0,0,0,.068.059h.011a4.7,4.7,0,0,1,.735-.059,4.637,4.637,0,0,1,3.171,1.249.069.069,0,0,0,.094,0,4.636,4.636,0,0,1,3.171-1.249,4.7,4.7,0,0,1,.735.059h.011a.069.069,0,0,0,.068-.059,5.712,5.712,0,0,1,.935-2.381,3.809,3.809,0,0,0-5.464.256,2.627,2.627,0,0,0-4.361-.087A5.71,5.71,0,0,1,186.46,380.145Z" transform="translate(-185.635 -373.794)" fill="#aec1ed"/>
    </g>
    <path id="Path_230" data-name="Path 230" d="M55.929,359.4a5.8,5.8,0,0,0-10.577-2.34A16.988,16.988,0,0,0,52,363.377,4.724,4.724,0,0,1,55.929,359.4Z" transform="translate(-31.989 -329.987)" fill="#445ea0"/>
    <path id="Path_231" data-name="Path 231" d="M50.77,355.167a6.107,6.107,0,0,1,3.895,1.4,5.8,5.8,0,0,0-9.313.492q.206.346.428.68A6.125,6.125,0,0,1,50.77,355.167Z" transform="translate(-31.989 -329.987)" fill="#293d7c"/>
    <path id="Path_232" data-name="Path 232" d="M319.162,354.454a5.8,5.8,0,0,0-5.738,4.942,4.724,4.724,0,0,1,3.926,3.981,16.989,16.989,0,0,0,6.65-6.321A5.8,5.8,0,0,0,319.162,354.454Z" transform="translate(-281.556 -329.987)" fill="#445ea0"/>
    <g id="Group_111" data-name="Group 111" transform="translate(20.013 24.467)">
      <path id="Path_233" data-name="Path 233" d="M319.512,354.465c-.116-.007-.233-.011-.351-.011a5.8,5.8,0,0,0-5.738,4.942,4.691,4.691,0,0,1,.633.147A6.553,6.553,0,0,1,319.512,354.465Z" transform="translate(-301.57 -354.454)" fill="#293d7c"/>
      <path id="Path_234" data-name="Path 234" d="M152.8,425.177a4.7,4.7,0,0,0-3.218,1.267,4.721,4.721,0,0,0-7.89,2.775,16.93,16.93,0,0,0,15.781,0A4.723,4.723,0,0,0,152.8,425.177Z" transform="translate(-141.693 -420.295)" fill="#293d7c"/>
    </g>
    <path id="Path_235" data-name="Path 235" d="M147.352,425.764a4.908,4.908,0,0,1,1.842.356,4.719,4.719,0,0,0-7.5,3.1q.417.22.847.417A4.929,4.929,0,0,1,147.352,425.764Z" transform="translate(-121.679 -395.828)" fill="#1a2b63"/>
    <g id="Group_112" data-name="Group 112" transform="translate(26.071 23.068)">
      <path id="Path_236" data-name="Path 236" d="M264.453,334.179h-1.044l.133,1.053a.518.518,0,0,0,1.027-.13Z" transform="translate(-261.065 -334.179)" fill="#aec1ed"/>
      <path id="Path_237" data-name="Path 237" d="M229.724,334.178l-.274,2.166a.518.518,0,0,0,.449.579.535.535,0,0,0,.066,0,.518.518,0,0,0,.513-.453l.29-2.3h-1.044Z" transform="translate(-229.446 -334.178)" fill="#aec1ed"/>
    </g>
    <path id="Path_238" data-name="Path 238" d="M142.094,173.037q0-.844.061-1.682a6.165,6.165,0,0,0-2.805,5.431,6.955,6.955,0,0,0,.916,3.514.306.306,0,0,0,.379.129,6.719,6.719,0,0,1,2.5-.494A22.527,22.527,0,0,1,142.094,173.037Z" transform="translate(-119.498 -159.527)" fill="#fe3745"/>
    <path id="Path_239" data-name="Path 239" d="M140.134,176.786a6.5,6.5,0,0,1,1.989-4.842c.009-.2.02-.393.034-.589a6.165,6.165,0,0,0-2.8,5.431,6.955,6.955,0,0,0,.916,3.514.306.306,0,0,0,.379.129c.13-.053.262-.1.394-.145A6.959,6.959,0,0,1,140.134,176.786Z" transform="translate(-119.499 -159.527)" fill="#b7092b"/>
    <g id="Group_113" data-name="Group 113" transform="translate(25.261 11.828)">
      <path id="Path_240" data-name="Path 240" d="M318.632,171.355q.059.836.061,1.682a22.527,22.527,0,0,1-1.053,6.9,6.718,6.718,0,0,1,2.5.494.306.306,0,0,0,.379-.129,6.955,6.955,0,0,0,.916-3.514A6.164,6.164,0,0,0,318.632,171.355Z" transform="translate(-310.742 -171.355)" fill="#fe3745"/>
      <path id="Path_241" data-name="Path 241" d="M217.708,307.125v1.591a.346.346,0,0,0,.345.345h4.6a.346.346,0,0,0,.345-.345v-1.591Z" transform="translate(-217.708 -297.753)" fill="#fe3745"/>
    </g>
    <path id="Path_242" data-name="Path 242" d="M218.882,308.716v-1.591h-1.174v1.591a.346.346,0,0,0,.345.345h1.174A.346.346,0,0,1,218.882,308.716Z" transform="translate(-192.447 -285.925)" fill="#b7092b"/>
    <path id="Path_243" data-name="Path 243" d="M187.685,90.318h-8.4a23.065,23.065,0,0,0,.1,14.834.306.306,0,0,0,.287.2H187.3a.305.305,0,0,0,.287-.2,23.064,23.064,0,0,0,.1-14.834Z" transform="translate(-155.581 -84.084)" fill="#eef6ff"/>
    <path id="Path_244" data-name="Path 244" d="M180.363,105.152a23.064,23.064,0,0,1-.1-14.834h-.978a23.064,23.064,0,0,0,.1,14.834.306.306,0,0,0,.287.2h.978A.306.306,0,0,1,180.363,105.152Z" transform="translate(-155.582 -84.084)" fill="#d9eafc"/>
    <path id="Path_245" data-name="Path 245" d="M227.179,90.318v1.145a.346.346,0,0,0,.345.345h3.289a.346.346,0,0,0,.345-.345V90.318Z" transform="translate(-201.265 -84.084)" fill="#ea2a3d"/>
    <path id="Path_246" data-name="Path 246" d="M227.962,91.463V90.318h-.783v1.145a.346.346,0,0,0,.345.345h.783A.346.346,0,0,1,227.962,91.463Z" transform="translate(-201.265 -84.084)" fill="#b7092b"/>
    <path id="Path_247" data-name="Path 247" d="M199.023,0a.305.305,0,0,0-.192.068,13.163,13.163,0,0,0-3.756,5.478c-.1.248-.189.5-.277.758h8.449c-.088-.256-.179-.509-.277-.758A13.162,13.162,0,0,0,199.215.068.3.3,0,0,0,199.023,0Z" transform="translate(-171.119)" fill="#fe3745"/>
    <path id="Path_248" data-name="Path 248" d="M199.512.319q-.147-.13-.3-.251a.306.306,0,0,0-.384,0,13.163,13.163,0,0,0-3.756,5.478c-.1.248-.189.5-.277.758h.978c.088-.256.179-.509.277-.758A13.481,13.481,0,0,1,199.512.319Z" transform="translate(-171.119)" fill="#b7092b"/>
    <circle id="Ellipse_15" data-name="Ellipse 15" cx="3.522" cy="3.522" r="3.522" transform="translate(24.382 8.967)" fill="#445ea0"/>
    <circle id="Ellipse_16" data-name="Ellipse 16" cx="2.259" cy="2.259" r="2.259" transform="matrix(0.16, -0.987, 0.987, 0.16, 25.312, 14.357)" fill="#69cdff"/>
    <path id="Path_249" data-name="Path 249" d="M224.1,150.46a2.26,2.26,0,0,0,1.845,2.221,2.259,2.259,0,1,1,0-4.442A2.26,2.26,0,0,0,224.1,150.46Z" transform="translate(-197.625 -137.971)" fill="#52bbef"/>
    <path id="Path_250" data-name="Path 250" d="M84.49,127.442a.2.2,0,0,1-.181-.121,2.358,2.358,0,0,0-1.6-1.6.2.2,0,0,1,0-.362,2.359,2.359,0,0,0,1.6-1.6.2.2,0,0,1,.362,0,2.359,2.359,0,0,0,1.6,1.6.2.2,0,0,1,0,.362,2.358,2.358,0,0,0-1.6,1.6.2.2,0,0,1-.181.121Z" transform="translate(-66.654 -115.104)" fill="#ffd00d"/>
    <path id="Path_251" data-name="Path 251" d="M84.7,148.424a2.358,2.358,0,0,0-1.6-1.6.2.2,0,0,1-.1-.1c-.089.042-.185.084-.289.127a.2.2,0,0,0,0,.362,2.358,2.358,0,0,1,1.6,1.6.2.2,0,0,0,.362,0c.043-.1.085-.2.127-.289A.2.2,0,0,1,84.7,148.424Z" transform="translate(-66.654 -136.599)" fill="#ffaf10"/>
    <path id="Path_252" data-name="Path 252" d="M388.926,156.317a.172.172,0,0,1-.159-.106,2.073,2.073,0,0,0-1.406-1.406.172.172,0,0,1,0-.318,2.073,2.073,0,0,0,1.406-1.406.172.172,0,0,1,.318,0,2.073,2.073,0,0,0,1.406,1.406.172.172,0,0,1,0,.318,2.073,2.073,0,0,0-1.406,1.406.172.172,0,0,1-.159.106Z" transform="translate(-350.29 -142.415)" fill="#fff"/>
    <path id="Path_253" data-name="Path 253" d="M389.11,174.759a2.073,2.073,0,0,0-1.406-1.406.172.172,0,0,1-.09-.086c-.078.037-.162.074-.254.112a.172.172,0,0,0,0,.318,2.073,2.073,0,0,1,1.406,1.406.172.172,0,0,0,.318,0c.038-.092.075-.176.112-.254A.172.172,0,0,1,389.11,174.759Z" transform="translate(-350.289 -161.307)" fill="#d9eafc"/>
    <path id="Path_254" data-name="Path 254" d="M359.2,43.535a.2.2,0,0,1-.185-.124,2.415,2.415,0,0,0-1.639-1.639.2.2,0,0,1,0-.37,2.416,2.416,0,0,0,1.639-1.639.2.2,0,0,1,.371,0,2.416,2.416,0,0,0,1.639,1.639.2.2,0,0,1,0,.37,2.416,2.416,0,0,0-1.639,1.639.2.2,0,0,1-.185.124Z" transform="translate(-322.361 -36.904)" fill="#ff9518"/>
    <path id="Path_255" data-name="Path 255" d="M359.416,65.025a2.416,2.416,0,0,0-1.639-1.639.2.2,0,0,1-.1-.1c-.091.043-.189.086-.3.13a.2.2,0,0,0,0,.37,2.415,2.415,0,0,1,1.639,1.639.2.2,0,0,0,.371,0c.044-.107.087-.2.13-.3A.2.2,0,0,1,359.416,65.025Z" transform="translate(-322.36 -58.918)" fill="#ef8318"/>
  </g>
</svg>
