<svg xmlns="http://www.w3.org/2000/svg" viewBox="0 0 408.83 408.88"><defs><style>.cls-1{fill:#f2705a;}.cls-2{fill:#344a5e;}.cls-3{fill:#415a6b;}.cls-4{fill:#4ab9a4;}.cls-5{fill:#fed05c;}.cls-6{fill:#65c5b8;}.cls-7{fill:#f2f2f2;}.cls-8{fill:#364b5f;}.cls-9{fill:#435b6b;}.cls-10{fill:#465a6a;}.cls-11{fill:#f9c052;}.cls-12{fill:#ccd4de;}.cls-13{fill:#bcc4cc;}</style></defs><g id="Layer_2" data-name="Layer 2"><g id="Layer_1-2" data-name="Layer 1"><path class="cls-1" d="M405.75,153.31c-3.54,11.79-7.07,23.58-10.84,36.18-2.88-3-5.5-5.5-7.75-8.25s-3.65-2.68-6.19-.1c-18.49,18.75-37.22,37.27-55.73,56a10.13,10.13,0,0,1-8,3.27c-23.54-.13-47.08,0-70.61-.15-3.17,0-4,.86-3.94,4,.13,21.54.07,43.09.07,64.64,0,8.58-2.87,11.41-11.56,11.41-31,0-62,.06-93-.08-3.51,0-4.45.88-4.42,4.4.16,24.08,0,48.16.11,72.23,0,5.47-1.26,10-6.93,12.05H0c0-4.12.22-8.26,0-12.36-.17-3,.74-3.83,3.75-3.8,16.08.15,32.17.08,48.25.06,1.58,0,3.17-.2,4.75-.3,1.68-1.13,3.58-.88,5.42-.85,16.49.24,33,.13,49.45.12,6.08-.39,6.1-.39,6.1-6.47q0-33.5,0-67a33.61,33.61,0,0,1,.49-7.15c1.22-5.67,4.4-8.51,10.17-8.88a90.27,90.27,0,0,1,9.16,0c19.35-.07,38.69.12,58,.08a4.53,4.53,0,0,1,3.37.89c8.65.05,17.3,0,25.94.2,3,.08,3.48-1,3.47-3.68-.1-21.83-.06-43.66-.06-65.49,0-9.22,2.55-11.73,11.89-11.74,24.09,0,48.17-.05,72.26.06a9.41,9.41,0,0,0,7.34-3.06q25.56-25.82,51.38-51.38c2.18-2.15,2.52-3.46.05-5.54-2.83-2.37-5.34-5.12-8.56-8.28,9.08-2.35,17.34-4.62,25.66-6.61,6.82-1.63,13.41-4.27,20.49-4.79v.8C407.58,146.85,408.41,150.64,405.75,153.31Z"/><path class="cls-2" d="M110.22,165.41a76.11,76.11,0,0,1-11.62-4.95,4.89,4.89,0,0,1-3.11-5.24c.31-6.72.22-13.47,1.2-20.16.31-5.21,2.4-10.38.63-15.65a47.22,47.22,0,0,0-7.89-15.12c-5.54-6.8-11.51-13.24-17.13-20-1.92-2.29-3.84-4.41-3-7.76A2.53,2.53,0,0,0,68,73.83c-4.43-2.49-7.15-6.69-10.44-10.32-1.15-1.26-2.31-2.24-4.12-1.29-7.62,3.33-12,9.81-16,16.62,1.32,1,1.32,1,3.18,0,5.56-2.89,10.37-2.31,15,1.86,6,5.36,7.73,12.41,6.95,19.94-1.11,10.56-4.83,20.4-10.14,29.6-4.25,7.36-9.41,14.17-13.25,21.78a7.64,7.64,0,0,0-.21,1.06c0-.05,0-.09,0-.14l.67-1.11a11.23,11.23,0,0,1-.46,6.46c-.05,1.5-.1,3-.16,4.49a12.54,12.54,0,0,1-.89-3.76c-.19,1.35-.11,2.72-.24,4.09.37,4.1-.54,8.16-.22,12.28.7,9.12,2.11,18.14,3.6,27.15.35,2.09.76,4.18.17,6.3,0,.17,0,.35,0,.52.29,3.34,1,6.44,4.74,7.75a119.23,119.23,0,0,0,25,1.14c13.68-1,27.59-8.28,27.2-27.53-.09-4.64.19-9.3,0-13.94-.13-3.23.76-5,4.4-4.9a11.79,11.79,0,0,0,7.19-2C112,168.55,113.14,167,110.22,165.41Z"/><path class="cls-3" d="M46.31,216.31c8.38.51,16.75,1.23,25.17.9,10.26-.42,25.3-8,25.57-21.11.09-4.48.15-9,.38-13.5a40,40,0,0,0,0-6.38c-.43-3.91.54-6,5.07-5.42,2.48.33,5-.59,7.26-1.7,2-.94,2-2.24.5-3.69,17.11,3,34.09,6.71,50.6,12.17,8.45,2.8,13.67,12.48,11.37,22.95-5.85,26.66-5.32,53.57-4.42,80.54-6.9,1.45-13.58,4.26-20.84,3.52-2.84-.29-5.86-.19-7.79-2.94-.78-1.91-.6-3.93-.6-5.91,0-12.51-.34-25,.11-37.51.3-8.62.33-17.27,1.27-25.86.43-4-.16-4.51-4.08-3.9-6.57,1-13.12,2.17-19.77,2.4-4.29-1.42-8.48-3.07-11.65-6.49-4.73-5.09-4.86-8.27-.67-14.07.45-.63.36-.51-.28-1-1.81-1.42.3-2.46.35-3.6a19.38,19.38,0,0,0-1.29,2.58c-.38.8-.56,2.05-1.79,1.61-1-.36-1-1.56-.86-2.46a43.69,43.69,0,0,0,.8-9.62c-.57,7.76-.69,17-2.23,26.09-.47,2.81-.52,5.36,1.45,7.62-2.18,1.64-2.82,3.88-3.09,6.54-1.09,10.81-1.53,21.67-2.27,32.5-1,15.06-1.49,30.23-6.23,44.78-.48,1.51-.69,3.14-2,4.24-2.58-.88-2-3.17-2-5-.1-11.14,0-22.27,0-33.41,0-1.33,0-2.65,0-4-.16-6.29-2-8.17-8.44-8.43-3.7-.15-7.41-.13-11.13-.08-4.54.06-5.26-.44-6.17-4.88A20.28,20.28,0,0,0,54.77,236a76.53,76.53,0,0,0-7.14-14.95C46.74,219.69,45.59,218.21,46.31,216.31Z"/><path class="cls-4" d="M55.08,235a13.08,13.08,0,0,1,4.75,10.11c0,2.21,1.05,2.65,3,2.62,4.51-.07,9,0,13.54,0,7,0,9.08,2.1,9.09,9q0,19.32,0,38.66c0,1.43-.3,2.93.55,4.27,1.15,2.48.33,4.58-1.26,6.53a6.93,6.93,0,0,1-4.83,2.44c-6.75.24-13.5.17-20.25,0a4.6,4.6,0,0,1-2.94-1.05q-23.29,0-46.59,0c-5.55,0-7.47-1.81-7.49-7.32q-.09-22.51,0-45c0-3.23.66-6.14,4.54-6.84,8.16-1.16,8.51-.88,8.52,7.08,0,14.62-.05,29.25.07,43.87,0,2.08-1.21,5.65,2.4,5.62,3.34,0,2.1-3.46,2.12-5.42.12-14.62.06-29.24.07-43.86a27.91,27.91,0,0,1,.24-5.17c.27-1.41.85-2.72,2.55-2.43,4.24.74,5-1.48,4.49-5a2.74,2.74,0,0,1,.34-1.93,8.25,8.25,0,0,1,3.9-5.49c1.87,1.41,1.87,3.5,2,5.54.06,1.18,0,2.37.09,3.56a2.29,2.29,0,0,0,2.51,2.44c4.36.11,8.72.1,13.08,0,3.05-.07,3-2.4,3.23-4.51-.57-2.69-3.66-4.66-2.28-7.91a2.19,2.19,0,0,1,1.32-1.29A3,3,0,0,1,55.08,235Z"/><path class="cls-3" d="M39.73,151.84,39.06,153c0,.05,0,.09,0,.14a16.46,16.46,0,0,0-.8,5.94,12.54,12.54,0,0,0,.89,3.76c-.92,14.13,1.26,28,3.91,41.74a6.65,6.65,0,0,1-.83,5c-.21-.05-.41-.09-.62-.12a16.1,16.1,0,0,0-12.92,3.24c-9,1-7.07.87-8-6.31-1.78-14.35-2.78-28.82-5.75-43-1.26-6,.42-11.63,2.06-17.2,2.69-9.13,4.74-18.56,7.71-27.43,3.37-10.11,4.49-20.52,7.5-30.56a26.74,26.74,0,0,1,5.24-9.26c.32.14.83.48.93.38,8.89-8.38,20.69.49,23.65,8.66,3,8.37,1.72,16.47-.66,24.49C57,127.06,48.3,139.42,39.73,151.84Z"/><path class="cls-3" d="M56.7,307.53c7,0,14-.14,21.07,0,2.69.05,5-.48,6.81-2.45,1.34,1.36.75,3,.5,4.51-1.81,10.83-3.17,21.73-5.22,32.51A47.08,47.08,0,0,0,79.72,361c.53,2.51.66,5-1.21,7.15-7.53-.86-14.88,1.13-22.34,1.44-1.43.06-2.9.59-4.12-.61-.6-19.58,1.61-38.94,4.33-58.26C56.53,309.65,56.6,308.59,56.7,307.53Z"/><path class="cls-3" d="M60.75,48.62c-1.48-8.37-3-16.7-2.09-25.32C60.7,3.26,77-2.92,92.19,1.22c4.35,1.19,8.66,2.55,13,3.77,6.07,1.71,7.31,5.21,3.51,10.29a39.62,39.62,0,0,1-3.29,3.45c-1,1.77-2.53.7-3.79.66-2.11-.06-3.6.45-4.17,2.71-.51,2-2,3.38-3.49,4.74-2.46,2.33-4.63,4.74-4.21,8.52a2.25,2.25,0,0,1-2,2.51,2.5,2.5,0,0,1-2.87-1.6c-1-1.77-1.32-3.75-2.11-5.57C82,29,81,27.59,79,27.76s-2.81,1.79-3.29,3.51-.59,3.65-1.11,5.44C72.61,43.4,67.9,47.56,61.9,50.53,60.85,50.3,61.35,49.13,60.75,48.62Z"/><path class="cls-5" d="M61.59,50.18c7-4.42,12.68-9.61,12.87-18.77.05-2.45,1.37-4.8,4.26-5s4.33,1.71,5.17,4.15c.65,1.87,1.14,3.8,1.75,5.7a1.33,1.33,0,0,0,1.81,1c.73-.24,1.73-.44,1.38-1.52-1.56-4.93,2.12-7.23,4.93-10,1-1,2.5-1.93,2.49-3.46,0-4.58,3-4.24,6-4,1,.1,2.09.22,3.14.33a14.77,14.77,0,0,1,1.17,8.85,11.41,11.41,0,0,0,2.7,10.63c1.9,2.23,3.21,4.63-1,5.94A1.58,1.58,0,0,0,107,46c.67,3.31-1.35,6.42-.56,9.78C107,58,106,59.48,103.49,60a21.52,21.52,0,0,1-7.08.62c-5.15-.69-8.26,1.75-10.23,6.2a1.56,1.56,0,0,1-1.62,1.42C78,62.17,70.3,57.6,62.94,52.59,62.18,52.07,60.91,51.61,61.59,50.18Z"/><path class="cls-2" d="M52.05,369c6.4-.77,12.8-1.62,19.21-2.25,2.39-.23,5.07-1.08,6.94,1.46,1.17-.51,1.7.43,2.28,1.06,6.91,7.57,15.93,11.49,25.34,14.76,2.61.9,5.44,1.57,6.07,4.93.08,2.81-1.48,3.61-4,3.6-11.25-.06-22.5,0-33.76,0-3.41,0-6.4-1.57-9.58-2.41-3.45-.93-6.84-2.06-10.26-3.09-2.16-.65-4.33-1.4-5.42-3.68A14.26,14.26,0,0,1,52.05,369Z"/><path class="cls-2" d="M139.66,281.85c7.57,3,15,1.72,22.43-.65,1.9-.61,3.76-1.39,5.69-.13,7.76,6.94,17.4,9.65,27.14,12.17,2.31.59,4.74,1.22,4.85,4.34-.27,4.09-1.73,5.41-6.44,5.45-8.89.06-17.78-.16-26.66.06-8,.2-15.84-1.23-23.66-2.64a11.56,11.56,0,0,1-5.83-2.36c-2.93-4.23-2.85-11.21.19-15A2.41,2.41,0,0,1,139.66,281.85Z"/><path class="cls-5" d="M28.66,212.61c.07-.75-.38-1.88.47-2.14,3.61-1.1,7.27-2.07,10.94-2.94,1.38-.33,1.38,1.33,2.12,2,1.11,2.43,1.13,5.52,4.12,6.82C49.07,222.6,53.75,228,55.08,235l-3.22-1.27c-1.75-1.57-.66.79-1.21.87-.32,3.17,2.14,5.06,3.46,7.47-.81.7-2.35-.43-2.86,1.35a3.26,3.26,0,0,1-3.54,2c-3.93-.24-8.27.89-11.29-2.94-.82-1-2.71.3-3.32-1.38-.42-1.82-.83-3.64-1.25-5.46C30.28,228,31.42,220,28.66,212.61Z"/><path class="cls-3" d="M96.7,135.06c.1-4.06.75-8.2.2-12.17-1.18-8.52-5.79-15.47-11.37-21.83S74.62,88.5,69.1,82.26c-1-1.1-1.63-2.36-1.08-3.6,1.35-3.06-.37-4.07-2.69-5.4-3.75-2.15-5.71-6.19-8.68-9.2-1-1-1.7-2-3.23-1.84,3.37-1.24,3.51-5,5.69-7.2,3.31.76,5.25,3.38,7.19,5.75,5.27,6.46,10.51,12.94,15.61,19.54,3,4,6.18,7.85,8.84,12.09a19,19,0,0,0,2.11,3.37,51.26,51.26,0,0,1,6.85,23.17C99.06,124.38,98.49,129.83,96.7,135.06Z"/><path class="cls-6" d="M28,241.11c0,1.2-.06,2.41.06,3.59.29,2.65-.56,4.11-3.49,3.7-3.12-.42-2.95,1.7-2.94,3.8,0,16.89,0,33.78.05,50.67,0,2.51-.34,3.9-3.4,3.88s-3.91-.79-3.88-3.83c.14-15.69.06-31.39.06-47.08,0-7.28,0-7.28-7.26-7.53,4.83-1.16,9.75-.76,14.61-.54,3.71.16,6.35-.1,5.56-4.84C27.22,242.38,27.73,241.72,28,241.11Z"/><path class="cls-7" d="M81.41,80.83c-3.85-4.72-7.74-9.42-11.55-14.18A97.79,97.79,0,0,0,59.11,55c2.47-1.64,1.31-4.21,1.64-6.4l.84,1.56c4.47,4.12,10,6.65,14.89,10.17A49.88,49.88,0,0,1,84.87,68c2.26,1.69.54,3.68.43,5.55C84.1,76,84,79.1,81.41,80.83Z"/><path class="cls-8" d="M84.8,73.41c0-1.8,0-3.61.07-5.41l1.31-1.18A146.41,146.41,0,0,1,100.1,111c.39,2.68-.11,5.29-.39,7.93-1.91-6.61-3.09-13.44-6-19.75-.55-1.19-1.26-2.26-1.83-3.42a17.68,17.68,0,0,0-1.5-3.89C88.35,85.77,85.3,80,84.8,73.41Z"/><path class="cls-9" d="M48.83,383.32c4.82,3,10.53,3.47,15.63,5.6,14.19,5.93,29,2.09,43.55,3.16,2.95.22,3.06-1.86,3-4,2.55,1.1,1.87,2.79.84,4.56-18.37.23-36.74.49-55.1-.17-1.23-.42-2.46-.83-3.68-1.27C47.58,389.21,47.58,389.2,48.83,383.32Z"/><path class="cls-10" d="M137.33,297.08c2.95,2.34,6.67,2.22,10.07,3.08,15,3.83,30.43,2.25,45.69,2.46a6.3,6.3,0,0,0,6.68-5c1.42,2.13,1,4-.8,5.66H137.28A5,5,0,0,1,137.33,297.08Z"/><path class="cls-2" d="M115,209.87,100.1,211c-3,.07-3.69-1.06-3.15-4.16a221.63,221.63,0,0,0,2.9-27.93c.07-1.65-.45-3.47,1.28-4.91,1.08,5.22-.4,10.24.08,15.5l4-7.59c.13,3-1.62,4.61-2.21,7.35l4.17-3.51.5.34c-1.58,2.45-3.14,4.91-4.74,7.35-1.72,2.59-1.6,4.83.09,7.67C105.87,205.81,110.75,207.3,115,209.87Z"/><path class="cls-6" d="M72.69,277.45c0,8.63-.09,17.27,0,25.9,0,2.69-1,3.38-3.49,3.37s-3.82-.46-3.8-3.47q.19-25.69,0-51.4c0-2.87,1-3.55,3.69-3.59s3.64.93,3.59,3.69C72.59,260.44,72.69,269,72.69,277.45Z"/><path class="cls-11" d="M50.65,234.55c-.12-1-.24-2-.49-4.17l1.7,3.3Z"/><path class="cls-12" d="M84.8,73.41A118.06,118.06,0,0,1,91.11,92.6a.73.73,0,0,1-1,.1L81.41,80.83C82.59,78.38,83,75.6,84.8,73.41Z"/><path class="cls-13" d="M90.09,92.7l1-.1a2.7,2.7,0,0,1,.74,3.17A6.51,6.51,0,0,1,90.09,92.7Z"/></g></g></svg>