<svg xmlns="http://www.w3.org/2000/svg" viewBox="0 0 368.2 369.02"><defs><style>.cls-1{fill:#d2d2d2;}.cls-2{fill:#46bde7;}.cls-3{fill:#eceef0;}.cls-4{fill:#6e82b6;}.cls-5{fill:#48628b;}.cls-6{fill:#7fd5fa;}.cls-7{fill:#feafa9;}.cls-8{fill:#81d5fa;}.cls-9{fill:#80d5fa;}.cls-10{fill:#fee252;}.cls-11{fill:#6e83b6;}.cls-12{fill:#7185b8;}</style></defs><g id="Layer_2" data-name="Layer 2"><g id="Layer_1-2" data-name="Layer 1"><path class="cls-1" d="M367.41,66.8c-1,1.16-2.3.75-3.49.75-19.81,0-39.62,0-59.42.06-2.54,0-3.81-.33-3.79-3.39.13-20.1.06-40.19.08-60.29,0-1.08-.31-2.28.75-3.12,4,3.91,8,7.79,12,11.74q25.58,25.61,51.13,51.23C365.61,64.75,366.49,65.8,367.41,66.8Z"/><path class="cls-2" d="M314.79,187.9c0,7.73-.07,15.47,0,23.19,0,2.44-.79,3.34-3.23,3.25-4.23-.14-8.46-.1-12.69,0-2.1,0-3.21-.46-3.2-2.89q.1-23.56,0-47.12c0-2.09.75-2.91,2.84-2.87,4.36.09,8.72.13,13.07,0,2.47-.08,3.24.87,3.2,3.28C314.73,172.44,314.79,180.18,314.79,187.9Z"/><path class="cls-3" d="M92.75,184.4q0-89.73,0-179.44C92.77.1,92.78.1,97.62.1q99.82,0,199.65,0c1.43,0,3-.55,4.27.69A23.17,23.17,0,0,1,302,6.39q0,27.35,0,54.71c0,5.08.18,5.26,5.26,5.26q27.3,0,54.6,0a23.64,23.64,0,0,1,5.57.44c1.17,1.14.69,2.6.69,3.91q0,146.94,0,293.87c0,2.53.23,4.44-3.51,4.44q-115-.16-230.07-.1c-.25,0-.5,0-.75-.05,3.1-4.78,2.68-10.15,2.67-15.48q0-57.47,0-114.93a41.5,41.5,0,0,1,.1-4.86c-.07-1.67-.09-3.34,0-5-.19-11.36,0-22.72-.08-34.08,0-7.67-1.17-8.8-9-8.82-9.84,0-19.68,0-29.53,0C96.18,185.66,94.21,186,92.75,184.4Z"/><path class="cls-4" d="M137.51,233.19c.05,1,.15,2,.15,3q0,62.64.06,125.28c0,3.36-1,5.8-3.91,7.42q-63.53,0-127.06.05c-4.62,0-6.74-2-6.74-6.55q0-64,0-128.06a8.39,8.39,0,0,1,.13-1.11C1.57,231.85,3.39,232,5.1,232q63.73,0,127.45,0C134.27,232,136.08,231.84,137.51,233.19Z"/><path class="cls-4" d="M92.75,184.4q18.68.06,37.35.12c5.74,0,7.57,1.84,7.56,7.62q0,18.33-.15,36.67c-1.43,1.34-3.24,1.14-5,1.14Q68.83,230,5.1,230c-1.71,0-3.53.2-4.95-1.15C.1,216.08,0,203.35,0,190.63c0-4.25,2.32-6.1,7.17-6.11H87.9C89.52,184.51,91.14,184.44,92.75,184.4Z"/><path class="cls-5" d="M.15,228.8H137.51v4.38H.15Z"/><path class="cls-4" d="M216.46,43.43c-.43.87-.79,1.65-1.21,2.4-1.75,3.16-3.55,6.3-5.28,9.48-2.29,4.2-1.05,7.17,3.45,8.42,3.59,1,7.16,2.11,10.78,3,1.73.42,2.58,1.08,2.53,3-.1,4.62-.08,9.24,0,13.86,0,1.69-.67,2.41-2.27,2.81-3.86,1-7.69,2.07-11.51,3.17s-5.16,4.24-3.28,7.74,3.81,7,5.87,10.43c.94,1.56.85,2.67-.45,3.93q-4.84,4.7-9.52,9.54c-1.28,1.33-2.4,1.32-3.93.4-3.3-2-6.69-3.86-10.08-5.7-3.88-2.11-6.9-.8-8.16,3.52-1,3.59-2.14,7.17-3,10.81-.44,2-1.3,2.68-3.28,2.63-4.36-.12-8.73-.11-13.09,0-1.94.05-2.88-.54-3.33-2.56-.83-3.77-2-7.47-3.05-11.18-1.19-4-4.26-5.27-8-3.23-3.28,1.79-6.61,3.52-9.75,5.54-2,1.28-3.29.93-4.81-.71-2.81-3-5.73-5.91-8.72-8.74-1.53-1.44-1.77-2.67-.61-4.52,2.1-3.39,4-6.91,5.87-10.43a4.91,4.91,0,0,0-3-7.33c-3.8-1.17-7.62-2.31-11.5-3.21-1.9-.44-2.76-1.15-2.71-3.21.13-4.49.1-9,0-13.49,0-1.85.69-2.59,2.47-3,3.87-.91,7.7-2,11.51-3.17,3.55-1.07,4.91-4.3,3.18-7.54-1.88-3.52-3.8-7-5.87-10.43-1-1.69-1-2.87.49-4.24q4.74-4.51,9.25-9.27c1.39-1.45,2.58-1.47,4.24-.45,3.29,2,6.69,3.87,10.08,5.71,3.68,2,6.8.63,7.94-3.41,1-3.6,2.16-7.17,3-10.82.46-2.12,1.37-2.88,3.52-2.81,4.36.14,8.72.1,13.08,0,1.78,0,2.68.53,3.11,2.37.91,3.88,2,7.71,3.16,11.53s4.29,5.06,7.79,3.17,7-3.86,10.41-5.88c1.37-.8,2.44-.95,3.64.28,3.22,3.31,6.52,6.54,9.76,9.82A14.82,14.82,0,0,1,216.46,43.43Z"/><path class="cls-4" d="M246.5,236.25c-25.8,0-51.61,0-77.42.05-2.8,0-3.82-.55-3.81-3.64q.21-36.16,0-72.33c0-3.16,1.1-3.66,3.85-3.61,6.7.14,6.71,0,6.71,6.67,0,19.36.07,38.72-.08,58.08,0,3.33.71,4.38,4.24,4.37q71.43-.19,142.87-.08c5.48,0,4.78-.68,4.85,4.71a13,13,0,0,0,0,1.87c.49,3-.61,4-3.81,4C298.12,236.19,272.31,236.25,246.5,236.25Z"/><path class="cls-6" d="M199.77,277.59c0,4.75-.07,9.5,0,14.24,0,2-.41,2.95-2.67,2.93-9.72-.1-19.45-.08-29.18,0-1.9,0-2.64-.6-2.63-2.58q.1-14.61,0-29.23c0-2.19.83-2.75,2.87-2.74q14.4.12,28.8,0c2.08,0,2.88.62,2.82,2.77C199.68,267.84,199.77,272.72,199.77,277.59Z"/><path class="cls-2" d="M223.66,187.5c0-7.61.08-15.22,0-22.82-.05-2.4.6-3.35,3.11-3.25,4.23.18,8.46.13,12.69,0,2.28-.06,3,.84,3,3.09q-.1,23.37,0,46.75c0,2.29-.79,3.1-3,3-4.35-.1-8.71-.12-13.06,0-2.24.07-2.7-.91-2.69-2.91C223.7,203.46,223.66,195.48,223.66,187.5Z"/><path class="cls-7" d="M182.75,305.22c4.73,0,9.47.07,14.2,0,2.06,0,2.87.6,2.85,2.76q-.12,14.61,0,29.22c0,2-.78,2.58-2.66,2.57q-14.58-.09-29.16,0c-1.89,0-2.67-.57-2.66-2.57q.1-14.61,0-29.22c0-2.16.79-2.8,2.85-2.76C173,305.29,177.89,305.22,182.75,305.22Z"/><path class="cls-1" d="M231.92,300.17c0,11.85-.09,23.7.06,35.55,0,3-.68,4.14-3.9,4.06-7.34-.18-7.34,0-7.34-7.28,0-22.57.08-45.15-.08-67.72,0-3.51.77-4.79,4.48-4.63,6.77.28,6.78.07,6.78,6.73Z"/><path class="cls-8" d="M206.4,193.5c0,5.74-.1,11.47,0,17.2.06,2.7-.75,3.87-3.6,3.75-4.1-.18-8.21-.12-12.31,0-2.29.06-3.44-.59-3.42-3.14q.1-17.76,0-35.53c0-2.17.7-3.21,3-3.16,4.35.09,8.71.11,13.06,0,2.46-.07,3.28,1,3.23,3.34C206.33,181.78,206.4,187.64,206.4,193.5Z"/><path class="cls-1" d="M290.1,132.79c-11.08,0-22.16-.1-33.25.07-3,0-4.15-.72-4-3.93.31-7.76-.91-6.6,6.48-6.62,21.29,0,42.59.07,63.88-.1,3.53,0,4.79.81,4.6,4.51-.36,7,.78,6-6.3,6.06C311,132.83,300.56,132.79,290.1,132.79Z"/><path class="cls-1" d="M290.31,98.31c-11.21,0-22.42-.08-33.62,0-2.83,0-4-.59-3.87-3.71.32-8.09-.91-6.8,6.65-6.82,21.3-.06,42.59,0,63.89-.09,3.3,0,4.62.68,4.43,4.28-.37,7.31.87,6.23-6.47,6.27C311,98.35,300.65,98.31,290.31,98.31Z"/><path class="cls-1" d="M290.13,270.73c-11.08,0-22.16-.09-33.25.06-3,0-4.19-.64-4-3.89.33-7.88-1-6.62,6.82-6.64,21.3-.07,42.59,0,63.89-.09,3.16,0,4.42.62,4.25,4.08-.36,7.6.89,6.42-6.65,6.46C310.81,270.78,300.47,270.73,290.13,270.73Z"/><path class="cls-1" d="M290.32,305.22c-11.21,0-22.42-.08-33.62,0-2.81,0-4-.57-3.88-3.7.32-8.1-.91-6.81,6.64-6.83,21.3-.06,42.6,0,63.89-.09,3.28,0,4.63.65,4.45,4.28-.39,7.31.86,6.23-6.47,6.27C311,305.26,300.66,305.22,290.32,305.22Z"/><path class="cls-1" d="M290.18,339.7c-11.21,0-22.42-.07-33.63.05-2.62,0-3.83-.47-3.72-3.46.31-8.54-1-7,7.15-7.06,21.17-.08,42.34,0,63.51-.09,3.1,0,4.48.52,4.3,4-.37,7.63.9,6.46-6.6,6.5C310.85,339.75,300.51,339.7,290.18,339.7Z"/><path class="cls-9" d="M278.36,193.6c0,6-.06,12,0,18,0,2.06-.59,2.94-2.76,2.88-4.23-.12-8.46-.11-12.69,0-2.35.06-3.35-.74-3.33-3.23.09-11.85.07-23.7,0-35.55,0-2.3.93-3.09,3.12-3.05,4.23.08,8.47.13,12.7,0,2.33-.08,3,.83,2.95,3C278.29,181.63,278.36,187.62,278.36,193.6Z"/><path class="cls-1" d="M268,53.33c3.86,0,7.72.11,11.56,0,2.38-.09,3.33.62,3.26,3.14-.24,9,1.05,7.25-7.17,7.38-6.59.1-13.18,0-19.77.06-2.2,0-3.12-.6-3.07-3,.22-9.36-1.06-7.36,7.36-7.57C262.82,53.27,265.43,53.32,268,53.33Z"/><path class="cls-3" d="M125,270.26c0,7.24-.09,14.48,0,21.72.05,2.95-.78,4.31-4,4.29q-22.23-.16-44.47,0c-2.86,0-4-.95-4-3.91q.14-22.47,0-44.93c0-2.77,1.11-3.72,3.8-3.71q22.43.1,44.84,0c3,0,3.84,1.32,3.8,4.1C124.87,255.29,125,262.77,125,270.26Z"/><path class="cls-3" d="M72.57,329.69c0-7.37.09-14.73,0-22.09,0-3,1.11-3.94,4-3.92q22.23.12,44.47,0c2.85,0,4,.92,4,3.89q-.13,22.47,0,44.93c0,2.76-1.09,3.74-3.79,3.73q-22.43-.11-44.84,0c-3,0-3.86-1.3-3.82-4.09C72.64,344.66,72.57,337.17,72.57,329.69Z"/><path class="cls-3" d="M12.71,269.71c0-7.37.09-14.73,0-22.09-.05-3,1.12-3.93,4-3.92q22.23.13,44.47,0c2.85,0,4,.94,4,3.9q-.13,22.47,0,44.93c0,2.77-1.1,3.74-3.79,3.72q-22.42-.11-44.84,0c-3,0-3.85-1.31-3.81-4.09C12.79,284.68,12.71,277.19,12.71,269.71Z"/><path class="cls-3" d="M12.71,329.67c0-7.24.09-14.48,0-21.72-.05-2.95.78-4.31,4-4.28q22.23.16,44.47,0c2.86,0,4,.95,4,3.91q-.13,22.46,0,44.93c0,2.77-1.11,3.72-3.8,3.71q-22.43-.11-44.84,0c-3.05,0-3.84-1.33-3.8-4.11C12.78,344.65,12.71,337.16,12.71,329.67Z"/><path class="cls-9" d="M12.79,216c0-5.73,0-11.47-.11-17.21-.06-2.21.57-3.05,2.92-3.05q53.23.09,106.46,0c2.35,0,3,.84,2.92,3.05-.14,5.74-.09,11.48-.11,17.21-1.41,1.35-3.21,1.23-4.93,1.23q-51.1,0-102.22,0C16,217.21,14.2,217.33,12.79,216Z"/><path class="cls-2" d="M12.79,216H124.87c.56,2.9-.49,3.85-3.54,3.84q-52.5-.15-105,0C13.28,219.83,12.23,218.88,12.79,216Z"/><path class="cls-10" d="M170.41,42.09a34.48,34.48,0,1,1-34.23,34.75A34.46,34.46,0,0,1,170.41,42.09Z"/><path class="cls-11" d="M195.13,272.05c0,1.07-.85,1.56-1.44,2.15-4.3,4.34-8.68,8.61-12.91,13-1.5,1.56-2.51,1.53-3.91,0a66,66,0,0,0-5.28-5.3c-1.55-1.4-2-2.45-.26-4.21s3-2,4.46.06c2.18,3.17,4,2.59,6.28-.09s5-5.18,7.62-7.71c.66-.64,1.29-1.86,2.45-1.07A8.71,8.71,0,0,1,195.13,272.05Z"/><path class="cls-11" d="M193.83,316c-1.25,1.06-2.7,2.45-4.31,3.6-2.82,2-2.55,3.82.07,5.72.7.5,1.21,1.26,1.87,1.82,1.67,1.41,2.67,2.48.48,4.65s-3.09,1.21-4.66-.4c-4.65-4.76-4.74-4.75-9.57.13-1.45,1.46-2.38,2.44-4.38.4s-1.63-2.95.17-4.68c4.87-4.7,4.83-4.83-.17-9.84-1.52-1.51-2.32-2.52-.33-4.45,1.82-1.74,2.79-1.6,4.46.1,5,5.07,5,5,10.4-.07.78-.73,1.44-2.47,3-1.1C191.9,312.88,193.22,313.71,193.83,316Z"/><path class="cls-11" d="M98.37,273.73c-4.47,0-8.94-.12-13.41,0-3.21.11-2.41-2.11-2.43-3.81s-.71-3.82,2.47-3.77q13.77.19,27.55,0c3.21,0,2.42,2.11,2.44,3.81s.71,3.88-2.47,3.77C107.81,273.61,103.09,273.73,98.37,273.73Z"/><path class="cls-11" d="M98.72,333.7c-4.59,0-9.19-.11-13.77,0-3.23.1-2.39-2.14-2.42-3.82s-.68-3.81,2.49-3.76q13.77.19,27.56,0c3.22,0,2.37,2.14,2.41,3.82s.69,3.88-2.49,3.76C107.91,333.58,103.32,333.7,98.72,333.7Z"/><path class="cls-12" d="M103.17,317.52c-.33,2.37-1.69,4.15-4.48,4.13-2.59,0-4-1.67-4.31-4.19-.23-2.27,2.13-4.55,4.44-4.51A4.76,4.76,0,0,1,103.17,317.52Z"/><path class="cls-12" d="M98.61,338.18c2.62.2,4.2,1.59,4.52,4.16a4.38,4.38,0,0,1-4.43,4.57c-2.47-.25-4.32-1.63-4.3-4.31S96.06,338.56,98.61,338.18Z"/><path class="cls-11" d="M55.1,270.07c.84,3.29-1,3.75-3.88,3.71-8.55-.11-8.55,0-8.58,8.43a4.38,4.38,0,0,1-6.66,3.9c-1.15-.64-.74-1.73-.81-2.66-.24-3.09,1.29-7-.62-9s-5.92-.72-9-.6-3-1.65-2.95-3.77c.07-2-.48-4,2.83-3.88,3.07.14,7,1.38,9-.53s.72-5.93.6-9,1.65-3,3.76-3c2,.07,4-.49,3.88,2.84-.14,3.07-1.38,7,.53,9s5.92.71,9,.6S55.35,267.76,55.1,270.07Z"/><path class="cls-11" d="M53,320.14a3.82,3.82,0,0,1-1.51,2.64c-2.15,2.41-6.13,4.26-6.22,7.1s3.79,4.92,6.15,7.05,1.07,3.28-.54,4.68-2.54,3.79-4.9.89c-1.65-2-3.71-3.7-5.51-5.61-1.1-1.17-2-1.17-3.09,0-1.8,1.91-3.85,3.59-5.5,5.61-2.38,2.9-3.45.35-4.91-.91s-3.1-2.78-.48-4.61a2.42,2.42,0,0,0,.53-.53c1.89-2.28,5.72-3.84,5.61-6.59s-3.56-4.57-5.8-6.49c-2.48-2.13-1.69-3.41.24-5.25s3-3,5.25-.36c2,2.29,4,6.1,6.76,5.82,2.35-.23,4.33-3.76,6.56-5.73.85-.75,1.48-2.59,2.9-1.68A34.52,34.52,0,0,1,53,320.14Z"/><path class="cls-11" d="M171.15,47.19c2.54-.54,4.63,0,4,3.94-.28,1.67,1.3,1.89,2.33,2.48a14.24,14.24,0,0,1,7.42,10.23c.31,1.82-.14,2.86-2.27,2.78-3.1-.12-6.26.8-7.81-3.56-.8-2.27-3.69-2.86-6.19-1.81a5.27,5.27,0,0,0-3.38,6c.34,2.73,2.07,4.17,4.61,4.72,1.57.34,3.23.3,4.76.75,5.63,1.67,9.23,5.43,10.22,11.24,1.09,6.39-1.1,11.63-6.69,15-2,1.19-3.57,2.13-3.06,4.78.31,1.61-.57,2.23-2.15,2.15a37.37,37.37,0,0,0-4.49,0c-1.81.13-2.56-.65-2.3-2.4.33-2.19-.64-3.3-2.6-4.27a13.54,13.54,0,0,1-7-8.83c-.65-2.26-.4-3.91,2.7-3.66,2.85.22,5.74-.68,7.23,3.33.83,2.24,3.71,2.81,6.22,1.71A5.27,5.27,0,0,0,176,85.77a5,5,0,0,0-5-4.64c-4.16-.24-7.81-1.49-10.73-4.52a14.5,14.5,0,0,1,3.24-22.81c1.09-.65,2.52-.78,2.74-2.65C166.61,47.17,166.75,47.19,171.15,47.19Z"/></g></g></svg>