<svg xmlns="http://www.w3.org/2000/svg" viewBox="0 0 505.77 510.45"><defs><style>.cls-1{fill:#eeebed;}.cls-2{fill:#d1c9cf;}.cls-3{fill:#e6e2e6;}.cls-4{fill:#e8e4e7;}.cls-5{fill:#3f3fbc;}.cls-6{fill:#4d47c4;}.cls-7{fill:#e0dbdf;}.cls-8{fill:#fed89f;}.cls-9{fill:#c2b8c0;}.cls-10{fill:#feeacf;}.cls-11{fill:#958492;}.cls-12{fill:#ec5266;}.cls-13{fill:#fed76a;}.cls-14{fill:#f8f6f7;}.cls-15{fill:#e7354b;}.cls-16{fill:#dcd9ec;}.cls-17{fill:#fcba4e;}.cls-18{fill:#010000;}.cls-19{fill:#71ccf9;}.cls-20{fill:#5cb5fe;}.cls-21{fill:#000101;}</style></defs><g id="Layer_2" data-name="Layer 2"><g id="Layer_1-2" data-name="Layer 1"><path class="cls-1" d="M45.88,0H331.14c5.63,1,7.44,5,7.6,10,.17,5.46.22,10.93-.06,16.39.44,9.88.42,19.75,0,29.63a38.41,38.41,0,0,1,.31,6q0,184.71,0,369.43c0,3.65.23,7.33-.79,10.9-1.29,4.52-3.8,7.74-8.92,8-4.48-.2-9-.09-13.44-.09q-133.68,0-267.37,0a9,9,0,0,1-5.75-1.56c-2.87-1.91-3.95-4.81-4.4-8a57.15,57.15,0,0,1-.29-8V17.21c0-2.32,0-4.65.15-7C38.61,5.23,40.35,1.18,45.88,0Z"/><path class="cls-2" d="M6,448.89c-2.77-.19-3.72-3.07-6-4V5A7.39,7.39,0,0,1,5,0H45.88c-4.74,2.94-6,7.3-6,12.7Q40,225,39.92,437.29c0,4-.12,8.08,4,10.56-.72,3.18-3.46,2.59-5.57,2.75C27.46,451.45,16.73,449.79,6,448.89Z"/><path class="cls-3" d="M6,448.89c10.92,0,21.85,0,32.78-.05,1.74,0,3.68.6,5.15-1a7.07,7.07,0,0,0,4,1c1.72.94,3.58.48,5.37.48q135.26,0,270.52,0c1.79,0,3.65.46,5.37-.48,6.1,0,7-4.62,7.9-9.1a25.72,25.72,0,0,0,.08-5q0-189.48,0-378.95a4.86,4.86,0,0,1,4.09-1.32c7.95,1.21,16.07,1.19,23.9,3.3,3.9,3.25,8.86,1.92,13.28,2.91,4.8,1.07,9.82,1.14,14.68,2,7.69,1.36,9.8,4.7,8.82,12.49-2.38,19-4.59,38-7,57-2.21,17.83-4.7,35.63-6.72,53.49-1,8.52-1.83,17.05-3.08,25.54-.2,1.38.49,2.9.76,4.35-.47,10.24-1.79,20.39-3,30.56-3.14,26.69-6.46,53.37-9.64,80.07Q365,395.63,356.62,465.07c-.52,4.34,0,9.08-3.54,12.64-.95,8-1.68,16.07-2.94,24-.78,5-4.3,7.41-9.35,6.91-9.68-1-19.36-2.09-29-3.26-12.44-1.5-24.87-3.12-37.31-4.68-12.6-1.58-25.18-3.31-37.81-4.65-6.4-.67-12.8-1.81-19.29-1.4-6.7-.87-13.44-1.18-20.16-2-37.43-4.39-74.83-9.12-112.27-13.4a21.9,21.9,0,0,1-5.25-1.48c-6.84-1.95-14-2.05-20.93-3-11.59-1.57-23.24-2.65-34.81-4.27-6.22-.88-9-5.84-7.82-12.69,1.34-7.75,1.34-7.75-6.45-8C8.36,449.8,7,450,6,448.89Z"/><path class="cls-2" d="M365.13,57.81c-1.54,1.59-3.27.81-5.07.59-7.63-.93-15.28-1.72-22.92-2.57q0-14.91,0-29.82c4.74-.56,9.5-1,14.21-1.71,5.41-.84,9.76,1.66,10.57,7.05C363.24,40.13,364.91,48.89,365.13,57.81Z"/><path class="cls-4" d="M329.14,448.85c-1.49,1.55-3.43,1-5.19,1q-135.43,0-270.88,0c-1.76,0-3.7.58-5.19-1Z"/><path class="cls-5" d="M505.61,128.71l0,280.13c-1.64,1.76-3.81,1.9-6,1.92q-14,.14-27.9,0c-2.16,0-4.35-.11-6.12-1.64-2.21-2.92-1.65-6.35-1.65-9.62q-.06-75.78,0-151.57,0-55.09,0-110.18c0-3.12-.47-6.36,1.45-9.2,1.89-1.69,4.25-1.68,6.55-1.7q13.6-.12,27.23,0C501.46,126.85,503.81,126.87,505.61,128.71Z"/><path class="cls-2" d="M353.08,477.71c1.33-10.31,2.68-20.62,4-30.93q2.35-18.67,4.65-37.35c1.48-12.29,2.85-24.6,4.34-36.89,1.54-12.78,3.22-25.54,4.76-38.32,1.46-12.13,2.75-24.29,4.22-36.42,1.85-15.4,3.85-30.79,5.69-46.19,1.18-9.84,2.24-19.69,3.25-29.55.23-2.33.43-4.6,1.95-6.51q2.29,18.45,4.59,36.89,2.7,21.4,5.45,42.78T401.42,338q2.74,21.39,5.51,42.78,2.79,21.63,5.54,43.26c1.46,11.31,3.17,22.59,4.35,33.93.94,9.13-2.09,11.64-12.7,12.84-16.42,1.85-32.8,4.08-49.19,6.18A8.13,8.13,0,0,0,353.08,477.71Z"/><path class="cls-6" d="M465.71,128.75l0,280.13c-.22.23-.43.46-.64.7-8,1.47-16.09,2.58-24-.75,0-20.77-.11-41.54-.1-62.32q0-108.93.08-217.87a6.24,6.24,0,0,1,5-1.67c6.06.13,12.15-.74,18.17.6A3.28,3.28,0,0,1,465.71,128.75Z"/><path class="cls-2" d="M79.68,477.83c3.35-1.59,6.81-.24,10,.14,25.87,3,51.68,6.49,77.53,9.65,15.22,1.87,30.48,3.44,45.72,5.11a6,6,0,0,1,4.4,1.94q-21.9,2.76-43.8,5.53c-14.28,1.81-28.54,3.67-42.81,5.48-11.49,1.46-23,2.68-34.45,4.4-8.92,1.34-12.36-.79-13.61-9.63C81.63,492.92,80.68,485.37,79.68,477.83Z"/><path class="cls-7" d="M465.73,408.88l39.85,0c-.25,9.6,1,19.24-.8,28.81a24.46,24.46,0,0,1-22.35,20c-6.86.39-13.88,1.25-20.71-.73,5.46-3.37,11.29-1.38,15.94-1.26-6.78-3.3-12.07-9.11-13.15-17.62s-.42-16.93-.24-25.4a5.14,5.14,0,0,1,1.5-3.6Z"/><path class="cls-8" d="M464.73,128.14l-23.65.5c3.92-13.88,9.91-27,14.67-40.59,1-2.81,2.13-5.56,3.21-8.34a6.37,6.37,0,0,1,4.51-1.65c6.57-.17,13.13-.2,19.7,0a6,6,0,0,1,4.44,1.81,3,3,0,0,1,.11.89c-6.81,14.64-13.31,29.43-20.24,44C466.83,126.15,466.23,127.5,464.73,128.14Z"/><path class="cls-9" d="M465.77,409c0,7.28.37,14.57-.1,21.82-.82,12.43,5.23,20.23,15.87,26.06H461.72C449,454.51,441.39,445.37,441,431.67c-.22-7.61.05-15.23.1-22.84Z"/><path class="cls-10" d="M464.73,128.14Q474.86,105.72,485,83.3c.54-1.21,1.1-2.47,2.74-2.52,6,13,10.27,26.67,15.43,40,1,2.56,2.74,5,2.46,7.93l-39.9,0Z"/><path class="cls-11" d="M487.61,79.89,459,79.71c2.26-6,4.5-12,6.78-18,1.39-3.62,4.13-5.68,7.94-5.6,3.62.08,6.17,2.28,7.43,5.65C483.35,67.79,485.45,73.85,487.61,79.89Z"/><path d="M141.83,101.61c1.75.82,3.37,1.77,4.14,3.68.48,1.18,1.5.68,2.27.68q23.32,0,46.66,0c3.65,0,7.31,0,11,0,2.39,0,3.94,1,4.31,3.48.32,2.28-.43,3.52-2.49,4.09a13.77,13.77,0,0,1-3.79.27H150.76c-3.22,0-3.38.18-3.38,3.36q0,17.63,0,35.26c0,3.59.09,3.68,3.79,3.68H259.55c1.27,0,2.55,0,3.81,0,4.68.09,9.37,0,14.05.06a4.06,4.06,0,0,0,4.16-2.51c2.7-5.66,5.88-11.08,8.63-16.72a4,4,0,0,0-.09-4c-2.77-5.09-5.56-10.17-8-15.41-1.33-2.83-3-3.9-6.19-3.88q-26.43.14-52.87,0c-3.15-.85-3.74-1.69-3.25-4.54.48-2.21,1.95-3.14,4.12-3.14Q253,106,282,106a4.34,4.34,0,0,1,4.16,2.6c4.2,8.08,8.39,16.16,12.65,24.21a4.62,4.62,0,0,1,0,4.71q-6.39,12.06-12.66,24.2a4.24,4.24,0,0,1-4.18,2.56c-.71,0-1.43,0-2.14,0q-65.51,0-131,0c-1.63,0-2.72.23-3.59,1.84-1.06,2-3.09,2.65-5.27,2.66q-27,0-54.07,0c-4.18,0-6.52-2.55-6.52-6.81,0-17.71,0-35.41-.06-53.12a7.46,7.46,0,0,1,4.34-7.16Z"/><path class="cls-12" d="M263.85,157c-.79,0-1.58.12-2.37.12q-56.12,0-112.23,0c-2.06,0-2.83-.37-2.81-2.67.13-12.95.11-25.89,0-38.84,0-1.94.45-2.53,2.47-2.52,18.83.08,37.65,0,56.47,0,3.31,0,4.18-.7,4.77-3.68,3.21.09,6.44.74,9.61-.32a3.68,3.68,0,0,0,3.12,4.05c7.54.27,15.08.06,22.62.11,4.92,0,9.84.1,14.76,0a2.88,2.88,0,0,1,3.34,2.51,81.85,81.85,0,0,1,2.75,16.18c.36,7.13.37,14.29-1,21.36C265.1,154.61,265,156,263.85,157Z"/><path class="cls-13" d="M210.16,286.27c2.83.57,5.69.11,8.52.26.6,0,.78-.45,1.13-.75,1.63,3.7,4.78,3.89,8.25,3.86,10.2-.11,20.41-.05,30.61,0,1.32,0,2.71-.21,3.9.65,1.45,2.62,1.85,5.55,2.42,8.42a87.18,87.18,0,0,1,.41,31.23c-.67,4.13-1.13,4.47-5.21,4.47q-55.11,0-110.22,0c-1.17,0-2.39.22-3.46-.52a4.93,4.93,0,0,1-.67-3.2q0-18.45,0-36.91c0-3.63.52-4.14,4.14-4.15q24.41,0,48.82,0c.95,0,1.9,0,2.85,0C205,289.71,208.22,289.68,210.16,286.27Z"/><path d="M214.91,252.71q-33.24,0-66.48,0c-1.36,0-2.23.19-3,1.58-1.24,2.36-3.54,2.87-6.1,2.86q-24.54-.06-49.08,0c-1.51,0-3,0-4.53,0-4-.1-6.33-2.46-6.35-6.44,0-8.34,0-16.68,0-25q0-14.3,0-28.6c0-4.58,2.26-6.91,6.86-6.92,17.79,0,35.58,0,53.37,0,2.78,0,5,.89,6.21,3.51a1.46,1.46,0,0,0,1.67.92c.55,0,1.11,0,1.66,0q65.78,0,131.54-.06c3.06,0,4.76,1.05,6.1,3.75,3.82,7.65,7.84,15.21,11.87,22.75a5.12,5.12,0,0,1,0,5.35q-6.21,11.64-12.22,23.37a5,5,0,0,1-5.05,3.08C259.24,252.68,237.08,252.71,214.91,252.71Z"/><path d="M262.4,290.3c-4.91-.06-9.82-.14-14.73-.15-7.77,0-15.54,0-23.32,0-3.38,0-4.41-1.06-4.54-4.35.62-2.06,2.09-2.8,4.15-2.8q28.93,0,57.88,0a4.45,4.45,0,0,1,4.37,2.63q6.29,12.12,12.66,24.2a4.6,4.6,0,0,1-.07,4.71c-4.23,8-8.43,16-12.53,24-1.17,2.28-2.95,2.78-5.28,2.77q-54.3,0-108.61,0c-8,0-16,0-24.06,0-1.24,0-2.13.05-2.82,1.44a5.34,5.34,0,0,1-5.09,2.93q-27.51,0-55,0a5.83,5.83,0,0,1-6-6.1q-.06-27.39,0-54.78c0-3.71,2.54-6.09,6.43-6.17,4.21-.09,8.42,0,12.63,0,13.34,0,26.67,0,40,0,3.24,0,6,.58,7.52,3.81.53,1.14,1.51.66,2.29.66q24.06,0,48.11,0c3.18,0,6.36,0,9.53,0,2.29,0,3.81.91,4.22,3.29-.5,3.14-1.42,3.86-5.09,3.87-18.64,0-37.29,0-55.93-.05-2.2,0-2.71.59-2.69,2.73.1,12.85.05,25.7.06,38.55,0,.79.1,1.57.16,2.36a5,5,0,0,0,2.57.22c37.31,0,74.63.1,112-.09,5.52,0,11.07-.33,16.62-.39a3.52,3.52,0,0,0,3.36-2.17c2.93-5.81,6-11.55,9-17.31a3.77,3.77,0,0,0,0-3.63c-2.8-5.79-6-11.37-8.86-17.14a3.81,3.81,0,0,0-3.88-2.17c-4,.05-7.94,0-11.91,0C264.45,291.05,263.3,291.17,262.4,290.3Z"/><path class="cls-14" d="M86.66,161.18q-.06-14.3-.11-28.58c0-7.39,0-14.78,0-22.16,0-1,0-1.73,1.44-1.72,12.55.1,25.09.1,37.64.13.88.89.78,2,.78,3.13q0,23.07,0,46.14c0,3.14-.22,3.3-3.4,3.3H89A4.22,4.22,0,0,1,86.66,161.18Z"/><path class="cls-15" d="M263.85,157a85.8,85.8,0,0,0,1.49-27.31c-.45-4.58-1.47-9-2.36-13.5-.44-2.21-1.44-2.68-3.51-2.67-11.35.1-22.7.06-34,0-.85,0-1.76.28-2.53-.34q28.08,0,56.15-.07a2.13,2.13,0,0,1,2.16,1.42c3.36,6.47,6.73,12.93,10.17,19.36a2.47,2.47,0,0,1-.1,2.62q-5,9.47-9.91,19c-.51,1-1,1.66-2.3,1.64C274,157,268.92,157,263.85,157Z"/><path class="cls-16" d="M86.66,161.18c12.13,0,24.25-.07,36.38,0,2.12,0,2.64-.59,2.63-2.67-.08-16.56,0-33.13,0-49.69,4,0,7.94,0,11.9-.13,1.76-.07,1.86.71,1.85,2.09,0,7.86,0,15.72,0,23.58,0,8.42,0,16.83,0,25.25,0,1.33-.16,2-1.77,2-16.59-.05-33.18,0-49.77,0C87.42,161.59,86.85,161.86,86.66,161.18Z"/><path d="M185.17,140.66h21.19c2.81,0,4.47,1.3,4.51,3.46s-1.68,3.68-4.59,3.68q-21.43,0-42.87,0c-2.84,0-4.4-1.28-4.45-3.52s1.53-3.61,4.53-3.62Z"/><path d="M173.45,130.21c-3.41,0-6.83,0-10.24,0-2.65,0-4.18-1.28-4.25-3.44s1.49-3.68,4.25-3.69q10.35,0,20.7,0c2.56,0,4.15,1.43,4.16,3.57s-1.59,3.54-4.15,3.56C180.43,130.23,176.94,130.21,173.45,130.21Z"/><path class="cls-17" d="M262.4,290.3c5.63-.05,11.26-.08,16.89-.17,1.1,0,1.52.58,1.95,1.4q5,9.69,10.15,19.36a2.3,2.3,0,0,1,0,2.41c-3.42,6.44-6.85,12.87-10.13,19.38-.76,1.52-1.83,1.43-3.1,1.43l-106,0c-7.78,0-15.56,0-23.34,0-.72,0-1.58.42-2.18-.38q57,0,114,0c2.4,0,3.41-.54,3.83-3.11a98.66,98.66,0,0,0,.84-23.85C265,301.16,263.38,295.8,262.4,290.3Z"/><path d="M185,317.53c7.22,0,14.45,0,21.68,0,3.27,0,5.11,2.54,3.81,5.13a3.55,3.55,0,0,1-3.49,2q-22,0-44.07,0c-2.43,0-3.92-1.41-4-3.51s1.53-3.6,4.1-3.61C170.36,317.51,177.66,317.53,185,317.53Z"/><path class="cls-18" d="M173.58,307.11c-3.49,0-7,0-10.47,0-2.66,0-4.14-1.33-4.15-3.52s1.5-3.59,4.11-3.61c7,0,14,0,20.94,0,2.57,0,4.11,1.5,4.05,3.67s-1.55,3.41-4,3.44C180.56,307.14,177.07,307.1,173.58,307.11Z"/><path class="cls-19" d="M263.84,245.48c-.72,0-1.43.08-2.14.08q-56.34,0-112.67.05c-2.09,0-2.6-.48-2.58-2.58.1-13.1.08-26.2,0-39.3,0-1.65.4-2.11,2.08-2.11q56.22.07,112.44,0c.47,0,.94.05,1.42.09,2,3,2.23,6.59,2.83,10a86.28,86.28,0,0,1-.09,30.78C265,243.62,264.85,244.75,263.84,245.48Z"/><path class="cls-14" d="M125.63,249.83q-16.89.06-33.77.12c-5.31,0-5.31,0-5.31-5.41V199.33c0-1-.4-2.14,1.51-2.12,12.29.08,24.58,0,36.87,0a4.11,4.11,0,0,1,.7.13,4.39,4.39,0,0,1,.77,3.16q0,23.05,0,46.12A4.34,4.34,0,0,1,125.63,249.83Z"/><path class="cls-20" d="M263.84,245.48a90.71,90.71,0,0,0,1.55-27.26c-.49-5.61-2-11-3-16.46,5.63,0,11.27,0,16.91-.12a1.79,1.79,0,0,1,1.81,1.18q5.14,9.92,10.37,19.8a2.06,2.06,0,0,1-.11,2.19c-3.39,6.45-6.79,12.9-10.14,19.38a2.1,2.1,0,0,1-2.16,1.4C274,245.5,268.92,245.5,263.84,245.48Z"/><path class="cls-16" d="M125.63,249.83V197.39c4.12,0,8.24,0,12.36-.16,1.51,0,1.37.9,1.36,1.87v17.13c0,10.55,0,21.1,0,31.65,0,1.67-.45,2.17-2.12,2.11C133.4,249.84,129.51,249.87,125.63,249.83Z"/><path class="cls-14" d="M125.62,338.4q-18.83,0-37.64.09c-.88,0-1.46,0-1.46-1.21q.12-25.61.14-51.22a3.65,3.65,0,0,1,2.09-.23h34.72c2.56,0,2.9.24,2.91,2.83q.09,23.53,0,47.08A3.41,3.41,0,0,1,125.62,338.4Z"/><path class="cls-16" d="M125.62,338.4c0-16.57,0-33.14,0-49.7,0-2.08-.51-2.68-2.63-2.67-12.13.1-24.25,0-36.38,0,.47-.83,1.26-.4,1.88-.4,16.2,0,32.39,0,48.59,0,1.75,0,2.27.4,2.26,2.22q-.1,24.3,0,48.59c0,1.68-.45,2.15-2.11,2.09C133.4,338.37,129.51,338.42,125.62,338.4Z"/><path d="M119.35,135.2c0,4,0,8.08,0,12.12,0,2.93-1.38,4.54-3.71,4.48s-3.42-1.53-3.43-4.46c0-6.49,0-13,0-19.49,0-1.56-.08-2.48-2.08-2.39a3.33,3.33,0,0,1-3.58-3.31,3.5,3.5,0,0,1,3.49-3.73,45.17,45.17,0,0,1,5.7,0c2.31.15,3.55,1.61,3.58,4.18C119.38,126.8,119.35,131,119.35,135.2Z"/><path d="M184.81,235.62H163.37c-2.91,0-4.39-1.21-4.41-3.49s1.53-3.64,4.33-3.64q21.56,0,43.11,0c2.77,0,4.44,1.41,4.47,3.58s-1.63,3.55-4.39,3.55C199.26,235.63,192,235.62,184.81,235.62Z"/><path class="cls-21" d="M173.65,211c3.41,0,6.82,0,10.23,0,2.66,0,4.17,1.37,4.19,3.53s-1.49,3.56-4.13,3.58q-10.47.07-20.94,0c-2.66,0-4.09-1.42-4-3.64s1.46-3.42,4-3.47C166.51,210.91,170.08,211,173.65,211Z"/><path d="M113.54,233.41c2.47,0,4.44,0,6.41,0a3.55,3.55,0,0,1,3.76,3.47,3.45,3.45,0,0,1-3.63,3.59c-4.35.12-8.72.15-13.07,0-3.6-.14-5.08-3.24-3-6.22,2.72-3.9,5.6-7.68,8.4-11.52a19.77,19.77,0,0,0,2.75-4.7,2.78,2.78,0,0,0-1.61-3.9c-1.81-.77-3.24-.14-4.13,1.64-.1.21-.15.44-.25.66-1,2.38-2.57,3.26-4.58,2.56s-2.86-2.63-2.13-5.07a10.3,10.3,0,0,1,13.3-6.64,10.06,10.06,0,0,1,6.14,13.09c-1.27,3.57-3.68,6.44-5.79,9.49C115.35,230.94,114.55,232,113.54,233.41Z"/><path d="M112.9,295.08a10.17,10.17,0,0,1,9.07,15,3.36,3.36,0,0,0,0,3.94,9.86,9.86,0,0,1-1.22,11.51,10.28,10.28,0,0,1-11.25,3,10.15,10.15,0,0,1-6.78-9.17c0-2.27,1.15-3.83,3.12-4.07a3.56,3.56,0,0,1,3.92,3.3c.24,1.56.71,2.82,2.32,3.23a2.94,2.94,0,0,0,3.82-2,2.88,2.88,0,0,0-1.58-3.78,6.65,6.65,0,0,0-1.82-.45,3.37,3.37,0,0,1-3-3.39c-.08-2.07,1.11-3.2,3-3.67a9.75,9.75,0,0,0,1.83-.41,2.89,2.89,0,0,0,1.76-3.09,3.13,3.13,0,0,0-5.66-1.51,5,5,0,0,0-.5,1.07c-1.09,2.62-2.84,3.59-4.93,2.73-1.92-.78-2.59-2.78-1.78-5.23A10.21,10.21,0,0,1,112.9,295.08Z"/></g></g></svg>