<svg xmlns="http://www.w3.org/2000/svg" viewBox="0 0 479.83 399.84"><defs><style>.cls-1{fill:#2b2e33;}.cls-2{fill:#3f4349;}.cls-3{fill:#202326;}.cls-4{fill:#36393f;}.cls-5{fill:#ecf3f9;}.cls-6{fill:#f4c7aa;}.cls-7{fill:#c1cee8;}.cls-8{fill:#f2b89e;}.cls-9{fill:#181a1c;}.cls-10{fill:#4268aa;}.cls-11{fill:#345386;}.cls-12{fill:#0ed770;}.cls-13{fill:#04b15c;}</style></defs><g id="Layer_2" data-name="Layer 2"><g id="Layer_1-2" data-name="Layer 1"><path class="cls-1" d="M0,276.89V26A29.32,29.32,0,0,1,26,0H452.84c11.48,1.24,19.69,7,24.72,17.45,1.48,3.1,1.36,6.4,2.27,9.54v249.9c-3.27,18.79-14.8,28.47-34.11,28.49q-42.9,0-85.82,0c-2.32,0-4.67.19-6.93-.56-2.47-1.26-1.32-3.15-.57-4.68,5.58-11.33,11.19-22.64,16.93-33.88a6.12,6.12,0,0,1,4-3.53,36.58,36.58,0,0,1,8-.42q40.68,0,81.35,0c7.41,0,7.64-.2,7.59-7.48,0-5,.35-10,.08-15-.16-66.47,0-132.94-.08-199.41,0-3,.07-6,0-9A22.29,22.29,0,0,0,448.46,9.65c-2.33-.09-4.66,0-7,0q-177.69,0-355.38,0a29.78,29.78,0,0,1-3-.06C66,9.45,48.8,9.41,31.66,9.73c-12,.23-21.26,9.69-22,21.7-.11,1.83-.07,3.67-.07,5.5q0,108.15,0,216.29c0,9.07,0,9.07,9,9.08H196.46a70.53,70.53,0,0,1,8.48.22c2.46.15,4.31,1.5,6,3.16,11.26,11.2,22.53,22.39,33.62,33.75,1.29,1.32,5,3.16.71,5.57a26,26,0,0,1-6.46.44q-102.61,0-205.22,0c-12.72,0-22.78-5.07-30-15.77C1,285.72,1,281.21,0,276.89Z"/><path class="cls-2" d="M139.92,368q24-.09,48.06-.15c2,0,4,.29,4.89-2.12,5.82,1,11.7.47,17.55.67,12.58-.31,25.16-.1,37.74-.11a33.73,33.73,0,0,0,4.93-.3c25.62.57,51.25.09,76.87.25a55.58,55.58,0,0,1,8.46.32c9.91,3.05,15,9.25,14.72,17.86-.27,8-4.91,13.35-13.26,15.4H140c-6.82-1.3-11.2-5.32-12.76-12.06-1.49-6.46.39-12,5.13-16.66C134.5,369,137.21,368.62,139.92,368Z"/><path class="cls-3" d="M207.73,319.94c-55.79,0-111.59-.47-167.37.16-20.11.23-34.12-6.36-40.36-26.22v-17c1.66,3.54,2.16,7.49,4.27,10.93,6.67,10.9,16.38,16.06,29,16.06h207.4c2.16,0,4.33-.06,6.49-.09,5.52,3.74,7.37,9.42,8.27,15.62a4.28,4.28,0,0,1-4.52,2c-12,0-24.08.05-36.12,0C212.37,321.41,209.79,321.83,207.73,319.94Z"/><path class="cls-3" d="M479.83,293.88c-1.28.67-.93,2-1.27,3.08-4.5,14-16.34,22.84-31.09,22.88-28.81.09-57.62,0-86.43,0-2,0-4,.11-6,.17a2.66,2.66,0,0,1-3.58-.27c-1.45-5.36-2.48-10.71.66-15.88,31.81,0,63.62-.11,95.44,0,13.84.06,28.43-9.33,31.41-25.85.08-.43.56-.79.85-1.18Z"/><path class="cls-4" d="M139.92,368c-10.63,4.83-14.56,13.27-10.54,22.61,2.05,4.77,6.51,6.76,10.57,9.21H104c0-5.3-.08-10.6,0-15.89.21-9.25,6.82-15.91,16.07-16.06C126.68,367.78,133.3,368,139.92,368Z"/><path class="cls-4" d="M339.88,399.84c10.74-5.55,14.4-13.08,10.77-22.26-2-5-6.13-7.59-10.75-9.66a16.39,16.39,0,0,1,15-.12c3.27.25,6.58-.28,9.82.84a16,16,0,0,1,11.12,14.84c.16,5.45,0,10.91.05,16.36Z"/><path class="cls-5" d="M83,8.17C86,8.11,89,8,92,8c117.86,0,235.73.16,353.59-.21a26,26,0,0,1,26.5,26.37c-.48,66.58-.21,133.17-.22,199.76,0,2-.11,4-.17,6-1.87,9.85-8,15-18.92,15.44-9.46.33-18.95.08-28.42.09q-20.7,0-41.4,0c-2.46,0-5,.3-7.24-1.24-2.36-4.41-1.07-9.15-1.25-13.75,0-13.05.07-26.12-.05-39.18-.08-9.68-5.43-15.18-15.22-15.91-5.15.14-8.89,2.75-11.84,6.77-.84,1.14-1.27,2.72-3,3-3.16-2.77-1.7-6.48-1.71-9.74,0-4.94-1.44-9-5.09-12.34a14,14,0,0,0-10.86-3.75c-5.06.32-8.66,3-11.5,7-.75,1.06-1.22,2.4-2.63,2.87-1.82-.6-1.69-2.24-1.91-3.67-1.47-9.62-6.81-14.26-16.35-14.17-4.83.52-8.23,3.21-11.08,6.94-.88,1.16-1.29,4-3.91,2a10.72,10.72,0,0,1-1-5.34q-.08-15.67,0-31.35a10.62,10.62,0,0,1,.95-5.33c2.07-2.29,4.87-1.75,7.45-1.77,12.92-.07,25.84,0,38.76-.06,10.22-.07,15.54-4.87,16.9-15-.25-9.48-.05-19-.11-28.43-.07-12-5.38-17.43-17.32-17.44q-79.34,0-158.65,0a54.25,54.25,0,0,1-6-.11c-3,.14-6-.09-9,.16-7.66.65-13.26,5.76-13.66,13.43a331.43,331.43,0,0,0,0,34c.36,7,5.81,12.24,12.85,13.23a50.79,50.79,0,0,0,7,.22q41.22,0,82.44,0c2.63,0,5.35-.39,7.82,1,1.85,1.87,1.55,4.29,1.56,6.58q0,56.82,0,113.65a22.94,22.94,0,0,1-.13,3c-.22,1.67-.44,3.47-2.31,4.06-1.72.53-2.72-1-3.73-2-8.22-8.24-16.48-16.42-24.66-24.69a69.52,69.52,0,0,0-10.23-8.7c-6.32-3.47-13.21-2.72-18.31,2-4.81,4.48-6.11,12.1-3.23,18.31,1.8,3.86,5,6.49,7.77,9.57,1.25,1.41,3.8,2.61,1.86,5.26-2.21,1-4.57.77-6.89.77-18.31,0-36.62.21-54.93,0-48.21-.62-86.82-30.94-100-74.71a93.63,93.63,0,0,1-4.07-27.07c0-28.8-.33-57.6.11-86.39.38-25.24,12.33-43.61,34.94-55C71.12,9.31,77.05,8.85,83,8.17Z"/><path class="cls-6" d="M312.88,178.85c2-6.4,6.62-9.73,13.06-10.82,8.15,3.24,11.48,9.49,11.46,18,0,15.28-.07,30.57.06,45.85,0,2.19-1.13,5.91,2.63,5.8,3.23-.1,2.19-3.59,2.22-5.69.15-9.8,0-19.6.1-29.4,0-2.79-.22-5.75,2.46-7.73,2-6.4,6.62-9.74,13.06-10.83,8.1,3.26,11.46,9.5,11.41,18,0,9.11.27,18.24-.11,27.34-.22,5.33.36,9.48,6.53,10.54l.06,14c.34,4-.46,7.5-3.86,10l-19.83,40q-.13,7.94-.26,15.86c-1.19,1.45-2.89,1.63-4.55,1.63-24.47,0-48.95.46-73.4-.22-3.06-.51-4.39-2.91-5.37-5.38-3.66-9.19-10-16.28-17-23.09-16.06-15.69-31.69-31.8-47.73-47.51-7.43-7.28-7.13-21.73,4.14-27.4,3.35,1.28,5.84,3.71,8.31,6.16q15.24,15.06,30.46,30.2c1.59-.89,1.12-2.53,1.12-3.93q0-61.15-.07-122.31c-2-6.8,3.24-14.15,11.57-16.21a9,9,0,0,1,1.8.07c8.14,3,12.11,8.41,12.21,17.41.17,15.81,0,31.61,0,47.42,0,18.31,0,36.61.06,54.91,0,2.24-1,6,2.37,6s2.37-3.76,2.39-6c.12-17.14,0-34.28.1-51.42,0-3.28-.31-6.74,2.51-9.31,2-6.4,6.62-9.74,13.06-10.83,8.17,3.22,11.49,9.49,11.48,18,0,17.78-.07,35.56.06,53.34,0,2.33-1.33,6.36,2.62,6.24,3.28-.09,2.17-3.9,2.19-6.15.12-14.79,0-29.58.09-44.36C310.41,184.14,310.05,181,312.88,178.85Z"/><path class="cls-7" d="M83,8.17C72.6,10.63,62.66,13.88,54.16,20.83,40.49,32,32.57,46.4,32.19,63.8c-.68,31.14-.85,62.32,0,93.45.65,23.25,9.46,43.88,25,61.48a101.1,101.1,0,0,0,47.91,30.78,98.45,98.45,0,0,0,26.41,4.24c21.81.35,43.64.09,65.46.07a15.76,15.76,0,0,1,10,9.92c-1.66.05-3.32.15-5,.15q-94.16,0-188.31.09c-4.27,0-5.83-.69-5.82-5.51Q8.14,146.58,8,34.7C8,17.72,17.66,8,34.54,8,50.69,8,66.83,8.11,83,8.17Z"/><path class="cls-8" d="M207,263.74a73.67,73.67,0,0,0-10-9.92c-2.84-3-5.75-5.92-8.5-9a17.78,17.78,0,0,1-.66-23.18c3.6-4.41,13.46-8.47,20.16-3.86a2,2,0,0,1-.22.44c-11.19,13.56-11,18.07,1.51,30.55,14,14,27.68,28.36,42.14,41.88a87.59,87.59,0,0,1,20.47,29c-1,1.39-2.57,1.45-4.09,1.57-2.73-.09-5.47.2-8.2,0-1.76-.15-3.6-.23-4.51-2.18-2.45-5.2-4.57-10.57-8-15.29C234,290.16,220.8,276.66,207,263.74Z"/><path class="cls-7" d="M372,263.87l3.87-10c24.6,0,49.22-.13,73.82.1,10.63.1,18.25-3.75,22-14,.06,6.48-.11,13,.27,19.44.22,3.78-.94,4.66-4.66,4.65C435.5,263.82,403.73,263.88,372,263.87Z"/><path class="cls-9" d="M207.73,319.94c13.32,0,26.64-.06,40-.05,1.45,0,3-.42,4.21.92-1.53,3.09-2.47,6.45-4.07,9.52-2.65,1.37-5.51.8-8.29.86-11.74.26-17.59,4.49-21.34,15.58-1.79,5.33-3.55,10.67-5.33,16-.64,1.9-1.29,3.77-3,5l-13.29.05c-1.65,0-3.41.23-3.73-2.1Q200.3,342.85,207.73,319.94Z"/><path class="cls-10" d="M267.86,320l4.05-.32,80,.05,3.18.29c3.76,2.29,5.08,5.59,4.9,10-.32,8.28-.18,16.57-.24,24.86-.91,4.55-4.1,6.26-8.31,6.29-19.43.18-38.87.59-58.28-.11-17-.61-31.38-16.82-30.62-33.26C262.67,324.1,263.53,320.88,267.86,320Z"/><path class="cls-11" d="M267.86,320c-4.86,2.82-4.34,7.57-3.83,12,1.83,15.79,15.73,27.86,31.79,27.87,18,0,35.91-.1,53.86.08,4.43.05,7.75-1.2,10-5,.84,5.21-.06,9.77-4.83,12.88l-15,.12-80.26-.06c-2.32,0-4.66.16-6.85-.86-3.6.45-5.47-1.92-5.77-4.76a143.45,143.45,0,0,1,0-31.14c.06-.48.48-.86.76-1.27-.09-3.66.75-6.91,4.09-9l3.21-1.74C259.26,320.79,263.64,319.32,267.86,320Z"/><path class="cls-1" d="M247.81,329.83c0,9.63.09,19.26.1,28.88,0,3.75.88,6.93,4.88,8.29-1.2,1.3-2.78.83-4.21.83q-19.35,0-38.69,0c2.63-8,5.22-16,7.93-24,3-8.7,9.89-13.62,19.56-13.92C240.86,329.79,244.34,329.85,247.81,329.83Z"/><path class="cls-12" d="M259.63,112.87l-.77-.24c-21.41,1.7-42.86,1-64.27.58-19.79-.39-35.33-16.65-36-36.45-.14-4.2-1.26-8.65,1.35-12.62,14.82-.06,29.64-.15,44.46-.16q61.22,0,122.42,0c10.64,0,17.07,6.41,17.06,17,0,10.33-.11,20.65-.17,31-2.22,2-5,1.58-7.61,1.57-22.14,0-44.29.23-66.43-.14C266.26,114.35,263.05,111.65,259.63,112.87Z"/><path class="cls-13" d="M159.93,64.14c.11,9.26-.83,18.63,3.75,27.33,7,13.26,18,20.23,32.87,20.42,19,.25,38,0,57,.09,1.78,0,3.68-.52,5.34.65-6.82,2.83-10.61,7.83-11,15.28q-47.39,0-94.75,0c-10.48,0-17-6.69-17.11-17.21-.07-9.47,0-18.94,0-28.42C136,70.13,142.18,64,154.46,64,156.28,64,158.1,64.09,159.93,64.14Z"/><path class="cls-8" d="M259.63,112.87c2.85-1.8,6-.55,8.95-.8,5.83.9,9.28,4.67,11.58,9.75.91,2,1.39,4.1-.15,6.1q-.06,19.65-.09,39.32c0,1.26-.43,2.71,1,3.62-2.1,15.71-.52,31.5-1,47.25-.16,5.65-.12,11.31,0,17,.08,3-.19,5-4.14,5-4.21,0-3.91-2.39-3.91-5.18q0-53.11,0-106.24C271.89,120.45,267,114.3,259.63,112.87Z"/><path class="cls-13" d="M280,127.92c-.05-8-4.81-12.59-11.43-15.85l75.12-.1c.52,8.74-7.72,16.1-16.24,16C311.65,127.83,295.83,127.92,280,127.92Z"/><path class="cls-8" d="M312.88,178.85a29.43,29.43,0,0,0-1,8.36c.07,16,0,32,.08,48,0,3.16-.45,4.88-4.28,4.84s-3.8-2.08-3.79-4.8c.05-18.66-.15-37.32.11-56,.1-7.43-1.89-13.35-8.48-17.31-.66-.39-1-1.26-1.55-1.91,11-.31,17.24,5.33,17.94,16.23C312,177.23,311.82,178.27,312.88,178.85Z"/><path class="cls-8" d="M344.87,194.85c-1.89,6.87-.76,13.89-.95,20.84q-.27,10,0,20c.1,3.28-1,4.33-4.29,4.32s-3.82-1.49-3.8-4.29c.08-16.15-.15-32.31.12-48.46.12-7.44-1.89-13.36-8.48-17.31-.66-.4-1-1.26-1.55-1.91,9.21-2.14,19.33,7.88,18.08,17.3C343.62,188.38,342.84,191.85,344.87,194.85Z"/><path class="cls-8" d="M375.76,239.88a28.81,28.81,0,0,0-3.48.05c-3.53.45-4.53-1.11-4.47-4.53.18-10.92-.11-21.86.13-32.79.15-7-1.89-12.61-8.09-16.37a9.67,9.67,0,0,1-1.92-2.22c11.48-.32,17.95,6,17.94,17.5C375.85,214.3,375.79,227.09,375.76,239.88Z"/></g></g></svg>