<svg xmlns="http://www.w3.org/2000/svg" width="100%" height="100%" viewBox="0 0 31.65 31.626">
  <g id="Group_5040" data-name="Group 5040" transform="translate(-319.422 -975.391)">
    <path id="Path_1658" data-name="Path 1658" d="M339.306,1011.1a15.813,15.813,0,1,1,15.837-15.09A15.85,15.85,0,0,1,339.306,1011.1Z" transform="translate(-4.084 -4.081)" fill="#0d2c36"/>
    <path id="Path_1659" data-name="Path 1659" d="M369.033,1037.786a12.8,12.8,0,1,1,12.822-12.218A12.833,12.833,0,0,1,369.033,1037.786Z" transform="translate(-33.806 -33.781)" fill="var(--currentThemeColor)"/>
    <g id="Group_5038" data-name="Group 5038" transform="translate(329.108 982.524)">
      <path id="Path_1660" data-name="Path 1660" d="M472.731,1078.481l5.785-.006q2.56,0,5.12,0c.488,0,.682.2.682.688q0,8,0,16a3.227,3.227,0,0,1-.049.4c-.072.315-.153.388-.459.411-.115.009-.231.009-.346.009q-5.083,0-10.166,0a.867.867,0,0,1-.586-.093.386.386,0,0,1-.09-.267c-.006-.1-.008-.193-.008-.289q0-8.152,0-16.3C472.616,1078.84,472.555,1078.632,472.731,1078.481Z" transform="translate(-472.044 -1078.474)" fill="#fefefe"/>
      <path id="Path_1661" data-name="Path 1661" d="M464.344,1078.531q0,8.685,0,17.37a.347.347,0,0,1-.553-.044.466.466,0,0,1-.083-.243.949.949,0,0,1-.044-.37q0-8.029,0-16.057C463.664,1078.7,463.874,1078.5,464.344,1078.531Z" transform="translate(-463.657 -1078.524)" fill="#0d2c36"/>
      <path id="Path_1662" data-name="Path 1662" d="M463.623,1353.209a.575.575,0,0,0,.636.287l6.068.007c1.6,0,3.2,0,4.8,0a.709.709,0,0,0,.672-.3,1.331,1.331,0,0,1,.02.738.486.486,0,0,1-.513.417c-.347,0-.693,0-1.04,0-3.264,0-6.528-.016-9.792.011C463.6,1354.378,463.483,1354.024,463.623,1353.209Z" transform="translate(-463.573 -1336.119)" fill="#0d2c36"/>
      <path id="Path_1663" data-name="Path 1663" d="M575.963,1266.013a2.128,2.128,0,0,1,2.106,2.2,2.106,2.106,0,0,1-2.2,2.1,2.144,2.144,0,0,1-2.1-2.175A2.169,2.169,0,0,1,575.963,1266.013Z" transform="translate(-566.919 -1254.349)" fill="var(--currentThemeColor)"/>
      <path id="Path_1664" data-name="Path 1664" d="M493.528,1220.92H489.3a1.4,1.4,0,0,1-.288-.015.364.364,0,0,1-.006-.714,1.466,1.466,0,0,1,.316-.019q4.181,0,8.362,0a1.389,1.389,0,0,1,.344.028.338.338,0,0,1,.277.359.361.361,0,0,1-.325.353,1.658,1.658,0,0,1-.26.008Z" transform="translate(-487.157 -1211.359)" fill="#bbbdbf"/>
      <path id="Path_1665" data-name="Path 1665" d="M493.548,1244.263h4.2a2.067,2.067,0,0,1,.289.01.362.362,0,0,1,.071.7.877.877,0,0,1-.371.041h-8.361a1.119,1.119,0,0,1-.372-.037.337.337,0,0,1-.244-.379.327.327,0,0,1,.309-.325,2.088,2.088,0,0,1,.289-.008Z" transform="translate(-487.187 -1233.953)" fill="#bbbdbf"/>
      <path id="Path_1666" data-name="Path 1666" d="M493.523,1196.838H489.33a2.085,2.085,0,0,1-.289-.009.356.356,0,0,1-.07-.686,1.321,1.321,0,0,1,.37-.051q4.193,0,8.387,0a.991.991,0,0,1,.37.052.34.34,0,0,1,.222.368.319.319,0,0,1-.286.316,2.147,2.147,0,0,1-.317.013Z" transform="translate(-487.173 -1188.775)" fill="#bcbdbf"/>
      <path id="Path_1667" data-name="Path 1667" d="M490.9,1324.2c-.559,0-1.118,0-1.676,0-.322,0-.484-.133-.479-.372s.166-.374.482-.375q1.676,0,3.353,0c.3,0,.494.158.492.377s-.2.369-.495.37C492.018,1324.2,491.459,1324.2,490.9,1324.2Z" transform="translate(-487.179 -1308.216)" fill="#bbbdbf"/>
      <path id="Path_1668" data-name="Path 1668" d="M490.8,1172.539c.54,0,1.08,0,1.62,0,.3,0,.457.126.454.364,0,.274-.191.374-.422.376-1.089.008-2.179.01-3.268,0-.305,0-.447-.155-.441-.389s.153-.347.466-.349C489.736,1172.537,490.266,1172.539,490.8,1172.539Z" transform="translate(-487.174 -1166.689)" fill="#bcbec0"/>
      <path id="Path_1669" data-name="Path 1669" d="M490.387,1100.013c-.394,0-.789,0-1.183,0-.243,0-.421-.084-.43-.354s.178-.384.408-.387q1.226-.017,2.453,0c.279,0,.455.192.424.408-.037.261-.222.335-.461.332C491.2,1100.01,490.791,1100.013,490.387,1100.013Z" transform="translate(-487.207 -1097.971)" fill="#bcbebf"/>
      <path id="Path_1670" data-name="Path 1670" d="M523.165,1124.073h-.809a.365.365,0,0,1-.411-.354c-.022-.22.141-.385.4-.389q.823-.015,1.646,0c.274,0,.415.149.407.383-.009.257-.173.352-.4.359C523.723,1124.079,523.444,1124.073,523.165,1124.073Z" transform="translate(-518.313 -1120.533)" fill="#bbbdbf"/>
      <path id="Path_1671" data-name="Path 1671" d="M489.506,1124.083a4.065,4.065,0,0,1-.433,0,.341.341,0,0,1-.346-.353.328.328,0,0,1,.32-.373,6.474,6.474,0,0,1,.923,0,.331.331,0,0,1,.319.376.335.335,0,0,1-.322.347,4.042,4.042,0,0,1-.462,0Z" transform="translate(-487.162 -1120.547)" fill="#bcbec0"/>
      <path id="Path_1672" data-name="Path 1672" d="M563.587,1172.58a.338.338,0,0,1,.356.343.334.334,0,0,1-.355.364.314.314,0,0,1-.336-.35A.334.334,0,0,1,563.587,1172.58Z" transform="translate(-557.053 -1166.728)" fill="#bcbec0"/>
      <path id="Path_1673" data-name="Path 1673" d="M593.149,1284.265c.109.171.31.265.385.464a.4.4,0,0,1-.64.207,1,1,0,0,1-.154-.128c-.259-.242-.26-.242-.519,0-.342.319-.628.29-.792-.078.076-.2.276-.293.385-.464a.233.233,0,0,1,.055-.182c.075-.135-.049-.188-.114-.255a1.156,1.156,0,0,1-.328-.489c.2-.3.419-.333.682-.094.371.339.371.339.744,0,.262-.239.482-.208.682.1a1.191,1.191,0,0,1-.331.489c-.066.067-.19.121-.112.255A.227.227,0,0,1,593.149,1284.265Z" transform="translate(-583.477 -1270.362)" fill="#fddd3a"/>
      <path id="Path_1674" data-name="Path 1674" d="M591.083,1305.513c.313.263.44.259.73-.028.321-.317.321-.317.643,0,.289.286.414.29.731.027a.653.653,0,0,1,.009.321.416.416,0,0,1-.71.17c-.03-.025.008.006-.021-.02-.334-.3-.334-.3-.658-.005-.282.253-.583.2-.7-.119A.459.459,0,0,1,591.083,1305.513Z" transform="translate(-583.13 -1291.145)" fill="#f6ca16"/>
      <path id="Path_1675" data-name="Path 1675" d="M591.311,1311.192c.281.234.431.231.691-.015.343-.324.343-.324.669-.011.278.267.439.267.733,0,.028.2,0,.376-.207.458a.457.457,0,0,1-.5-.136c-.347-.317-.35-.316-.729.015a.408.408,0,0,1-.5.1A.293.293,0,0,1,591.311,1311.192Z" transform="translate(-583.337 -1296.477)" fill="#0d2c36"/>
      <path id="Path_1676" data-name="Path 1676" d="M591.079,1287.16c.175.172.352.343.526.516.111.111.113.213-.035.3-.3-.008-.393-.226-.465-.464A.46.46,0,0,1,591.079,1287.16Z" transform="translate(-583.128 -1274.183)" fill="#f6ca18"/>
      <path id="Path_1677" data-name="Path 1677" d="M615.676,1287.979c-.148-.081-.15-.183-.037-.3.175-.174.352-.344.528-.516a.452.452,0,0,1-.026.347C616.083,1287.767,615.969,1287.963,615.676,1287.979Z" transform="translate(-606.108 -1274.19)" fill="#f6ca18"/>
      <path id="Path_1678" data-name="Path 1678" d="M617.436,1293.22l.465-.464c.113.338-.134.452-.361.578Z" transform="translate(-607.868 -1279.431)" fill="#0d2c36"/>
      <path id="Path_1679" data-name="Path 1679" d="M591.52,1292.745l.465.464-.1.115C591.644,1293.2,591.427,1293.071,591.52,1292.745Z" transform="translate(-583.543 -1279.42)" fill="#0d2c36"/>
    </g>
  </g>
</svg>
