<svg xmlns="http://www.w3.org/2000/svg" viewBox="0 0 383.18 383.23"><defs><style>.cls-1{fill:#fefdfb;}.cls-2{fill:#fed322;}.cls-3{fill:#fedd55;}.cls-4{fill:#fcedae;}.cls-5{fill:#5eab24;}.cls-6{fill:#feea98;}.cls-7{fill:#a3e176;}.cls-8{fill:#7ed53e;}.cls-9{fill:#a3e175;}.cls-10{fill:#47821c;}.cls-11{fill:#edbe01;}.cls-12{fill:#edbe00;}.cls-13{fill:#47811c;}.cls-14{fill:#4e901e;}.cls-15{fill:#6dba35;}.cls-16{fill:#4e8f1e;}.cls-17{fill:#6dc72a;}</style></defs><g id="Layer_2" data-name="Layer 2"><g id="Layer_1-2" data-name="Layer 1"><path class="cls-1" d="M.33,373.93a1,1,0,0,0,.61.06c2,1.21,2.43,3,1.82,5.12.68,2.11,3,2.34,4.29,3.79-2.24,0-5.36.88-6.48-.24s-.24-4.24-.24-6.49Z"/><path class="cls-2" d="M382.44,359.72q0,7.15.08,14.32a7.3,7.3,0,0,1-1.78,5.07c-6.22-3.84-11.45-9-17.26-13.33-2.24-1.68-4.37-3.53-7.47-6.06Z"/><path class="cls-3" d="M376.44,382.9H7.05c-1.87-1.13-5.82-.31-4.33-4.61,5.06-5.18,11.18-9.09,16.64-13.79.75-.65,1.57-1.23,2.33-1.87C26,359,26,359,24.12,353.92a14.35,14.35,0,0,1-.69-5.15q-.06-83.36,0-166.71a8.52,8.52,0,0,1,.54-4,3,3,0,0,1,.78-.95c2.94-.8,5,1.2,7.06,2.58,11.38,7.57,23.08,14.66,34.27,22.52,12.84,8,25.46,16.43,38.12,24.76,4.8,3,9.58,6,14.3,9.15,7.65,5.12,15.42,10,23.14,15.06,2.82,1.83,5.68,3.6,8.42,5.54,1.42,1,2.84,2.1,2.67,4.18-1.82,4.46-6.13,6.42-9.55,9.16q-38.9,31.19-77.84,62.28c-9.06,7.2-18.07,14.45-27.18,21.6a44.5,44.5,0,0,0-3.88,3.38l.17.88H350.77c-5.2-4.58-10.16-8.27-15-12.14-29-23.33-58.24-46.33-87.23-69.66-5.23-4.22-10.53-8.35-15.69-12.65a7.39,7.39,0,0,1-2.47-2.74c-.55-2.56,1.49-3.47,3.06-4.54,6.11-4.21,12.29-8.31,18.72-12a35.69,35.69,0,0,0,5.4-3.88c19.42-12.14,38.48-24.83,57.63-37.39,8-4.78,15.55-10.17,23.39-15.16,6-3.8,11.86-7.68,17.81-11.5,1.66-1.09,3-2.65,4.87-3.41,5.33-2.71,9.91-6.58,15-9.7a19.31,19.31,0,0,1,3.55-2c1.54-.54,3-.74,3.33,1.51q.09,97.85,0,195.65c-.38,2.78-2.63,2.64-4.55,2.69-5.82.15-11.65,0-18,.09,4.37,4,8.84,7.11,13,10.62,2.63,2.23,5.76,3.92,7.65,7C381.61,382.59,378.25,381.83,376.44,382.9Z"/><path class="cls-4" d="M.33,160.82l.83.07C2.93,163,2.69,165.55,2.69,168q0,38.47,0,76.94,0,60.71,0,121.4c0,2.43.59,5-1,7.25a1.13,1.13,0,0,1-1.35.32Z"/><path class="cls-5" d="M103.54,228,65.31,203.23c-.42-.63-1-1.34-.84-2,1-5.1.41-10.47,2.32-15.41,1.32-3.4,4.16-5.11,7.47-6.26,15-5.26,30.1-10.39,45.16-15.58q73.94-25.47,147.88-50.87c7-2.39,10.35-1.5,15.15,4.05,6.54,7.56,14.74,11.65,24.87,11.51,1.74,0,3.49-.06,5.23.06a9.73,9.73,0,0,1,9,6.84c4.59,13.29,9.5,26.48,13.59,39.93,1.27,4.17.45,8.27-3.09,10.81-6.72,4.83-11.5,11.24-16.07,17.92-19,12.77-38,25.44-57.57,37.32-8.07,4.56-17,7-25.64,10-18.25,6.28-36.46,12.64-54.73,18.85a39.63,39.63,0,0,1-6.84,1.81,6.36,6.36,0,0,1-4.15-1.27c-4.09-2.53-8.16-5.09-12.13-7.79a5.61,5.61,0,0,1-2.56-3l-31.62-20.87c-1-.68-2-1.41-3-2.12.26-1.3,1.43-2,2.1-3a8.13,8.13,0,0,0-2.36-11.72A8.37,8.37,0,0,0,106,224.75C105.18,225.85,104.87,227.29,103.54,228Z"/><path class="cls-6" d="M152.33,260.1l18.5,11.35a12.07,12.07,0,0,1,5.27,1.69c11.49,5.67,22.71,5.29,33.69-1.45,5.4-3.32,10.52-7.07,16-10.25,1.46-.85,2.87-2.13,4.79-1.19,11.32,8.94,22.66,17.85,33.94,26.84q30.5,24.27,60.93,48.63l27.43,21.85a20.22,20.22,0,0,1,1.53,1.62H31c-.07-1.89,1.07-2.44,1.89-3.09q35.85-28.62,71.76-57.19,22.75-18.14,45.45-36.35A21.2,21.2,0,0,0,152.33,260.1Z"/><path class="cls-7" d="M316,204.19c1.83-7.11,6.26-12.35,12-16.57,6.71-4.91,7.44-7,4.76-14.84q-6-17.67-12.12-35.33c-2-5.8-4.39-7.6-10.55-7.27-12.38.67-22.36-3.68-30-13.5-2.74-3.52-6.25-4.23-11.09-2.57q-23.51,8-47,16.13L131.24,161.5Q102.64,171.36,74,181.19c-3.92,1.34-6.35,3.8-6.63,8.07a76.6,76.6,0,0,1-2.07,14Q47,191.35,28.75,179.46c-1-.67-1.95-1.52-2.92-2.28-.29-1.59,1.11-1.74,2-2.16a72.75,72.75,0,0,1,10.48-4.25c6.49-.94,12.27-4,18.37-6.14q31.6-10.9,63.22-21.76c11.3-3.91,22.54-8,34-11.43a12,12,0,0,0,2.74-.87c27.42-10.07,55.17-19.18,82.74-28.8,11.15-3.89,22.41-7.47,33.45-11.67,2.67-1,5.64-1,8.12-2.57,7.26-2.57,14.57-5,21.82-7.63,11.21-4,22.59,2.52,26.26,12.77,2,5.62,4,11.25,5.91,16.9,6.88,20.52,14.21,40.89,21,61.43.7,2.09,1.79,4.16,1,6.5l-36.57,24C319,202.47,317.44,203.3,316,204.19Z"/><path class="cls-5" d="M38.43,172l-12.6,5.15a6,6,0,0,0-.72-.13,1.37,1.37,0,0,1-.52-.92c.41-2.7,2.77-3.72,4.6-5.09q48.6-36.33,97.22-72.6c22.51-16.86,45.17-33.54,67.6-50.5a18.37,18.37,0,0,1,6.87-3.57q17-12.52,34-25c6.7-5,13.34-10,20.07-14.95,9.6-7.06,20.36-5.5,27.51,4.06q35,46.8,69.95,93.68c6.21,8.34,5.6,17.86-1.42,25.07-2.59.93-3.18-1.26-4-2.75q-11.13-20.46-22.1-41c-5.8-10.85-11.66-21.67-17.46-32.52-1.39-2.61-2.89-5.2-5.34-7.09-5.88-4.53-12.15-5.38-18.84-2.07-4.9,2.42-9.67,5.1-14.47,7.71-2.29,1.24-4.46,2.75-7.17,3a38.92,38.92,0,0,1-18.21-6.11c-4-2.52-7.55-1.26-11,1.36-15.89,12-31.93,23.88-47.94,35.76-14.8,11-29.22,22.47-44.52,32.77a12.28,12.28,0,0,0-3.62,3.7,14.79,14.79,0,0,1-5.11,3.67c-26.49,13.69-52.52,28.25-78.87,42.19C47.79,168.15,43,169.77,38.43,172Z"/><path class="cls-8" d="M261.28,51.64c5.91-3.18,11.88-6.25,17.72-9.57,8.13-4.63,16.05-5.72,24,.44a21.22,21.22,0,0,1,5.39,7.05c9.77,18,19.41,36.15,29.09,54.23l11.44,21.38c.48.88.91,1.8,2,2-.32,2.33,1.32,3.9,2.28,5.7,2.61,4.9,5.36,9.71,8.06,14.56,5.83,5.4,7.3,12,5.48,19.57-.78,3.25-2.88,5.34-5.38,7.22-1.54,1-2.54,2.7-4.4,3.26-1.12-1.26-1.45-2.88-2-4.4q-13.53-39.37-27-78.78c-2.54-7.45-7.4-12.18-15.16-13.9-3.47-.78-6.69,0-9.88,1.11C295.74,84,288.58,86.47,281.4,89c-6.56-.28-11.91-3.39-16.61-7.58-3.61-3.23-7.22-3.54-11.27-1.32-13.77,7.54-27.56,15-41.45,22.33-18.38,9.68-36.22,20.42-55.3,28.76-.69.6-1.86.41-2.34,1.39l-43.67,15L43.1,170.87c-1.51.52-3,1.27-4.67,1.16,4-3.44,9-5.3,13.57-7.77,26.6-14.37,53.32-28.53,80-42.78,1.31-.7,2.51-1.61,3.75-2.42a86.07,86.07,0,0,1,15-9.58c34.76-18.6,69.41-37.41,104.2-56C256.94,52.46,258.91,51.36,261.28,51.64Z"/><path class="cls-2" d="M24.8,176.43a1.15,1.15,0,0,1,.31.62c0,9.46-.11,18.92-.11,28.38q0,71.15,0,142.28c0,3.63.41,7,3.19,9.57.87.82,1.09,1.5,0,2.39-8,6.29-16,12.64-24,18.94a4.62,4.62,0,0,1-1.38.5A7.78,7.78,0,0,1,.94,374c0-1.74.13-3.48.13-5.21q0-101.34,0-202.66c0-1.74,0-3.49.08-5.23a1.1,1.1,0,0,1,.62-.1,8.39,8.39,0,0,1,3.8,1.31c5.34,3.74,11,7.07,16.39,10.69C23.3,173.69,24.64,174.61,24.8,176.43Z"/><path class="cls-9" d="M230.59,260.25c-7.12,4.52-14.2,9.12-21.39,13.54a34.07,34.07,0,0,1-38.37-2.34c10.2-3.59,20.39-7.23,30.61-10.76q26.28-9.1,52.61-18.09c1.4-.48,2.88-.73,4.32-1.09-7.82,6-16.44,10.7-24.48,16.33C232.77,258.62,231.69,259.45,230.59,260.25Z"/><path class="cls-10" d="M103.54,228c.4-4.77,2.83-7.36,7.87-8.34,4.26-.84,8.46,1.45,10.56,5.75,1.72,3.54.86,8.52-1.86,11a3.5,3.5,0,0,1-2.41.75Z"/><path class="cls-11" d="M361.38,174.24c5.85-7.78,6.14-15.81,1.09-24.09a21.68,21.68,0,0,1-1.19-2.7c7.11,4.55,14.5,8.68,21.05,14.07q-9,5.68-17.95,11.36C363.45,173.47,362.62,174.32,361.38,174.24Z"/><path class="cls-12" d="M24.8,176.43c-6.53-4.28-13.09-8.53-19.59-12.86-1.22-.81-2.68-1.37-3.43-2.78Q30.52,142,59.25,123.19,116.19,86.08,173.13,49c8.66-5.66,17.78-7.42,27.75-4.63-11.8,8.91-23.57,17.88-35.42,26.73Q96.1,122.91,26.7,174.67A22.5,22.5,0,0,0,24.8,176.43Z"/><path class="cls-13" d="M191,242.34A39.67,39.67,0,1,1,190.7,163c21.9.19,39.93,17.81,39.9,39.53C230.58,224.42,212.18,243,191,242.34Z"/><path class="cls-10" d="M264.78,187c-5.8.05-10.09-4-10.19-9.61a9.64,9.64,0,0,1,9.93-9.87c5.8,0,10.1,4,10.19,9.61A9.63,9.63,0,0,1,264.78,187Z"/><path class="cls-5" d="M155.87,130.92q47.92-25.81,95.85-51.66c6.22-3.36,8.85-3.16,14.39,1.44a35.18,35.18,0,0,0,11.65,6.5c1.29.42,2.71.59,3.64,1.75l-122.63,42.1c-.71.24-1.43.42-2.14.63S155.7,131.6,155.87,130.92Z"/><path class="cls-14" d="M309.81,105.18a6.91,6.91,0,0,1-6.65,7.06,6.79,6.79,0,1,1-.52-13.56A6.89,6.89,0,0,1,309.81,105.18Z"/><path class="cls-15" d="M155.87,130.92l.76.76-2.2.84C153.94,131.12,155.33,131.41,155.87,130.92Z"/><path class="cls-16" d="M261.28,51.64Q227.13,70,193,88.45q-26.76,14.43-53.51,28.89c-1.2.64-2.48,1.15-3.72,1.72-.75-1.54.8-1.59,1.45-2.07q33.26-24.87,66.56-49.67,14.33-10.69,28.58-21.47c3-2.25,6.46-3.69,9.71-1.79A70.16,70.16,0,0,0,261.28,51.64Z"/><path class="cls-10" d="M268.79,27.07c0,4.29-2.43,6.67-6.72,6.65a6.9,6.9,0,0,1-6.73-6.93,7,7,0,0,1,7.21-6.54C266.43,20.35,268.82,23,268.79,27.07Z"/><path class="cls-14" d="M285.4,71.15a6.58,6.58,0,0,1-6.89-6.72,6.88,6.88,0,0,1,6.56-6.78A6.59,6.59,0,0,1,292,64.32C292.06,68.51,289.55,71.11,285.4,71.15Z"/><path class="cls-17" d="M210.5,214.08a11.63,11.63,0,0,1-4.87,10.69c-1.61,1.19-1.27,2.45-1.14,3.91.24,2.56-.18,4.78-3.12,5.56a4.64,4.64,0,0,1-5.9-2.61c-.87-1.83-2.22-2-3.95-2-3,0-6-.44-8.44-2.41-2.23-1.82-3.35-4.08-1.63-6.87s3.77-2.74,6.39-1.32a10.45,10.45,0,0,0,8.7.33c2.78-1,4.83-2.71,4.52-6-.35-3.78-2.81-6.47-6.26-6.86-4.19-.49-8.42-.68-12.58-1.33-5.78-.91-8.61-5-10.13-10.24a12.56,12.56,0,0,1,3.44-13.35,3.83,3.83,0,0,0,1.36-4.14c-.56-2.63,0-5,2.9-6.1s4.87.17,6.13,2.69a3.1,3.1,0,0,0,3.32,1.79,24.72,24.72,0,0,1,5.58.14c3,.56,4,2.74,3.61,5.58s-2.31,4.16-5.05,3.61a13.31,13.31,0,0,0-8,1c-2.57,1.09-4.7,2.51-4,5.82.64,3.15,2.89,4.09,5.8,4.12a59,59,0,0,1,8.17.55C204.82,197.94,210.43,204.15,210.5,214.08Z"/></g></g></svg>