<svg xmlns="http://www.w3.org/2000/svg" width="100%" height="100%" viewBox="0 0 29.111 31.189">
  <g id="Schedules" transform="translate(-17.058)">
    <g id="Group_129" data-name="Group 129" transform="translate(17.058)">
      <path id="Path_282" data-name="Path 282" d="M31.019,362.559H19.138a2.079,2.079,0,0,1-2.079-2.079V358.4H33.016Z" transform="translate(-17.059 -336.568)" fill="#d3dcfb"/>
      <path id="Path_283" data-name="Path 283" d="M44.092,73.464V88.019H19.138a2.079,2.079,0,0,1-2.079-2.079V73.464l14.556-5.2Z" transform="translate(-17.059 -64.107)" fill="#ebf5fc"/>
      <g id="Group_122" data-name="Group 122" transform="translate(2.08 11.436)">
        <path id="Path_284" data-name="Path 284" d="M52.795,189.813h-1.1a.487.487,0,0,1-.487-.487v-1.1a.487.487,0,0,1,.487-.487h1.1a.487.487,0,0,1,.487.487v1.1A.487.487,0,0,1,52.795,189.813Z" transform="translate(-51.203 -187.734)" fill="#3c58a0"/>
        <path id="Path_285" data-name="Path 285" d="M121.062,189.813h-1.1a.487.487,0,0,1-.487-.487v-1.1a.487.487,0,0,1,.487-.487h1.1a.487.487,0,0,1,.487.487v1.1A.487.487,0,0,1,121.062,189.813Z" transform="translate(-115.311 -187.734)" fill="#3c58a0"/>
        <path id="Path_286" data-name="Path 286" d="M189.328,189.813h-1.1a.487.487,0,0,1-.487-.487v-1.1a.487.487,0,0,1,.487-.487h1.1a.487.487,0,0,1,.487.487v1.1A.487.487,0,0,1,189.328,189.813Z" transform="translate(-179.419 -187.734)" fill="#3c58a0"/>
        <path id="Path_287" data-name="Path 287" d="M257.595,189.813h-1.1a.487.487,0,0,1-.487-.487v-1.1a.487.487,0,0,1,.487-.487h1.1a.487.487,0,0,1,.487.487v1.1A.487.487,0,0,1,257.595,189.813Z" transform="translate(-243.527 -187.734)" fill="#3c58a0"/>
        <path id="Path_288" data-name="Path 288" d="M325.85,189.813h-1.1a.487.487,0,0,1-.487-.487v-1.1a.487.487,0,0,1,.487-.487h1.1a.487.487,0,0,1,.487.487v1.1A.487.487,0,0,1,325.85,189.813Z" transform="translate(-307.625 -187.734)" fill="#3c58a0"/>
        <path id="Path_289" data-name="Path 289" d="M394.117,189.813h-1.1a.487.487,0,0,1-.487-.487v-1.1a.487.487,0,0,1,.487-.487h1.1a.487.487,0,0,1,.487.487v1.1A.487.487,0,0,1,394.117,189.813Z" transform="translate(-371.733 -187.734)" fill="#3c58a0"/>
        <path id="Path_290" data-name="Path 290" d="M52.795,258.079h-1.1a.487.487,0,0,1-.487-.487v-1.1A.487.487,0,0,1,51.69,256h1.1a.487.487,0,0,1,.487.487v1.1A.487.487,0,0,1,52.795,258.079Z" transform="translate(-51.203 -251.842)" fill="#3c58a0"/>
        <path id="Path_291" data-name="Path 291" d="M121.062,258.079h-1.1a.487.487,0,0,1-.487-.487v-1.1a.487.487,0,0,1,.487-.487h1.1a.487.487,0,0,1,.487.487v1.1A.487.487,0,0,1,121.062,258.079Z" transform="translate(-115.311 -251.842)" fill="#3c58a0"/>
        <path id="Path_292" data-name="Path 292" d="M189.328,258.079h-1.1a.487.487,0,0,1-.487-.487v-1.1a.487.487,0,0,1,.487-.487h1.1a.487.487,0,0,1,.487.487v1.1A.487.487,0,0,1,189.328,258.079Z" transform="translate(-179.419 -251.842)" fill="#3c58a0"/>
        <path id="Path_293" data-name="Path 293" d="M258.082,258.079V256.52a.52.52,0,0,0-.52-.52h-1.04a.52.52,0,0,0-.52.52v1.04a.52.52,0,0,0,.52.52Z" transform="translate(-243.527 -251.842)" fill="#3c58a0"/>
        <path id="Path_294" data-name="Path 294" d="M52.795,326.346h-1.1a.487.487,0,0,1-.487-.487v-1.1a.487.487,0,0,1,.487-.487h1.1a.487.487,0,0,1,.487.487v1.1A.487.487,0,0,1,52.795,326.346Z" transform="translate(-51.203 -315.95)" fill="#3c58a0"/>
        <path id="Path_295" data-name="Path 295" d="M121.062,326.346h-1.1a.487.487,0,0,1-.487-.487v-1.1a.487.487,0,0,1,.487-.487h1.1a.487.487,0,0,1,.487.487v1.1A.487.487,0,0,1,121.062,326.346Z" transform="translate(-115.311 -315.95)" fill="#3c58a0"/>
        <path id="Path_296" data-name="Path 296" d="M189.328,326.346h-1.1a.487.487,0,0,1-.487-.487v-1.1a.487.487,0,0,1,.487-.487h1.1a.487.487,0,0,1,.487.487v1.1A.487.487,0,0,1,189.328,326.346Z" transform="translate(-179.419 -315.95)" fill="#3c58a0"/>
      </g>
      <path id="Path_297" data-name="Path 297" d="M399,187.733h-1.075a.5.5,0,0,0-.184.035.5.5,0,0,1,.318.467v1.075a.5.5,0,0,1-.318.467.5.5,0,0,0,.184.035H399a.5.5,0,0,0,.5-.5v-1.075A.5.5,0,0,0,399,187.733Z" transform="translate(-374.555 -176.297)" fill="#2a428c"/>
      <path id="Path_298" data-name="Path 298" d="M330.737,187.733h-1.075a.5.5,0,0,0-.184.035.5.5,0,0,1,.318.467v1.075a.5.5,0,0,1-.318.467.5.5,0,0,0,.184.035h1.075a.5.5,0,0,0,.5-.5v-1.075A.5.5,0,0,0,330.737,187.733Z" transform="translate(-310.447 -176.297)" fill="#2a428c"/>
      <path id="Path_299" data-name="Path 299" d="M262.482,187.733h-1.075a.5.5,0,0,0-.184.035.5.5,0,0,1,.318.467v1.075a.5.5,0,0,1-.318.467.5.5,0,0,0,.184.035h1.075a.5.5,0,0,0,.5-.5v-1.075A.5.5,0,0,0,262.482,187.733Z" transform="translate(-246.349 -176.297)" fill="#2a428c"/>
      <path id="Path_300" data-name="Path 300" d="M194.215,187.733H193.14a.5.5,0,0,0-.184.035.5.5,0,0,1,.318.467v1.075a.5.5,0,0,1-.318.467.5.5,0,0,0,.184.035h1.075a.5.5,0,0,0,.5-.5v-1.075A.5.5,0,0,0,194.215,187.733Z" transform="translate(-182.241 -176.297)" fill="#2a428c"/>
      <path id="Path_301" data-name="Path 301" d="M125.948,187.733h-1.075a.5.5,0,0,0-.184.035.5.5,0,0,1,.318.467v1.075a.5.5,0,0,1-.318.467.5.5,0,0,0,.184.035h1.075a.5.5,0,0,0,.5-.5v-1.075A.5.5,0,0,0,125.948,187.733Z" transform="translate(-118.133 -176.297)" fill="#2a428c"/>
      <path id="Path_302" data-name="Path 302" d="M57.682,187.733H56.607a.5.5,0,0,0-.184.035.5.5,0,0,1,.318.467v1.075a.5.5,0,0,1-.318.467.5.5,0,0,0,.184.035h1.075a.5.5,0,0,0,.5-.5v-1.075A.5.5,0,0,0,57.682,187.733Z" transform="translate(-54.025 -176.297)" fill="#2a428c"/>
      <path id="Path_303" data-name="Path 303" d="M57.682,256H56.607a.5.5,0,0,0-.184.035.5.5,0,0,1,.318.467v1.075a.5.5,0,0,1-.318.467.5.5,0,0,0,.184.035h1.075a.5.5,0,0,0,.5-.5V256.5a.5.5,0,0,0-.5-.5Z" transform="translate(-54.025 -240.405)" fill="#2a428c"/>
      <path id="Path_304" data-name="Path 304" d="M57.682,324.267H56.607a.5.5,0,0,0-.184.035.5.5,0,0,1,.318.467v1.075a.5.5,0,0,1-.318.467.5.5,0,0,0,.184.035h1.075a.5.5,0,0,0,.5-.5v-1.075a.5.5,0,0,0-.5-.5Z" transform="translate(-54.025 -304.514)" fill="#2a428c"/>
      <path id="Path_305" data-name="Path 305" d="M125.948,256h-1.075a.5.5,0,0,0-.184.035.5.5,0,0,1,.318.467v1.075a.5.5,0,0,1-.318.467.5.5,0,0,0,.184.035h1.075a.5.5,0,0,0,.5-.5V256.5a.5.5,0,0,0-.5-.5Z" transform="translate(-118.133 -240.405)" fill="#2a428c"/>
      <path id="Path_306" data-name="Path 306" d="M125.948,324.267h-1.075a.5.5,0,0,0-.184.035.5.5,0,0,1,.318.467v1.075a.5.5,0,0,1-.318.467.5.5,0,0,0,.184.035h1.075a.5.5,0,0,0,.5-.5v-1.075a.5.5,0,0,0-.5-.5Z" transform="translate(-118.133 -304.514)" fill="#2a428c"/>
      <path id="Path_307" data-name="Path 307" d="M194.215,256H193.14a.5.5,0,0,0-.184.035.5.5,0,0,1,.318.467v1.075a.5.5,0,0,1-.318.467.5.5,0,0,0,.184.035h1.075a.5.5,0,0,0,.5-.5V256.5a.5.5,0,0,0-.5-.5Z" transform="translate(-182.241 -240.405)" fill="#2a428c"/>
      <path id="Path_308" data-name="Path 308" d="M262.983,258.079V256.5a.5.5,0,0,0-.5-.5h-1.075a.5.5,0,0,0-.184.035.5.5,0,0,1,.318.467v1.075a.5.5,0,0,1-.318.467.5.5,0,0,0,.184.035h1.577Z" transform="translate(-246.348 -240.405)" fill="#2a428c"/>
      <path id="Path_309" data-name="Path 309" d="M194.215,324.267H193.14a.5.5,0,0,0-.184.035.5.5,0,0,1,.318.467v1.075a.5.5,0,0,1-.318.467.5.5,0,0,0,.184.035h1.075a.5.5,0,0,0,.5-.5v-1.075a.5.5,0,0,0-.5-.5Z" transform="translate(-182.241 -304.514)" fill="#2a428c"/>
      <path id="Path_310" data-name="Path 310" d="M437.114,143.721v15.157h1.444V144.323Z" transform="translate(-411.526 -134.966)" fill="#d3dcfb"/>
      <path id="Path_311" data-name="Path 311" d="M44.092,41.411v-5.2a2.079,2.079,0,0,0-2.079-2.079H19.138a2.079,2.079,0,0,0-2.079,2.079v5.2Z" transform="translate(-17.059 -32.055)" fill="#ff4155"/>
      <g id="Group_128" data-name="Group 128" transform="translate(4.728 3.688)">
        <g id="Group_127" data-name="Group 127">
          <g id="Group_123" data-name="Group 123">
            <path id="Path_312" data-name="Path 312" d="M96.49,61.482H95.137a.471.471,0,1,1,0-.941H96.49a.471.471,0,0,1,0,.941Z" transform="translate(-94.666 -60.541)" fill="#e80054"/>
          </g>
          <g id="Group_124" data-name="Group 124" transform="translate(3.325)">
            <path id="Path_313" data-name="Path 313" d="M151.072,61.482h-1.353a.471.471,0,0,1,0-.941h1.353a.471.471,0,1,1,0,.941Z" transform="translate(-149.248 -60.541)" fill="#e80054"/>
          </g>
          <g id="Group_125" data-name="Group 125" transform="translate(11.956)">
            <path id="Path_314" data-name="Path 314" d="M292.767,61.482h-1.353a.471.471,0,1,1,0-.941h1.353a.471.471,0,0,1,0,.941Z" transform="translate(-290.943 -60.541)" fill="#e80054"/>
          </g>
          <g id="Group_126" data-name="Group 126" transform="translate(15.281)">
            <path id="Path_315" data-name="Path 315" d="M347.35,61.482H346a.471.471,0,1,1,0-.941h1.353a.471.471,0,1,1,0,.941Z" transform="translate(-345.526 -60.541)" fill="#e80054"/>
          </g>
        </g>
      </g>
      <path id="Path_316" data-name="Path 316" d="M122.058,3.9a1.3,1.3,0,1,1-2.6,0V1.3a1.3,1.3,0,1,1,2.6,0V3.9Z" transform="translate(-113.221 0)" fill="#ebf5fc"/>
      <path id="Path_317" data-name="Path 317" d="M318.335,3.9a1.3,1.3,0,0,1-2.6,0V1.3a1.3,1.3,0,0,1,2.6,0V3.9Z" transform="translate(-297.542 0)" fill="#ebf5fc"/>
      <path id="Path_318" data-name="Path 318" d="M325.954,0a1.293,1.293,0,0,0-.721.219,1.3,1.3,0,0,1,.579,1.081V3.9a1.3,1.3,0,0,1-.579,1.081A1.3,1.3,0,0,0,327.254,3.9V1.3A1.3,1.3,0,0,0,325.954,0Z" transform="translate(-306.46 0)" fill="#d3dcfb"/>
      <path id="Path_319" data-name="Path 319" d="M129.676,0a1.293,1.293,0,0,0-.721.219,1.3,1.3,0,0,1,.579,1.081V3.9a1.3,1.3,0,0,1-.579,1.081A1.3,1.3,0,0,0,130.976,3.9V1.3a1.3,1.3,0,0,0-1.3-1.3Z" transform="translate(-122.139 0)" fill="#d3dcfb"/>
      <path id="Path_320" data-name="Path 320" d="M404.434,34.133H402.99a2.079,2.079,0,0,1,2.079,2.079v5.2h1.444v-5.2a2.079,2.079,0,0,0-2.079-2.079Z" transform="translate(-379.48 -32.054)" fill="#e80054"/>
      <path id="Path_321" data-name="Path 321" d="M17.058,111.74H44.091v.941H17.058Z" transform="translate(-17.058 -104.933)" fill="#e80054"/>
    </g>
    <circle id="Ellipse_17" data-name="Ellipse 17" cx="7.797" cy="7.797" r="7.797" transform="translate(30.574 15.595)" fill="#4fabf7"/>
    <circle id="Ellipse_18" data-name="Ellipse 18" cx="5.718" cy="5.718" r="5.718" transform="translate(32.654 17.674)" fill="#ebf5fc"/>
    <g id="Group_131" data-name="Group 131" transform="translate(37.901 19.282)">
      <g id="Group_130" data-name="Group 130">
        <path id="Path_322" data-name="Path 322" d="M359.687,320.08a.471.471,0,0,1-.471-.471v-2.6a.471.471,0,1,1,.941,0v2.6A.471.471,0,0,1,359.687,320.08Z" transform="translate(-359.216 -316.54)" fill="#3c58a0"/>
      </g>
    </g>
    <g id="Group_133" data-name="Group 133" transform="translate(38.941 22.921)">
      <g id="Group_132" data-name="Group 132">
        <path id="Path_323" data-name="Path 323" d="M378.312,377.215h-1.56a.471.471,0,1,1,0-.941h1.56a.471.471,0,0,1,0,.941Z" transform="translate(-376.282 -376.274)" fill="#3c58a0"/>
      </g>
    </g>
    <path id="Path_324" data-name="Path 324" d="M355.816,256c-.243,0-.484.012-.722.034a7.8,7.8,0,0,1,0,15.527c.238.022.478.034.722.034a7.8,7.8,0,0,0,0-15.595Z" transform="translate(-317.444 -240.405)" fill="#1886ea"/>
    <path id="Path_325" data-name="Path 325" d="M355.824,290.133a5.775,5.775,0,0,0-.721.045,5.719,5.719,0,0,1,0,11.346,5.718,5.718,0,1,0,.721-11.391Z" transform="translate(-317.453 -272.459)" fill="#d3dcfb"/>
    <circle id="Ellipse_19" data-name="Ellipse 19" cx="1.04" cy="1.04" r="1.04" transform="translate(37.332 22.352)" fill="#ffdd40"/>
  </g>
</svg>
