<svg xmlns="http://www.w3.org/2000/svg" width="100%" height="100%" viewBox="0 0 25.148 25.171">
  <g id="Travel" transform="translate(-0.232)">
    <path id="Path_452" data-name="Path 452" d="M41.387,430.773c-2.115,0-4.363.7-4.363,2s2.248,2,4.363,2,4.363-.7,4.363-2S43.5,430.773,41.387,430.773Z" transform="translate(-34.983 -409.595)" fill="#ffdb56"/>
    <path id="Path_453" data-name="Path 453" d="M6.4,153.9a6.179,6.179,0,0,0-6.172,6.172c0,2.113,1.005,4.385,2.987,6.752a21.278,21.278,0,0,0,2.958,2.91.369.369,0,0,0,.452,0,21.278,21.278,0,0,0,2.958-2.91c1.982-2.367,2.987-4.639,2.987-6.752A6.179,6.179,0,0,0,6.4,153.9Zm2.314,6.172A2.314,2.314,0,1,1,6.4,157.759,2.314,2.314,0,0,1,8.718,160.074Z" transform="translate(0 -146.336)" fill="#ff4a4a"/>
    <path id="Path_454" data-name="Path 454" d="M349.349,213.19a6.972,6.972,0,0,0-4.619,0c-.728.3-1.129.732-1.129,1.226s.4.93,1.129,1.226a6.973,6.973,0,0,0,4.619,0c.728-.3,1.129-.732,1.129-1.226S350.077,213.486,349.349,213.19Z" transform="translate(-326.488 -202.335)" fill="#ffdb56"/>
    <g id="Group_202" data-name="Group 202" transform="translate(2.041 11.62)">
      <path id="Path_455" data-name="Path 455" d="M41.387,463.545c-1.849,0-3.8-.535-4.261-1.536a1.09,1.09,0,0,0-.1.461c0,1.3,2.248,2,4.363,2s4.363-.7,4.363-2a1.091,1.091,0,0,0-.1-.461C45.186,463.01,43.236,463.545,41.387,463.545Z" transform="translate(-37.024 -450.916)" fill="#ffbb24"/>
      <path id="Path_456" data-name="Path 456" d="M349.35,237.135a6.973,6.973,0,0,1-4.619,0,1.956,1.956,0,0,1-1-.765.927.927,0,0,0-.126.461c0,.494.4.93,1.129,1.226a6.973,6.973,0,0,0,4.619,0c.728-.3,1.129-.732,1.129-1.226a.927.927,0,0,0-.126-.461A1.957,1.957,0,0,1,349.35,237.135Z" transform="translate(-328.53 -236.37)" fill="#ffbb24"/>
    </g>
    <path id="Path_457" data-name="Path 457" d="M320.155,0a4.834,4.834,0,0,0-4.829,4.829,8.411,8.411,0,0,0,2.316,5.244,16.452,16.452,0,0,0,2.287,2.249.369.369,0,0,0,.452,0,16.446,16.446,0,0,0,2.287-2.249,8.41,8.41,0,0,0,2.316-5.244A4.834,4.834,0,0,0,320.155,0Zm1.779,4.829a1.779,1.779,0,1,1-1.779-1.779A1.779,1.779,0,0,1,321.933,4.829Z" transform="translate(-299.603 0)" fill="#ff4a4a"/>
    <g id="Group_203" data-name="Group 203" transform="translate(5.708 0)">
      <path id="Path_458" data-name="Path 458" d="M112.321,153.9a6.207,6.207,0,0,0-.7.039,6.18,6.18,0,0,1,5.476,6.132c0,2.113-1.005,4.385-2.987,6.752a22.245,22.245,0,0,1-2.489,2.522c.276.237.449.372.469.388a.369.369,0,0,0,.452,0,21.277,21.277,0,0,0,2.958-2.91c1.982-2.367,2.987-4.639,2.987-6.752A6.179,6.179,0,0,0,112.321,153.9Z" transform="translate(-111.626 -146.336)" fill="#e7343f"/>
      <path id="Path_459" data-name="Path 459" d="M400.1,0a4.84,4.84,0,0,0-.7.05,4.836,4.836,0,0,1,4.134,4.778,8.411,8.411,0,0,1-2.316,5.244A17.218,17.218,0,0,1,399.4,11.93c.274.241.451.378.469.392a.369.369,0,0,0,.452,0,16.448,16.448,0,0,0,2.287-2.249,8.411,8.411,0,0,0,2.316-5.244A4.834,4.834,0,0,0,400.1,0Z" transform="translate(-385.257 0)" fill="#e7343f"/>
    </g>
    <path id="Path_460" data-name="Path 460" d="M235.088,250.228a.369.369,0,0,1,0-.738l.487,0h0a.369.369,0,0,1,0,.738l-.487,0Zm1.95-.009a.369.369,0,0,1,0-.738l.488,0h0a.369.369,0,0,1,0,.738l-.487,0Zm1.95-.009a.369.369,0,0,1,0-.738l.487,0h0a.369.369,0,0,1,0,.738l-.487,0Zm1.95-.009a.369.369,0,0,1,0-.738l.488,0h0a.369.369,0,0,1,0,.738l-.488,0Zm1.95-.009a.369.369,0,0,1,0-.738l.487,0h0a.369.369,0,0,1,0,.738l-.487,0Zm1.95-.009a.369.369,0,0,1,0-.738h.069a2.783,2.783,0,0,0,.368-.026.369.369,0,1,1,.1.731,3.533,3.533,0,0,1-.466.033h-.071Zm1.836-.556a.369.369,0,0,1-.211-.673,2.78,2.78,0,0,0,.333-.272.369.369,0,1,1,.509.534,3.521,3.521,0,0,1-.422.344A.368.368,0,0,1,246.674,249.628Zm1.167-1.522a.369.369,0,0,1-.348-.493,2.746,2.746,0,0,0,.112-.414.369.369,0,1,1,.725.137,3.491,3.491,0,0,1-.142.526A.369.369,0,0,1,247.842,248.106Zm.06-1.917a.369.369,0,0,1-.355-.267,2.738,2.738,0,0,0-.15-.4.369.369,0,0,1,.669-.312,3.482,3.482,0,0,1,.191.51.37.37,0,0,1-.355.471Zm-1.07-1.592a.367.367,0,0,1-.229-.079,2.775,2.775,0,0,0-.357-.239.369.369,0,0,1,.362-.643,3.522,3.522,0,0,1,.452.3.369.369,0,0,1-.229.659Zm-1.8-.669h-.017l-.124,0h-.347a.369.369,0,1,1,0-.738h.347c.052,0,.1,0,.157,0a.369.369,0,0,1-.016.738Zm-1.95,0H242.6a.369.369,0,0,1,0-.738h.487a.369.369,0,1,1,0,.738Zm-1.95,0h-.487a.369.369,0,1,1,0-.738h.487a.369.369,0,0,1,0,.738Zm-1.95,0H238.7a.369.369,0,1,1,0-.738h.487a.369.369,0,1,1,0,.738Zm-1.88-.367a.368.368,0,0,1-.2-.057,2.778,2.778,0,0,1-.442-.346.369.369,0,1,1,.512-.532,2.032,2.032,0,0,0,.324.254.369.369,0,0,1-.2.681Zm-1.073-1.564a.369.369,0,0,1-.362-.3,2.782,2.782,0,0,1-.051-.53v-.029a.369.369,0,0,1,.369-.365h0a.369.369,0,0,1,.365.373v.021a2.039,2.039,0,0,0,.037.389.369.369,0,0,1-.363.44Zm.4-1.852a.369.369,0,0,1-.3-.584,2.775,2.775,0,0,1,.372-.42.369.369,0,1,1,.5.543,2.038,2.038,0,0,0-.273.308A.369.369,0,0,1,236.634,240.141Zm1.625-.977a.369.369,0,0,1-.048-.735,2.8,2.8,0,0,1,.367-.024h.169a.369.369,0,1,1,0,.738h-.169a2.053,2.053,0,0,0-.269.018A.355.355,0,0,1,238.259,239.164Z" transform="translate(-222.959 -226.685)" fill="#1ea4e9"/>
  </g>
</svg>
