<svg xmlns="http://www.w3.org/2000/svg" viewBox="0 0 169.61 188.52"><defs><style>.cls-1{fill:#9daec5;}.cls-2{fill:#eead2e;}.cls-3{fill:#f0b746;}.cls-4{fill:#f0b94d;}.cls-5{fill:#f7daa1;}.cls-6{fill:#57d2cf;}.cls-7{fill:#8be4e0;}.cls-8{fill:#858fa7;}.cls-9{fill:#697490;}.cls-10{fill:#ec6293;}.cls-11{fill:#697491;}.cls-12{fill:#848fa7;}.cls-13{fill:#db4173;}.cls-14{fill:#576383;}.cls-15{fill:#fee18e;}.cls-16{fill:#fed143;}.cls-17{fill:#fed245;}.cls-18{fill:#576384;}.cls-19{fill:#fcd774;}</style></defs><g id="Layer_2" data-name="Layer 2"><g id="Layer_1-2" data-name="Layer 1"><path class="cls-1" d="M41.3,0H162.07c5.55,1.29,7.47,3.7,7.48,9.51q0,76.26.06,152.51a10,10,0,0,1-10.43,10.46c-25.39-.09-50.78,0-76.16,0a7.36,7.36,0,0,1-2.91-.31,2.52,2.52,0,0,1-1-2.25c-.07-3.42,0-6.84,0-10.25a3.13,3.13,0,0,1,2-3,18.23,18.23,0,0,0,7.51-5.93,5.59,5.59,0,0,1,2.67-1.84,5.71,5.71,0,0,0,3.81-1.56,4.54,4.54,0,0,0-2.27-7.56,4,4,0,0,1-1.73-.54,2.41,2.41,0,0,1-1.26-2.25c0-3.09-.12-6.18,0-9.26.47-1.14,1.57-1,2.48-1.22,3.45-.89,5-4.1,3.34-6.84a4.76,4.76,0,0,0-4.14-2.32c-3.43,0-7-.77-10.15,1.32a1.26,1.26,0,0,1-1.54,0,2,2,0,0,1-.63-1.66c-.11-3.77-.1-7.55,0-11.32a2,2,0,0,1,1.33-2.16,2.15,2.15,0,0,1,.61-.18,23.84,23.84,0,0,0,9,1.15,10.36,10.36,0,0,0,2.35-.36c2.41-.65,3.84-2.27,3.84-4.33a4.94,4.94,0,0,0-3.86-4.59C91.59,95,90.6,95,90.13,94a4.29,4.29,0,0,1-.33-2c0-4,0-8.09,0-12.13a5,5,0,0,1,.26-1.8c.29-1,1.09-1.36,2-1.57,2.85-.61,4.43-2.42,4.19-4.71-.29-2.67-2.1-4.29-5.07-4.27-2.45,0-4.89-.31-7.33-.13a1.48,1.48,0,0,1-.9-.23,65.47,65.47,0,0,0-17.53-5.22A119.47,119.47,0,0,0,49,60.62,85.08,85.08,0,0,0,39,61.05c-1.43.13-2.9.59-4.27-.32a4.19,4.19,0,0,1-.47-2.66q0-24.74,0-49.46a10.72,10.72,0,0,1,1.62-5.38C37,1.08,39.14.5,41.3,0Z"/><path class="cls-2" d="M75.59,171.57a21,21,0,0,0,0,2.75c.41,3.54-1.41,5.8-4.22,7.5-4.24,2.58-8.95,3.86-13.76,4.85A91.32,91.32,0,0,1,47,188.14c-.34,0-.76-.07-.94.38H45a.86.86,0,0,0-1.11,0H42a2.92,2.92,0,0,0-2.21,0H36.89a7.68,7.68,0,0,0-3.69,0h-4c-2.18-.88-4.53-.69-6.78-1.07-6-1-11.92-2.2-17.32-5.16a12.63,12.63,0,0,1-3.62-2.79A5.2,5.2,0,0,1,.05,176c0-4.65,0-9.31.05-14a1.19,1.19,0,0,1,1.47.42c3.56,3.92,8.35,5.48,13.24,6.7a91.89,91.89,0,0,0,25.32,2.64c8.76-.29,17.49-1.15,25.79-4.27,3.28-1.24,6.49-2.66,8.52-5.79.36-.56.9-.87,1.52-.26.83,3.05.43,6.14.25,9.21C76.19,171.06,75.83,171.29,75.59,171.57Z"/><path class="cls-3" d="M33.2,188.52a4.23,4.23,0,0,1,3.69,0Z"/><path class="cls-4" d="M39.83,188.52a1.8,1.8,0,0,1,2.21,0Z"/><path class="cls-5" d="M43.88,188.52c.37-.43.74-.51,1.11,0Z"/><path class="cls-6" d="M74.47,48.28H54.78c-2.72,0-3.21-.5-3.21-3.24q0-10.77,0-21.54c0-2.45.66-3.18,3.18-3.18q23.66,0,47.3,0c.74,1.18-.22,1.82-.87,2.47q-5.9,5.94-11.81,11.86c-4,4-8.09,8-12.09,12.09A3.92,3.92,0,0,1,74.47,48.28Z"/><path class="cls-6" d="M143.63,20.33c1.9,0,3.8-.08,5.69,0,2.16.09,3.08.93,3.09,3.06q.1,11,0,22c0,2.17-.86,2.84-3.16,2.84q-16.62,0-33.24,0c-.51-1.23.5-1.79,1.15-2.44,5.58-5.65,11.21-11.27,16.82-16.89,2.12-2.12,4.26-4.21,6.35-6.36A7.88,7.88,0,0,1,143.63,20.33Z"/><path class="cls-7" d="M74.47,48.28l26.79-26.72a2.43,2.43,0,0,0,.79-1.22H119c.42,1-.24,1.52-.78,2.07Q106,34.67,93.71,46.87a13.12,13.12,0,0,1-2.37,1.37,4.49,4.49,0,0,1-2.14.33h-13A3.1,3.1,0,0,1,74.47,48.28Z"/><path class="cls-7" d="M143.63,20.33Q135,29.06,126.31,37.79c-3.44,3.47-6.86,7-10.29,10.46a6,6,0,0,1-2.7.32H101.08a3.66,3.66,0,0,1-2-.28c-.16-.92.43-1.48,1-2Q112.35,34,124.59,21.74a15.32,15.32,0,0,1,2.13-1.4Z"/><path class="cls-6" d="M126.72,20.34a5.12,5.12,0,0,1-.66,1.08Q112.61,34.86,99.12,48.29l-7.78,0c1.14-1.19,2.25-2.41,3.42-3.58L117.46,22c.52-.52,1-1.08,1.5-1.62Z"/><path class="cls-8" d="M35.06,65.12l0-4.36a11,11,0,0,1,4.32-.63,132.69,132.69,0,0,1,19,.14,85.8,85.8,0,0,1,17.29,3.11,26.07,26.07,0,0,1,7.55,3.25c-.65,1.76-2.28,2.5-3.64,3.54-2.27,0-4.18-1.26-6.29-1.84A87.18,87.18,0,0,0,52,65.3a108.54,108.54,0,0,0-15.19.5A1.52,1.52,0,0,1,35.06,65.12Z"/><path class="cls-9" d="M115.33,127.37c-1.1,0-2.21,0-3.3,0a5.73,5.73,0,0,1-5.49-5.18,5.43,5.43,0,0,1,4.79-5.61,31.16,31.16,0,0,1,8.41,0,5.46,5.46,0,0,1,4.75,5.62,5.61,5.61,0,0,1-5.49,5.16C117.78,127.43,116.55,127.37,115.33,127.37Z"/><path class="cls-9" d="M115.54,94.27c1.23,0,2.45,0,3.67,0a5.48,5.48,0,0,1,5.27,5,5.33,5.33,0,0,1-4.4,5.7,25.87,25.87,0,0,1-9.12,0,5.41,5.41,0,0,1-4.42-5.52,5.64,5.64,0,0,1,5.15-5.12C113,94.21,114.26,94.27,115.54,94.27Z"/><path class="cls-9" d="M142.62,127.37c-1.1,0-2.2,0-3.3,0a5.63,5.63,0,0,1-5.49-5.17,5.47,5.47,0,0,1,4.76-5.63,31.09,31.09,0,0,1,8.4,0,5.42,5.42,0,0,1,4.75,5.61,5.52,5.52,0,0,1-5.45,5.17C145.07,127.43,143.85,127.37,142.62,127.37Z"/><path class="cls-9" d="M142.9,94.27c1.16,0,2.32,0,3.48,0a5.45,5.45,0,0,1,5.36,5,5.39,5.39,0,0,1-4.63,5.69,28.05,28.05,0,0,1-8.58,0,5.4,5.4,0,0,1-4.71-5.45,5.62,5.62,0,0,1,5.23-5.24c1.27-.09,2.56,0,3.85,0Z"/><path class="cls-9" d="M115.53,149.52c-1.17,0-2.33,0-3.49,0a5.36,5.36,0,1,1,0-10.72q3.59-.07,7.16,0a5.36,5.36,0,0,1,0,10.71C118,149.55,116.75,149.52,115.53,149.52Z"/><path class="cls-10" d="M115.39,77.39c-1.1,0-2.2,0-3.3,0A5.43,5.43,0,0,1,106.54,72a5.5,5.5,0,0,1,5.64-5.35c2.2,0,4.41,0,6.61,0,3.33.06,5.73,2.37,5.7,5.44a5.41,5.41,0,0,1-5.61,5.32C117.72,77.42,116.56,77.39,115.39,77.39Z"/><path class="cls-9" d="M142.76,149.52c-1.17,0-2.34,0-3.5,0a5.36,5.36,0,1,1,0-10.72c2.39,0,4.79,0,7.18,0a5.36,5.36,0,0,1,0,10.71C145.21,149.55,144,149.52,142.76,149.52Z"/><path class="cls-10" d="M142.88,77.39c-1.22,0-2.45,0-3.67,0A5.39,5.39,0,0,1,133.82,72a5.5,5.5,0,0,1,5.43-5.38c2.38-.06,4.77-.07,7.15,0a5.37,5.37,0,0,1,0,10.73C145.21,77.42,144,77.39,142.88,77.39Z"/><path class="cls-8" d="M75.59,171.57l-.12-10.23a1.43,1.43,0,0,1-.62-1.2,8.17,8.17,0,0,0-1.43-2.72c-.33-.56-.86-1.06-.65-1.83.38-.89,1.22-1.13,2-1.4a26.12,26.12,0,0,0,9.13-4.78,2.12,2.12,0,0,1,1.52-.52,14.48,14.48,0,0,1,4.87-.09c.56.11,1.17.11,1.47.73A4.21,4.21,0,0,0,89,151.6a15.63,15.63,0,0,1-7.13,5.58,2.82,2.82,0,0,0-1.88,3.1c.1,3.74,0,7.48,0,11.22Z"/><path class="cls-11" d="M80.35,118.59a7.23,7.23,0,0,1,6-2.2c1.53.07,3.06,0,4.6,0,3.67.06,6.33,2.42,6.29,5.54s-2.49,5.3-6.19,5.44l-.73,0a.57.57,0,0,1-.49.08,19.93,19.93,0,0,0-8.58-7.42,2.13,2.13,0,0,1-1-1A.52.52,0,0,1,80.35,118.59Z"/><path class="cls-8" d="M80.35,118.59l0,.33a9.3,9.3,0,0,1-.66,4.6,2.23,2.23,0,0,1-2.52-.32c-1-.38-2-.68-3-1a1.81,1.81,0,0,1-1.39-1.25,1.1,1.1,0,0,1,.16-.88c1.92-2.18,1.86-4.8,1.83-7.46A82.9,82.9,0,0,1,75,102.15a4.33,4.33,0,0,1,.11-1,3.86,3.86,0,0,1,4.11-1.75,5.75,5.75,0,0,1,1.87,4.37c-.56.29-1.09.61-1.08,1.34q0,6.48.08,13C80.09,118.28,80.26,118.43,80.35,118.59Z"/><path class="cls-11" d="M90.65,94.19c2.38,0,4.48.56,5.78,2.81,1.63,2.82.65,6.42-2.42,7.5a19.22,19.22,0,0,1-11.53,0,4,4,0,0,1-1-.7c-.26-.86.35-1.26.94-1.56a15.38,15.38,0,0,0,7.38-7.38,1.89,1.89,0,0,1,.64-.65Z"/><path class="cls-10" d="M84,66.72c2.69,0,5.39-.14,8.07-.06a5.37,5.37,0,0,1,.24,10.71c-.54.07-1.07.2-1.61.31-1.27,1.19-2.71,1-4.17.47a1.13,1.13,0,0,1-.42-.42c0-1.15.92-1.1,1.68-1.2,2-.27,2.3-.69,1.59-2.58a10.85,10.85,0,0,0-3.59-4.75C85,68.58,83.76,68.15,84,66.72Z"/><path class="cls-12" d="M86.25,77.65l4.45,0q0,8.25,0,16.51l0,.16a4.58,4.58,0,0,1-4.88.15,1.7,1.7,0,0,1-.37-1.19c.11-5-.37-10.1.42-15.12A1.14,1.14,0,0,1,86.25,77.65Z"/><path class="cls-9" d="M91.78,149.53l-1.53-.09a21.3,21.3,0,0,1,.17-10.61,1.31,1.31,0,0,1,1.34-.05c3.21.23,5.41,2.35,5.47,5.27S95.06,149.27,91.78,149.53Z"/><path class="cls-13" d="M84,66.72c1.63,1.47,3.64,2.52,4.86,4.44.3.47.62.92.87,1.41C91.61,76.21,91,77.31,87,77.34h-.74c-.55-.14-.73-.59-.88-1.07a8.7,8.7,0,0,0-4.11-4.72c-.73-.44-1.57-.79-1.46-1.88.65-1.58,2-2.35,3.45-3.05Z"/><path class="cls-14" d="M85.93,94.25l4.7.1c-1,3.93-3.77,6.4-7.18,8.29-.68.38-1.35.81-2,1.21l-.35,0a6.54,6.54,0,0,1-1.85-4c0-.12,0-.29,0-.36A41.36,41.36,0,0,1,85.93,94.25Z"/><path class="cls-12" d="M91.76,138.78l-1.12,0c-1.44,1.27-3,.93-4.56.3-1.13-1.39-.7-3-.6-4.56a5.91,5.91,0,0,0-.23-2.68,8,8,0,0,0-.29-3.19,1.4,1.4,0,0,1,.27-1.66c1.61-.6,3.19-.87,4.66.35l.42.07c.67,3,.24,6.06.33,9.09C90.67,137.5,90.71,138.36,91.76,138.78Z"/><path class="cls-15" d="M79.82,69.68c1.26.84,2.57,1.62,3.78,2.53a6.07,6.07,0,0,1,2.67,5.14.61.61,0,0,0,0,.3,3.38,3.38,0,0,1-.08.34c-.29,2.86-2.29,4.3-4.56,5.56a45,45,0,0,1-15,4.79,104.4,104.4,0,0,1-24,1.35A106.72,106.72,0,0,1,24.33,87,38.7,38.7,0,0,1,15,83.33c-2.12-1.18-3.8-2.68-4.17-5.24a6.16,6.16,0,0,1,2.74-6c4.3-3.26,9.38-4.6,14.51-5.75,2.32-.52,4.68-.82,7-1.22,4.19-.4,8.39-.73,12.61-.74C58.69,64.36,69.51,65.46,79.82,69.68Z"/><path class="cls-2" d="M86.16,131.53l.12,7.24a2.8,2.8,0,0,1,.77,2.15c0,1.82,0,3.63,0,5.45a3,3,0,0,1-2,3.12c-3.32,3.41-7.72,4.73-12,6.27a3.15,3.15,0,0,1-2.12,1.31,70.07,70.07,0,0,1-13.43,2,84.33,84.33,0,0,1-11,.44c-8.77-.49-17.5-1.13-25.89-4a43.4,43.4,0,0,1-5.67-2.61,2.53,2.53,0,0,1-1.63-2.25,6.08,6.08,0,0,1-2.56-5.37c.09-4.58.06-9.16.08-13.74a.9.9,0,0,1,1.1.45c3,4,7.4,5.49,11.9,6.77a88.38,88.38,0,0,0,20.48,3,97.58,97.58,0,0,0,26.41-2.29c4.25-1,8.39-2.29,12-4.94a10.18,10.18,0,0,0,1.93-2C85,132.05,85.27,131.29,86.16,131.53Z"/><path class="cls-2" d="M10.78,78.09c2.07,3.59,5.55,5.24,9.18,6.63a69.78,69.78,0,0,0,19.2,3.92,99.71,99.71,0,0,0,33.37-2.47,38.43,38.43,0,0,0,8.23-3.12A12.1,12.1,0,0,0,86.17,78c0,4.82,0,9.64,0,14.46a11.21,11.21,0,0,1-.28,1.8c-1.44,2.8-4.13,4.11-6.7,5.56l-3.71,1.44A4.66,4.66,0,0,1,72.4,103a93.21,93.21,0,0,1-15.77,2.44c-3.18.23-6.35.38-9.54.31a91.7,91.7,0,0,1-24.66-3.39c-4.06-1.21-8-2.76-11-6-1.53-1.72-1.72-2.75-.79-4.41Z"/><path class="cls-2" d="M75.45,102l.06,14.3c0,2-1.42,3.3-2.51,4.75-.21,1.45-1.49,1.87-2.51,2.46a35,35,0,0,1-8.57,3.22,87.83,87.83,0,0,1-20,2.67,106.09,106.09,0,0,1-25.34-2c-1.28-.27-2.75-.29-3.41-1.79a29.27,29.27,0,0,1-9.87-4.25A6.86,6.86,0,0,1,0,115.08c.17-4.45.09-8.92.12-13.38.59-.2.94.18,1.22.58,2,2.86,5,4.22,8.14,5.4,5.89,2.23,12.06,3.16,18.29,3.81a133.22,133.22,0,0,0,16,.29,77.73,77.73,0,0,0,13.66-1.67c2.82-.54,5.68-.87,8.34-2a4.29,4.29,0,0,0,1.23-.66c2.74-1.12,5.39-2.34,7.21-4.84A1.13,1.13,0,0,1,75.45,102Z"/><path class="cls-15" d="M75.43,159.74c0,.53,0,1.06,0,1.6-1.22,3-3.77,4.57-6.52,5.87-5.6,2.66-11.61,3.86-17.7,4.6a103.73,103.73,0,0,1-34.7-1.34A44.63,44.63,0,0,1,6,166.91,17.07,17.07,0,0,1,.1,162c-.46-2.78.7-4.84,2.86-6.46a21.7,21.7,0,0,1,5.93-3.16c1.52.32,2.45,1.56,3.68,2.33,5.41,3.37,11.45,4.91,17.62,6A105.39,105.39,0,0,0,54,162.21a92,92,0,0,0,18.51-2.62C73.46,159.34,74.5,158.82,75.43,159.74Z"/><path class="cls-15" d="M86.16,131.53a10.77,10.77,0,0,1-5.11,5.08c-5.31,2.87-11.11,4.18-17,5a105.66,105.66,0,0,1-34.9-.68c-5-1-9.92-2.25-14.31-5a10,10,0,0,1-4-4.4c0-.91-.33-1.85.27-2.7a88,88,0,0,0,20.21,3.34,98.41,98.41,0,0,0,33.94-3.5,27.15,27.15,0,0,0,10.25-5.17,4.36,4.36,0,0,1,2-.94l2.13.77c2.14-.41,5.5,2,5.6,4.06A5.8,5.8,0,0,1,86.16,131.53Z"/><path class="cls-16" d="M75.45,102c-1.69,3.34-4.86,4.78-8,6.22-.71-.36-1.27.24-1.92.31-7.87,2.19-15.93,1.91-23.93,1.57-8.34-.35-16.61-1.6-24.43-4.78-4.23-1.71-8.28-3.81-10.6-8.09C6,96.14,5.35,95,6.26,93.82a15.48,15.48,0,0,1,4.42-1.9c0,2.72,1.58,4.41,3.62,5.81,4.88,3.33,10.5,4.64,16.17,5.64a99.86,99.86,0,0,0,18.43,1.56,95.09,95.09,0,0,0,26.62-3.68Z"/><path class="cls-15" d="M6.26,93.82c.83,4.29,3.75,6.88,7.35,8.87,5.71,3.16,12,4.58,18.35,5.54a111.52,111.52,0,0,0,32.53.08,14.3,14.3,0,0,1,1.46-.09c.38-.16.43,0,.34.33-8.84,3.12-18,4.11-27.31,4.19s-18.48-.66-27.42-3.41a31,31,0,0,1-7.39-3.24,10.19,10.19,0,0,1-4-4.39c-.53-3.46,1.71-5.25,4.17-6.89A17.12,17.12,0,0,1,6.26,93.82Z"/><path class="cls-16" d="M77.44,122.56c-3.09,3.91-7.53,5.56-12,7A88,88,0,0,1,44.49,133,103.11,103.11,0,0,1,13,130.36c-.85-.21-1.93-.22-1.94-1.53.31-1.32,1.55-2,2.12-3.19a83,83,0,0,0,20.32,2.9,107.48,107.48,0,0,0,23-1.48c5.82-1.12,11.44-2.74,16.47-6A16.88,16.88,0,0,1,77.44,122.56Z"/><path class="cls-16" d="M75.43,159.74A102.16,102.16,0,0,1,42.51,163c-8.83-.43-17.56-1.66-25.81-5.11a23,23,0,0,1-7-4.33,2,2,0,0,1-.82-1.17c1.37-.83,3.09-.81,4.4-1.78,3,2.54,6.66,3.86,10.38,4.9a93.71,93.71,0,0,0,18.26,2.86,99.18,99.18,0,0,0,14.83-.1,78,78,0,0,0,13.59-2c.89-.22,1.79-.38,2.69-.56C74.09,156.93,75.32,158,75.43,159.74Z"/><path class="cls-1" d="M18.11,59c-1.53,0-3.06,0-4.58,0a2.74,2.74,0,0,1-2.94-2.82,2.7,2.7,0,0,1,2.83-2.74q4.77-.09,9.53,0a2.78,2.78,0,1,1-.07,5.56C21.29,59,19.7,59,18.11,59Z"/><path class="cls-1" d="M17.94,50.13c-1.53,0-3.06,0-4.59,0a2.78,2.78,0,1,1,.06-5.55q4.77-.09,9.54,0a2.77,2.77,0,0,1,2.87,2.72,2.84,2.84,0,0,1-2.94,2.85H17.94Z"/><path class="cls-17" d="M23.08,40.42a2.84,2.84,0,0,1-.25-5.68,2.84,2.84,0,1,1,.25,5.68Z"/><path class="cls-14" d="M85.05,149.49c1.3-1.74,1.21-3.76,1.18-5.78,0-1.65,0-3.29,0-4.94l4.36,0c-.17,3.55.42,7.12-.39,10.63Z"/><path class="cls-18" d="M85.17,127.39a19.89,19.89,0,0,0-5.6-4.06,4.28,4.28,0,0,1,.75-4.41,17.46,17.46,0,0,1,8.84,6.43,3.33,3.33,0,0,1,.73,2Z"/><path class="cls-19" d="M66.29,108.55l-.34-.33a1.05,1.05,0,0,1,1.48,0Z"/></g></g></svg>