<svg xmlns="http://www.w3.org/2000/svg" width="166.385" height="166.384" viewBox="0 0 166.385 166.384">
  <g id="Group_5167" data-name="Group 5167" transform="translate(0 0)">
    <ellipse id="Ellipse_209" data-name="Ellipse 209" cx="64.322" cy="64.322" rx="64.322" ry="64.322" transform="translate(18.87 18.872)" fill="#fff"/>
    <g id="Group_5083" data-name="Group 5083" transform="translate(0 0)">
      <line id="Line_339" data-name="Line 339" transform="translate(67.996 33.953)" fill="none" stroke="#3d3d3d" stroke-linecap="round" stroke-linejoin="round" stroke-width="6.438" style="mix-blend-mode: screen;isolation: isolate"/>
      <circle id="Ellipse_210" data-name="Ellipse 210" cx="58.826" cy="58.826" r="58.826" transform="translate(0 83.192) rotate(-45)" fill="#5ea180"/>
      <path id="Path_1717" data-name="Path 1717" d="M436.231,429.422a58.827,58.827,0,0,1-94.265-44.58,69.9,69.9,0,0,0,94.265,44.58Z" transform="translate(-317.547 -299.308)" fill="#e6e6e6" style="mix-blend-mode: multiply;isolation: isolate"/>
      <g id="Group_5082" data-name="Group 5082" transform="translate(51.99 41.927)">
        <path id="Path_1718" data-name="Path 1718" d="M411.982,381.823a2.944,2.944,0,0,0-3.745,2.032c-.858,2.816-1.7,5.636-2.542,8.455-.517,1.718-1.038,3.434-1.548,5.154-.123.411-.373.733-.793.7a1.233,1.233,0,0,1-.792-.463,1.043,1.043,0,0,1-.022-.787q1.728-5.836,3.488-11.662c.923-3.069,1.856-6.133,2.767-9.2a2.98,2.98,0,1,0-5.72-1.673q-2.26,7.477-4.5,14.958c-.376,1.251-.743,2.5-1.137,3.749a.809.809,0,0,1-1.061.583.844.844,0,0,1-.56-1.079c.02-.084.043-.169.068-.252q2.467-8.2,4.935-16.409c.667-2.218,1.344-4.433,2-6.655a2.946,2.946,0,0,0-2.175-3.83,3.041,3.041,0,0,0-3.628,2.344c-2.236,7.565-4.525,15.114-6.794,22.67-.136.451-.265.9-.409,1.35-.19.589-.6.844-1.091.7a.862.862,0,0,1-.547-1.172c.019-.068.036-.135.057-.2q2-6.652,4-13.306c.732-2.435,1.469-4.868,2.193-7.305a2.979,2.979,0,1,0-5.682-1.792c-1.234,4.047-2.443,8.1-3.66,12.155q-2.421,8.055-4.84,16.11a1.9,1.9,0,0,1-1.907,1.547,1.825,1.825,0,0,1-1.821-1.566c-.244-.961-.448-1.933-.652-2.9a37.957,37.957,0,0,0-1.775-6.76,7.484,7.484,0,0,0-2.033-3,3.964,3.964,0,0,0-2.932-1.023,1.987,1.987,0,0,0-2.028,2.182,7.274,7.274,0,0,0,.351,1.778c.191.651.472,1.273.7,1.913a50.316,50.316,0,0,1,2.091,10.7,40.19,40.19,0,0,0,3.149,11.871,17.768,17.768,0,0,0,4.621,6.57,21.147,21.147,0,0,0,12.235,4.747c5.114.008,8.632-1.692,11.483-4.835a25.2,25.2,0,0,0,5.3-9.693c2.355-7.638,4.631-15.3,6.928-22.957A2.927,2.927,0,0,0,411.982,381.823Z" transform="translate(-367.095 -343.129)" fill="#fff"/>
        <path id="Path_1719" data-name="Path 1719" d="M375.271,387.335a27.4,27.4,0,0,1,1.171,3.677c.5,2.01.894,4.046,1.339,6.069a3.772,3.772,0,0,0,.177.485l.146-.01q3.313-11.019,6.629-22.051c-1.243-1-1.395-1.742-.587-3.062,1.126-1.843,2.311-3.649,3.425-5.5a12.668,12.668,0,0,0,2.087-5.36,4.1,4.1,0,0,0-1.6-4.019,1.882,1.882,0,0,0-2.615.17,7.03,7.03,0,0,0-1.134,1.663c-.745,1.418-1.3,2.947-2.17,4.281-1.621,2.494-3.366,4.911-5.135,7.305a39.319,39.319,0,0,0-5.919,11.109c-.057.173-.109.35-.167.54A7.846,7.846,0,0,1,375.271,387.335Z" transform="translate(-366.723 -343.93)" fill="#fff"/>
        <path id="Path_1720" data-name="Path 1720" d="M405.056,371.321a4.92,4.92,0,0,1,1.524,5.966c.872-.482,1.628-.9,2.383-1.316q4.941-2.727,9.879-5.459a2.983,2.983,0,1,0-2.882-5.221q-4.625,2.541-9.238,5.105C406.176,370.7,405.632,371,405.056,371.321Z" transform="translate(-363.404 -343.176)" fill="#fff"/>
        <path id="Path_1721" data-name="Path 1721" d="M409.439,360.809q-4.3,2.374-8.591,4.752c-.134.075-.263.159-.428.259a4.936,4.936,0,0,1,.587,5.223c.81-.043,1.565-.078,2.318-.128a.968.968,0,0,0,.389-.123q4.412-2.434,8.821-4.878a2.833,2.833,0,0,0,1.4-1.748,3.023,3.023,0,0,0-1.019-3.191A2.985,2.985,0,0,0,409.439,360.809Z" transform="translate(-363.855 -343.617)" fill="#fff"/>
        <path id="Path_1722" data-name="Path 1722" d="M418.713,378.495a2.979,2.979,0,0,0-3.163-5.03q-4.72,2.576-9.411,5.206c-.227.127-.358.428-.533.648,3.216-.482,4.607.164,6.282,2.978,1.937-1.069,3.841-2.12,5.744-3.173A10.609,10.609,0,0,0,418.713,378.495Z" transform="translate(-363.351 -342.376)" fill="#fff"/>
        <path id="Path_1723" data-name="Path 1723" d="M409.777,390.183c-.1.326-.185.655-.314,1.108,2.043-1.141,4-2.161,5.883-3.312a2.859,2.859,0,0,0,.842-3.849,2.953,2.953,0,0,0-3.689-1.316c-.464.187-.892.387-.849,1.015a1.7,1.7,0,0,1-.135.554Q410.648,387.283,409.777,390.183Z" transform="translate(-362.976 -341.452)" fill="#fff"/>
        <path id="Path_1724" data-name="Path 1724" d="M388.544,351.67c.516,1.5,1.02,3,1.556,4.488a1.5,1.5,0,0,0,1.7.99,1.548,1.548,0,0,0,1.269-1.634,4.818,4.818,0,0,0-.131-.531q-1.266-3.7-2.543-7.405a1.542,1.542,0,1,0-2.9,1.031Q388.014,350.141,388.544,351.67Z" transform="translate(-365.122 -344.967)" fill="#fff"/>
        <path id="Path_1725" data-name="Path 1725" d="M425.941,391.528q-4.026-1.014-8.063-1.971a1.467,1.467,0,0,0-1.649.905,1.525,1.525,0,0,0,1.141,2.12c2.194.547,4.395,1.076,6.592,1.612l1.33.324a1.57,1.57,0,0,0,1.726-1.3A1.481,1.481,0,0,0,425.941,391.528Z" transform="translate(-362.331 -340.779)" fill="#fff"/>
        <path id="Path_1726" data-name="Path 1726" d="M415.9,396.646a1.545,1.545,0,1,0-2.167,2.186c.689.689,1.386,1.37,2.08,2.055,1.191,1.172,2.377,2.348,3.573,3.514a1.457,1.457,0,0,0,1.685.329,1.619,1.619,0,0,0,.955-1.635,3.73,3.73,0,0,0-.56-.94C419.631,400.3,417.764,398.475,415.9,396.646Z" transform="translate(-362.615 -340.141)" fill="#fff"/>
        <path id="Path_1727" data-name="Path 1727" d="M409.82,400.216a1.994,1.994,0,0,0-.515-.822,1.491,1.491,0,0,0-1.839-.1,1.53,1.53,0,0,0-.588,1.8c.522,1.769,1.056,3.533,1.587,5.3.245.816.47,1.64.748,2.445a1.469,1.469,0,0,0,1.694.986,1.511,1.511,0,0,0,1.27-1.593,3.136,3.136,0,0,0-.078-.411C411.345,405.279,410.6,402.744,409.82,400.216Z" transform="translate(-363.235 -339.856)" fill="#fff"/>
        <path id="Path_1728" data-name="Path 1728" d="M403.336,359.353a1.539,1.539,0,0,0,2.257-.273c.842-.975,1.674-1.957,2.512-2.936.882-1.031,1.769-2.058,2.645-3.094a1.538,1.538,0,0,0-1.141-2.542,1.556,1.556,0,0,0-1.265.62c-1.694,1.986-3.4,3.964-5.087,5.952A1.543,1.543,0,0,0,403.336,359.353Z" transform="translate(-363.624 -344.573)" fill="#fff"/>
        <path id="Path_1729" data-name="Path 1729" d="M398.336,356.08a1.488,1.488,0,0,0,1.593-1.277c.4-1.854.781-3.712,1.169-5.568.181-.868.359-1.736.511-2.478a1.572,1.572,0,0,0-1.382-1.648,1.531,1.531,0,0,0-1.684,1.3q-.811,3.831-1.6,7.666a2.228,2.228,0,0,0-.057.619A1.491,1.491,0,0,0,398.336,356.08Z" transform="translate(-364.199 -345.098)" fill="#fff"/>
      </g>
    </g>
  </g>
</svg>
