<svg xmlns="http://www.w3.org/2000/svg" width="166.385" height="166.384" viewBox="0 0 166.385 166.384">
  <g id="Group_5169" data-name="Group 5169" transform="translate(0 0)">
    <ellipse id="Ellipse_207" data-name="Ellipse 207" cx="64.322" cy="64.322" rx="64.322" ry="64.322" transform="translate(18.87 18.872)" fill="#fff"/>
    <g id="Group_5080" data-name="Group 5080" transform="translate(0 0)">
      <circle id="Ellipse_208" data-name="Ellipse 208" cx="58.826" cy="58.826" r="58.826" transform="translate(0 83.192) rotate(-45)" fill="#7986cb"/>
      <path id="Path_1702" data-name="Path 1702" d="M755.91,429.422a58.827,58.827,0,0,1-94.265-44.58,69.9,69.9,0,0,0,94.265,44.58Z" transform="translate(-637.227 -299.308)" fill="#e6e6e6" style="mix-blend-mode: multiply;isolation: isolate"/>
      <g id="Group_5079" data-name="Group 5079" transform="translate(53.172 47.688)">
        <path id="Path_1703" data-name="Path 1703" d="M727.886,394.088c-1.306.332-2.606.687-3.935,1.043a12.959,12.959,0,0,1,1.086,4.363,11.486,11.486,0,0,1-3.783-.957,29.925,29.925,0,0,1-12.9-10.372,22.53,22.53,0,0,1-3.948-8.193c-.1-.42-.135-.854-.2-1.294a15.673,15.673,0,0,1,6.965,2.478,25.885,25.885,0,0,1-1.592,3.407,1.874,1.874,0,0,0,.286,2.678c.709.735,1.332,1.552,2.025,2.371.157-.243.256-.39.348-.542a36.889,36.889,0,0,0,5.323-21.39,40.151,40.151,0,0,0-3.879-15.368,3.4,3.4,0,0,0-1.831-1.964h-1.072c-.092.047-.181.1-.275.141a2.221,2.221,0,0,0-1.171,3.152,35.355,35.355,0,0,1,3.582,20.009c-.114,1.056-.326,2.1-.493,3.156-1.021-.462-1.95-.921-2.908-1.3a12.367,12.367,0,0,0-5.317-1.036,4.013,4.013,0,0,0-3.942,2.964c-.711,2.094-1.335,4.224-2.158,6.274a4.711,4.711,0,0,0,.1,3.751,28.385,28.385,0,0,0,4.843,7.663c.838.992,1.732,1.937,2.577,2.876l-2.925,2.938c-.23-.227-.488-.469-.732-.724a41.877,41.877,0,0,1-6.478-8.586c-.084.212-.148.354-.2.5-.728,2.146-1.446,4.294-2.187,6.436a.863.863,0,0,0,.133.932c1.481,1.785,2.95,3.579,4.428,5.367.178.215.385.407.529.556l-2.988,3.021-3.92-4.391c-.064.165-.134.326-.19.493-1.027,3.042-2.044,6.088-3.085,9.125a1.588,1.588,0,0,0,.259,1.79,1.572,1.572,0,0,0,1.786.289q18.218-6.168,36.439-12.324a3.739,3.739,0,0,0,2.617-2.923,10.887,10.887,0,0,0-.866-6.219A.412.412,0,0,0,727.886,394.088Z" transform="translate(-687.851 -350.349)" fill="#fff"/>
        <path id="Path_1704" data-name="Path 1704" d="M720.427,378.126a2.125,2.125,0,0,0,1.459,1.883,2.217,2.217,0,0,0,2.484-.654,37.7,37.7,0,0,0,10.942-26.171,2.571,2.571,0,0,0-1.755-2.835h-.964a2.549,2.549,0,0,0-1.775,2.719,33.188,33.188,0,0,1-9.6,23.1A2.332,2.332,0,0,0,720.427,378.126Z" transform="translate(-684.685 -350.349)" fill="#fff"/>
        <path id="Path_1705" data-name="Path 1705" d="M749.486,387.663a40.513,40.513,0,0,0-27.447-3.235.589.589,0,0,1-.712-.261c-.673-.833-1.349-1.667-2.069-2.459-.934-1.026-1.914-2.011-2.922-3.065-.544,1.435-1.01,2.7-1.511,3.957a.583.583,0,0,0,.148.739c.829.857,1.628,1.742,2.481,2.663-.4.183-.7.321-1.006.463a2.245,2.245,0,0,0-1.226,3.057,2.22,2.22,0,0,0,3.09,1.01c5.443-2.622,11.2-3.109,17.1-2.469a35.245,35.245,0,0,1,12.1,3.577,2.673,2.673,0,0,0,1.647.139,1.977,1.977,0,0,0,1.564-1.829A2.162,2.162,0,0,0,749.486,387.663Z" transform="translate(-685.235 -347.598)" fill="#fff"/>
        <path id="Path_1706" data-name="Path 1706" d="M732.357,374.026a2.159,2.159,0,0,0-.994,2.543,2.452,2.452,0,0,0,2.205,1.684,11.356,11.356,0,0,0,1.221-.49,22.369,22.369,0,0,1,7.827-2.583,2.252,2.252,0,0,0,2.054-2.424,2.223,2.223,0,0,0-2.544-2.018,22.685,22.685,0,0,0-6.248,1.611A36.945,36.945,0,0,0,732.357,374.026Z" transform="translate(-683.63 -348.368)" fill="#fff"/>
        <path id="Path_1707" data-name="Path 1707" d="M737.575,392.516a10.861,10.861,0,0,0-4.948-1.431c-.226,0-.351,0-.476,0a2.311,2.311,0,0,0-2.225,2.242,1.962,1.962,0,0,0,1.986,2.187,7.609,7.609,0,0,1,3.359,1.133,2.255,2.255,0,0,0,3.248-.762A2.416,2.416,0,0,0,737.575,392.516Z" transform="translate(-683.76 -346.389)" fill="#fff"/>
        <path id="Path_1708" data-name="Path 1708" d="M701.932,365.006a7.244,7.244,0,0,1,1,3.182,2,2,0,0,0,2.435,1.928,2.216,2.216,0,0,0,2.015-2.222,11.349,11.349,0,0,0-1.527-5.526,2.389,2.389,0,0,0-2.839-1.036,2.235,2.235,0,0,0-1.578,2.392A3.9,3.9,0,0,0,701.932,365.006Z" transform="translate(-686.531 -349.294)" fill="#fff"/>
        <path id="Path_1709" data-name="Path 1709" d="M736.228,368.4a2.249,2.249,0,0,0,2.23-2.262,2.238,2.238,0,0,0-4.477.011A2.262,2.262,0,0,0,736.228,368.4Z" transform="translate(-683.366 -349.029)" fill="#fff"/>
        <path id="Path_1710" data-name="Path 1710" d="M719.944,356.18a2.236,2.236,0,1,0-2.24-2.242A2.222,2.222,0,0,0,719.944,356.18Z" transform="translate(-684.948 -350.217)" fill="#fff"/>
        <path id="Path_1711" data-name="Path 1711" d="M744.335,364.325a2.24,2.24,0,1,0-2.195-2.227A2.215,2.215,0,0,0,744.335,364.325Z" transform="translate(-682.573 -349.426)" fill="#fff"/>
        <path id="Path_1712" data-name="Path 1712" d="M719.055,363.467a2.232,2.232,0,1,0,2.227-2.262A2.249,2.249,0,0,0,719.055,363.467Z" transform="translate(-684.817 -349.294)" fill="#fff"/>
        <path id="Path_1713" data-name="Path 1713" d="M741.665,377.5a2.238,2.238,0,1,0,0,4.477,2.238,2.238,0,0,0,0-4.477Z" transform="translate(-682.837 -347.709)" fill="#fff"/>
        <path id="Path_1714" data-name="Path 1714" d="M743.02,395.159a2.229,2.229,0,1,0,2.218,2.2A2.2,2.2,0,0,0,743.02,395.159Z" transform="translate(-682.705 -345.993)" fill="#fff"/>
      </g>
    </g>
  </g>
</svg>
