<svg xmlns="http://www.w3.org/2000/svg" width="45" height="45" viewBox="0 0 45 45">
  <g id="Group_7688" data-name="Group 7688" transform="translate(-1282 -31)">
    <circle id="Ellipse_566" data-name="Ellipse 566" cx="22.5" cy="22.5" r="22.5" transform="translate(1282 31)" fill="#1a5669"/>
    <g id="Layer_2" data-name="Layer 2" transform="translate(1292.015 42.367)">
      <g id="Layer_1" data-name="Layer 1" transform="translate(0.001)">
        <path id="Path_2429" data-name="Path 2429" d="M106.047,0a.345.345,0,0,0,.058.046.865.865,0,0,1,.514.872v20.44a.811.811,0,0,1-.8.909H93.429a.812.812,0,0,1-.8-.912q0-1.609,0-3.218a.776.776,0,1,1,1.528,0v2.381H105.08V1.75H94.155V4.129a.775.775,0,1,1-1.526.009c0-1,.016-2-.007-3A1.067,1.067,0,0,1,93.2,0Z" transform="translate(-85.649)" fill="#fff"/>
        <path id="Path_2430" data-name="Path 2430" d="M11.083,151.143H1.24a1.154,1.154,0,0,1-1.109-.677,1.139,1.139,0,0,1,.123-1.244,1.21,1.21,0,0,1,1.046-.479q4.731.008,9.464,0h.321l.051-.08c-.366-.348-.737-.69-1.094-1.046a1.176,1.176,0,0,1-.319-1.343,1.2,1.2,0,0,1,1.8-.551,2.15,2.15,0,0,1,.294.255q1.5,1.495,3,2.994a1.23,1.23,0,0,1,0,1.941q-1.527,1.532-3.06,3.059a1.21,1.21,0,0,1-2.092-.589,1.167,1.167,0,0,1,.362-1.092c.358-.364.727-.717,1.091-1.075Z" transform="translate(-0.001 -138.81)" fill="#fff"/>
      </g>
    </g>
  </g>
</svg>
