<svg xmlns="http://www.w3.org/2000/svg" width="27.999" height="28.026" viewBox="0 0 27.999 28.026">
  <g id="Group_85" data-name="Group 85" transform="translate(0.001 0.024)">
    <path id="Path_123" data-name="Path 123" d="M28,13.124A14.013,14.013,0,1,0,14.019,28h8.146A5.839,5.839,0,0,0,28,22.169Zm-2.333,9.044a3.5,3.5,0,0,1-3.5,3.5H14.019a11.713,11.713,0,0,1-8.721-3.9,11.567,11.567,0,0,1-2.888-9.116,11.716,11.716,0,0,1,10.1-10.22,12.426,12.426,0,0,1,1.517-.1A11.577,11.577,0,0,1,21.465,5.02a11.712,11.712,0,0,1,4.2,8.215Z" transform="translate(0)" fill="#707070"/>
    <path id="Path_124" data-name="Path 124" d="M8.167,9.333h4.666a1.167,1.167,0,0,0,0-2.333H8.167a1.167,1.167,0,0,0,0,2.333Z" transform="translate(1.166 1.17)" fill="#707070"/>
    <path id="Path_125" data-name="Path 125" d="M17.5,11H8.167a1.167,1.167,0,0,0,0,2.333H17.5A1.167,1.167,0,0,0,17.5,11Z" transform="translate(1.166 1.836)" fill="#707070"/>
    <path id="Path_126" data-name="Path 126" d="M17.5,15H8.167a1.167,1.167,0,0,0,0,2.333H17.5A1.167,1.167,0,1,0,17.5,15Z" transform="translate(1.166 2.503)" fill="#707070"/>
  </g>
</svg>
