<svg id="Group_91" data-name="Group 91" xmlns="http://www.w3.org/2000/svg" width="24" height="24" viewBox="0 0 24 24">
  <path id="Path_139" data-name="Path 139" d="M19,0H5A5.006,5.006,0,0,0,0,5V19a5.006,5.006,0,0,0,5,5H19a5.006,5.006,0,0,0,5-5V5A5.006,5.006,0,0,0,19,0ZM5,2H19a3,3,0,0,1,3,3V19a2.952,2.952,0,0,1-.3,1.285l-9.163-9.163a5,5,0,0,0-7.071,0h0L2,14.586V5A3,3,0,0,1,5,2ZM5,22a3,3,0,0,1-3-3V17.414l4.878-4.878a3,3,0,0,1,4.243,0h0L20.285,21.7A2.952,2.952,0,0,1,19,22Z" fill="var(--primary_theme_color_green)"/>
  <path id="Path_140" data-name="Path 140" d="M16,10.5A3.5,3.5,0,1,0,12.5,7,3.5,3.5,0,0,0,16,10.5Zm0-5A1.5,1.5,0,1,1,14.5,7,1.5,1.5,0,0,1,16,5.5Z" fill="var(--primary_theme_color_green)"/>
</svg>
