<svg xmlns="http://www.w3.org/2000/svg" width="31.15" height="27.026" viewBox="0 0 31.15 27.026">
  <g id="Layer_2" data-name="Layer 2" transform="translate(4 -0.197)">
    <g id="Layer_1" data-name="Layer 1" transform="translate(0 -0.03)">
      <g id="Group_7689" data-name="Group 7689" transform="translate(44.455 18.844)">
        <path id="Path_820" data-name="Path 820" d="M-29.052-18l-7.725,7.725a2.786,2.786,0,0,0-.809,1.966V5.62A2.8,2.8,0,0,0-34.8,8.408h12.55a2.809,2.809,0,0,0,2.566-1.687l4.545-10.611a4.19,4.19,0,0,0-2.216-5.494,4.19,4.19,0,0,0-1.632-.334h-7.881l1.324-6.388a2.105,2.105,0,0,0-.57-1.91A2.079,2.079,0,0,0-29.049-18Z" transform="translate(-2.504)" fill="#1a5669"/>
        <path id="Path_821" data-name="Path 821" d="M-45.667,11.49A2.8,2.8,0,0,0-42.878,8.7V-2.453a2.789,2.789,0,0,0-2.789-2.788,2.788,2.788,0,0,0-2.788,2.788V8.7A2.8,2.8,0,0,0-45.667,11.49Z" transform="translate(0 -3.082)" fill="#1a5669"/>
      </g>
    </g>
  </g>
</svg>
