<?xml version="1.0"?>
<svg xmlns="http://www.w3.org/2000/svg" height="512px" viewBox="-53 0 511 512" width="512px" class=""><g><path d="m347.167969 0c32.402343 0 58.664062 26.261719 58.664062 58.667969v394.664062c0 32.40625-26.261719 58.667969-58.664062 58.667969h-288c-24.960938 0-46.082031-15.359375-54.613281-37.332031-2.5625-6.613281-4.054688-13.867188-4.054688-21.335938v-394.664062c0-32.40625 26.261719-58.667969 58.667969-58.667969zm0 0" fill="#eceff1" data-original="#ECEFF1" class="" style="fill:#CAE8F9" data-old_color="#ECEFF1"/><path d="m160.5 192c0 23.5625-19.101562 42.667969-42.667969 42.667969-23.5625 0-42.664062-19.105469-42.664062-42.667969s19.101562-42.667969 42.664062-42.667969c23.566407 0 42.667969 19.105469 42.667969 42.667969zm0 0" fill="#ffc107" data-original="#FFC107" class="active-path" style="fill:#FFC107" data-old_color="#FEDBAB"/><path d="m405.832031 329.386719v123.945312c0 32.429688-26.238281 58.667969-58.664062 58.667969h-288c-24.960938 0-46.082031-15.359375-54.613281-37.332031l246.824218-246.828125c14.507813-14.507813 38.402344-14.507813 52.90625 0zm0 0" fill="#388e3c" data-original="#388E3C" class="" style="fill:#136EF1" data-old_color="#388E3C"/><path d="m332.445312 512h-273.277343c-24.960938 0-46.082031-15.359375-54.613281-37.332031-2.5625-6.613281-4.054688-13.867188-4.054688-21.335938v-81.277343l69.546875-69.546876c14.507813-14.507812 38.398437-14.507812 52.90625 0zm0 0" fill="#4caf50" data-original="#4CAF50" class="" style="fill:#17ACE8" data-old_color="#4CAF50"/></g> </svg>
