<svg xmlns="http://www.w3.org/2000/svg" width="13.964" height="13.964" viewBox="0 0 13.964 13.964">
  <path id="Icon_open-globe" data-name="Icon open-globe" d="M6.982,0a6.982,6.982,0,1,0,6.982,6.982A6.98,6.98,0,0,0,6.982,0Zm0,1.745a5.181,5.181,0,0,1,1.641.332c-.367.349-.785.663-.716.977s1.2.227,1.2.873c0,.471-.733.611-.227,1.152C9.5,5.69,7.767,6.79,7.732,7.593,7.68,9.042,9.2,9.286,10.4,9.286c.733,0,.925.349.873.768a5.251,5.251,0,0,1-4.311,2.182,5,5,0,0,1-1.85-.384c.384-.768-.489-2.287-1.309-2.775-.4-.4-1.257-.244-1.745-.436a5.125,5.125,0,0,1-.332-1.466.309.309,0,0,1,.279-.157c.332,0,.785.663,1.03.593.314-.07-1.292-2.287-.541-2.723.349-.209,1.047.681.82-.279-.209-.89.628-.489,1.152-.716.454-.192.785-.716.227-1.03a1.866,1.866,0,0,1-.384-.332,5.181,5.181,0,0,1,2.671-.768Zm4.032,1.9A5.773,5.773,0,0,1,11.782,4.9v.052c-.07.122-.192.192-.384.384-.489.489-.559-.367-.768-.541-.227-.209-1.047.035-1.152-.227-.122-.314.873-.733,1.536-.925Z" fill="#757d86"/>
</svg>
