<svg xmlns="http://www.w3.org/2000/svg" width="166.385" height="166.384" viewBox="0 0 166.385 166.384">
  <g id="Group_5168" data-name="Group 5168" transform="translate(0 0)">
    <ellipse id="Ellipse_205" data-name="Ellipse 205" cx="64.322" cy="64.322" rx="64.322" ry="64.322" transform="translate(18.87 18.872)" fill="#fff"/>
    <g id="Group_5077" data-name="Group 5077" transform="translate(0)">
      <circle id="Ellipse_206" data-name="Ellipse 206" cx="58.826" cy="58.826" r="58.826" transform="translate(0 83.192) rotate(-45)" fill="#fb8c00"/>
      <path id="Path_1696" data-name="Path 1696" d="M596.071,429.422a58.828,58.828,0,0,1-94.266-44.58,69.9,69.9,0,0,0,94.266,44.58Z" transform="translate(-477.387 -299.308)" fill="#e6e6e6" style="mix-blend-mode: multiply;isolation: isolate"/>
      <g id="Group_5076" data-name="Group 5076" transform="translate(51.3 49.134)">
        <path id="Path_1697" data-name="Path 1697" d="M540.573,394.018c-.889-.307-1.745-.724-2.71-1.13-3.182,6.792-6.353,13.573-9.568,20.452,1.81.845,3.467,1.613,5.223,2.436,3.3-7.055,6.539-13.99,9.809-20.968C542.339,394.534,541.44,394.325,540.573,394.018Z" transform="translate(-526.112 -347.66)" fill="#fff"/>
        <path id="Path_1698" data-name="Path 1698" d="M558.128,381.925A12.882,12.882,0,1,0,545.1,394.752,12.965,12.965,0,0,0,558.128,381.925Zm-14.264-3.138a2.14,2.14,0,0,1,3.072.044,4.51,4.51,0,0,1,.011,6.177,2.141,2.141,0,0,1-3.072.077A4.484,4.484,0,0,1,543.864,378.787Z" transform="translate(-525.716 -349.984)" fill="#fff"/>
        <path id="Path_1699" data-name="Path 1699" d="M578.774,359.217a31.836,31.836,0,0,0-45.074,3.939c-11.268,13.583-8.065,31-.955,39.346,1.108-2.359,2.195-4.7,3.314-7.1-.274-.252-.537-.461-.779-.691a14.75,14.75,0,0,1-4.586-13.54c1.086-6.4,4.894-10.7,11.159-12.388a14.424,14.424,0,0,1,15.668,4.9c4.158,4.938,4.849,10.6,2.128,16.436-2.4,5.168-6.66,8.01-12.344,8.712-.461.055-1.163.208-1.317.527-1.745,3.577-3.4,7.187-5.113,10.829,10.654,7.549,29.427,8.1,41.508-5.892A31.816,31.816,0,0,0,578.774,359.217Zm-9.952,21.33a2.212,2.212,0,0,1,3.281.066,4.038,4.038,0,0,1,1.1,2.425,4.551,4.551,0,0,1-1.174,3.632,2.15,2.15,0,0,1-3.2-.011A4.533,4.533,0,0,1,568.822,380.547Zm-6.693,22.767c-1.514.011-3.017,0-4.531,0-1.536,0-3.083.011-4.619,0-1.009-.011-1.536-.439-1.525-1.207s.56-1.207,1.547-1.207q4.575-.016,9.151,0c.965,0,1.525.472,1.525,1.229S563.128,403.3,562.129,403.314Z" transform="translate(-526.305 -351.667)" fill="#fff"/>
      </g>
    </g>
  </g>
</svg>
