<svg xmlns="http://www.w3.org/2000/svg" width="28.029" height="28" viewBox="0 0 28.029 28">
  <path id="Path_587" data-name="Path 587" d="M31.9,12.23a5.436,5.436,0,0,0-4.478,2.361l-7.593-3.429a5.327,5.327,0,0,0,.006-4.069l7.583-3.446A5.437,5.437,0,1,0,26.448.565a5.516,5.516,0,0,0,.093.917L18.48,5.144a5.445,5.445,0,1,0-.017,7.964l8.082,3.649a5.6,5.6,0,0,0-.092.916A5.444,5.444,0,1,0,31.9,12.23Zm0-14.777A3.111,3.111,0,1,1,28.785.566h0A3.113,3.113,0,0,1,31.9-2.547ZM14.787,12.23A3.111,3.111,0,1,1,17.9,9.118h0A3.115,3.115,0,0,1,14.787,12.23ZM31.9,20.785a3.111,3.111,0,1,1,3.111-3.111h0A3.113,3.113,0,0,1,31.9,20.785Z" transform="translate(-9.312 4.881)" fill="#707070"/>
</svg>
