<svg id="Component_563_1" data-name="Component 563 – 1" xmlns="http://www.w3.org/2000/svg" width="25.119" height="24" viewBox="0 0 25.119 24">
  <path id="Path_121" data-name="Path 121" d="M245.5,264.735a1.141,1.141,0,0,1-1.126-1.335l1.246-7.263-5.279-5.146a1.142,1.142,0,0,1,.633-1.948l7.3-1.063,3.262-6.609a1.142,1.142,0,0,1,2.048,0l3.262,6.609,7.3,1.063a1.142,1.142,0,0,1,.632,1.948l-5.279,5.138,1.246,7.263a1.142,1.142,0,0,1-1.656,1.2l-6.525-3.425-6.525,3.431A1.137,1.137,0,0,1,245.5,264.735ZM243.6,250.97l4.052,3.951a1.145,1.145,0,0,1,.329,1.011l-.957,5.574,5.009-2.633a1.139,1.139,0,0,1,1.062,0L258.1,261.5l-.957-5.578a1.144,1.144,0,0,1,.33-1.012l4.049-3.941-5.6-.816a1.142,1.142,0,0,1-.859-.624l-2.5-5.073-2.5,5.073a1.141,1.141,0,0,1-.859.624Z" transform="translate(-240 -240.735)" fill="#757d86"/>
</svg>
