<svg xmlns="http://www.w3.org/2000/svg" width="21.683" height="20.753" viewBox="0 0 21.683 20.753">
  <g id="Group_455" data-name="Group 455" transform="translate(-1279 -296.054)">
    <path id="Icon_awesome-star" data-name="Icon awesome-star" d="M11.12.721,8.473,6.087,2.552,6.95a1.3,1.3,0,0,0-.717,2.213l4.284,4.174-1.013,5.9A1.3,1.3,0,0,0,6.986,20.6l5.3-2.784,5.3,2.784a1.3,1.3,0,0,0,1.881-1.366l-1.013-5.9,4.284-4.174a1.3,1.3,0,0,0-.717-2.213l-5.921-.863L13.446.721a1.3,1.3,0,0,0-2.326,0Z" transform="translate(1277.559 296.055)" fill="#1a5669"/>
    <path id="Path_121" data-name="Path 121" d="M244.672,261.112a.969.969,0,0,1-.956-1.134l1.058-6.167-4.482-4.369a.969.969,0,0,1,.537-1.654l6.195-.9,2.77-5.612a.969.969,0,0,1,1.738,0l2.77,5.612,6.195.9a.969.969,0,0,1,.536,1.654l-4.482,4.362,1.058,6.167a.97.97,0,0,1-1.406,1.022l-5.54-2.908L245.124,261A.965.965,0,0,1,244.672,261.112Zm-1.62-11.687,3.441,3.354a.972.972,0,0,1,.279.858l-.812,4.733,4.252-2.235a.967.967,0,0,1,.9,0l4.253,2.232-.812-4.736a.972.972,0,0,1,.28-.859l3.438-3.346-4.753-.693a.97.97,0,0,1-.73-.53l-2.126-4.307-2.126,4.307a.969.969,0,0,1-.729.53Z" transform="translate(1039 55.319)" fill="#757d86" opacity="0"/>
  </g>
</svg>
