<svg xmlns="http://www.w3.org/2000/svg" viewBox="0 0 120.57 121.42"><defs><style>.cls-1{fill:#009245;}.cls-2{fill:#b3d8b5;}.cls-3{fill:#ffe9b4;}.cls-4{fill:#f0d59a;}.cls-5{fill:#48ae4d;}.cls-6{fill:#010101;}</style></defs><g id="Layer_2" data-name="Layer 2"><g id="Layer_1-2" data-name="Layer 1"><path class="cls-1" d="M114.92,60.71l3.63-7.08-5.2-6,1.82-7.74-6.5-4.58-.09-7.94-7.4-2.89-2-7.7-7.88-1-3.76-7-7.9.87L74.33,3.72,66.87,6.46,60.28,2,53.69,6.46,46.24,3.72,40.91,9.61,33,8.74l-3.76,7-7.88,1-2,7.7L12,27.37l-.09,7.94L5.4,39.89l1.82,7.74-5.2,6,3.63,7.08L2,67.78l5.2,6L5.4,81.52l6.5,4.58.09,8,7.4,2.89,2,7.69,7.88,1.05,3.76,7,7.9-.87,5.33,5.89L53.69,115l6.59,4.44L66.87,115l7.46,2.75,5.33-5.89,7.9.87,3.76-7,7.88-1.05,2-7.69,7.4-2.89.09-8,6.5-4.58-1.82-7.73,5.2-6Z"/><circle class="cls-2" cx="60.28" cy="60.71" r="46.54"/><circle class="cls-3" cx="60.28" cy="60.71" r="30.35"/><path class="cls-4" d="M35.61,78.39A30.36,30.36,0,0,0,87.48,47.22,74,74,0,0,1,35.61,78.39Z"/><path class="cls-5" d="M52.19,78.92a4.05,4.05,0,0,1-2.86-1.19l-8.1-8.09a4.05,4.05,0,0,1,5.68-5.78l.05.06,5.23,5.23,19.4-19.4a4,4,0,0,1,5.72,5.72L55.05,77.73a4.05,4.05,0,0,1-2.86,1.19Z"/><path class="cls-6" d="M116.33,38.24l-5.64-4-.08-6.92a2,2,0,0,0-1.29-1.86L102.88,23l-1.72-6.69a2,2,0,0,0-1.7-1.5l-6.85-.91L89.34,7.78a2,2,0,0,0-2-1.06l-6.87.76L75.83,2.36a2,2,0,0,0-2.2-.54L67.15,4.21,61.42.35a2,2,0,0,0-2.27,0L53.42,4.21,46.94,1.82a2,2,0,0,0-2.2.54L40.1,7.48l-6.87-.76a2,2,0,0,0-2,1.06L28,13.87l-6.85.91a2,2,0,0,0-1.69,1.5L17.69,23l-6.44,2.51A2,2,0,0,0,10,27.34l-.08,6.92-5.65,4a2,2,0,0,0-.8,2.12L5,47.08.49,52.31a2,2,0,0,0-.27,2.25l3.15,6.15L.22,66.86A2,2,0,0,0,.49,69.1L5,74.33,3.43,81.06a2,2,0,0,0,.8,2.12l5.65,4L10,94.07a2,2,0,0,0,1.29,1.86l6.44,2.52,1.72,6.69a2,2,0,0,0,1.7,1.5l6.85.91,3.27,6.09a2,2,0,0,0,2,1l6.87-.76,4.64,5.13a2,2,0,0,0,2.2.54l6.48-2.39,5.74,3.86a2,2,0,0,0,2.26,0l5.73-3.86,6.48,2.39a2,2,0,0,0,2.2-.54l4.64-5.13,6.87.76a2,2,0,0,0,2-1l3.27-6.09,6.85-.91a2,2,0,0,0,1.69-1.5l1.73-6.69,6.43-2.52a2,2,0,0,0,1.29-1.86l.08-6.91,5.65-4a2,2,0,0,0,.8-2.12l-1.58-6.73,4.52-5.23a2,2,0,0,0,.27-2.24l-3.16-6.15,3.16-6.15a2,2,0,0,0-.27-2.25l-4.53-5.23,1.59-6.72a2,2,0,0,0-.81-2.12Zm-.21,15.69-3,5.85a2,2,0,0,0,0,1.85l3,5.86-4.3,5a2,2,0,0,0-.44,1.79l1.51,6.41-5.38,3.79a2,2,0,0,0-.86,1.63l-.08,6.58-6.13,2.39a2,2,0,0,0-1.22,1.38l-1.64,6.38-6.53.86a2,2,0,0,0-1.51,1l-3.11,5.8-6.54-.72a2,2,0,0,0-1.73.65l-4.41,4.88-6.18-2.28a2,2,0,0,0-1.83.22L60.28,117l-5.45-3.68a2,2,0,0,0-1.83-.22l-6.18,2.28-4.41-4.88a2,2,0,0,0-1.73-.65l-6.54.72L31,104.72a2,2,0,0,0-1.52-1L23,102.81l-1.64-6.38a2,2,0,0,0-1.23-1.38L14,92.66l-.07-6.58a2,2,0,0,0-.86-1.63L7.68,80.66l1.51-6.41a2,2,0,0,0-.44-1.79l-4.3-5,3-5.86a2,2,0,0,0,0-1.85l-3-5.85,4.3-5a2,2,0,0,0,.44-1.79l-1.51-6.4L13.06,37a2,2,0,0,0,.86-1.63L14,28.76l6.13-2.4A2,2,0,0,0,21.35,25L23,18.61l6.52-.87a2,2,0,0,0,1.52-1l3.11-5.79,6.54.72A2,2,0,0,0,42.41,11l4.41-4.88L53,8.36a2,2,0,0,0,1.83-.22l5.45-3.68,5.46,3.68a2,2,0,0,0,1.83.22l6.18-2.27L78.16,11a2,2,0,0,0,1.73.66l6.54-.72,3.11,5.79a2,2,0,0,0,1.52,1l6.52.87L99.22,25a2,2,0,0,0,1.23,1.38l6.13,2.4.07,6.58a2,2,0,0,0,.86,1.63l5.37,3.79-1.51,6.4a2.07,2.07,0,0,0,.44,1.79Z"/><path class="cls-6" d="M96.71,60.71v.08h4.05v-.08c0-1.41-.08-2.83-.22-4.23l-4,.42A37.1,37.1,0,0,1,96.71,60.71Z"/><path class="cls-6" d="M27,75.48l-3.7,1.65a40.53,40.53,0,0,0,1.93,3.77l3.5-2C28.08,77.78,27.5,76.64,27,75.48Z"/><path class="cls-6" d="M33.16,90.75c1.05.94,2.15,1.83,3.29,2.67l2.38-3.27a35.64,35.64,0,0,1-2.95-2.41Z"/><path class="cls-6" d="M87.36,36.34a37.82,37.82,0,0,1,2.4,3L93,36.92a42,42,0,0,0-2.66-3.29Z"/><path class="cls-6" d="M47.72,99.19a41.1,41.1,0,0,0,4.09,1.1l.84-4a36.33,36.33,0,0,1-3.68-1Z"/><path class="cls-6" d="M95.92,53.13l4-.83a41.24,41.24,0,0,0-1.09-4.1l-3.85,1.25A36.28,36.28,0,0,1,95.92,53.13Z"/><path class="cls-6" d="M93.57,45.89l3.7-1.64a42,42,0,0,0-1.93-3.78l-3.5,2A36,36,0,0,1,93.57,45.89Z"/><path class="cls-6" d="M56,101a39.82,39.82,0,0,0,4.23.23V97.13a37.05,37.05,0,0,1-3.8-.2Z"/><path class="cls-6" d="M30.79,82.08l-3.28,2.38a42,42,0,0,0,2.66,3.29l3-2.71A34,34,0,0,1,30.79,82.08Z"/><path class="cls-6" d="M87.37,30.64A38.34,38.34,0,0,0,84.08,28L81.7,31.24a36.05,36.05,0,0,1,3,2.4Z"/><path class="cls-6" d="M80.53,25.66a40.53,40.53,0,0,0-3.77-1.93l-1.65,3.7c1.16.52,2.3,1.1,3.4,1.73Z"/><path class="cls-6" d="M49.05,26.05,47.8,22.2a38.88,38.88,0,0,0-4,1.52l1.65,3.69A37.28,37.28,0,0,1,49.05,26.05Z"/><path class="cls-6" d="M56.5,24.48l-.42-4a42.24,42.24,0,0,0-4.18.66l.83,4a34,34,0,0,1,3.77-.59Z"/><path class="cls-6" d="M64.53,20.46a39.63,39.63,0,0,0-4.22-.22v4a37.1,37.1,0,0,1,3.81.2Z"/><path class="cls-6" d="M72.81,22.21a41.05,41.05,0,0,0-4.09-1.09l-.84,3.95c1.24.27,2.47.6,3.68,1Z"/><path class="cls-6" d="M89.71,82.17,93,84.56A39.16,39.16,0,0,0,95.3,81l-3.5-2a35.71,35.71,0,0,1-2.09,3.19Z"/><path class="cls-6" d="M78.44,92.29l2,3.51c1.22-.71,2.41-1.48,3.56-2.31l-2.38-3.27A37.16,37.16,0,0,1,78.44,92.29Z"/><path class="cls-6" d="M40,95.73a38.07,38.07,0,0,0,3.76,1.93L45.42,94A36.1,36.1,0,0,1,42,92.23Z"/><path class="cls-6" d="M84.61,87.82l2.7,3a40.3,40.3,0,0,0,3-3l-3-2.71C86.45,86.07,85.55,87,84.61,87.82Z"/><path class="cls-6" d="M93.54,75.59l3.69,1.66a40.28,40.28,0,0,0,1.53-4L94.91,72a34.68,34.68,0,0,1-1.37,3.55Z"/><path class="cls-6" d="M71.48,95.38l1.24,3.85a39.37,39.37,0,0,0,4-1.51L75,94A37.28,37.28,0,0,1,71.48,95.38Z"/><path class="cls-6" d="M24.66,53.09l-4-.84A39.27,39.27,0,0,0,20,56.44l4,.42A34.38,34.38,0,0,1,24.66,53.09Z"/><path class="cls-6" d="M23.86,60.71v-.05H19.81v.05A39,39,0,0,0,20,64.89l4-.41A36.61,36.61,0,0,1,23.86,60.71Z"/><path class="cls-6" d="M64,96.94l.41,4a42,42,0,0,0,4.19-.65l-.83-4A36.9,36.9,0,0,1,64,96.94Z"/><path class="cls-6" d="M27,45.86l-3.69-1.65a37.83,37.83,0,0,0-1.52,3.95l3.84,1.25C26,48.21,26.5,47,27,45.86Z"/><path class="cls-6" d="M24.64,68.24l-4,.83a38.67,38.67,0,0,0,1.09,4.1l3.85-1.25A36.28,36.28,0,0,1,24.64,68.24Z"/><path class="cls-6" d="M95.9,68.36l4,.85a39.7,39.7,0,0,0,.67-4.19l-4-.42A34.2,34.2,0,0,1,95.9,68.36Z"/><path class="cls-6" d="M35.93,33.62l-2.7-3a42.31,42.31,0,0,0-3,3l3,2.71c.86-.94,1.76-1.84,2.7-2.69Z"/><path class="cls-6" d="M30.83,39.27l-3.27-2.38a41.49,41.49,0,0,0-2.31,3.55l3.5,2A37.27,37.27,0,0,1,30.83,39.27Z"/><path class="cls-6" d="M42.09,29.14l-2-3.5A41.49,41.49,0,0,0,36.52,28l2.38,3.27A37.1,37.1,0,0,1,42.09,29.14Z"/><path class="cls-6" d="M92.66,60.71A32.38,32.38,0,1,0,60.28,93.08,32.38,32.38,0,0,0,92.66,60.71ZM60.28,89A28.33,28.33,0,1,1,88.61,60.71,28.34,28.34,0,0,1,60.28,89Z"/><path class="cls-6" d="M78.74,48.32a6.07,6.07,0,0,0-8.58,0l-18,18-3.8-3.81a6.07,6.07,0,1,0-8.59,8.59l8.1,8.09a6,6,0,0,0,8.58,0h0L78.74,56.91a6.08,6.08,0,0,0,0-8.59ZM75.88,54,53.62,76.3a2,2,0,0,1-2.86,0l-8.09-8.09a2,2,0,0,1,2.86-2.86l5.23,5.23a2,2,0,0,0,2.86,0L73,51.18A2,2,0,0,1,75.93,54s0,0-.05,0Z"/><path class="cls-6" d="M60.28,12.14a48.57,48.57,0,1,0,48.57,48.57A48.62,48.62,0,0,0,60.28,12.14Zm0,93.09A44.52,44.52,0,1,1,104.8,60.71,44.57,44.57,0,0,1,60.28,105.23Z"/></g></g></svg>