<?xml version="1.0" encoding="iso-8859-1"?>
<!-- Generator: Adobe Illustrator 19.0.0, SVG Export Plug-In . SVG Version: 6.00 Build 0)  -->
<svg version="1.1" id="Capa_1" xmlns="http://www.w3.org/2000/svg" xmlns:xlink="http://www.w3.org/1999/xlink" x="0px" y="0px"
	 viewBox="0 0 512 512" style="enable-background:new 0 0 512 512;" xml:space="preserve">
<path style="fill:#6DC8BF;" d="M17.067,366.933h68.267v102.4H17.067V366.933z"/>
<path style="fill:#00ADDC;" d="M119.467,264.533h68.267v204.8h-68.267V264.533z"/>
<path style="fill:#6DC8BF;" d="M221.867,315.733h68.267v153.6h-68.267V315.733z"/>
<path style="fill:#29ABE2;" d="M324.267,179.2h68.267v290.133h-68.267V179.2z"/>
<path style="fill:#0071BC;" d="M426.667,76.8h68.267v392.533h-68.267V76.8z"/>
<path d="M0,494.933h512V512H0V494.933z"/>
<path d="M17.067,358.4c-4.71,0-8.533,3.823-8.533,8.533v102.4c0,4.71,3.823,8.533,8.533,8.533h68.267
	c4.71,0,8.533-3.823,8.533-8.533v-102.4c0-4.71-3.823-8.533-8.533-8.533H17.067z M76.8,460.8H25.6v-85.333h51.2V460.8z"/>
<path d="M119.467,256c-4.71,0-8.533,3.823-8.533,8.533v204.8c0,4.71,3.823,8.533,8.533,8.533h68.267c4.71,0,8.533-3.823,8.533-8.533
	v-204.8c0-4.71-3.823-8.533-8.533-8.533H119.467z M179.2,460.8H128V273.067h51.2V460.8z"/>
<path d="M221.867,307.2c-4.71,0-8.533,3.823-8.533,8.533v153.6c0,4.71,3.823,8.533,8.533,8.533h68.267
	c4.71,0,8.533-3.823,8.533-8.533v-153.6c0-4.71-3.823-8.533-8.533-8.533H221.867z M281.6,460.8h-51.2V324.267h51.2V460.8z"/>
<path d="M324.267,170.667c-4.71,0-8.533,3.823-8.533,8.533v290.133c0,4.71,3.823,8.533,8.533,8.533h68.267
	c4.71,0,8.533-3.823,8.533-8.533V179.2c0-4.71-3.823-8.533-8.533-8.533H324.267z M384,460.8h-51.2V187.733H384V460.8z"/>
<path d="M418.133,76.8v392.533c0,4.71,3.823,8.533,8.533,8.533h68.267c4.71,0,8.533-3.823,8.533-8.533V76.8
	c0-4.71-3.823-8.533-8.533-8.533h-68.267C421.956,68.267,418.133,72.09,418.133,76.8z M435.2,85.333h51.2V460.8h-51.2V85.333z"/>
<path d="M14.566,270.566L153.6,131.533l79.3,79.3c3.328,3.328,8.738,3.328,12.066,0l181.7-181.7V51.2h17.067V8.533
	c0-4.71-3.823-8.533-8.533-8.533h-42.667v17.067h22.067L238.933,192.734l-79.3-79.3c-3.328-3.328-8.738-3.328-12.066,0L2.5,258.5
	L14.566,270.566z"/>
<path d="M0,0h119.467v17.067H0V0z"/>
<path d="M0,25.6h119.467v17.067H0V25.6z"/>
<path d="M0,51.2h119.467v17.067H0V51.2z"/>
<path d="M0,76.8h59.733v17.067H0V76.8z"/>
<g>
</g>
<g>
</g>
<g>
</g>
<g>
</g>
<g>
</g>
<g>
</g>
<g>
</g>
<g>
</g>
<g>
</g>
<g>
</g>
<g>
</g>
<g>
</g>
<g>
</g>
<g>
</g>
<g>
</g>
</svg>
