<svg xmlns="http://www.w3.org/2000/svg" viewBox="0 0 45.5 39.32"><defs><style>.cls-1{fill:#fff;}</style></defs><g id="Layer_2" data-name="Layer 2"><g id="Layer_1-2" data-name="Layer 1"><path class="cls-1" d="M1.8,39.32a2,2,0,0,1-.63-.11A1.84,1.84,0,0,1,0,37.49v-32A5.3,5.3,0,0,1,5,0H40.46a5.3,5.3,0,0,1,5,5.51V28.94a5.3,5.3,0,0,1-5,5.51H6.84L3.14,38.7A1.75,1.75,0,0,1,1.8,39.32ZM5,3.26A2.09,2.09,0,0,0,3.26,5.51V33.59l1.28-1.47a2.71,2.71,0,0,1,2-.93h33.9a2.09,2.09,0,0,0,1.78-2.25V5.51a2.09,2.09,0,0,0-1.78-2.25Z"/><path class="cls-1" d="M36.93,12.65H10a1.23,1.23,0,1,1,0-2.45H36.93a1.23,1.23,0,0,1,0,2.45Z"/><path class="cls-1" d="M36.93,18.77H10a1.23,1.23,0,1,1,0-2.45H36.93a1.23,1.23,0,0,1,0,2.45Z"/><path class="cls-1" d="M36.93,24.89H10a1.23,1.23,0,1,1,0-2.45H36.93a1.23,1.23,0,0,1,0,2.45Z"/></g></g></svg>