<svg xmlns="http://www.w3.org/2000/svg" width="930" height="360" viewBox="0 0 930 360">
  <g id="COVER_IMAGE" data-name="COVER IMAGE" transform="translate(-4357 2858)">
    <path id="_7CWEMu1_OlW_9QjogRJVb2w5XxU54kuJMvox0F8N3uM8w50_1INzMukfqZDCGytXRSL6_Vcr4B5KAiLlfSGhjEs67Njvc5QIo0jPC18fRxIoYKWEqkmqrOBsYraubTqACqQfNL3nOSIrJVL0lp6Rhl" data-name="7CWEMu1_OlW+9QjogRJVb2w5XxU54kuJMvox0F8N3uM8w50_1INzMukfqZDCGytXRSL6+Vcr4B5KAiLlfSGhjEs67Njvc5QIo0jPC18fRxIoYKWEqkmqrOBsYraubTqACqQfNL3nOSIrJVL0lp6Rhl" d="M16,0H914a16,16,0,0,1,16,16V344a16,16,0,0,1-16,16H16A16,16,0,0,1,0,344V16A16,16,0,0,1,16,0Z" transform="translate(4357 -2858)" fill="#5f666a"/>
    <path id="Icon_awesome-images" data-name="Icon awesome-images" d="M270.107,218.335v9A27.01,27.01,0,0,1,243.1,254.349H27.011A27.01,27.01,0,0,1,0,227.339V83.282A27.01,27.01,0,0,1,27.011,56.271h9V173.318a45.069,45.069,0,0,0,45.018,45.018Zm54.021-45.018V29.261A27.01,27.01,0,0,0,297.117,2.25H81.032A27.01,27.01,0,0,0,54.021,29.261V173.318a27.01,27.01,0,0,0,27.011,27.011H297.117A27.01,27.01,0,0,0,324.128,173.318ZM144.057,56.271a27.011,27.011,0,1,1-27.011-27.011A27.01,27.01,0,0,1,144.057,56.271ZM90.036,137.3l31.24-31.24a6.753,6.753,0,0,1,9.55,0L153.06,128.3l76.257-76.257a6.753,6.753,0,0,1,9.55,0l49.246,49.247v63.025H90.036Z" transform="translate(4660 -2806.25)" fill="#c8ced0"/>
  </g>
</svg>
