<svg xmlns="http://www.w3.org/2000/svg" xmlns:xlink="http://www.w3.org/1999/xlink" viewBox="0 0 377.48 262.28"><defs><style>.cls-1{fill:none;}.cls-13,.cls-2{fill:#285d6b;}.cls-3{fill:#fff;}.cls-4{fill:#357d8e;}.cls-5{fill:#d2eafa;}.cls-6{fill:#124851;}.cls-7{fill:#7ed2f2;}.cls-8{fill:#2a5d6b;}.cls-9{fill:#5c838d;}.cls-10{fill:#006ebf;}.cls-11{fill:#0073cc;opacity:0.2;}.cls-12{clip-path:url(#clip-path);}.cls-13{fill-rule:evenodd;}.cls-14{fill:#d3ebfb;}</style><clipPath id="clip-path"><circle class="cls-1" cx="106.93" cy="202.64" r="9.77" transform="translate(-118.48 161.54) rotate(-51.85)"/></clipPath></defs><g id="Layer_2" data-name="Layer 2"><g id="Layer_2-2" data-name="Layer 2"><circle class="cls-2" cx="187.42" cy="34.55" r="34.55" transform="translate(130.41 216.4) rotate(-83.04)"/><circle class="cls-3" cx="187.42" cy="34.55" r="30.93"/><rect class="cls-2" x="186.58" y="6.13" width="1.31" height="4.5"/><rect class="cls-2" x="186.58" y="59.07" width="1.31" height="4.5"/><rect class="cls-2" x="213.05" y="32.6" width="1.31" height="4.5" transform="translate(248.56 -178.85) rotate(90)"/><rect class="cls-2" x="160.12" y="32.6" width="1.31" height="4.5" transform="translate(195.62 -125.92) rotate(90)"/><rect class="cls-2" x="202.86" y="53.47" width="1.31" height="4.5" transform="translate(398.26 -25.52) rotate(142.04)"/><rect class="cls-2" x="170.3" y="11.73" width="1.31" height="4.5" transform="translate(314.36 -80.15) rotate(142.04)"/><rect class="cls-2" x="195.21" y="57.62" width="1.31" height="4.5" transform="translate(400.55 52.66) rotate(160.98)"/><rect class="cls-2" x="177.96" y="7.58" width="1.31" height="4.5" transform="translate(350.69 -39.07) rotate(160.99)"/><rect class="cls-2" x="208.12" y="47.97" width="1.31" height="4.5" transform="translate(370.95 -90.53) rotate(125.52)"/><rect class="cls-2" x="165.04" y="17.22" width="1.31" height="4.5" transform="translate(277.81 -104.08) rotate(125.52)"/><rect class="cls-2" x="211.59" y="41.28" width="1.31" height="4.5" transform="translate(322.98 -142.69) rotate(109.15)"/><rect class="cls-2" x="161.58" y="23.92" width="1.31" height="4.5" transform="translate(240.17 -118.51) rotate(109.15)"/><rect class="cls-2" x="170.3" y="53.47" width="1.31" height="4.5" transform="translate(70.43 -93.36) rotate(37.96)"/><rect class="cls-2" x="202.86" y="11.73" width="1.31" height="4.5" transform="translate(51.66 -122.23) rotate(37.96)"/><rect class="cls-2" x="177.96" y="57.62" width="1.31" height="4.5" transform="matrix(0.95, 0.33, -0.33, 0.95, 29.26, -54.94)"/><rect class="cls-2" x="195.21" y="7.58" width="1.31" height="4.5" transform="matrix(0.95, 0.33, -0.33, 0.95, 13.89, -63.28)"/><rect class="cls-2" x="165.04" y="47.97" width="1.31" height="4.5" transform="translate(110.32 -113.82) rotate(54.48)"/><rect class="cls-2" x="208.12" y="17.22" width="1.31" height="4.5" transform="translate(103.35 -161.78) rotate(54.48)"/><rect class="cls-2" x="161.58" y="41.28" width="1.31" height="4.5" transform="translate(150.15 -124.01) rotate(70.85)"/><rect class="cls-2" x="211.59" y="23.92" width="1.31" height="4.5" transform="translate(167.35 -182.91) rotate(70.85)"/><polygon class="cls-2" points="173.61 46.37 172.94 45.56 186.34 34.31 186.34 20.95 187.39 20.95 187.39 34.8 173.61 46.37"/><path class="cls-3" d="M279.34,104.89H95.5A8.4,8.4,0,0,0,86.87,113V217.41a8.4,8.4,0,0,0,8.63,8.15H279.34a8.4,8.4,0,0,0,8.63-8.15V113A8.4,8.4,0,0,0,279.34,104.89Z"/><path class="cls-4" d="M230,251.87h-6.57a13.41,13.41,0,0,1-12.82-13.39V217.13a1.1,1.1,0,0,0-1.13-1.06H165.35a1.09,1.09,0,0,0-1.12,1.06v21.35a13.41,13.41,0,0,1-12.83,13.39h-6.56a3.9,3.9,0,1,0,0,7.79H230a3.9,3.9,0,0,0,0-7.79Z"/><path class="cls-3" d="M279.34,226.79H95.5c-5.48,0-9.94-4.21-9.94-9.38V113c0-5.17,4.46-9.38,9.94-9.38H279.34c5.48,0,9.94,4.21,9.94,9.38V217.41C289.28,222.58,284.82,226.79,279.34,226.79Z"/><path class="cls-2" d="M279.34,108.48a4.7,4.7,0,0,1,4.83,4.56V217.41a4.7,4.7,0,0,1-4.83,4.56H95.5a4.7,4.7,0,0,1-4.83-4.56V113a4.7,4.7,0,0,1,4.83-4.56H279.34m0-4.82H95.5c-5.48,0-9.94,4.21-9.94,9.38V217.41c0,5.17,4.46,9.38,9.94,9.38H279.34c5.48,0,9.94-4.21,9.94-9.38V113c0-5.17-4.46-9.38-9.94-9.38Z"/><path class="cls-2" d="M85.56,203.9v13.51c0,5.17,4.46,9.38,9.94,9.38H279.34c5.48,0,9.94-4.21,9.94-9.38V203.9Z"/><path class="cls-3" d="M193.31,215.79a5.77,5.77,0,1,1-5.77-5.76A5.77,5.77,0,0,1,193.31,215.79Z"/><rect class="cls-5" x="109.79" y="116.57" width="1" height="80.27"/><rect class="cls-5" x="129.33" y="116.57" width="1" height="80.27"/><rect class="cls-5" x="148.88" y="116.57" width="1" height="80.27"/><rect class="cls-5" x="168.42" y="116.57" width="1" height="80.27"/><rect class="cls-5" x="187.96" y="116.57" width="1" height="80.27"/><rect class="cls-5" x="207.51" y="116.57" width="1" height="80.27"/><rect class="cls-5" x="227.05" y="116.57" width="1" height="80.27"/><rect class="cls-5" x="246.6" y="116.57" width="1" height="80.27"/><rect class="cls-5" x="266.14" y="116.57" width="1" height="80.27"/><rect class="cls-2" x="97.02" y="123.55" width="32.81" height="4.89"/><rect class="cls-2" x="97.02" y="114.48" width="11.86" height="4.89"/><rect class="cls-2" x="112.73" y="114.48" width="11.86" height="4.89"/><rect class="cls-2" x="132.62" y="114.48" width="11.86" height="4.89"/><rect class="cls-2" x="152.52" y="114.48" width="11.86" height="4.89"/><rect class="cls-2" x="172.41" y="114.48" width="11.86" height="4.89"/><rect class="cls-2" x="192.3" y="114.48" width="11.86" height="4.89"/><rect class="cls-2" x="212.19" y="114.48" width="11.86" height="4.89"/><rect class="cls-2" x="232.09" y="114.48" width="11.86" height="4.89"/><rect class="cls-2" x="251.98" y="114.48" width="11.86" height="4.89"/><rect class="cls-2" x="97.02" y="134.37" width="32.81" height="4.89"/><rect class="cls-2" x="97.02" y="163.69" width="32.81" height="4.89"/><rect class="cls-2" x="97.02" y="174.86" width="74.69" height="4.89"/><rect class="cls-2" x="149.03" y="134.37" width="32.81" height="4.89"/><rect class="cls-2" x="149.03" y="145.54" width="85.16" height="4.89"/><rect class="cls-2" x="97.02" y="145.19" width="43.28" height="4.89"/><rect class="cls-6" x="164.23" y="226.79" width="46.38" height="8.76"/><rect class="cls-2" x="207.76" y="153.94" width="72.73" height="46.41"/><rect class="cls-3" x="211.01" y="158.82" width="28.77" height="2.71"/><rect class="cls-3" x="211.01" y="165.02" width="65.14" height="2.71"/><rect class="cls-3" x="211.01" y="171.54" width="65.14" height="2.71"/><rect class="cls-3" x="211.01" y="178.05" width="65.14" height="2.71"/><rect class="cls-3" x="211.01" y="184.57" width="65.14" height="2.71"/><rect class="cls-3" x="211.01" y="191.08" width="65.14" height="2.71"/><circle class="cls-7" cx="46.5" cy="55.36" r="29.6" transform="translate(-22.35 33.31) rotate(-32.21)"/><path class="cls-2" d="M46.5,55.36,59.81,81.78A29.59,29.59,0,0,0,76.1,55.36a31.4,31.4,0,0,0-.28-3.9c-7.43-.35-16.8-.53-16.8-.53Z"/><path class="cls-2" d="M46.5,25.76v29.6H76.1A29.6,29.6,0,0,0,46.5,25.76Z"/><path class="cls-2" d="M60.25,81.58,47.89,56.23l28.19-.07c0-.26,0-.53,0-.8s0-.63,0-.94l-28.71.07V25.78l-.87,0-.87,0V55.4a.88.88,0,0,0,.06.27.43.43,0,0,1,0,0,0,0,0,0,1,0,0l13,26.59C59.21,82.1,59.74,81.85,60.25,81.58Z"/><path class="cls-2" d="M272.71,49.25l-2.34-.14A12.89,12.89,0,0,0,269.21,47l1.15-2a2,2,0,0,0-.5-2.58l-2.22-1.79a2.11,2.11,0,0,0-1.31-.48,2,2,0,0,0-1.34.52l-1.75,1.55a13.32,13.32,0,0,0-2.41-.7l-.63-2.22A2,2,0,0,0,258,37.78l-2.87.31a2,2,0,0,0-1.81,1.9l-.15,2.36a12.11,12.11,0,0,0-2.11,1.18l-2-1.15a2,2,0,0,0-1.21-.25,2,2,0,0,0-1.36.75l-1.82,2.25a2,2,0,0,0,.06,2.63l1.57,1.77a12.55,12.55,0,0,0-.67,2.32l-2.22.63a2,2,0,0,0-1.47,2.18l.31,2.87a2,2,0,0,0,1.9,1.81l2.36.14a12.58,12.58,0,0,0,1.18,2.12l-1.15,2a2,2,0,0,0,.5,2.57L249.3,68a2,2,0,0,0,1.49.43,1.89,1.89,0,0,0,1.12-.5l1.77-1.57a13.61,13.61,0,0,0,2.26.66l.62,2.25a2,2,0,0,0,2.18,1.47l2.88-.31a2,2,0,0,0,1.81-1.9l.14-2.34A12.89,12.89,0,0,0,265.7,65l2,1.15a2,2,0,0,0,2.58-.5l1.81-2.26a2,2,0,0,0-.06-2.62l-1.56-1.75a12.81,12.81,0,0,0,.68-2.32l2.26-.63a2,2,0,0,0,1.47-2.18l-.31-2.87A2,2,0,0,0,272.71,49.25Zm-13.66,10.9a5.92,5.92,0,1,1,5.26-6.53A5.92,5.92,0,0,1,259.05,60.15Z"/><path class="cls-2" d="M295.93,37.88l-1.73-.1a9.19,9.19,0,0,0-.86-1.57l.85-1.51a1.5,1.5,0,0,0-.37-1.91l-1.64-1.33a1.53,1.53,0,0,0-1-.35,1.44,1.44,0,0,0-1,.38l-1.3,1.15a9.84,9.84,0,0,0-1.78-.52l-.47-1.65a1.49,1.49,0,0,0-1.61-1.08l-2.13.23a1.49,1.49,0,0,0-1.34,1.4l-.11,1.75a9.6,9.6,0,0,0-1.56.88l-1.5-.86a1.57,1.57,0,0,0-.9-.18,1.46,1.46,0,0,0-1,.55l-1.35,1.67a1.51,1.51,0,0,0,0,2l1.17,1.31a9.47,9.47,0,0,0-.49,1.73l-1.65.46a1.5,1.5,0,0,0-1.09,1.61l.23,2.13a1.5,1.5,0,0,0,1.41,1.34l1.75.11a8.94,8.94,0,0,0,.87,1.57l-.85,1.49a1.5,1.5,0,0,0,.37,1.91l1.67,1.35a1.47,1.47,0,0,0,1.1.32,1.43,1.43,0,0,0,.84-.37l1.31-1.16a9.66,9.66,0,0,0,1.67.48l.47,1.67a1.5,1.5,0,0,0,1.61,1.09l2.13-.23a1.49,1.49,0,0,0,1.34-1.41l.11-1.73a9.93,9.93,0,0,0,1.57-.86l1.51.85a1.52,1.52,0,0,0,1.91-.37l1.35-1.67a1.51,1.51,0,0,0-.05-1.95l-1.15-1.29a9.5,9.5,0,0,0,.5-1.73l1.67-.46a1.5,1.5,0,0,0,1.09-1.61l-.23-2.13A1.49,1.49,0,0,0,295.93,37.88ZM285.81,46a4.39,4.39,0,1,1,3.9-4.83A4.38,4.38,0,0,1,285.81,46Z"/><path class="cls-2" d="M296.9,66.61l-1.73-.1a9.93,9.93,0,0,0-.86-1.57l.85-1.51a1.5,1.5,0,0,0-.37-1.91l-1.65-1.33a1.5,1.5,0,0,0-1-.35,1.44,1.44,0,0,0-1,.38l-1.3,1.15a10.08,10.08,0,0,0-1.78-.52l-.47-1.65A1.5,1.5,0,0,0,286,58.12l-2.13.23a1.49,1.49,0,0,0-1.34,1.4l-.11,1.75a10.13,10.13,0,0,0-1.57.88l-1.49-.86a1.57,1.57,0,0,0-.9-.18,1.46,1.46,0,0,0-1,.55l-1.35,1.67a1.51,1.51,0,0,0,0,2l1.17,1.31a9.5,9.5,0,0,0-.5,1.73l-1.64.46a1.5,1.5,0,0,0-1.09,1.61l.23,2.13a1.49,1.49,0,0,0,1.4,1.34l1.76.11a8.94,8.94,0,0,0,.87,1.57l-.85,1.49a1.5,1.5,0,0,0,.37,1.91l1.67,1.35a1.51,1.51,0,0,0,1.94,0l1.31-1.16a9.66,9.66,0,0,0,1.67.48l.47,1.67a1.49,1.49,0,0,0,1.61,1.09l2.13-.23A1.5,1.5,0,0,0,290,80.91l.11-1.73a9.93,9.93,0,0,0,1.57-.86l1.51.85a1.52,1.52,0,0,0,1.91-.37l1.34-1.67a1.5,1.5,0,0,0,0-1.95l-1.15-1.29a9.5,9.5,0,0,0,.5-1.73l1.67-.46a1.5,1.5,0,0,0,1.09-1.61L298.3,68A1.49,1.49,0,0,0,296.9,66.61Zm-10.12,8.08a4.39,4.39,0,1,1,3.89-4.83A4.39,4.39,0,0,1,286.78,74.69Z"/><path class="cls-2" d="M373.26,259.14H1.57a1.57,1.57,0,0,0,0,3.14H373.26a1.57,1.57,0,1,0,0-3.14Z"/><rect class="cls-8" x="320.55" y="148.71" width="56.91" height="36.71" rx="2.17" transform="translate(-0.18 0.39) rotate(-0.06)"/><polygon class="cls-9" points="349.33 169.38 323.21 151.79 324.21 150.29 349.32 167.2 373.75 150.25 374.78 151.72 349.33 169.38"/><path class="cls-2" d="M3,128.75l22.86-25.34a2.4,2.4,0,0,1,3.58,0l22.84,25.28Z"/><rect class="cls-2" x="1.04" y="128.72" width="53.23" height="34.34" rx="2.17" transform="translate(-0.16 0.03) rotate(-0.06)"/><polyline class="cls-10" points="50.8 130.16 51.76 131.54 27.96 148.05 3.52 131.6 4.46 130.2"/><path class="cls-7" d="M28,148.05l23.18-16.17V113.35H4.77v19.09C13.3,138.46,28,148.05,28,148.05Z"/><rect class="cls-2" x="9.75" y="117.64" width="36.75" height="2.12"/><rect class="cls-2" x="9.75" y="123.86" width="36.75" height="2.12"/><rect class="cls-2" x="9.75" y="130.08" width="36.75" height="2.12"/><rect class="cls-2" x="9.75" y="136.29" width="36.75" height="2.12"/><rect class="cls-2" x="316.2" y="167.15" width="2.09" height="2.09"/><path class="cls-2" d="M312.92,169.24h-3.28v-2.09h3.28Zm-6.56,0h-3.27v-2.09h3.27Z"/><rect class="cls-2" x="297.71" y="167.15" width="2.09" height="2.09"/><polygon class="cls-2" points="305.21 158.95 306.75 160.6 298.58 168.19 306.75 175.79 305.21 177.44 295.26 168.19 305.21 158.95"/><rect class="cls-2" x="80.5" y="137.83" width="2.09" height="2.09"/><path class="cls-2" d="M76.81,139.93h-3.7v-2.1h3.7Zm-7.4,0H65.72v-2.1h3.69Z"/><rect class="cls-2" x="59.93" y="137.83" width="2.09" height="2.09"/><polygon class="cls-2" points="67.42 129.63 68.96 131.28 60.79 138.88 68.96 146.47 67.42 148.13 57.47 138.88 67.42 129.63"/><path class="cls-11" d="M131.8,174.52a5.05,5.05,0,0,0-1-1.37l0,0c-.16-.15-.33-.29-.51-.43a5.41,5.41,0,0,0-.72-.45,5.16,5.16,0,0,0-.77-.31,4.71,4.71,0,0,0-1.47-.22H92.25a4.94,4.94,0,0,0-4.94,4.94v79.54a5,5,0,0,0,4.94,4.94h35.09a5,5,0,0,0,4.73-3.47,5.13,5.13,0,0,0,.22-1.47V176.65A4.87,4.87,0,0,0,131.8,174.52Z"/><rect class="cls-2" x="84.53" y="170.46" width="44.81" height="89.1" rx="4.93"/><path class="cls-7" d="M128.85,173.26a4.82,4.82,0,0,0-.95-1.36l0,0a5,5,0,0,0-.5-.43,5.41,5.41,0,0,0-.72-.45,5,5,0,0,0-.76-.31,5.13,5.13,0,0,0-1.47-.22h-35a4.92,4.92,0,0,0-4.92,4.92v79.25a4.91,4.91,0,0,0,4.92,4.93h35a5,5,0,0,0,4.71-3.46,5.13,5.13,0,0,0,.22-1.47V175.38A4.86,4.86,0,0,0,128.85,173.26Zm-2,72.16H87V178.66h39.8Z"/><path class="cls-2" d="M108.53,175.25a1.6,1.6,0,1,1-1.6-1.6A1.59,1.59,0,0,1,108.53,175.25Z"/><path class="cls-2" d="M110.3,252.36a3.37,3.37,0,1,1-3.37-3.37A3.37,3.37,0,0,1,110.3,252.36Z"/><circle class="cls-7" cx="106.93" cy="202.64" r="9.77" transform="translate(-118.48 161.54) rotate(-51.85)"/><path class="cls-3" d="M102.54,189.22v0a1.33,1.33,0,0,1-.44,1,1.69,1.69,0,0,1-1.2.43,1.56,1.56,0,0,1-1.23-.54,2,2,0,0,1-.48-1.36V188a2,2,0,0,1,.48-1.36,1.56,1.56,0,0,1,1.23-.54,1.78,1.78,0,0,1,1.21.4,1.33,1.33,0,0,1,.43,1.07v0H102a1,1,0,0,0-.28-.74,1.06,1.06,0,0,0-.78-.27,1,1,0,0,0-.81.4,1.69,1.69,0,0,0-.3,1v.8a1.66,1.66,0,0,0,.3,1,1,1,0,0,0,.81.41,1.06,1.06,0,0,0,.78-.27,1,1,0,0,0,.28-.75Z"/><path class="cls-3" d="M103.9,190.65h-.61v-4.78h.61Z"/><path class="cls-3" d="M105.48,186.48h-.6v-.61h.6Zm0,4.17h-.6v-3.32h.6Z"/><path class="cls-3" d="M107.79,190.72a1.39,1.39,0,0,1-1.1-.47,1.67,1.67,0,0,1-.41-1.19v-.14a1.72,1.72,0,0,1,.42-1.18,1.3,1.3,0,0,1,1-.47,1.26,1.26,0,0,1,1,.41,1.61,1.61,0,0,1,.34,1.08v.37H106.9v0a1.34,1.34,0,0,0,.24.78.78.78,0,0,0,.66.31,1.53,1.53,0,0,0,.54-.09,1.25,1.25,0,0,0,.4-.24l.23.39a1.36,1.36,0,0,1-.47.3A1.83,1.83,0,0,1,107.79,190.72Zm-.09-3a.64.64,0,0,0-.52.25,1.24,1.24,0,0,0-.27.64v0h1.53v-.08a.92.92,0,0,0-.19-.6A.69.69,0,0,0,107.7,187.75Z"/><path class="cls-3" d="M110.27,187.33l0,.5a1.08,1.08,0,0,1,.41-.41,1.1,1.1,0,0,1,.57-.15,1.07,1.07,0,0,1,.83.32,1.36,1.36,0,0,1,.3,1v2.09h-.61v-2.08a.92.92,0,0,0-.17-.62.67.67,0,0,0-.53-.19.8.8,0,0,0-.46.13.87.87,0,0,0-.32.34v2.42h-.61v-3.32Z"/><path class="cls-3" d="M114.1,186.53v.8h.63v.45h-.63v2a.41.41,0,0,0,.1.32.32.32,0,0,0,.25.1h.12l.11,0,.08.41a.41.41,0,0,1-.2.09,1.09,1.09,0,0,1-.26,0,.79.79,0,0,1-.59-.23,1,1,0,0,1-.21-.69v-2H113v-.45h.53v-.8Z"/><g class="cls-12"><path class="cls-5" d="M106.93,204.38a3.33,3.33,0,0,0,3.32-3.32v-1.33a3.32,3.32,0,1,0-6.64,0v1.33A3.34,3.34,0,0,0,106.93,204.38Z"/><path class="cls-5" d="M107.34,204.72h-.81a3.91,3.91,0,0,0-3.91,3.91v4.72h8.62v-4.72A3.9,3.9,0,0,0,107.34,204.72Z"/></g><path class="cls-7" d="M99.73,232.91a4.45,4.45,0,1,1-4.44-4.45A4.44,4.44,0,0,1,99.73,232.91Z"/><path class="cls-13" d="M97.34,232.33a1.4,1.4,0,0,1,.49,1.06c0,.16.06.43-.08.55a.75.75,0,0,1-.57.07c-.31,0-.77-.09-.83-.47,0-.17,0-.36,0-.54a.49.49,0,0,0-.41-.31,3,3,0,0,0-1.19,0,.69.69,0,0,0-.48.23,1.18,1.18,0,0,0,0,.59c0,.46-.57.5-.91.54a.62.62,0,0,1-.5-.08c-.13-.13-.09-.4-.09-.57a1.49,1.49,0,0,1,.58-1.11,2.83,2.83,0,0,1,1.32-.46,5.42,5.42,0,0,1,1.45,0,2.94,2.94,0,0,1,.65.16,3.1,3.1,0,0,1,.61.35C97.52,232.48,97.24,232.26,97.34,232.33Z"/><circle class="cls-7" cx="117.63" cy="232.91" r="4.44"/><path class="cls-13" d="M116.08,231.43a1.39,1.39,0,0,1,.67-1c.14-.09.34-.27.52-.21s.28.29.35.46.32.7,0,.95c-.14.11-.34.15-.47.27a.52.52,0,0,0-.07.51,3,3,0,0,0,.59,1,.68.68,0,0,0,.45.29c.19,0,.37-.17.53-.26.4-.22.71.24.92.51a.59.59,0,0,1,.18.47c0,.18-.3.28-.44.37a1.44,1.44,0,0,1-1.25.06A2.83,2.83,0,0,1,117,234a5.41,5.41,0,0,1-.72-1.26,2.8,2.8,0,0,1-.2-.64,3.28,3.28,0,0,1,0-.7C116.13,231.2,116.07,231.55,116.08,231.43Z"/><rect class="cls-7" x="329.29" y="92.59" width="9.16" height="23.42"/><rect class="cls-2" x="316.1" y="99.9" width="9.16" height="16.11"/><rect class="cls-2" x="342.12" y="77.97" width="9.16" height="38.04"/><rect class="cls-2" x="355.31" y="67.01" width="9.16" height="49.01"/><rect class="cls-2" x="316.1" y="116.02" width="49.3" height="1.37"/><rect class="cls-8" x="314.81" y="67.01" width="1.29" height="50.38"/><rect class="cls-7" x="282.22" y="208.89" width="71.2" height="50.26"/><path class="cls-14" d="M299.39,215.34a3.17,3.17,0,1,1-3.17-3.17A3.17,3.17,0,0,1,299.39,215.34Z"/><rect class="cls-2" x="294.16" y="204.11" width="4.11" height="11.48" rx="1.96"/><path class="cls-3" d="M313.79,215.34a3.17,3.17,0,1,1-3.17-3.17A3.17,3.17,0,0,1,313.79,215.34Z"/><rect class="cls-2" x="308.56" y="204.11" width="4.11" height="11.48" rx="1.96"/><path class="cls-14" d="M328.19,215.34a3.17,3.17,0,1,1-3.17-3.17A3.17,3.17,0,0,1,328.19,215.34Z"/><rect class="cls-2" x="322.96" y="204.11" width="4.11" height="11.48" rx="1.96"/><path class="cls-14" d="M342.59,215.34a3.18,3.18,0,1,1-3.17-3.17A3.17,3.17,0,0,1,342.59,215.34Z"/><rect class="cls-2" x="337.36" y="204.11" width="4.11" height="11.48" rx="1.96"/><rect class="cls-2" x="286.88" y="225.57" width="6.17" height="6.17"/><rect class="cls-2" x="298.02" y="225.57" width="6.17" height="6.17"/><rect class="cls-2" x="309.16" y="225.57" width="6.17" height="6.17"/><rect class="cls-2" x="320.3" y="225.57" width="6.17" height="6.17"/><rect class="cls-2" x="331.45" y="225.57" width="6.17" height="6.17"/><rect class="cls-2" x="342.59" y="225.57" width="6.17" height="6.17"/><rect class="cls-2" x="286.88" y="234.66" width="6.17" height="6.17"/><rect class="cls-2" x="298.02" y="234.66" width="6.17" height="6.17"/><rect class="cls-2" x="309.16" y="234.66" width="6.17" height="6.17"/><rect class="cls-2" x="320.3" y="234.66" width="6.17" height="6.17"/><rect class="cls-2" x="331.45" y="234.66" width="6.17" height="6.17"/><rect class="cls-2" x="342.59" y="234.66" width="6.17" height="6.17"/><rect class="cls-2" x="286.88" y="243.74" width="6.17" height="6.17"/><rect class="cls-2" x="298.02" y="243.74" width="6.17" height="6.17"/><rect class="cls-2" x="309.16" y="243.74" width="6.17" height="6.17"/><rect class="cls-2" x="320.3" y="243.74" width="6.17" height="6.17"/><rect class="cls-2" x="331.45" y="243.74" width="6.17" height="6.17"/><rect class="cls-2" x="342.59" y="243.74" width="6.17" height="6.17"/><path class="cls-7" d="M114.22,45.85,92.05,49.74a4.66,4.66,0,0,0-3.79,5.38l1.85,10.74a4.67,4.67,0,0,0,5.39,3.81h0l.87,5.11,4.23-6,17.08-3a4.65,4.65,0,0,0,3.78-5.38l-1.84-10.73A4.67,4.67,0,0,0,114.22,45.85Z"/><rect class="cls-2" x="92.78" y="51.99" width="23.62" height="1.26" transform="translate(-7.41 18.5) rotate(-9.76)"/><rect class="cls-2" x="93.6" y="56.7" width="23.62" height="1.3" transform="translate(-8.2 18.71) rotate(-9.76)"/><rect class="cls-2" x="94.43" y="61.83" width="18.66" height="1.2" transform="translate(-9.08 18.5) rotate(-9.76)"/><path class="cls-2" d="M110.64,61.61l22.16,3.88a4.66,4.66,0,0,1,3.79,5.39l-1.85,10.74a4.66,4.66,0,0,1-5.38,3.8h0l-.88,5.11-4.23-6-17.08-3a4.66,4.66,0,0,1-3.78-5.39l1.84-10.73A4.67,4.67,0,0,1,110.64,61.61Z"/><rect class="cls-3" x="109.22" y="67.74" width="23.62" height="1.26" transform="translate(12.93 -19.03) rotate(9.49)"/><rect class="cls-3" x="108.43" y="72.45" width="23.62" height="1.3" transform="translate(13.7 -18.83) rotate(9.49)"/><rect class="cls-3" x="107.68" y="76.75" width="18.66" height="1.2" transform="translate(14.36 -18.24) rotate(9.49)"/><path class="cls-7" d="M65.54,259.14l-53.81,0,.08-82.23,59.38,0-.07,76.66A5.57,5.57,0,0,1,65.54,259.14Z"/><polygon class="cls-7" points="17.7 253.92 67.78 251.87 65.25 259.14 17.7 253.92"/><path class="cls-2" d="M62.05,255.94a3.2,3.2,0,0,1,3.21-3.2l-57.89-.05a3.21,3.21,0,0,0,0,6.41l57.89,0A3.2,3.2,0,0,1,62.05,255.94Z"/><rect class="cls-2" x="16.18" y="186.76" width="50.32" height="1.86"/><rect class="cls-2" x="16.18" y="192.07" width="50.32" height="1.86"/><rect class="cls-2" x="57.17" y="199.31" width="8.88" height="1.76"/><rect class="cls-2" x="29.83" y="199.31" width="8.88" height="1.76"/><rect class="cls-2" x="43.5" y="199.31" width="8.88" height="1.76"/><rect class="cls-2" x="16.16" y="199.31" width="8.88" height="1.76"/><rect class="cls-5" x="16.16" y="208.19" width="8.88" height="1.76"/><rect class="cls-5" x="16.16" y="212.41" width="8.88" height="1.76"/><rect class="cls-5" x="16.16" y="216.63" width="8.88" height="1.76"/><rect class="cls-5" x="16.16" y="220.85" width="8.88" height="1.76"/><rect class="cls-5" x="16.16" y="225.07" width="8.88" height="1.76"/><rect class="cls-5" x="16.16" y="229.29" width="8.88" height="1.76"/><rect class="cls-5" x="16.16" y="233.51" width="8.88" height="1.76"/><rect class="cls-5" x="16.16" y="237.74" width="8.88" height="1.76"/><rect class="cls-5" x="29.83" y="208.19" width="8.88" height="1.76"/><rect class="cls-5" x="29.83" y="212.41" width="8.88" height="1.76"/><rect class="cls-5" x="29.83" y="216.63" width="8.88" height="1.76"/><rect class="cls-5" x="29.83" y="220.85" width="8.88" height="1.76"/><rect class="cls-5" x="29.83" y="225.07" width="8.88" height="1.76"/><rect class="cls-5" x="29.83" y="229.29" width="8.88" height="1.76"/><rect class="cls-5" x="29.83" y="233.51" width="8.88" height="1.76"/><rect class="cls-5" x="29.83" y="237.74" width="8.88" height="1.76"/><rect class="cls-5" x="43.5" y="208.19" width="8.88" height="1.76"/><rect class="cls-5" x="43.5" y="212.41" width="8.88" height="1.76"/><rect class="cls-5" x="43.5" y="216.63" width="8.88" height="1.76"/><rect class="cls-5" x="43.5" y="220.85" width="8.88" height="1.76"/><rect class="cls-5" x="43.5" y="225.07" width="8.88" height="1.76"/><rect class="cls-5" x="43.5" y="229.29" width="8.88" height="1.76"/><rect class="cls-5" x="43.5" y="233.51" width="8.88" height="1.76"/><rect class="cls-5" x="43.5" y="237.74" width="8.88" height="1.76"/><rect class="cls-5" x="57.17" y="208.19" width="8.88" height="1.76"/><rect class="cls-5" x="57.17" y="212.41" width="8.88" height="1.76"/><rect class="cls-5" x="57.17" y="216.63" width="8.88" height="1.76"/><rect class="cls-5" x="57.17" y="220.85" width="8.88" height="1.76"/><rect class="cls-5" x="57.17" y="225.07" width="8.88" height="1.76"/><rect class="cls-5" x="57.17" y="229.29" width="8.88" height="1.76"/><rect class="cls-5" x="57.17" y="233.51" width="8.88" height="1.76"/><rect class="cls-5" x="57.17" y="237.74" width="8.88" height="1.76"/><rect class="cls-5" x="16.16" y="203.9" width="30.35" height="1.76"/></g></g></svg>