<svg xmlns="http://www.w3.org/2000/svg" viewBox="0 0 201.28 163.77"><defs><style>.cls-1{fill:#e9eef1;}.cls-2{fill:#babec1;}</style></defs><g id="Layer_2" data-name="Layer 2"><g id="OBJECTS"><rect class="cls-1" x="5.87" y="5.51" width="186.18" height="147.26"/><path class="cls-2" d="M185.5,163.77H15.78A15.8,15.8,0,0,1,0,148V15.78A15.8,15.8,0,0,1,15.78,0H185.5a15.8,15.8,0,0,1,15.78,15.78V148A15.8,15.8,0,0,1,185.5,163.77ZM15.78,13A2.79,2.79,0,0,0,13,15.78V148a2.79,2.79,0,0,0,2.78,2.78H185.5a2.79,2.79,0,0,0,2.78-2.78V15.78A2.79,2.79,0,0,0,185.5,13Z"/><path class="cls-2" d="M147,77.88l-67.46-39a4.63,4.63,0,0,0-6.94,4v77.91a4.62,4.62,0,0,0,6.94,4L147,85.89A4.62,4.62,0,0,0,147,77.88Z"/></g></g></svg>