<svg xmlns="http://www.w3.org/2000/svg" viewBox="0 0 299 217"><defs><style>.cls-1{fill:#e9eef1;}.cls-2{fill:#babec1;}</style></defs><g id="Layer_2" data-name="Layer 2"><g id="OBJECTS"><rect class="cls-1" width="299" height="217"/><rect class="cls-1" x="54.73" y="32.13" width="186.18" height="147.26"/><path class="cls-2" d="M234.36,190.38H64.64a15.8,15.8,0,0,1-15.78-15.77V42.4A15.8,15.8,0,0,1,64.64,26.62H234.36A15.8,15.8,0,0,1,250.14,42.4V174.61A15.8,15.8,0,0,1,234.36,190.38ZM64.64,39.62a2.78,2.78,0,0,0-2.78,2.78V174.61a2.78,2.78,0,0,0,2.78,2.77H234.36a2.78,2.78,0,0,0,2.78-2.77V42.4a2.78,2.78,0,0,0-2.78-2.78Z"/><path class="cls-2" d="M195.83,104.49,128.36,65.54a4.63,4.63,0,0,0-6.94,4v77.9a4.63,4.63,0,0,0,6.94,4l67.47-38.95A4.64,4.64,0,0,0,195.83,104.49Z"/></g></g></svg>