<svg xmlns="http://www.w3.org/2000/svg" width="40.767" height="40.719" viewBox="0 0 40.767 40.719">
  <g id="Group_6268" data-name="Group 6268" transform="translate(591.359 275.815)">
    <path id="Path_2248" data-name="Path 2248" d="M-261.653-157.771q0-3.293.007-6.586l4.769,3.96c-1.506.25-2.556,1.36-3.837,2.036C-261.04-158.189-261.341-157.969-261.653-157.771Z" transform="translate(-294.627 -99.6)" fill="#ebb22a"/>
    <g id="Group_6267" data-name="Group 6267" transform="translate(-585.894 -271.233)">
      <path id="Path_2249" data-name="Path 2249" d="M-396.2-232.63a1.116,1.116,0,0,0,.546.064h6.63c.952,0,1.4.452,1.4,1.414q0,2.839.008,5.677a1.305,1.305,0,0,1,.174.72q0,2.575,0,5.149a1.245,1.245,0,0,1-.181.717l-14.715,9.163v-.035a.612.612,0,0,1-.158-.315,20.311,20.311,0,0,1,.039-2.93.356.356,0,0,1,.156-.212c.576-.473.584-.812.029-1.3-.063-.054-.138-.1-.169-.18a2.41,2.41,0,0,1-.072-.9,2.424,2.424,0,0,0-.107-.815.233.233,0,0,1,.221-.213,3.483,3.483,0,0,0,1.49-.616c.3-.228.513-.183.755.107a2.259,2.259,0,0,0,3.041.491,3.221,3.221,0,0,0,1.514-1.724,7.264,7.264,0,0,0,.618-2.813,6.32,6.32,0,0,0-.859-3.066,7.37,7.37,0,0,0-5.05-3.654,5.311,5.311,0,0,0-1.062-.131.484.484,0,0,1-.5-.249.95.95,0,0,1-.063-.428q-.012-1.665,0-3.33a.847.847,0,0,1,.135-.566.783.783,0,0,1,.562-.146c1.641-.008,3.282,0,4.923-.007C-396.654-232.75-396.438-232.641-396.2-232.63Z" transform="translate(417.239 232.749)" fill="#c5dae4"/>
      <path id="Path_2250" data-name="Path 2250" d="M-525.1-232.539q0,2.176,0,4.352l-.026.057a1.488,1.488,0,0,1-.834.192,7.37,7.37,0,0,0-6.365,6.187,7.194,7.194,0,0,0,2.484,6.735,7.2,7.2,0,0,0,3.865,1.716c.3.04.648-.05.878.248q0,1.654,0,3.308c-.749-.369-1.43-.851-2.137-1.29q-6.3-3.911-12.584-7.837a1.062,1.062,0,0,1-.177-.638q0-2.642,0-5.285a1.17,1.17,0,0,1,.167-.644q.007-2.876.014-5.753a1.224,1.224,0,0,1,1.376-1.36l7.221,0a1.476,1.476,0,0,1,.762-.176c1.6,0,3.192-.006,4.789,0a.7.7,0,0,1,.526.121Z" transform="translate(539.992 232.736)" fill="#e2f4f9"/>
    </g>
    <path id="Path_2251" data-name="Path 2251" d="M-578.4-164.159q0,3.283.009,6.567c-1.188-.731-2.386-1.448-3.56-2.2a3.519,3.519,0,0,0-1.21-.415Z" transform="translate(-7.328 -99.777)" fill="#f1cb35"/>
    <path id="Path_2252" data-name="Path 2252" d="M-395.374-271.114c-.139.118-.305.062-.458.063q-2.843.012-5.686.015l0-.023a.5.5,0,0,1-.177-.458q-.018-1.915,0-3.831a.5.5,0,0,1,.176-.458,1.128,1.128,0,0,1,.889.353Z" transform="translate(-169.481)" fill="#ebb22a"/>
    <path id="Path_2253" data-name="Path 2253" d="M-451.354-275.762q0,2.373,0,4.747l-6.12.007c.769-.747,1.631-1.384,2.447-2.076.919-.779,1.853-1.541,2.78-2.311A1.23,1.23,0,0,1-451.354-275.762Z" transform="translate(-119.641 -0.045)" fill="#f1cb35"/>
    <path id="Path_2254" data-name="Path 2254" d="M-401.537-190a7.41,7.41,0,0,1,7.015,4.636,6.338,6.338,0,0,1-.317,5.7,3.079,3.079,0,0,1-2.85,1.767,2.031,2.031,0,0,1-1.766-.895c-.216-.308-.337-.274-.593-.071a2.339,2.339,0,0,1-1.485.573c-.226-.187-.173-.45-.176-.691a2.413,2.413,0,0,1,.056-.814c.04-.188.2-.277.338-.368a2.5,2.5,0,0,0,1.106-1.961,3.132,3.132,0,0,0-.1-1.333,1.947,1.947,0,0,0-.943-1.261.7.7,0,0,1-.386-.322,3.937,3.937,0,0,1-.055-1.3.361.361,0,0,1,.2-.319,1.193,1.193,0,0,1,1.028.125c.225.095.312.06.413-.166a.955.955,0,0,1,1.034-.567,1.027,1.027,0,0,1,.828.943c.018.2.012.4.012.6,0,1.749-.006,3.5,0,5.247,0,.7.4.944,1.044.645a1.467,1.467,0,0,0,.723-.71,4.816,4.816,0,0,0-.362-5.184,5.607,5.607,0,0,0-4.144-2.432,1.473,1.473,0,0,1-.648-.171.3.3,0,0,1-.083-.117,3.821,3.821,0,0,1-.054-1.234.379.379,0,0,1,.167-.293Z" transform="translate(-169.464 -76.688)" fill="#c5dae4"/>
    <path id="Path_2255" data-name="Path 2255" d="M-463.009-189.8q0,.785,0,1.571c-.2.281-.528.2-.8.251a5.757,5.757,0,0,0-3.976,2.52,5.747,5.747,0,0,0,.374,6.881,5.923,5.923,0,0,0,3.965,2.105.6.6,0,0,1,.429.173l.171.086c.014.48.015.961,0,1.441l-.17.087a7.588,7.588,0,0,1-7.187-5.393A7.559,7.559,0,0,1-463.009-189.8Z" transform="translate(-107.983 -76.862)" fill="#e2f4f9"/>
    <path id="Path_2256" data-name="Path 2256" d="M-449.678-163.109a5.98,5.98,0,0,1-5.914-6.121,5.988,5.988,0,0,1,5.921-5.809l-.009.021a.358.358,0,0,1,.162.258,4.647,4.647,0,0,1-.045,1.4.775.775,0,0,1-.619.307,3.518,3.518,0,0,0-3.1,2.959,4.341,4.341,0,0,0,1.354,4.285,2.709,2.709,0,0,0,1.565.71.476.476,0,0,1,.43.235c.227.023.262.173.259.365C-449.681-164.034-449.677-163.571-449.678-163.109Z" transform="translate(-121.321 -90.054)" fill="#e2f4f9"/>
    <path id="Path_2257" data-name="Path 2257" d="M-432.94-150.363c-2.528-.054-3.891-2.632-3.6-4.839a3.8,3.8,0,0,1,2.835-3.449,8.8,8.8,0,0,1,1.021-.128c.093-.065.15-.041.174.069-.179.058-.174.206-.174.352q0,.607,0,1.214l-.019.055a.563.563,0,0,1-.334.112,2.283,2.283,0,0,0-1.756,2.684,3.1,3.1,0,0,0,.534,1.434,2.053,2.053,0,0,0,1.507.763.2.2,0,0,1,.066.1q0,.787,0,1.575Z" transform="translate(-138.314 -104.552)" fill="#e2f4f9"/>
    <path id="Path_2258" data-name="Path 2258" d="M-399.758-60.659a.2.2,0,0,1-.16-.2q0-.525,0-1.05a.2.2,0,0,1,.161-.2.7.7,0,0,1,.481.721A.693.693,0,0,1-399.758-60.659Z" transform="translate(-171.071 -190.977)" fill="#c5dae4"/>
    <path id="Path_2259" data-name="Path 2259" d="M-399.839-173.052l-.174-.069q0-.871-.006-1.741a5.875,5.875,0,0,1,5.866,4.855,5.108,5.108,0,0,1-.607,3.143,1.555,1.555,0,0,1-1.174.854.718.718,0,0,1-.905-.645,3.65,3.65,0,0,1-.025-.555c.007-1.828.021-3.655.023-5.483a.843.843,0,0,0-.771-.9.829.829,0,0,0-.843.778l-.043.222A3.274,3.274,0,0,0-399.839-173.052Z" transform="translate(-170.983 -90.211)" fill="#c5dae4"/>
    <path id="Path_2260" data-name="Path 2260" d="M-401.519-143.114a1.913,1.913,0,0,1,1.4,1.479,3.659,3.659,0,0,1-.1,2.3,2.232,2.232,0,0,1-1.3,1.365.086.086,0,0,1,.007-.04.48.48,0,0,1-.179-.456q-.018-2.076,0-4.151c0-.17,0-.35.177-.454A.081.081,0,0,1-401.519-143.114Z" transform="translate(-169.479 -118.582)" fill="#c5dae4"/>
    <path id="Path_2261" data-name="Path 2261" d="M-419.338-143.122q0,2.531,0,5.062a1.351,1.351,0,0,1-1.3-.282,3.04,3.04,0,0,1-.22-4.314A1.573,1.573,0,0,1-419.338-143.122Z" transform="translate(-151.656 -118.532)" fill="#e2f4f9"/>
    <path id="Path_2262" data-name="Path 2262" d="M-381.941-102.991h-19.567c-.221-.177-.178-.43-.179-.663-.007-1.775,0-3.55,0-5.325q0-3.1,0-6.2a6.942,6.942,0,0,1,.023-.793,1.436,1.436,0,0,1,.688-.68q5.664-3.5,11.308-7.038c.93-.58,1.858-1.164,2.8-1.726,1.077-.717,2.2-1.361,3.278-2.074a2.465,2.465,0,0,1,1.739-.475,1.222,1.222,0,0,1,.751,1.236q-.005,11.326,0,22.652C-381.107-103.347-381.212-103.22-381.941-102.991Z" transform="translate(-169.488 -132.105)" fill="#f1cb35"/>
    <path id="Path_2263" data-name="Path 2263" d="M-571-116.143v13.111h-19.488a.836.836,0,0,1-.875-.875v-23.146a1.1,1.1,0,0,1,.866-.965,2.773,2.773,0,0,1,1.772.65q1.29.806,2.586,1.6c.167.1.285.28.491.319,1.419.85,2.814,1.737,4.219,2.61q4.87,3.028,9.737,6.062c.252.157.557.263.687.572C-571-116.181-571-116.162-571-116.143Z" transform="translate(0 -132.064)" fill="#faef4d"/>
    <path id="Path_2264" data-name="Path 2264" d="M-460.814-178.922a6.471,6.471,0,0,1,6.473-6.475,6.47,6.47,0,0,1,6.474,6.474,6.471,6.471,0,0,1-6.473,6.476A6.472,6.472,0,0,1-460.814-178.922Zm2.384-3.149a5.13,5.13,0,0,0,.422,6.807,5.128,5.128,0,0,0,6.816.433Zm8.18,6.294a5.126,5.126,0,0,0-.358-6.736,5.133,5.133,0,0,0-6.879-.5Z" transform="translate(-116.656 -80.798)" fill="#f90606"/>
  </g>
</svg>
