<svg xmlns="http://www.w3.org/2000/svg" width="25.981" height="24.125" viewBox="0 0 25.981 24.125">
  <path id="Icon_ionic-ios-star-outline" data-name="Icon ionic-ios-star-outline" d="M27.245,11.726H18.714L16.122,3.99a.939.939,0,0,0-1.763,0l-2.592,7.736H3.178a.931.931,0,0,0-.928.928.682.682,0,0,0,.017.157.892.892,0,0,0,.389.655l7.011,4.941L6.976,26.23A.931.931,0,0,0,7.3,27.274a.9.9,0,0,0,.522.226,1.137,1.137,0,0,0,.58-.209l6.843-4.877,6.843,4.877a1.087,1.087,0,0,0,.58.209.833.833,0,0,0,.516-.226A.919.919,0,0,0,23.5,26.23l-2.691-7.823,6.953-4.987.168-.145a.973.973,0,0,0,.3-.621A.982.982,0,0,0,27.245,11.726ZM19.868,17.09a1.629,1.629,0,0,0-.592,1.844l1.746,5.086a.233.233,0,0,1-.354.267l-4.489-3.2a1.62,1.62,0,0,0-.945-.3,1.59,1.59,0,0,0-.939.3l-4.489,3.2a.232.232,0,0,1-.354-.267L11.2,18.929a1.634,1.634,0,0,0-.6-1.856L5.9,13.762a.233.233,0,0,1,.133-.423h5.724A1.622,1.622,0,0,0,13.3,12.23l1.717-5.115a.233.233,0,0,1,.441,0l1.717,5.115a1.622,1.622,0,0,0,1.537,1.108h5.643a.229.229,0,0,1,.133.418Z" transform="translate(-2.25 -3.375)" fill="#757d86"/>
</svg>
