<svg xmlns="http://www.w3.org/2000/svg" width="36.138" height="46" viewBox="0 0 36.138 46">
  <g id="Group_4751" data-name="Group 4751" transform="translate(-523.209 -1125.926)">
    <path id="Path_1534" data-name="Path 1534" d="M559.346,1148.947q0-8.132,0-16.263a7.437,7.437,0,0,0-.081-1.276,6.5,6.5,0,0,0-6.518-5.472c-5.3,0-10.606.008-15.909-.01a6.475,6.475,0,0,0-2.655.554,22.089,22.089,0,0,0-5,3.144,22.529,22.529,0,0,0-5.127,5.442,5.089,5.089,0,0,0-.846,2.785q.025,13.612.013,27.223a7.889,7.889,0,0,0,.086,1.365,6.484,6.484,0,0,0,6.552,5.481q11.446.01,22.893,0a6.506,6.506,0,0,0,6.594-6.624Q559.345,1157.122,559.346,1148.947Zm-3.232,16.278a3.308,3.308,0,0,1-2.611,3.379,5.239,5.239,0,0,1-1.1.078q-10.01.006-20.02,0c-.839,0-1.679.01-2.518,0a3.3,3.3,0,0,1-3.417-3.485c-.007-3.108,0-6.217,0-9.325q0-8.905,0-17.81v-.661c.237,0,.41,0,.583,0,1.693-.015,3.39.035,5.079-.062,2.7-.155,4.139-1.712,4.2-4.424.026-1.06.007-2.121.008-3.182,0-.159,0-.318,0-.512.165-.018.291-.043.417-.043,5.347,0,10.695-.01,16.042,0a3.259,3.259,0,0,1,3.312,3.078c.021.234.023.471.023.706q.005,12.706.008,25.411C556.125,1160.658,556.129,1162.942,556.114,1165.225Z" transform="translate(0 0)" fill="#757d86"/>
    <path id="Path_1535" data-name="Path 1535" d="M598.79,1295.781h20.844c.637,0,.894-.193.984-.817a2.659,2.659,0,0,0-.035-.916c-.119-.559-.321-.693-.9-.693H609.264q-5.255,0-10.511.006a1.306,1.306,0,0,0-.665.153,1.528,1.528,0,0,0-.314,1.633C597.946,1295.645,598.161,1295.781,598.79,1295.781Z" transform="translate(-67.886 -152.627)" fill="#757d86"/>
    <path id="Path_1536" data-name="Path 1536" d="M619.451,1349.232H609.065c-3.491,0-6.983-.005-10.474.011a1.06,1.06,0,0,0-.74.262,1.581,1.581,0,0,0-.145,1.672c.2.5.651.477,1.084.477h20.728c.622,0,.853-.182.969-.788a2.518,2.518,0,0,0,.027-.659C620.458,1349.468,620.193,1349.232,619.451,1349.232Z" transform="translate(-67.757 -203.564)" fill="#757d86"/>
    <path id="Path_1537" data-name="Path 1537" d="M774.767,1411.61c-.641-.384-1.333-.682-2-1.019-.589-.3-1.2-.563-1.76-.9-.37-.225-.334-.571.03-.811a1.286,1.286,0,0,1,.443-.188,3.412,3.412,0,0,1,2.669.43.526.526,0,0,0,.75-.065c.123-.126.249-.251.373-.376.461-.467.471-.731-.082-1.091-.511-.333-1.083-.571-1.711-.894,0-.2,0-.508,0-.814-.005-.658-.142-.794-.81-.8-.28,0-.559.007-.839,0a.533.533,0,0,0-.6.6c-.007.351,0,.7,0,.993a12.048,12.048,0,0,0-1.536.783,2.216,2.216,0,0,0-.04,3.729,18.488,18.488,0,0,0,2.391,1.214,17.1,17.1,0,0,1,1.532.774.852.852,0,0,1,.385.651.885.885,0,0,1-.552.538,3.975,3.975,0,0,1-3.086-.249c-.716-.367-.706-.388-1.3.188-.084.082-.171.162-.25.249-.284.31-.3.6.045.819a14.491,14.491,0,0,0,1.629.851,4.621,4.621,0,0,0,.777.211c0,.353,0,.675,0,1,.005.59.149.738.722.745q.4,0,.795,0c.568-.007.724-.163.734-.744.006-.361,0-.723,0-1.059.291-.09.5-.149.712-.221a2.5,2.5,0,0,0,1.87-2.076A2.342,2.342,0,0,0,774.767,1411.61Z" transform="translate(-223.658 -254.47)" fill="#757d86"/>
    <path id="Path_1538" data-name="Path 1538" d="M609.064,1516.524c-.471.016-.942,0-1.413,0q-4.416,0-8.832,0a.9.9,0,0,0-1.037.892,2.407,2.407,0,0,0-.008.572.912.912,0,0,0,1.06.959h10.157c.573,0,.827-.171.91-.732a3.406,3.406,0,0,0-.044-1.088A.7.7,0,0,0,609.064,1516.524Z" transform="translate(-67.961 -356.068)" fill="#757d86"/>
    <path id="Path_1539" data-name="Path 1539" d="M609.336,1405.135a1.111,1.111,0,0,0-.307-.024q-5.209,0-10.419,0a.987.987,0,0,0-.5.121,1.529,1.529,0,0,0-.347,1.627c.165.51.383.652,1,.652H603.8v0h.618c1.545,0,3.09,0,4.635,0,.483,0,.725-.27.809-.858C609.966,1405.932,609.734,1405.253,609.336,1405.135Z" transform="translate(-67.887 -254.504)" fill="#757d86"/>
    <path id="Path_1540" data-name="Path 1540" d="M598.976,1463.293q2.516,0,5.033,0v-.005q2.583,0,5.165,0c.547,0,.8-.169.879-.708a3.66,3.66,0,0,0-.06-1.173.641.641,0,0,0-.714-.521q-5.231.011-10.463,0a.73.73,0,0,0-.785.57,2.715,2.715,0,0,0-.09.911C598,1463.038,598.3,1463.292,598.976,1463.293Z" transform="translate(-68.118 -305.349)" fill="#757d86"/>
  </g>
</svg>
