<svg xmlns="http://www.w3.org/2000/svg" width="31.804" height="46" viewBox="0 0 31.804 46">
  <g id="Group_4753" data-name="Group 4753" transform="translate(-373.504 -945.528)">
    <path id="Path_1547" data-name="Path 1547" d="M410.163,1156.917a4.407,4.407,0,0,0-3.794-.166,2.3,2.3,0,0,0-1.457,1.487,3.692,3.692,0,0,0-6.337-.021,2.611,2.611,0,0,0-2.487-1.767c-1.461-.125-2.736.222-3.378,1.749-1.226-2.384-4.662-2.432-6.312-.089a2.5,2.5,0,0,0-1.732-1.485,4.559,4.559,0,0,0-2.943.037,1.959,1.959,0,0,0-1.5,2.636q2.559,12.43,5.1,24.862c.063.308.168.415.487.412,1.224-.012,2.447.008,3.671.009q7.954,0,15.909,0h.5c.045-.177.084-.311.112-.448q1.653-8.053,3.3-16.106c.608-2.96,1.207-5.922,1.833-8.878A1.759,1.759,0,0,0,410.163,1156.917Zm-17.432,26.964c-.945,0-1.94.007-2.934-.014-.078,0-.205-.2-.218-.319-.155-1.454-.293-2.909-.436-4.364q-.536-5.456-1.073-10.912-.437-4.449-.87-8.9c-.008-.084-.011-.168-.019-.252a1.458,1.458,0,0,1,1.243-1.848,3.642,3.642,0,0,1,2.712.182,1.453,1.453,0,0,1,.894,1.393c.219,7.337.467,14.674.7,22.011C392.758,1181.84,392.731,1182.823,392.731,1183.881Zm11.435-25.052c-.32,3.048-.611,6.1-.91,9.148q-.524,5.331-1.047,10.661c-.158,1.609-.324,3.217-.467,4.827-.028.315-.116.435-.452.426-.924-.024-1.848-.008-2.827-.008.07-2.075.139-4.07.2-6.064q.31-9.55.612-19.1a1.3,1.3,0,0,1,.6-1.1,3.629,3.629,0,0,1,3.725-.009A1.2,1.2,0,0,1,404.166,1158.83Z" transform="translate(-6.076 -193.055)" fill="#757d86"/>
    <path id="Path_1548" data-name="Path 1548" d="M460.767,960.042a.57.57,0,0,1,.327.59,2.036,2.036,0,0,0,1.464,1.908,1.939,1.939,0,0,0,2.231-.5.5.5,0,0,1,.643-.229,1.822,1.822,0,0,0,1.966-.532,1.624,1.624,0,0,0,.128-1.932.538.538,0,0,1,.036-.384,1.79,1.79,0,0,0-.333-2.036,1.736,1.736,0,0,0-2.014-.39.356.356,0,0,1-.467-.094,2.269,2.269,0,0,0-1.671-.686,1.688,1.688,0,0,0-1.493.721.923.923,0,0,1-.594.4,1.535,1.535,0,0,0-1.192,1.457A1.879,1.879,0,0,0,460.767,960.042Z" transform="translate(-79.008 -9.362)" fill="#757d86"/>
    <path id="Path_1549" data-name="Path 1549" d="M602.823,977.778c-.323,1.025.41,1.956,1.945,2.45-.181.861-.005,1.387.562,1.72.612.36,1.1.262,1.886-.382.152.1.3.2.459.292a2.156,2.156,0,0,0,3.2-1.083,2.027,2.027,0,0,0-.628-2.068.754.754,0,0,1-.227-.481,2.181,2.181,0,0,0-1.123-2.076,2.293,2.293,0,0,0-3.286.781C604.155,976.481,603.134,976.792,602.823,977.778Z" transform="translate(-209.893 -27.687)" fill="#757d86"/>
    <path id="Path_1550" data-name="Path 1550" d="M414.319,1017.614a.835.835,0,0,1,.169.388,5.076,5.076,0,0,0,.343,1.1,1.8,1.8,0,0,0,2.967-.006c.225.071.421.15.625.2a2.062,2.062,0,0,0,2.517-1.359,1.1,1.1,0,0,1,.418-.674,1.51,1.51,0,0,0,.554-1.548c-.048-.029-.061-.044-.071-.043a3.157,3.157,0,0,1-3.928-2.613.551.551,0,0,0-.408-.315,1.849,1.849,0,0,0-1.717,1.325c-.07.345-.214.433-.54.487a1.79,1.79,0,0,0-1.559,1.3A1.6,1.6,0,0,0,414.319,1017.614Z" transform="translate(-36.732 -61.539)" fill="#757d86"/>
    <path id="Path_1551" data-name="Path 1551" d="M616.731,1053.546a.608.608,0,0,0-.423.02,2.183,2.183,0,0,1-2.282-.133.355.355,0,0,0-.482.021,1.606,1.606,0,0,0-.122,2.579.708.708,0,0,1,.277.6,1.722,1.722,0,0,0,2.025,1.725,6.013,6.013,0,0,0,1.366-.631c.049-.066.139-.026.231.006a2.1,2.1,0,0,0,2.879-1.536.615.615,0,0,1,.217-.284,1.624,1.624,0,0,0-.211-2.85A3.278,3.278,0,0,1,616.731,1053.546Z" transform="translate(-219.124 -98.459)" fill="#757d86"/>
    <path id="Path_1552" data-name="Path 1552" d="M374.59,1100.071a5.311,5.311,0,0,1,5.71.409c.44-.237.89-.46,1.319-.719a.943.943,0,0,0,.4-.425,1.858,1.858,0,0,0-.932-2.253c-.416-.224-.881-.355-.917-.93a2.81,2.81,0,0,1-2.795-1.016,2.063,2.063,0,0,0-1.575,1.768,8.325,8.325,0,0,0-1.648.66,1.466,1.466,0,0,0,.037,2.459A.473.473,0,0,0,374.59,1100.071Z" transform="translate(0 -136.98)" fill="#757d86"/>
    <path id="Path_1553" data-name="Path 1553" d="M480.129,1047.429a.639.639,0,0,1,.254-.346,1.662,1.662,0,0,0,.688-1.462,1.889,1.889,0,0,0-1.78-1.626.417.417,0,0,1-.41-.321,1.052,1.052,0,1,0-1.156-.877,2.487,2.487,0,0,1-.778,2.411.9.9,0,0,0-.212.348,2.756,2.756,0,0,1-2,1.874,9.12,9.12,0,0,1-1.074.175,1.691,1.691,0,0,0,.894,1.785,1.757,1.757,0,0,0,2.1-.3.509.509,0,0,1,.643-.148A2.087,2.087,0,0,0,480.129,1047.429Z" transform="translate(-91.672 -88.857)" fill="#757d86"/>
    <path id="Path_1554" data-name="Path 1554" d="M656.532,1094.665a2.9,2.9,0,0,1-3.284,2.022c-.607-.094-.945.318-1.41.485-.05.018-.076.114-.1.177a1.609,1.609,0,0,0,.639,1.955c.364.209.727.421,1.1.639a5.337,5.337,0,0,1,5.406-.6c.151-.13.283-.249.42-.362a1.6,1.6,0,0,0,.419-2.082,1.98,1.98,0,0,0-1.56-.954.411.411,0,0,1-.411-.319,1.759,1.759,0,0,0-1.152-1.091A1.325,1.325,0,0,0,656.532,1094.665Z" transform="translate(-254.633 -136.428)" fill="#757d86"/>
    <path id="Path_1555" data-name="Path 1555" d="M553.346,1068.784a1.4,1.4,0,0,0,1.547-1.1,2.6,2.6,0,0,0,2.347-.408,2.822,2.822,0,0,1-1.171-2.025.733.733,0,0,0-.126-.254c-.225-.4-.446-.8-.681-1.194-.054-.092-.149-.216-.234-.224a2.854,2.854,0,0,1-2.184-1.306l-.453.306a2.527,2.527,0,0,1-.59,3.106.656.656,0,0,0-.128.163c-.27.51-.536,1.021-.81,1.544a4.66,4.66,0,0,0,.564.064c.233,0,.467-.034.7-.054C552.322,1068.3,552.671,1068.713,553.346,1068.784Z" transform="translate(-162.387 -106.893)" fill="#757d86"/>
    <path id="Path_1556" data-name="Path 1556" d="M559.88,949.3a2.565,2.565,0,0,0,.132,1.405,3.433,3.433,0,0,1,2.157-1.2.847.847,0,0,0,.49-.3,2.463,2.463,0,0,1,1.717-1.041,12.846,12.846,0,0,1,1.415-.01,1.752,1.752,0,0,0-1.295-1.031.61.61,0,0,1-.514-.442,2.066,2.066,0,0,0-2.12-1.144,1.928,1.928,0,0,0-1.837,1.416c-.058.282-.154.425-.492.4A2.51,2.51,0,0,1,559.88,949.3Z" transform="translate(-170.323 0)" fill="#757d86"/>
    <path id="Path_1557" data-name="Path 1557" d="M570.833,1007.089a.65.65,0,0,1,.249.569,1.754,1.754,0,0,0,1.561,1.752c.123.009.339-.064.369-.148a3.032,3.032,0,0,1,1.195-1.491,2.209,2.209,0,0,1-.147-.49.823.823,0,0,0-.525-.722,2.679,2.679,0,0,1-1.24-1.388,8.935,8.935,0,0,1-.281-1.047,1.855,1.855,0,0,0-1.7,1.149A1.56,1.56,0,0,0,570.833,1007.089Z" transform="translate(-180.1 -53.65)" fill="#757d86"/>
    <path id="Path_1558" data-name="Path 1558" d="M487.976,1127.036a2.855,2.855,0,0,1-2.364.491l-.066.912a5.208,5.208,0,0,1,3.521.943,2.7,2.7,0,0,0,.273-.672.873.873,0,0,1,.395-.641,1.521,1.521,0,0,0,.6-1.279,3.647,3.647,0,0,1-2.168.193A.268.268,0,0,0,487.976,1127.036Z" transform="translate(-102.584 -165.961)" fill="#757d86"/>
    <path id="Path_1559" data-name="Path 1559" d="M589.93,1127.689c-.033-.566-.064-1.088-.1-1.7a1.7,1.7,0,0,0-.522.2,3.378,3.378,0,0,1-2.277.839c-.105,0-.257,0-.309.069a2.306,2.306,0,0,1-1.6.891l1.14.807A4.748,4.748,0,0,1,589.93,1127.689Z" transform="translate(-193.752 -165.223)" fill="#757d86"/>
    <path id="Path_1560" data-name="Path 1560" d="M537.54,1029.2c.124.144.22.341.377.423.442.23.908.413,1.41.635.071-.047.209-.142.35-.231a.489.489,0,0,0,.122-.756c-.309-.484-.589-.988-.88-1.482a2.774,2.774,0,0,1-1.783.938Z" transform="translate(-149.818 -75.316)" fill="#757d86"/>
    <path id="Path_1561" data-name="Path 1561" d="M390.877,1073.34a.931.931,0,0,0-.073-.414c-.126-.208-.309-.488-.506-.524a1.555,1.555,0,0,0-1.427.876,1.463,1.463,0,0,0,.219,1.578Z" transform="translate(-13.945 -116.153)" fill="#757d86"/>
    <path id="Path_1562" data-name="Path 1562" d="M545.088,1134.014l-.757,1.242,1.9-.285C545.693,1134.841,545.765,1133.924,545.088,1134.014Z" transform="translate(-156.407 -172.569)" fill="#757d86"/>
  </g>
</svg>
