<svg xmlns="http://www.w3.org/2000/svg" width="49.298" height="43.214" viewBox="0 0 49.298 43.214">
  <path id="Icon_map-food" data-name="Icon map-food" d="M49.908,14.359l-4.041,31.68H32.217L28.192,14.2H44.856L48.15,2.825l1.867.563-3.16,10.948,3.051.024ZM26.262,32.687s.51-4.108-6.568-4.108H8.422c-7.068,0-6.568,4.108-6.568,4.108ZM1.854,41.931s-.5,4.108,6.568,4.108H19.7c7.078,0,6.568-4.108,6.568-4.108ZM25.2,39.877A2.362,2.362,0,0,0,27.3,37.31,2.359,2.359,0,0,0,25.2,34.741H2.815A2.363,2.363,0,0,0,.72,37.31a2.366,2.366,0,0,0,2.1,2.567H25.2Z" transform="translate(-0.72 -2.825)" fill="#757d86"/>
</svg>
