<svg xmlns="http://www.w3.org/2000/svg" width="38.649" height="46" viewBox="0 0 38.649 46">
  <path id="Path_1546" data-name="Path 1546" d="M225.952,851.3v18.563c.356,0,.711-.011,1.065,0a1.938,1.938,0,0,1,1.964,1.824,1.919,1.919,0,0,1-1.924,2.041c-1.61.01-3.22,0-4.83,0H198.861a1.928,1.928,0,0,1-2.021-1.489,1.9,1.9,0,0,1,1.543-2.333c.464-.069.94-.052,1.459-.077v-.526q0-17.674,0-35.348c0-1.4,0-2.8,0-4.194a1.9,1.9,0,0,1,2.009-2.027q11.028-.005,22.055,0a1.911,1.911,0,0,1,2.022,2.055q0,9.23,0,18.46v.482c.248.031.481.047.709.09a4,4,0,0,1,3.31,4q.006,5.71,0,11.421a1.47,1.47,0,1,0,2.935.179c.016-.511.005-1.023.005-1.535q0-8.8.006-17.6a.731.731,0,0,0-.3-.665c-.487-.369-.942-.779-1.42-1.161a2.13,2.13,0,0,1-.844-1.789c.012-.923.017-1.848-.009-2.77a.956.956,0,0,0-.243-.576c-.555-.591-1.142-1.152-1.713-1.729a1.273,1.273,0,1,1,1.782-1.812q2.43,2.415,4.849,4.842a1.438,1.438,0,0,1,.435,1.075q-.007,11.814-.005,23.628a4.007,4.007,0,1,1-8.014.017c-.011-3.819,0-7.639,0-11.458a1.481,1.481,0,0,0-.964-1.5A3.619,3.619,0,0,0,225.952,851.3ZM212.9,830.509q-4.1,0-8.2,0a1.932,1.932,0,0,0-2.086,2.071q0,4.924,0,9.848a1.936,1.936,0,0,0,2.073,2.088q8.182,0,16.363,0a1.946,1.946,0,0,0,2.108-2.094q0-4.887,0-9.773a1.947,1.947,0,0,0-2.133-2.14Q216.963,830.507,212.9,830.509Zm18.787,10.759.093.005c-.194.7.363.923.772,1.222a.229.229,0,0,0,.381-.185c.047-.517.131-1.062-.46-1.371l-.566-.294Z" transform="translate(-196.785 -827.738)" fill="#757d86"/>
</svg>
