<svg xmlns="http://www.w3.org/2000/svg" width="42.943" height="43.055" viewBox="0 0 42.943 43.055">
  <g id="Group_4752" data-name="Group 4752" transform="translate(-1744.112 -1026)">
    <path id="Path_1541" data-name="Path 1541" d="M1854.286,1155.507q0,13.785,0,27.57c0,.166.026.332.039.5h7.973c-.013-.557-.035-1.114-.038-1.672-.006-1.132,0-2.263,0-3.428h2.517v.451q0,2.1,0,4.194c0,.152.025.3.039.455h7.554v-28.593h-18.085Zm15.506,20.191h-2.46v-2.454h2.46Zm-2.472-5.045v-2.469h2.463v2.469Zm0-12.456h2.465v2.478h-2.465Zm0,5.054h2.459v2.466h-2.459Zm-2.577,12.455h-2.451v-2.466h2.451Zm-2.442-17.5h2.443v2.482H1862.3Zm-.01,5.054h2.464v2.469h-2.464Zm-.027,4.923h2.492v2.5c-.781,0-1.544.006-2.306-.012-.064,0-.176-.166-.178-.256C1862.255,1169.682,1862.261,1168.956,1862.261,1168.18Zm-5-9.981h2.457v2.47h-2.457Zm0,5.037h2.444v2.482h-2.444Zm-.01,4.95h2.456v2.468h-2.456Zm0,5.047h2.461v2.458h-2.461Z" transform="translate(-97.821 -114.52)" fill="#757d86"/>
    <path id="Path_1542" data-name="Path 1542" d="M1835.023,1028.439h-12.75V1026h-2.518v2.466h-13.765v9.4h29.032Zm-24.368,6.744a1.976,1.976,0,0,1-2.106-1.974,2.127,2.127,0,0,1,4.244.036A1.975,1.975,0,0,1,1810.655,1035.183Zm6.17-2.9h-1.73v.631h1.528v.969h-1.538v1.182h-1.26v-3.72h3Zm4.012.012h-1.729v.641h1.522v.956h-1.545v1.178h-1.237v-3.721h2.989Zm2.25,2.777h-1.253v-3.714c1.253-.129,1.253-.129,1.253,1.061Zm2.512-1.181c.355.39.85.347,1.5-.14l.735.658a2.091,2.091,0,0,1-2.342.682,1.953,1.953,0,0,1-.1-3.716,2.154,2.154,0,0,1,2.45.644l-.726.657c-.718-.471-1.205-.5-1.537-.108A1.1,1.1,0,0,0,1825.6,1033.891Zm6.291,1.181H1828.8v-3.714h3.018v.932h-1.776v.435h1.536v.911h-1.547v.5h1.855Z" transform="translate(-54.941)" fill="#757d86"/>
    <path id="Path_1543" data-name="Path 1543" d="M2048.029,1186.023V1183.5h-9.955v5.057h2.289v2.529h-2.3v2.514h2.294v2.528h-2.291v2.527h2.3v2.512h-2.328v7.728h7.469c0-1.331-.01-2.662-.01-3.993q0-9.164,0-18.329v-.551Z" transform="translate(-260.974 -139.841)" fill="#757d86"/>
    <path id="Path_1544" data-name="Path 1544" d="M1753.948,1201.806v-.521h-2.2v-2.515h2.175v-2.537h-2.18v-2.518h2.168v-2.532h-2.157v-2.522h2.162v-5.011h-9.8v2.517h2.5v.587q0,10.171,0,20.342c0,.644-.006,1.289-.01,1.933h7.386c-.013-.166-.038-.332-.038-.5Q1753.946,1205.168,1753.948,1201.806Z" transform="translate(0 -139.974)" fill="#757d86"/>
    <path id="Path_1545" data-name="Path 1545" d="M1841.174,1082.066a.829.829,0,0,0-.86.916.848.848,0,0,0,.829.954.872.872,0,0,0,.851-.944A.856.856,0,0,0,1841.174,1082.066Z" transform="translate(-85.415 -49.78)" fill="#757d86"/>
  </g>
</svg>
