<svg xmlns="http://www.w3.org/2000/svg" width="37.813" height="43.214" viewBox="0 0 37.813 43.214">
  <path id="Icon_awesome-shopping-bag" data-name="Icon awesome-shopping-bag" d="M29.71,13.5V10.8A10.8,10.8,0,0,0,8.1,10.8v2.7H0V36.462a6.752,6.752,0,0,0,6.752,6.752H31.06a6.752,6.752,0,0,0,6.752-6.752V13.5ZM13.5,10.8a5.4,5.4,0,0,1,10.8,0v2.7H13.5Zm13.5,10.128a2.026,2.026,0,1,1,2.026-2.026A2.026,2.026,0,0,1,27.009,20.932Zm-16.205,0a2.026,2.026,0,1,1,2.026-2.026A2.026,2.026,0,0,1,10.8,20.932Z" fill="#757d86"/>
</svg>
