<svg xmlns="http://www.w3.org/2000/svg" width="46.166" height="46.166" viewBox="0 0 46.166 46.166">
  <path id="Icon_awesome-bus" data-name="Icon awesome-bus" d="M44,11.542h-.721V7.213c0-4.04-8.945-7.213-20.2-7.213s-20.2,3.174-20.2,7.213v4.328H2.164A2.164,2.164,0,0,0,0,13.706v7.213a2.165,2.165,0,0,0,2.164,2.164h.721V37.51A2.886,2.886,0,0,0,5.771,40.4v2.885a2.886,2.886,0,0,0,2.885,2.885h2.885a2.886,2.886,0,0,0,2.885-2.885V40.4H31.739v2.885a2.886,2.886,0,0,0,2.885,2.885H37.51A2.886,2.886,0,0,0,40.4,43.281V40.4h.577a2.276,2.276,0,0,0,2.308-2.308v-15H44a2.165,2.165,0,0,0,2.164-2.164V13.706A2.164,2.164,0,0,0,44,11.542ZM10.1,36.067a2.885,2.885,0,1,1,2.885-2.885A2.886,2.886,0,0,1,10.1,36.067Zm1.443-10.1a2.886,2.886,0,0,1-2.885-2.885V11.542a2.886,2.886,0,0,1,2.885-2.885H34.625a2.886,2.886,0,0,1,2.885,2.885V23.083a2.886,2.886,0,0,1-2.885,2.885Zm24.526,10.1a2.885,2.885,0,1,1,2.885-2.885A2.886,2.886,0,0,1,36.067,36.067Z" fill="#757d86"/>
</svg>
