<svg xmlns="http://www.w3.org/2000/svg" width="35.417" height="48.864" viewBox="0 0 35.417 48.864">
  <g id="Group_4750" data-name="Group 4750" transform="translate(-312.06 -873.067)">
    <path id="Path_1529" data-name="Path 1529" d="M342.629,1046.386a4.489,4.489,0,0,0-1.648-3.213c-1.225-1.037-2.426-2.1-3.643-3.15a2.024,2.024,0,0,1-.739-1.985c.16-1,.283-2.01.423-3.015.42-3,.858-6,1.254-9.01a3.827,3.827,0,0,0-3.918-4.242,5.729,5.729,0,0,0-2.409.764q-2.963,1.552-5.915,3.124a4.158,4.158,0,0,0-2.064,2.5q-1.211,3.885-2.389,7.78a2.338,2.338,0,0,0,.818,2.628.354.354,0,0,1,.135.42c-.124.552-.238,1.107-.358,1.66-.156.724-.313,1.447-.476,2.2-.147-.023-.261-.036-.373-.06-1.293-.273-2.583-.556-3.878-.82a2.619,2.619,0,0,0-3.122,2.033q-1.113,5.136-2.2,10.278a2.725,2.725,0,0,0,2.757,3.367,2.974,2.974,0,0,1,2.159-2.221,3.039,3.039,0,0,1,3.026.845c.025-.094.038-.138.048-.183q1.205-5.622,2.411-11.245c.391-1.822.78-3.645,1.182-5.465.026-.116.149-.29.242-.3a2.466,2.466,0,0,0,2.252-1.94c.7-2.35,1.433-4.692,2.154-7.037.037-.122.066-.292.155-.345.47-.277.958-.523,1.491-.807-.02.219-.028.359-.047.5-.336,2.4-.658,4.793-1.015,7.186a5.622,5.622,0,0,0,2.053,5.55c1.892,1.564,3.726,3.2,5.6,4.785a1.014,1.014,0,0,1,.385.778q.321,4.557.67,9.111a5.315,5.315,0,0,0,.236,1.388,2.831,2.831,0,0,0,3.308,1.782,2.878,2.878,0,0,0,2.216-3.114Q343.029,1051.647,342.629,1046.386Z" transform="translate(0 -138.165)" fill="#757d86"/>
    <path id="Path_1530" data-name="Path 1530" d="M487.315,1307.072c.009-.021-.013.019-.027.062q-2.308,7.17-4.61,14.343a2.866,2.866,0,0,0,5.465,1.73c.55-1.668,1.079-3.343,1.616-5.015.722-2.244,1.446-4.488,2.157-6.736a.5.5,0,0,0-.059-.424C490.349,1309.7,488.826,1308.384,487.315,1307.072Z" transform="translate(-158.408 -403.252)" fill="#757d86"/>
    <path id="Path_1531" data-name="Path 1531" d="M596.684,882.259a4.6,4.6,0,1,0-4.577-4.618A4.591,4.591,0,0,0,596.684,882.259Z" transform="translate(-260.207 0)" fill="#757d86"/>
    <path id="Path_1532" data-name="Path 1532" d="M693.284,1120.764c-.623-.486-1.254-.963-1.882-1.443l-5.337-4.089a.645.645,0,0,0-.061.13c-.239,1.693-.481,3.386-.7,5.082a.455.455,0,0,0,.177.334q2.45,1.895,4.914,3.771a2.383,2.383,0,1,0,2.893-3.784Z" transform="translate(-346.797 -225.008)" fill="#757d86"/>
    <path id="Path_1533" data-name="Path 1533" d="M370.549,1513.03a1.762,1.762,0,0,0,.012,3.525,1.762,1.762,0,1,0-.012-3.525Z" transform="translate(-52.727 -594.625)" fill="#757d86"/>
  </g>
</svg>
