<svg id="Group_7691" data-name="Group 7691" xmlns="http://www.w3.org/2000/svg" xmlns:xlink="http://www.w3.org/1999/xlink" width="22.397" height="22.438" viewBox="0 0 22.397 22.438">
  <defs>
    <clipPath id="clip-path">
      <rect id="Rectangle_2546" data-name="Rectangle 2546" width="22.397" height="22.438" fill="none"/>
    </clipPath>
  </defs>
  <g id="Group_7691-2" data-name="Group 7691" clip-path="url(#clip-path)">
    <path id="Path_2431" data-name="Path 2431" d="M10.541,0h1.312a1.174,1.174,0,0,0,.169.036,10.343,10.343,0,0,1,4.432,1.285,11.018,11.018,0,0,1,5.922,9.428,10.419,10.419,0,0,1-1.3,5.732,11.033,11.033,0,0,1-7.931,5.78c-.427.082-.863.119-1.295.177H10.541a1.166,1.166,0,0,0-.169-.036,10.314,10.314,0,0,1-3.925-1.028,11.073,11.073,0,0,1-6.271-8.2C.093,12.744.058,12.308,0,11.876V10.561a1.494,1.494,0,0,0,.037-.189A10.571,10.571,0,0,1,1.315,5.954,11.05,11.05,0,0,1,9.246.177C9.673.095,10.109.058,10.541,0M20.994,11.24a9.8,9.8,0,1,0-9.829,9.795,9.811,9.811,0,0,0,9.829-9.795" fill="#757d86"/>
    <path id="Path_2432" data-name="Path 2432" d="M191.625,71.767q0-3.418,0-6.835c0-.612.277-.874.892-.849a7.6,7.6,0,0,1,5.719,2.779,7.343,7.343,0,0,1,1.7,3.805,7.7,7.7,0,0,1-6.481,8.743c-.316.048-.637.069-.957.085a.724.724,0,0,1-.869-.827q0-3.451,0-6.9" transform="translate(-181.127 -60.57)" fill="#757d86"/>
  </g>
</svg>
