<svg xmlns="http://www.w3.org/2000/svg" width="31.48" height="38.587" viewBox="0 0 31.48 38.587">
  <g id="Group_8512" data-name="Group 8512" transform="translate(837.02 -6954.205)">
    <path id="Path_6297" data-name="Path 6297" d="M158.109,0A8.387,8.387,0,0,1,156.2,6.016a7.321,7.321,0,0,1-4.91,2.857,7.335,7.335,0,0,1-.9.005,12,12,0,0,1,.009-1.562A8.676,8.676,0,0,1,157.6.058.567.567,0,0,0,157.732,0Z" transform="translate(-971.727 6954.205)"/>
    <path id="Path_6298" data-name="Path 6298" d="M97.46,69.182c-.485,1.1-.913,2.2-1.446,3.243a22,22,0,0,1-3.56,5.115,5.013,5.013,0,0,1-6.161,1.288,17.182,17.182,0,0,0-2.189-.789,7.248,7.248,0,0,0-4.54.352c-.735.286-1.467.59-2.221.817a4.2,4.2,0,0,1-4.079-.894,17.389,17.389,0,0,1-3.33-3.966A23.731,23.731,0,0,1,66.119,63.91a15,15,0,0,1,.817-7.447,9.434,9.434,0,0,1,8.908-6.2,10.962,10.962,0,0,1,2.563.542,16.186,16.186,0,0,1,1.971.739,3.857,3.857,0,0,0,3.068.018A34.118,34.118,0,0,1,86.819,50.4a8.833,8.833,0,0,1,5.85.532A8.193,8.193,0,0,1,96.2,53.718q.067.091.128.186a.262.262,0,0,1,.022.068,8.566,8.566,0,0,0,1.108,15.21" transform="translate(-903 6913.388)"/>
  </g>
</svg>
