<svg xmlns="http://www.w3.org/2000/svg" viewBox="0 0 408.71 365.59"><defs><style>.cls-1{fill:#706f7f;}.cls-2{fill:#eab736;}.cls-3{fill:#e8e9ea;}.cls-4{fill:#8a8995;}.cls-5{fill:#fcc64f;}.cls-6{fill:#eab712;}.cls-7{fill:#05a1d0;}.cls-8{fill:#42c1e7;}.cls-9{fill:#16a1d0;}.cls-10{fill:#b8bac0;}.cls-11{fill:#f5cf55;}.cls-12{fill:#5cbfa9;}.cls-13{fill:#18b995;}.cls-14{fill:#fefefe;}.cls-15{fill:#203e9b;}.cls-16{fill:#c40562;}.cls-17{fill:#495fa3;}.cls-18{fill:#e3006f;}.cls-19{fill:#fdfefe;}.cls-20,.cls-21{isolation:isolate;}.cls-21{font-size:28px;fill:#fff;font-family:HelveticaNeue-Medium, Helvetica Neue;font-weight:500;}</style></defs><g id="Layer_2" data-name="Layer 2"><g id="Layer_1-2" data-name="Layer 1"><g id="Group_6220" data-name="Group 6220"><path id="Path_2224" data-name="Path 2224" class="cls-1" d="M396.79,328.72c6.21.48,9.47,4.59,11.92,9.7v24.74l-2.38,1.6c-5,.87-10.06.28-15.08.35-8.25.12-16.49,0-24.74.07-2.34,0-3.6-.85-3.64-3.12-.25-10.36-.31-20.73,0-31.1a4,4,0,0,1,.84-2.21c3.85-2.18,8.15-1.56,12.06-1,6.37.9,12.7.51,19,.71A5.18,5.18,0,0,1,396.79,328.72Z"/><path id="Path_2225" data-name="Path 2225" class="cls-2" d="M408.71,118.94l-.32.14-.35,0c-1.2-.91-1.3-2.27-1.3-3.58,0-7-.3-14,.14-21a4.47,4.47,0,0,1,.58-1.41c.19-.17.38-.34.58-.5a.72.72,0,0,1,.67,0Z"/><path id="Path_2226" data-name="Path 2226" class="cls-3" d="M12,328.71c4.53-1.47,9.18-.55,13.76-.6,2.9,0,3.89-.74,3.89-3.8q-.12-87.24.06-174.5c0-3.51-2-3.61-4.11-4.4,1.43-1.66,3.41-1.2,5.21-1.24a27,27,0,0,0,26.41-26.95c.1-8-.48-15.91.37-23.86a2.9,2.9,0,0,1,.85-1.19,4.42,4.42,0,0,1,1.4-.58c15.5-.6,31-.16,46.5-.23,3.4,0,6.9-.72,10.18.87,1.49,1.5,1.11,3.44,1.17,5.25.22,6.6-.38,13.21.35,19.79.91,10.86,5.84,19.1,15.63,24.29,17.48,9.28,39.88-3.93,40.09-23.7.08-8.1,0-16.21,0-24.33a8.89,8.89,0,0,1,.1-1.36c.36-1.13.52-2.49,2.3-2,2,1.2,4.3,1.14,6.55,1.15h43.63a36.84,36.84,0,0,1,5.94.21,4.78,4.78,0,0,1,1.36.52,2.48,2.48,0,0,1,.89,1.06c1,7.65.38,15.35.44,23,.14,19,16.41,31.83,34.79,27.35a27.28,27.28,0,0,0,20.49-25.8c.1-8.09-.2-16.19.16-24.28a3.92,3.92,0,0,1,.5-1.36,1.84,1.84,0,0,1,1.24-.76l53,0c1.59,0,3.21,0,4.6,1,1.21,1.47,1,3.25,1,4.94,0,6.22,0,12.44,0,18.65.69,10.78-4,19-12.36,25.29-2.2,1.66-2.8,3.63-2.79,6.16q.08,13.55,0,27.08c0,1.94.35,4-1.37,5.6-2,1-4.1.72-6.19.79-7.48.23-15-.5-22.45.48a43.3,43.3,0,0,1-7.55.33H170.93c-8.8,0-10,1.1-10,9.79q0,43.83,0,87.67c0,3.4-.39,7.14,3.85,8.74a11.27,11.27,0,0,0,5.08.73q66.91,0,133.85-.05c8.37,0,16.73-.1,25.1-.11,2,0,4-.18,5.77,1.07,1.16,1.47,1.11,3.23,1.12,4.95.05,9.56.09,19.12,0,28.68-.05,5.17-.92,6-6.11,6q-95.22,0-190.44,0c-1.45,0-2.94.1-4.24-.77-1.8-2.18-1.28-4.8-1.28-7.27q0-64.39,0-128.78c0-10.75-.72-11.54-11.58-11.43-10.63.12-21.26-.55-31.88.43-9.14.72-18.31.21-27.46.33-7.6.1-8.7,1.08-8.71,8.83Q54,253.83,54,317.15c0,3.57.42,7.17-.44,10.72a3.31,3.31,0,0,1-.87,1.31c-1.54,1-3.28.92-5,.92q-15.25,0-30.52,0C15.35,330.09,13.41,330.33,12,328.71Z"/><path id="Path_2227" data-name="Path 2227" class="cls-4" d="M12,328.71H52.83c1.47-1.26,3.26-1,5-1,23.76.07,47.53-.32,71.3-.18,2,0,4-.16,5.85.81a35.58,35.58,0,0,0,4.38.09c63.35,0,126.7.16,190.05-.16,9.63-.05,19.3-.76,29-.73,2,0,4-.28,5.66,1.27,0,10.73.11,21.45-.06,32.18,0,3,.92,3.82,3.85,3.79,12.84-.13,25.69,0,38.53,0-1.21,1.21-2.76.74-4.17.73q-197.62-.06-395.26-.17c-5.9,0-6.83-1-6.84-7,0-5.05,0-10.1,0-15.16C.11,335.12,4.06,330.35,12,328.71Z"/><path id="Path_2228" data-name="Path 2228" class="cls-5" d="M28.19,37.54l0-26.32c0-8.5,2.43-11,10.83-11q38.28,0,76.56,0H330.06c13.42,0,26.84-.13,40.26-.16,1.42,0,2.95-.42,4.22.64C373,2.41,370.89,2.06,369,2.08c-8.87.06-17.74,0-26.61,0-4.64,0-4.95.33-5,5-.05,8.21,0,16.42,0,24.63,0,2,.2,4-.94,5.8-1.77,1.57-3.92,1.2-6,1.2-14.46.23-28.9,0-43.36.1-2.26,0-4.51.07-6.76.22-15-.54-30-.12-45.07-.24a12.2,12.2,0,0,0-5.35,1.37c-3.13-1.29-6.41-1.39-9.74-1.39-13.8,0-27.6.14-41.4-.05q-25.07.26-50.12,0c-16.76.16-33.52.2-50.28,0-15.09.24-30.19.07-45.28.08C31.34,38.8,29.55,38.93,28.19,37.54Z"/><path id="Path_2229" data-name="Path 2229" class="cls-6" d="M330.34,37.61,336,37.4c1.46-1.15,3.19-1.13,4.91-1.14q17.42,0,34.84,0c1.69,0,3.47-.12,4.82,1.28L408,92.6l-.35,0c-1.38,1.44-3.19,1.14-4.88,1.14q-23.73.06-47.44,0c-1.7,0-3.49.22-5-.89-1.78-1.12-2.58-2.87-3.25-4.79-5.39-15.2-10.79-30.4-16.4-45.52C330.13,41,329.21,39.34,330.34,37.61Z"/><path id="Path_2230" data-name="Path 2230" class="cls-7" d="M28.19,37.54l50.16.06c1,1.45.21,2.84-.26,4.17C72.32,57.87,66.35,73.89,60.67,90a3.94,3.94,0,0,1-1.8,2.52.85.85,0,0,0-.52.08c-1.44,1.27-3.21,1.1-4.92,1.1q-23.86,0-47.73,0C4,93.71,2.2,94,.82,92.6Q9.59,74.81,18.39,57C21.63,50.52,24.92,44,28.19,37.54Z"/><path id="Path_2231" data-name="Path 2231" class="cls-8" d="M58.27,93.43c0,8.22.21,16.44.09,24.66-.25,15.42-14.14,28.23-29.59,27.45l-3.17-.12C11.11,142.86,1.34,132.22.72,118.31.16,110.61.63,102.9.46,95.2c0-1.45.44-2.2,2-2.19,18.48.15,36.95-.29,55.42.24C58,93.25,58.15,93.37,58.27,93.43Z"/><path id="Path_2232" data-name="Path 2232" class="cls-5" d="M380.59,37.55,336,37.4c0-10.85.14-21.71,0-32.57,0-3.06.75-4.11,4-4.07,11.51.16,23,0,34.55,0,4.33,1.16,6.1,3.4,6.12,8.32C380.72,18.54,380.62,28.05,380.59,37.55Z"/><path id="Path_2233" data-name="Path 2233" class="cls-9" d="M58.27,93.43c-17.77,0-35.55.08-53.32-.1C1.5,93.29.77,94.46.84,97.64,1,104.53.78,111.42.72,118.31a108,108,0,0,1,.1-25.72l57.53,0Z"/><path id="Path_2234" data-name="Path 2234" class="cls-10" d="M364,328.83l-223.64.05c-1.86,0-3.72-.05-5.58-.08a.52.52,0,0,1,.18-.72l.05,0q97.75,0,195.52.09c3.12,0,4.12-.82,4.07-4-.19-11.43-.09-22.87-.1-34.31,1.72-1.76,4-1.26,6-1.3,7.1-.17,8.6-1.59,8.65-8.77.07-12.09,0-24.18,0-36.28q0-26.5,0-53c0-7.7-1.66-9.32-9.31-9.61-1.83-.07-3.77.23-5.3-1.18q0-17.11,0-34.24c0-1.58-.12-3,1.61-4.14,9.08-5.74,13.88-13.91,13.66-24.81a.85.85,0,0,1,1.06.38c.84,1.58.54,3.36.86,5a27.44,27.44,0,0,0,25.82,22.37c1.39.07,3-.28,3.92,1.26-2.56.69-2.31,2.68-2.3,4.69q0,50,0,100V322.8c0,5.24,0,5.1,5.42,5.29,4.06.14,8.2-.84,12.19.64Z"/><path id="Path_2235" data-name="Path 2235" class="cls-11" d="M381.47,145.52c-16-.06-26.4-7.66-30.47-22.11-.63-2.23-.48-4.47-.68-6.7-.6-7.16-.1-14.34-.27-21.5,0-1.47.46-2.2,2-2.19,18.46.17,36.92-.34,55.38.28.11,0,.22.14.33.21l.24,25.56C407.22,133.05,396.25,144,381.47,145.52Z"/><path id="Path_2236" data-name="Path 2236" class="cls-2" d="M407.8,93.51c-18,0-36,0-54.05-.17-2.76,0-3.29,1-3.27,3.51.07,6.61-.09,13.23-.16,19.85l-.51-.23-.18-23.87a.47.47,0,0,1,0-.66.63.63,0,0,1,.2-.13,6.19,6.19,0,0,0,3.81.8q27,0,54.08,0Z"/><path id="Path_2237" data-name="Path 2237" class="cls-12" d="M164.32,289c-2.42-.06-3.57-1.59-4-3.7a21.78,21.78,0,0,1-.41-4.34q0-46.08,0-92.15c0-7.22,1.42-8.64,8.59-8.64l137.24.08c1.5,1.48,1.31,3.42,1.31,5.25q.06,49,0,98.11c0,5.39-.39,5.69-5.56,5.69H168.26C167,289.31,165.6,289.57,164.32,289Z"/><path id="Path_2238" data-name="Path 2238" class="cls-13" d="M135,328.06a2.12,2.12,0,0,0-.23.75l-82-.09A1.34,1.34,0,0,1,53,328c1.62-1.57,3.7-1.25,5.66-1.27,8.23-.06,16.46,0,24.7,0,5.36,0,5.56-.24,5.56-6.09q0-65.94,0-131.87c0-2.87-.66-5.89,1.23-8.5,1.2-.84,2.58-.46,3.87-.46q15.93,0,31.88,0c7.3,0,9,1.66,9,8.79V323.28C134.94,324.87,135,326.46,135,328.06Z"/><path id="Path_2239" data-name="Path 2239" class="cls-12" d="M90.21,180.27q0,72,.09,144c0,2.93-.75,3.92-3.79,3.88C75.35,327.94,64.18,328,53,328c-.07-1.46-.2-2.91-.2-4.37q0-67.32,0-134.64c0-7.53,1.29-8.84,8.73-8.83Q75.87,180.22,90.21,180.27Z"/><path id="Path_2240" data-name="Path 2240" class="cls-13" d="M164,289l135.64-.09c6.41,0,5.78.65,5.78-5.74q0-51.46,0-102.92c6.82-1.06,13.69-.2,20.52-.46,2.78-.11,5.56-.1,8.33-.15s5.58,0,8.36.1c5.3.25,7.44,2.43,7.44,7.71q0,47.17,0,94.37c0,5.87-2.06,7.84-7.91,7.88l-8,.09c-20.87-.07-41.74-.19-62.62-.21q-51.45,0-102.91,0C167.1,289.57,165.45,290,164,289Z"/><path id="Path_2241" data-name="Path 2241" class="cls-14" d="M58.87,92.54,76.15,44c.75-2.12,1.46-4.25,2.2-6.37h50.3a3.4,3.4,0,0,1,.47,3c-3.64,17.22-6.79,34.55-11.22,51.6a1,1,0,0,1-1.15.45Z"/><path id="Path_2242" data-name="Path 2242" class="cls-14" d="M179,37.64c15.94-.06,31.88-.06,47.82-.23,2.07,0,2.3,1.26,2.89,2.52,2.53,3.79,1.63,8.23,2,12.33,1,10.7,1.54,21.46,2.44,32.18.23,2.72.79,5.6-1,8.13q-27.12,0-54.23.07c-1.92,0-3.5-.11-3.46-2.58-1.29-1.43-1.21-3.22-1.1-4.9q1.5-22.38,3.27-44.73A3.67,3.67,0,0,1,179,37.64Z"/><path id="Path_2243" data-name="Path 2243" class="cls-14" d="M349.79,91.81l-.16.79-53.52,0c-1.57,0-3.19.21-4.58-.81-1.86-1.28-2-3.4-2.4-5.3-3.2-14.68-6.28-29.39-9.43-44.08-.3-1.42-.74-2.87.32-4.2a2.28,2.28,0,0,1,2.14-.75l48.18.13Q340.06,64.72,349.79,91.81Z"/><path id="Path_2244" data-name="Path 2244" class="cls-15" d="M179,37.64l-3.49,52.42-.72,2.54c-1.42,1.31-3.2,1.12-4.91,1.12q-23.88,0-47.76,0c-1.69,0-3.5.3-4.87-1.14q3.43-16.65,6.89-33.3l4.47-21.67Z"/><path id="Path_2245" data-name="Path 2245" class="cls-16" d="M280,38.23Q285.77,65,291.53,91.81l-.22.79c-1.41,1.33-3.19,1.12-4.9,1.12q-23.85,0-47.7,0c-1.72,0-3.47.11-4.94-1.06a2.05,2.05,0,0,0-.54-.1q-1.41-21.16-2.83-42.34c-.23-3.43-.44-6.86-.66-10.29.16-1.4.46-2.47,2.33-2.46,15.37.06,30.74,0,46.1.08A6.13,6.13,0,0,1,280,38.23Z"/><path id="Path_2246" data-name="Path 2246" class="cls-17" d="M174.82,93.42c0,8.88.33,17.77,0,26.63-.55,13.75-14,25.54-28.61,25.63a28.76,28.76,0,0,1-28.89-27.43c-.66-7.69-.11-15.39-.3-23.09,0-1.49.51-2.16,2.07-2.15,18.47.15,36.94-.28,55.4.24C174.58,93.25,174.7,93.36,174.82,93.42Z"/><path id="Path_2247" data-name="Path 2247" class="cls-18" d="M291.37,93.41c0,8.5.27,17,.06,25.5-.37,15-14.92,27.84-30,26.65-15.81-1.25-26.55-11.76-27.64-27.53a197.15,197.15,0,0,1,0-24.67c1.13-.59,2.35-.33,3.52-.33q25.28,0,50.54,0C289,93,290.26,92.73,291.37,93.41Z"/><path id="Path_2248" data-name="Path 2248" class="cls-15" d="M174.82,93.42c-17.76,0-35.52.08-53.28-.09-3.39,0-4.25,1-4.16,4.26.19,6.88,0,13.77-.09,20.66-1.22-6.91-.25-13.88-.55-20.82-.06-1.58,0-3.16,0-4.74a1.63,1.63,0,0,1,.54-.12l57.54,0Z"/><path id="Path_2249" data-name="Path 2249" class="cls-16" d="M291.37,93.41l-57.56,0a.68.68,0,0,1,0-.69l57.54-.07Z"/><path id="Path_2250" data-name="Path 2250" class="cls-19" d="M118,252.52a39.27,39.27,0,0,1-.06,5.94c-.49,3.27-2.63,5.34-5.9,5.4a5.58,5.58,0,0,1-6-5.09v0a44,44,0,0,1,0-13,5.53,5.53,0,0,1,5.75-5,5.68,5.68,0,0,1,6.11,5.1,53.94,53.94,0,0,1,.36,6.72Z"/><g id="Market_place" data-name="Market place" class="cls-20"><text class="cls-21" transform="translate(172 248.99)">Market place</text></g></g></g></g></svg>