<svg xmlns="http://www.w3.org/2000/svg" width="26.454" height="26.454" viewBox="0 0 26.454 26.454">
  <g id="Icon_feather-sun" data-name="Icon feather-sun" transform="translate(-0.5 -0.5)">
    <path id="Path_2101" data-name="Path 2101" d="M21.616,16.058A5.558,5.558,0,1,1,16.058,10.5,5.558,5.558,0,0,1,21.616,16.058Z" transform="translate(-2.331 -2.331)" fill="none" stroke="#1a5669" stroke-linecap="round" stroke-linejoin="round" stroke-width="2"/>
    <path id="Path_2102" data-name="Path 2102" d="M18,1.5V3.723" transform="translate(-4.273)" fill="none" stroke="#1a5669" stroke-linecap="round" stroke-linejoin="round" stroke-width="2"/>
    <path id="Path_2103" data-name="Path 2103" d="M18,31.5v2.223" transform="translate(-4.273 -7.769)" fill="none" stroke="#1a5669" stroke-linecap="round" stroke-linejoin="round" stroke-width="2"/>
    <path id="Path_2104" data-name="Path 2104" d="M6.33,6.33,7.908,7.908" transform="translate(-1.251 -1.251)" fill="none" stroke="#1a5669" stroke-linecap="round" stroke-linejoin="round" stroke-width="2"/>
    <path id="Path_2105" data-name="Path 2105" d="M27.54,27.54l1.578,1.578" transform="translate(-6.743 -6.743)" fill="none" stroke="#1a5669" stroke-linecap="round" stroke-linejoin="round" stroke-width="2"/>
    <path id="Path_2106" data-name="Path 2106" d="M1.5,18H3.723" transform="translate(0 -4.273)" fill="none" stroke="#1a5669" stroke-linecap="round" stroke-linejoin="round" stroke-width="2"/>
    <path id="Path_2107" data-name="Path 2107" d="M31.5,18h2.223" transform="translate(-7.769 -4.273)" fill="none" stroke="#1a5669" stroke-linecap="round" stroke-linejoin="round" stroke-width="2"/>
    <path id="Path_2108" data-name="Path 2108" d="M6.33,29.118,7.908,27.54" transform="translate(-1.251 -6.743)" fill="none" stroke="#1a5669" stroke-linecap="round" stroke-linejoin="round" stroke-width="2"/>
    <path id="Path_2109" data-name="Path 2109" d="M27.54,7.908,29.118,6.33" transform="translate(-6.743 -1.251)" fill="none" stroke="#1a5669" stroke-linecap="round" stroke-linejoin="round" stroke-width="2"/>
  </g>
</svg>
