<svg xmlns="http://www.w3.org/2000/svg" width="33.306" height="36.824" viewBox="0 0 33.306 36.824">
  <g id="Group_8513" data-name="Group 8513" transform="translate(903 -7202.395)">
    <path id="Path_6293" data-name="Path 6293" d="M159.4,248.19a3.521,3.521,0,0,1,.035.354q0,8.052,0,16.1v.4l-18.941.321c-.007-.148-.017-.264-.017-.381q0-6.327-.007-12.654c0-.277.065-.383.353-.44q8.047-1.59,16.09-3.207c.783-.157,1.562-.334,2.343-.5Z" transform="translate(-1029.125 6954.205)"/>
    <path id="Path_6294" data-name="Path 6294" d="M159.422,457.774c-2.573-.512-5.1-1.011-7.619-1.516q-5.511-1.1-11.023-2.2c-.213-.042-.3-.1-.3-.336q.011-6.455.006-12.91c0-.058.008-.116.016-.217l18.921.323Z" transform="translate(-1029.137 6781.444)"/>
    <path id="Path_6295" data-name="Path 6295" d="M11.834,303.442l-11.626.194V292.858l11.626-2.319Z" transform="translate(-903.187 6916.179)"/>
    <path id="Path_6296" data-name="Path 6296" d="M0,438.267l11.66.2v12.9c-1.013-.2-2.008-.4-3-.593-2.722-.543-5.445-1.082-8.165-1.635-.559-.114-.491.026-.492-.607q0-4.87,0-9.74v-.523" transform="translate(-903 6783.533)"/>
  </g>
</svg>
