<svg xmlns="http://www.w3.org/2000/svg" width="21.81" height="21.374" viewBox="0 0 21.81 21.374">
  <g id="Group_3409" data-name="Group 3409" transform="translate(0.375 -1.533)">
    <path id="Path_1094" data-name="Path 1094" d="M20.507,32.126a.553.553,0,0,0-.553.553v4.913a1.662,1.662,0,0,1-1.66,1.66H2.767a1.662,1.662,0,0,1-1.66-1.66V23.173a1.662,1.662,0,0,1,1.66-1.66H7.68a.553.553,0,1,0,0-1.107H2.767A2.77,2.77,0,0,0,0,23.173v14.42a2.77,2.77,0,0,0,2.767,2.767H18.293a2.77,2.77,0,0,0,2.767-2.767V32.679A.553.553,0,0,0,20.507,32.126Z" transform="translate(0 -17.827)" fill="#1a5669" stroke="#1a5669" stroke-width="0.75"/>
    <path id="Path_1095" data-name="Path 1095" d="M156.148,41.628l8.08-8.08,2.606,2.606-8.08,8.08Z" transform="translate(-147.495 -30.241)" fill="#1a5669"/>
    <path id="Path_1096" data-name="Path 1096" d="M132.357,201.088l2.88-.8-2.082-2.082Z" transform="translate(-125.023 -185.776)" fill="#1a5669"/>
    <path id="Path_1097" data-name="Path 1097" d="M318.627,1.938a1.385,1.385,0,0,0-1.956,0l-.587.587L318.69,5.13l.587-.587a1.385,1.385,0,0,0,0-1.956Z" transform="translate(-298.569)" fill="#1a5669"/>
  </g>
</svg>
