<svg xmlns="http://www.w3.org/2000/svg" width="63.511" height="70.321" viewBox="0 0 63.511 70.321">
  <g id="Group_5468" data-name="Group 5468" transform="translate(-441.431 -1082.86)">
    <path id="Path_1837" data-name="Path 1837" d="M538.964,1101.625c.337.239.2.595.2.9q.01,22.4,0,44.807a5.536,5.536,0,0,1-5.858,5.844q-20.019-.04-40.038.006a5.574,5.574,0,0,1-5.407-4.039,3.407,3.407,0,0,1-.124-.956q0-2.1,0-4.2c.464-.424,1.041-.306,1.579-.307q13.3-.013,26.592-.006c3.407,0,4.056-.646,4.056-4.034q0-9.712,0-19.424c0-.228,0-.455,0-.684-.032-2.48-.873-3.34-3.373-3.344-9.059-.015-18.118,0-27.177-.012-.569,0-1.181.136-1.677-.306q0-13.911,0-27.822a5.277,5.277,0,0,1,5.14-5.165q13.4-.034,26.791,0c.276,0,.6-.115.8.2.223,2.561.067,5.127.1,7.691.025,1.82,0,3.641.007,5.461a5.053,5.053,0,0,0,5.269,5.277c3.633.025,7.267.009,10.9,0A15.739,15.739,0,0,1,538.964,1101.625Z" transform="translate(-34.248 0)" fill="#e9e9e3"/>
    <path id="Path_1838" data-name="Path 1838" d="M453.483,1209.7c.388.015.777.042,1.165.042q13.977,0,27.954,0a5.869,5.869,0,0,1,1.163.066,2.429,2.429,0,0,1,2.144,2.191,6.4,6.4,0,0,1,.07,1.067q.006,10.688,0,21.375a5.5,5.5,0,0,1-.084,1.164,2.436,2.436,0,0,1-2.037,2.073,5.69,5.69,0,0,1-1.258.091q-13.977,0-27.954,0c-.388,0-.777.028-1.165.042H443.7a3.036,3.036,0,0,1-2.273-3.32c.026-7.182.01-14.363.012-21.545,0-2.256.945-3.2,3.19-3.21Q449.058,1209.722,453.483,1209.7Z" transform="translate(0 -93.827)" fill="#f14646"/>
    <path id="Path_1839" data-name="Path 1839" d="M631.365,1102.251c-.246.326-.6.183-.9.184-4.15.009-8.3-.027-12.45.017a5.493,5.493,0,0,1-5.371-5.37c.082-4.157.018-8.317.028-12.476,0-.3-.144-.659.192-.9.125.147.241.305.378.442q8.841,8.865,17.686,17.724C631.061,1102.009,631.218,1102.125,631.365,1102.251Z" transform="translate(-126.649 -0.626)" fill="#b9b9b8"/>
    <path id="Path_1840" data-name="Path 1840" d="M507.838,1253.211v-11.117a1.941,1.941,0,0,1,1.233-.14,22.19,22.19,0,0,1,4.461.184c4.788,1.035,5.65,5.606,3.9,8.347a6.012,6.012,0,0,1-4.928,2.705C510.992,1253.3,509.467,1253.211,507.838,1253.211Z" transform="translate(-49.124 -117.663)" fill="#fefbed"/>
    <path id="Path_1841" data-name="Path 1841" d="M462.792,1241.977c1.831,0,3.584-.068,5.329.015a3.794,3.794,0,0,1,3.7,5.022,3.921,3.921,0,0,1-3.682,2.55c-.936.034-1.874.006-2.846.006a5.711,5.711,0,0,0-.123,1.854c-.022.576,0,1.154,0,1.783h-2.373Z" transform="translate(-15.802 -117.685)" fill="#fefbed"/>
    <path id="Path_1842" data-name="Path 1842" d="M567.027,1242.327v2.08h-6.1a16.494,16.494,0,0,0-.088,2.464H566.4a10.508,10.508,0,0,1,.058,2.191h-5.588v4.354a8.734,8.734,0,0,1-2.428.1v-11.185Z" transform="translate(-86.557 -117.963)" fill="#fefbed"/>
    <path id="Path_1843" data-name="Path 1843" d="M517.166,1250.424a9.648,9.648,0,0,1,2.8.063,3.417,3.417,0,0,1-.035,6.692,12.011,12.011,0,0,1-2.767.088Z" transform="translate(-56.024 -123.901)" fill="#f14646"/>
    <path id="Path_1844" data-name="Path 1844" d="M472.075,1253.618v-3.151a8.948,8.948,0,0,1,3.163.1,1.492,1.492,0,0,1,.022,2.894A11.5,11.5,0,0,1,472.075,1253.618Z" transform="translate(-22.669 -123.914)" fill="#f14747"/>
  </g>
</svg>
