<svg xmlns="http://www.w3.org/2000/svg" viewBox="0 0 71.7 68.66"><defs><style>.cls-1{fill:#3cb39f;}.cls-1,.cls-3{stroke:#010101;stroke-width:1.02px;}.cls-2{fill:#7bc6ba;}.cls-3{fill:#5dbdac;}.cls-4{fill:#90cdc3;}.cls-5{fill:#0e9339;}.cls-6{fill:#fff;}</style></defs><g id="Layer_2" data-name="Layer 2"><g id="Layer_1-2" data-name="Layer 1"><g id="Layer_2-2" data-name="Layer 2-2"><g id="Layer_1-2-2" data-name="Layer 1-2-2"><g id="wallet"><path id="Path_701" data-name="Path 701" class="cls-1" d="M19.7,31.7,58.22,21.45a2.45,2.45,0,0,1,3,1.71l6.39,23.62a2.47,2.47,0,0,1-1.71,3l-50,13.35a2.45,2.45,0,0,1-3-1.71L8.19,44.05Z"/><path id="Path_702" data-name="Path 702" class="cls-2" d="M60.94,46l-8.4,2.21a1.22,1.22,0,0,1-.83-2.3l.21-.05h0L59.06,44,55.25,29.68l-7,2a1.22,1.22,0,0,1-.83-2.3l.21-.05L56,27.14a1.14,1.14,0,0,1,1.46.72h0l4.39,16.59a1.14,1.14,0,0,1-.7,1.45ZM26.47,55.3l-8.4,2.21a1.15,1.15,0,0,1-1.34-.61h0L12.28,40.1A1.16,1.16,0,0,1,13,38.64h.1l8.39-2.19a1.21,1.21,0,0,1,1.48.86h0a1.22,1.22,0,0,1-.86,1.49L15,40.66l3.72,14.22L25.87,53a1.14,1.14,0,0,1,1.45.71h0a1.19,1.19,0,0,1-.84,1.45Z"/><path id="Path_703" data-name="Path 703" class="cls-3" d="M.58,40.1c10.94-6.16,40.51-23.43,40.51-23.43a2.49,2.49,0,0,1,3.36.86L56.74,38.7a2.43,2.43,0,0,1-.93,3.3h0l-45,25.84A2.48,2.48,0,0,1,7.51,67S4,60,.51,54.1C.52,40.1.58,44.77.58,40.1Z"/><path id="Path_704" data-name="Path 704" class="cls-4" d="M50.47,38l-8.6-14.9a1.18,1.18,0,0,0-1.57-.47h0L32.69,27a1.21,1.21,0,1,0,1,2.21,1.4,1.4,0,0,0,.17-.09h0l6.38-3.67,7.39,12.77-6.24,3.67A1.21,1.21,0,0,0,42.52,44h0L50,39.68a1.2,1.2,0,0,0,.44-1.62ZM17.88,55.45l-6.41,3.7L4.08,46.31l6.41-3.69A1.22,1.22,0,0,0,11,41a1.21,1.21,0,0,0-1.65-.48l-.07,0h0L1.89,44.83a1.17,1.17,0,0,0-.49,1.58l0,0h0l8.56,15a1.2,1.2,0,0,0,1.57.47h0L19,57.54A1.17,1.17,0,0,0,19.48,56h0a1.19,1.19,0,0,0-1.62-.44ZM21,33.72a9.86,9.86,0,1,0,13.47,3.59h0A9.84,9.84,0,0,0,21,33.63l0,0h0ZM50.47,38l-8.6-14.9a1.18,1.18,0,0,0-1.57-.47h0L32.69,27a1.21,1.21,0,1,0,1,2.21,1.4,1.4,0,0,0,.17-.09h0l6.38-3.67,7.39,12.77-6.24,3.67A1.21,1.21,0,0,0,42.52,44h0L50,39.68a1.2,1.2,0,0,0,.44-1.62h0ZM17.88,55.45l-6.41,3.7L4.08,46.31l6.41-3.69A1.22,1.22,0,0,0,11,41a1.21,1.21,0,0,0-1.65-.48l-.07,0h0L1.89,44.83a1.17,1.17,0,0,0-.49,1.58l0,0h0l8.56,15a1.2,1.2,0,0,0,1.57.47h0L19,57.54A1.17,1.17,0,0,0,19.48,56h0a1.19,1.19,0,0,0-1.62-.44ZM21,33.72a9.86,9.86,0,1,0,13.47,3.59h0A9.84,9.84,0,0,0,21,33.63l0,0h0Z"/></g></g></g><circle class="cls-5" cx="55.16" cy="16.54" r="16.54"/><path class="cls-6" d="M62.22,17.54H56v6.21a1.06,1.06,0,0,1-2.11.24h0a1,1,0,0,1,0-.24V17.54H47.65a1.07,1.07,0,0,1,0-2.13h6.23V9.2A1.06,1.06,0,0,1,56,9V9a.89.89,0,0,1,0,.23v6.18h6.23a1.06,1.06,0,1,1,0,2.12Z"/></g></g></svg>