<svg xmlns="http://www.w3.org/2000/svg" viewBox="0 0 70.96 55.63"><defs><style>.cls-1{fill:#576f7d;}.cls-2{fill:#576b71;}.cls-3{fill:#92c02f;}.cls-4{fill:#4d89c8;}.cls-5{fill:#396b2c;}.cls-6{fill:#fdc306;}.cls-7{fill:#92a4af;}.cls-8{fill:#0e9339;}.cls-9{fill:#fff;}</style></defs><g id="Layer_2" data-name="Layer 2"><g id="Layer_1-2" data-name="Layer 1"><g id="Layer_2-2" data-name="Layer 2-2"><g id="Layer_1-2-2" data-name="Layer 1-2-2"><rect class="cls-1" x="37.43" y="3.29" width="1.91" height="6.74" transform="translate(22.63 42.28) rotate(-75.98)"/><path class="cls-2" d="M29.06,49.68c1,.19,2.05,0,2.83.81-.15,1.41-.5,2.62-2.36,2.31C28.09,52,28.85,50.78,29.06,49.68Z"/><path class="cls-3" d="M44.12,21.14C42.31,27,40.43,32.87,38.71,38.78A30.09,30.09,0,0,1,31.82,51c-1.05.13-2.13.32-2.83-.81A32,32,0,0,1,30.14,35.8c2-5.81,3.71-11.74,5.54-17.62A18.37,18.37,0,0,1,44.12,21.14Z"/><path class="cls-3" d="M44.71,19.6C42.79,25.79,40.82,32,39,38.18a31.93,31.93,0,0,1-7.26,13c-1.11.13-2.25.33-3-.88A33.78,33.78,0,0,1,30,35c2.07-6.12,3.9-12.4,5.81-18.61A19.64,19.64,0,0,1,44.71,19.6Z"/><path class="cls-4" d="M13.11,46.33c-1.63.93-3,1.82-4.45,2.53C4.54,50.83,1,49.42.36,45A26.2,26.2,0,0,1,5.53,24.52c2-2.55,4.81-4.15,8.17-2.87s4.37,4.48,5,7.69a1.73,1.73,0,0,1-1,2.24l-.12,0C16.24,32,16,30.82,15.72,30c-.72-2.37-1-5.5-4.06-5.55-3.37-.07-5,2.9-6.12,5.67A29.44,29.44,0,0,0,3.07,42.92c.2,3.68,1.89,4.56,5.16,2.76,1.35-.73,2.63-1.61,4-2.33,1.19-.62,2.57-1.05,3.72-.2s.6,2.18.31,3.32c-.2.8-.37,1.61-.68,3,4.6-2.34,7.6,1.16,11.09,2.83,1,.46,2.36,1.55,1.47,2.81-1.05,1.45-2-.45-3-.62C22.26,54,20,51,16.54,52.72c-1.75.88-3.18-.5-3.42-2.49A29.86,29.86,0,0,1,13.11,46.33Z"/><path class="cls-5" d="M44.88.44l2.72.94a3.34,3.34,0,0,1,2.06,4.25h0L45.29,18.22h0l-8.93-3.09h0L40.73,2.47A3.28,3.28,0,0,1,44.88.44Z"/><rect class="cls-6" x="38.71" y="13.45" width="3.21" height="9.47" transform="translate(9.98 50.37) rotate(-70.98)"/><rect class="cls-7" x="23.49" y="7.79" width="18.45" height="2.76" transform="translate(13.38 37.11) rotate(-70.98)"/></g></g><circle class="cls-8" cx="54.42" cy="23.72" r="16.54"/><path class="cls-9" d="M61.48,24.72H55.25v6.21a1.06,1.06,0,1,1-2.11.24h0a1,1,0,0,1,0-.24V24.72H46.91a1.07,1.07,0,0,1,0-2.13h6.23V16.38a1.06,1.06,0,0,1,2.11-.25v.05a.88.88,0,0,1,0,.23v6.18h6.23a1.06,1.06,0,1,1,0,2.12Z"/></g></g></svg>