<svg xmlns="http://www.w3.org/2000/svg" xmlns:xlink="http://www.w3.org/1999/xlink" viewBox="0 0 315.45 266.16"><defs><style>.cls-1,.cls-12{fill:none;}.cls-2{fill:#e6e3dc;}.cls-3{clip-path:url(#clip-path);}.cls-4{fill:#75808f;}.cls-5{fill:#78b65b;}.cls-6{fill:#f1c251;}.cls-7{fill:#e29754;}.cls-8{fill:#95cb7f;}.cls-9{fill:#669d4f;}.cls-10{fill:#f4d3a6;}.cls-11{fill:#139339;}.cls-12{stroke:#fff;stroke-linecap:round;stroke-linejoin:round;stroke-width:8px;}</style><clipPath id="clip-path" transform="translate(0)"><rect class="cls-1" y="62.48" width="287.5" height="203.68"/></clipPath></defs><g id="Layer_2" data-name="Layer 2"><g id="Layer_1-2" data-name="Layer 1"><g id="Group_28" data-name="Group 28"><rect id="Rectangle_33" data-name="Rectangle 33" class="cls-2" x="11.98" y="86.64" width="263.44" height="156.76"/><g id="Group_27" data-name="Group 27"><g class="cls-3"><g id="Group_26" data-name="Group 26"><path id="Path_26" data-name="Path 26" class="cls-4" d="M275.43,86.63c-1.12,0-2.24-.12-3.36-.12H15.34c-1.12,0-2.24.08-3.36.12-3.11,0-6.23-.17-9.33-.09C.81,86.59,0,86.17,0,84.09Q.18,74.57,0,65c0-2,.71-2.69,2.6-2.47.62,0,1.25,0,1.87,0q139.23,0,278.47-.07c3.52,0,4.78.69,4.52,4.42a105.72,105.72,0,0,0,0,15.31c.28,3.8-1.1,4.73-4.57,4.36a59.9,59.9,0,0,0-7.46.06" transform="translate(0)"/><path id="Path_27" data-name="Path 27" class="cls-4" d="M275.43,266.15c-1.12,0-2.24-.11-3.36-.11H15.34c-1.12,0-2.24.07-3.36.11-3.11,0-6.23-.17-9.33-.09-1.84,0-2.69-.37-2.65-2.45q.18-9.53,0-19.06c0-2,.71-2.7,2.6-2.47.62,0,1.25,0,1.87,0q139.23,0,278.47-.09c3.52,0,4.78.7,4.52,4.42a105.86,105.86,0,0,0,0,15.32c.28,3.8-1.1,4.73-4.57,4.35a61.9,61.9,0,0,0-7.46.07" transform="translate(0)"/><path id="Path_28" data-name="Path 28" class="cls-5" d="M197.66,164.27h11.8a15.11,15.11,0,0,1,12.15,0H233.4a15.11,15.11,0,0,1,12.15,0c5.9.15,5.9.15,5.9,5.94,0,5.11-.08,10.21,0,15.32,0,2.07-.57,2.79-2.73,2.79q-45.19-.09-90.39,0c-2.16,0-2.77-.71-2.73-2.79.11-5.73.25-11.47,0-17.18-.17-3.34.85-4.59,4.12-4a9.63,9.63,0,0,0,1.86,0,15.11,15.11,0,0,1,12.15,0h11.8a15.1,15.1,0,0,1,12.13-.08" transform="translate(0)"/><path id="Path_29" data-name="Path 29" class="cls-5" d="M119.64,146.38c.45,15.86-10.87,30.5-26.91,34.8-15.17,4.07-32.47-3.21-39.66-16.69a2.86,2.86,0,0,1,1.23-1.34q13.92-8.52,28-16.82a7.31,7.31,0,0,1,2.79-1c10.26-.36,20.51-.12,30.77-.13a4.87,4.87,0,0,1,3.78,1.18" transform="translate(0)"/><path id="Path_30" data-name="Path 30" class="cls-6" d="M83.85,146.32C73.62,152.48,63.64,159,53.07,164.48,47.18,155.6,46.67,146,49.4,136c4.11-15,19.25-26.15,34.45-25.47,1.27,1.29,1.15,2.92,1.15,4.54q.09,13.38,0,26.68c0,1.6.07,3.24-1.15,4.54" transform="translate(0)"/><path id="Path_31" data-name="Path 31" class="cls-7" d="M83.85,146.32V110.57c19.24-.85,36.69,16.62,35.79,35.81Z" transform="translate(0)"/><path id="Path_32" data-name="Path 32" class="cls-8" d="M173.72,164.27H161.57c0-18.54.16-37.08,0-55.62,0-3.56,1.09-4.35,4.4-4.26,7.66.22,7.65.06,7.66,7.62Z" transform="translate(0)"/><path id="Path_33" data-name="Path 33" class="cls-9" d="M227.53,218.21c-8.95,0-17.91-.08-26.87,0-2.43,0-3.14-.66-3.14-3.11,0-8.91-.13-8.91,8.87-8.91,15.92,0,31.85.06,47.77-.06,2.6,0,3.36.67,3.34,3.31-.05,8.72.06,8.72-8.69,8.72Z" transform="translate(0)"/><path id="Path_34" data-name="Path 34" class="cls-8" d="M197.66,164.27H185.52c0-14.55.14-29.1,0-43.66,0-3.08.49-4.37,4-4.26,8,.25,8,.05,8,8q.09,20,.14,39.92" transform="translate(0)"/><path id="Path_35" data-name="Path 35" class="cls-9" d="M104.8,218.21c-6.09,0-12.19-.08-18.27,0-2.15,0-2.69-.68-2.74-2.76-.22-9.25-.29-9.25,8.88-9.25,9.94,0,19.89.09,29.83-.06,2.65,0,3.32.75,3.31,3.34-.06,8.69,0,8.69-8.71,8.69Z" transform="translate(0)"/><path id="Path_36" data-name="Path 36" class="cls-8" d="M221.61,164.27H209.46c0-10.69.14-21.38,0-32.06,0-2.75.46-3.94,3.61-3.88,8.41.15,8.4,0,8.41,8.35q.08,13.8.13,27.59" transform="translate(0)"/><path id="Path_37" data-name="Path 37" class="cls-8" d="M245.55,164.27H233.4c0-6.82.15-13.65,0-20.47,0-2.47.5-3.48,3.25-3.48,8.77,0,8.76-.13,8.78,8.69,0,5.09.09,10.17.12,15.26" transform="translate(0)"/><path id="Path_38" data-name="Path 38" class="cls-10" d="M169.12,230.21c-1.05,1.22-2.47.54-3.72.72,1-1.24,2.46-.59,3.72-.72" transform="translate(0)"/></g></g></g></g><g id="Group_31" data-name="Group 31"><path id="Path_39" data-name="Path 39" class="cls-11" d="M315.45,59.3A59.3,59.3,0,1,1,256.15,0h0A59.3,59.3,0,0,1,315.45,59.3Z" transform="translate(0)"/><g id="Icon_feather-plus" data-name="Icon feather-plus"><path id="Path_40" data-name="Path 40" class="cls-12" d="M255.32,31.18V85.75" transform="translate(0)"/><path id="Path_41" data-name="Path 41" class="cls-12" d="M228,58.47H282.6" transform="translate(0)"/></g></g></g></g></svg>