<svg xmlns="http://www.w3.org/2000/svg" viewBox="0 0 70.23 66.86"><defs><style>.cls-1{fill:#f8f5f8;}.cls-2{fill:#ebbe6b;}.cls-3{fill:#e6ebf6;}.cls-4{fill:#d7e1f0;}.cls-5{fill:#e9b04d;}.cls-6{fill:#e6a62e;}.cls-7{fill:#e7a52e;}.cls-8{fill:#0e9339;}.cls-9{fill:#fff;}</style></defs><g id="Layer_2" data-name="Layer 2"><g id="Layer_1-2" data-name="Layer 1"><g id="Layer_2-2" data-name="Layer 2-2"><g id="Layer_1-2-2" data-name="Layer 1-2-2"><path class="cls-1" d="M13.37,63V59.29a1.07,1.07,0,0,1-.21-.89V15.82a2.41,2.41,0,0,1,2.41-2.41H38.4c.89,0,1.77,0,2.65,0a1.09,1.09,0,0,1,.61.15c.42.33.34.8.34,1.23V24.92a1.76,1.76,0,0,0,.12,1c.3.8,1,1,1.85,1h7.67a1.72,1.72,0,0,1,1.19.23,1.53,1.53,0,0,1,.15,1V60.4a3.16,3.16,0,0,1-.28,1.45,2.49,2.49,0,0,1-2.18,1.38H14.8A2.73,2.73,0,0,1,13.37,63Z"/><path class="cls-2" d="M41.13,13.64h-25c-1.93,0-2.79.81-2.78,2.51V59.29H13.2a.87.87,0,0,1-.23-.78V56.74c0-1,0-1.06-1.17-1.06H1.4c-.88,0-.88.08-1,.83,0,.41.12.89-.25,1.2a2.66,2.66,0,0,1-.14-1.5Q.05,32.59.08,9a6.54,6.54,0,0,1,.06-.89A2.25,2.25,0,0,1,2.66,6.16H39.44a1.25,1.25,0,0,1,.23,1v5.14c0,.84,0,.84,1,1C40.81,13.38,41.09,13.38,41.13,13.64Z"/><path class="cls-3" d="M13.37,63H50.05c1.76,0,2.7-.83,2.7-2.4V27.12a.76.76,0,0,1,.55-.21h3.11a.86.86,0,0,1,.57.21,3.29,3.29,0,0,1,.16,1.08v36c0,1.77-1,2.65-2.88,2.65H16.06c-1.85,0-2.65-.74-2.65-2.37Z"/><path class="cls-4" d="M48.18,18.54A45.69,45.69,0,0,0,52,21.84l1.44,1.4a1.77,1.77,0,0,1-1.19.22H43.31c-1.1,0-1.12,0-1.16,1,0,.51.17,1.06-.24,1.53-.27-.23-.15-.52-.15-.78V14.55a1.24,1.24,0,0,0-.15-.88c.34-.3.69-.09,1,.05a2.44,2.44,0,0,1,1.32,1C45.26,16.07,46.71,17.31,48.18,18.54Z"/><path class="cls-4" d="M41.92,26c0-.64,0-1.27,0-1.91s.24-.89,1-.89H53.38a23.24,23.24,0,0,1,3.13,2.9,1.55,1.55,0,0,1,.45,1H43.7C42.64,27.13,42.24,26.87,41.92,26Z"/><path class="cls-5" d="M.19,57.7V56c0-.4.1-.58.6-.58H12.62c.49,0,.6.15.59.53v3.31h-11A2.16,2.16,0,0,1,.19,57.7Z"/><path class="cls-5" d="M43.92,14.74c-.73-.42-1.33-1.07-2.31-1.05l-.49,0a.77.77,0,0,0-.59-.12c-1.24,0-1.13.16-1.13-1.07V6.18H41a2.44,2.44,0,0,1,2.85,2,2.47,2.47,0,0,1,0,.61C43.89,10.73,43.92,12.73,43.92,14.74Z"/><path class="cls-6" d="M9.37,47.81H6.31c-.88,0-1.38-.37-1.41-1s.41-1.19,1.35-1.2c2.14,0,4.29-.08,6.43,0,1.1.05.36,1,.51,1.45.1.3.19.77-.53.75Z"/><path class="cls-6" d="M9.39,36H6.26c-.78,0-1.3-.37-1.36-.89-.08-.7.25-1.08,1.11-1.23a6.32,6.32,0,0,1,1.06-.09h5.48c.48,0,.63.11.65.55C13.25,36,13.27,36,11.43,36Z"/><path class="cls-7" d="M9.33,41.85H6.12c-.88,0-1.23-.34-1.22-1a1.07,1.07,0,0,1,1.11-1h6.57c.49,0,.64.12.64.55,0,1.55.06,1.55-1.7,1.55Z"/><path class="cls-7" d="M9.37,18.24H6.08c-.77,0-1.14-.3-1.18-.88a1.06,1.06,0,0,1,1-1.14h7.06c.58.49.17,1.12.28,1.67.06.36-.22.41-.55.41Z"/><path class="cls-7" d="M9.42,24.21h-3c-1,0-1.48-.39-1.47-1.08s.41-1,1.41-1h6.11c.58,0,.82.11.81.69,0,1.41,0,1.41-1.62,1.41Z"/><path class="cls-7" d="M9.31,30.05H6.1c-.81,0-1.18-.32-1.2-1a1.06,1.06,0,0,1,1-1.08h6.83c.22,0,.43,0,.44.28v1.53c0,.34-.36.27-.6.27Z"/><path class="cls-4" d="M24.9,29.7v26A1.33,1.33,0,0,1,23.57,57h0a1.32,1.32,0,0,1-1.32-1.32h0V29.7a1.32,1.32,0,0,1,1.32-1.32h0A1.33,1.33,0,0,1,24.9,29.7Z"/><path class="cls-4" d="M31.2,29.7v26A1.33,1.33,0,0,1,29.87,57h0a1.32,1.32,0,0,1-1.33-1.32h0V29.7a1.32,1.32,0,0,1,1.33-1.32h0A1.33,1.33,0,0,1,31.2,29.7Z"/><path class="cls-4" d="M37.49,29.7v26A1.32,1.32,0,0,1,36.17,57h0a1.33,1.33,0,0,1-1.33-1.32V29.7a1.33,1.33,0,0,1,1.35-1.31h0A1.32,1.32,0,0,1,37.49,29.7Z"/><path class="cls-4" d="M44.49,29.7v26A1.33,1.33,0,0,1,43.16,57h0a1.31,1.31,0,0,1-1.33-1.31h0V29.7a1.31,1.31,0,0,1,1.33-1.31h0A1.33,1.33,0,0,1,44.49,29.7Z"/><path class="cls-4" d="M18.09,32.73H48a1.18,1.18,0,0,1,1.18,1.18h0A1.18,1.18,0,0,1,48,35.08H18.09a1.18,1.18,0,0,1-1.18-1.17h0A1.18,1.18,0,0,1,18.09,32.73Z"/><path class="cls-4" d="M18.09,38.48H48a1.17,1.17,0,0,1,1.18,1.17h0A1.18,1.18,0,0,1,48,40.83H18.09a1.18,1.18,0,0,1-1.18-1.18h0A1.17,1.17,0,0,1,18.09,38.48Z"/><path class="cls-4" d="M18.09,44.68H48a1.17,1.17,0,0,1,1.18,1.17h0A1.17,1.17,0,0,1,48,47H18.09a1.17,1.17,0,0,1-1.18-1.17h0A1.17,1.17,0,0,1,18.09,44.68Z"/><path class="cls-4" d="M18.09,50.86H48A1.18,1.18,0,0,1,49.21,52h0A1.17,1.17,0,0,1,48,53.21H18.09A1.17,1.17,0,0,1,16.91,52h0A1.18,1.18,0,0,1,18.09,50.86Z"/></g></g><circle class="cls-8" cx="53.69" cy="16.54" r="16.54"/><path class="cls-9" d="M60.75,17.54H54.52v6.21a1.06,1.06,0,0,1-2.11.24h0a1,1,0,0,1,0-.24V17.54H46.18a1.07,1.07,0,0,1,0-2.13h6.23V9.2A1.06,1.06,0,0,1,54.52,9V9a.89.89,0,0,1,0,.23v6.18h6.23a1.06,1.06,0,1,1,0,2.12Z"/></g></g></svg>