<svg xmlns="http://www.w3.org/2000/svg" viewBox="0 0 69.36 72.2"><defs><style>.cls-1{fill:#e8f0fb;}.cls-2{fill:#dfebf9;}.cls-3{fill:#b8cbea;}.cls-4{fill:#91a6d6;}.cls-5{fill:#93a8d7;}.cls-6{fill:#0e9339;}.cls-7{fill:#fff;}</style></defs><g id="Layer_2" data-name="Layer 2"><g id="Layer_1-2" data-name="Layer 1"><g id="Layer_2-2-2" data-name="Layer 2-2-2"><g id="Layer_1-2-2-2" data-name="Layer 1-2-2-2"><path class="cls-1" d="M5.81,3.12H49.29a1.42,1.42,0,0,1,.24,1.08V61.6A6.11,6.11,0,0,1,49.47,63c-.2.51-.53.29-.82.13-.8-.45-1.58-.94-2.37-1.42C40.71,58.2,35.1,54.82,29.53,51.41c-1.5-.91-3-1.8-4.5-2.74-.58-.39-.63-.35-.65.36a15.32,15.32,0,0,1-1.82,7,8.17,8.17,0,0,1-7.19,4.39,10,10,0,0,1-6.19-2.83,11.24,11.24,0,0,1-3.57-8.66V7.77c-.06-1.33,0-2.66,0-4A1,1,0,0,1,5.81,3.12Z"/><path class="cls-2" d="M56.32,3.12V66.71c0,.44.12,1-.67.67A22.93,22.93,0,0,0,53.41,66c-1.21-.72-2.4-1.48-3.61-2.2-.22-.13-.52-.21-.49-.58v-60Z"/><path class="cls-3" d="M50.79,66.52c-.45,0-.42.29-.42.58v4.45c0,.5-.15.65-.65.65H.65C0,72.2,0,71.9,0,71.42V8.74c0-.93,0-.93,1-.93H5.81V49.15a10.78,10.78,0,0,0,4.55,9.15,8.89,8.89,0,0,0,5.16,1.89c7.93,1.07,15.75,2.72,23.64,4.06,3.6.58,7.2,1.3,10.82,1.9C50.29,66.17,50.68,66.07,50.79,66.52Z"/><path class="cls-4" d="M50.79,66.52l-4.4-.79-15.71-2.8q-7.48-1.32-15-2.62s-.11-.08-.16-.11c3.79-.25,6.22-2.32,7.54-5.76a15.58,15.58,0,0,0,1.08-5.8c0-.58.13-.63.62-.33L48.92,63l.36.17c1.57,1.08,3.23,2,4.85,3l1.54,1c.2.13.12.18-.05.23Z"/><path class="cls-5" d="M31.09,19.07H46.68c.84,0,1.32.39,1.32,1a1,1,0,0,1-.91,1,4.57,4.57,0,0,1-.74,0H15.78a3.17,3.17,0,0,1-.87,0,1,1,0,0,1-.8-1.17s0,0,0,0a1,1,0,0,1,.88-.78,3.05,3.05,0,0,1,.74,0Z"/><path class="cls-5" d="M31,34H15.39c-.8,0-1.31-.45-1.31-1.08a1.2,1.2,0,0,1,1.27-1.06H46.19a4.19,4.19,0,0,1,1,.09A.93.93,0,0,1,48,33a1,1,0,0,1-.84,1,3.64,3.64,0,0,1-.66,0Z"/><path class="cls-4" d="M31,27.53H15.4c-1,0-1.46-.54-1.25-1.28A1,1,0,0,1,15,25.5H46.45c1.11,0,1.57.31,1.57,1s-.46,1-1.58,1Z"/><path class="cls-4" d="M31,14.72H15.49c-.51,0-1,0-1.26-.58a1,1,0,0,1,.36-1.34.83.83,0,0,1,.41-.13H46.62c.53,0,1.06,0,1.31.58a1,1,0,0,1-.49,1.32l-.08,0h0a1,1,0,0,1-.29.07,3.11,3.11,0,0,1-.61,0Z"/></g></g><circle class="cls-6" cx="52.82" cy="16.54" r="16.54"/><path class="cls-7" d="M59.88,17.54H53.65v6.21a1.06,1.06,0,1,1-2.11.24,1,1,0,0,1,0-.24V17.54H45.31a1.07,1.07,0,0,1,0-2.13h6.23V9.2A1.06,1.06,0,1,1,53.65,9a.88.88,0,0,1,0,.23v6.18h6.23a1.06,1.06,0,0,1,0,2.12Z"/></g></g></svg>