<svg xmlns="http://www.w3.org/2000/svg" viewBox="0 0 71.04 65.64"><defs><style>.cls-1{fill:#0b53a2;}.cls-2{fill:#010101;}.cls-3{fill:#e7e4e1;}.cls-4{fill:#0e9339;}.cls-5{fill:#fff;}</style></defs><g id="Layer_2" data-name="Layer 2"><g id="Layer_1-2" data-name="Layer 1"><g id="Layer_2-2" data-name="Layer 2-2"><g id="Layer_1-2-2" data-name="Layer 1-2-2"><g id="calendar"><path id="Path_690" data-name="Path 690" class="cls-1" d="M57.34,25.37H1.22v-8A5.42,5.42,0,0,1,6.61,12H51.92a5.42,5.42,0,0,1,5.42,5.42Z"/><path id="Path_691" data-name="Path 691" class="cls-2" d="M58.56,26.59H0V17.36a6.63,6.63,0,0,1,6.61-6.63H51.92a6.64,6.64,0,0,1,6.64,6.61ZM2.44,24.16H56.12V17.37a4.2,4.2,0,0,0-4.2-4.2H6.61a4.19,4.19,0,0,0-4.17,4.17Z"/><path id="Path_692" data-name="Path 692" class="cls-3" d="M51.92,64.42H6.61A5.39,5.39,0,0,1,1.22,59h0V25.37H57.34V59A5.38,5.38,0,0,1,52,64.44h0Z"/><g id="Group_1220" data-name="Group 1220"><path id="Path_693" data-name="Path 693" class="cls-2" d="M51.92,65.64H6.61A6.64,6.64,0,0,1,0,59V24.16H58.56V59A6.64,6.64,0,0,1,51.92,65.64Zm-49.48-39V59a4.19,4.19,0,0,0,4.17,4.17H51.92A4.19,4.19,0,0,0,56.12,59V26.59Z"/><path id="Path_694" data-name="Path 694" class="cls-2" d="M18.3,16.54a1.22,1.22,0,0,1-1.22-1.22h0v-7a1.22,1.22,0,0,1,2.44-.22.81.81,0,0,1,0,.22v7A1.21,1.21,0,0,1,18.3,16.54Z"/><path id="Path_695" data-name="Path 695" class="cls-2" d="M11,16.54a1.22,1.22,0,0,1-1.22-1.22h0v-7a1.22,1.22,0,1,1,2.44-.22.81.81,0,0,1,0,.22v7A1.21,1.21,0,0,1,11,16.54Z"/><path id="Path_696" data-name="Path 696" class="cls-2" d="M47.59,16.54a1.22,1.22,0,0,1-1.22-1.22v-7a1.22,1.22,0,1,1,2.43,0h0v7A1.2,1.2,0,0,1,47.59,16.54Z"/><path id="Path_697" data-name="Path 697" class="cls-2" d="M40.27,16.54a1.22,1.22,0,0,1-1.22-1.22h0v-7a1.22,1.22,0,1,1,2.43,0h0v7A1.2,1.2,0,0,1,40.27,16.54Z"/><path id="Path_698" data-name="Path 698" class="cls-2" d="M22.89,42.89a4.13,4.13,0,0,0,.88-2.43,2.82,2.82,0,0,0-.92-2.11,3.44,3.44,0,0,0-2.45-.87,4.89,4.89,0,0,0-4.25,2.58l-2.77-1.63a10.49,10.49,0,0,1,3-3.08,7.91,7.91,0,0,1,4.22-1A6.92,6.92,0,0,1,25.15,36a5.56,5.56,0,0,1,2,4.47,6.11,6.11,0,0,1-.83,3.06,20.77,20.77,0,0,1-3.06,3.69l-4.87,4.88h9.31V55.4h-14V52.51l6.25-6.39a32.58,32.58,0,0,0,3-3.35Z"/><path id="Path_699" data-name="Path 699" class="cls-2" d="M40.28,42.89a4.09,4.09,0,0,0,.93-2.43,2.8,2.8,0,0,0-.93-2.11,3.39,3.39,0,0,0-2.43-.87,4.89,4.89,0,0,0-4.3,2.58l-2.76-1.61a10.21,10.21,0,0,1,3-3.07,7.67,7.67,0,0,1,4.21-1A6.82,6.82,0,0,1,42.55,36a5.54,5.54,0,0,1,1.94,4.47,6,6,0,0,1-.82,3,20.43,20.43,0,0,1-3.05,3.7L35.7,52.06h9.44V55.4H31V52.51l6.24-6.39a33.9,33.9,0,0,0,3-3.35Z"/></g></g></g></g><circle class="cls-4" cx="54.5" cy="16.54" r="16.54"/><path class="cls-5" d="M61.56,17.54H55.33v6.21a1.06,1.06,0,0,1-2.11.24h0a1,1,0,0,1,0-.24V17.54H47a1.07,1.07,0,0,1,0-2.13h6.23V9.2A1.06,1.06,0,0,1,55.33,9V9a.89.89,0,0,1,0,.23v6.18h6.23a1.06,1.06,0,0,1,0,2.12Z"/></g></g></svg>