<svg xmlns="http://www.w3.org/2000/svg" viewBox="0 0 69.86 60.93"><defs><style>.cls-1{fill:#fcab29;}.cls-2{fill:#dd8d19;}.cls-3{fill:#444966;}.cls-4{fill:#2e344c;}.cls-5{fill:#ec86c8;}.cls-6{fill:#d770b7;}.cls-7{fill:#ebeef2;}.cls-8{fill:#dce0e5;}.cls-9{fill:#d1d6de;}.cls-10{fill:#48cfb7;}.cls-10,.cls-11,.cls-12,.cls-14{stroke:#000;}.cls-10,.cls-11,.cls-12{stroke-width:0.45px;}.cls-11{fill:#1b3d66;}.cls-12{fill:#ed5575;}.cls-13,.cls-14{fill:none;}.cls-14{stroke-width:0.89px;}.cls-15{fill:#0e9339;}.cls-16{fill:#fff;}</style></defs><g id="Layer_2" data-name="Layer 2"><g id="Layer_1-2" data-name="Layer 1"><g id="Layer_2-2" data-name="Layer 2"><g id="Layer_1-2-2" data-name="Layer 1-2"><g id="task"><path id="Path_753" data-name="Path 753" class="cls-1" d="M64.39,12.46,58.86,9a.82.82,0,0,0-.49,0H5A2.47,2.47,0,0,0,2.56,11.5v6.2A2.48,2.48,0,0,0,5,20.18H58.4a1,1,0,0,0,.49,0l5.5-3.58a2.42,2.42,0,0,0,.82-3.32A2.3,2.3,0,0,0,64.39,12.46Z"/><path id="Path_754" data-name="Path 754" class="cls-2" d="M64.39,15.23l-5.5,1.16H5c-1.37,0-2.48-.38-2.48-.84v2.09A2.48,2.48,0,0,0,5,20.12H58.4a1,1,0,0,0,.49,0l5.5-3.52a2.42,2.42,0,0,0,1.14-2C65.53,14.82,65.09,15.08,64.39,15.23Z"/><path id="Path_755" data-name="Path 755" class="cls-3" d="M64.39,12.46,58.86,9a.82.82,0,0,0-.49,0h-.94V20.15h.94a1,1,0,0,0,.49,0l5.53-3.55a2.42,2.42,0,0,0,.82-3.32A2.3,2.3,0,0,0,64.39,12.46Z"/><path id="Path_756" data-name="Path 756" class="cls-4" d="M64.39,15.23l-5.5,1.16H57.46v3.76h.94a1,1,0,0,0,.49,0l5.5-3.55a2.42,2.42,0,0,0,1.14-2C65.53,14.82,65.09,15.08,64.39,15.23Z"/><path id="Path_757" data-name="Path 757" class="cls-5" d="M8,17.67V11.36a2.47,2.47,0,0,1,2.47-2.48H5a2.48,2.48,0,0,0-2.48,2.48V17.7A2.48,2.48,0,0,0,5,20.18h5.38A2.47,2.47,0,0,1,8,17.7Z"/><path id="Path_758" data-name="Path 758" class="cls-6" d="M8,17.7V16.45H5c-1.37,0-2.48-.38-2.48-.84V17.7A2.48,2.48,0,0,0,5,20.18h5.38A2.47,2.47,0,0,1,8,17.7Z"/><path id="Path_759" data-name="Path 759" class="cls-7" d="M49.87,5.27H13.13a.93.93,0,0,0-.93.93h0V53.94a4.48,4.48,0,0,0,4.48,4.49H43.23a.94.94,0,0,0,.64-.26L54.06,48a.94.94,0,0,0,.26-.64V9.73A4.49,4.49,0,0,0,49.87,5.27Z"/><path id="Path_760" data-name="Path 760" class="cls-8" d="M49.87,5.27H46.58a4.49,4.49,0,0,1,4.48,4.48h0V47.31a.94.94,0,0,1-.26.64l-.5.49h3.2L54,48a.9.9,0,0,0,.26-.64V9.73A4.48,4.48,0,0,0,49.87,5.27Z"/><path id="Path_761" data-name="Path 761" class="cls-9" d="M54.26,47a.91.91,0,0,0-.84-.58H43.23a.92.92,0,0,0-.93.93h0V57.5a.93.93,0,0,0,1,.89,1,1,0,0,0,.61-.25L54.06,48A1,1,0,0,0,54.26,47Z"/><g id="Group_1240" data-name="Group 1240"><path id="Path_762" data-name="Path 762" class="cls-3" d="M19.24,9.84a.93.93,0,0,1-.93-.93h0V3.47a.93.93,0,0,1,1.83-.33.91.91,0,0,1,0,.33V8.91A.92.92,0,0,1,19.24,9.84Z"/><path id="Path_763" data-name="Path 763" class="cls-3" d="M28.62,9.84a.93.93,0,0,1-.94-.93h0V3.47a.93.93,0,0,1,1.84-.33.91.91,0,0,1,0,.33V8.91A.93.93,0,0,1,28.62,9.84Z"/><path id="Path_764" data-name="Path 764" class="cls-3" d="M37.84,9.84a.93.93,0,0,1-.93-.93V3.47a.93.93,0,0,1,1.84-.33.91.91,0,0,1,0,.33V8.91A.93.93,0,0,1,37.84,9.84Z"/><path id="Path_765" data-name="Path 765" class="cls-3" d="M47.3,9.84a.93.93,0,0,1-.93-.93V3.47a.93.93,0,0,1,1.84,0V8.91A.93.93,0,0,1,47.3,9.84Z"/></g><path id="Path_766" data-name="Path 766" class="cls-10" d="M22.82,22.71a1.27,1.27,0,0,1-.9-.38l-2.5-2.5A1.27,1.27,0,1,1,21.16,18h0l1.6,1.6,3.82-3.69a1.26,1.26,0,1,1,1.83,1.74h0L23.75,22.3A1.24,1.24,0,0,1,22.82,22.71Z"/><g id="Group_1241" data-name="Group 1241"><path id="Path_767" data-name="Path 767" class="cls-11" d="M45.91,17.47H33a.94.94,0,0,1-.75-1.08.91.91,0,0,1,.75-.75H45.91a.92.92,0,0,1,1.08.75.94.94,0,0,1-.75,1.08.91.91,0,0,1-.33,0Z"/><path id="Path_768" data-name="Path 768" class="cls-11" d="M37.52,21.69H33a.93.93,0,0,1,0-1.83h4.57a.93.93,0,0,1,0,1.83Z"/></g><path id="Path_769" data-name="Path 769" class="cls-10" d="M22.82,35.66a1.23,1.23,0,0,1-.9-.38l-2.5-2.5A1.26,1.26,0,1,1,21.16,31h0l1.6,1.6,3.82-3.73a1.27,1.27,0,0,1,1.83,1.75h0l-4.66,4.66A1.22,1.22,0,0,1,22.82,35.66Z"/><g id="Group_1242" data-name="Group 1242"><path id="Path_770" data-name="Path 770" class="cls-11" d="M45.91,30.31H33a.94.94,0,0,1,0-1.84H45.91a.94.94,0,0,1,0,1.84Z"/><path id="Path_771" data-name="Path 771" class="cls-11" d="M37.52,34.64H33a.93.93,0,0,1,0-1.83h4.57a.93.93,0,0,1,0,1.83Z"/><path id="Path_772" data-name="Path 772" class="cls-11" d="M45.91,45.12H33a.93.93,0,0,1,0-1.83H45.91a.93.93,0,0,1,0,1.83Z"/><path id="Path_773" data-name="Path 773" class="cls-11" d="M37.52,49.49H33a.93.93,0,0,1,0-1.83h4.57a.93.93,0,0,1,0,1.83Z"/></g><path id="Path_774" data-name="Path 774" class="cls-12" d="M25.18,50.65a4.22,4.22,0,1,1,4.22-4.21v.14A4.21,4.21,0,0,1,25.18,50.65Zm0-6.57a2.36,2.36,0,1,0,2.36,2.35A2.36,2.36,0,0,0,25.18,44.08Z"/><g id="Path_775" data-name="Path 775"><path class="cls-13" d="M15,58.22l28.44.27L54.52,47.71V20.38H58l7.57-6L58,9.06h-3.5a6.65,6.65,0,0,0-2.56-3.24,8.54,8.54,0,0,0-3.75-.46A4.05,4.05,0,0,0,48,3.29a.78.78,0,0,0-1.42,0c-.41.64,0,2.07,0,2.07H38.83V3.26a1.05,1.05,0,0,0-1.41-.45,1.08,1.08,0,0,0-.45.45V5.33h-7.6V2.91a1,1,0,0,0-1.44-.05,1.06,1.06,0,0,0-.22.29V5.21H20.12V2.91a1,1,0,0,0-1.43,0,.88.88,0,0,0-.23,0v2.3a51.44,51.44,0,0,0-6.2.61V8.88H5.41s-2.5-.14-2.73,2a68.42,68.42,0,0,0,0,6.87c0,2.33,2.73,2.3,2.73,2.3h6.85s-.35,33.88.43,35.81A3.78,3.78,0,0,0,15,58.19Z"/><path class="cls-13" d="M43.37,58.4,54.49,47.63V20.38H58l7.57-6L58,9.06H54.52a6.67,6.67,0,0,0-2.59-3.24A7.39,7.39,0,0,0,49,5.3h-.87a4.06,4.06,0,0,0-.21-2.07.78.78,0,0,0-1-.38.82.82,0,0,0-.38.38c-.41.64,0,2.07,0,2.07H38.83v-2a1.08,1.08,0,0,0-1.47-.39,1.12,1.12,0,0,0-.39.39V5.33h-7.6V2.91a.82.82,0,0,0-.67-.23,1.26,1.26,0,0,0-1,.58V5.33H20.12V2.91a1,1,0,0,0-1.43,0h-.23v2.3a51.44,51.44,0,0,0-6.2.61V8.74H5.39c-.32,0-2.6,0-2.71,2s0,4.54,0,6.87,2.53,2.3,2.73,2.3h6.85s-.35,33.88.43,35.8A3.8,3.8,0,0,0,15,58l28.44.23m1.05,2.59H43.37l-28.44-.23h-.7a6.37,6.37,0,0,1-4-3.87c-.29-.7-.67-1.66-.7-19.59V22.59H5.39A5,5,0,0,1,0,17.92a.34.34,0,0,1,0-.1v-7.1A4.86,4.86,0,0,1,5.25,6.28H9.66V4.63l.91-.78c.7-.59,1.25-.76,4.77-1h.53V2.19l.49-.67A3.61,3.61,0,0,1,21.41.74a3.8,3.8,0,0,1,.77.78l.53.67v.55h2.38V2.51l.44-.67A3.81,3.81,0,0,1,28.7,0a3.4,3.4,0,0,1,2.91,1.43l.41.76v.55h2.42V2.45l.49-.67a3.65,3.65,0,0,1,5-1A3.75,3.75,0,0,1,41,1.78l.46.67v.29H44a3.85,3.85,0,0,1,.41-.87A3.35,3.35,0,0,1,49,.61a3.29,3.29,0,0,1,1.25,1.26,3.6,3.6,0,0,1,.44.93,8.74,8.74,0,0,1,2.45.67A7.54,7.54,0,0,1,56,6.38h2.7l.67.46L67,12.05l2.91,2-2.7,2.16-7.57,6-.7.56H57.11V48.68l-.78.75L45.21,60.2l-.76.73Z"/></g><path id="Path_776" data-name="Path 776" class="cls-14" d="M10.83,7.34,7.92,10.25h0a7,7,0,0,0,0,8.27c1,1.32,2.1,2.58,3.23,3.78"/></g></g></g><circle class="cls-15" cx="51.81" cy="35.66" r="16.54"/><path class="cls-16" d="M58.87,36.66H52.64v6.21a1.07,1.07,0,0,1-.94,1.18,1.06,1.06,0,0,1-1.17-.94h0a1,1,0,0,1,0-.24V36.66H44.3a1.07,1.07,0,0,1,0-2.13h6.23V28.32a1.06,1.06,0,1,1,2.1-.24v0a.88.88,0,0,1,0,.23v6.18h6.23a1.06,1.06,0,0,1,0,2.12Z"/></g></g></svg>