<svg xmlns="http://www.w3.org/2000/svg" width="13.661" height="13.662" viewBox="0 0 13.661 13.662">
  <g id="Group_7572" data-name="Group 7572" transform="translate(-1785.543 -733.338)">
    <path id="Path_2242" data-name="Path 2242" d="M13.666,6.351v.963c-.021.158-.039.316-.062.473a6.848,6.848,0,0,1-5.557,5.771c-.244.045-.49.071-.735.107H6.353c-.083-.011-.165-.024-.25-.034a6.581,6.581,0,0,1-3.267-1.259A6.705,6.705,0,0,1,.036,6.1,6.222,6.222,0,0,1,1.28,2.847,6.709,6.709,0,0,1,7.557.035a6.351,6.351,0,0,1,3.215,1.21,6.736,6.736,0,0,1,2.791,4.4C13.6,5.876,13.631,6.114,13.666,6.351ZM6.831,1.063A5.768,5.768,0,1,0,12.6,6.838,5.775,5.775,0,0,0,6.831,1.063Z" transform="translate(1785.539 733.334)" fill="#f5222d"/>
    <path id="Path_2243" data-name="Path 2243" d="M176.45,162.353v-1.695a.534.534,0,1,1,1.066,0v3.376a.534.534,0,1,1-1.066,0Q176.45,163.193,176.45,162.353Z" transform="translate(1969.351 901.557) rotate(180)" fill="#f5222d"/>
    <path id="Path_2244" data-name="Path 2244" d="M171.912,101.536a.713.713,0,1,1-.512.2A.713.713,0,0,1,171.912,101.536Z" transform="translate(1964.274 845.094) rotate(180)" fill="#f5222d"/>
  </g>
</svg>
