<svg xmlns="http://www.w3.org/2000/svg" viewBox="0 0 183.71 183.71"><defs><style>.cls-1{fill:none;stroke:#000;stroke-miterlimit:10;stroke-width:13px;}</style></defs><g id="Layer_2" data-name="Layer 2"><g id="Layer_1-2" data-name="Layer 1"><path d="M129.46,135.19c-1.55,5.42-7.44,7.62-12.54,4.56-7.65-4.6-15.24-9.31-22.87-14-5.07-3.11-10.11-6.28-15.24-9.3a9.09,9.09,0,0,1-4.86-8.6C74,98.58,74,89.28,74,80q0-14.2,0-28.42c0-5.27,3.32-8.92,8.07-9s8.27,3.65,8.28,9c0,16.73,0,33.46,0,50.19a3.78,3.78,0,0,0,2.08,3.82c10.94,6.56,21.81,13.24,32.68,19.92C128.94,127.92,130.52,131.5,129.46,135.19Z"/><rect class="cls-1" x="6.5" y="6.5" width="170.71" height="170.71" rx="18.43"/></g></g></svg>