<svg xmlns="http://www.w3.org/2000/svg" width="28.057" height="28.106" viewBox="0 0 28.057 28.106">
  <path id="Icon_feather-phone-call" data-name="Icon feather-phone-call" d="M19.241,6.469a6.212,6.212,0,0,1,4.907,4.907M19.241,1.5a11.181,11.181,0,0,1,9.877,9.864m-1.242,9.914v3.727a2.485,2.485,0,0,1-2.708,2.485,24.586,24.586,0,0,1-10.721-3.814,24.226,24.226,0,0,1-7.454-7.454A24.586,24.586,0,0,1,3.178,5.451,2.485,2.485,0,0,1,5.65,2.742H9.377a2.485,2.485,0,0,1,2.485,2.137,15.952,15.952,0,0,0,.87,3.491,2.485,2.485,0,0,1-.559,2.621l-1.578,1.578a19.878,19.878,0,0,0,7.454,7.454l1.578-1.578a2.485,2.485,0,0,1,2.621-.559,29.855,29.855,0,0,0,3.491.87S27.907,20.017,27.876,21.278Z" transform="translate(-2.167 -0.396)" fill="none" stroke="#1a5669" stroke-linecap="round" stroke-linejoin="round" stroke-width="2"/>
</svg>
