<svg id="Group_559" data-name="Group 559" xmlns="http://www.w3.org/2000/svg" width="32.883" height="32.883" viewBox="0 0 32.883 32.883">
  <path id="Path_933" data-name="Path 933" d="M26.033,0H6.851A6.858,6.858,0,0,0,0,6.851V26.033a6.858,6.858,0,0,0,6.851,6.851H26.033a6.858,6.858,0,0,0,6.851-6.851V6.851A6.858,6.858,0,0,0,26.033,0ZM6.851,2.74H26.033a4.11,4.11,0,0,1,4.11,4.11V26.033a4.044,4.044,0,0,1-.411,1.761L17.177,15.239a6.851,6.851,0,0,0-9.688,0h0L2.74,19.985V6.851A4.11,4.11,0,0,1,6.851,2.74Zm0,27.4a4.11,4.11,0,0,1-4.11-4.11V23.86l6.684-6.684a4.11,4.11,0,0,1,5.813,0h0L27.793,29.732a4.044,4.044,0,0,1-1.761.411Z" fill="#757d86"/>
  <path id="Path_934" data-name="Path 934" d="M17.3,13.091a4.8,4.8,0,1,0-4.8-4.8A4.8,4.8,0,0,0,17.3,13.091Zm0-6.851A2.055,2.055,0,1,1,15.24,8.3,2.056,2.056,0,0,1,17.3,6.24Z" transform="translate(4.627 1.295)" fill="#757d86"/>
</svg>
