<svg xmlns="http://www.w3.org/2000/svg" width="19.203" height="12.049" viewBox="0 0 19.203 12.049">
  <g id="Layer_2" data-name="Layer 2" transform="translate(0 0)">
    <g id="Layer_1" data-name="Layer 1" transform="translate(0 0)">
      <path id="Path_2250" data-name="Path 2250" d="M5.422,10.445l.991-1.137c-.185-.208-.36-.4-.535-.6Q4.915,7.641,3.951,6.575a.652.652,0,0,1-.163-.741A.64.64,0,0,1,4.87,5.689c.521.571,1.035,1.148,1.553,1.722l2.626,2.917c.031.034.06.069.106.122.212-.243.417-.477.62-.706L18.022.288A.67.67,0,0,1,18.68.012a.6.6,0,0,1,.493.437.67.67,0,0,1-.178.673q-.858.975-1.709,1.955-3.728,4.27-7.449,8.547c-.46.532-.886.565-1.342,0-.378-.467-.8-.9-1.218-1.359-.053.053-.1.106-.146.156L5.96,11.767a.64.64,0,0,1-1.053.014Q2.542,9.163.185,6.54A.644.644,0,0,1,.2,5.618a.651.651,0,0,1,.935.075q1.62,1.8,3.237,3.593Z" transform="translate(0 0)" fill="#74ffab"/>
      <path id="Path_2251" data-name="Path 2251" d="M155.83,17.239a.753.753,0,0,1,.265-.535q1.192-1.364,2.383-2.73l2.941-3.374a.623.623,0,0,1,.673-.22.6.6,0,0,1,.461.515.644.644,0,0,1-.187.56q-1.609,1.847-3.216,3.688l-2.161,2.477a.633.633,0,0,1-.721.233A.615.615,0,0,1,155.83,17.239Z" transform="translate(-147.576 -9.805)" fill="#74ffab"/>
    </g>
  </g>
</svg>
