<svg xmlns="http://www.w3.org/2000/svg" viewBox="0 0 383.11 191.99"><defs><style>.cls-1{fill:var(--primary_theme_color_green);}</style></defs><g id="Layer_2" data-name="Layer 2"><g id="Layer_1-2" data-name="Layer 1"><path class="cls-1" d="M0,91.46c2.2-7,6.12-12.56,13.44-14.77,7.92-2.4,14.69-.13,20.38,5.77q24.93,25.85,49.88,51.67c3,3.05,6,6,8.81,9.17,1.55,1.75,2.43,1.88,4.21.11q38.47-38.23,77.11-76.31l61.72-61C240.94.75,247.33-1.24,254.7.76a18,18,0,0,1,13.52,14.05c1.7,7.25-.53,13.48-5.82,18.7q-20.65,20.35-41.25,40.75-56,55.36-112,110.72c-7.78,7.69-17.23,9.11-25.36,3.77a26.87,26.87,0,0,1-4.5-3.9Q42.9,147.2,6.5,109.55c-3-3.11-4.76-6.82-6.5-10.61Z"/><path class="cls-1" d="M209.81,145.46l66.67-65.92L349.6,7.23c8.37-8.27,20.24-8.53,28-.66s7.32,19.67-1.08,28L224.37,184.92c-9.76,9.63-20.9,9.4-30.37-.55-5.68-6-11.46-11.81-17-17.85a18.25,18.25,0,0,1-4-19.43c2.49-7.19,7.82-11.4,15.33-12.59a18.19,18.19,0,0,1,15.79,5C206,141.34,207.84,143.41,209.81,145.46Z"/></g></g></svg>