<svg xmlns="http://www.w3.org/2000/svg" width="27" height="27" viewBox="0 0 27 27">
  <g id="Group_7438" data-name="Group 7438" transform="translate(2143 1285)">
    <circle id="Ellipse_64" data-name="Ellipse 64" cx="13.5" cy="13.5" r="13.5" transform="translate(-2143 -1285)" fill="#00aa87"/>
    <path id="Path_1370" data-name="Path 1370" d="M315.363,174.205c-.594,0-1.189-.005-1.783,0a.234.234,0,0,1-.251-.159q-1.288-2.692-2.586-5.38a.446.446,0,0,1,.026-.546c.137-.151.3-.161.557-.039l9.938,4.752,2.834,1.356a.53.53,0,0,1,.271.217c.119.226.01.45-.307.6q-1.167.565-2.337,1.122l-10.363,4.955a.921.921,0,0,1-.216.092.385.385,0,0,1-.4-.146.4.4,0,0,1-.029-.446c.34-.708.684-1.415,1.024-2.123q.8-1.655,1.587-3.311a.236.236,0,0,1,.252-.157c1.182.006,2.364,0,3.546,0a.449.449,0,0,0,.477-.273.39.39,0,0,0-.392-.522c-.614-.005-1.228,0-1.842,0Z" transform="translate(-2446.659 -1446.002)" fill="#fff"/>
  </g>
</svg>
