<svg xmlns="http://www.w3.org/2000/svg" width="15.488" height="12.049" viewBox="0 0 15.488 12.049">
  <path id="Path_2252" data-name="Path 2252" d="M7.285,10.278v.063c-.186-.208-1.225-1.426-1.4-1.622Q4.921,7.65,3.955,6.583a.653.653,0,0,1-.163-.742A.64.64,0,0,1,4.876,5.7c.522.572,1.037,1.15,1.555,1.724L9.06,10.34c.031.034.06.069.106.122.212-.243.418-.477.621-.707L18.043.289A.67.67,0,0,1,18.7.012.6.6,0,0,1,19.2.45a.671.671,0,0,1-.178.674q-.859.976-1.711,1.957-3.732,4.275-7.458,8.557c-.461.533-.887.565-1.343,0-.378-.467-.8-.836-1.22-1.3Z" transform="translate(-3.737 0)" fill="#707070"/>
</svg>
