<svg xmlns="http://www.w3.org/2000/svg" viewBox="0 0 914.88 956.22"><defs><style>.cls-1{fill:#3b3868;}.cls-2{fill:#47477f;}.cls-3{fill:#8d8daf;}.cls-4{fill:#e8eefe;}.cls-5{fill:#fedc40;}.cls-6{fill:#fe4155;}.cls-7{fill:#d2dbfa;}.cls-8{fill:#746bf8;}.cls-9{fill:#2d2d59;}.cls-10{fill:#1aa8e7;}.cls-11{fill:#5f5f9a;}.cls-12{fill:#feb232;}.cls-13{fill:#42c2fb;}.cls-14{fill:#e70054;}.cls-15{fill:#fbeba8;}.cls-16{fill:#fbf8ea;}.cls-17{fill:#fe7185;}.cls-18{fill:#fe7085;}.cls-19{fill:#fb94a8;}.cls-20{fill:#89e0fe;}.cls-21{fill:#b7effe;}</style></defs><g id="Layer_2" data-name="Layer 2"><g id="Layer_1-2" data-name="Layer 1"><path class="cls-1" d="M139.68,170c.1-24.23.09-48.45.32-72.68.45-47.7,32.16-86,79.05-95.61A12.6,12.6,0,0,0,222.17,0H373.39c-1.59,11.46-5.22,23,2.19,34,.92,1.35-1.39,3.16-2.86,4.3-13.92,9.86-13.78,18.54.5,28.25,5,9,2.62,17.63-1.07,26.27-12.62,2.83-25.36,1.74-38,.85-6.17-.44-9.84-4.9-11.48-10.8-1.08-3.89-1.66-7.91-3-11.75-4.83-14-15.82-22.74-30.65-23.23-18-.6-36.1-.84-54.1.05-24.76,1.21-44.9,21.45-47,46.23-.37,4.34-.23,8.7-.23,13.06q0,125.52-.06,251c0,5.46,1.25,11.31-3,16.08-15.1,3.11-30.17,3.89-45.19-.57-2.92-4.11-2.45-8.87-2.46-13.48q-.09-87.93,0-175.87C137,179.39,137.26,174.49,139.68,170Z"/><path class="cls-2" d="M373.36,91.52c.36-6.4-3.81-12.91,1-19.28,1.72-2.28-2-3.19-2.88-5,4.1-3.92,9.31-2.9,14.15-2.91,33.83-.11,67.65-.05,101.48-.06,3.72,0,7.46.17,11.14-.55,6-1.17,9.28-5,9.63-10.92.35-6.08-3.05-9.87-8.74-11.6-3.92-1.2-8-1-12-1-33.83,0-67.66,0-101.48-.07-4.85,0-10.05,1-14.15-2.9,1.58-1.75,3.88-3.32,1.58-6.08-7.89-9.46-6.75-19-.19-28.53.47-.69.35-1.78.51-2.68h267c2.9,2.24,6.6-.16,9.57,1.65,44.22,5.9,79.59,45.63,81.55,91.95.56,13,.34,26.11.47,39.16,2.66,4.05,2.95,8.62,2.75,13.25-.53,12.48,1.38,25.05-1.26,37.47a5.79,5.79,0,0,1-2.36,2.63c-14.63,2-29.26,2.57-43.87-.37-3.63-3.81-2.91-8.66-2.93-13.23-.11-23,.05-46-.07-68.95-.2-35.62-20.67-55.88-56.37-55.94-14,0-28-.19-41.93.06-19.57.35-31.15,10-35.42,29.09-3.3,14.77-6.4,17.45-21.47,17.48q-71.74.15-143.48,0c-3.7,0-7.48.23-10.94-1.59C374.18,92.3,373.77,91.91,373.36,91.52Z"/><path class="cls-3" d="M649.93,1.65c-3.34.3-6.74,1-9.57-1.65h9.34A3,3,0,0,0,649.93,1.65Z"/><path class="cls-4" d="M655.68,910.94c-41.21,19.14-84,32.92-129.07,39.65-29.51,4.4-59.13,6.74-88.82,5.12-26.67-1.45-53.38-3.91-79.38-10.85-8.66-8.15-12.31-18.07-12.28-30q.25-126.87,0-253.73c0-15.34,5.58-27.1,19-34.9,9.1-3,18.49-1.28,27.75-1.61,11.29-.4,21.42-3.17,29.36-11.84,6.35-6.93,10-14.77,10-24.35,0-58.72.14-117.45-.1-176.18-.08-19.16-14.09-33.57-33.83-35.65-7.42-.78-14.9-.22-22.35-.36-4.34-.09-8.73.18-12.82-1.8-12.21-8.11-17.07-19.6-17-34.13.21-61.49.08-123,.09-184.46,0-6.27.5-12.41,3.43-18.12,5-9.85,12-15.51,24.14-15.41,50.61.43,101.23.2,151.84.17,4.33,0,8.71.37,12.89-1.23,20.83-4,33.8-16,37.5-37.2,1.23-7,5.48-10,12.3-10.12,15.2-.18,30.42-.59,45.59.14,13.69.66,23.31,9.43,23.79,22.76,1,27.28.5,54.59.21,81.89a10.92,10.92,0,0,1-1.8,6.17c-4.25,3.58-9.42,2.63-14.29,2.64-39.16.09-78.32,0-117.48.06-27,0-43.32,15.53-43.51,42.54q-.6,81.58,0,163.18c.23,27.91,16,42.7,44.05,42.77,7.46,0,14.93.32,22.37-.06,9.42-.49,16,3.56,21,11.17,6.34,9.59,12.64,19.22,19.22,28.65,7.9,11.31,16.29,11.45,24.48.34,7.56-10.26,13.93-21.36,21.51-31.6,6.62-9,14.26-10.36,23.14-4.88,1.73,3.46,1.65,7.21,1.65,10.91q.09,49.62,0,99.26c0,3.7.07,7.44-1.47,10.94-3.78,5.22-9.49,3.84-14.56,3.86-38.86.14-77.72.05-116.58.08-29.73,0-44.83,14.8-44.95,44.69-.21,52.55-.12,105.09,0,157.64,0,9.39.91,18.9,5.93,27,7.52,12.17,18.71,18.79,33.28,19.07,9,.17,18,.37,27,0,9.68-.42,16.58,3.11,21.68,11.49,5.81,9.55,12.12,18.82,18.62,27.93,8.25,11.56,16.77,11.57,25.22,0,7.35-10,13.57-20.86,21-30.85,6.64-9,14.23-10.38,23.16-4.94,1.6,3.17,1.64,6.6,1.65,10q.12,36.24,0,72.49A23.58,23.58,0,0,1,655.68,910.94Z"/><path class="cls-5" d="M789.55,184.7l63.29.33c27,.16,43.23,16.55,43.29,43.68q.15,72.16.26,144.31c1.44,7.91,2.67,15.85,2.58,23.92-.3,25.84-17.78,44.22-43.65,44.53-41.2.48-82.41.35-123.62,0-14.56.27-29.12.36-43.68,0-5.58,0-11.18.35-16.73-.69-24.39-6.9-35.81-20.1-37-43.14-.23-4.46-1.16-9.39,3.52-12.62,4.77-2,9.79-1.43,14.73-1.44q78.71-.06,157.4,0c4.34,0,8.73.31,13-.7,6.35-1.51,10.8-5.24,10.92-12.1.11-6.47-4.07-10.09-10-11.85-4.84-1.45-9.84-1.21-14.8-1.22q-78.71,0-157.4-.05c-5.21,0-10.63.83-15.39-2.34-3.11-4-2.74-8.85-2.51-13.41.37-7.62-2.9-10.47-10.43-10.41-21.08.19-42.18.26-63.26-.07-4.16-.07-9.6,1.37-11.24-5,4.94-3.77,10.74-2.6,16.22-2.61q122.67-.12,245.33-.06c4.35,0,8.72.18,13-.5,6.38-1,10.41-4.91,10.53-11.17.12-6.75-4-10.8-10.87-11.78a91.6,91.6,0,0,0-13-.45q-121.26,0-242.53-.06c-5.51,0-11.27,1.07-16.34-2.3.56-7.22,6.5-5.1,10.24-5.2,18.54-.46,37.1-.18,55.65-.21,2.78,0,5.57-.1,8.35-.08,5.88.05,8.26-2.93,8.28-8.61,0-4.6-.47-9.32,1.62-13.69,2.83-3.84,7.1-3.37,11.06-3.46,8.7-.22,17.41.06,26.12-.12,11.11-.23,18-5.47,18-13.46,0-7.62-6.62-12.52-17.49-12.79-8.39-.21-16.79,0-25.19-.1-4-.05-8.15.38-11.66-2.3-10-28.23,15.22-57.43,46.25-53,16.39,2.31,32.73,1.12,49.1,1l.27-.69a12,12,0,0,1,7.68-2.66c13.81-.34,27.62-.25,41.43-.06A18.68,18.68,0,0,1,789.55,184.7Z"/><path class="cls-6" d="M896.44,625q-.15,72.76-.3,145.52c-.06,29.16-15.82,45-44.8,45.08-21.76.06-43.52.25-65.28.38a23,23,0,0,1-12.4,2.89c-13.82-.14-27.65.29-41.47-.22-14.7.25-29.41.37-44.1,0-5.6,0-11.21.35-16.77-.69-24.18-6.84-36.35-21.18-37.09-44-.13-4.22-.89-8.88,3.6-11.82,4.77-1.95,9.79-1.42,14.73-1.43q78.72-.06,157.44,0c4.65,0,9.38.4,13.89-.93,5.86-1.73,10-5.49,10-11.93s-4-10.24-9.88-12c-4.51-1.37-9.24-1-13.89-1q-79.19,0-158.37-.05c-5.21,0-10.62.83-15.4-2.32-2.95-3.72-2.41-8.18-2.6-12.48-.45-10.43-1-11.16-11.24-11.25-19.53-.16-39.07.14-58.61-.18-4.2-.07-9.58,1.31-11.34-4.94,4.92-3.8,10.72-2.63,16.2-2.63q120.74-.12,241.48-.06c4.35,0,8.71.19,13-.54,5.86-1,9.8-4.41,10.66-10.19.89-6-2.58-10-7.76-12.5-4.29-2.1-9-2.51-13.64-2.52-54.7-.09-109.43-1.18-164.08.44-28.58.85-57.14.83-85.7,1.32-4.59.07-9.4.64-13.5-2.37.92-7,6.67-5.06,10.56-5.15,18-.42,36-.16,54.05-.19,2.79,0,5.59,0,8.38,0,10.38-.25,11.14-1,11.5-11.09.17-4.62-.51-9.37,2-13.66,3.43-3.53,7.94-2.93,12.21-3.08,9.29-.31,18.62.65,27.85-.62,9.72-1.33,14.86-6.65,14.2-14-.63-7-6.12-11.34-15.48-11.41-35.62-.27-71.25,0-106.88-.15-4.88,0-10,.84-14.47-2.07.11-6.9,5.7-5,9.18-5.11,18.92-.41,37.85-.16,56.78-.19,13.55,0,13.71,0,16.2-12.9,3.66-18.93,15.72-29.57,33.5-34.84,6.22-1.28,12.52-.86,18.8-.79q21.94-.49,43.88,0c41-.28,81.9-.38,122.85,0,29.18.27,47.56,22,44.06,51.06C897.75,615.24,897.37,620.17,896.44,625Z"/><path class="cls-7" d="M366,627.53c-13.45,9.86-17.28,23.08-17.15,39.59.64,81.47.43,163,.13,244.43,0,10.67,1.38,20.29,8.17,28.76.95,1.18,3.42,2.33,1.3,4.55-23.58-4-46-12-68.25-20.36-26.43-9.93-51.14-23.37-75.42-37.65a106.59,106.59,0,0,1-1.23-18.47q.06-112.56.07-225.13c0-5.5-.93-11.24,2.48-16.26,3.72-2.88,8.15-2.63,12.45-2.64q62.64-.11,125.29,0C358.05,624.38,362.58,623.91,366,627.53Z"/><path class="cls-8" d="M139.68,170q.15,90.43.29,180.88,0,11.19.09,22.38c-3.43,3.72-8,2.87-12.25,2.9-22.08.12-44.16-.05-66.24.08-25.25.15-40.08,14.89-40.12,40.05q-.14,84.44,0,168.87c0,23.58,14.57,38.51,38.08,39.39,9,.34,18,.28,27.05.06,10-.24,17.54,3.29,22.23,12.33a49,49,0,0,0,3,4.74c8.63,12.77,15.76,26.82,29.63,35.22,1.5,3.19,1.57,6.61,1.58,10q.12,64.07,0,128.14c0,4.25.51,8.8-3.26,12.1C76.23,766.14,33,693,13.4,607.31c-35.19-153.58-.93-291,101.09-411.24A246.53,246.53,0,0,1,139.68,170Z"/><path class="cls-8" d="M896.44,625q-.15-11.17-.31-22.33c-.37-23.56-17-40.45-40.6-40.6-41.26-.26-82.52-.25-123.78-.36-3.34-3.57-2.87-8.08-2.89-12.37q-.12-49,0-98c0-4.3-.46-8.81,2.88-12.38l119-.33c29.7-.07,45.31-15.63,45.36-45.22,0-6.82.16-13.64.25-20.46,8,20.35,11.25,41.86,14.2,63.28,8.67,62.94,4.11,125.11-12.81,186.35A10.86,10.86,0,0,1,896.44,625Z"/><path class="cls-1" d="M139.73,827.11l.31-151c9.38-5.51,14.94-14.27,20.33-23.32,4.73-7.93,9.31-16.1,15.95-22.65,3.19-3.14,7.33-7.29,10.68.31,1,4,.84,8,.84,12.09q0,104.06,0,208.12c0,5.16,1.09,10.69-2.92,15.14C168.72,854.2,153.24,841.8,139.73,827.11Z"/><path class="cls-9" d="M184.88,865.81l0-238.16c9.2-5.77,19.1-2.25,28.75-2.2a6.2,6.2,0,0,1,2.82,2q0,124.92-.07,249.82c0,3.17,1.63,6.85-1.62,9.56C205.07,879.44,193.86,874.2,184.88,865.81Z"/><path class="cls-2" d="M687,816h44.72a8.3,8.3,0,0,1,2.61,5.72c-.36,14.19,3.32,28.63-2.57,42.47A334.78,334.78,0,0,1,687,893.86c-3-2.93-2.84-6.78-2.87-10.47q-.21-28.42,0-56.86C684.12,822.79,684.23,819,687,816Z"/><path class="cls-1" d="M687,816q0,38.93,0,77.84c-9.64,7.15-20.73,11.65-31.3,17.08q-.21-47.38-.4-94.77c4.69-4.13,9.83-.2,14.71-.79Z"/><path class="cls-8" d="M789.55,184.7H731.74l.21-51.94C752.62,148.44,772.38,165.14,789.55,184.7Z"/><path class="cls-8" d="M731.78,864.2q0-24.09,0-48.19h54.32C769.79,834.14,751.32,849.77,731.78,864.2Z"/><path class="cls-10" d="M214.47,626.91l-29.61.74c-5.79.32-8.33,4.81-11.05,8.87-6.87,10.29-13.69,20.6-20.3,31.05-3.22,5.08-7.4,8.18-13.47,8.55-6.51-.19-11.09-3.62-14.52-8.82-6.67-10.1-13.65-20-19.75-30.47-4.14-7.07-9.55-9.55-17.53-9.67-13.61-.21-27.35,2-40.83-1.55a38.4,38.4,0,0,1-28.7-36.88q-.12-88.18,0-176.37c0-21.72,17.32-38.77,39.25-38.89,27.37-.15,54.74-.17,82.1-.25l44.81-.1c8-4.09,16.35-2.83,24.66-1.15,4.22,3.91-.25,4.7-2.34,5.38-19.61,6.44-27.83,20.41-27.41,40.42.07,3.35.09,6.94-3.26,9.22-4.12,1.92-8.52,1.5-12.85,1.51-20.22.05-40.43,0-60.65,0a57.42,57.42,0,0,0-10.24.46c-6.84,1.24-11.75,4.95-12,12.19s4.76,11.05,11.45,12.63c4,.94,8,.81,12.08.81,20.21,0,40.43-.05,60.64.06,4.58,0,9.44-.68,13.3,2.92,3.25,6.77,2.2,13.92,1.5,20.93s-6.11,7.62-11.66,7.64c-21.61.11-43.22,0-64.83.06a65.86,65.86,0,0,0-10.14.37c-7.26,1.62-13.15,5.33-13.41,13.3-.28,8.49,5.75,12.46,13.38,14.31,23.6.86,47.17.13,70.74.35,14.92.14,16.55,1.73,16.44,16.52,0,4,.24,8.1-1.86,11.8-3.66,3.91-8.55,3.18-13.12,3.21-20.22.13-40.44,0-60.65.06a87.78,87.78,0,0,0-10.26.28c-8.13,1-13.65,6.12-13.77,12.69S86,571,94.13,572a74.3,74.3,0,0,0,9.32.28c19.9,0,39.81,0,59.72,0,4.33,0,8.73-.37,12.9,1.27,4.24,2.49,3.58,6.78,3.75,10.67,1,23,8.43,32.67,30.18,39C212,623.84,214.44,623.91,214.47,626.91Z"/><path class="cls-9" d="M210.85,373.82l-26-.7q0-138.15,0-276.31c0-27.64,24.11-51.8,51.62-52,16.49-.11,33,0,49.47,0,21.61,0,36.41,13,38.74,34.69.92,8.55,4.9,12.13,13.2,12,11.82-.13,23.65,0,35.47,0h0a3.6,3.6,0,0,1,.19,3.54c-5.37,7.9-8.33,16.33-6.54,26.05.28,1.52-1,2.83-2.81,3.06a88.64,88.64,0,0,1-38,.9c-18.52-3.35-30-15.41-34.93-33.57-3.26-12-3.26-12-15.7-12.06-10.89,0-21.78-.17-32.66,0-16.49.32-23.33,7-23.43,23.42-.23,41.07-.07,82.14-.08,123.21q0,66.25,0,132.53c0,4.92.72,10-2.05,14.58A4.88,4.88,0,0,1,210.85,373.82Z"/><path class="cls-11" d="M371.49,37.29q61.9,0,123.81,0c6.86,0,12.12,2.38,14.95,8.85s1.24,12-3.16,17.19c-3.24,3.84-7.35,4-11.79,4q-61.91-.08-123.82,0c-6.69-2.27-11.2-6.33-11.19-14C360.29,45.4,363.57,39.71,371.49,37.29Z"/><path class="cls-12" d="M548.9,327c2.93,2.61,6.51,1.52,9.8,1.53,22.94.1,45.88.36,68.81-.13,7.6-.16,9.9,2.41,9.25,9.58-.51,5.53-.1,11.15-.1,16.73-3.52,3.47-8.06,2.77-12.31,2.8-20.79.12-41.57,0-62.35.07-4,0-8.14-.17-11.91,1.54-5.91,2.68-9.57,7.12-8.76,13.86.79,6.5,5.38,9.41,11.49,10.28a74.2,74.2,0,0,0,10.22.37c20.47,0,40.94-.08,61.42.07,4.22,0,8.82-.76,12.12,3.12-.26,8.92.16,17.82,3.23,26.27,5.18,14.25,16.57,21.33,30.42,25.3-4.81,4.35-9.84,3.71-15,.66-10.56-2.13-17.62,1.79-22.86,11.37-5.36,9.78-12,18.88-18.32,28.1-8.65,12.57-19.78,12.47-28.38-.21-6.45-9.52-13-19-18.9-28.84-4.62-7.71-10.32-11.7-19.72-10.89-8.65.74-17.41.18-26.12.15-24.78-.08-42.21-16.15-42.41-41q-.72-85.86,0-171.73c.19-24.73,17.74-41.07,42.38-41.15q67.19-.22,134.36-.34a41.54,41.54,0,0,1,31.68.06l44.53.76c-12.84,2.94-25.86.54-38.77,1.25a62.08,62.08,0,0,1-11.16,0c-31-4-46.13,20.73-44.91,45.57.08,1.55,0,3.1,0,4.66-3.66,4-8.58,3-13.1,3.05-20.48.15-40.95,0-61.43.08-4.66,0-9.35-.07-13.68,2.07-4.52,2.23-7.37,5.74-7.38,10.93s2.82,8.71,7.34,11c4.32,2.14,9,2.07,13.67,2.08,20.48.05,41-.06,61.44.08,4.53,0,9.43-.92,13.15,3,0,5.88-.34,11.79.12,17.63.51,6.49-1.9,8.57-8.41,8.47-22.58-.33-45.17-.17-67.75-.08-3.31,0-6.85-1-9.85,1.4-.48,1.57-1.77,2.4-3,3.35-9.86,7.95-10.27,14.11-1.56,23.58C547.25,324.52,548.43,325.51,548.9,327Z"/><path class="cls-1" d="M687,184.63l-31.68-.06c0-27.63,0-55.27,0-82.9,0-17.24-7.85-25.11-24.87-25.17-14.59,0-29.19.07-43.78-.06-4.68,0-7.23,1-8,6.48-3.47,24.31-15.07,36.1-39.06,40.6-3,1.12-6.14.59-9.22.59q-77.67.06-155.35,0c-3,0-6.21,1-9-1-5.34-12.36.47-22.09,7.45-31.54q79.22,0,158.43,0c11.65,0,13.52-1.69,15.32-13.52,3.22-21.21,17.27-33.14,39.07-33.16q23.77,0,47.53,0A53.27,53.27,0,0,1,687,98C687.15,126.84,687,155.74,687,184.63Z"/><path class="cls-13" d="M210.85,373.82l5.68-.55c3.64-3.08,8.07-2.84,12.38-2.85q60.84-.09,121.69-.05c4.71,0,9.26.48,13.45,2.84,10.57.11,21.13.12,31.69.35,22.82.51,39.48,16.86,39.56,39.6q.3,87.18,0,174.37c-.08,22.73-16.8,39.16-39.52,39.64-9.94.2-19.88.24-29.82.36l-149.53-.06-2-.56c-18-2.5-31-11.08-36.15-29.41-2-7.31-.41-14.79-1.1-22.17,4-4.18,9.23-3.12,14.06-3.13q78.81-.16,157.62-.07c4.35,0,8.72.23,13-.54,6.08-1.08,10.6-4.37,11.29-10.69.74-6.81-3.42-11-9.46-13.34-4.44-1.69-9.2-1.26-13.85-1.27q-78.81,0-157.62-.08c-5.14,0-10.7,1.22-15-3.06,0-5.88-.3-11.8.17-17.65.54-6.55-2-8.53-8.44-8.44-23.23.33-46.46.17-69.69.08-3.29,0-6.88,1.07-9.78-1.6,4.64-4.5,10.53-3.12,16-3.13q121.8-.15,243.6-.07c4.66,0,9.36.28,14-.63,6.17-1.22,10.28-4.73,10.27-11.33s-4.13-10.1-10.31-11.31c-4.6-.9-9.3-.62-14-.62q-121.8,0-243.6-.08c-5.43,0-11.33,1.39-15.94-3.15,2.91-2.65,6.49-1.59,9.78-1.6,23.23-.09,46.47-.24,69.69.08,6.46.09,9-1.86,8.46-8.42-.48-5.85-.13-11.77-.14-17.65,3.14-3.48,7.39-2.72,11.33-2.83,8.69-.22,17.4.32,26.08-.25,9.05-.6,15.3-6.27,15.23-13.29-.08-7.37-6-12.38-15.43-12.75-8.69-.34-17.39.05-26.08-.17-3.92-.1-8.22.73-11.19-3-.5-15.44,0-30.29,13.08-41.81C196.45,378.07,203.55,376.06,210.85,373.82Z"/><path class="cls-7" d="M364.05,373.21l-147.52.06q0-135.27,0-270.53c0-18.39,7.67-26.16,25.81-26.19,13.68,0,27.36.24,41-.11,6.13-.16,8.9,1.72,9.67,8.13,2.84,23.87,19.07,38.44,43,38.87,9.93.18,19.87-.24,29.81-.38q81.7.1,163.41.23c3.39,0,6.79.15,10.19.23-3.25,2.78-7.15,1.52-10.74,1.53q-75.93.12-151.84.06c-18.62,0-27.79,9.35-27.81,28.51q-.06,56.37,0,112.73c0,21.74.67,43.5-.22,65.2C348.21,347.91,350.51,362.4,364.05,373.21Z"/><path class="cls-14" d="M670,815.38l-14.71.79c-10.45-2.08-17.65,1.43-22.92,11.11-5.48,10.06-12.23,19.46-18.79,28.89-8,11.52-19.26,11.48-27.29-.11q-10.6-15.3-20.42-31.17c-4-6.44-8.9-9.67-16.77-9.2-9.3.56-18.66.16-28,.13-24.8-.1-42.2-16.1-42.42-41q-.76-85.87,0-171.76c.19-24.93,17.39-40.95,42.21-41l134.39-.31c4.54-2.87,9-3.29,13.15.65-20.26,7-31.42,20.93-31.66,42.73-.08,6.45-4.4,5.53-8.33,5.54-22,0-44,0-65.95.06-3.31,0-6.85-1-9.87,1.36-1.14,2.42-3.55,3.38-5.57,4.77-4.49,3.1-6.82,7.21-5.78,12.73s4.65,8.63,9.63,10.44c4.17,1.51,8.55,1.45,12.9,1.45,20.19,0,40.38-.05,60.57.06,4.25,0,8.79-.78,12.43,2.51,0,5.91-.65,11.89.07,17.71,1.11,9-2.86,10.82-11.05,10.64-22.37-.49-44.75-.21-67.14-.12-3.29,0-6.9-1.08-9.78,1.66-.63,1.83-2.21,2.89-3.43,4.24-8.24,9.11-7.07,16.65,3.61,23.16,1.31.79,2.73,1.41,3.46,2.88,4.58,2.94,9.68,1.37,14.51,1.42,20.17.2,40.35.42,60.5-.09,7.59-.2,10,2.37,9.27,9.57-.52,5.54-.16,11.16-.2,16.74-3.78,3.77-8.66,2.85-13.19,2.88-20.46.13-40.91,0-61.37.07-4.65,0-9.34-.06-13.66,2.08-4.51,2.24-7.35,5.75-7.35,10.94s2.84,8.7,7.35,10.93c4.32,2.14,9,2.07,13.66,2.08,20.46.05,40.91-.06,61.37.08,4.53,0,9.41-.9,13.19,2.87-.42,16.93,1.71,32.75,16.77,43.93C658.48,811.48,664.24,813.28,670,815.38Z"/><path class="cls-1" d="M668.4,562.36l-13.15-.65V439.08l15-.66,16.78.63c3.41,3.52,3,8,3,12.33q.13,49,0,98c0,4.3.41,8.82-3,12.34Z"/><path class="cls-15" d="M636.58,386.85q-39.57-.15-79.14-.28c-13.18-.06-19.92-5.38-19.78-15.55.14-9.84,7.72-16,19.85-16.09q39.57-.15,79.15-.19l136.22.13c14.93,0,29.86-.08,44.79,0,12.27.08,20.36,6.55,20.25,15.92s-8.16,15.7-20.34,15.72Q727.09,386.72,636.58,386.85Z"/><path class="cls-15" d="M548.9,327c-7.49-2.71-11.51-8-11.16-16,.36-8.17,5.39-12.61,13-14.54q81.18.11,162.35.22c35.77,0,71.54,0,107.31,0,10.62,0,17.6,6.19,17.61,15.1s-7,15.1-17.57,15.1Q684.66,327,548.9,327Z"/><path class="cls-2" d="M687,561.74V439.05h44.73q0,61.35,0,122.71Z"/><path class="cls-16" d="M636.63,269.05l-75.39-.3c-2.18,0-4.35.08-6.52,0-10.41-.47-17.08-6.67-17.08-15.81s6.63-15.63,17.07-15.72c23-.21,45.93-.06,68.89-.09,4.34,0,8.68-.17,13-.26,13,.09,26,.11,39,.3,10.94.16,18,6.44,18,15.73s-7.06,15.69-18,15.86C662.62,268.93,649.62,269,636.63,269.05Z"/><path class="cls-17" d="M636.59,763.75q-39.54-.06-79.09-.14c-12.7,0-19.84-5.79-19.84-15.81S544.82,732,557.5,732q39.54-.13,79.09-.15,91.29.06,182.57.14c14.48,0,23,12.06,16.47,23.33-3.77,6.55-9.92,8.47-17.4,8.44-56.82-.16-113.64-.09-170.46-.08C644,763.65,640.32,763.71,636.59,763.75Z"/><path class="cls-18" d="M552.51,704.18c-8.4-.73-13.78-5.14-14.68-13.55-.87-8.24,3-14,11-16.73,27.35,0,54.76,1.23,82-.15,61.17-3.09,122.34-.5,183.5-1.43,8.88-.13,17.5.9,21.85,10.62,4,8.88-1.79,19.66-11.5,20.92a67,67,0,0,1-8.39.12q-126.35,0-252.69-.08C560,703.9,556.23,704.08,552.51,704.18Z"/><path class="cls-19" d="M636.77,644q-38.13-.1-76.27-.24a52.67,52.67,0,0,1-8.34-.36c-8.78-1.43-14.35-7.52-14.51-15.52-.16-8.47,4.47-13.38,14.94-15.84,41.53.08,83,.26,124.58.14,7.19,0,11.85,3.25,14.94,9s1.64,11.68-2.23,16.49c-4.19,5.22-10.53,6.13-16.85,6.19C660.94,644,648.86,644,636.77,644Z"/><path class="cls-20" d="M177.25,543.15l177.14.22a71.35,71.35,0,0,1,7.46.08c8.79.92,15.59,8.59,15.27,17-.31,8-7.31,14.49-16.24,14.55-22.68.13-45.37,0-68.06.05q-57.8.09-115.6.25-40.07-.12-80.14-.26c-12.15,0-20.17-6.35-20.18-15.81S85,543.47,97.11,543.42Q137.19,543.24,177.25,543.15Z"/><path class="cls-20" d="M89.5,485.22q132.81,0,265.63.12c3.11,0,6.29-.35,9.3.21,8.08,1.49,12.62,6.53,12.62,14.83s-4.54,13.33-12.6,14.84c-3,.56-6.2.21-9.3.21l-265.64.11c-8.19-1.74-12.39-7.63-12.39-15.16S81.31,487,89.5,485.22Z"/><path class="cls-21" d="M177.23,425.3c13,.13,26,.18,38.94.4,10.1.17,17,6.58,17.14,15.61.1,8.49-7.4,15.73-17.08,16-13,.31-26,.26-38.94.36q-38.67-.18-77.32-.36A58.32,58.32,0,0,1,91.6,457c-8.9-1.35-15.16-8.6-14.54-16.54.63-8.22,7.3-14.65,16.34-14.74,24.22-.22,48.45-.07,72.67-.11C169.79,425.63,173.51,425.42,177.23,425.3Z"/><path class="cls-13" d="M277.72,173.48c-5.55-.48-11.15.64-16.66-.92-8.42-2.37-13.43-9-12.66-17s6.76-13.48,15.9-13.71c9-.22,18-.19,27,0,8.46.17,15.49,6.09,15.82,13.87.35,8.3-3.57,14.15-11.83,16.74C289.47,174.26,283.56,172.91,277.72,173.48Z"/></g></g></svg>