<svg xmlns="http://www.w3.org/2000/svg" width="15.469" height="27.591" viewBox="0 0 15.469 27.591">
  <g id="Icon_ionic-ios-mic" data-name="Icon ionic-ios-mic" transform="translate(-10.266 -3.375)">
    <path id="Path_2092" data-name="Path 2092" d="M18,23.625h0a4.513,4.513,0,0,0,4.5-4.5V7.875a4.513,4.513,0,0,0-4.5-4.5h0a4.513,4.513,0,0,0-4.5,4.5v11.25A4.513,4.513,0,0,0,18,23.625Z" fill="#aaa"/>
    <path id="Path_2093" data-name="Path 2093" d="M24.75,13.5a.987.987,0,0,0-.984.984v4.852a5.766,5.766,0,0,1-11.531,0V14.484a.984.984,0,0,0-1.969,0v4.852a7.744,7.744,0,0,0,6.75,7.671v3.959h1.969V27.007a7.744,7.744,0,0,0,6.75-7.671V14.484A.987.987,0,0,0,24.75,13.5Z" fill="#aaa"/>
  </g>
</svg>
